<svg xmlns="http://www.w3.org/2000/svg" viewBox="0 0 561.2 891.01"><defs><style>.cls-1{fill:#8e9b91;}.cls-2{fill:#e6b49d;}.cls-3,.cls-6,.cls-7,.cls-8{fill:none;stroke-linecap:round;stroke-linejoin:round;}.cls-3{stroke:#000;}.cls-3,.cls-7,.cls-8{stroke-width:3.61px;}.cls-4{fill:#677d70;}.cls-5{fill:#1d1d1b;}.cls-6{stroke:#1d1d1b;stroke-width:4.1px;}.cls-7{stroke:#e6b49d;}.cls-8{stroke:#fff;}</style></defs><g id="Layer_2" data-name="Layer 2"><g id="sect7"><g id="art"><path class="cls-1" d="M439,304.66c-1.17-1.2-.67-1.47-1.3-3.3a18.89,18.89,0,0,1-.54-3.36,11.86,11.86,0,0,1,.07-3.36,9,9,0,0,1,.88-3.31c.55-.87,1.89-1.08,2.89-1.82.81-.6,1.34-1.84,2.51-2.31a24.48,24.48,0,0,1,3.34-.61c1-.22,2.12-.22,3.34-.35s2.24.06,3.4,0,2.23-.23,3.39-.25,2.27-1.07,3.42-1.05,2.27.43,3.42.48,2.28.15,3.42.22,2.32-.27,3.45-.17,2.22.9,3.34,1,2.23.65,3.35.79,2.29.23,3.39.39,2.44-.7,3.54-.54,2.23.81,3.31,1,2.15,1.27,3.22,1.47,2.56-.83,3.59-.63c1.28.24,2.42.43,3.37.63,2.11.44,3.62-.35,3.3,1.32s-1.52,1-2.43,2.44-.84,1.45-1.75,2.85-.82,1.46-1.72,2.86-.65,1.57-1.56,3-.28,1.8-1.19,3.2-1.88.77-2.79,2.17-.36,1.77-1.27,3.17-.69,1.61-1.94,2.72-1.25-.26-3.41-.38c-1,0-2.13-.27-3.43-.36-1.06-.08-2.21,0-3.44-.14s-2.19-.61-3.39-.73-2.38,1-3.56.83-2.21-.65-3.37-.82-2.34.07-3.48-.12-2.14-1.12-3.28-1.33-2.41.31-3.54.07-2.09-1.25-3.2-1.52-2.4,0-3.49-.31-1.94-1.59-3-2-2.41-.18-3.44-.61S439.93,305.18,439,304.66Z"/><path class="cls-2" d="M95.84,383.69c-1.22,1.23-.1,1.48-.1,3.21s-.43,1.74-.43,3.47.9,1.73.9,3.47-.86,1.73-.86,3.46.14,1.74.14,3.47.3,1.73.3,3.47.41,1.73.41,3.46,0,1.74,0,3.47-.39,1.73-.39,3.47.38,1.73.38,3.47-1.15,1.73-1.15,3.47.3,1.73.3,3.47.09,1.74.09,3.47.13,1.73.13,3.47-.29,1.73-.29,3.47.7,1.73.7,3.47-1,1.73-1,3.47.78,1.73.78,3.47.08,1.73.08,3.46-.16,1.74-.16,3.47-.15,1.74-.15,3.47.38,1.73.38,3.47.36,1.73.36,3.47-.66,1.73-.66,3.46-.69,1.74-.69,3.47.37,1.74.37,3.47.41,1.73.41,3.47-.82,1.73-.82,3.47.37,1.73.37,3.47,0,1.73,0,3.47S96,489.22,96,491s-.1,1.74-.1,3.47.14,1.74.14,3.47-.1,1.74-.1,3.47-.22,1.74-.22,3.47.32,1.74.32,3.47-1.12,1.73-1.12,3.47,1.29,1.73,1.29,3.47-.79,1.73-.79,3.47.32,1.73.32,3.47-.57,1.73-.57,3.47.11,1.73.11,3.46,0,1.74,0,3.47.35,1.74.35,3.47,0,1.74,0,3.47S95,541.27,95,543s.5,1.73.5,3.47-.36,1.73-.36,3.47-.12,1.73-.12,3.47.09,1.73.09,3.46,0,1.74,0,3.47,1.09,1.74,1.09,3.47-1.35,1.74-1.35,3.47S96,569,96,570.76s.3,1.74.3,3.47,0,1.74,0,3.47-1.15,1.74-1.15,3.48.56,1.73.56,3.47-.43,1.73-.43,3.47.65,1.73.65,3.47.22,1.73.22,3.47-.51,1.73-.51,3.47,0,1.73,0,3.47-.7,1.73-.7,3.47.58,1.73.58,3.47.67,1.73.67,3.47S95,614.15,95,615.88s.2,1.74.2,3.48.31,1.73.31,3.47.17,1.73.17,3.47.51,1.73.51,3.47-.85,1.73-.85,3.47.32,1.73.32,3.47-.07,1.74-.07,3.47.23,1.74.23,3.47-.14,1.74-.14,3.48.44,1.73.44,3.47-.9,1.73-.9,3.47.58,1.74.58,3.47S96,659.28,96,661s-.55,1.74-.55,3.47.72,1.74.72,3.48,0,1.73,0,3.47-.3,1.73-.3,3.47-.35,1.74-.35,3.47-.56,1.74-.56,3.47,1,1.74,1,3.48.27,1.73.27,3.47-.34,1.73-.34,3.47.15,1.74.15,3.47,0,1.74,0,3.47-.06,1.74-.06,3.47,0,1.74,0,3.48.07,1.73.07,3.46.14,1.74.14,3.47-.59,1.73-.59,3.47S95,718.28,95,720s1.25,1.73,1.25,3.47,0,1.74,0,3.47-.88,1.74-.88,3.48.85,1.73.85,3.47-.75,1.73-.75,3.47.76,1.73.76,3.47-.41,1.73-.41,3.46-.61,1.74-.61,3.48.42,1.73.42,3.47.17,1.74.17,3.47,0,1.74,0,3.47.39,1.74.39,3.47-1,1.74-1,3.47,0,1.74,0,3.48,0,1.73,0,3.47.91,1.74.91,3.47.13,1.74.13,3.48-.76,1.73-.76,3.47S96,784.25,96,786s-.13,1.74-.13,3.48.28,1.74.28,3.47S95,794.67,95,796.4s.69,1.74.69,3.48-.52,1.73-.52,3.47.73,1.74.73,3.48-.81,1.73-.81,3.47,0,1.74,0,3.47.54,1.74.54,3.48-.18,1.73-.18,3.47.93,1.74.93,3.48-.6,1.73-.6,3.47.29,1.74.29,3.48.07,1.73.07,3.47-.56,1.74-.56,3.47-.62,1.74-.62,3.48,1.06,1.73,1.06,3.47-.07,1.74-.07,3.48S95,850.25,95,852s1,1.74,1,3.48-.64,1.73-.64,3.47-.21,1.74-.21,3.48.21,1.73.21,3.47-.35,1.74-.35,3.48v3.48c0,1.74,1.14,1.74,1.14,3.47S96,878.06,96,879.8s-.21,1.74-.21,3.48.08,1.74.08,3.48-1.89,2.61-.66,3.84,2.11-.71,3.86-.71,1.75.87,3.5.87,1.75-.52,3.51-.52,1.75-.2,3.5-.2h3.51c1.75,0,1.75.63,3.5.63s1.76-.21,3.51-.21,1.76-.05,3.51-.05,1.75-.44,3.51-.44,1.75.22,3.5.22,1.76.12,3.51.12,1.75-.19,3.51-.19,1.75.74,3.51.74,1.76-.42,3.51-.42,2,.73,3.64.15-.13-1.63.08-3.89c.1-1-.13-2.21,0-3.56.11-1.07.73-2.19.89-3.46.14-1.1.42-2.25.59-3.49s.5-2.25.69-3.47,0-2.34.2-3.54.17-2.34.38-3.53.57-2.27.79-3.45.73-2.24,1-3.41-.05-2.41.21-3.58.9-2.2,1.17-3.36-.1-2.45.19-3.6,1.36-2.08,1.67-3.23.51-2.3.84-3.44,1-2.15,1.38-3.28-.46-2.62-.1-3.75,1.37-2,1.76-3.16,1.47-2,1.88-3.07-.41-2.7,0-3.8,1.16-2.09,1.63-3.17,1.65-1.85,2.15-2.92.49-2.35,1-3.36,1.66-1.77,2.19-2.76S169.44,810,170,809s1.77-1.66,2.36-2.62.44-2.48,1.06-3.42,2-1.44,2.69-2.35,1.35-1.9,2-2.79,1.23-2,1.94-2.87,1.18-2.09,1.92-2.91,1.7-1.67,2.47-2.45,1.68-1.69,2.47-2.42,1.48-2,2.28-2.68c1-.86,2-1.5,2.82-2.07,1.81-1.32,1.79-.28,2.69-1.75s1-.87,1-3.11c0-1,.11-2.11.15-3.43,0-1-.25-2.2-.21-3.45,0-1.07-.59-2.24-.55-3.46s1.22-2.19,1.27-3.39-.82-2.29-.77-3.48.35-2.24.41-3.42.32-2.25.38-3.43-.63-2.3-.57-3.47,1.08-2.22,1.14-3.38.15-2.27.23-3.43.16-2.27.23-3.44.35-2.25.43-3.41-1-2.35-.87-3.51,1.34-2.19,1.42-3.34-.63-2.34-.54-3.49.44-2.26.53-3.41.75-2.23.85-3.38-.49-2.33-.39-3.48.41-2.26.51-3.41.68-2.23.79-3.38,0-2.3.06-3.45-.42-2.34-.3-3.48.66-2.23.78-3.38.28-2.27.4-3.42.53-2.24.66-3.39-.73-2.38-.6-3.52.27-2.27.41-3.42.49-2.24.63-3.38,0-2.31.16-3.45.89-2.2,1-3.34-.25-2.34-.1-3.48.59-2.24.74-3.37-.15-2.34,0-3.48,1.21-2.14,1.38-3.28,0-2.32.15-3.46.31-2.27.49-3.41,0-2.33.18-3.46,1.2-2.13,1.4-3.26-.29-2.38-.09-3.51.52-2.24.73-3.37.49-2.25.7-3.37.15-2.32.37-3.44,1.33-2.08,1.56-3.2-.69-2.49-.46-3.62.71-2.2.95-3.32,1.17-2.1,1.42-3.21.26-2.3.52-3.42.72-2.19,1-3.3.09-2.35.37-3.46.28-2.31.57-3.41,1.47-2,1.76-3.1-.34-2.49,0-3.59,1.2-2.05,1.52-3.15,1.32-2,1.66-3.09.27-2.33.62-3.41.78-2.17,1.14-3.25.6-2.23,1-3.31.69-2.2,1.08-3.27.18-2.4.59-3.46,1.44-1.91,1.87-3,.54-2.28,1-3.32.91-2.13,1.39-3.17,1.17-2,1.67-3,1.76-1.7,2.29-2.7.51-2.34,1.07-3.32,1.59-1.74,2.17-2.71.55-2.38,1.17-3.33,1.64-1.67,2.3-2.59,1.43-1.81,2.13-2.69,1.56-1.69,2.31-2.53,1.26-2,2.06-2.76c.26-1.73-.43-1.73-.51-3.47s-.17-1.74-.25-3.49-.19-1.74-.27-3.48-.1-1.74-.18-3.49.94-1.79.86-3.53.11-1.76,0-3.5-.41-1.73-.49-3.48-.22-1.74-.3-3.48-.45-1.73-.53-3.47.23-1.76.15-3.5-.7-1.72-.78-3.46,1-1.79.87-3.54-.55-1.72-.63-3.46.35-1.77.27-3.51-.91-1.71-1-3.45-.19-1.74-.27-3.49-.07-1.74-.15-3.49.51-1.77.43-3.52.26-1.76.19-3.51-1-1.7-1.1-3.44-.33-1.74-.41-3.48.83-1.79.75-3.54.05-1.75,0-3.5.08-1.75,0-3.5.58-2.08-.05-3.71-1.75.83-3.27,2.33c-.68.67-.72,2.27-1.66,3.15-.75.71-1.85,1.21-2.74,2s-2.12.91-3,1.69-1.37,1.8-2.26,2.55-1.77,1.35-2.67,2.07-1.45,1.79-2.36,2.49-1.79,1.35-2.71,2-1.92,1.18-2.86,1.83-1.94,1.14-2.89,1.76-1.59,1.73-2.56,2.31-2.12.88-3.1,1.44-2.43.25-3.43.76-2,.93-3.05,1.39-2.06.87-3.1,1.28-2,1.06-3.05,1.4-2,1.39-3,1.66-2.28.32-3.38.49a34.23,34.23,0,0,1-3.37.62c-1.14.05-2.24-1-3.35-1.08s-2.53,1-3.67.86-2.22-1.46-3.34-1.67-2.44-.08-3.55-.37-2.33-.6-3.41-1-2.34-.69-3.37-1.18a29,29,0,0,1-3.11-1.77,26.43,26.43,0,0,1-3.06-1.91c-.91-.79-1.34-2.07-2.09-3a21.46,21.46,0,0,1-1.63-3.12c-.59-1-2.17-1.56-2.61-2.68s.08-2.51-.21-3.68a32.36,32.36,0,0,1-.4-3.49c-.14-1.15-1.18-2.25-1.22-3.47s.78-2.33.84-3.55-.71-2.4-.58-3.61,1-2.23,1.21-3.43-.17-2.43.08-3.61.47-2.32.77-3.5.4-2.24.68-3.33,1.23-2,1.51-3.12.59-2.21.86-3.29.89-2.13,1.16-3.22,0-2.36.25-3.45,1.14-2.07,1.41-3.15.37-2.27.64-3.35.34-2.28.6-3.36.75-2.18,1-3.25.86-2.15,1.12-3.22-.1-2.39.16-3.46.32-2.3.58-3.36.47-2.26.72-3.32.39-2.29.64-3.34.92-2.18,1.17-3.21c.29-1.2.71-2.26,1-3.26.31-1.28,1.18-2.24,1.4-3.16.51-2.15,1.59-2.19,0-2.77s-1.47.05-3.17.05-1.7-.33-3.41-.33-1.7.32-3.41.32-1.7-.56-3.41-.56-1.7-.35-3.4-.35-1.71.25-3.41.25-1.71-.7-3.41-.7-1.7,1.14-3.41,1.14-1.7-.6-3.4-.6-1.71.29-3.41.29-1.7.44-3.41.44-1.7-.35-3.41-.35-1.7-.54-3.4-.54-1.71.87-3.41.87-1.71-.84-3.42-.84-1.7.1-3.41.1-1.7.4-3.4.4-1.71-.41-3.42-.41-1.7.41-3.41.41-1.7-.06-3.41-.06-1.63-.45-3.32-.75S97,382.47,95.84,383.69Z"/><path class="cls-2" d="M559.66,253.37c-1,1.32-1.37.87-3,1.21s-1.72,0-3.37.38-1.56.84-3.21,1.17-1.85-.61-3.51-.28-1.47,1.25-3.13,1.59-1.84-.56-3.5-.22-1.55.84-3.21,1.18-1.76-.2-3.42.14-1.48,1.18-3.14,1.52-1.72,0-3.38.38-1.79-.35-3.45,0-1.55.86-3.22,1.2-1.59,1.22-3.28,1.31-1-1.73-3.09-2.39c-.94-.3-2.19-.2-3.43-.58-1-.32-2.13-.65-3.3-1s-2.06-1-3.2-1.31-2.3-.2-3.44-.52-2.35,0-3.47-.34-2-1.52-3.09-1.81-2.29-.35-3.41-.62-2.32-.23-3.43-.47-2.37,0-3.47-.21-2.12-1.45-3.21-1.63-2.37-.25-3.45-.36-2.43.36-3.47.35a27.77,27.77,0,0,0-3.32.32c-1.09.11-2.16.37-3.28.59s-2.16.42-3.26.71-2.45-.37-3.52,0-1.75,1.86-2.8,2.24-2.49-.17-3.5.24-1.79,1.66-2.78,2.09-2.3.54-3.24,1c-1.14.55-2.15,1.08-3,1.52a32.69,32.69,0,0,0-2.89,1.71c-1.66.95-1.61,1-3.27,2s-1.7.77-3.57,1.21c-1.67.4-.15-.82.29-3,.2-1,1.66-1.84,1.9-3.13.2-1,.17-2.21.39-3.44.19-1.06.46-2.18.66-3.38s.26-2.24.45-3.42.07-2.28.24-3.45.22-2.26.38-3.42.35-2.25.5-3.41-.34-2.33-.2-3.49,1-2.18,1.11-3.33.47-2.25.58-3.41-.32-2.33-.22-3.48.84-2.24.92-3.39-.43-2.33-.36-3.48-.36-2.27-.29-3.47,0-2.26.06-3.45,1.09-2.22,1.13-3.41-.55-2.29-.52-3.46.63-2.27.64-3.44-.24-2.29-.24-3.46-.23-2.28-.25-3.44.53-2.3.49-3.47-.63-2.26-.69-3.42.6-2.34.52-3.5-1.17-2.2-1.27-3.36.3-2.33.17-3.48,0-2.32-.14-3.46,0-2.33-.22-3.47-.24-2.31-.44-3.45-1.13-2.13-1.36-3.27-.64-2.21-.9-3.33-1-2.12-1.27-3.24.35-2.47,0-3.58-1.06-2.09-1.41-3.19-.86-2.13-1.25-3.22-.26-2.36-.68-3.43-1.29-2-1.75-3-1.31-1.92-1.81-3-.3-2.41-.84-3.44-1.64-1.71-2.22-2.72-.39-2.44-1-3.42-1.6-1.71-2.25-2.67-.92-2.18-1.61-3.11-1.37-1.87-2.1-2.77-1.59-1.69-2.36-2.55-2.17-1.12-3-2-.95-2.3-1.79-3.1-2.12-1.08-3-1.85-1.68-1.56-2.58-2.28-1.95-1.29-2.87-2-2-1.25-2.91-1.92-1.94-1.27-2.9-1.91-1.5-2-2.48-2.58-2-1.17-3-1.74-2.34-.59-3.35-1.14-2.09-1-3.13-1.52-2-1.1-3.09-1.57-2.18-.79-3.25-1.24-2.09-1-3.17-1.4-2.11-1-3.21-1.36-2.06-1.22-3.16-1.55-2.38-.17-3.5-.46-2.31-.32-3.43-.57-2.28-.43-3.41-.65-2.21-.81-3.36-1-2.33,0-3.48-.17-2.32-.08-3.47-.19-2.3-.11-3.46-.18-2.28-.75-3.44-.78-2.32-.32-3.48-.32-2.31.64-3.47.67-2.34-.34-3.5-.27-2.32.12-3.48.23-2.25.73-3.41.86-2.31.19-3.45.36-2.29.34-3.44.54-2.24.59-3.38.82-2.45-.38-3.58-.13S310,87.69,308.88,88s-2.38.08-3.49.39-2.15.93-3.26,1.27-2.15.9-3.25,1.26-2.53-.23-3.62.15-2,1.44-3.05,1.84-2.34.4-3.39.82-2,1.25-3,1.7-2.13.93-3.16,1.42-1.83,1.51-2.84,2-2.17.83-3.16,1.39-2.5.34-3.47.94-1.58,1.84-2.53,2.48-2,1.21-2.9,1.88-2.13,1-3,1.77-1,2.39-1.86,3.14-2.18,1-3,1.84-1.48,1.78-2.25,2.62-2.23,1.15-2.95,2-1,2.18-1.68,3.1-1.5,1.79-2.12,2.75-1.3,1.94-1.86,2.94-1.11,2-1.61,3.09-.6,2.27-1,3.33-1.25,2-1.63,3.09-.3,2.32-.6,3.44-.72,2.19-1,3.32-.45,2.26-.62,3.41,0,2.31-.09,3.46-.62,2.26-.67,3.42.72,2.29.74,3.45-.41,2.26-.41,3.46.09,2.26.09,3.45.5,2.27.5,3.45-1.32,2.27-1.33,3.44,1,2.29,1,3.46-.43,2.29-.44,3.45.48,2.3.47,3.46-.64,2.28-.65,3.44.66,2.3.65,3.46-.54,2.29-.56,3.45.34,2.3.32,3.46-.85,2.28-.87,3.44.45,2.31.43,3.46.14,2.31.12,3.46-.88,2.3-.9,3.44.57,2.33.54,3.47-.75,2.3-.77,3.44.32,2.32.3,3.46.62,2.33.6,3.47-.54,2.31-.57,3.45-.47,2.31-.5,3.44,1.13,2.36,1.11,3.48-1,2.32-1,3.44-.44,2.34-.47,3.45.88,2.38.86,3.47-.21,2.38-.23,3.45c0,1.29.29,2.45.28,3.45,0,1.51-.43,2.67-.43,3.45,0,1.13-.08,2.34-.09,3.56s0,2.38,0,3.58-.44,2.4-.45,3.56.18,2.46.17,3.58c0,1.32-.4,2.53-.41,3.56,0,2.18,2.19,2.57.45,3s-1.55.51-3.19.18-1.72.12-3.36-.22-1.43-1.3-3.07-1.63-1.57-.65-3.21-1-1.89.89-3.52.56-1.52-.89-3.16-1.23-1.71.06-3.35-.28-1.63-.37-3.26-.7-1.59-.58-3.23-.92-1.58-.6-3.22-.94-2.79,1.1-3.83-.21,1-2.16,1-3.89-.28-1.73-.28-3.46-.09-1.73-.09-3.46-.48-1.73-.48-3.45.89-1.73.89-3.46-.39-1.73-.39-3.46.34-1.73.34-3.46-.51-1.72-.51-3.45S204,237,204,235.3s.51-1.73.51-3.46.46-1.72.46-3.45-.19-1.72-.19-3.45-.68-1.73-.68-3.45.26-1.73.26-3.45.16-1.73.16-3.46-.39-1.73-.39-3.46.49-1.73.49-3.46-.06-1.72-.06-3.45.58-1.73.58-3.46-.24-1.73-.24-3.45-.43-1.73-.43-3.46.21-1.72.21-3.45-.84-1.73-.84-3.46.12-1.73.12-3.46.28-1.72.28-3.45.5-1.73.5-3.46-.27-1.73-.27-3.46.52-1.72.52-3.45-.57-1.73-.57-3.46.55-1.73.55-3.46.24-1.73.24-3.46-.86-1.73-.86-3.45.09-1.73.09-3.46-.63-1.73-.63-3.46.39-1.73.39-3.46.58-1.73.58-3.46.26-1.73.26-3.45-.25-1.73-.25-3.46.3-1.73.3-3.46,0-1.73,0-3.46-.95-1.73-.95-3.46.49-1.73.49-3.46.45-1.73.45-3.46-.64-1.73-.64-3.46.31-1.73.31-3.46.3-1.73.3-3.46-1-1.73-1-3.46.83-1.73.83-3.46-.48-1.73-.48-3.46-.13-1.73-.13-3.46.78-1.73.78-3.46,0-1.73,0-3.46S204,84.9,204,83.17s.12-1.73.12-3.46S205,78,205,76.25s-1.17-1.73-1.17-3.46.06-1.73.06-3.46.45-1.74.45-3.47.64-1.73.64-3.46.13-1.73.13-3.46-.25-1.73-.25-3.46-.78-1.74-.78-3.47,1.12-1.73,1.12-3.47.23-2-1-3.19-1.48-.55-3.23-.55-1.76-.39-3.52-.39-1.75.56-3.51.56-1.75,0-3.5,0-1.76.41-3.52.41-1.75.26-3.51.26-1.75-.42-3.51-.42-1.75-.65-3.51-.65-1.76-.13-3.51-.13-1.76.78-3.51.78-1.76-.78-3.51-.78-1.76.87-3.52.87-1.75.1-3.51.1-1.75.33-3.51.33-1.76-1-3.51-1-1.76.36-3.51.36-1.76.18-3.51.18-1.76-.56-3.51-.56-1.76.21-3.51.21-1.76.75-3.52.75-1.75-1.23-3.51-1.23-1.76-.07-3.51-.07-1.76.19-3.51.19-1.76,1-3.52,1-1.76-1-3.51-1-1.76.44-3.52.44-1.75-.18-3.51-.18-1.76-.28-3.52-.28-1.75.69-3.51.69-1.76-.2-3.52-.2-1.77-.55-3.53-.54a1.15,1.15,0,0,0,0,.32c1.73,0,1.73,0,3.46,0l3.46,0c1.74,0,1.74.12,3.47.12s1.73.5,3.46.5,1.73-.63,3.46-.63,1.73.52,3.46.52,1.73-.53,3.46-.53,1.73.81,3.47.81,1.73-.12,3.46-.12,1.73.24,3.46.24,1.73-.83,3.46-.83,1.73,0,3.46,0,1.73.85,3.46.85,1.73-.86,3.46-.86,1.73.19,3.46.19,1.73.08,3.46.08h3.47c1.73,0,1.73.37,3.46.37s1.73.08,3.47.08,1.73-.85,3.46-.85,1.73.06,3.47.06,1.73.67,3.46.67,1.73-.16,3.46-.16,1.73-.76,3.46-.76,1.73.33,3.47.33,1.73-.36,3.46-.36,1.73,1.23,3.46,1.23,1.73-.61,3.46-.61,1.73-.52,3.46-.52,1.73,1.11,3.47,1.11,1.73-.76,3.46-.76,1.73.28,3.46.28,1.73-.37,3.47-.37,1.73.55,3.46.55,1.73-.05,3.47-.05,1.73.09,3.46.09,1.73.33,3.46.33,1.73-.46,3.47-.46,1.73-.69,3.46-.69,1.73.9,3.46.9,1.73-.06,3.46-.06,1.74-.67,3.47-.67,1.73.76,3.46.76,1.73-.66,3.46-.66,1.74.28,3.47.28,1.73.4,3.46.4,1.74-.34,3.47-.34,1.73-.13,3.46-.13,1.74.29,3.47.29h3.46c1.73,0,1.73-.05,3.46-.05s1.73-.42,3.47-.42,1.73.49,3.46.49,1.73-.85,3.46-.85,1.74.74,3.47.74,1.73.25,3.47.25,1.73-.23,3.46-.23,1.73-.91,3.46-.91,1.74,1.07,3.47,1.07,1.73-.35,3.46-.35,1.73.4,3.47.4,1.73-1,3.46-1,1.73,1,3.47,1,1.73-1.19,3.46-1.19,1.73,1.39,3.47,1.39,1.73-.33,3.46-.33,1.73-.53,3.47-.53,1.73.46,3.46.46,1.73-1,3.46-1,1.74,1,3.47,1,1.73-.91,3.47-.91,1.73.74,3.46.74,1.73-.75,3.47-.75,1.73.42,3.46.42,1.73.72,3.47.72,1.73-.15,3.46-.15,1.73-.12,3.47-.12,1.73.23,3.46.23,1.73-.35,3.47-.35,1.73.52,3.46.52,1.73-.33,3.46-.33,1.73-.35,3.46-.35,1.73.77,3.46.77,1.73-.2,3.46-.2,1.73-.82,3.46-.82,1.73.83,3.47.83,1.73-.41,3.46-.41,1.74-.52,3.47-.52,1.73-.21,3.46-.21,1.73.12,3.46.12,1.73,0,3.47,0,1.73-.15,3.46-.15,1.73.94,3.46.94,1.74-.88,3.47-.88,1.73,1.14,3.47,1.14,1.73-.36,3.46-.36h3.46c1.74,0,1.74.09,3.47.09s1.73-.54,3.46-.54,1.74-.13,3.47-.13,1.73.88,3.47.88,1.73-.24,3.46-.24,1.73-.42,3.47-.42,1.73-.36,3.46-.36,1.74-.21,3.47-.21,1.74,1.08,3.47,1.08,1.73.24,3.46.24,1.74-.7,3.47-.7,1.74,0,3.47,0,1.73.68,3.47.68,1.73-.83,3.46-.83,1.74.09,3.47.09,1.74.18,3.47.18,1.73.35,3.47.35,1.73-.22,3.47-.22h3.47c1.73,0,1.73.16,3.46.16s1.74-1.05,3.47-1.05,1.74.87,3.47.87,1.73-.45,3.47-.45,1.73-.41,3.46-.41,1.74.05,3.47.05,1.73.06,3.47.06,1.73,1.11,3.47,1.11,1.73.12,3.47.12,1.73-1.15,3.46-1.15,1.74.92,3.48.92,1.73-.13,3.47-.13,1.73-1,3.47-1,1.73,1.19,3.47,1.19,1.73-.63,3.47-.63,1.73.4,3.47.4,1.74-.09,3.48-.09,1.81-1,3,.26,1,1.3,1,3-.69,1.73-.69,3.47.6,1.74.6,3.47.17,1.74.17,3.48-.62,1.73-.62,3.47-.71,1.73-.71,3.47.14,1.73.14,3.47,1.08,1.73,1.08,3.46-.29,1.74-.29,3.47-.47,1.74-.47,3.47.28,1.74.28,3.47.25,1.74.25,3.47-.16,1.74-.16,3.48.19,1.73.19,3.47-.47,1.74-.47,3.47.79,1.74.79,3.47-.54,1.74-.54,3.47.32,1.74.32,3.47,0,1.74,0,3.47,0,1.74,0,3.48-.45,1.74-.45,3.47.31,1.74.31,3.48-.06,1.73-.06,3.47-.89,1.73-.89,3.47,1.11,1.74,1.11,3.47-.36,1.74-.36,3.48-.76,1.73-.76,3.47,1.11,1.74,1.11,3.47S560,144,560,145.78s-.7,1.73-.7,3.47,1,1.74,1,3.48.24,1.73.24,3.47-.87,1.73-.87,3.47.8,1.74.8,3.48-.47,1.73-.47,3.47-.38,1.74-.38,3.48,1,1.73,1,3.47-.79,1.74-.79,3.47-.14,1.74-.14,3.48-.22,1.74-.22,3.48.5,1.73.5,3.47-.08,1.74-.08,3.48-.7,1.73-.7,3.47.73,1.74.73,3.48.51,1.74.51,3.47-1.21,1.74-1.21,3.48,1.27,1.73,1.27,3.47-1,1.74-1,3.48.87,1.73.87,3.47,0,1.74,0,3.48-.55,1.74-.55,3.47-.5,1.74-.5,3.48.84,1.74.84,3.48,0,1.74,0,3.48-.18,1.73-.18,3.47-.12,1.74-.12,3.48.42,1.74.42,3.48,0,1.74,0,3.48-.78,1.77-.51,3.49S560.75,252,559.66,253.37Z"/><path class="cls-2" d="M560,532.5c-1.23,1.22-1.88.28-3.61.28s-1.73.14-3.46.14-1.72-1.11-3.45-1.11-1.73.54-3.46.54-1.73.61-3.46.61-1.73-.58-3.46-.58-1.73-.17-3.45-.17-1.73-.33-3.46-.33-1.73.86-3.46.86-1.73.32-3.46.32-1.73-.16-3.46-.16-1.73-.18-3.46-.18-1.72.29-3.45.29-1.73-.39-3.46-.39-1.73-1-3.46-1-1.73,1.22-3.46,1.22-1.73.12-3.46.12-1.73-.85-3.46-.85-1.73-.23-3.46-.23-1.73-.27-3.46-.27-1.73.6-3.46.6-1.73-.28-3.46-.28-1.73-.15-3.46-.15-1.73,1.2-3.46,1.2-1.73-1.36-3.46-1.36-1.73,1.27-3.46,1.27-1.73-.21-3.46-.21-1.73-.07-3.46-.07-1.73-.45-3.46-.45-1.73.62-3.46.62-1.73-1-3.46-1-1.73.34-3.46.34-1.74.25-3.47.25S444,532,442.26,532s-1.73,0-3.46,0-1.73,1-3.46,1-1.74-.91-3.47-.91-1.73.11-3.47.11-1.64.52-3.11-.4-1.7-.79-2.54-2.41-.59-1.75-1.42-3.36-.44-1.83-1.28-3.45-1.63-1.36-1.76-3.18.21-1.73.81-3.34.92-1.49,1.51-3.1.85-1.51,1.45-3.12.26-1.74.85-3.35.58-1.61,1.17-3.22.78-1.55,1.38-3.16.63-1.59,1.23-3.2.36-1.7,1-3.31.68-1.58,1.28-3.19.88-1.5,1.48-3.11-.16-1.89.44-3.5,1.44-1.3,2-2.91.54-1.63,1.14-3.24.19-1.76.78-3.37.7-1.57,1.3-3.18.33-1.7.93-3.31.65-1.59,1.24-3.2.41-1.68,1-3.29.92-1.5,1.51-3.11.28-1.73.87-3.34,1.34-1.34,1.93-2.95.62-1.6,1.22-3.21-.31-1.95.29-3.56,1.23-1.37,1.83-3,1-1.47,1.56-3.08.63-1.6,1.23-3.21-.38-2,.22-3.58,1.26-1.37,1.86-3-.16-1.89.44-3.51,1.77-1.18,2.36-2.79-.75-2.32.85-3,1.43.17,3,.9l3.16,1.45c1.59.73,1.62.65,3.21,1.37s1.71.44,3.3,1.17,1.22,1.52,2.8,2.24,1.91,0,3.5.73,1.13,1.7,2.72,2.43,1.68.52,3.26,1.25,2-.16,3.57.57,1.46,1,3,1.73,1.27,1.41,2.86,2.13,2.08-.37,3.67.36,1.09,1.8,2.68,2.53,1.65.58,3.23,1.31,1.91,0,3.5.74,1.12,1.73,2.7,2.46,1.61.66,3.19,1.38,2-.22,3.61.5,1.45,1,3,1.74,1.37,1.18,3,1.91,1.75.37,3.34,1.09,1.3,1.34,2.89,2.06,2.07-.33,3.65.39,1.12,1.74,2.71,2.47l3.17,1.45c1.59.73,2.15-.5,3.73.23s1.38,1.18,3,1.9,1.27,1.42,2.85,2.14,2-.25,3.63.47,1.19,1.59,2.78,2.31,1.53.84,3.12,1.57,2.05-.28,3.64.45,2.44.21,3.39,1.67-.83,2-.83,3.71.14,1.71.14,3.41.87,1.71.87,3.42-.87,1.71-.87,3.41.56,1.71.56,3.42-.47,1.71-.47,3.41-.56,1.71-.56,3.42.37,1.71.37,3.42.94,1.71.94,3.42-1.3,1.71-1.3,3.41,0,1.71,0,3.42.39,1.71.39,3.42.65,1.71.65,3.42-1,1.71-1,3.42,1,1.71,1,3.42.27,1.71.27,3.42-.71,1.71-.71,3.42-.66,1.85-.27,3.52C559.92,530.88,561.25,531.29,560,532.5Z"/><path class="cls-1" d="M188.52,51.75c-1.23-1.22-1.83.13-3.57.13s-1.73.38-3.46.38-1.74,0-3.47,0-1.74-.34-3.47-.34-1.74.46-3.47.46-1.74.13-3.47.13-1.74-.26-3.48-.26-1.73-.54-3.47-.54-1.73.06-3.47.06-1.73.71-3.47.71-1.73-.36-3.47-.36-1.73-.61-3.47-.61-1.73.5-3.47.5-1.74-.31-3.47-.31-1.74.6-3.48.6-1.73.05-3.47.05-1.74-1.1-3.47-1.1-1.74.51-3.47.51-1.74-.16-3.48-.16-1.73.27-3.47.27-1.74.32-3.47.32-1.74-.19-3.48-.19-1.73-.76-3.47-.76-1.74.61-3.47.61-1.74.16-3.48.16S99.89,52,98.16,52s-1.74.41-3.48.41-1.73-.17-3.47-.17-1.74-.37-3.48-.37S86,52,84.26,52s-1.74.1-3.47.1-1.74,0-3.48,0-1.74-.32-3.48-.32-1.73-.38-3.47-.38-1.74.88-3.48.88-1.73.06-3.47.06H59.93c-1.74,0-1.74-.65-3.48-.65s-1.73.08-3.47.08-1.74,0-3.47,0-1.74.79-3.48.79-1.73-.82-3.47-.82-1.74-.48-3.48-.48-1.74.74-3.47.74-1.74-.77-3.48-.77-1.74.69-3.48.69-1.74.21-3.48.21-1.73.41-3.47.41-1.74-.29-3.48-.29-1.74-.65-3.48-.65-1.74.28-3.48.28-1.74.65-3.48.65S6,52.18,4.3,52.18s-2.62-1.93-3.85-.7.46,2.1.46,3.84S.33,57.05.33,58.79s.61,1.73.61,3.47.5,1.74.5,3.47S.21,67.47.21,69.21s1,1.73,1,3.47S1,74.42,1,76.15,1,77.89,1,79.62.11,81.36.11,83.09s.27,1.74.27,3.48S1.47,88.3,1.47,90s-1,1.74-1,3.47.75,1.74.75,3.48-.49,1.74-.49,3.47.72,1.74.72,3.48S.12,105.67.12,107.41s.9,1.74.9,3.47-.56,1.74-.56,3.48-.05,1.74-.05,3.47.39,1.74.39,3.48S.21,123,.21,124.78s.84,1.74.84,3.48S.67,130,.67,131.73s-.56,1.74-.56,3.48S1,137,1,138.69s-.22,1.73-.22,3.47v3.48c0,1.74-.56,1.74-.56,3.48s1.11,1.73,1.11,3.47-.7,1.74-.7,3.48.48,1.74.48,3.47S.87,161.28.87,163s.59,1.74.59,3.48-.24,1.74-.24,3.48,0,1.73,0,3.47-.72,1.74-.72,3.48-.16,1.74-.16,3.47.88,1.74.88,3.48.06,1.74.06,3.48,0,1.73,0,3.47-.22,1.74-.22,3.48S.6,196.05.6,197.79s.41,1.74.41,3.47.42,1.74.42,3.48,0,1.74,0,3.48,0,1.74,0,3.48S.3,213.44.3,215.18s.8,1.74.8,3.48-.31,1.74-.31,3.48.06,1.74.06,3.48-.56,1.74-.56,3.49A6.37,6.37,0,0,0,1,232.54c.69,1.74,1.23.57,3.55.79,1.07.1,2.34,0,3.74.22,1.15.14,2.42.07,3.74.27s2.4.55,3.67.77c.93.17,2.17-.13,3.49.08,1,.17,2.11.84,3.33,1s2.29,0,3.47.16,2.3,0,3.45.23,2.18,1,3.31,1.2,2.23.82,3.35,1,2.42-.31,3.52-.14,2.27.9,3.33,1.07c1.28.19,2.53-.23,3.51-.08,2.11.33,2.36,2.1,3.74,1.07s.65-1.81,1.66-3.15.66-1.62,1.67-3,1.86-.71,2.87-2,0-2.09,1-3.43,1.55-.94,2.57-2.29a5.53,5.53,0,0,0,1.52-2.84c.44-1.69-.88.27-3,.13a29.41,29.41,0,0,1-3.53,0c-1.07-.17-2.25-.42-3.45-.73s-2.07-1.07-3.2-1.5-1.87-1.35-2.93-1.89a26.72,26.72,0,0,1-3.15-1.42A25.37,25.37,0,0,1,39.48,216a25.29,25.29,0,0,1-2.27-2.61,25.16,25.16,0,0,1-2.29-2.6c-.6-1-.65-2.21-1.16-3.29a29.51,29.51,0,0,1-1.59-3.07c-.38-1.1-1.16-2-1.44-3.1S30,199.12,29.8,198s.54-2.39.42-3.48-.38-2.23-.42-3.32.26-2.25.31-3.34-.49-2.32-.35-3.4,1-2.14,1.18-3.2-.07-2.37.23-3.39.87-2.16,1.25-3.13A27.15,27.15,0,0,1,34,171.84c.94-1.9,1.82-1.59,1.55-3.26s-1.3-.86-2.59-2.8a25.7,25.7,0,0,1-1.68-3.17c-.46-1-.6-2.18-1-3.44-.35-1.06-.67-2.17-1-3.44-.26-1.11-1.19-2.15-1.37-3.42s.46-2.28.45-3.42-.54-2.26-.39-3.4.93-2.08,1.2-3.21.7-2.07,1.07-3.18.75-2,1.2-3.13.05-2.41.56-3.46,1.21-1.89,1.77-2.92,1.23-1.87,1.82-2.87.56-2.28,1.18-3.27S38.73,122,39.36,121s.48-2.37,1.13-3.33,1.27-1.86,1.92-2.81,1.61-1.63,2.28-2.58,1.38-1.79,2.05-2.73,1.94-1.48,2.62-2.38.43-2.64,1.13-3.52,1.45-1.88,2.18-2.74,1.53-1.82,2.3-2.65,2.29-1.05,3.1-1.85,1.31-2,2.16-2.78,1.94-1.32,2.85-2,1.65-1.7,2.6-2.35,1.8-1.55,2.8-2.13,2.29-.68,3.34-1.2,2.07-1,3.15-1.48,2-1.15,3.15-1.54,2.24-.58,3.38-.92,2.28-.37,3.42-.66,2.24-.5,3.4-.75,2.18-.78,3.35-1,2.39.47,3.49.3,2.14-1.14,3.25-1.28,2.3.13,3.41,0,2.28,0,3.39-.07,2.27.15,3.39.12,2.26-.17,3.37-.16,2.3-1,3.42-1,2.26.48,3.38.55,2.27.21,3.38.32,2.32-.2,3.43-.06,2.17,1,3.28,1.15,2.17.74,3.28.93,2.23.33,3.33.54,2.43-.58,3.53-.36,2.12.91,3.23,1.15,2,1.36,3.11,1.6,2.51-.73,3.67-.43,2.23.54,3.38.86,2.07,1.11,3.2,1.45,2,1.34,3.12,1.68,2.23.61,3.33,1,2.25.6,3.34,1,2.31.44,3.4.81,2.46,0,3.53.42,1.84,1.87,2.9,2.24,2.45.17,3.49.55,2.21.95,3.22,1.32c1.23.45,2.25,1.07,3.17,1.41,2,.77,3,2.76,3.69,1.15s-.11-1.87-.11-3.59.41-1.72.41-3.44-1.23-1.72-1.23-3.44.38-1.72.38-3.45-.4-1.72-.4-3.44.76-1.72.76-3.45-.76-1.72-.76-3.44.77-1.72.77-3.44-.61-1.72-.61-3.45,1-1.72,1-3.44-.65-1.72-.65-3.45-.65-1.85-.26-3.53C188.47,53.36,189.74,53,188.52,51.75Z"/><path class="cls-2" d="M458.7,879.49c1.69-.53.07-.82.61-3.07.24-1,1.13-2,1.38-3.32.21-1.05.32-2.24.52-3.52.16-1.09.37-2.26.51-3.51s-.54-2.37-.43-3.61,1-2.24,1.06-3.47.59-2.32.62-3.54-.69-2.35-.69-3.57.74-2.36.71-3.57-.77-2.32-.84-3.53-.35-2.32-.45-3.53-.61-2.29-.73-3.49,0-2.35-.12-3.54.34-2.42.16-3.61-.65-2.29-.86-3.47-1.06-2.19-1.29-3.37-.17-2.36-.43-3.54.31-2.49,0-3.66-1.15-2.07-1.45-3.13-.09-2.36-.44-3.41-1.32-2-1.71-3-1.29-1.93-1.73-2.93.15-2.61-.34-3.58-2-1.54-2.53-2.48-1-2.06-1.63-2.95-1.32-1.88-2-2.7-.94-2.33-1.72-3.07a23.32,23.32,0,0,0-2.84-2c-1-.7-2.48-.31-3.44-.73-1.11-.5-1.89-1.71-2.93-1.85s-2.23.64-3.27.94a6.82,6.82,0,0,0-3.07,1.18c-.78.7-.82,1.94-1.36,3-.47.93-2.12,1.54-2.39,2.74-.22,1,.51,2.29.44,3.5s-.59,2.2-.51,3.39.15,2.23.34,3.4.75,2.14.93,3.29-.24,2.29-.05,3.44,1.18,2.08,1.36,3.21,0,2.28.16,3.41-.2,2.3,0,3.43,1.18,2.09,1.36,3.22.14,2.26.32,3.38.35,2.23.52,3.35-.2,2.32,0,3.44,1.45,2.07,1.63,3.19-.34,2.34-.17,3.46.83,2.17,1,3.28.16,2.28.33,3.38.95,2.16,1.12,3.26.12,2.29.29,3.4.38,2.25.55,3.35-.35,2.37-.18,3.46.2,2.3.37,3.38,1.22,2.15,1.39,3.22.41,2.29.58,3.34c.19,1.21.4,2.33.56,3.35.2,1.28.16,2.44.3,3.39.34,2.14-1.45,3,.15,3.59s1.77-.4,3.47-.4,1.7-.41,3.4-.41l3.4,0H452c1.7,0,1.7,1.08,3.4,1.09S457.07,880,458.7,879.49Z"/><path class="cls-3" d="M82.64,382.71c0,2.06.29,2.06.29,4.13s.44,2.07.44,4.14-.45,2.07-.45,4.14.76,2.07.76,4.14.16,2.07.16,4.15-1.24,2.06-1.24,4.13.47,2.08.47,4.14-.4,2.07-.4,4.14.25,2.07.25,4.14.54,2.07.54,4.14,0,2.07,0,4.13-.23,2.07-.23,4.14-.45,2.07-.45,4.14.18,2.07.18,4.14,0,2.06,0,4.14.2,2.06.2,4.13.1,2.07.1,4.14.18,2.07.18,4.14-.06,2.07-.06,4.15-.53,2.07-.53,4.14.16,2.07.16,4.13.92,2.07.92,4.14-1,2.07-1,4.14.86,2.07.86,4.14-.86,2.07-.86,4.14.84,2.07.84,4.14-.21,2.07-.21,4.14.21,2.07.21,4.14.14,2.07.14,4.14-1.11,2.07-1.11,4.14.55,2.07.55,4.14.61,2.07.61,4.14-.59,2.07-.59,4.14-.16,2.07-.16,4.14-.34,2.07-.34,4.14.86,2.07.86,4.14.33,2.07.33,4.14-.17,2.07-.17,4.13-.17,2.07-.17,4.14.28,2.08.28,4.15-.39,2.07-.39,4.14-1,2.07-1,4.14,1.22,2.07,1.22,4.14.12,2.07.12,4.14-.85,2.07-.85,4.14-.23,2.07-.23,4.14-.27,2.07-.27,4.14.6,2.07.6,4.14-.27,2.07-.27,4.14-.16,2.08-.16,4.15,1.21,2.07,1.21,4.14-1.37,2.06-1.37,4.13,1.28,2.08,1.28,4.15-.22,2.07-.22,4.14-.06,2.07-.06,4.14-.45,2.07-.45,4.14.62,2.07.62,4.14-1,2.07-1,4.14.33,2.07.33,4.14.26,2.07.26,4.14-.44,2.07-.44,4.14,0,2.07,0,4.15,1,2.07,1,4.14-.92,2.07-.92,4.14.11,2.07.11,4.14-.5,2.07-.5,4.14,1.24,2.07,1.24,4.14-.28,2.08-.28,4.15-.45,2.07-.45,4.14.11,2.07.11,4.14.4,2.07.4,4.14-.34,2.07-.34,4.15-.26,2.07-.26,4.14.35,2.07.35,4.14,0,2.07,0,4.14-.19,2.07-.19,4.13,0,2.07,0,4.14.26,2.07.26,4.14-.1,2.07-.1,4.14-.3,2.07-.3,4.14.8,2.07.8,4.14-.9,2.07-.9,4.14.06,2.07.06,4.14.44,2.07.44,4.14-.11,2.07-.11,4.14.28,2.07.28,4.14-.06,2.08-.06,4.15.21,2.06.21,4.13-.34,2.08-.34,4.15.35,2.07.35,4.14-.79,2.07-.79,4.14,0,2.07,0,4.14,1,2.08,1,4.15-.67,2.07-.67,4.14-.39,2.07-.39,4.14,0,2.08,0,4.15,1,2.07,1,4.14-.7,2.07-.7,4.14.81,2.08.81,4.15-1.25,2.07-1.25,4.14.08,2.07.08,4.15.59,2.07.59,4.14v4.15c0,2.07.09,2.07.09,4.14s.31,2.08.31,4.15-.88,2.07-.88,4.14.79,2.07.79,4.14-1.07,2.08-1.07,4.15.22,2.07.22,4.14,1,2.07,1,4.15-.32,2.07-.32,4.14-.75,2.07-.75,4.15,1.21,2.07,1.21,4.14-1.19,2.08-1.19,4.15.16,2.08.16,4.15.78,2.07.78,4.15-1.12,2.07-1.12,4.14.07,2.08.07,4.16-.55,2.4.92,3.86,1.8.2,3.88.2,2.08.51,4.16.51,2.09-.4,4.17-.4,2.08.68,4.16.68,2.08-1.17,4.17-1.17,2.08,1.12,4.16,1.12h4.17c2.08,0,2.08-1.35,4.16-1.35s2.08.5,4.17.5,2.08.76,4.17.76S127,875,129.07,875s2.09.94,4.17.94,2.09.13,4.17.13,2.08-1.11,4.16-1.11,2.09,0,4.17,0,2.08.92,4.16.92,2.09-.14,4.17-.14,2.08-.87,4.16-.87,2.09.87,4.17.87,2.08-.56,4.17-.56,2.08.47,4.16.47,2.09.56,4.17.56,2.09-.37,4.17-.37,2.08-.94,4.17-.94,2.08,1.3,4.16,1.3,2.09,0,4.17,0,2.08-.38,4.17-.38,2.08-.65,4.16-.65,2.09,1,4.17,1,2.08-1,4.16-1,2.09-.28,4.17-.28,2.09.72,4.17.72,2.08.28,4.17.28,2.08-.27,4.17-.27,2.08.38,4.16.38,2.09-.49,4.17-.49,2.08-.39,4.17-.39,2.08.76,4.16.76,2.09,0,4.17,0,2.08-.75,4.17-.75,2.08-.3,4.17-.3,2.08,1.19,4.17,1.19,2.08,0,4.16,0,2.09-.82,4.17-.82,2.08.21,4.17.21,2.08-.18,4.17-.18,2.08-.34,4.16-.34,2.09.59,4.17.59,2.09-.37,4.17-.37,2.09.67,4.17.67,2.08-.35,4.17-.35,2.08-.52,4.16-.52,2.09.1,4.17.1,2.09.18,4.17.18,2.09-.34,4.17-.34,2.08.38,4.17.38,2.08.55,4.17.55,2.08-.59,4.16-.59h4.17c2.09,0,2.09.94,4.17.94s2.09-.65,4.17-.65h4.17c2.08,0,2.08.34,4.17.34s2.08-.65,4.17-.65,2.08.3,4.17.3,2.08-.51,4.16-.51,2.08,1,4.17,1,2.08-.93,4.16-.93,2.08.91,4.16.91,2.09-.51,4.17-.51,2.08.54,4.17.54,2.08-.87,4.17-.87,2.08.3,4.17.3,2.08.7,4.16.7,2.08-.54,4.17-.54,2.08-.64,4.16-.64,2.09,1.37,4.17,1.37,2.09-.48,4.17-.48h4.17c2.08,0,2.08.34,4.17.34s2.08-.44,4.17-.44,2.08-.59,4.17-.59,2.08,1,4.17,1,2.08-.22,4.17-.22,2.08-.31,4.16-.31,2.09-.5,4.18-.5,2.08,1,4.16,1,2.09-.1,4.17-.1,2.09-.59,4.18-.59,2.08-.16,4.17-.16,2.08-.09,4.17-.09,2.08,0,4.17,0,2.09,1,4.17,1,2.09-1.22,4.17-1.22,2.09,1,4.17,1,2.09-.85,4.17-.85,2.09.45,4.18.45,2.08,0,4.16,0,2.09-.14,4.18-.14,2.08-.1,4.16-.1,2.09.76,4.18.76,2.08-1.06,4.17-1.06,2.08,1.25,4.17,1.25,2.09-.25,4.17-.25,2.09.07,4.18.07,2.09-.12,4.17-.12,2.09-.29,4.18-.29,2.08-.12,4.17-.12,2.09,0,4.18,0,2.09-.64,4.18-.64,2.78,2.17,4.26.7.26-2.16.26-4.24-.54-2.07-.54-4.15.66-2.07.66-4.15-.59-2.08-.59-4.15-.48-2.08-.48-4.16-.11-2.07-.11-4.15,1-2.08,1-4.15-.63-2.08-.63-4.16.59-2.07.59-4.15-.26-2.07-.26-4.15-.22-2.07-.22-4.15.59-2.07.59-4.15-.54-2.07-.54-4.15.73-2.08.73-4.15-1-2.08-1-4.15.52-2.08.52-4.16.26-2.07.26-4.15.28-2.07.28-4.15.12-2.07.12-4.15-.73-2.07-.73-4.15-.17-2.08-.17-4.15-.47-2.08-.47-4.15,1-2.08,1-4.15-.42-2.08-.42-4.16-.15-2.08-.15-4.15.56-2.08.56-4.16-.47-2.07-.47-4.15-.42-2.07-.42-4.15.78-2.08.78-4.15-.65-2.08-.65-4.15.9-2.08.9-4.16-.43-2.07-.43-4.15.49-2.07.49-4.15,0-2.08,0-4.15-.15-2.08-.15-4.15-.86-2.08-.86-4.16.94-2.07.94-4.15-.65-2.07-.65-4.15.1-2.07.1-4.14-.19-2.08-.19-4.16-.16-2.07-.16-4.14-.06-2.08-.06-4.16.84-2.07.84-4.14-.07-2.08-.07-4.16-.64-2.07-.64-4.14-.08-2.08-.08-4.15.09-2.08.09-4.15-.16-2.08-.16-4.15.14-2.08.14-4.15.2-2.08.2-4.15.51-2.08.51-4.15-.5-2.08-.5-4.16-.27-2.07-.27-4.15-.07-2.08-.07-4.15.4-2.08.4-4.15-.31-2.08-.31-4.16-.19-2.07-.19-4.15-.08-2.07-.08-4.15.63-2.07.63-4.15.27-2.07.27-4.15-.61-2.07-.61-4.14.44-2.08.44-4.15,0-2.08,0-4.15-.51-2.07-.51-4.15.1-2.07.1-4.15,0-2.07,0-4.15-.18-2.07-.18-4.14.87-2.08.87-4.15-.76-2.08-.76-4.15.51-2.08.51-4.15-.31-2.07-.31-4.15-.24-2.07-.24-4.15,1-2.08,1-4.15-.7-2.08-.7-4.15.46-2.08.46-4.16-.38-2.07-.38-4.15,0-2.08,0-4.15-.55-2.08-.55-4.16.28-2.07.28-4.15,1-2.07,1-4.15-.71-2.07-.71-4.15.12-2.07.12-4.15.44-2.07.44-4.15-1.2-2.07-1.2-4.15.7-2.07.7-4.15-.2-2.07-.2-4.15.89-2.07.89-4.15-.58-2.07-.58-4.15.19-2.07.19-4.15.07-2.07.07-4.15,0-2.07,0-4.15-.42-2.08-.42-4.15.43-2.08.43-4.16-.43-2.07-.43-4.15.14-2.08.14-4.15V477c0-2.07-.34-2.07-.34-4.15s.45-2.08.45-4.15-.78-2.08-.78-4.15.43-2.08.43-4.15-.07-2.08-.07-4.15-.49-2.08-.49-4.16,1.31-2.07,1.31-4.15-1-2.07-1-4.15.42-2.07.42-4.15-.51-2.07-.51-4.15.62-2.07.62-4.15-.69-2.08-.69-4.15.51-2.08.51-4.16-.38-2.08-.38-4.15.82-2.08.82-4.16-.48-2.07-.48-4.15-.18-2.07-.18-4.15.84-2.08.84-4.15-.61-2.08-.61-4.15.71-2.08.71-4.15-.36-2.08-.36-4.16-.67-2.07-.67-4.15.49-2.08.49-4.15.43-2.08.43-4.16-1.18-2.08-1.18-4.15,1-2.08,1-4.16.4-2.07.4-4.15-.92-2.08-.92-4.15.16-2.08.16-4.16-.33-2.07-.33-4.15.39-2.08.39-4.15.08-2.08.08-4.16,0-2.07,0-4.15.43-2.08.43-4.15-.21-2.08-.21-4.16.37-2.08.37-4.15,0-2.08,0-4.16-.88-2.08-.88-4.15-.47-2.08-.47-4.16,1-2.07,1-4.15.32-2.08.32-4.15-1.26-2.08-1.26-4.16.56-2.08.56-4.15-.4-2.08-.4-4.16,0-2.08,0-4.15.24-2.08.24-4.16.27-2.07.27-4.15-.72-2.08-.72-4.15,1.18-2.08,1.18-4.16-.28-2.08-.28-4.15-.09-2.08-.09-4.16-.47-2.07-.47-4.15.88-2.08.88-4.16-.39-2.07-.39-4.15.34-2.08.34-4.16-.51-2.07-.51-4.15-.47-2.08-.47-4.16.5-2.07.5-4.15.47-2.08.47-4.16-.2-2.07-.2-4.15-.67-2.08-.67-4.16.25-2.07.25-4.15.16-2.08.16-4.16-.39-2.07-.39-4.15.49-2.08.49-4.16S546,205,546,202.89s.58-2.07.58-4.15-.24-2.08-.24-4.15-.43-2.08-.43-4.15.21-2.08.21-4.15-.84-2.08-.84-4.16.12-2.07.12-4.15.28-2.07.28-4.15.5-2.08.5-4.16-.27-2.08-.27-4.15.52-2.08.52-4.15-.57-2.08-.57-4.16.55-2.07.55-4.15.24-2.08.24-4.16-.86-2.08-.86-4.15.09-2.08.09-4.16-.63-2.08-.63-4.15.39-2.08.39-4.16.58-2.08.58-4.16.26-2.07.26-4.15-.25-2.08-.25-4.16.3-2.07.3-4.15,0-2.08,0-4.16-1-2.08-1-4.15.49-2.08.49-4.16.45-2.08.45-4.16-.64-2.08-.64-4.16.31-2.08.31-4.16.3-2.07.3-4.15-1-2.08-1-4.16.83-2.08.83-4.16-.47-2.08-.47-4.16-.14-2.08-.14-4.15.78-2.08.78-4.16.05-2.08.05-4.16-1.13-2.07-1.13-4.15.12-2.08.12-4.16.91-2.08.91-4.16S545.3,47.06,545.3,45s.06-2.08.06-4.16.45-2.08.45-4.16.64-2.08.64-4.16.13-2.08.13-4.16-.25-2.08-.25-4.16-.78-2.08-.78-4.16,1.12-2.08,1.12-4.16-1.12-2.09-1.12-4.17,2.06-2.89.59-4.36-2.27-.47-4.36-.47-2.08.56-4.16.56-2.08,0-4.16,0-2.09.41-4.17.41-2.08.25-4.16.25-2.08-.41-4.17-.41-2.08-.65-4.16-.65-2.09-.13-4.17-.13-2.08.78-4.16.78-2.09-.78-4.17-.78-2.09.87-4.17.87-2.08.1-4.17.1-2.08.33-4.16.33-2.09-1-4.17-1-2.08.36-4.17.36-2.08.18-4.16.18-2.08-.56-4.17-.56-2.08.21-4.16.21-2.08.75-4.17.75S464.72,7,462.64,7s-2.09-.07-4.17-.07-2.08.19-4.17.19-2.08,1-4.17,1S448.05,7,446,7s-2.09.45-4.17.45-2.08-.18-4.17-.18S435.55,7,433.47,7s-2.09.69-4.17.69-2.08-.2-4.16-.2S423.05,7,421,7s-2.08.79-4.17.79h-4.17c-2.08,0-2.08,0-4.17,0s-2.08-.13-4.16-.13-2.09-.49-4.17-.49-2.08.62-4.17.62-2.08-.51-4.16-.51-2.09.53-4.17.53S385.55,7,383.46,7s-2.08.12-4.16.12-2.09-.24-4.17-.24-2.09.83-4.17.83h-4.17c-2.08,0-2.08-.84-4.17-.84s-2.08.86-4.16.86-2.09-.19-4.17-.19-2.09-.08-4.17-.08H346c-2.08,0-2.08-.37-4.17-.37S339.7,7,337.61,7s-2.08.85-4.16.85-2.09-.06-4.17-.06-2.08-.68-4.17-.68-2.08.17-4.17.17-2.08.75-4.17.75-2.08-.33-4.17-.33-2.08.37-4.16.37-2.09-1.23-4.17-1.23-2.09.61-4.17.61S298,8,295.93,8s-2.08-1.11-4.17-1.11-2.08.76-4.17.76-2.08-.28-4.17-.28-2.08.37-4.16.37-2.09-.55-4.17-.55-2.08,0-4.17,0-2.08-.09-4.16-.09-2.08-.34-4.17-.34-2.08.47-4.16.47-2.08.68-4.17.68-2.08-.89-4.16-.89-2.09,0-4.17,0-2.09.67-4.17.67S239.68,7,237.59,7s-2.08.67-4.16.67-2.09-.29-4.17-.29S227.18,7,225.09,7s-2.08.34-4.17.34-2.08.13-4.17.13-2.08-.29-4.16-.29-2.09,0-4.17,0-2.09.06-4.17.06-2.09.42-4.17.42-2.09-.49-4.17-.49-2.09.85-4.17.85-2.09-.74-4.17-.74S185.48,7,183.4,7s-2.09.23-4.17.23-2.09.91-4.17.91S173,7.11,170.89,7.11s-2.09.35-4.17.35-2.09-.41-4.17-.41-2.09,1-4.18,1-2.08-1-4.17-1S152.12,8.23,150,8.23,148,6.84,145.86,6.84s-2.09.33-4.17.33-2.09.52-4.17.52-2.09-.45-4.17-.45-2.09,1-4.17,1-2.09-1-4.17-1-2.09.9-4.17.9-2.09-.74-4.18-.74-2.08.76-4.17.76-2.09-.42-4.17-.42S106.23,7,104.14,7s-2.09.16-4.17.16-2.09.12-4.18.12-2.08-.23-4.17-.23-2.09.35-4.18.35-3.15-1.81-4.63-.34S83,9.6,83,11.69s.34,2.08.34,4.17S82.54,18,82.54,20s.19,2.09.19,4.18.82,2.08.82,4.17-.83,2.08-.83,4.17.41,2.08.41,4.17.52,2.09.52,4.18.21,2.09.21,4.18"/><path class="cls-3" d="M5.69,289.33c0,2.12.72,2.12.72,4.24s-.7,2.13-.7,4.25.61,2.12.61,4.24-.61,2.12-.61,4.24-.14,2.13-.14,4.25,0,2.12,0,4.24.91,2.12.91,4.24-.23,2.13-.23,4.25-.18,2.12-.18,4.24.68,2.12.68,4.24-.85,2.12-.85,4.24.9,2.12.9,4.24v4.24c0,2.13-.39,2.13-.39,4.25s-.08,2.12-.08,4.24-.7,2.13-.7,4.25,1.25,2.12,1.25,4.25,0,2.12,0,4.24,0,2.12,0,4.25-1,2.12-1,4.25.55,2.12.55,4.25-1.77,2.71-.28,4.23,2.08-.37,4.17-.37,2.1-.3,4.2-.3,2.1.54,4.19.54l4.2,0c2.1,0,2.1-.3,4.2-.3s2.1.18,4.2.18,2.09.27,4.19.27,2.1,0,4.2,0,2.1-.32,4.2-.32,2.1.88,4.2.88,2.1-.83,4.19-.83,2.1.38,4.2.38,2.1.17,4.2.17,2.1.27,4.2.27,2.1-.13,4.2-.13,2.1-1,4.2-1,2.1.37,4.2.37,2.1,0,4.2,0,2.1-.44,4.2-.44,2.1.7,4.2.7,2.1.4,4.2.4,2.1-.05,4.2-.05,2.1-1,4.2-1,2.1.45,4.2.45,2.1.9,4.19.9,2.1-1.28,4.2-1.28,2.1,0,4.2,0,2.1.5,4.2.5,2.1.72,4.2.72,2.1-.08,4.2-.08,2.11-.11,4.21-.11,2.1-.32,4.2-.32,2.1-.74,4.2-.74,2.1,1.16,4.21,1.16,2.1-.67,4.2-.67,2.1.15,4.2.15,2.11.23,4.21.23,2.11.14,4.21.14"/><path class="cls-3" d="M196.34,112.18c0-2.09-.06-2.09-.06-4.19s-.71-2.1-.71-4.19.36-2.1.36-4.19.61-2.1.61-4.19-.49-2.1-.49-4.19.3-2.1.3-4.2-.6-2.09-.6-4.19-.05-2.1-.05-4.19,1.1-2.1,1.1-4.2-.51-2.1-.51-4.19.16-2.1.16-4.2-.27-2.1-.27-4.19-.32-2.1-.32-4.2.19-2.1.19-4.2.76-2.1.76-4.2.87-2.68-.6-4.18-2,.17-4.1.17-2.07-.07-4.13-.07-2.06.41-4.12.41-2.06-.17-4.13-.17-2.06-.37-4.12-.37-2.07.12-4.13.12-2.06.11-4.13.11-2.06,0-4.13,0S161.16,45,159.1,45s-2.06-.38-4.13-.38-2.06.88-4.12.88-2.07.06-4.13.06h-4.13c-2.07,0-2.07-.65-4.13-.65s-2.06.08-4.13.08-2.06,0-4.13,0-2.06.79-4.13.79-2.06-.82-4.13-.82-2.06-.48-4.12-.48-2.07.74-4.13.74-2.07-.77-4.13-.77-2.07.69-4.13.69-2.07.21-4.13.21-2.07.41-4.13.41-2.07-.28-4.13-.28-2.07-.66-4.14-.66-2.06.28-4.13.28-2.06.66-4.13.66-2.06-.32-4.13-.32-2.06-.85-4.13-.85-2.07.62-4.13.62-2.07-.59-4.13-.59-2.07.62-4.13.62-2.07.49-4.13.49-2.07-1.22-4.13-1.22-2.07,1-4.13,1-2.07-.23-4.13-.23-2.07-.05-4.14-.05-2.06-.85-4.13-.85-2.07.27-4.13.27S29,45.73,26.93,45.73s-2.06-1-4.13-1-2.07.75-4.13.75S16.6,45,14.53,45s-2.07.72-4.14.72-3.17-2.63-4.63-1.17.69,2.57.69,4.65S5.9,51.32,5.9,53.4s-.06,2.08-.06,4.16.4,2.08.4,4.16-.6,2.08-.6,4.16.84,2.09.84,4.17-.37,2.08-.37,4.16-.56,2.08-.56,4.16.84,2.08.84,4.16-.22,2.08-.22,4.16v4.16c0,2.08-.56,2.08-.56,4.16s1.1,2.08,1.1,4.16S6,101.25,6,103.33s.48,2.09.48,4.17-.2,2.08-.2,4.16.6,2.08.6,4.16-.24,2.08-.24,4.16,0,2.08,0,4.16S6,126.22,6,128.31s-.15,2.08-.15,4.16.88,2.08.88,4.16,0,2.08,0,4.16,0,2.08,0,4.17-.22,2.08-.22,4.16S6,151.2,6,153.28s.41,2.09.41,4.17.41,2.08.41,4.16,0,2.09,0,4.17,0,2.08,0,4.16S5.74,172,5.74,174.11s.79,2.08.79,4.16-.31,2.08-.31,4.17.07,2.08.07,4.16-.56,2.09-.56,4.17.68,2.08.68,4.17-.6,2.08-.6,4.16.18,2.09.18,4.17.23,2.08.23,4.16S6,209.52,6,211.6s.5,2.08.5,4.16-.48,2.09-.48,4.17.38,2.08.38,4.17.31,2.08.31,4.16-.67,2.08-.67,4.17-.47,2.08-.47,4.17.68,2.08.68,4.17-.55,2.08-.55,4.16.61,2.09.61,4.17-.67,2.09-.67,4.17.59,2.09.59,4.17.45,2.09.45,4.18-1.06,2.09-1.06,4.17"/><path class="cls-3" d="M196.55,270.11c0-2,.09-2,.09-4.06s-.2-2-.2-4.05.17-2,.17-4.05-.24-2-.24-4-.18-2-.18-4.05-.37-2-.37-4,0-2,0-4.05.34-2,.34-4.06-.46-2-.46-4.06"/><path class="cls-3" d="M122.3,32.57c0-1.76.12-1.76.12-3.53s-.49-1.76-.49-3.53"/><path class="cls-3" d="M128.54,32.57c0-1.6-.6-1.6-.6-3.21s.4-1.6.4-3.21,0-1.61,0-3.21"/><path class="cls-3" d="M135.16,32.57c0-1.52,0-1.52,0-3.05s-.38-1.52-.38-3.05-.37-1.52-.37-3,1-1.53,1-3.05"/><path class="cls-3" d="M111.21,21.7c-1.62-1-1.57-.5-3.58-1-1.14-.28-2.39-1.2-3.69-1a7.08,7.08,0,0,0-3.62,1.6c-.85.79-.75,2.19-1,3.23A6.33,6.33,0,0,0,99,27.68c.22,1.07,1,1.72,1.72,2.61s.89,2.15,1.91,2.65,2.07-.13,3.27-.13a6.68,6.68,0,0,0,2.91-.52A4.13,4.13,0,0,0,111,30.48c.94-1.51,3-2.11,1.55-2.79s-1.76-.13-3.49-.13-1.72.18-3.45.18"/><path class="cls-2" d="M247.25,439.69c-1.76,0-1.3-.32-3.51-.32-1,0-2.18-.83-3.51-.83-1.08,0-2.26.55-3.51.55s-2.29.3-3.52.3-2.3-.66-3.51-.66-2.31.62-3.51.62-2.32-.78-3.51-.78-2.33,1-3.51,1-2.34-.62-3.51-.62-2.35-.27-3.52-.27-2.36,1.17-3.52,1.17-2.36-1.25-3.52-1.25-2.36-.08-3.51-.08-2.38,1.2-3.52,1.2-2.39-1-3.51-1-2.42.51-3.51.51c-1.3,0-2.47-.22-3.51-.22-1.47,0-2.67-.35-3.51-.35a16,16,0,0,0-3.4.1c-1.2.3-1.75,1.74-2.49,2.38s-1.83,1.27-2.28,2.29a20.5,20.5,0,0,0-1.07,3.1c-.25,1-.15,2.16-.44,3.23a26.13,26.13,0,0,1-1,3.09,8.71,8.71,0,0,0-.73,3.27,10.06,10.06,0,0,0,.27,3.41,14.74,14.74,0,0,0,1.83,2.9,18.77,18.77,0,0,0,2.33,2.41,22,22,0,0,0,2.32,2.43,26.54,26.54,0,0,0,2.68,2.08,30.44,30.44,0,0,0,3.15,1.27,32.07,32.07,0,0,0,3,1.61c1,.34,2.35-.14,3.46.1a32.14,32.14,0,0,0,3.29.44c1.11.12,2.18.7,3.3.7s2.31.48,3.43.35A28.92,28.92,0,0,0,205,473a28,28,0,0,0,3.39-.61,27.91,27.91,0,0,0,3-1.66c1-.52,1.42-1.91,2.35-2.58s2-1.2,2.86-1.87,1.79-1.44,2.68-2.12,2.45-.61,3.32-1.3,1.58-1.73,2.44-2.43l2.63-2.18c.9-.75,1.32-2,2.16-2.74s1.59-1.68,2.42-2.41,2.37-.83,3.17-1.57,1.24-2.09,2-2.83,2.31-1,3.07-1.74,1.63-1.74,2.35-2.48c.92-.94,1.51-2,2.16-2.66A20.8,20.8,0,0,1,247.25,439.69Z"/><path class="cls-4" d="M365.29,538.15c-1.53.38.26,1.36,1,3.36.29.81.35,1.9.77,3.06.33.88,1.61,1.53,2,2.61.34.91-.17,2.22.22,3.28s.71,1.91,1.1,2.95,1.62,1.57,2,2.6.32,2.08.7,3.1.42,2,.8,3.06.51,2,.9,3,1.34,1.7,1.72,2.71.13,2.17.51,3.17,1.53,1.63,1.91,2.63-.09,2.26.29,3.26.91,1.88,1.3,2.88.71,1.95,1.09,2.95.66,2,1,3,1.29,1.73,1.67,2.72.35,2.1.73,3.09,1.29,1.74,1.68,2.74.12,2.18.51,3.17,1.66,1.6,2,2.59.17,2.18.56,3.17.87,2,1.29,3,.81,2,1.29,3,.84,2.06,1.37,3,1.6,1.57,2.19,2.43.79,2.15,1.45,3,1.81,1.33,2.52,2.09,1.49,1.58,2.25,2.3,1.3,1.82,2.11,2.5,2,.92,2.87,1.57,1.75,1.25,2.6,1.9,1.73,1.27,2.57,1.94,1.58,1.45,2.4,2.15,1.49,1.53,2.27,2.28,1.32,1.65,2.05,2.46,1.64,1.37,2.32,2.24,1,1.85,1.62,2.78,1.22,1.7,1.77,2.67,1.43,1.62,1.8,2.6,0,2.15.26,3.19.85,1.88,1,2.94.32,2,.45,3.08.46,2,.55,3.07.32,2,.39,3.1-.79,2.09-.73,3.16.66,2,.71,3.08.52,2,.57,3.08,0,2,0,3.12.22,2,.29,3.1-.58,2.1-.5,3.16a14.37,14.37,0,0,0,1,3,15.32,15.32,0,0,0,1.22,2.78c.45.92.4,2.16,1,3s1.81,1.18,2.5,2,.87,2,1.6,2.72,1.75,1.15,2.5,1.85,1.32,1.61,2.07,2.31,2,.91,2.71,1.63,1,1.88,1.72,2.63a29.78,29.78,0,0,1,1.68,2.57,20.34,20.34,0,0,1,1.68,2.51c.48.92,1.69,1.55,2,2.55s-.45,2.08-.42,3.19c0,1,.57,2,.49,3.09s0,2-.16,3.08-.78,1.94-.87,3,.43,2.05.38,3.1-.85,2-.83,3.05.56,2,.66,3-.27,2.1-.06,3.12a26.09,26.09,0,0,0,.7,3c.29,1,1.47,1.61,1.88,2.58s0,2.24.55,3.16,1.5,1.33,2.11,2.19a8.77,8.77,0,0,0,3.1.28c1.56-.07,1.53-.68,3.09-.75s1.57.14,3.13.07,1.57,0,3.13,0,1.54-.51,3.1-.58,1.59.64,3.16.57,1.53-.64,3.09-.71,1.6.79,3.16.72,1.56-.14,3.12-.21,1.54-.63,3.1-.7,1.56-.22,3.12-.29,1.57.18,3.13.11,1.59.37,3.15.3,1.55-.24,3.12-.31,1.53-.7,3.1-.77,1.79,1.07,3.24.49c-.08-1.06-.5-2.35-.59-3.41s-.19-2.12-.29-3.18.16-2.17.05-3.22-.77-2.07-.89-3.12.47-2.21.34-3.26-.19-2.14-.33-3.19-.31-2.12-.46-3.17-.88-2-1-3.09-.36-2.1-.53-3.15.06-2.18-.12-3.23-.66-2-.85-3.1.23-2.21,0-3.26-.74-2-.95-3.08-.44-2.09-.65-3.14-.33-2.11-.55-3.15-.85-2-1.08-3-.08-2.18-.32-3.21-.82-2-1.07-3-.8-2-1.06-3-.28-2.13-.54-3.16-.36-2.12-.64-3.14-.17-2.17-.45-3.2-.69-2-1-3.05-.39-2.11-.69-3.13-.74-2-1-3-.81-2-1.12-3-.34-2.14-.66-3.15-1.56-1.75-1.89-2.76-.69-2-1-3-.18-2.2-.52-3.2-1.24-1.83-1.59-2.83-.64-2-1-3,0-2.28-.34-3.28-.91-1.94-1.28-2.93-.91-1.94-1.29-2.94-.88-2-1.26-2.94-.19-2.22-.59-3.21-1-1.9-1.42-2.88-1.29-1.78-1.69-2.76-.37-2.17-.78-3.14-1-1.88-1.47-2.86-.74-2-1.16-3-.82-2-1.25-3-1.18-1.82-1.62-2.78-1.12-1.84-1.56-2.8-.74-2-1.19-3-.72-2-1.18-3-1.31-1.75-1.78-2.69-.28-2.25-.75-3.2-1.15-1.82-1.62-2.76-1.08-1.85-1.56-2.79-.48-2.17-1-3.1-1.9-1.43-2.39-2.36-.24-2.31-.74-3.23-1.49-1.64-2-2.56-.72-2.07-1.23-3-.82-2-1.33-2.92-1.21-1.8-1.73-2.7-1.58-1.58-2.11-2.47-.46-2.24-1-3.12-1.55-1.6-2.09-2.48-.84-2-1.38-2.9-1.67-1.53-2.21-2.39-.44-2.33-1-3.16-1.4-1.75-1.93-2.56c-.68-1-1.69-1.64-2.19-2.37-1.17-1.73-.14-2.28-1.66-2.76s-1.56-.14-3.11-.28-1.54-.22-3.08-.37-1.59.31-3.14.16-1.53-.42-3.07-.56-1.56-.07-3.1-.21-1.49-.78-3-.92-1.59.42-3.14.28-1.51-.61-3.06-.76-1.59.36-3.14.22-1.52-.44-3.07-.58-1.53-.25-3.08-.39-1.6.43-3.15.29-1.51-.57-3.06-.71-1.56,0-3.11-.12-1.54-.28-3.09-.42-1.57.12-3.12,0-1.59.26-3.14.12-1.47-.94-3-1.08-1.6.36-3.15.22-1.51-.6-3.06-.74-1.61.31-3.12-.1S366.8,537.78,365.29,538.15Z"/><path class="cls-3" d="M370.48,240.88l-1.67,2c-.55.64-.95,1.44-1.52,2.1s-1.33,1.12-1.9,1.78-.77,1.62-1.35,2.27-1.35,1.1-1.94,1.74-1.14,1.3-1.74,1.93-1,1.46-1.57,2.09-1.79.65-2.41,1.26-.78,1.66-1.42,2.27-1.43,1-2.07,1.58-1.07,1.39-1.73,2-1.56.83-2.23,1.39-1.06,1.43-1.74,2-1.55.81-2.25,1.34-1.25,1.21-1.95,1.72-1.71.57-2.43,1.05-1.26,1.21-2,1.68-1.4,1-2.15,1.46-1.75.41-2.51.84-1.32,1.16-2.09,1.57-1.73.39-2.51.77-1.45.94-2.25,1.3-1.41,1.08-2.21,1.42-1.71.36-2.53.67-1.7.35-2.52.64-1.4,1.26-2.23,1.52-1.82-.05-2.66.19a17.2,17.2,0,0,1-2.53.26c-.84.11-1.64.74-2.53.74a23.42,23.42,0,0,1-2.58-.25,25.74,25.74,0,0,1-2.59-.2c-.83-.17-1.61-.62-2.46-.87s-1.61-.56-2.43-.87-1.6-.6-2.4-1-1.42-1-2.19-1.37-1.56-.7-2.31-1.15-1.32-1.09-2-1.57-1.4-1-2.1-1.49-1.69-.6-2.37-1.15-1.52-.88-2.17-1.46-.85-1.6-1.48-2.21-1.07-1.33-1.67-2-1.75-.72-2.33-1.37-.86-1.53-1.41-2.21-1.27-1.18-1.8-1.88-1-1.4-1.51-2.11-.85-1.5-1.32-2.24-.78-1.53-1.23-2.28-1.26-1.26-1.68-2-.16-1.86-.55-2.64-.92-1.45-1.29-2.24-.76-1.54-1.09-2.34-.94-1.48-1.25-2.29-.08-1.79-.36-2.61-.78-1.55-1-2.38-.29-1.69-.52-2.53-.75-1.58-.95-2.42-.68-1.61-.86-2.46,0-1.75-.17-2.61,0-1.73-.12-2.6-.36-1.67-.45-2.54-.6-1.66-.68-2.53,0-1.73,0-2.6,0-1.72,0-2.59-.27-1.72-.27-2.58.33-1.72.35-2.59,0-1.72.08-2.59"/><path class="cls-3" d="M271.61,109.43c-1.77,1.22-1.15,1.1-3.1,3-.87.85-1.7,2-2.77,3.28-.85,1-2.2,1.76-3.12,3-.79,1.08-1.15,2.58-1.95,3.87s-2.08,2-2.78,3.38-.38,2.94-1,4.3-1.58,2.38-2.1,3.77-1.21,2.58-1.65,4-1.07,2.66-1.42,4.09-.78,2.76-1.06,4.21.22,2.92,0,4.38-.18,2.83-.31,4.3.24,2.84.18,4.31-1.1,2.72-1.17,4.11.29,2.79.22,4.19,0,2.77,0,4.17-.7,2.74-.77,4.13.33,2.8.27,4.19.29,2.79.22,4.18-.9,2.74-1,4.13.53,2.8.47,4.2-1,2.73-1.06,4.12.32,2.79.27,4.18-.58,2.76-.63,4.15-.11,2.78-.15,4.17.08,2.78.05,4.17.81,2.8.79,4.19-1,2.76-1,4.16.63,2.78.63,4.17-.1,2.78-.09,4.17.21,2.78.23,4.17.2,2.77.23,4.16.13,2.78.18,4.17-.75,2.81-.69,4.2.19,2.78.26,4.17.79,2.73.87,4.12.26,2.77.36,4.16.11,2.77.23,4.16.41,2.75.54,4.13.14,2.78.29,4.16.12,2.79.29,4.17-.16,2.83,0,4.2.89,2.69,1.1,4.06.7,2.7.93,4.07.55,2.72.81,4.09.12,2.8.4,4.16.88,2.66,1.18,4,.81,2.66,1.14,4,.74,2.67,1.09,4,.12,2.84.5,4.18.52,2.75.93,4.08,1.42,2.46,1.86,3.78.47,2.78.94,4.08.92,2.63,1.42,3.93,1.49,2.39,2,3.68,1,2.59,1.54,3.87,1.13,2.53,1.73,3.78,1.37,2.42,2,3.66.5,2.87,1.16,4.1,2,2.06,2.7,3.26,1,2.66,1.7,3.84,1.75,2.19,2.51,3.35,1.73,2.17,2.53,3.31.8,2.86,1.63,4,2.24,1.8,3.1,2.89,1.39,2.46,2.29,3.52,2.1,1.86,3,2.9,1.85,2.07,2.82,3.08"/><path class="cls-3" d="M338.1,90.83a25.18,25.18,0,0,1,4.14-.19c1.17,0,2.59-.23,4.17-.1,1.25.1,2.58.82,4,1,1.29.16,2.72,0,4.15.22s2.54,1.12,3.94,1.41,2.73.21,4.11.55,2.78.18,4.13.57,2.6.89,3.93,1.34,2.54,1.07,3.85,1.57,2.69.69,4,1.25,2.35,1.47,3.61,2.09,2.19,1.71,3.41,2.37,2.69.83,3.88,1.55,2.32,1.47,3.48,2.25,1.7,2.32,2.81,3.15,2.57,1.15,3.64,2,2.09,1.77,3.12,2.71,1.76,2.11,2.74,3.1,2.38,1.52,3.31,2.55,1.59,2.26,2.47,3.33,2.12,1.84,2.95,3,.81,2.78,1.59,3.93,2.29,1.79,3,3,.61,2.81,1.29,4,1.74,2.17,2.36,3.42.7,2.69,1.27,4,1.9,2.17,2.42,3.46.71,2.67,1.18,4,.25,2.8.67,4.14,1.34,2.5,1.72,3.81,1.38,2.54,1.72,3.87-.65,3-.35,4.36,1.06,2.62,1.32,4,.52,2.73.74,4.09.1,2.79.28,4.15.78,2.7.93,4.07.86,2.73,1,4.1-.76,2.84-.7,4.21.34,2.77.37,4.14.34,2.78.34,4.16.47,2.8.43,4.18-1.13,2.74-1.2,4.12-.06,2.78-.16,4.15.37,2.83.24,4.2-.1,2.8-.25,4.17-.22,2.78-.39,4.15-.37,2.77-.56,4.13-1.38,2.62-1.57,4,.8,2.93.6,4.29-1.44,2.61-1.64,4,.43,2.89.23,4.25-.84,2.7-1,4.06-.34,2.77-.5,4.13-.17,2.79-.3,4.14-.15,2.79-.24,4.15-.9,2.77-.93,4.13,1.05,2.78,1.11,4.14-1.09,2.9-.93,4.25.64,2.77.92,4.11a39.27,39.27,0,0,0,1,4.08"/><path class="cls-3" d="M298.4,105.56c1.88-.87,1-1.51,3.52-2.37,1.1-.38,2.8.44,4.33,0,1.21-.34,2.51-.72,4-1.06,1.26-.29,2.51-1,3.95-1.21,1.29-.24,2.56-1.09,4-1.29s2.8.67,4.23.54,2.63-1.2,4.05-1.27,2.73-.4,4.14-.41,2.73.71,4.15.75,2.7.38,4.1.47,2.74,0,4.14.11,2.65.7,4,.91,2.78-.06,4.16.2,2.77.16,4.14.47,2.47,1.39,3.83,1.76,2.64.69,4,1.11,2.84.13,4.17.6"/><path class="cls-3" d="M265.32,266.42c0,1.37,0,2.78.06,4.21s1.14,2.73,1.21,4.15-.54,2.82-.43,4.23,1,2.7,1.18,4.11-.95,2.91-.78,4.32.45,2.76.66,4.16,1,2.66,1.27,4,.5,2.74.79,4.13.66,2.71,1,4.08,1,2.63,1.32,4-.11,2.92.29,4.28,1.57,2.43,2,3.77-.13,3,.35,4.33,1.18,2.55,1.7,3.86,1.94,2.22,2.5,3.52.83,2.67,1.43,3.95.53,2.85,1.17,4.11,2.34,1.92,3,3.16.32,3,1,4.24,1.56,2.33,2.31,3.53,2.15,1.93,2.94,3.11.65,2.94,1.47,4.09,1.7,2.24,2.55,3.37,2.52,1.57,3.41,2.68,1.51,2.35,2.43,3.43,1.44,2.45,2.38,3.5,2.17,1.8,3.15,2.83,1.45,2.49,2.45,3.49,2.8,1.12,3.83,2.1,1.28,2.73,2.33,3.68,2.09,1.86,3.16,2.79,3,.77,4.09,1.67,1.85,2.14,3,3,1.75,2.31,2.89,3.16,2.88.78,4,1.6,1.74,2.39,2.91,3.19,2.25,1.67,3.44,2.44"/><path class="cls-3" d="M383.67,347.36c.86-1.93,1.09-1.2,2.08-3.72.43-1.11-.23-2.87.33-4.39.44-1.21,1.17-2.43,1.67-3.88.42-1.25,1.3-2.45,1.75-3.86s.72-2.66,1.14-4.07.4-2.76.79-4.16,1.06-2.58,1.42-4,.94-2.63,1.28-4,.28-2.79.59-4.19.56-2.74.84-4.14.71-2.71,1-4.11.51-2.75.73-4.16.16-2.8.35-4.21.44-2.77.59-4.18.59-2.76.71-4.17-.58-2.86-.49-4.27,1-2.76,1.09-4.17,0-2.82,0-4.24-.44-2.81-.47-4.22,0-2.81,0-4.22-.44-2.79-.56-4.2-.2-2.79-.37-4.19-.54-2.76-.75-4.15"/><path d="M364.25,248.26c1.64,1.25.31,1.39-.61,3.86-.4,1.09-1.84,2-2.43,3.5-.46,1.16-.19,2.77-.77,4.14-.5,1.19-1.84,2.12-2.43,3.44s-.36,2.81-1,4.1-1.36,2.36-2,3.63-1,2.53-1.69,3.78-1.15,2.49-1.83,3.72-2.3,1.83-3,3-.91,2.64-1.64,3.83-.93,2.66-1.68,3.83-2,2-2.79,3.12-1.69,2.16-2.51,3.29-1.88,2-2.73,3.1c-1.05,1.37-1.54,2.9-2.56,3.42a5.92,5.92,0,0,1-4.51.49,11.13,11.13,0,0,1-3.49-2.78,25.32,25.32,0,0,1-2.44-3.52c-.73-1.16-1.69-2.31-2.33-3.56s-.9-2.77-1.43-4c-.6-1.41-.21-3.1-.64-4.26-.86-2.35-3.41-2.1-2.46-4s1.72-.7,4.22-1.56c1.1-.37,2.69,0,4.16-.64,1.16-.47,2.54-.81,3.9-1.44,1.17-.55,2.56-.93,3.85-1.6s2.1-1.82,3.35-2.54,2.48-1.16,3.68-1.93,2.37-1.38,3.53-2.2,1.48-2.57,2.59-3.43,3-.64,4.08-1.55,1.22-2.75,2.25-3.71,2.12-1.71,3.11-2.71,1.93-1.91,2.88-2.95,2.15-1.75,3.05-2.83S363.4,249.38,364.25,248.26Z"/><path class="cls-3" d="M364.25,248.26c1.64,1.25.31,1.39-.61,3.86-.4,1.09-1.84,2-2.43,3.5-.46,1.16-.19,2.77-.77,4.14-.5,1.19-1.84,2.12-2.43,3.44s-.36,2.81-1,4.1-1.36,2.36-2,3.63-1,2.53-1.69,3.78-1.15,2.49-1.83,3.72-2.3,1.83-3,3-.91,2.64-1.64,3.83-.93,2.66-1.68,3.83-2,2-2.79,3.12-1.69,2.16-2.51,3.29-1.88,2-2.73,3.1c-1.05,1.37-1.54,2.9-2.56,3.42a5.92,5.92,0,0,1-4.51.49,11.13,11.13,0,0,1-3.49-2.78,25.32,25.32,0,0,1-2.44-3.52c-.73-1.16-1.69-2.31-2.33-3.56s-.9-2.77-1.43-4c-.6-1.41-.21-3.1-.64-4.26-.86-2.35-3.41-2.1-2.46-4s1.72-.7,4.22-1.56c1.1-.37,2.69,0,4.16-.64,1.16-.47,2.54-.81,3.9-1.44,1.17-.55,2.56-.93,3.85-1.6s2.1-1.82,3.35-2.54,2.48-1.16,3.68-1.93,2.37-1.38,3.53-2.2,1.48-2.57,2.59-3.43,3-.64,4.08-1.55,1.22-2.75,2.25-3.71,2.12-1.71,3.11-2.71,1.93-1.91,2.88-2.95,2.15-1.75,3.05-2.83S363.4,249.38,364.25,248.26Z"/><path d="M280.71,119.54a12.58,12.58,0,0,0,.7-3.74c.08-1.23-.44-2.71-.24-4.26.16-1.32.12-2.78.39-4.22s.56-2.79.94-4.15,1.5-2.5,2-3.77a21.84,21.84,0,0,1,1.63-3.9c.83-1.21,1.51-2.73,2.61-3.52s2.91-.19,4.36-.4a10.16,10.16,0,0,1,3.7-.11,19.88,19.88,0,0,1,3.8.73,36.73,36.73,0,0,1,3.28,2.07c1.17.64,2.68.67,3.71,1.35,1.19.78,2.38,1.44,3.29,2.12,1.85,1.39,2.6.84,2,2.68a14.77,14.77,0,0,0-3.75.24,26.13,26.13,0,0,0-4.4.67,35.63,35.63,0,0,0-4,1.91c-1.31.64-2.34,1.82-3.58,2.58s-2.48,1.56-3.64,2.4-2.5,1.61-3.58,2.51-2.6,1.63-3.59,2.56c-1.2,1.12-2.14,2.31-3,3.22A35.91,35.91,0,0,0,280.71,119.54Z"/><path class="cls-3" d="M280.71,119.54a12.58,12.58,0,0,0,.7-3.74c.08-1.23-.44-2.71-.24-4.26.16-1.32.12-2.78.39-4.22s.56-2.79.94-4.15,1.5-2.5,2-3.77a21.84,21.84,0,0,1,1.63-3.9c.83-1.21,1.51-2.73,2.61-3.52s2.91-.19,4.36-.4a10.16,10.16,0,0,1,3.7-.11,19.88,19.88,0,0,1,3.8.73,36.73,36.73,0,0,1,3.28,2.07c1.17.64,2.68.67,3.71,1.35,1.19.78,2.38,1.44,3.29,2.12,1.85,1.39,2.6.84,2,2.68a14.77,14.77,0,0,0-3.75.24,26.13,26.13,0,0,0-4.4.67,35.63,35.63,0,0,0-4,1.91c-1.31.64-2.34,1.82-3.58,2.58s-2.48,1.56-3.64,2.4-2.5,1.61-3.58,2.51-2.6,1.63-3.59,2.56c-1.2,1.12-2.14,2.31-3,3.22A35.91,35.91,0,0,0,280.71,119.54Z"/><path class="cls-3" d="M298.68,228.85a7.66,7.66,0,0,1-5-1.68c-2.38-1.56-2.43-1.66-2-4.2a22.68,22.68,0,0,0,1.72-3.85c.49-1.37-.16-3,.09-4.41a29.46,29.46,0,0,0,.87-4.17c0-1.45.87-2.95.73-4.37s-1.63-2.69-1.91-4.08-.67-2.77-1.07-4.12-.41-2.92-.9-4.21-.46-3-1-4.26c-.67-1.47-1.42-2.76-2-3.85a29.89,29.89,0,0,0-2.3-3.68c-1.08-1.69-1.11-1.16-2.64-3.08-.73-.91-2.16-1.46-3.17-2.56-.85-.92-1-2.7-2-3.66s-2.41-1.28-3.5-2.12a37,37,0,0,0-3.22-2.41,31.86,31.86,0,0,0-3.46-2.1,26.44,26.44,0,0,0-3.79-1.5,21.49,21.49,0,0,0-4-.56,20.84,20.84,0,0,0-4.12-.32"/><path class="cls-3" d="M338.32,166.59c-1.95.38-2,.12-4,.51s-2,.34-3.91.73-1.89.71-3.85,1.11-2.12-.48-4.08-.08-1.79,1.2-3.75,1.59-2,0-4,.41-2,.21-3.94.6-2,.14-4,.53-1.93.51-3.89.9-1.75,1.43-3.71,1.82"/><path class="cls-3" d="M388.89,269.59c-1.49,1.42-1.08,1.85-2.57,3.27s-1.61,1.29-3.11,2.7-1.7,1.2-3.19,2.61-1.38,1.53-2.87,2.95-1.31,1.6-2.8,3-1.55,1.35-3.05,2.77-1.7,1.18-3.2,2.6l-3,2.83c-1.5,1.42-1,1.94-2.49,3.36s-2,.9-3.47,2.32-1.07,1.86-2.57,3.27-1.91,1-3.4,2.39-1.59,1.31-3.08,2.72-1.51,1.41-3,2.82-.86,2.08-2.35,3.5-1.66,1.24-3.15,2.66-1.61,1.29-3.11,2.7-1,1.91-2.52,3.33-2.08.8-3.57,2.22-.88,2.08-2.37,3.49-1.53,3.54-3.51,3c-2.14-.62-.78-2.54-1.57-4.62s-.71-2.1-1.5-4.18-.14-2.32-.92-4.4-2-1.63-2.75-3.7-.84-2.06-1.63-4.14-.82-2.06-1.62-4.14.1-2.42-.69-4.5"/><path class="cls-3" d="M319.42,335.75a7,7,0,0,0,.72,3.46,7.22,7.22,0,0,0,2.23,2.8,7.1,7.1,0,0,0,3.44.85c1.21.08,2.63.34,3.65-.16a7.62,7.62,0,0,0,2.55-2.65,7,7,0,0,0,.68-3.43,6,6,0,0,0-.81-3.21c-.51-1-.66-2.58-1.62-3.23a9.37,9.37,0,0,0-7.27-.57c-1,.52-1.67,1.9-2.32,2.87A6.85,6.85,0,0,0,319.42,335.75Z"/><path class="cls-3" d="M292.15,248.8c1.61-1.29,1.55-.52,3.56-2.15.92-.74,1.57-2.14,2.79-3.12,1-.8,2.44-1.2,3.58-2.13s2-1.84,3.1-2.74,2-1.89,3.06-2.78,2.23-1.59,3.32-2.47,1.81-2.12,2.88-3,2.45-1.37,3.51-2.25,1.9-2,2.95-2.92c1.48-1.22,3.23-1.23,4.2-.14.72.82.72,2.53,1.06,4.2a22.44,22.44,0,0,1-.08,4.14c0,1.33.59,2.75.37,4.18s-1,2.59-1.44,3.94-.35,2.84-1,4.09-1.9,2-2.78,3.14-1.42,2.44-2.56,3.28a14.88,14.88,0,0,1-3.54,2.39c-1.25.45-2.82-.28-4.3-.16-1.31.11-2.74,1.29-4.23,1.1-1.29-.16-2.57-1.11-4-1.53a31.94,31.94,0,0,1-4.16-.91"/><path class="cls-3" d="M392.88,195.85c.55,2-.12,1.69.73,4.22.38,1.13,1.65,2.19,2.21,3.7.45,1.21.76,2.6,1.34,4,.5,1.24,1,2.54,1.65,3.88s.65,2.76,1.28,4.07,2.23,2,2.9,3.27.71,2.78,1.43,4,1.83,2.17,2.59,3.37,1.35,2.46,2.16,3.62,2.1,1.93,3,3.05,1.54,2.34,2.46,3.41,1.86,2.07,2.84,3.08,1.49,2.51,2.54,3.45,2,2,3.16,2.85,2.77.95,3.95,1.71,2.39,1.4,3.64,2a92.91,92.91,0,0,0,7.7,3.23,38,38,0,0,0,4,1.39,37.59,37.59,0,0,0,4.25,0,38.37,38.37,0,0,0,4.17-.44"/><path class="cls-3" d="M245.52,396.3c.13,2.37.08,2.37.2,4.74s1,2.32,1.16,4.69-.81,2.42-.69,4.78-.42,2.4-.29,4.77,1,2.33,1.09,4.69-.74,2.42-.62,4.79.91,2.32,1,4.69.37,2.36.5,4.73.59,2.34.72,4.71-.2,2.39-.08,4.76-.62,2.41-.5,4.78.45,2.35.58,4.72.87,2.33,1,4.7-.22,2.39-.1,4.76-.84,2.42-.71,4.79.82,2.33.94,4.7-.53,2.41-.4,4.78.82,2.33.95,4.7.68,2.34.81,4.71-1.26,2.44-1.14,4.81,1.29,2.31,1.42,4.68-.13,2.38,0,4.75.07,2.37.2,4.74-.84,2.43-.71,4.8.43,2.35.55,4.72,1.36,2.31,1.49,4.68-1,2.42-.83,4.79,1,2.33,1.1,4.7-.43,2.41-.31,4.78.95,2.33,1.08,4.71"/><path class="cls-3" d="M265.82,337.89a14.84,14.84,0,0,0-4.3,2.15c-1.18.74-2.22,2-3.64,3.17a35.43,35.43,0,0,0-3.63,3.12,19.45,19.45,0,0,0-5.79,7.68,34.18,34.18,0,0,0-1.82,4.47,34.65,34.65,0,0,0-1.27,4.65,36.81,36.81,0,0,0-1.08,4.73,43.17,43.17,0,0,0-.61,4.87c0,1.55,1.12,3.11,1.3,4.79"/><path class="cls-3" d="M391.66,875.59c-.42-2.34.65-2.53.23-4.87s-1.53-2.14-1.95-4.48-.34-2.35-.76-4.69-.54-2.32-1-4.66.6-2.52.18-4.86-.34-2.36-.76-4.7-1.57-2.13-2-4.47-.33-2.36-.75-4.7-.08-2.4-.5-4.74-.86-2.26-1.28-4.6.45-2.5,0-4.84-.27-2.37-.68-4.71-1.35-2.17-1.76-4.51-.24-2.38-.66-4.71-1-2.24-1.39-4.58.52-2.51.1-4.85-1.38-2.16-1.8-4.5-.41-2.34-.83-4.68-.39-2.35-.81-4.69.44-2.49,0-4.83-.29-2.36-.71-4.7-.62-2.31-1-4.64-.92-2.25-1.34-4.59,0-2.42-.39-4.76,0-2.41-.45-4.75-.62-2.31-1-4.65-.46-2.33-.88-4.67-.84-2.27-1.26-4.61-.84-2.26-1.26-4.6.71-2.54.29-4.88-.87-2.26-1.29-4.6-1.09-2.22-1.5-4.57,0-2.42-.4-4.76-.37-2.35-.79-4.69,0-2.41-.44-4.75-.29-2.37-.71-4.71-1-2.24-1.38-4.58-.24-2.38-.66-4.72,0-2.42-.39-4.76-.31-2.36-.73-4.7-.65-2.3-1.07-4.65-.23-2.37-.64-4.72-.69-2.29-1.11-4.63-.61-2.3-1-4.65-.84-2.26-1.26-4.6-.45-2.34-.87-4.68,0-2.41-.46-4.75-.93-2.25-1.35-4.6-.56-2.31-1-4.66-.13-2.39-.55-4.73.19-2.45-.23-4.8-.49-2.33-.91-4.67-1.22-2.21-1.64-4.55,0-2.42-.43-4.77"/><path class="cls-3" d="M442.07,723c-.27,2.34-1.25,1.64-1.56,4.56-.13,1.33.27,3,.1,4.73-.14,1.45-.52,3-.66,4.66-.13,1.49-.66,3-.78,4.66s-.54,3.07-.65,4.67.94,3.19.85,4.77-.8,3.1-.87,4.67-.22,3.15-.27,4.7.3,3.18.28,4.72,0,3.19.05,4.7,0,3.23.08,4.71c.1,1.69-.11,3.32.08,4.73a23.06,23.06,0,0,0,1.32,4.56c.46,1.39,1.24,2.78,1.77,4.34.48,1.41.68,3,1.2,4.54s.7,3,1.2,4.52,1.25,2.82,1.73,4.36.45,3.07.89,4.61,1.7,2.73,2.12,4.26.9,3,1.28,4.52.17,3.15.51,4.69.07,3.15.38,4.7.9,3,1.17,4.53,0,3.11.27,4.68.68,3,.87,4.59,1.37,3,1.5,4.55.05,3.12.14,4.7.24,3.11.28,4.69-1.05,3.11-1.05,4.69.39,3.1.34,4.67-.12,3.1-.22,4.67.54,3.17.39,4.74-.08,3.14-.28,4.7"/><path class="cls-3" d="M259.53,745.72c-2.34.09-2.33.41-4.67.5s-2.33.52-4.68.6-2.32.5-4.67.59-2.37-.85-4.72-.76-2.31,1-4.65,1.06-2.35-.26-4.7-.17-2.37-.82-4.72-.74-2.32.69-4.66.78-2.34.42-4.68.51-2.37-.64-4.72-.56-2.31.78-4.66.86-2.37-.77-4.72-.68-2.3,1.19-4.65,1.28-2.37-.58-4.72-.49-2.36-.22-4.71-.13"/><path class="cls-3" d="M415.55,534.21c1.35,1.92,2.11.54,3.81,3.09.73,1.09,1.63,2.39,2.62,3.91.77,1.2.95,2.95,1.87,4.4.78,1.23,2.35,2.11,3.23,3.53s1.51,2.66,2.36,4.07.57,3.24,1.4,4.64,1.8,2.51,2.62,3.91,1.76,2.54,2.56,4,1.68,2.6,2.47,4,.69,3.17,1.46,4.57,1.8,2.55,2.56,4,2.15,2.38,2.89,3.79.81,3.09,1.54,4.51,1.73,2.6,2.45,4,1.25,2.87,1.95,4.29,1.32,2.82,2,4.25,1.8,2.59,2.49,4,1.69,2.66,2.36,4.09,1.07,2.95,1.73,4.39,1,3,1.65,4.41,1.86,2.6,2.49,4,.26,3.29.88,4.74,1.52,2.75,2.13,4.21,1.37,2.82,2,4.28.39,3.21,1,4.68,2.57,2.35,3.14,3.82-.1,3.39.46,4.86,1.84,2.66,2.38,4.14.55,3.13,1.08,4.61.67,3.08,1.19,4.57,1.23,2.88,1.73,4.38,1.81,2.7,2.29,4.2-.07,3.31.4,4.81,1.64,2.77,2.1,4.28.41,3.14.85,4.66,1.74,2.76,2.16,4.28-.42,3.36,0,4.88,1.12,2.94,1.51,4.46,1.48,2.87,1.85,4.39.43,3.13.78,4.66.71,3.06,1,4.59.54,3.09.86,4.63,1.27,3,1.57,4.49.19,3.16.47,4.71.65,3.07.91,4.62-.42,3.25-.19,4.8,1.26,3,1.48,4.59c-2.23.85-2.43-.6-4.82-.51s-2.36.83-4.75.92-2.41-.35-4.79-.26-2.4-.08-4.79,0-2.36,1-4.75,1-2.41-.54-4.8-.45-2.38.33-4.77.42-2.39-.11-4.78,0-2.38.49-4.77.58-2.36.69-4.75.78-2.44-1.1-4.83-1-2.36.84-4.75.93-2.42-.59-4.81-.5-2.38.37-4.77.46-2.36.88-4.75,1-2.43-1.14-4.82-1-2.37.62-4.76.71-2.36.88-4.75,1-2.44-1.37-4.83-1.28-2.35,1.39-4.74,1.48-2.39,0-4.78.11-2.39.24-4.78.33-2.4-.16-4.79-.07-2.39-.05-4.79,0-2.37.48-4.77.57-2.43-.86-4.82-.77-2.36,1.1-4.75,1.18"/><path class="cls-5" d="M347.13,622.59c-.75-2.16-1.31.48-4.94-.21-1.19-.22-2.6-.8-4.44-1.15-1.3-.24-2.77-.66-4.47-1-1.36-.26-3,.09-4.61-.22-1.39-.26-2.69-1.57-4.3-1.88-1.41-.27-3.06.28-4.65,0-1.42-.27-2.68-1.8-4.25-2.1s-3-.46-4.51-.76-3.1.26-4.66,0a14.3,14.3,0,0,0-4.48,0,9.09,9.09,0,0,0-4.29,1.16c-1.32.94-2.82,2-3.24,3.45a8.94,8.94,0,0,0,.32,4.8c.42,1.36,1.95,2.21,3.07,3.42,1,1,1.56,2.71,3,3.49s3.21.87,4.62,1.61l4.29,2.24c1.46.75,2.64,2,4,2.7s3.27.75,4.68,1.46,2.44,2.43,3.84,3.12,2.89,1.57,4.29,2.25,3,1.4,4.36,2.07,3.35.65,4.74,1.31c1.54.73,3,1.37,4.39,2,1.59.74,2.8,2,4.13,2.58,1.69.77,3.35,1,4.58,1.57,2.85,1.27,4.74,4.58,5.13,2.2s-.95-2.59-1.4-5-.48-2.41-.93-4.82-.28-2.45-.72-4.86-1-2.31-1.48-4.72.13-2.52-.32-4.94-1.18-2.3-1.38-4.75S348,624.91,347.13,622.59Z"/><path class="cls-6" d="M347.13,622.59c-.75-2.16-1.31.48-4.94-.21-1.19-.22-2.6-.8-4.44-1.15-1.3-.24-2.77-.66-4.47-1-1.36-.26-3,.09-4.61-.22-1.39-.26-2.69-1.57-4.3-1.88-1.41-.27-3.06.28-4.65,0-1.42-.27-2.68-1.8-4.25-2.1s-3-.46-4.51-.76-3.1.26-4.66,0a14.3,14.3,0,0,0-4.48,0,9.09,9.09,0,0,0-4.29,1.16c-1.32.94-2.82,2-3.24,3.45a8.94,8.94,0,0,0,.32,4.8c.42,1.36,1.95,2.21,3.07,3.42,1,1,1.56,2.71,3,3.49s3.21.87,4.62,1.61l4.29,2.24c1.46.75,2.64,2,4,2.7s3.27.75,4.68,1.46,2.44,2.43,3.84,3.12,2.89,1.57,4.29,2.25,3,1.4,4.36,2.07,3.35.65,4.74,1.31c1.54.73,3,1.37,4.39,2,1.59.74,2.8,2,4.13,2.58,1.69.77,3.35,1,4.58,1.57,2.85,1.27,4.74,4.58,5.13,2.2s-.95-2.59-1.4-5-.48-2.41-.93-4.82-.28-2.45-.72-4.86-1-2.31-1.48-4.72.13-2.52-.32-4.94-1.18-2.3-1.38-4.75S348,624.91,347.13,622.59Z"/><path class="cls-3" d="M204.71,331.65c.76-2.13.48-2.23,1.24-4.35s.84-2.09,1.6-4.22,1.1-2,1.85-4.12.75-2.13,1.51-4.26,0-2.4.74-4.52,1.51-1.86,2.27-4,.1-2.36.86-4.49.53-2.15,2.05-3.82c1.81-2,1.68-.62,3.08,2.54a10.45,10.45,0,0,1,.66,4.93c-.06,1.49.75,3.33.33,5.42-.32,1.55-.93,3-1.3,4.52s-1,3-1.4,4.47-.17,3.3-.63,4.72c-.51,1.59-1.93,2.78-2.42,4.14-.59,1.67-.19,3.51-.68,4.75-1.08,2.73-.84,2.22-1.82,4.35"/><path class="cls-3" d="M200.86,375.39a8.22,8.22,0,0,0,2.5-4.18,15.46,15.46,0,0,0,.61-4.87,31.87,31.87,0,0,0-1-4.76c-.34-1.54-.16-3.31-.66-4.86s-1.4-3-2-4.46-1.77-2.85-2.4-4.24c-.74-1.62-1.64-3-2.28-4.25-1.33-2.6.53-4-1.65-5-2-1-2.39-.33-4.6-.8s-2.14-.79-4.35-1.26-2.36.24-4.57-.23-2-1.19-4.26-1.66"/><path class="cls-3" d="M448.08,408.3c-.8,2.21-.81,2.2-1.6,4.41s-2,1.78-2.76,4,.06,2.51-.73,4.72-1.13,2.08-1.92,4.28-.73,2.23-1.52,4.43-1.39,2-2.19,4.2-.06,2.46-.86,4.66-1.43,2-2.23,4.18-.59,2.28-1.39,4.48-.55,2.29-1.34,4.5-1,2.13-1.79,4.33-.26,2.4-1.05,4.61-1.31,2-2.11,4.22-.38,2.35-1.17,4.55-.46,2.32-1.26,4.53-1.51,1.94-2.31,4.14-1.29,2-2.09,4.23-.06,2.47-.86,4.67-1.38,2-2.17,4.2-.15,2.44-.94,4.64-1.51,1.95-2.3,4.16-.17,2.43-1,4.63-.32,2.38-1.11,4.58-1.93,1.8-2.72,4,.51,2.68-.28,4.89-1.52,2-2.32,4.16"/><path class="cls-3" d="M253.17,538.46c2.33.18,2.35-.06,4.68.12s2.38-.29,4.71-.11,2.32.5,4.65.68,2.28.93,4.62,1.11,2.36-.14,4.69,0,2.39-.56,4.73-.38,2.31.53,4.64.71,2.26,1.14,4.6,1.32,2.39-.51,4.73-.33,2.28.84,4.62,1,2.39-.52,4.72-.34,2.38-.38,4.72-.2,2.23,1.57,4.57,1.75,2.43-1,4.76-.81,2.32.44,4.65.62,2.34.24,4.68.42,2.26,1.14,4.6,1.32,2.36-.12,4.69.06,2.44-1.06,4.77-.88,2.26,1.26,4.59,1.44,2.41-.66,4.74-.48,2.3.73,4.64.91,2.4-.64,4.74-.46,2.21,1.73,4.55,1.91,2.42-.83,4.76-.65,2.29.8,4.62,1,2.34.25,4.68.43,2.37-.27,4.71-.09,2.28.86,4.62,1,2.42-.78,4.75-.6,2.31.61,4.64.79,2.29.81,4.63,1,2.41-.77,4.75-.59,2.32.43,4.66.61l4.68.36c2.33.18,2.29.81,4.62,1s2.44-1.07,4.78-.89,2.28,1,4.62,1.15,2.38-.37,4.72-.19,2.32.41,4.66.59,2.4-.5,4.74-.32,2.32.45,4.66.63"/><path class="cls-3" d="M170.46,340.93c-1.53,1.4-1.36.7-2.2,3.32a16.92,16.92,0,0,0-1.16,4,33.52,33.52,0,0,0,.07,4.19c.06,1.26.21,2.64.43,4.15.18,1.27.8,2.56,1.13,4s1,2.84,1.32,4.22-.34,3.15,0,4.52,1,2.86,1.33,4.22c.33,1.53,1.22,2.84,1.51,4.18.33,1.56.25,3.08.52,4.4.34,1.6.59,3.05.86,4.32.35,1.72.29,3.22.52,4.39.61,3.07.77,2.09.71,4.28a13.07,13.07,0,0,1-.36,4.07c-.24,1.13-.69,2.44-1,4-.26,1.22-1,2.48-1.27,3.92-.28,1.26-.67,2.57-1,4s-.39,2.66-.7,4-.78,2.58-1.1,3.95-.38,2.68-.7,4-.46,2.68-.78,4-.28,2.73-.61,4.07-.63,2.66-1,4-1,2.56-1.34,3.89-.24,2.77-.59,4.09-.59,2.68-.94,4a32,32,0,0,0-1.07,3.92c-.19,1.42-.81,2.74-.79,4.06a23.45,23.45,0,0,0,.5,4.11c.28,1.39,1.36,2.43,1.88,3.67a19.21,19.21,0,0,0,1.63,3.69c.8,1.13,1.26,2.56,2.26,3.49a21,21,0,0,0,3.61,2.07,21.87,21.87,0,0,0,3.59,2c1.28.46,2.73.23,4.11.47a25.39,25.39,0,0,0,4,.32c1.35,0,2.8,1,4.18.81a31.75,31.75,0,0,0,4-1.38,31.76,31.76,0,0,0,3.95-1.27,36,36,0,0,0,3.54-2.15,37,37,0,0,0,3.22-2.57c1.12-.86,2.34-1.56,3.43-2.4s2.69-1.12,3.78-2,1.86-2.2,2.94-3.05,2.12-1.86,3.2-2.7,2.27-1.69,3.34-2.53,2-2.08,3-2.92,2.34-1.63,3.39-2.47,2.47-1.5,3.5-2.32c1.18-.95,2.19-1.91,3.19-2.71,1.25-1,2.28-2,3.19-2.7,2.09-1.69,1.6-1.35,3.22-2.67"/><path class="cls-3" d="M296.84,302.49c-2.12-.13-1.58.63-4.26.64-1.2,0-2.65-.92-4.26-.85-1.3.05-2.67,1.12-4.19,1.23-1.33.1-2.73.15-4.21.31s-2.73.42-4.18.62-2.9-.5-4.34-.25-2.78.44-4.19.74-2.51,1.61-3.91,1.95-2.72.63-4.09,1-2.78.54-4.13,1-2.51,1.31-3.83,1.83-2.91.35-4.21.93-2.63,1.09-3.9,1.74-2.08,2.06-3.3,2.78-2.48,1.33-3.66,2.13-2,2-3.1,2.89-2.72,1.12-3.77,2.07-1.44,2.54-2.43,3.57"/><path class="cls-3" d="M186.61,350.41a21.38,21.38,0,0,1,2.09,3.76c.56,1.13,1.79,2.21,2.36,3.7a38,38,0,0,1,1.56,4.1c.37,1.38-.26,3-.09,4.45s.87,2.89.75,4.33-1.23,2.66-1.73,4a13,13,0,0,1-1.94,3.7,14.54,14.54,0,0,1-2.87,3.15"/><path class="cls-3" d="M188.23,329.92c-2.07.87-1.67,1.83-3.73,2.69s-2.15.68-4.22,1.55-2,.94-4.1,1.8"/><path class="cls-3" d="M206.39,377.6c.1,2.43,1.24,2.38,1.34,4.81s-.53,2.45-.43,4.88,0,2.43.11,4.85.47,2.41.57,4.84.13,2.42.23,4.85,0,2.43.1,4.85-.26,2.44-.16,4.87.46,2.41.55,4.84.39,2.41.48,4.84-.22,2.44-.13,4.87-.18,2.44-.08,4.86.43,2.41.53,4.84-.37,2.45-.27,4.88,1,2.39,1.08,4.82.21,2.43.31,4.86"/><path class="cls-3" d="M296.86,317.23c.23,1.29.65.87,1,2.47.17.73,0,1.68.3,2.64.21.78.58,1.6.85,2.49s.4,1.68.7,2.55.77,1.55,1.09,2.4.94,1.48,1.28,2.31.07,1.87.45,2.67,1.14,1.39,1.55,2.18.5,1.73.95,2.48,1.06,1.42,1.56,2.14,1.37,1.16,1.91,1.84.6,1.81,1.2,2.44,1.47,1,2.13,1.61a21.54,21.54,0,0,0,2.34,1.21c.74.49,1.09,1.64,1.88,2s1.87,0,2.72.26a12.4,12.4,0,0,0,5.08.61,17.55,17.55,0,0,0,2.59-.11,20.83,20.83,0,0,0,2.55-.5c.81-.24,1.53-.73,2.38-1.07s1.79-.18,2.61-.6,1.23-1.3,2-1.77,1.82-.35,2.57-.86,1.13-1.38,1.85-1.93,1.71-.63,2.41-1.21,1.1-1.39,1.77-2,1.45-1.05,2.1-1.63,1-1.59,1.62-2.17,1.88-.57,2.54-1.15,1.22-1.3,1.87-1.88,1.48-1,2.13-1.6,1.31-1.22,2-1.79.81-1.78,1.47-2.36,1.42-1.09,2.08-1.66,1.41-1.1,2.06-1.67,1.37-1.15,2-1.72,1.59-.89,2.25-1.46,1.44-1.06,2.09-1.63,1-1.63,1.61-2.19,1.5-1,2.15-1.57,1.58-.91,2.24-1.46,1.25-1.3,1.9-1.86,1.22-1.34,1.88-1.89,1.23-1.34,1.89-1.88,1.73-.75,2.38-1.29,1.08-1.54,1.73-2.07,1.54-1,2.18-1.52,1.75-.74,2.39-1.25,1.23-1.41,1.87-1.91,1.36-1.29,2-1.76c.84-.65,1.79-.84,2.36-1.26,1.55-1.13.81-1.13,1.93-1.83"/><path class="cls-3" d="M255.33,546c-1.14,1-2.26,2.14-3.35,3.27s-2.6,1.88-3.61,3.08-1,3.19-2,4.45-2.48,2-3.37,3.34S241.8,563,241,564.34s-1.79,2.55-2.56,3.92-.9,3-1.62,4.43-1.63,2.64-2.3,4.07-1.28,2.81-1.91,4.26-2,2.54-2.56,4-1.31,2.84-1.86,4.31-.14,3.26-.65,4.74-.94,3-1.43,4.45-.9,3-1.35,4.47-1.13,2.9-1.55,4.41-1.41,2.85-1.81,4.36-.33,3.13-.7,4.66-.28,3.13-.63,4.65-.72,3-1,4.56-.67,3-1,4.57-1.83,2.82-2.12,4.36.31,3.23,0,4.77-.89,3-1.16,4.55-.44,3.09-.68,4.64-1.12,3-1.35,4.53.31,3.21.09,4.75-1.1,3-1.31,4.55-.2,3.13-.39,4.68-.12,3.14-.31,4.69-.57,3.08-.74,4.63.23,3.17.07,4.72-.87,3.06-1,4.61.14,3.15,0,4.7.07,3.15-.07,4.7-1,3.06-1.17,4.6-.78,3.09-.91,4.63.53,3.19.41,4.74-.85,3.08-1,4.63.46,3.18.35,4.73-1,3.08-1.07,4.62.46,3.19.36,4.73.3,3.17.2,4.71-1.4,3.07-1.5,4.6,1.2,3.23,1.1,4.77-1,3.09-1.07,4.62.4,3.19.3,4.72-.73,3.12-.84,4.64.21,3.19.09,4.7-.27,3.17-.41,4.67-.83,3.13-1,4.61c-.18,1.65-1,3.11-1.17,4.56-.23,1.68,0,3.28-.28,4.68a44.69,44.69,0,0,1-1,4.54,8,8,0,0,1-2.17,3.88c-1.2,1-2.15,2.37-3.28,3.43s-2.76,1.74-3.86,2.85-2,2.54-3,3.7-1.7,2.73-2.69,3.93-1.83,2.57-2.77,3.82-2.74,1.94-3.63,3.24-1.59,2.76-2.42,4.1-1.91,2.56-2.68,4-.85,3.13-1.55,4.55-2,2.54-2.68,4-.61,3.16-1.2,4.64-1.31,2.87-1.84,4.37-1.36,2.86-1.85,4.39-.76,3.06-1.2,4.59-.56,3.1-1,4.65-.87,3-1.24,4.58-1.05,3-1.39,4.54-.64,3.07-1,4.64.21,3.24-.08,4.81-1.35,2.95-1.62,4.53.16,3.2-.1,4.79"/><path class="cls-3" d="M212.18,875.62c1-1.47,1.37-1.21,2.34-2.67s.35-1.88,1.31-3.35,1.61-1,2.58-2.51.39-1.85,1.36-3.32.79-1.58,1.76-3,.62-1.7,1.59-3.16,1.21-1.32,2.17-2.79,1.52-1.1,2.49-2.57.73-1.62,1.7-3.09.42-1.83,1.39-3.3,1.23-1.3,2.19-2.77,1.68-1,2.65-2.47.45-1.8,1.42-3.27,1.45-1.14,2.42-2.61.45-1.81,1.42-3.28.56-1.74,1.52-3.21,2-.79,3-2.26.11-2,1.08-3.5,1.16-1.35,2.13-2.82,1-1.44,2-2.91,1.68-1,2.65-2.47.75-1.62,1.71-3.09.06-2.07,1-3.54,1.77-.94,2.74-2.41.34-1.88,1.31-3.35,1.38-1.2,2.35-2.68.36-1.86,1.33-3.34,2.12-.72,3.09-2.19.22-2,1.19-3.44"/><path class="cls-3" d="M338.15,177.9a39.42,39.42,0,0,0-3.46,1.92c-1,.55-2.12,1.25-3.39,2-1.05.65-2.34,1.1-3.5,1.89s-2.37,1.18-3.46,2-1.53,2.29-2.55,3.16-1.92,1.77-2.87,2.7-1.83,1.86-2.68,2.86-2.19,1.67-2.92,2.75a27.63,27.63,0,0,0-1.9,3.5"/><path class="cls-3" d="M255.47,200c2.14-.14,1.68-.43,4.3-.4,1.24,0,2.7.24,4.29.35,1.35.08,2.71,1,4.19,1.15s2.89-.21,4.32.08,2.85.46,4.22.87a31.78,31.78,0,0,1,4,1.57,23,23,0,0,1,4,1.79"/><path class="cls-3" d="M310.71,233.72c1.75,1.26,2.1.78,3.85,2s1.78,1.22,3.53,2.48,1.11,2.15,2.87,3.42,2.05.85,3.8,2.11"/><path class="cls-3" d="M300,242.59c1.82,1.37,1.85,1.33,3.67,2.71s2.26.8,4.08,2.18,1.61,1.67,3.43,3.06,1.45,1.87,3.28,3.25"/><path class="cls-7" d="M345.45,209.22c.72-1.05.63-1.11,1.35-2.15s.53-1.19,1.25-2.23.71-1.06,1.43-2.1.9-.93,1.62-2,.49-1.21,1.21-2.26.65-1.09,1.38-2.14"/><path class="cls-7" d="M337.49,212.37c.54-1.14.44-1.19,1-2.33s.34-1.25.89-2.4.54-1.15,1.09-2.29.74-1.06,1.29-2.2.29-1.27.85-2.42.47-1.18,1-2.33"/><path class="cls-7" d="M329.54,216.63c.38-1.21.27-1.24.65-2.46s.15-1.28.52-2.49.36-1.22.73-2.44.58-1.15,1-2.37.1-1.3.47-2.51.3-1.24.68-2.46"/><path class="cls-3" d="M447.38,275.72c-1.41-.16-2.71-1.07-4.1-1.24s-2.89.41-4.27.23-2.7-1.14-4.08-1.34-2.88.17-4.25-.06-2.61-1.43-4-1.69-2.89.08-4.25-.22-2.81-.38-4.16-.73-2.75-.71-4.08-1.11-2.48-1.5-3.8-2-2.78-.57-4.08-1.1-2.82-.61-4.09-1.21-1.93-2.39-3.17-3.07-2.56-1.1-3.77-1.84-2.59-1.14-3.75-1.95-2-2-3.1-2.88-2.65-1.18-3.71-2.13-2.18-1.78-3.2-2.78-1.05-2.84-2-3.9-2.2-1.74-3.11-2.84-1.43-2.39-2.29-3.53-1.86-2.07-2.68-3.24-2-2-2.79-3.19-1.46-2.37-2.2-3.6-1.21-2.51-1.91-3.76-.94-2.64-1.61-3.91-1.42-2.38-2.06-3.67-1.19-2.5-1.79-3.79-1.34-2.45-1.91-3.76-1.21-2.51-1.75-3.83-1.23-2.51-1.75-3.83-1-2.62-1.46-4-.47-2.79-.95-4.13-1.08-2.57-1.55-3.92-1.77-2.35-2.21-3.71.1-3-.33-4.32-1.65-2.41-2.06-3.78,0-2.87-.36-4.16-1.6-2.37-2-3.66-.58-2.69-1-4-1-2.56-1.39-3.85-.93-2.58-1.32-3.86.26-2.95-.14-4.23-1.33-2.45-1.73-3.74-1.4-2.43-1.8-3.71-.28-2.79-.69-4.06-.69-2.66-1.11-3.93-.55-2.72-1-4-1.71-2.31-2.15-3.57-1.24-2.47-1.7-3.72-.81-2.62-1.3-3.86-.84-2.62-1.36-3.84-1.33-2.42-1.87-3.62-.8-2.66-1.39-3.84-.38-2.93-1-4.08-2.42-1.79-3.12-2.9-1.58-2.22-2.36-3.28-1-2.71-1.88-3.7a39.35,39.35,0,0,0-2.73-3.08,30.56,30.56,0,0,0-3.12-2.75c-1.14-.77-2.68-.93-3.9-1.5A25.83,25.83,0,0,0,301,91.42a23.1,23.1,0,0,0-4.2-.93c-1.54-.12-2.83,1.16-4.1,1.42-1.46.31-3.26-.39-4.39.34S286.9,94.92,286,96a16.53,16.53,0,0,0-2.27,3.4,25,25,0,0,0-1.45,3.9,36.2,36.2,0,0,0-1.31,4c-.23,1.44.25,2.91.15,4.24-.1,1.55-1.12,3-1.11,4.18,0,2.53.29,2.12.5,4.21"/><path class="cls-3" d="M188.79,329c.45-2.45.89-2.37,1.34-4.82s.39-2.47.84-4.92-.71-2.66-.26-5.12.95-2.36,1.4-4.81,1.45-2.27,1.9-4.72-1-2.71-.53-5.17.41-2.46.86-4.92.17-2.72,1.48-4.84c1.21-2,2.07.51,4.31,1.46a5.49,5.49,0,0,1,3.13,2.63,7.83,7.83,0,0,1,1.06,4.16,36.77,36.77,0,0,1,.07,4.55c-.14,1.42.5,3.07.27,4.67s-1.76,2.79-2,4.32.21,3.17-.06,4.65-.75,3.06-1,4.48c-.33,1.66-.89,3.14-1.17,4.44-.57,2.72-.62,2.2-1.13,4.44"/><path class="cls-3" d="M213.33,368.87a7.84,7.84,0,0,0,3.18-1.72c.85-.61,2.29-.9,3.26-1.9.77-.81.59-2.54,1.34-3.63a23,23,0,0,0,1.74-3.1,25.54,25.54,0,0,0,1.28-3.32c.35-1.1,1.57-2,1.82-3.28s-.15-2.42,0-3.7.42-2.35.42-3.63a9,9,0,0,0-.78-3.07,4.08,4.08,0,0,0-1.8-2.21c-.84-.64-1.46-1.37-2.59-1.45a10.51,10.51,0,0,0-3.14.33,16.57,16.57,0,0,0-2.89,1.32,21,21,0,0,0-2.87,1.34,16.5,16.5,0,0,0-5.1,3.88,13.53,13.53,0,0,0-1.65,2.75c-.66,1.16-1.75,2.27-1.47,3.1s1.66.95,3.19,1.14c1,.12,2,.59,3,.64s2.1.26,3.06.25c1.13,0,2.2.22,3.08.18a23.62,23.62,0,0,0,3.05-.38"/><path class="cls-3" d="M512.43,273.12c1.15-.24,2.22-.74,3.35-1s2.3-.4,3.42-.65,2.34-.18,3.47-.42l3.39-.75c1.15-.25,2.13-1.2,3.24-1.45s2.44.19,3.55-.05,2.16-1.1,3.27-1.34,2.42.09,3.52-.15,2.34-.36,3.43-.6l3.4-.73c1.2-.27,2.13-1.41,3.19-1.64,1.23-.27,2.42-.3,3.45-.53,1.3-.28,2.47-.37,3.42-.58a9.33,9.33,0,0,0,2.87-.95"/><path class="cls-3" d="M409.83,299.86c1.29-1.15,1.11-.24,3.13-1.44.81-.48,1.63-1.3,2.84-1.92.91-.46,1.74-1.38,2.91-1.9,1-.43,2-1,3.11-1.5s2.4.06,3.55-.35,2-.91,3.19-1.29,2.21-.42,3.36-.77,2-1.26,3.11-1.58,2.34,0,3.5-.28,2-1.14,3.19-1.42"/><path class="cls-3" d="M546.29,449.77c-1.51-.84-1.92-.1-3.43-.94s-1.4-1-2.91-1.85l-3-1.67c-1.51-.84-1.24-1.33-2.75-2.16s-2,.13-3.56-.7-1.18-1.45-2.69-2.28-1.75-.42-3.26-1.25-1.41-1-2.92-1.84-1.8-.31-3.32-1.15-1.39-1-2.9-1.88-1.53-.81-3-1.64-1.17-1.47-2.68-2.3-1.43-1-2.94-1.81-1.94-.06-3.45-.9-1.54-.78-3.05-1.62-1.53-.8-3.05-1.64-1.4-1-2.91-1.86-1.26-1.29-2.78-2.13-1.71-.47-3.22-1.31-1.71-.47-3.23-1.31-1.5-.85-3-1.69l-3-1.68c-1.51-.83-1-1.79-2.5-2.62s-1.89-.14-3.41-1-1.36-1.1-2.87-1.94-1.55-.78-3.06-1.61-1.24-1.33-2.76-2.16-1.84-.24-3.35-1.08-1.22-1.35-2.73-2.19-1.6-.67-3.11-1.51-1.63-.63-3.14-1.47-1.42-1-2.93-1.83-1.76-.39-3.27-1.23-1.28-1.26-2.79-2.1-1.7-.5-3.22-1.33-1.66-.57-3.17-1.4-1.19-1.43-2.7-2.26-1.29-1.25-2.81-2.08-1.84-.25-3.35-1.08-1.25-1.32-2.76-2.15-1.81-.31-3.33-1.15-1.19-1.41-2.7-2.25-1.8-.32-3.32-1.15-1.73-.45-3.25-1.29-1-1.76-2.52-2.6"/><path class="cls-3" d="M463.16,321.13c-.69,1.19-2.09,2-2.75,3.22s-1.72,2.25-2.34,3.5-.53,2.82-1.09,4.1-1.81,2.26-2.32,3.55-.36,2.84-.81,4.16-.68,2.68-1.08,4-.36,2.75-.7,4.11-.92,2.6-1.2,4-1.16,2.6-1.38,4-.1,2.79-.25,4.18.4,2.79.32,4.19-.43,2.73-.44,4.13-.83,2.78-.77,4.18.76,2.73.88,4.12-.29,2.83-.1,4.22,1,2.63,1.29,4,1,2.59,1.34,4-.52,3-.14,4.34,1.76,2.35,2.21,3.68.67,2.68,1.17,4,.95,2.59,1.5,3.88.32,2.89.92,4.16,1.44,2.39,2.09,3.64,2.24,1.92,2.92,3.16.53,2.87,1.26,4.07,2.07,2,2.83,3.14,1.1,2.58,1.9,3.74,2.16,1.84,3,3,.54,3,1.4,4.16"/><path d="M500.72,425.74c1.65,2.13-1,1.78-3.21,4a35.59,35.59,0,0,1-4.33,3.23c-1.44,1-2.77,2.47-4.47,3.15a16.84,16.84,0,0,1-5.4,1.27c-1.72.07-3.31-1.23-5.12-1.91a15,15,0,0,1-4.79-2.25,26.84,26.84,0,0,1-3.5-3.82,51,51,0,0,1-3.26-4.05c-.93-1.43-2.12-2.78-3-4.31s-1.52-3.18-2.29-4.7-.89-3.53-1.57-5c-.8-1.75-2.06-3.12-2.65-4.51-1.22-2.92-4.46-5.33-1.88-5s2.32,1.26,4.6,2.44,2.47.82,4.76,2,2.2,1.33,4.49,2.51,2.12,1.5,4.4,2.68,2.34,1.08,4.63,2.25,2.33,1.1,4.61,2.28,2.31,1.14,4.59,2.32,2.15,1.46,4.43,2.64,2.05,1.78,4.44,2.72S499.14,423.7,500.72,425.74Z"/><path class="cls-3" d="M500.72,425.74c1.65,2.13-1,1.78-3.21,4a35.59,35.59,0,0,1-4.33,3.23c-1.44,1-2.77,2.47-4.47,3.15a16.84,16.84,0,0,1-5.4,1.27c-1.72.07-3.31-1.23-5.12-1.91a15,15,0,0,1-4.79-2.25,26.84,26.84,0,0,1-3.5-3.82,51,51,0,0,1-3.26-4.05c-.93-1.43-2.12-2.78-3-4.31s-1.52-3.18-2.29-4.7-.89-3.53-1.57-5c-.8-1.75-2.06-3.12-2.65-4.51-1.22-2.92-4.46-5.33-1.88-5s2.32,1.26,4.6,2.44,2.47.82,4.76,2,2.2,1.33,4.49,2.51,2.12,1.5,4.4,2.68,2.34,1.08,4.63,2.25,2.33,1.1,4.61,2.28,2.31,1.14,4.59,2.32,2.15,1.46,4.43,2.64,2.05,1.78,4.44,2.72S499.14,423.7,500.72,425.74Z"/><path class="cls-3" d="M280.3,120c0,1.72.34,1.23.26,3.43,0,1-.48,2.09-.55,3.4-.05,1,.87,2.24.79,3.48-.06,1.07-1.14,2.14-1.23,3.35s1,2.32.92,3.5-1.59,2.12-1.7,3.29.11,2.27,0,3.43.27,2.31.13,3.47-.73,2.19-.89,3.34.65,2.38.48,3.52-1.3,2.11-1.48,3.24.52,2.4.32,3.54-1.13,2.11-1.35,3.24.3,2.39.07,3.51-.89,2.15-1.14,3.27-1.22,2.06-1.5,3.17-.4,2.24-.7,3.35-.48,2.23-.8,3.33-.86,2.12-1.21,3.21-.37,2.28-.74,3.36-1.24,2-1.64,3-.5,2.25-.94,3.3-.56,2.25-1,3.29-1.65,1.74-2.16,2.76-.86,2.11-1.41,3.1-.42,2.41-1,3.37-1.92,1.48-2.57,2.41-1,2.09-1.71,3-1.07,2.11-1.84,2.94-1.47,1.84-2.3,2.61-1.84,1.46-2.75,2.14a34.65,34.65,0,0,1-2.88,1.95c-1,.59-2,1.29-3,1.78s-2.45,0-3.55.4-2,1.5-3.09,1.74-2.4-.74-3.56-.64"/><path class="cls-3" d="M66.49,216.46c.21.83,1.2,1.44,1.43,2.27s.14,1.74.4,2.56.75,1.55,1,2.36.52,1.63.81,2.43.44,1.66.74,2.46.47,1.66.79,2.45,1.07,1.4,1.41,2.19,0,1.87.39,2.65.89,1.47,1.28,2.24.82,1.5,1.23,2.26,1.07,1.36,1.49,2.1.38,1.77.83,2.5,1.1,1.34,1.56,2.06.76,1.55,1.25,2.26,1.24,1.23,1.74,1.92,1.25,1.2,1.78,1.88.8,1.54,1.34,2.21.87,1.5,1.44,2.15,1.22,1.21,1.8,1.85,1.47,1,2.07,1.58,1.08,1.33,1.7,1.93,1.16,1.25,1.8,1.83,1.42,1,2.07,1.54S98,267.48,98.62,268s1.34,1.05,2,1.58,1.14,1.34,1.83,1.85,1.48.89,2.18,1.39,1.56.75,2.28,1.23,1.35,1.05,2.08,1.51,1.72.46,2.46.9,1.43.93,2.18,1.35,1.4,1,2.16,1.41,1.36,1.07,2.13,1.46,1.6.63,2.38,1,1.4,1,2.19,1.4,1.73.39,2.51.72,1.48,1,2.27,1.28,1.59.75,2.39,1,1.82,0,2.63.26,1.66.51,2.48.7,1.76,0,2.59.13,1.66.53,2.5.63,1.69.54,2.54.58,1.75.24,2.59.23,1.74-.21,2.59-.28,1.76,0,2.6-.14,1.73-.3,2.56-.51,1.51-1,2.32-1.29,1.72-.3,2.51-.64,1.7-.48,2.46-.89,1.3-1.19,2-1.66,1.54-.79,2.23-1.31,1.48-.92,2.14-1.49.85-1.6,1.47-2.21,1.57-.86,2.15-1.51.9-1.48,1.45-2.15,1-1.39,1.5-2.1,1.39-1.11,1.88-1.84,1-1.42,1.41-2.17.26-1.82.68-2.58.88-1.45,1.28-2.23,1.27-1.27,1.64-2.06.06-1.85.41-2.65.7-1.54,1-2.35.9-1.47,1.21-2.29,1-1.46,1.26-2.28.64-1.6.92-2.42.38-1.68.64-2.51,0-1.78.27-2.61,1.14-1.46,1.37-2.3-.23-1.83,0-2.67.82-1.56,1-2.4.63-1.62.82-2.47,0-1.75.21-2.59.32-1.68.49-2.53.08-1.73.23-2.58.16-1.71.31-2.56.54-1.65.68-2.5.67-1.63.8-2.49.34-1.68.47-2.54-.25-1.77-.13-2.62.7-1.64.81-2.5-.33-1.77-.23-2.63.14-1.71.23-2.57,0-1.72.06-2.59.77-1.65.85-2.51-.07-1.73,0-2.59,0-1.72.11-2.59.48-1.68.54-2.53,0-1.72.07-2.56-.34-1.75-.29-2.59.89-1.67.95-2.51.16-1.71.21-2.55,0-1.73,0-2.57-.49-1.75-.44-2.59.72-1.68.76-2.52-.19-1.74-.15-2.58.19-1.71.22-2.55.24-1.73.27-2.57-.38-1.74-.36-2.57.16-1.73.18-2.57.36-1.72.37-2.56-.49-1.73-.49-2.57,0-1.72,0-2.56-.05-1.72-.08-2.55,0-1.73,0-2.56.22-1.76.16-2.58-.53-1.7-.61-2.52.14-1.76,0-2.58-.57-1.67-.7-2.48.19-1.82,0-2.62-.46-1.69-.67-2.49-.35-1.73-.62-2.51-1.08-1.45-1.4-2.21-.72-1.56-1.12-2.29-.4-1.78-.86-2.48-1.4-1.1-1.92-1.78-1-1.39-1.55-2-1.09-1.29-1.7-1.91-1.18-1.2-1.8-1.81-1.05-1.33-1.68-1.94-1.18-1.19-1.81-1.8-1.62-1.06-2.25-1.68c.62-1.2,1-1,2-1.93s1.25-.65,2.21-1.59.9-1,1.86-2,.63-1.29,1.6-2.24,1.11-.8,2.07-1.75.81-1.11,1.77-2.06,1.51-.4,2.47-1.36.7-1.22,1.67-2.17"/><path class="cls-3" d="M162.43,186.26a3,3,0,0,1,.92-2.47c.45-.56,1.45-.61,2.38-1a6.56,6.56,0,0,1,2.31-1,15.31,15.31,0,0,1,2.55.3c.76.07,1.64-.08,2.57,0s1.65.21,2.55.32,1.72-.13,2.59,0,1.66.4,2.53.52,1.6.82,2.46.94,1.76-.21,2.61-.09,1.69.32,2.53.44,1.68.53,2.51.65,1.83-.49,2.65-.37,1.68.69,2.48.8,1.8.14,2.57.25c1,.15,1.78.82,2.46.92a10.94,10.94,0,0,1,2.68.32,6.09,6.09,0,0,1,2.12,1.62,6.28,6.28,0,0,1,1.27,2.31,10.86,10.86,0,0,1,.51,2.63,18.29,18.29,0,0,1,.29,2.73c-.05.84-.4,1.72-.54,2.7s0,1.83-.09,2.7-.32,1.78-.44,2.64-.23,1.8-.34,2.67,0,1.82-.14,2.68-.5,1.76-.61,2.63.27,1.86.16,2.72-.49,1.77-.6,2.63-.18,1.8-.28,2.66a15.77,15.77,0,0,1-.28,2.68c-.33.92-1.46,1.28-2,1.89s-.89,1.68-1.68,2a9.05,9.05,0,0,1-2.63.43,15.43,15.43,0,0,1-2.63.37c-.83,0-1.68-.51-2.58-.64s-1.77.17-2.66,0-1.57-.6-2.47-.75-1.69,0-2.57-.2-1.58-.78-2.44-.93-1.74,0-2.59-.11-1.71-.17-2.55-.31-1.62-.8-2.45-.94-1.78.09-2.6,0-1.66-.73-2.46-.87-1.8-.09-2.57-.22c-1-.18-1.92.07-2.59-.07a16.37,16.37,0,0,1-2.43-1A11,11,0,0,1,160.8,220c-.75-.5-1.9-.57-2.41-1.24s-.39-1.75-.59-2.63a6.68,6.68,0,0,1,.15-2.48"/><path class="cls-3" d="M76.25,172.29a9.08,9.08,0,0,0-1.43-2.18c-.46-.57-1.38-.93-2.06-1.61a23.26,23.26,0,0,0-2-1.6c-.63-.49-1.47-.72-2.23-1.19s-1.15-1.35-2-1.71a19.5,19.5,0,0,0-2.48-.65,20.52,20.52,0,0,0-2.48-.5,21.25,21.25,0,0,0-2.5-.64c-.82,0-1.67.25-2.55.3s-1.61.39-2.48.53a25,25,0,0,0-2.59,0,20.46,20.46,0,0,0-2.3,1.13c-.81.31-1.82.16-2.55.55a19.79,19.79,0,0,0-2,1.58,20.26,20.26,0,0,0-2.18,1.4,19.66,19.66,0,0,0-1.78,1.87,21.13,21.13,0,0,0-1.45,2.14c-.45.71-.41,1.71-.79,2.47s-1.25,1.3-1.55,2.1-.19,1.73-.42,2.56-.48,1.61-.64,2.45-.16,1.68-.26,2.53,0,1.68-.08,2.53,0,1.68,0,2.53-.44,1.73-.35,2.58.26,1.69.41,2.53.72,1.58.92,2.4.5,1.61.76,2.41.52,1.61.85,2.39a24.9,24.9,0,0,0,1.18,2.23c.41.75.76,1.51,1.22,2.2a22.68,22.68,0,0,0,1.42,2.1,21.65,21.65,0,0,0,1.52,2.07,17.73,17.73,0,0,0,2.19,1.36c.73.5,1.52.83,2.21,1.26s1.49.85,2.2,1.24,1.42,1,2.15,1.38,1.66.52,2.41.8,1.67.45,2.43.65a19.6,19.6,0,0,0,2.46.45,21.82,21.82,0,0,0,2.47.55,14.89,14.89,0,0,0,2.55-.12c1.58-.35,1.15-.5,2.19-1.23"/><path class="cls-3" d="M168.08,82.56c-.74,1.08-.23.9-1.24,2.34-.42.59-1.2,1.11-1.79,1.95-.46.64-.52,1.67-1.08,2.46s-1.14,1.26-1.68,2-1.35,1.13-1.89,1.88-.73,1.58-1.27,2.33-.68,1.63-1.22,2.36-1.7.89-2.23,1.63-.78,1.57-1.31,2.3L152.82,104c-.5.69-1.2,1.27-1.73,2s-.8,1.56-1.33,2.28-.73,1.62-1.27,2.33-1.51,1-2,1.76-.93,1.48-1.46,2.19-.88,1.52-1.41,2.23-.79,1.59-1.32,2.3-1.57,1-2.1,1.73-1,1.43-1.53,2.15-.75,1.61-1.29,2.32-1,1.46-1.5,2.17-1,1.43-1.53,2.14l-1.61,2.1c-.52.69-1.55,1-2.09,1.72s-.44,1.86-1,2.57-1.57,1-2.11,1.71-.64,1.72-1.18,2.43S125,141.3,124.45,142s-1.16,1.34-1.77,2-1.2,1.32-1.85,1.91-1.3,1.22-2,1.77-1.69.7-2.41,1.2-1.12,1.54-1.87,2-1.92.2-2.7.59-1.51.91-2.32,1.25-1.64.61-2.47.9-1.65.6-2.5.82-1.67.59-2.54.75-1.74.36-2.61.45-1.77.13-2.65.15-1.79.41-2.67.37-1.73-.57-2.61-.69-1.71-.4-2.58-.59-1.8-.08-2.64-.33-1.54-.93-2.36-1.26-1.77-.35-2.57-.74-1.72-.57-2.48-1"/><path d="M186.63,103.65c1.12-.58.67.23,2,1.16.58.41,1,1.25,1.73,1.85s1.71.46,2.39,1.07.72,1.6,1.35,2.22,1.14,1.14,1.74,1.78,1.74.66,2.3,1.32.82,1.48,1.35,2.16.61,1.6,1.11,2.3,1.49,1,2,1.71.38,1.72.8,2.46.74,1.48,1.13,2.24,1.36,1.19,1.71,2a22.54,22.54,0,0,1,.94,2.45c.27.81,0,1.8.14,2.64s.43,1.65.56,2.51.76,1.65.83,2.51-.44,1.75-.42,2.61.36,1.73.33,2.59-.38,1.71-.44,2.56-.51,1.68-.61,2.53,0,1.74-.12,2.58.29,1.82.13,2.65-1.13,1.55-1.32,2.36-.37,1.71-.57,2.51-.22,1.78-.44,2.54c-.27.94-.14,1.88-.36,2.58-.49,1.54.27,2.09-1,2a3.52,3.52,0,0,1-2.13-.56c-1-.56-1.08-.41-2.07-1s-.77-.95-1.77-1.52-1.08-.37-1.84-1.23,0-.81.15-2.44c.06-.75.35-1.62.4-2.61,0-.81-.24-1.71-.23-2.64s-.23-1.72-.24-2.63.44-1.75.39-2.64-.14-1.76-.22-2.64-.65-1.69-.78-2.55-.47-1.69-.65-2.54.3-1.91,0-2.73a22,22,0,0,0-1-2.48c-.37-.83-1.24-1.36-1.72-2.05s-.9-1.51-1.43-2.24-1.14-1.35-1.68-2.06-1.25-1.28-1.8-2-.82-1.62-1.38-2.3-1.32-1.24-1.87-1.9-.85-1.66-1.4-2.3-1.37-1.25-1.92-1.87-1.49-1.2-2-1.77c-1.11-1.23-2.35-1.16-1.8-2.37s1.08-.93,2-1.85.78-1.07,1.71-2,1.1-.74,2-1.66,1.21-.65,2.11-1.6S185.47,104.25,186.63,103.65Z"/><path class="cls-3" d="M186.63,103.65c1.12-.58.67.23,2,1.16.58.41,1,1.25,1.73,1.85s1.71.46,2.39,1.07.72,1.6,1.35,2.22,1.14,1.14,1.74,1.78,1.74.66,2.3,1.32.82,1.48,1.35,2.16.61,1.6,1.11,2.3,1.49,1,2,1.71.38,1.72.8,2.46.74,1.48,1.13,2.24,1.36,1.19,1.71,2a22.54,22.54,0,0,1,.94,2.45c.27.81,0,1.8.14,2.64s.43,1.65.56,2.51.76,1.65.83,2.51-.44,1.75-.42,2.61.36,1.73.33,2.59-.38,1.71-.44,2.56-.51,1.68-.61,2.53,0,1.74-.12,2.58.29,1.82.13,2.65-1.13,1.55-1.32,2.36-.37,1.71-.57,2.51-.22,1.78-.44,2.54c-.27.94-.14,1.88-.36,2.58-.49,1.54.27,2.09-1,2a3.52,3.52,0,0,1-2.13-.56c-1-.56-1.08-.41-2.07-1s-.77-.95-1.77-1.52-1.08-.37-1.84-1.23,0-.81.15-2.44c.06-.75.35-1.62.4-2.61,0-.81-.24-1.71-.23-2.64s-.23-1.72-.24-2.63.44-1.75.39-2.64-.14-1.76-.22-2.64-.65-1.69-.78-2.55-.47-1.69-.65-2.54.3-1.91,0-2.73a22,22,0,0,0-1-2.48c-.37-.83-1.24-1.36-1.72-2.05s-.9-1.51-1.43-2.24-1.14-1.35-1.68-2.06-1.25-1.28-1.8-2-.82-1.62-1.38-2.3-1.32-1.24-1.87-1.9-.85-1.66-1.4-2.3-1.37-1.25-1.92-1.87-1.49-1.2-2-1.77c-1.11-1.23-2.35-1.16-1.8-2.37s1.08-.93,2-1.85.78-1.07,1.71-2,1.1-.74,2-1.66,1.21-.65,2.11-1.6S185.47,104.25,186.63,103.65Z"/><path class="cls-3" d="M162.59,163.55c.83,1,.91.48,2,1.56.53.49,1.16,1.06,1.9,1.66s1.3,1,2,1.5,1.45.77,2.2,1.23,1.16,1.33,1.93,1.72,1.7.29,2.5.62,1.34,1.24,2.16,1.49a22.46,22.46,0,0,0,2.52.49c.82.16,1.73-.32,2.58-.26a18.73,18.73,0,0,0,2.5.24,20.09,20.09,0,0,0,2.58.19c.81-.14,1.45-1.06,2.28-1.31s1.83.16,2.62-.19,1.49-.81,2.25-1.24,1.15-1.27,1.87-1.77,1.76-.44,2.43-1"/><path class="cls-3" d="M153.79,202.09c.44,1.27.31,1,.87,2.55.26.72.71,1.53,1.05,2.48.28.78.52,1.65.84,2.55s.42,1.73.73,2.6,1.07,1.51,1.38,2.37.08,1.87.39,2.72.64,1.68.95,2.52.87,1.62,1.17,2.45.56,1.73.87,2.55.79,1.67,1.09,2.47.63,1.77.92,2.54c.38,1,.83,1.8,1.09,2.45a9.58,9.58,0,0,1,.49,2.66,6.85,6.85,0,0,1-.08,2.72c-.28.8-1.16,1.32-1.78,2a11.94,11.94,0,0,1-2,1.73c-.66.49-1.08,1.48-1.9,2s-1.71.47-2.55.89-1.65.53-2.49.92"/><path class="cls-3" d="M166.09,261c-1.09-.67-1.37-.23-2.45-.9s-1-.78-2.11-1.45-1.16-.56-2.25-1.23-1.14-.6-2.23-1.27-.72-1.26-1.81-1.93-1.27-.38-2.36-1.05-1.29-.34-2.38-1-.9-1-2-1.65-1-.76-2.13-1.43-1-.85-2.07-1.52-1.37-.21-2.46-.88-1.2-.5-2.29-1.17-1-.76-2.13-1.43-1-.77-2.12-1.44-1.19-.52-2.28-1.19-1-.88-2.05-1.55-.78-1.19-1.87-1.86-1.49,0-2.58-.69-1.14-.61-2.23-1.29-.69-1.56-2-1.81c-.13.88-.54,1.84-.62,2.68s-.32,1.76-.36,2.6.33,1.78.34,2.62-.11,1.78,0,2.61.09,1.79.22,2.61,1.06,1.58,1.26,2.39-.34,1.94-.06,2.74,1.36,1.33,1.72,2.1a24.65,24.65,0,0,0,1.1,2.31,22.12,22.12,0,0,0,1.43,2.14,24.64,24.64,0,0,0,1.48,2.15,24.11,24.11,0,0,0,2.15,1.48c.67.57,1,1.58,1.69,2.06s1.59.79,2.33,1.21,1.61.68,2.39,1,1.5.95,2.3,1.25,1.68.56,2.48.8,1.85-.11,2.66.07,1.64.92,2.44,1.05c1,.15,1.85.2,2.58.27,1.6.15,1.3.47,2.59.47"/><path class="cls-3" d="M65.13,202c-.7-1.08-.46-1.24-1.17-2.32s-1.11-.82-1.81-1.91-.79-1-1.5-2.11,0-1.51-.76-2.59-1-.92-1.66-2-.5-1.23-1.21-2.31-.84-1-1.54-2.08-1-.91-1.7-2-.69-1.1-1.39-2.18-.59-1.16-1.3-2.25S50.62,179,49.92,178s-.8-1-1.51-2.11-.7-1.09-1.4-2.17-.82-1-1.52-2.11-.77-1-1.48-2.13-.8-1-1.5-2.12-.68-1.11-1.39-2.19-.43-1.27-1.14-2.36"/><path class="cls-3" d="M147.37,88.54c-.82-.15-1.7-.08-2.55-.24s-1.69-.12-2.54-.27-1.6-.64-2.44-.8l-2.51-.44c-.83-.15-1.7-.11-2.54-.26s-1.65-.4-2.49-.54-1.65-.44-2.49-.57-1.68-.29-2.52-.41-1.71,0-2.56-.15-1.61-.76-2.46-.86-1.75.32-2.59.23-1.67-.4-2.52-.47-1.69-.25-2.54-.3-1.7-.26-2.54-.3-1.72,0-2.56,0-1.71.63-2.56.64-1.7-.2-2.55-.17-1.69.06-2.54.12-1.66.41-2.51.5-1.74-.25-2.58-.12-1.73,0-2.56.17-1.68.36-2.5.56-1.49,1-2.31,1.26-1.7.21-2.51.48-1.85,0-2.65.35-1.36,1.37-2.14,1.7-1.6.71-2.38,1.06-1.72.47-2.48.85-1.78.43-2.52.85-1.52.93-2.24,1.38-1.46,1-2.16,1.5S69,95.49,68.33,96s-1.09,1.46-1.72,2-1.82.65-2.41,1.23-1,1.56-1.53,2.17-1.25,1.3-1.75,1.94-1.21,1.38-1.65,2c-.55.84-1.08,1.57-1.43,2.21-.79,1.47.34,3-.78,2.35s-.61-1.15-1.46-2.16-1.44-.53-2.29-1.55-.66-1.17-1.51-2.19-1-.85-1.89-1.87-.49-1.32-1.34-2.34-1.21-.72-2.06-1.74"/><path class="cls-3" d="M39.65,163c-.8-1-.26-1.05-1.1-2.41a22.8,22.8,0,0,1-1.61-2.1c-.38-.74-.4-1.69-.75-2.54a25.68,25.68,0,0,1-.78-2.48,20.53,20.53,0,0,1-.58-2.52c-.14-.86-.79-1.66-.8-2.55a14.71,14.71,0,0,1,.35-2.62,12.1,12.1,0,0,1,.82-2.49,12.75,12.75,0,0,1,.88-2.54,17.47,17.47,0,0,1,2.08-2c-1-.76-1.45.17-2.66-.17l-2.44-.69c-1.22-.34-1.15-.57-2.37-.91s-1.21-.39-2.43-.73-1.1-.77-2.32-1.11-1.43.41-2.66.07"/><path class="cls-3" d="M50.1,119.36c-.92-.85-1.19-.55-2.11-1.4s-.65-1.14-1.58-2-1.17-.56-2.1-1.41-.85-.92-1.77-1.77-.8-1-1.72-1.82-1-.77-1.92-1.62-1-.73-2-1.57-.89-.89-1.82-1.73"/><path class="cls-3" d="M44.14,130.34c-1.11-.76-1.25-.56-2.36-1.32s-1.12-.74-2.23-1.5-1-.85-2.16-1.61-1.22-.6-2.33-1.36-.91-1.06-2-1.82-1.22-.6-2.33-1.36-1.28-.52-2.4-1.28-1.17-.67-2.28-1.43"/><path class="cls-3" d="M112,115.81c-1.06.69-1.28.35-2.35,1s-.86,1-1.92,1.69-.91.92-2,1.61-1.42.13-2.48.82-.65,1.33-1.72,2-1.29.34-2.35,1-.89,1-2,1.66-1.22.46-2.29,1.15-.93.9-2,1.59"/><path d="M100.56,269.73a6.27,6.27,0,0,1-.44,2.54c-.4,1.24-.74,1.13-1.15,2.38s0,1.37-.44,2.62-.11,1.34-.52,2.59-1.13,1-1.53,2.27.2,1.45-.2,2.7-.54,1.21-1,2.46,0,1.48-.85,2.52-.81-.71-2.31-1.46a20.51,20.51,0,0,1-2.35-1.14c-.68-.42-1.81-.37-2.57-.95s-1-1.52-1.67-2.14-1.59-.83-2.24-1.5-1-1.47-1.55-2.17-1.46-1.07-2-1.81-.31-1.89-.8-2.66-1.4-1.17-1.85-2-.54-1.68-.95-2.49-.73-1.57-1.09-2.41-.92-1.5-1.25-2.34-.26-1.79-.52-2.64-1-1.56-1.23-2.41-.18-1.8-.35-2.66,0-1.81-.09-2.68-.75-1.71-.83-2.58,0-1.8,0-2.67-.07-1.8-.07-2.67.35-1.79.38-2.65-.61-1.85-.55-2.7.58-1.79.67-2.63-.08-1.88,0-2.69c.15-1,.42-1.87.56-2.61.31-1.65-.79-2.8.53-3s.52,1.18,1.17,2.78c.27.68.62,1.47,1.06,2.39.33.71.32,1.7.77,2.55s.72,1.54,1.19,2.35,1.34,1.19,1.83,2,1,1.42,1.46,2.17,1,1.4,1.52,2.14.9,1.46,1.45,2.18.8,1.57,1.37,2.28,1.29,1.17,1.88,1.86,1.32,1.14,1.91,1.81,1.15,1.29,1.76,1.95,1.18,1.26,1.8,1.9.74,1.71,1.37,2.34,1.6.86,2.25,1.48,1.13,1.33,1.79,1.93,1.32,1.14,2,1.73S99.87,269.16,100.56,269.73Z"/><path class="cls-3" d="M100.56,269.73a6.27,6.27,0,0,1-.44,2.54c-.4,1.24-.74,1.13-1.15,2.38s0,1.37-.44,2.62-.11,1.34-.52,2.59-1.13,1-1.53,2.27.2,1.45-.2,2.7-.54,1.21-1,2.46,0,1.48-.85,2.52-.81-.71-2.31-1.46a20.51,20.51,0,0,1-2.35-1.14c-.68-.42-1.81-.37-2.57-.95s-1-1.52-1.67-2.14-1.59-.83-2.24-1.5-1-1.47-1.55-2.17-1.46-1.07-2-1.81-.31-1.89-.8-2.66-1.4-1.17-1.85-2-.54-1.68-.95-2.49-.73-1.57-1.09-2.41-.92-1.5-1.25-2.34-.26-1.79-.52-2.64-1-1.56-1.23-2.41-.18-1.8-.35-2.66,0-1.81-.09-2.68-.75-1.71-.83-2.58,0-1.8,0-2.67-.07-1.8-.07-2.67.35-1.79.38-2.65-.61-1.85-.55-2.7.58-1.79.67-2.63-.08-1.88,0-2.69c.15-1,.42-1.87.56-2.61.31-1.65-.79-2.8.53-3s.52,1.18,1.17,2.78c.27.68.62,1.47,1.06,2.39.33.71.32,1.7.77,2.55s.72,1.54,1.19,2.35,1.34,1.19,1.83,2,1,1.42,1.46,2.17,1,1.4,1.52,2.14.9,1.46,1.45,2.18.8,1.57,1.37,2.28,1.29,1.17,1.88,1.86,1.32,1.14,1.91,1.81,1.15,1.29,1.76,1.95,1.18,1.26,1.8,1.9.74,1.71,1.37,2.34,1.6.86,2.25,1.48,1.13,1.33,1.79,1.93,1.32,1.14,2,1.73S99.87,269.16,100.56,269.73Z"/><path class="cls-3" d="M88.15,145.69c-.15,1.27.34,1.33.19,2.6s-.67,1.21-.82,2.48-.45,1.24-.61,2.51.31,1.33.16,2.6-.63,1.21-.79,2.48.28,1.32.12,2.59,0,1.29-.17,2.56.1,1.31,0,2.58-.34,1.25-.49,2.52-.56,1.23-.72,2.5,0,1.3-.13,2.57"/><path class="cls-3" d="M108.46,188c1.19.47,1.28.23,2.47.7s1.16.56,2.35,1,1.11.68,2.3,1.15,1.22.4,2.41.87,1.21.41,2.4.87,1.2.45,2.39.91,1.12.66,2.32,1.13,1.1.69,2.3,1.16,1.39,0,2.58.42,1.21.44,2.41.91l2.38.94"/><path class="cls-3" d="M192.31,196.48c-1.24.32-1.17.62-2.41.94s-1.28.13-2.52.45-1.15.68-2.39,1-1.23.35-2.47.67-1.41-.35-2.65,0-1.16.62-2.4.94-1.27.22-2.51.54-1.2.48-2.44.8-1.19.51-2.43.83-1.27.21-2.52.53-1.36-.14-2.6.18"/><path class="cls-7" d="M123.72,204.51c.17,1.25.28,1.24.46,2.49s.41,1.22.58,2.48.19,1.25.37,2.5,0,1.29.14,2.54.46,1.22.63,2.47.26,1.25.43,2.5,0,1.28.19,2.54-.16,1.3,0,2.56.21,1.26.39,2.51"/><path class="cls-7" d="M116.13,225.19c-.17-1.26-.28-1.24-.46-2.5s-.41-1.22-.58-2.48-.19-1.25-.37-2.5,0-1.29-.14-2.54-.46-1.22-.63-2.47-.26-1.25-.43-2.5,0-1.28-.19-2.54.16-1.31,0-2.56-.21-1.26-.39-2.51"/><path class="cls-7" d="M101.34,201c.18,1.25.29,1.23.46,2.49s.41,1.22.59,2.48.19,1.25.36,2.5,0,1.29.15,2.54.45,1.22.63,2.47.25,1.25.43,2.5,0,1.28.19,2.54-.16,1.3,0,2.56.21,1.26.38,2.52"/><path class="cls-3" d="M92.1,203.24a6.53,6.53,0,0,0,.11,2.62c.34.76,1.33,1.14,1.93,1.79a11.29,11.29,0,0,0,1.67,1.93A17.43,17.43,0,0,0,97.94,211c.77.38,1.83.05,2.62.33s1.46,1.23,2.25,1.4c.6.12,1.43.33,2.46.52.73.14,1.69-.43,2.6-.26s1.49.85,2.36,1,1.67,0,2.52.13,1.61.42,2.45.56,1.6.5,2.43.65,1.62.45,2.44.59,1.77-.33,2.59-.19,1.6.63,2.42.77,1.66.34,2.46.48,1.72.08,2.51.22l2.47.41c.93.17,1.75.36,2.46.49a23.56,23.56,0,0,0,2.45.49,10.49,10.49,0,0,0,2.48-.32,6.27,6.27,0,0,0,2.25-1,5.48,5.48,0,0,0,1.86-1.57,8.11,8.11,0,0,0,1.13-2.24,15,15,0,0,0,.26-2.48,23.79,23.79,0,0,0,.36-2.48c0-.83-.5-1.63-.51-2.44s-.07-1.62-.08-2.44.3-1.61.3-2.44.31-1.6.31-2.44-.18-1.6-.18-2.44.25-1.6.25-2.45-.15-1.6-.14-2.45-.57-1.6-.56-2.45a18.14,18.14,0,0,0-.07-2.69,14.23,14.23,0,0,0-.65-2.61c-.31-.9-.15-2-.61-2.74a17.75,17.75,0,0,0-4.07-3.74,13.09,13.09,0,0,0-2.63-.79,13.69,13.69,0,0,0-2.61-.51c-.86-.13-1.66-.84-2.56-1s-1.83.15-2.72,0-1.69-.78-2.59-.91-1.78-.2-2.67-.32-1.8-.09-2.68-.22-1.83.07-2.72-.06-1.69-.92-2.56-1.05-1.82-.09-2.69-.22-1.87.18-2.73,0-1.71-.87-2.55-1-1.93.3-2.75.16-1.83-.33-2.67-.4a18.13,18.13,0,0,0-2.68,0c-1,.06-2-.34-2.78-.11a8.72,8.72,0,0,0-2.56,1.16c-.76.54-.93,1.64-1.4,2.41a7.31,7.31,0,0,0-1,2.41,11,11,0,0,0-.45,2.65c0,.94.26,1.81.27,2.63s-.47,1.82-.46,2.64-.06,1.81,0,2.64.55,1.77.57,2.62-.08,1.74-.06,2.63.34,1.7.35,2.62-.5,1.69-.5,2.63.56,1.69.56,2.63S92.1,202.3,92.1,203.24Z"/><path class="cls-3" d="M115.42,301.16c-.91,1-.36,1.13-1.64,2.22-.59.51-1.53.8-2.36,1.4s-1.37,1.11-2.21,1.6-1.6.78-2.45,1.18a23.18,23.18,0,0,1-2.44,1.23,22.41,22.41,0,0,1-2.57,1.07c-.87.19-1.89-.34-2.81-.26a18.81,18.81,0,0,1-2.72.44,20.13,20.13,0,0,1-2.66-.75,18.84,18.84,0,0,1-2.65-.58,20.92,20.92,0,0,1-2.7-.68c-.78-.4-1.23-1.46-2-2s-1.63-.77-2.37-1.36-1.67-.83-2.35-1.49-.68-1.84-1.32-2.54-1.74-.86-2.33-1.6-1.08-1.45-1.63-2.21-1.14-1.43-1.67-2.16-1-1.57-1.47-2.3-1-1.52-1.53-2.25-1.24-1.36-1.76-2.08-.63-1.8-1.15-2.53-1.54-1.15-2.06-1.87-.53-1.87-1-2.6-1.46-1.2-2-1.93-.61-1.81-1.13-2.53-1.35-1.28-1.87-2-.91-1.59-1.43-2.32-1.5-1.17-2-1.89-.4-2-.92-2.7-1.2-1.4-1.72-2.12-.89-1.62-1.4-2.34-1.11-1.47-1.62-2.19-1.72-1-2.23-1.74-1-1.58-1.48-2.28-1-1.57-1.49-2.28-1.05-1.54-1.55-2.23-.78-1.74-1.27-2.43-1-1.63-1.46-2.29c-.61-.87-1.63-1.25-2.07-1.86-1-1.49-.61-1.22-1.39-2.33"/><path class="cls-3" d="M183.14,87.41c-.78,1.06-1.27.69-2,1.74s-.47,1.29-1.25,2.34-1.07.84-1.85,1.89-.65,1.15-1.43,2.2-.67,1.14-1.45,2.19-1.08.84-1.86,1.89-.51,1.26-1.29,2.31-1.15.78-1.93,1.84-.28,1.43-1.06,2.49"/><path class="cls-3" d="M177.27,265.8c1.72.36,1.74.26,3.46.62s1.71.38,3.43.73,1.51,1.35,3.23,1.7,2-.84,3.68-.48,1.51,1.37,3.23,1.73,1.89-.48,3.6-.12,1.63.79,3.35,1.14,1.72.33,3.44.69,1.74.21,3.46.57,1.74.26,3.46.61,1.56,1.1,3.28,1.46,1.93-.69,3.65-.34,1.46,1.59,3.18,1.95,1.77.1,3.49.46,1.71.42,3.43.78,1.74.23,3.46.59,1.78.07,3.49.42,1.75.24,3.47.6,1.71.39,3.43.75,1.85-.26,3.57.09,1.58,1.07,3.3,1.43"/><path class="cls-3" d="M441.49,304.61a14.69,14.69,0,0,1-.95-3.4,24.78,24.78,0,0,1-.21-3.45,28.47,28.47,0,0,1-.33-3.44c.05-1.09.55-2.22.71-3.37s.88-2.12,1.12-3.25-.05-2.33.28-3.43.71-2.17,1.13-3.23,1.71-1.69,2.22-2.71.46-2.29,1.06-3.26a33.1,33.1,0,0,1,1.94-2.79,28.7,28.7,0,0,1,2.48-2.31c.79-.8,1.2-2,2.1-2.74a25.49,25.49,0,0,1,3-1.67,24.69,24.69,0,0,1,2.87-2c1-.41,2.41.16,3.53-.12s2-1.39,3.18-1.52,2.27.71,3.44.71,2.37-.5,3.5-.48,2.35.61,3.48.66,2.42-.76,3.55-.68,2.34.48,3.46.58,2.29.93,3.4,1.07,2.42-.21,3.53,0,2.48-.22,3.56,0,2,1.84,3.1,2.11,2.44.15,3.47.48c1.21.38,2.29.75,3.29,1.15a28,28,0,0,1,3,1.71c1.24.62,2.42.81,3.21,1.34,1.94,1.31,2,.46,3.1,1.85"/><path class="cls-3" d="M457.83,277.51c-.66,1-.63,2.4-1.2,3.47s-.77,2.22-1.24,3.33-2,1.81-2.36,2.94-.71,2.34-1,3.48.2,2.55,0,3.69-.67,2.36-.85,3.49-.17,2.47-.3,3.58c-.16,1.34.08,2.56,0,3.58-.16,2.22-.75,1.74-.75,3.53"/><path class="cls-3" d="M471.48,275.47c-.63.91-2.34,1.29-2.91,2.41s-1,2.16-1.45,3.3-.49,2.34-.89,3.49-.13,2.43-.47,3.58-1.65,2-2,3.14.34,2.55.07,3.69-.28,2.39-.52,3.52-1.2,2.22-1.42,3.33-.73,2.37-.92,3.45c-.23,1.32-.17,2.55-.33,3.55-.35,2.18-.67,1.71-.89,3.46"/><path class="cls-3" d="M484.85,277.84c-.66.82-2,1.4-2.58,2.5s-.13,2.49-.65,3.6-1.81,1.71-2.26,2.82-1,2.12-1.38,3.23.26,2.56-.11,3.67-.75,2.21-1.09,3.32-1.56,2-1.87,3.09-.52,2.34-.81,3.42.24,2.56,0,3.61c-.32,1.27-1.44,2.21-1.67,3.19-.5,2.11.14,1.81-.22,3.52"/><path class="cls-3" d="M483,309.61c.93-1.47,1.2-1.31,2.12-2.78s1.56-1.08,2.49-2.56-.09-2.11.84-3.59,1.93-.84,2.85-2.32.8-1.55,1.73-3,.27-1.89,1.19-3.37,1.88-.88,2.8-2.36.87-1.52,1.8-3,0-2.15,1-3.55,1.24-.61,2.76-1.89c.72-.6,1.88-.92,2.8-1.7s1.34-1.67,2.19-2.42,2.06-.91,2.88-1.64.83-2.32,1.61-3.05"/><path class="cls-3" d="M6.13,240.27c1.74.39,1.64-.86,3.73,0,.93.37,1.45,2.1,2.66,2.72,1,.49,2.62-.05,3.72.62.94.59,1.84,1.43,2.86,2.17s1.83,1.45,2.79,2.24,1.46,1.86,2.35,2.71,2.11,1.2,2.94,2.1.8,2.38,1.57,3.33,1.7,1.62,2.41,2.61,1.54,1.77,2.19,2.8.84,2.21,1.44,3.27,1.13,2,1.67,3.12,1.89,1.71,2.37,2.83.07,2.51.5,3.64.91,2.16,1.29,3.31.23,2.36.56,3.53,1.86,1.94,2.18,3.06.39,2.37.72,3.49.22,2.42.55,3.53.76,2.27,1.08,3.38,1,2.19,1.37,3.3.34,2.39.66,3.5.4,2.38.72,3.49,1,2.2,1.33,3.31.69,2.3,1,3.4.49,2.37.8,3.46.63,2.34.95,3.42.91,2.27,1.22,3.34.59,2.38.89,3.44c.36,1.24.39,2.46.69,3.48.38,1.33,1.48,2.25,1.75,3.19.65,2.25,1.63,2.19.24,3.28s-1.49.56-3.09,1.11-1.45,1-3.06,1.52-1.63.45-3.23,1-1.51.81-3.12,1.37-1.62.5-3.22,1.06-1.53.75-3.14,1.3-1.71.24-3.31.79-1.49.88-3.09,1.44-1.86-.19-3.46.37-1.62.53-3.22,1.08-1.28,1.47-2.89,2-1.82-.08-3.42.48-1.73.18-3.34.74-1.61.51-3.22,1.07-1.27,1.54-2.87,2.09-1.84-.11-3.45.44"/><path class="cls-3" d="M57.55,335.59c.47,1.68,1.05,1.51,1.52,3.19s-.1,1.84.37,3.52.31,1.73.78,3.41.14,1.77.61,3.45,1.3,1.46,1.76,3.14.79,1.59,1.25,3.27.31,1.73.78,3.41.3,1.73.77,3.42.74,1.6,1.2,3.28.1,1.79.57,3.47-.47,2,0,3.63,1.64,1.36,2.11,3,.58,1.66,1,3.34-.35,1.92.12,3.61"/><path d="M523.34,31.87c0,1,.34,2.16-.29,2.79s-1.83.29-2.79.29-2.14.33-2.77-.3a4.61,4.61,0,0,1,0-5.55,4.51,4.51,0,0,1,2.77-1.29c1,0,1.46,1.35,2.09,2A2.62,2.62,0,0,1,523.34,31.87Z"/><path class="cls-3" d="M528,26.43a11.17,11.17,0,0,0-3.67-1.93,15.65,15.65,0,0,0-8.15.12c-1.38.47-2.92.76-3.93,1.62"/><path class="cls-3" d="M531.91,22.54c-.79-.7-1-2.35-1.93-2.9a19.06,19.06,0,0,0-3.24-.95,19.32,19.32,0,0,0-3.13-1.21,22,22,0,0,0-3.35,0c-1.12,0-2.18.63-3.24.8a20.1,20.1,0,0,0-3.17.77,17.55,17.55,0,0,0-3.07,1.16,16.81,16.81,0,0,0-3,1.6"/><path class="cls-3" d="M512.47,26.47c1-.86,2.1-2.1,3.48-2.56s2.86.6,4.31.6a12.18,12.18,0,0,1,4,.35,11.13,11.13,0,0,1,3.76,1.6"/><path class="cls-7" d="M364,758.12c0,1.4-1,2.74-1.11,4.12s-.12,2.75-.36,4.11-.82,2.63-1.17,4-.17,2.84-.64,4.14-1.6,2.32-2.18,3.57-.69,2.75-1.38,4-1.59,2.27-2.39,3.41-1.87,2-2.76,3.09-1.69,2.16-2.67,3.15-1.81,2.09-2.88,3-2.2,1.66-3.35,2.46-2.44,1.26-3.65,2-2.39,1.32-3.65,1.91-2.25,1.79-3.56,2.26-2.82.22-4.17.58-2.55,1.25-3.93,1.49-2.79-.19-4.19-.07-2.72,0-4.12,0-2.74-.08-4.11-.2-2.87.61-4.23.37-2.7-.77-4-1.13-2.61-.95-3.91-1.42-2.87-.39-4.13-1-2.11-2-3.31-2.68-2.87-.69-4-1.49-2.27-1.67-3.34-2.57-1.85-2.14-2.83-3.13-1.87-2.07-2.76-3.13-1.18-2.58-2-3.72-2.6-1.63-3.3-2.84-1.4-2.46-2-3.72-1.18-2.58-1.66-3.9,0-2.93-.35-4.28-1.2-2.58-1.44-4-.15-2.78-.28-4.18-.53-2.77-.53-4.17-.24-2.86-.12-4.23.84-2.74,1.08-4.1.52-2.76.88-4.09.5-2.8,1-4.1,1.19-2.56,1.77-3.82,1.48-2.38,2.18-3.58,1.49-2.36,2.28-3.49,1.4-2.46,2.29-3.52,2.48-1.49,3.46-2.47,1.44-2.53,2.5-3.42,2.41-1.45,3.55-2.25,2.39-1.38,3.59-2.08,2.53-1.09,3.79-1.68,2.45-1.22,3.76-1.7,2.32-1.89,3.67-2.26,2.81-.29,4.19-.54,2.77-.38,4.16-.5,2.78-.62,4.19-.62,2.79.76,4.16.88,2.7.69,4.06.93,2.72.48,4,.84,3-.2,4.3.27,2.46,1.44,3.71,2,2.07,2,3.27,2.71,3.06.37,4.19,1.17,2.31,1.65,3.37,2.54,1.77,2.23,2.76,3.21,1.38,2.48,2.27,3.54,1.78,2.08,2.58,3.22,1.61,2.21,2.31,3.42,1.61,2.27,2.2,3.53,1.81,2.28,2.29,3.59-.21,3,.15,4.33,1.3,2.53,1.54,3.91.28,2.77.4,4.16S364,756.71,364,758.12Z"/><path class="cls-2" d="M288.56,785.38c-1.11-1.11-1.57-2.73-2.52-3.93s-2.36-2.11-3.15-3.42a40.4,40.4,0,0,1-2.62-3.91c-.64-1.42-.08-3.28-.54-4.75s-2.15-2.67-2.43-4.19.27-3.2.18-4.74-.69-3.13-.59-4.68a38.84,38.84,0,0,1,1.05-4.58,22.09,22.09,0,0,1,2.37-9,40.25,40.25,0,0,1,2.63-3.89c.8-1.31,2.15-2.21,3.12-3.44a37.65,37.65,0,0,1,2.72-3.72,39.83,39.83,0,0,1,3.43-3.1,41.22,41.22,0,0,1,3.91-2.46,37.7,37.7,0,0,1,3.93-2.45c1.42-.64,3.06-.58,4.53-1A36.6,36.6,0,0,1,309,720.6c1.53-.27,3-1,4.54-1.07a38.57,38.57,0,0,1,4.68-.2c1.55.1,2.95,1.31,4.47,1.59a36.56,36.56,0,0,1,4.5.9,38,38,0,0,1,4.16,1.92c1.4.63,3.06.7,4.39,1.51s2.14,2.24,3.37,3.2,2.77,1.44,3.88,2.55a36.64,36.64,0,0,1,2.92,3.59,36,36,0,0,1,2.33,4,37.7,37.7,0,0,1,2.29,4,38.55,38.55,0,0,1,1.9,4.21,26.74,26.74,0,0,1,1.21,9.1,38.88,38.88,0,0,1,0,4.58c-.1,1.54.52,3.15.24,4.68s-1.4,2.81-1.86,4.3-.36,3.13-1,4.55-1.94,2.44-2.75,3.77a37.79,37.79,0,0,1-2.72,3.67,38.48,38.48,0,0,1-3,3.38c-1.11,1.12-1.58,2.88-2.78,3.82a37.24,37.24,0,0,1-4,2.44,38,38,0,0,1-4.19,2c-1.42.64-2.62,1.9-4.1,2.36s-3.22-.08-4.74.2-3,1.45-4.5,1.55a41.29,41.29,0,0,1-4.72,0,41,41,0,0,1-4.6-1,37.33,37.33,0,0,1-4.5-1.2c-1.48-.46-2.62-1.71-4-2.35s-3.42-.13-4.75-.93a40.82,40.82,0,0,1-3.92-2.65C290.44,788,289.67,786.49,288.56,785.38Z"/><path class="cls-8" d="M427.53,100c1.18-1.67,1.59-1.38,2.77-3s.85-1.9,2-3.58,1.73-1.28,2.9-3,.22-2.34,1.39-4,2.09-1,3.27-2.71l2.35-3.35c1.17-1.67.07-2.44,1.24-4.12s1.58-1.38,2.76-3.06,1.79-1.24,3-2.92.29-2.29,1.46-4,1.95-1.13,3.13-2.81,1.28-1.61,2.46-3.29"/><path class="cls-8" d="M439.59,119.47c1.56-1.39,1.41-1.56,3-3s.92-2.12,2.49-3.51,1.77-1.16,3.34-2.55,2.06-.84,3.63-2.23.76-2.29,2.33-3.69,2.35-.51,3.92-1.9,1.46-1.51,3-2.91,1.05-2,2.61-3.37,2.31-.56,3.88-2,1.52-1.44,3.09-2.84.87-2.17,2.44-3.56,1.77-1.17,3.34-2.56,1.91-1,3.47-2.41,1.31-1.69,2.88-3.09,2-.89,3.59-2.29S487.4,75.38,489,74"/><path class="cls-8" d="M454.11,135c1.75-1.07,2.4,0,4.16-1.08s1.72-1.15,3.48-2.22,1.44-1.59,3.2-2.66l3.52-2.15c1.76-1.08,1.71-1.15,3.47-2.23s1.59-1.34,3.35-2.42,2.22-.33,4-1.4,1.35-1.75,3.11-2.83,2.32-.16,4.08-1.23,1.64-1.27,3.4-2.35,1.26-1.9,3-3,1.93-.81,3.69-1.89"/><path class="cls-2" d="M26.47,64.73c0,2.69-3,4.78-5.68,4.78S15,67.42,15,64.73s3.08-5.66,5.78-5.66S26.47,62,26.47,64.73Z"/><path class="cls-7" d="M34.71,61.64c0,1.69,1.34,1.69,1.34,3.39s-2.24,2.57-1,3.73,2.12-.58,3.94-.58"/><path class="cls-7" d="M43,61.64c0,1.69.29,1.69.29,3.39s.16,1.69.16,3.39"/><path class="cls-7" d="M55.61,61.75c-1,1.69-.71,1.87-1.71,3.56s-.52,3.43-2.49,3.43-1-2-2-3.69-1.48-1.41-2.48-3.11"/><path class="cls-7" d="M63.56,68.77c-1.82,0-2.11.68-3.43-.56s-.21-1.49-.21-3.18-1.13-2.13.11-3.28,1.71.1,3.53.1"/><path class="cls-7" d="M59.93,65.68c1.81,0,1.81-.32,3.63-.32"/><path d="M184.82,7.52a6.55,6.55,0,0,1-.49,3.42c-.62,1.06-1.73,1.41-2.79,2S179.67,15,178.4,15s-2.14-1.44-3.17-2a6.2,6.2,0,0,1-2.62-2.14,6.59,6.59,0,0,1-1.2-3.34c0-1.27-.16-2.76.44-3.78a7.9,7.9,0,0,1,3-2.41A7.76,7.76,0,0,1,178.4,0c1.27,0,2.46.89,3.48,1.49a6.68,6.68,0,0,1,2.21,2.75A6.09,6.09,0,0,1,184.82,7.52Z"/></g></g></g></svg>