<svg xmlns="http://www.w3.org/2000/svg" viewBox="0 0 622.84 276.48"><defs><style>.cls-1{fill:#e6b49d;}.cls-2{font-size:31.76px;fill:#62272d;font-family:PTSerif-Italic, PT Serif;font-style:italic;}.cls-3,.cls-4,.cls-5,.cls-6,.cls-7{font-family:PTSerif-Regular, PT Serif;font-style:normal;}.cls-4{letter-spacing:-0.03em;}.cls-5{letter-spacing:0em;}.cls-6{letter-spacing:-0.02em;}.cls-7{letter-spacing:-0.01em;}.cls-8{fill:#677d70;}.cls-9{fill:#fff;}.cls-10{fill:none;stroke:#000;stroke-linecap:round;stroke-linejoin:round;stroke-width:4.33px;}</style></defs><g id="Layer_2" data-name="Layer 2"><g id="sect9"><g id="std"><path class="cls-1" d="M15.87,270.23c1.92.76,2,0,4.05,0s2.07-.44,4.13-.44,2.07.7,4.14.7,2.07.39,4.13.39,2.07,0,4.14,0,2.07-1,4.13-1,2.07.45,4.14.45,2.07.9,4.14.9,2.06-1.28,4.13-1.28,2.07,0,4.14,0,2.07.51,4.14.51,2.07.71,4.14.71,2.07-.08,4.14-.08,2.06-.11,4.13-.11,2.07-.31,4.14-.31,2.07-.75,4.13-.75S84,271,86.1,271s2.07-.66,4.14-.66,2.07.15,4.13.15,2.07.22,4.14.22,2.07.14,4.14.14,2.07-.14,4.14-.14,2.07.42,4.14.42,2.07-1.23,4.13-1.23,2.07.38,4.14.38,2.07-.4,4.14-.4,2.07.75,4.13.75,2.07-.76,4.14-.76,2.07.77,4.14.77,2.07-.61,4.14-.61,2.07,1,4.14,1,2.07-.65,4.14-.65,2.06-.27,4.13-.27,2.07,0,4.14,0,2.07.69,4.14.69,2.07-.43,4.14-.43,2.07-.54,4.14-.54,2.07,1.31,4.14,1.31,2.06-.29,4.13-.29,2.07-.44,4.14-.44,2.07.45,4.14.45,2.07-.76,4.14-.76,2.07-.16,4.14-.16,2.07,1.25,4.14,1.25,2.07-.48,4.13-.48,2.07.4,4.14.4,2.07-.25,4.14-.25,2.07-.54,4.14-.54,2.07,0,4.14,0,2.07.23,4.14.23,2.07.45,4.14.45,2.07-.18,4.14-.18,2.07,0,4.14,0,2.06-.2,4.13-.2,2.07-.1,4.14-.1,2.06-.18,4.13-.18,2.07.06,4.13.06,2.07.53,4.14.53,2.07-.16,4.14-.16,2.07-.92,4.14-.92,2.07,1,4.14,1,2.06-.86,4.13-.86,2.07.86,4.14.86,2.07-.84,4.13-.84,2.07.21,4.15.21,2.07-.21,4.13-.21,2.07-.14,4.14-.14,2.07,1.11,4.14,1.11,2.07-.55,4.14-.55,2.07-.61,4.14-.61,2.07.59,4.14.59,2.07.16,4.14.16,2.07.34,4.14.34,2.07-.86,4.14-.86,2.07-.33,4.14-.33,2.07.17,4.14.17,2.07.17,4.14.17,2.07-.28,4.14-.28,2.07.39,4.14.39,2.07,1,4.14,1,2.07-1.22,4.14-1.22,2.07-.12,4.15-.12,2.07.85,4.14.85,2.07.23,4.14.23,2.07.27,4.14.27,2.07-.6,4.14-.6,2.07.27,4.14.27,2.07.16,4.14.16,2.07-1.21,4.14-1.21,2.07,1.37,4.14,1.37,2.08-1.28,4.15-1.28,2.07.22,4.14.22,2.07.06,4.15.06,2.07.46,4.14.46,2.07-.63,4.14-.63,2.08,1,4.15,1,2.07-.33,4.15-.33,2.07-.26,4.15-.26,2.07.44,4.15.44a14.87,14.87,0,0,0,4.45-.73c1.42-.46,2.27-2,3.45-2.83s2.84-1.25,3.71-2.44a25,25,0,0,0,3.14-8.44c0-2.07-1.24-2.07-1.24-4.13s.28-2.06.28-4.12.45-2.06.45-4.13-.11-2.06-.11-4.12-.4-2.06-.4-4.13.34-2.06.34-4.12.26-2.07.26-4.13-.35-2.06-.35-4.12,0-2.07,0-4.13.19-2.06.19-4.13,0-2.06,0-4.12-.25-2.06-.25-4.12.1-2.07.1-4.13.3-2.06.3-4.12-.8-2.07-.8-4.13.9-2.06.9-4.13-.06-2.06-.06-4.13-.44-2.06-.44-4.12.11-2.07.11-4.13-.28-2.07-.28-4.13.05-2.07.05-4.13-.2-2.07-.2-4.13.34-2.07.34-4.14-.35-2.06-.35-4.13c0-1.52.53-3.08.09-4.45a15.11,15.11,0,0,0-2-4c-.87-1.19-2.56-1.54-3.76-2.41s-2.12-2.09-3.54-2.55a14.31,14.31,0,0,0-4.36-1.08c-2.08,0-2.08,0-4.15,0s-2.07,1-4.15,1-2.07-.71-4.14-.71-2.07.81-4.14.81-2.08-1.25-4.15-1.25-2.07.08-4.14.08-2.08.6-4.15.6h-4.14c-2.08,0-2.08.09-4.15.09s-2.07.31-4.15.31-2.07-.87-4.15-.87-2.07.79-4.14.79-2.08-1.08-4.15-1.08-2.07.22-4.15.22-2.07,1-4.14,1-2.07-.31-4.15-.31-2.07-.75-4.14-.75-2.07,1.2-4.15,1.2-2.07-1.18-4.14-1.18-2.08.15-4.15.15-2.08.78-4.15.78-2.07-1.11-4.15-1.11-2.07.07-4.14.07-2.08,1-4.15,1-2.07-.31-4.15-.31-2.07-.51-4.14-.51-2.08.39-4.15.39-2.07-.67-4.15-.67-2.07,1.16-4.15,1.16-2.07-1.11-4.14-1.11H297c-2.07,0-2.07,1.35-4.15,1.35s-2.07-.5-4.14-.5-2.08-.75-4.15-.75-2.07,1.07-4.15,1.07-2.07-.94-4.15-.94-2.07-.13-4.15-.13-2.07,1.11-4.14,1.11-2.08,0-4.15,0-2.07-.92-4.15-.92-2.07.14-4.14.14-2.08.88-4.15.88-2.08-.88-4.15-.88-2.08.56-4.15.56-2.07-.47-4.15-.47-2.07-.56-4.14-.56-2.08.37-4.15.37-2.08.95-4.15.95-2.08-1.3-4.15-1.3-2.07,0-4.15,0-2.07.39-4.15.39-2.07.64-4.15.64-2.07-1-4.14-1-2.08,1-4.15,1-2.07.28-4.14.28-2.07-.72-4.15-.72-2.07-.27-4.14-.27-2.07.26-4.14.26-2.08-.38-4.15-.38-2.08.5-4.15.5-2.08.39-4.15.39-2.07-.77-4.14-.77-2.08.05-4.15.05-2.07.75-4.15.75-2.07.29-4.15.29-2.07-1.19-4.14-1.19-2.08,0-4.15,0-2.07.82-4.15.82-2.07-.21-4.15-.21-2.07.19-4.15.19-2.07.34-4.15.34-2.07-.59-4.14-.59-2.08.37-4.15.37-2.08-.68-4.15-.68-2.08.36-4.15.36-2.08.52-4.15.52-2.08-.11-4.15-.11-2.08-.17-4.15-.17-2.08.34-4.15.34-2.08-.39-4.15-.39-2.08-.55-4.15-.55-2.08.59-4.15.59H81.3c-2.07,0-2.07-.94-4.15-.94s-2.07.65-4.15.65H68.85c-2.07,0-2.07-.35-4.15-.35s-2.07.65-4.15.65-2.07-.29-4.15-.29-2.07.51-4.15.51-2.07-1-4.15-1-2.08.93-4.15.93-2.08-.91-4.16-.91-2.07.52-4.15.52-2.08-.55-4.15-.55-2.08.87-4.16.87-2.08-.3-4.15-.3-2.08-.69-4.16-.69-2.08.53-4.16.53c-1.52,0-2.79.85-4.16,1.3s-3.36-.06-4.54.8a15.18,15.18,0,0,0-2.89,3.56,14.44,14.44,0,0,0-2,4,14.77,14.77,0,0,0-1,4.43c0,2.1.44,2.1.44,4.2s.6,2.1.6,4.2-1,2.1-1,4.2.21,2.1.21,4.2.31,2.1.31,4.2.5,2.1.5,4.2-1,2.1-1,4.21.1,2.1.1,4.2S1,193,1,195.12s.16,2.1.16,4.2.1,2.1.1,4.2,0,2.1,0,4.2-1,2.1-1,4.21,1.22,2.1,1.22,4.2-1,2.1-1,4.2.85,2.1.85,4.2-.45,2.1-.45,4.2,0,2.11,0,4.21.14,2.1.14,4.2.1,2.1.1,4.2-.76,2.1-.76,4.21,1.06,2.1,1.06,4.21S.07,251.86.07,254c0,1.2-.29,1.58.31,2.62,1,1.78,1.53,1.56,3,3S5,260.87,6.5,262.28s1.7,1.19,3.2,2.6a33.49,33.49,0,0,1,3.09,2.73C14.16,269.14,14,269.47,15.87,270.23Z"/><text class="cls-2" transform="translate(65.97 221.65)">Oooh,<tspan class="cls-3" x="81.75" y="0" xml:space="preserve"> I</tspan><tspan class="cls-4" x="100.65" y="0">&apos;</tspan><tspan class="cls-5" x="107.45" y="0">m so </tspan><tspan class="cls-6" x="181.61" y="0">e</tspan><tspan class="cls-7" x="197.02" y="0">x</tspan><tspan class="cls-3" x="213.12" y="0">cited!!</tspan></text><path class="cls-8" d="M602.89,165.45c-2.43,1-2.45.46-5.07.46s-2.61,0-5.23,0-2.61.7-5.22.7-2.62-.36-5.23-.36-2.61-1.2-5.23-1.2-2.61.91-5.23.91-2.61-.16-5.22-.16-2.62-.56-5.23-.56-2.62,1.52-5.23,1.52-2.62-.88-5.23-.88-2.62.25-5.24.25S542.92,165,540.3,165s-2.61.74-5.23.74-2.61-.24-5.23-.24-2.61-.09-5.23-.09h-5.23c-2.61,0-2.61.53-5.22.53s-2.62-.55-5.23-.55-2.62.55-5.23.55-2.62-.18-5.24-.18h-5.23c-2.61,0-2.61.43-5.23.43s-2.62-.56-5.23-.56-2.61,1-5.23,1-2.61-.56-5.23-.56-2.61.09-5.23.09-2.61.63-5.23.63-2.61-1.66-5.23-1.66-2.62,1.3-5.23,1.3-2.62-.53-5.23-.53-2.62.64-5.24.64-2.61-.78-5.23-.78-2.61.88-5.23.88-2.61-.65-5.23-.65-2.61.48-5.23.48-2.62-1-5.23-1-2.62.61-5.23.61-2.62.23-5.24.23-2.61-1.06-5.23-1.06-2.61.77-5.23.77-2.61-.9-5.23-.9-2.61.46-5.23.46-2.62.85-5.23.85-2.62-.63-5.24-.63-2.61-.54-5.23-.54-2.61,1.48-5.23,1.48-2.62-1.19-5.23-1.19S354.6,165,352,165s-2.61,1.17-5.23,1.17-2.61-.2-5.23-.2-2.62.42-5.23.42-2.62-.5-5.24-.5-2.61-.1-5.23-.1-2.61.06-5.23.06-2.62-.54-5.23-.54-2.62.26-5.24.26-2.61-.47-5.23-.47-2.62,0-5.23,0-2.62,1.11-5.24,1.11-2.61.59-5.23.59-2.62-1.24-5.23-1.24-2.62-.4-5.23-.4-2.61,1.59-5.23,1.59-2.61-.71-5.23-.71-2.61.51-5.23.51-2.62,0-5.23,0-2.62-.31-5.23-.31-2.62-.34-5.23-.34-2.62.91-5.23.91-2.62-1.49-5.24-1.49-2.61.35-5.23.35-2.61.11-5.23.11-2.62.61-5.23.61-2.62-1.12-5.24-1.12-2.61.49-5.23.49-2.62-.43-5.23-.43-2.62.65-5.24.65-2.61.59-5.23.59-2.62-.63-5.24-.63-2.61-.59-5.23-.59-2.62.25-5.24.25-2.61.85-5.23.85-2.62-.32-5.24-.32-2.61-.2-5.23-.2-2.62.49-5.24.49-2.62-.63-5.23-.63-2.62.08-5.24.08-2.62-.73-5.23-.73-2.62.3-5.24.3-2.61.54-5.23.54-2.62-.25-5.24-.25-2.61,1-5.23,1-2.62-.15-5.24-.15-2.62-.36-5.24-.36-2.62-.62-5.24-.62-2.62.34-5.23.34-2.63-.66-5.25-.66-2.62.72-5.24.72-2.62-.69-5.24-.69a16.41,16.41,0,0,1-5.24-1.13c-1.79-.58-3.86-.44-5.35-1.52a18.29,18.29,0,0,1-3.89-4.06c-1.09-1.5-2.73-2.94-3.31-4.74a19.69,19.69,0,0,1-.41-5.78c0-2.61.72-2.61.72-5.21s.34-2.61.34-5.22-.31-2.61-.31-5.22.37-2.61.37-5.21,0-2.61,0-5.22-1.2-2.61-1.2-5.22.62-2.6.62-5.21.57-2.61.57-5.22-.81-2.61-.81-5.21.39-2.61.39-5.22.38-2.61.38-5.22-1.28-2.61-1.28-5.22,1-2.6,1-5.21-.6-2.61-.6-5.21S67,72.42,67,69.81s1-2.61,1-5.21S68,62,68,59.38s-1.43-2.61-1.43-5.22.16-2.61.16-5.22,1.14-2.61,1.14-5.22-1.48-2.61-1.48-5.22.08-2.61.08-5.22.57-2.61.57-5.22.81-2.62.81-5.23a16.47,16.47,0,0,1,1-5.26A16.77,16.77,0,0,1,71,12.65c1.1-1.51,1.74-3.54,3.25-4.63S78,7.34,79.82,6.75s3.3-2.23,5.23-2.23c2.62,0,2.62.85,5.24.85s2.62.49,5.24.49,2.62-.71,5.24-.71,2.62-.05,5.24-.05,2.62-.52,5.24-.52,2.62-.32,5.24-.32,2.62.52,5.24.52,2.62.83,5.24.83,2.62.16,5.24.16,2.62-1,5.24-1,2.62,1,5.25,1,2.62-1.1,5.24-1.1,2.62-.12,5.24-.12,2.62-.42,5.24-.42,2.62,1.21,5.24,1.21,2.62-.45,5.24-.45,2.62-.23,5.24-.23,2.62.71,5.24.71,2.62-.26,5.25-.26,2.62-1,5.24-1,2.62,1.56,5.24,1.56,2.63.08,5.25.08,2.62-.23,5.24-.23,2.62-1.2,5.24-1.2,2.62,1.26,5.24,1.26,2.62-.56,5.24-.56,2.63.23,5.25.23,2.62.36,5.24.36,2.62-.88,5.24-.88,2.63.26,5.25.26,2.62.68,5.24.68,2.62-1,5.24-1l5.24,0c2.63,0,2.63,0,5.25,0s2.62.16,5.24.16,2.62.63,5.25.63,2.62-.8,5.24-.8,2.62.65,5.24.65,2.62-.67,5.25-.67,2.62,1,5.24,1,2.62-.15,5.24-.15,2.62.3,5.25.3,2.62-1,5.24-1l5.24,0c2.63,0,2.63,1.07,5.25,1.07s2.62-1.08,5.24-1.08,2.62.23,5.25.23,2.62.11,5.24.11h5.24c2.63,0,2.63.47,5.25.47s2.62.09,5.24.09,2.63-1.07,5.25-1.07,2.62.08,5.24.08,2.62.85,5.25.85,2.62-.21,5.24-.21,2.62-1,5.25-1,2.62.41,5.24.41,2.62-.46,5.25-.46,2.62,1.56,5.24,1.56,2.62-.78,5.25-.78,2.62-.65,5.24-.65,2.62,1.4,5.24,1.4,2.62-1,5.24-1,2.62.35,5.24.35,2.62-.46,5.25-.46,2.62.7,5.24.7,2.62-.07,5.24-.07,2.62.11,5.24.11,2.62.42,5.25.42,2.62-.58,5.24-.58,2.63-.87,5.25-.87,2.62,1.13,5.24,1.13,2.62-.07,5.24-.07,2.63-.84,5.25-.84,2.62,1,5.24,1,2.63-.83,5.25-.83,2.62.35,5.25.35,2.62.5,5.24.5,2.62-.43,5.25-.43,2.62-.15,5.24-.15,2.63.36,5.25.36,2.62,0,5.25,0,2.62-.07,5.25-.07,2.62-.53,5.24-.53,2.63.62,5.25.62,2.62-1.08,5.25-1.08,2.62.94,5.25.94,2.62.32,5.24.32,2.62-.29,5.25-.29S554.34,4.2,557,4.2s2.63,1.35,5.25,1.35,2.62-.44,5.25-.44,2.62.51,5.25.51,2.62-1.25,5.25-1.25,2.62,1.27,5.25,1.27,2.62-1.51,5.25-1.51,2.62,1.76,5.25,1.76,2.63-.42,5.26-.42,2.63-.66,5.25-.66c1.92,0,3.67.85,5.4,1.42s4.09.41,5.58,1.49,2,3.35,3.14,4.86,3,2.71,3.57,4.5,0,3.83,0,5.75c0,2.66,1,2.66,1,5.32s-.53,2.65-.53,5.3-.92,2.66-.92,5.31.19,2.66.19,5.31.16,2.66.16,5.32-.29,2.65-.29,5.31.44,2.65.44,5.31-.65,2.66-.65,5.31.41,2.66.41,5.31.44,2.66.44,5.32-1,2.65-1,5.31.25,2.66.25,5.31,1,2.66,1,5.31-1,2.66-1,5.31.52,2.66.52,5.31.65,2.66.65,5.31.27,2.66.27,5.31-.15,2.66-.15,5.32,0,2.66,0,5.31.19,2.66.19,5.32-1.19,2.66-1.19,5.31,1.12,2.66,1.12,5.32-1.44,2.66-1.44,5.32c0,1.52,1.24,1.58.49,2.89-1.3,2.25-1.84,1.72-3.73,3.5s-2,1.69-3.88,3.47-1.43,2.28-3.32,4.06a48.74,48.74,0,0,0-3.66,3.67C605.45,164.49,605.32,164.5,602.89,165.45Z"/><path class="cls-9" d="M205.91,63.06a5.63,5.63,0,0,0,1.39.74,5,5,0,0,0,2.06.35,10.52,10.52,0,0,0,2.4-.19,6.35,6.35,0,0,0,2.11-.78,4.45,4.45,0,0,0,1.5-1.49,5,5,0,0,0-.17-4.89,8,8,0,0,0-1.82-1.86A25.78,25.78,0,0,0,211,53.4a17.09,17.09,0,0,1-2.34-1.63,8.08,8.08,0,0,1-1.82-2.13,5.75,5.75,0,0,1-.74-3,7.74,7.74,0,0,1,.62-3.13,6.59,6.59,0,0,1,1.84-2.42,8.86,8.86,0,0,1,3-1.58,13,13,0,0,1,4-.56,21.81,21.81,0,0,1,4.09.35,10.92,10.92,0,0,1,2.82.89c-.1.42-.24.92-.42,1.48s-.38,1.14-.57,1.74-.41,1.19-.63,1.75l-.59,1.48h-.95l-.44-5.14a6.09,6.09,0,0,0-1.65-.45,14.74,14.74,0,0,0-2.18-.15,8.57,8.57,0,0,0-2.13.26,5.32,5.32,0,0,0-1.75.81A3.82,3.82,0,0,0,210,43.32a4.25,4.25,0,0,0-.42,2,4.1,4.1,0,0,0,.74,2.5,7.91,7.91,0,0,0,1.82,1.78,26.25,26.25,0,0,0,2.34,1.52,16.36,16.36,0,0,1,2.35,1.67A8.31,8.31,0,0,1,218.69,55a6.75,6.75,0,0,1,.73,3.29A6.94,6.94,0,0,1,216.74,64a9.45,9.45,0,0,1-3.19,1.59,15,15,0,0,1-4.3.56,17.24,17.24,0,0,1-2.31-.15,14,14,0,0,1-2-.41,12.27,12.27,0,0,1-1.63-.58,5.18,5.18,0,0,1-1.09-.62c.1-.45.25-1,.43-1.6s.4-1.23.62-1.85.45-1.24.68-1.82.44-1.1.64-1.52h1Z"/><path class="cls-9" d="M224.19,58.67a15.17,15.17,0,0,1,.61-4.15,13.38,13.38,0,0,1,1.89-4,10.58,10.58,0,0,1,3.18-3,8.31,8.31,0,0,1,4.44-1.16,5.33,5.33,0,0,1,4.39,1.8,8.2,8.2,0,0,1,1.48,5.33,16,16,0,0,1-.71,4.75,13.3,13.3,0,0,1-2,4,10,10,0,0,1-3.06,2.76,7.8,7.8,0,0,1-4,1,5.92,5.92,0,0,1-4.58-1.85C224.75,63,224.19,61.15,224.19,58.67Zm9.42-10.58a4.16,4.16,0,0,0-3,1.19,8.24,8.24,0,0,0-1.84,2.88,15.56,15.56,0,0,0-.94,3.7,26.89,26.89,0,0,0-.26,3.62,6.09,6.09,0,0,0,1,3.59,3.06,3.06,0,0,0,2.63,1.38,3.3,3.3,0,0,0,2.35-1,8.47,8.47,0,0,0,1.76-2.61,16.92,16.92,0,0,0,1.13-3.68A22.26,22.26,0,0,0,236.8,53a7.16,7.16,0,0,0-.77-3.55A2.65,2.65,0,0,0,233.61,48.09Z"/><path class="cls-9" d="M263.45,61.2a2.75,2.75,0,0,0-.5-1.54,6.45,6.45,0,0,0-1.21-1.25c-.48-.4-1-.8-1.55-1.2a14.05,14.05,0,0,1-1.56-1.33,6.33,6.33,0,0,1-1.2-1.69,5.78,5.78,0,0,1,.05-4.68,4.81,4.81,0,0,1,1.45-1.69,6.74,6.74,0,0,1,2.21-1,10.62,10.62,0,0,1,2.84-.35,16.36,16.36,0,0,1,2.19.16,6.38,6.38,0,0,1,2.31.81,3.64,3.64,0,0,1-.15,1,6.63,6.63,0,0,1-.39,1.05,7.74,7.74,0,0,1-.55.94,1.61,1.61,0,0,1-.63.58L264,48.09a7.87,7.87,0,0,0-1.44.18,3.36,3.36,0,0,0-1.16.49,2.34,2.34,0,0,0-.77.88,3,3,0,0,0-.27,1.36,2.83,2.83,0,0,0,.48,1.66A6.91,6.91,0,0,0,262,54a18.92,18.92,0,0,0,1.56,1.2,10.9,10.9,0,0,1,1.56,1.32,6.49,6.49,0,0,1,1.21,1.69,5,5,0,0,1,.48,2.27,4.66,4.66,0,0,1-.62,2.4,5.61,5.61,0,0,1-1.69,1.78A7.91,7.91,0,0,1,262,65.73a11.48,11.48,0,0,1-3,.37,12.14,12.14,0,0,1-2.87-.31,7.16,7.16,0,0,1-2.05-.81c.13-.65.28-1.28.45-1.9a3.92,3.92,0,0,1,1.09-1.71l3.38,3.08a6.85,6.85,0,0,0,1.56-.18,4.68,4.68,0,0,0,1.39-.6,3.47,3.47,0,0,0,1-1A2.79,2.79,0,0,0,263.45,61.2Z"/><path class="cls-9" d="M284.1,58.3A22.4,22.4,0,0,1,282.88,61a14,14,0,0,1-1.69,2.51,8.9,8.9,0,0,1-2.12,1.84,4.63,4.63,0,0,1-2.48.71c-2.6,0-3.9-1.88-3.9-5.66a17.79,17.79,0,0,1,.75-5.13,14.75,14.75,0,0,1,2.17-4.45,11.19,11.19,0,0,1,3.48-3.13,9.06,9.06,0,0,1,4.63-1.18,5.07,5.07,0,0,1,1.5.17,13.49,13.49,0,0,1,1.36.5,6.74,6.74,0,0,1,3.15-.78l-3.38,17.11h2.74v1a6.45,6.45,0,0,1-1.8,1,6.14,6.14,0,0,1-2.07.38,2.14,2.14,0,0,1-1.55-.47,1.36,1.36,0,0,1-.47-1,14.25,14.25,0,0,1,.26-2.22c.17-1,.44-2.33.79-3.9Zm-5.93,5.48a3,3,0,0,0,2-1,13.53,13.53,0,0,0,1.92-2.3,23.71,23.71,0,0,0,1.61-2.81c.48-1,.85-1.79,1.13-2.44l1.2-6.4a3.6,3.6,0,0,0-1-.52,4.86,4.86,0,0,0-1.36-.15,5.07,5.07,0,0,0-3.13,1.07,9.33,9.33,0,0,0-2.4,2.75,14.35,14.35,0,0,0-1.54,3.74,16,16,0,0,0-.55,4.05,7.38,7.38,0,0,0,.47,2.94A1.68,1.68,0,0,0,278.17,63.78Z"/><path class="cls-9" d="M302,60c.9-1.51,1.7-3,2.4-4.38a35.55,35.55,0,0,0,1.81-4.26,7,7,0,0,0-.1-1.07L305.93,49q-.1-.68-.21-1.26a8.17,8.17,0,0,0-.19-.8,5.83,5.83,0,0,1,2.23-.47,3.74,3.74,0,0,1,2,.47,33.45,33.45,0,0,1-1.54,4.74A52.18,52.18,0,0,1,306,56.46q-1.26,2.4-2.74,4.73t-3.1,4.46l-1.76.45-2.78-17-2.4-.3v-.94c.15-.1.37-.23.67-.39s.64-.32,1-.47a10,10,0,0,1,1.13-.38,4.31,4.31,0,0,1,1.1-.14,1.49,1.49,0,0,1,1.19.41,2.09,2.09,0,0,1,.46,1l1.73,12.2.19,2.37h.07Z"/><path class="cls-9" d="M325.24,62.31a5.36,5.36,0,0,1-1,1.39,7.32,7.32,0,0,1-1.5,1.22,8.25,8.25,0,0,1-1.95.87,8.36,8.36,0,0,1-2.33.31,6.21,6.21,0,0,1-4.78-1.78A6.9,6.9,0,0,1,312,59.39a16.2,16.2,0,0,1,.76-5,13.28,13.28,0,0,1,2.1-4.13,9.73,9.73,0,0,1,3.28-2.78,9.06,9.06,0,0,1,4.3-1,5.25,5.25,0,0,1,3.1.91,3.14,3.14,0,0,1,1.29,2.73,4.7,4.7,0,0,1-2.64,4.2q-2.65,1.55-8.54,2a9.45,9.45,0,0,0-.21,1.24c0,.4-.06.79-.06,1.16a5.66,5.66,0,0,0,1.15,3.68,4,4,0,0,0,3.36,1.43,4.62,4.62,0,0,0,1.41-.23,8.07,8.07,0,0,0,1.31-.56,11,11,0,0,0,1.13-.71l.88-.68ZM321.3,48.09a4.23,4.23,0,0,0-3,1.5,12.13,12.13,0,0,0-2.36,5,12.53,12.53,0,0,0,5.67-1.25,3.46,3.46,0,0,0,2-3.13,2.44,2.44,0,0,0-.47-1.45A2.21,2.21,0,0,0,321.3,48.09Z"/><path class="cls-9" d="M341.72,47.83a14.67,14.67,0,0,1,1.59-.78,11.55,11.55,0,0,1,1.67-.54l.6-2.85a5.8,5.8,0,0,1,1.22-.73c.47-.22.95-.42,1.45-.62l.79.45-.9,4.13h4.65a3.15,3.15,0,0,1,0,1,2.33,2.33,0,0,1-.38,1h-4.65L345.4,59.67c-.1.47-.18.89-.23,1.25a7.19,7.19,0,0,0-.07,1,1.69,1.69,0,0,0,.56,1.42,1.93,1.93,0,0,0,1.24.45,6.38,6.38,0,0,0,2-.36,15.55,15.55,0,0,0,2-.81l.41.68a4.51,4.51,0,0,1-1,1,11.5,11.5,0,0,1-1.52.9,11.11,11.11,0,0,1-1.77.67,6.12,6.12,0,0,1-1.74.26,4,4,0,0,1-2.59-.74,2.77,2.77,0,0,1-.94-2.32,8.4,8.4,0,0,1,.09-1.16c.06-.42.14-.86.24-1.31l2.48-11.73h-2.85Z"/><path class="cls-9" d="M357.71,39.72v-.87c.37-.15.79-.3,1.25-.47s1-.31,1.45-.45,1-.25,1.46-.34a11.63,11.63,0,0,1,1.36-.16l.78.33-3.37,15.77h.18a20.67,20.67,0,0,1,1.62-2.8,15.37,15.37,0,0,1,1.89-2.25,8.45,8.45,0,0,1,2.09-1.5,4.9,4.9,0,0,1,2.21-.54,3,3,0,0,1,2.5,1,3.91,3.91,0,0,1,.77,2.46,14.51,14.51,0,0,1-.19,2.18q-.19,1.16-.45,2.25l-2.14,9.23h2.78v1A6.72,6.72,0,0,1,368,65.88a2,2,0,0,1-1.5-.45,1.45,1.45,0,0,1-.41-1,6.85,6.85,0,0,1,.19-1.52c.12-.56.25-1.13.37-1.71L368,55c.18-.78.33-1.51.47-2.18a9.67,9.67,0,0,0,.21-2,2.72,2.72,0,0,0-.38-1.47,1.15,1.15,0,0,0-1-.6,3.67,3.67,0,0,0-2.25.83,11.21,11.21,0,0,0-2,2A16.69,16.69,0,0,0,361.35,54c-.48.84-.84,1.53-1.09,2.08l-2,9.57h-3.15l5.14-25.6Z"/><path class="cls-9" d="M390.44,62.31a5.36,5.36,0,0,1-1,1.39,7.32,7.32,0,0,1-1.5,1.22,7.9,7.9,0,0,1-1.95.87,8.36,8.36,0,0,1-2.33.31,6.22,6.22,0,0,1-4.78-1.78,6.9,6.9,0,0,1-1.67-4.93,16.5,16.5,0,0,1,.75-5,13.28,13.28,0,0,1,2.1-4.13,9.73,9.73,0,0,1,3.28-2.78,9.09,9.09,0,0,1,4.3-1,5.23,5.23,0,0,1,3.1.91,3.14,3.14,0,0,1,1.29,2.73,4.7,4.7,0,0,1-2.64,4.2c-1.77,1-4.61,1.69-8.54,2a9.45,9.45,0,0,0-.21,1.24c0,.4-.06.79-.06,1.16a5.72,5.72,0,0,0,1.15,3.68,4,4,0,0,0,3.36,1.43,4.62,4.62,0,0,0,1.41-.23,8.07,8.07,0,0,0,1.31-.56,11,11,0,0,0,1.13-.71l.88-.68ZM386.5,48.09a4.19,4.19,0,0,0-3,1.5,12,12,0,0,0-2.37,5,12.53,12.53,0,0,0,5.67-1.25,3.47,3.47,0,0,0,2-3.13,2.51,2.51,0,0,0-.47-1.45A2.24,2.24,0,0,0,386.5,48.09Z"/><path class="cls-9" d="M418,58.3A19.9,19.9,0,0,1,416.75,61,14.58,14.58,0,0,1,415,63.55a8.63,8.63,0,0,1-2.1,1.84,4.51,4.51,0,0,1-2.46.71q-3.9,0-3.9-5.7a17.79,17.79,0,0,1,.75-5.16,14.32,14.32,0,0,1,2.18-4.43,11.21,11.21,0,0,1,3.45-3.1,9.16,9.16,0,0,1,4.62-1.16,5.88,5.88,0,0,1,1.46.13,8.19,8.19,0,0,1,1.24.47l1.43-7.1-2.63-.33v-.94c.38-.15.79-.3,1.24-.43s.92-.27,1.41-.38l1.48-.32c.5-.1,1-.17,1.39-.22l.79.3-5.15,25.82H423v1a6.45,6.45,0,0,1-1.8,1,6.12,6.12,0,0,1-2.06.38,2.15,2.15,0,0,1-1.56-.47,1.4,1.4,0,0,1-.47-1,15.63,15.63,0,0,1,.26-2.22c.18-1,.44-2.33.79-3.9Zm-5.93,5.48a3,3,0,0,0,2-1,14,14,0,0,0,1.91-2.3,25.27,25.27,0,0,0,1.62-2.81c.47-1,.85-1.79,1.12-2.44l1.2-6.4a3.71,3.71,0,0,0-1-.5,5.76,5.76,0,0,0-1.33-.17,5.43,5.43,0,0,0-3.23,1.1A9.25,9.25,0,0,0,412,52a14,14,0,0,0-1.49,3.72,17.33,17.33,0,0,0-.5,4.05,7.38,7.38,0,0,0,.47,2.94A1.66,1.66,0,0,0,412.06,63.78Z"/><path class="cls-9" d="M439.5,58.3A22.4,22.4,0,0,1,438.28,61a14,14,0,0,1-1.69,2.51,8.72,8.72,0,0,1-2.12,1.84,4.6,4.6,0,0,1-2.48.71c-2.6,0-3.9-1.88-3.9-5.66a17.79,17.79,0,0,1,.75-5.13A14.77,14.77,0,0,1,431,50.86a11.15,11.15,0,0,1,3.47-3.13,9.06,9.06,0,0,1,4.63-1.18,5.19,5.19,0,0,1,1.51.17,14.39,14.39,0,0,1,1.35.5,6.74,6.74,0,0,1,3.15-.78l-3.38,17.11h2.74v1a6.45,6.45,0,0,1-1.8,1,6.12,6.12,0,0,1-2.06.38,2.15,2.15,0,0,1-1.56-.47,1.4,1.4,0,0,1-.47-1,15.63,15.63,0,0,1,.26-2.22c.18-1,.44-2.33.79-3.9Zm-5.93,5.48a3,3,0,0,0,2-1,14,14,0,0,0,1.91-2.3,23.71,23.71,0,0,0,1.61-2.81c.48-1,.86-1.79,1.13-2.44l1.2-6.4a3.6,3.6,0,0,0-1-.52,4.83,4.83,0,0,0-1.35-.15A5.1,5.1,0,0,0,436,49.27a9.33,9.33,0,0,0-2.4,2.75A14.7,14.7,0,0,0,432,55.76a16,16,0,0,0-.54,4.05,7.2,7.2,0,0,0,.47,2.94A1.66,1.66,0,0,0,433.57,63.78Z"/><path class="cls-9" d="M450.09,47.83a14.67,14.67,0,0,1,1.59-.78,11.17,11.17,0,0,1,1.67-.54l.6-2.85a5.8,5.8,0,0,1,1.22-.73c.46-.22.95-.42,1.45-.62l.79.45-.91,4.13h4.66a3.15,3.15,0,0,1,0,1,2.47,2.47,0,0,1-.38,1h-4.65l-2.37,10.83c-.1.47-.17.89-.22,1.25a7.3,7.3,0,0,0-.08,1,1.69,1.69,0,0,0,.57,1.42,1.93,1.93,0,0,0,1.24.45,6.28,6.28,0,0,0,2-.36,15,15,0,0,0,2-.81l.42.68a4.59,4.59,0,0,1-1,1,10.89,10.89,0,0,1-1.52.9,10.65,10.65,0,0,1-1.76.67,6.19,6.19,0,0,1-1.75.26,4.05,4.05,0,0,1-2.59-.74,2.8,2.8,0,0,1-.93-2.32,8.4,8.4,0,0,1,.09-1.16c.06-.42.14-.86.24-1.31l2.48-11.73h-2.85Z"/><path class="cls-9" d="M476.92,62.31a5.31,5.31,0,0,1-1,1.39,7.91,7.91,0,0,1-1.5,1.22,8.15,8.15,0,0,1-2,.87,8.29,8.29,0,0,1-2.32.31,6.23,6.23,0,0,1-4.79-1.78,6.94,6.94,0,0,1-1.67-4.93,16.5,16.5,0,0,1,.75-5,13.28,13.28,0,0,1,2.1-4.13,9.76,9.76,0,0,1,3.29-2.78,9.06,9.06,0,0,1,4.3-1,5.2,5.2,0,0,1,3.09.91,3.12,3.12,0,0,1,1.3,2.73,4.69,4.69,0,0,1-2.65,4.2q-2.64,1.55-8.54,2a8,8,0,0,0-.2,1.24c0,.4-.06.79-.06,1.16a5.72,5.72,0,0,0,1.14,3.68,4.08,4.08,0,0,0,3.36,1.43,4.53,4.53,0,0,0,1.41-.23,8.57,8.57,0,0,0,1.32-.56,10.78,10.78,0,0,0,1.12-.71c.34-.25.63-.48.88-.68ZM473,48.09a4.23,4.23,0,0,0-3,1.5,12,12,0,0,0-2.36,5,12.52,12.52,0,0,0,5.66-1.25,3.47,3.47,0,0,0,2-3.13,2.51,2.51,0,0,0-.47-1.45A2.22,2.22,0,0,0,473,48.09Z"/><path class="cls-9" d="M483.31,63.51a2.34,2.34,0,0,1,.71-1.8,2.56,2.56,0,0,1,1.84-.67,2.6,2.6,0,0,1,1.87.67,2.35,2.35,0,0,1,.72,1.8,2.31,2.31,0,0,1-.72,1.77,2.6,2.6,0,0,1-1.87.67,2.56,2.56,0,0,1-1.84-.67A2.31,2.31,0,0,1,483.31,63.51Zm2.92-6,.15-6.61,2.26-11.11a4.5,4.5,0,0,1,1.87-.41,3.6,3.6,0,0,1,1.73.41l-2.48,11.11-2.55,6.61Z"/><path class="cls-9" d="M139.65,122.94h-16v-2q1.16-.51,2.34-.9c.78-.26,1.58-.49,2.38-.67V98.18l.18-2.73a12.51,12.51,0,0,1-2.68.56,22.42,22.42,0,0,1-2.86.09l-.23-1.71a51.32,51.32,0,0,0,5.33-1.75,33,33,0,0,0,5.34-2.59H135v29.34c.77.18,1.54.41,2.31.67s1.54.56,2.31.9Z"/><path class="cls-9" d="M167.6,122.94h-16v-2q1.15-.51,2.34-.9c.78-.26,1.58-.49,2.38-.67V98.18l.18-2.73a12.51,12.51,0,0,1-2.68.56,22.42,22.42,0,0,1-2.86.09l-.23-1.71a51.32,51.32,0,0,0,5.33-1.75,33,33,0,0,0,5.34-2.59H163v29.34c.77.18,1.54.41,2.31.67s1.54.56,2.31.9Z"/><path class="cls-9" d="M177.07,107.84h13V112h-13Z"/><path class="cls-9" d="M201.51,100.86h-1.57c-.19-.46-.39-1-.63-1.62s-.47-1.26-.71-1.94-.48-1.34-.69-2a17.84,17.84,0,0,1-.51-1.82,14.36,14.36,0,0,1,4.13-2.4,16.33,16.33,0,0,1,6.12-1,13.32,13.32,0,0,1,4.39.65,8.43,8.43,0,0,1,3.07,1.8,7.12,7.12,0,0,1,1.81,2.68,9.27,9.27,0,0,1,.57,3.28,11.49,11.49,0,0,1-1.29,5.33,24.18,24.18,0,0,1-3.19,4.72,39.9,39.9,0,0,1-4.06,4.06L205,116l-2.4,1.61v.19l2.82-.28h7.94l2.27-5.17h1.57q.14,1.11.3,2.58c.1,1,.21,2,.3,3s.17,2,.23,2.86.09,1.64.09,2.19H197v-3c.8-.71,1.71-1.53,2.73-2.47s2-2,3.09-3.1,2.08-2.32,3.1-3.58a37.11,37.11,0,0,0,2.72-3.86,21.43,21.43,0,0,0,1.92-4,11.89,11.89,0,0,0,.72-4,6.13,6.13,0,0,0-1.37-4.13,4.79,4.79,0,0,0-3.85-1.6,9.72,9.72,0,0,0-1.41.1,10.59,10.59,0,0,0-1.41.32Z"/><path class="cls-9" d="M244.47,122.94h-16v-2c.77-.34,1.55-.64,2.33-.9s1.58-.49,2.38-.67V98.18l.19-2.73a12.77,12.77,0,0,1-2.68.56,22.58,22.58,0,0,1-2.87.09l-.23-1.71A52.23,52.23,0,0,0,233,92.64a33.35,33.35,0,0,0,5.33-2.59h1.57v29.34c.77.18,1.54.41,2.31.67s1.54.56,2.31.9Z"/><path class="cls-9" d="M253.94,107.84h13V112h-13Z"/><path class="cls-9" d="M278.38,100.86h-1.57c-.18-.46-.39-1-.62-1.62l-.72-1.94q-.36-1-.69-2a17.84,17.84,0,0,1-.51-1.82,14.56,14.56,0,0,1,4.14-2.4,16.33,16.33,0,0,1,6.12-1,13.36,13.36,0,0,1,4.39.65A8.51,8.51,0,0,1,292,92.5a7,7,0,0,1,1.8,2.68,9.05,9.05,0,0,1,.58,3.28,11.49,11.49,0,0,1-1.29,5.33,24.63,24.63,0,0,1-3.19,4.72,40,40,0,0,1-4.07,4.06l-3.93,3.4-2.4,1.61v.19l2.82-.28h7.95l2.26-5.17h1.57q.14,1.11.3,2.58c.11,1,.21,2,.3,3s.17,2,.23,2.86.1,1.64.1,2.19H273.86v-3c.8-.71,1.71-1.53,2.72-2.47s2.05-2,3.1-3.1,2.08-2.32,3.09-3.58A35.77,35.77,0,0,0,285.5,107a21.43,21.43,0,0,0,1.92-4,12.13,12.13,0,0,0,.71-4,6.12,6.12,0,0,0-1.36-4.13,4.82,4.82,0,0,0-3.86-1.6,9.94,9.94,0,0,0-1.41.1,11.34,11.34,0,0,0-1.41.32Z"/><path class="cls-9" d="M300.88,106.77a26.32,26.32,0,0,1,.9-7.27,15.85,15.85,0,0,1,2.5-5.22,10.42,10.42,0,0,1,3.79-3.17,10.77,10.77,0,0,1,4.78-1.06,10.52,10.52,0,0,1,8.78,4.18q3.22,4.18,3.23,12.54a26.35,26.35,0,0,1-.9,7.28,15.32,15.32,0,0,1-2.54,5.22,10.78,10.78,0,0,1-3.91,3.17,11.59,11.59,0,0,1-4.94,1.06,10.7,10.7,0,0,1-5-1.13,10.25,10.25,0,0,1-3.67-3.28,15.68,15.68,0,0,1-2.27-5.25A30.1,30.1,0,0,1,300.88,106.77Zm6.93,0q0,3.32.21,5.92a21,21,0,0,0,.76,4.43,7,7,0,0,0,1.46,2.78,3,3,0,0,0,2.28,1,4.24,4.24,0,0,0,2.66-.78,5.17,5.17,0,0,0,1.66-2.47,17.37,17.37,0,0,0,.86-4.36q.23-2.67.23-6.48,0-3.3-.18-5.92a22.13,22.13,0,0,0-.72-4.43,6.22,6.22,0,0,0-1.53-2.77,3.6,3.6,0,0,0-2.65-1,3.79,3.79,0,0,0-2.45.78,5.3,5.3,0,0,0-1.55,2.48,19.62,19.62,0,0,0-.81,4.39Q307.81,103,307.81,106.77Z"/><path class="cls-9" d="M334.28,100.86h-1.57c-.18-.46-.39-1-.62-1.62l-.72-1.94q-.36-1-.69-2a17.84,17.84,0,0,1-.51-1.82,14.56,14.56,0,0,1,4.14-2.4,16.33,16.33,0,0,1,6.12-1,13.36,13.36,0,0,1,4.39.65,8.51,8.51,0,0,1,3.07,1.8,7,7,0,0,1,1.8,2.68,9.05,9.05,0,0,1,.58,3.28,11.49,11.49,0,0,1-1.29,5.33,24.63,24.63,0,0,1-3.19,4.72,40,40,0,0,1-4.07,4.06L337.8,116l-2.41,1.61v.19l2.82-.28h8l2.26-5.17H350q.13,1.11.3,2.58c.11,1,.21,2,.3,3s.17,2,.23,2.86.1,1.64.1,2.19H329.76v-3c.8-.71,1.71-1.53,2.72-2.47s2-2,3.1-3.1,2.08-2.32,3.09-3.58A35.77,35.77,0,0,0,341.4,107a21.43,21.43,0,0,0,1.92-4,12.13,12.13,0,0,0,.71-4,6.12,6.12,0,0,0-1.36-4.13,4.81,4.81,0,0,0-3.86-1.6,9.94,9.94,0,0,0-1.41.1,11.34,11.34,0,0,0-1.41.32Z"/><path class="cls-9" d="M356.78,106.77a26.32,26.32,0,0,1,.9-7.27,15.85,15.85,0,0,1,2.5-5.22A10.42,10.42,0,0,1,364,91.11a10.77,10.77,0,0,1,4.78-1.06,10.52,10.52,0,0,1,8.78,4.18q3.23,4.18,3.23,12.54a26.35,26.35,0,0,1-.9,7.28,15.32,15.32,0,0,1-2.54,5.22,10.7,10.7,0,0,1-3.91,3.17,11.55,11.55,0,0,1-4.94,1.06,10.7,10.7,0,0,1-5-1.13,10.25,10.25,0,0,1-3.67-3.28,15.68,15.68,0,0,1-2.27-5.25A30.1,30.1,0,0,1,356.78,106.77Zm6.93,0q0,3.32.21,5.92a21,21,0,0,0,.76,4.43,7,7,0,0,0,1.46,2.78,3,3,0,0,0,2.29,1,4.23,4.23,0,0,0,2.65-.78,5.17,5.17,0,0,0,1.66-2.47,17.37,17.37,0,0,0,.86-4.36q.22-2.67.23-6.48,0-3.3-.18-5.92a22.13,22.13,0,0,0-.72-4.43,6.21,6.21,0,0,0-1.52-2.77,3.64,3.64,0,0,0-2.66-1,3.79,3.79,0,0,0-2.45.78,5.3,5.3,0,0,0-1.55,2.48,19.62,19.62,0,0,0-.81,4.39Q363.72,103,363.71,106.77Z"/><path class="cls-9" d="M401.83,90.6h3.23V129h-3.23Z"/><path class="cls-9" d="M446.55,122.94h-16v-2c.77-.34,1.55-.64,2.33-.9s1.58-.49,2.38-.67V98.18l.19-2.73a12.64,12.64,0,0,1-2.68.56,22.52,22.52,0,0,1-2.87.09l-.23-1.71A51.44,51.44,0,0,0,435,92.64a33.88,33.88,0,0,0,5.34-2.59h1.57v29.34c.77.18,1.54.41,2.31.67s1.54.56,2.31.9Z"/><path class="cls-9" d="M456,107.84h13V112H456Z"/><path class="cls-9" d="M485.82,120.5a4.8,4.8,0,0,0,2.07-.49,6,6,0,0,0,1.83-1.36A6.94,6.94,0,0,0,491.5,114a6.34,6.34,0,0,0-.53-2.7,5.55,5.55,0,0,0-1.39-1.87,5.32,5.32,0,0,0-2-1.09,7.44,7.44,0,0,0-2.22-.34h-2.68v-1.85l6.93-9.06,1.57-1.62v-.18l-2.49.28h-7l-1.8,4.71h-1.57c-.16-.65-.32-1.42-.49-2.31s-.32-1.79-.46-2.68-.25-1.76-.32-2.59S477,91.16,477,90.6h20.14v2.27l-8,9.75-2,2v.09l1.57-.32a11.37,11.37,0,0,1,3.9.81,8.3,8.3,0,0,1,2.91,1.94,8.18,8.18,0,0,1,1.8,2.84,9.72,9.72,0,0,1,.63,3.56,8.63,8.63,0,0,1-1,4.15,9.79,9.79,0,0,1-2.65,3.14,11.84,11.84,0,0,1-3.88,2,16,16,0,0,1-4.67.67,18.45,18.45,0,0,1-2.77-.21,17.87,17.87,0,0,1-2.61-.58,13.34,13.34,0,0,1-2.22-.87,8.83,8.83,0,0,1-1.69-1.11l1.71-4.81h1.34l.76.86c.33.35.67.73,1,1.13l1,1.2.88,1c.31.06.65.13,1,.23A7,7,0,0,0,485.82,120.5Z"/><path class="cls-9" d="M513.54,119.85a19.42,19.42,0,0,1,2.47.53,13.93,13.93,0,0,1,2.19.81v1.75H502.82v-1.75a9,9,0,0,1,1.87-.83,15.56,15.56,0,0,1,1.91-.51V93.7a12.35,12.35,0,0,1-2-.53,9.76,9.76,0,0,1-1.75-.81V90.6h5.82q1.85,0,4.23-.18c1.58-.12,3-.19,4.36-.19a23.63,23.63,0,0,1,4.78.49,12.36,12.36,0,0,1,4.16,1.64,8.63,8.63,0,0,1,2.93,3.07,9.42,9.42,0,0,1,1.11,4.78,9.76,9.76,0,0,1-1.08,4.72,9.92,9.92,0,0,1-2.89,3.28,12.5,12.5,0,0,1-4.16,1.91,18.7,18.7,0,0,1-4.85.63h-.74l-1.08,0-1.11,0a6.37,6.37,0,0,1-.76-.07ZM516,93.24a11.23,11.23,0,0,0-1.46.07,7,7,0,0,0-1,.2v14a4.43,4.43,0,0,0,1.24.16c.56,0,1,0,1.34,0a7,7,0,0,0,2.4-.41,5.67,5.67,0,0,0,2.06-1.3,6.45,6.45,0,0,0,1.46-2.26,9.14,9.14,0,0,0,.55-3.33q0-3.69-1.8-5.45A6.53,6.53,0,0,0,516,93.24Z"/><path class="cls-9" d="M575.3,122.94H561.49v-1.75a19.41,19.41,0,0,1,1.8-.79,15.78,15.78,0,0,1,1.9-.55V100.54l.23-5.41h-.37l-1.53,4.94-8.91,22.87h-2.13l-8.87-22.68L542,94.85h-.42l.05,5.87v18.94a14.38,14.38,0,0,1,1.94.6,16.48,16.48,0,0,1,2,.93v1.75H534.23v-1.75c.49-.25,1.1-.54,1.83-.88a8.54,8.54,0,0,1,2.05-.69V93.7a17.83,17.83,0,0,1-2-.51,7.32,7.32,0,0,1-1.83-.83V90.6h12.52l7.07,18.81,1.34,4.43h0l1.39-4.52,7.2-18.72h11.46v1.76a11,11,0,0,1-1.69.81,10.79,10.79,0,0,1-1.82.53v26.2a9.15,9.15,0,0,1,1.87.55,17.32,17.32,0,0,1,1.59.74Z"/><path d="M323.05,5c0-1.87-1.66-2.86-3.52-2.86s-3.74,1-3.74,2.86,1.87,3.2,3.74,3.2A3.36,3.36,0,0,0,323.05,5Z"/><path class="cls-10" d="M323.05,5c0-1.87-1.66-2.86-3.52-2.86s-3.74,1-3.74,2.86,1.87,3.2,3.74,3.2A3.36,3.36,0,0,0,323.05,5Z"/><path d="M323.28,270.44c0-1.86-1.89-3.13-3.75-3.13s-3.83,1.27-3.83,3.13a4.24,4.24,0,0,0,3.83,3.88A4.17,4.17,0,0,0,323.28,270.44Z"/><path class="cls-10" d="M323.28,270.44c0-1.86-1.89-3.13-3.75-3.13s-3.83,1.27-3.83,3.13a4.24,4.24,0,0,0,3.83,3.88A4.17,4.17,0,0,0,323.28,270.44Z"/></g></g></g></svg>