<svg xmlns="http://www.w3.org/2000/svg" viewBox="0 0 656.88 1605.43"><defs><style>.cls-1{fill:#8e9b91;}.cls-2,.cls-3,.cls-5,.cls-7{fill:none;}.cls-2{stroke:#677d70;}.cls-2,.cls-3,.cls-7{stroke-linecap:round;stroke-linejoin:round;}.cls-2,.cls-3{stroke-width:3.61px;}.cls-3,.cls-7{stroke:#000;}.cls-4{fill:#e6b49d;}.cls-5{stroke:#e6b49d;stroke-miterlimit:10;stroke-width:4.33px;}.cls-6{fill:#fff;}.cls-7{stroke-width:5.48px;}</style></defs><g id="Layer_2" data-name="Layer 2"><g id="sect9"><g id="bg"><g id="left1"><path class="cls-1" d="M244.42,1117.4a36.66,36.66,0,0,0,2.29-3.62c.63-1.12,1.24-2.5,2.11-3.92.72-1.19,1.75-2.29,2.61-3.6s1.09-2.79,2-4,2.24-2,3.15-3.2,1.37-2.7,2.33-3.83,2.11-2.12,3.14-3.16a39.3,39.3,0,0,1,3.46-2.75c1-.86,2.14-1.9,3.5-2.88,1.15-.84,2.25-1.93,3.57-2.83s2.53-1.6,3.85-2.46,2.69-1.37,4-2.19,2.56-1.63,3.85-2.43,2.23-2.22,3.52-3,3-1,4.27-1.75,2.36-2.12,3.62-2.86,3-1.07,4.24-1.79c1.48-.86,2.89-1.51,4-2.15,2.46-1.42,2.92-.58,4.2-2.46s.16-2.53,1.1-4.58,1.14-2,2.08-4,1.09-2,2-4,.31-2.33,1.25-4.39,2.64-1.64,2.67-3.89-2.42.06-4.67-1.11a20,20,0,0,1-3.72-2.51,16.54,16.54,0,0,1-2.63-3.62,13.87,13.87,0,0,1-1.64-4.06c-.37-1.51,0-3-.15-4.28-.24-1.59-1.6-2.88-1.62-4.12a20.91,20.91,0,0,1,.32-4.37c.58-2.81,1.66-1.58,1.62-3.69-.05-2.59-.2-1.8-1.14-4.81-.45-1.41-1.38-3-1.6-4.93a31.1,31.1,0,0,1,.17-5.2,29,29,0,0,1,.48-5.18,32.18,32.18,0,0,1,1.39-5.07c.57-1.35,1.9-2.55,2.91-3.93A36.71,36.71,0,0,1,310,981c1.06-1.11,2-2.45,3.24-3.54s2.52-1.93,3.78-2.94,2.68-1.73,4-2.67,2.62-1.81,3.93-2.69,2.5-2.05,3.81-2.89,3.21-1,4.52-1.76,2.41-2.39,3.69-3.12c1.55-.89,3.15-1.33,4.35-2,2.59-1.41,1.83-1.68,4.19-2s1.71.55,4.69,1.19c1.39.3,3,.55,4.83,1,1.49.37,3.38-.21,5.05.28s3,1.3,4.63,1.84,3.09,1.12,4.64,1.73,3.27.86,4.75,1.56,2.44,2,3.46,2.72a10.1,10.1,0,0,1,2.78,3.14,4.75,4.75,0,0,1,1,3.76c-.21,1.45.09,3.12-.47,4.35-.7,1.57-1.63,2.55-.65,3.66s1.67,3.09,2.91,4.44,3.35,1.87,4.27,3.29a12.36,12.36,0,0,1,2,5.08c.12,1.25-.5,2.73-.75,4.11s-1.29,2.55-1.66,3.74c-.69,2.2-1.73,2.11-1.34,4.1.46,2.28,1.45,1.44,2.73,3.92a19.73,19.73,0,0,1,2,4.14c.37,1.37,1.39,2.83,1.49,4.5s-1,3.06-1,4.23c0,1.65.61,2.94.38,4.19a23.8,23.8,0,0,1-1.34,4c-.42,1.09-1.15,2.26-1.8,3.79-.5,1.18-1.25,2.56-1.95,4.16-.57,1.32-1.07,2.79-1.71,4.25s-1.62,2.64-2.24,4-.15,3.36-.74,4.7c-.69,1.54-1.67,2.81-2.22,4a14.2,14.2,0,0,1-2.05,3.52c2.31,0,2.31.76,4.62.76s2.31-.76,4.62-.76,2.31.77,4.63.77,2.31-.61,4.62-.61,2.31,1,4.63,1,2.31-.65,4.62-.65,2.31-.26,4.62-.26,2.32,0,4.63,0,2.32.68,4.63.68,2.92,1.29,4.53-.38-.59-2.29-.59-4.69,1.31-2.4,1.31-4.8-.29-2.4-.29-4.8-.44-2.4-.44-4.8.45-2.4.45-4.81-.76-2.4-.76-4.8-.16-2.4-.16-4.8,1.24-2.4,1.24-4.8-.47-2.4-.47-4.8.4-2.4.4-4.81-.25-2.4-.25-4.8-.54-2.4-.54-4.8,0-2.4,0-4.8.23-2.41.23-4.81.45-2.4.45-4.8-.18-2.4-.18-4.8,0-2.4,0-4.8-.2-2.4-.2-4.8-.1-2.4-.1-4.8-.18-2.41-.18-4.81.06-2.4.06-4.8.53-2.41.53-4.81-.16-2.4-.16-4.8-.92-2.4-.92-4.81,1-2.4,1-4.8S423,939,423,936.57s2.43-3.37.75-5.09-2.64.72-5,.72S416.35,932,414,932s-2.36.22-4.72.22-2.36.14-4.72.14-2.36-1.11-4.72-1.11-2.35.54-4.71.54-2.36.61-4.72.61-2.36-.58-4.71-.58-2.36-.17-4.73-.17-2.35-.33-4.71-.33-2.36.86-4.72.86-2.36.32-4.72.32-2.36-.16-4.72-.16-2.36-.18-4.72-.18-2.36.29-4.71.29S350.31,932,348,932s-2.36-1-4.72-1-2.36,1.22-4.72,1.22-2.36.12-4.72.12-2.36-.85-4.72-.85-2.36-.24-4.72-.24-2.36-.26-4.73-.26-2.36.6-4.72.6-2.36-.28-4.72-.28-2.36-.15-4.72-.15-2.36,1.2-4.72,1.2-2.36-1.37-4.72-1.37-2.36,1.28-4.72,1.28-2.36-.21-4.72-.21-2.36-.07-4.72-.07-2.36-.45-4.72-.45-2.36.62-4.72.62-2.37-1-4.73-1-2.36.34-4.72.34-2.36.25-4.72.25-2.37-.43-4.73-.43-2.36,0-4.73,0-2.61-.9-4.27.77-.73,1.93-.73,4.31.11,2.37.11,4.75-.51,2.38-.51,4.75,1.25,2.38,1.25,4.76-.28,2.38-.28,4.76-.45,2.38-.45,4.76.11,2.38.11,4.76.4,2.37.4,4.75-.34,2.38-.34,4.76-.27,2.38-.27,4.76.36,2.38.36,4.76,0,2.38,0,4.75-.19,2.38-.19,4.76,0,2.38,0,4.76.25,2.38.25,4.76-.09,2.38-.09,4.76-.31,2.38-.31,4.76.81,2.38.81,4.76-.9,2.38-.9,4.76.06,2.38.06,4.76.44,2.38.44,4.76-.11,2.38-.11,4.76.27,2.38.27,4.76,0,2.38,0,4.76.21,2.39.21,4.77-.34,2.38-.34,4.76.34,2.38.34,4.76-.78,2.37-.78,4.75,0,2.38,0,4.76,1,2.38,1,4.76-.68,2.38-.68,4.76-.39,2.39-.39,4.77,0,2.38,0,4.76,1,2.38,1,4.76-.71,2.39-.71,4.77.81,2.38.81,4.76-1.25,2.38-1.25,4.76,0,2.41.08,4.8S244.42,1115,244.42,1117.4Z"/><path class="cls-2" d="M363.93,1114.86c0-2.19.55-2.19.55-4.38s-.39-2.2-.39-4.39,0-2.2,0-4.4-1.56-2.66.07-4.14c1.8-1.62,2.2-.22,4.63-.22s2.43.58,4.86.58,2.43-.32,4.87-.32,2.43-.47,4.86-.47"/><path class="cls-2" d="M363.93,1214.49c0-2.39.55-2.39.55-4.78s-.39-2.39-.39-4.78,0-2.38,0-4.77.18-2.39.18-4.78-.31-2.38-.31-4.77.58-2.39.58-4.78-.32-2.39-.32-4.77-.47-2.39-.47-4.78-.18-2.39-.18-4.78.94-2.39.94-4.78-.17-2.39-.17-4.78.29-2.39.29-4.78-.64-2.39-.64-4.78.65-2.4.65-4.79"/><path class="cls-2" d="M304.69,1215.73c0-2.09.55-2.09.55-4.17s-.4-2.09-.4-4.18,0-2.09,0-4.19.17-2.09.17-4.18"/><path class="cls-2" d="M329.06,1184c0,2.27-.55,2.27-.55,4.53s.4,2.27.4,4.53,0,2.27,0,4.53-.18,2.27-.18,4.53.31,2.27.31,4.54-.57,2.27-.57,4.54.31,2.27.31,4.54"/><path class="cls-1" d="M168.85,1481.72c2.63.63,2.41,1,4.75,2.36s2.62.87,5,2.22,1.69,2.49,4,3.84,2.91.37,5.25,1.72,2.33,1.37,4.67,2.72,1.76,2.36,4.1,3.71,2.43,1.19,4.78,2.54,2.63.84,5,2.2,2.94.61,4.8,2.57c1.62,1.71-1.67.84-3.1,3.75-.56,1.13-.31,2.88-.85,4.7a37.62,37.62,0,0,0-1.41,4.46,10.74,10.74,0,0,1-2.06,5.18,4.75,4.75,0,0,1-5.53,1,54.38,54.38,0,0,1-4.78-2.92c-1-.57-2.05-2.79-4.24-4-1.5-.85-3.63-1-5.38-2s-3.67-1.27-5.3-2.18c-1.78-1-3.13-2.58-4.61-3.4-2.93-1.62-4.13,0-5.39-2.53-1.17-2.35.53-2.27.95-5.43.19-1.51,0-3.27.09-5.21.09-1.65.63-3.37.57-5.2a48.64,48.64,0,0,0-.08-5.25A33.64,33.64,0,0,0,168.85,1481.72Z"/><path class="cls-1" d="M291,1355.55c-2.15,1.81-.46,2.32-.91,5.08s-1.16,2.66-1.61,5.43.37,2.9-.07,5.66-1.29,2.64-1.74,5.41-.25,2.8-.7,5.57a10.74,10.74,0,0,0,0,5.43c.47,2.59,1.72.24,4,2.63,1,1,1.68,2.88,2.67,4.72.73,1.36.68,3.23,1.26,5.13.47,1.52,1.44,3.05,1.74,5,.26,1.61,1,3.32,1.12,5.22s-1.16,3.8-1.17,5.6.36,3.78.26,5.56c-.12,2-.1,3.82-.3,5.56-.23,2-.24,3.88-.53,5.55-.36,2.1-.59,4-1,5.51-.82,3.43-1.14,4.91-1.14,4.91,1.35,2.28-.31,2.42.87,5.46.55,1.41,1.83,2.83,2.35,4.75a50.87,50.87,0,0,1,.85,5.22,47.07,47.07,0,0,1,.16,5.25c.06,1.7,1.19,3.5,1,5.32-.17,2-1.18,3.83-1.67,5.67a40.91,40.91,0,0,1-2,5.46,51.72,51.72,0,0,1-2.4,5.32c-1.08,1.86-1.85,3.76-2.86,5.13-2.08,2.84-3.66,1.22-3.5,4.13s1.19,1.61,3.61,4.32c1.17,1.31,2.5,2.87,3.82,4.66a54.6,54.6,0,0,1,3.53,4.9,45,45,0,0,1,3,5.33,34.44,34.44,0,0,1,1.72,5.87c.31,1.46.14,3.48.33,5.74.14,1.71.92,3.6,1,5.66.07,1.8-.22,3.73-.19,5.72,0,1.84-1.09,3.76-1.09,5.71s1.38,3.78,1.37,5.7-1.17,3.79-1.2,5.69,1.24,3.86,1.19,5.74-1.56,3.81-1.61,5.66.22,3.89.15,5.71c-.07,2,.63,4,.56,5.73-.09,2.15-.24,4.07-.32,5.7-.16,3.55-3.57,5.33-.9,6.33s3.15-.75,6.05-.75,2.9-.35,5.8-.35,2.89.65,5.79.65l5.8,0c2.91,0,2.91.51,5.81.51s3.51,1.1,5.63-.88.84-2.53.84-5.25-1-2.71-1-5.43.34-2.72.34-5.43-.63-2.72-.63-5.44.62-2.71.62-5.43.37-2.72.37-5.43-.69-2.72-.69-5.44-.5-2.72-.5-5.43,1.54-2.72,1.54-5.44-.49-2.71-.49-5.43.08-2.71.08-5.43-.2-2.71-.2-5.42.5-2.72.5-5.43-.58-2.72-.58-5.44,0-2.71,0-5.43-.88-2.72-.88-5.43.9-2.72.9-5.43-.15-2.72-.15-5.44.62-2.71.62-5.43.08-2.72.08-5.43-.42-2.72-.42-5.44.49-2.71.49-5.43-1.11-2.72-1.11-5.43.55-2.72.55-5.44-.58-2.71-.58-5.43.2-2.72.2-5.44.31-2.71.31-5.43.56-2.72.56-5.43-.58-2.72-.58-5.44.21-2.72.21-5.43-.81-2.72-.81-5.44.78-2.72.78-5.44-.84-2.72-.84-5.43.61-2.72.61-5.43,0-2.72,0-5.44.2-2.72.2-5.43-.48-2.72-.48-5.44,1.14-2.72,1.14-5.44-.92-2.72-.92-5.44.73-2.71.73-5.43-.09-2.72-.09-5.44-.94-2.73-.94-5.45,2.09-3.26.13-5.15-2.55.27-5.38.27-2.83-.45-5.66-.45-2.83-.17-5.66-.17-2.83.6-5.66.6-2.83-.54-5.66-.54-2.83.6-5.66.6a25.86,25.86,0,0,1-5.69-.44C293.43,1354.78,293.12,1353.72,291,1355.55Z"/><path class="cls-1" d="M97.79,1355.62c-2.68-.09-2.66,0-5.35,0s-2.68-.3-5.37-.3-2.69.34-5.37.34-2.69-.42-5.37-.42-2.69.17-5.38.17-2.68.11-5.37.11-2.69-1.29-5.37-1.29-2.69.52-5.38.52-2.68.12-5.37.12-2.68.39-5.37.39-2.68.33-5.37.33-2.69.28-5.37.28-2.69-1.36-5.38-1.36-2.69,1.08-5.37,1.08H17.22c-2.68,0-2.68-.15-5.37-.15s-2.69-1-5.38-1-3.95-1.79-5.82.15,1.07,3.2,1.07,6-.35,2.79-.35,5.57.55,2.79.55,5.57-1.6,2.79-1.6,5.58.68,2.78.68,5.57-.35,2.79-.35,5.57,0,2.79,0,5.58-.1,2.78-.1,5.57.84,2.78.84,5.57.47,2.79.47,5.57-.8,2.79-.8,5.58.63,2.79.63,5.57.25,2.79.25,5.57-1.54,2.79-1.54,5.58.6,2.79.6,5.57.35,2.79.35,5.58-.13,2.79-.13,5.58-.23,2.78-.23,5.57-.48,2.78-.48,5.57-.16,2.79-.16,5.58,1.42,2.79,1.42,5.57-.56,2.79-.56,5.58-.51,2.79-.51,5.58-.18,2.79-.18,5.58-.15,2.79-.15,5.58.92,2.79.92,5.58-1.67,3.11.35,5,2.4.34,5.32.34,2.91.87,5.83.87,2.92-.21,5.85-.21,2.92,0,5.84,0,3,.12,5.73-.83.36-2,1.37-5.34c.49-1.62,1.24-3.47,1.91-5.5.57-1.75.64-3.81,1.33-5.7s2-3.41,2.69-5.21,1.1-3.83,1.92-5.53,2.85-3,3.81-4.54c1.14-1.85,1.32-4.28,2.52-5.44,1.44-1.4,2.91-2.44,4-3.6,1.49-1.55,2.67-2.85,3.62-4,2.47-2.89,4.64-1.35,4.43-4s-2.35-1.67-3.4-4.69c-.52-1.48.25-3.56-.14-5.49a31.54,31.54,0,0,1-1-5.17,26.8,26.8,0,0,1,0-5.3c.34-2.15,1.57-3.48,2.46-4.92a17.84,17.84,0,0,1,3.4-4.29,39.84,39.84,0,0,0,4-4c1.2-1.37,1.35-3,1.31-5.19,0-1.76.11-3.6,0-5.51s.63-3.67.64-5.55a29.43,29.43,0,0,1,.67-5.36c.33-1.75.05-3.65.86-5.42.71-1.57,2.1-2.79,3.32-4.36s1.51-3.29,2.58-4.41c1.27-1.32,2.41-2.58,3.55-3.63,1.34-1.22,2.64-2.22,3.73-3.34a16.88,16.88,0,0,0,2.62-4.11c.73-1.35,1.76-2.55,2.08-4.42a20.6,20.6,0,0,1,2-5.1c.8-1.69,1-3.81,2.13-5.19,1.21-1.54,3.57-1.86,4.87-2.89C95.17,1356.53,96.49,1355.75,97.79,1355.62Z"/><path class="cls-3" d="M69.42,1457.61c-2.38,1-1.39,1.12-4.08,3-1.18.82-3.45.72-4.93,2-1.16,1-1.63,3-2.91,4.4-1.08,1.17-1.89,2.66-3,4.1-1,1.28-2.2,2.46-3.2,4s-1.72,2.81-2.6,4.37-1.66,2.89-2.43,4.49-1.84,3-2.64,4.9c-.68,1.59-1.06,3.44-1.79,5.28-.65,1.64-2,3.09-2.74,4.91s-.92,3.56-1.58,5.35-.44,3.74-1.08,5.53-1.51,3.36-2.14,5.15-2,3.21-2.59,5-1,3.55-1.64,5.32l-1.78,5.28c-.59,1.77-.42,3.78-1,5.54s-2.12,3.23-2.7,5-.14,3.88-.7,5.62-1.81,3.35-2.37,5.09-1.35,3.51-1.91,5.24-1.32,3.54-1.86,5.25,0,4-.56,5.66c-.6,1.88-2,3.4-2.5,5-.62,2-1.53,3.63-2,5.2-.71,2.21-.14,4.38-.56,5.67"/><path class="cls-2" d="M299.8,1600.81c2.66,0,2.66-.49,5.31-.49s2.65.66,5.3.66,2.65-1.45,5.3-1.45,2.66,1.39,5.31,1.39,3.58,1.28,5.54-.51c1.79-1.63-.25-2.67-.25-5.09s-.66-2.43-.66-4.85.48-2.43.48-4.85-.43-2.43-.43-4.85.65-2.43.65-4.85.46-2.42.46-4.85-1.28-2.42-1.28-4.85.84-2.42.84-4.85.32-2.42.32-4.85.35-2.42.35-4.85-.33-2.42-.33-4.85-.62-2.42-.62-4.85,1-2.42,1-4.85-.35-2.42-.35-4.85.4-2.42.4-4.85S326,1525,326,1522.57s.06-2.42.06-4.84-.58-2.42-.58-4.85.32-2.42.32-4.84,1.31-2.42,1.31-4.85-.49-2.42-.49-4.85-.46-2.42-.46-4.85.6-2.42.6-4.84-.75-2.43-.75-4.85.31-2.43.31-4.85-.52-2.43-.52-4.85-.07-2.43-.07-4.85.47-2.42.47-4.85.68-2.42.68-4.85-.35-2.42-.35-4.85-.38-2.42-.38-4.85-.53-2.42-.53-4.85v-4.85c0-2.42.5-2.42.5-4.85s.66-2.42.66-4.85-.77-2.42-.77-4.85,0-2.42,0-4.85,1-2.43,1-4.85-1.35-2.43-1.35-4.86,1.24-2.42,1.24-4.85-1-2.42-1-4.85.37-2.43.37-4.85-.38-2.43-.38-4.85.71-2.43.71-4.85-.07-2.43-.07-4.86-.76-2.42-.76-4.84.64-2.43.64-4.85-1-2.43-1-4.86.78-2.43.78-4.85-.07-2.43-.07-4.86.1-2.42.1-4.85-.17-2.43-.17-4.85.8-2.43.8-4.86-.19-2.43-.19-4.86,1.64-3.49-.08-5.21-2.78,0-5.21,0-2.43.86-4.86.86-2.43-.51-4.86-.51-2.43-.12-4.86-.12-2.43-.32-4.86-.32-2.43-.09-4.86-.09-2.43.57-4.86.57-2.43-.51-4.86-.51-2.43.53-4.86.53-2.43.73-4.86.73-2.43-.59-4.86-.59-2.43-.42-4.86-.42-2.43,1-4.86,1-2.43-.31-4.87-.31-2.43.15-4.86.15-2.43-1.16-4.86-1.16-2.43.34-4.86.34-2.43.53-4.86.53-2.43,0-4.86,0-2.43.31-4.86.31-2.43-1-4.86-1-2.43.46-4.86.46-2.43-.72-4.87-.72-2.43.75-4.86.75-2.43.4-4.86.4-2.43-.47-4.86-.47-2.43-.06-4.86-.06-2.42.89-4.85.89-2.43-1.12-4.86-1.12-2.43.45-4.86.45-2.43-.06-4.86-.06l-4.86,0c-2.43,0-2.43-.35-4.86-.35s-2.43,1.11-4.86,1.11-2.43-.85-4.86-.85-2.43.63-4.86.63-2.43-.21-4.86-.21-2.43.43-4.86.43-2.43-.59-4.86-.59-2.43-.74-4.87-.74-2.43,1.11-4.86,1.11-2.43.08-4.86.08-2.43-1.48-4.86-1.48-2.43,1.51-4.86,1.51-2.43,0-4.87,0-2.43-1.12-4.86-1.12-2.43-.08-4.86-.08-2.43,1-4.86,1-2.44.32-4.87.32-2.43-.68-4.86-.68-2.43-.83-4.87-.83-2.43,1.16-4.86,1.16H68.69c-2.43,0-2.43-.14-4.86-.14s-2.43-1-4.86-1-2.43,1.54-4.86,1.54-2.43-.21-4.87-.21-2.43-1.28-4.86-1.28-2.44.7-4.87.7-2.43.06-4.86.06-2.44.19-4.87.19-2.43-.1-4.86-.1-2.44.59-4.87.59-2.44-.48-4.88-.48-3.56-2.41-5.29-.7-.07,2.85-.07,5.28.38,2.42.38,4.84-.53,2.43-.53,4.85.15,2.43.15,4.85.87,2.43.87,4.85-1,2.43-1,4.85.25,2.43.25,4.85,1.08,2.43,1.08,4.85-.44,2.42-.44,4.85-.23,2.42-.23,4.85.34,2.42.34,4.85-.5,2.42-.5,4.85.15,2.42.15,4.85-.05,2.42-.05,4.85.61,2.42.61,4.84,0,2.43,0,4.85-1,2.42-1,4.85.51,2.42.51,4.84-.45,2.42-.45,4.84,1,2.43,1,4.85.22,2.43.22,4.85-.67,2.43-.67,4.85.11,2.43.11,4.85-.43,2.42-.43,4.84.28,2.43.28,4.85-.67,2.43-.67,4.85.46,2.43.46,4.85.91,2.43.91,4.85-1.2,2.43-1.2,4.85,1.17,2.43,1.17,4.85-.78,2.43-.78,4.85-.33,2.42-.33,4.85-.16,2.42-.16,4.85.51,2.42.51,4.85-.77,2.43-.77,4.85.86,2.43.86,4.85.12,2.43.12,4.86-.45,2.42-.45,4.85.33,2.42.33,4.85.71,2.43.71,4.85-.37,2.43-.37,4.86-.85,2.42-.85,4.85.32,2.43.32,4.85-.31,2.43-.31,4.85.08,2.43.08,4.85,0,2.43,0,4.85,1.12,2.43,1.12,4.86-1.28,2.42-1.28,4.85.27,2.43.27,4.86.39,2.42.39,4.85-.57,2.43-.57,4.85.13,2.43.13,4.85.77,2.43.77,4.86-.33,2.43-.33,4.86-1.6,2.79.26,4.36c2.18,1.85,2.43-.05,5.29-.05s2.86,0,5.72,0"/><path class="cls-1" d="M655.58,213.67c-1.44,1.47-1.67,0-3.73,0s-2.05-.05-4.11-.05-2,.08-4.11.08-2,.74-4.11.74-2-.43-4.11-.43-2-.11-4.11-.11-2-.28-4.1-.28-2.06-.07-4.11-.07-2.06.49-4.12.49-2.05-.44-4.11-.44-2.05.46-4.11.46-2,.63-4.11.63-2-.51-4.11-.51-2.06-.37-4.11-.37-2.06.88-4.11.88-2.06-.26-4.11-.26-2.06.12-4.12.12-2.05-1-4.11-1-2.06.29-4.11.29-2.06.45-4.11.45-2.06,0-4.12,0-2,.27-4.11.27-2.06-.9-4.11-.9-2.06.4-4.12.4-2-.62-4.11-.62-2.06.64-4.11.64-2.06.35-4.12.35-2.06-.41-4.11-.41-2.06-.05-4.12-.05-2.05.77-4.11.77-2.05-1-4.11-1-2.06.4-4.11.4-2.06-.06-4.12-.06-2,0-4.11,0-2.06-.3-4.11-.3-2.06,1-4.12,1-2.06-.73-4.12-.73-2.06.53-4.11.53-2.06-.18-4.12-.18-2.06.38-4.12.38-2.06-.51-4.12-.51-2.06-.64-4.12-.64-3,2.27-4.48.81-.22-2.45-.22-4.54,1.27-2.09,1.27-4.18-1.29-2.09-1.29-4.18,0-2.09,0-4.18,1-2.08,1-4.17.07-2.09.07-4.18-.87-2.08-.87-4.17-.28-2.09-.28-4.18.59-2.08.59-4.17.72-2.09.72-4.18-1-2.08-1-4.17,0-2.09,0-4.18.13-2.09.13-4.18.89-2.09.89-4.17-1.33-2.09-1.33-4.18.18-2.09.18-4.18,1.1-2.09,1.1-4.18-.6-2.09-.6-4.18,0-2.08,0-4.17-.17-2.09-.17-4.18.09-2.09.09-4.18-.5-2.09-.5-4.18.4-2.09.4-4.18.75-2.09.75-4.18-.09-2.09-.09-4.18-.33-2.09-.33-4.18.46-2.09.46-4.18-.13-2.09-.13-4.18-.75-2.09-.75-4.18.87-2.09.87-4.18-.21-2.09-.21-4.18-.93-2.09-.93-4.18.37-2.09.37-4.18.21-2.09.21-4.18-.3-2.09-.3-4.18.43-2.09.43-4.18-.13-2.09-.13-4.19.05-2.08.05-4.17-.53-2.09-.53-4.18,0-2.09,0-4.18.84-2.09.84-4.18-.44-2.09-.44-4.18.39-2.1.39-4.19-.83-2.09-.83-4.18-.18-2.09-.18-4.19.57-2.09.57-4.18-.09-2.09-.09-4.18.37-2.09.37-4.19S479,11.35,479,9.26s.57-2.1.57-4.19-1.88-2.64-.42-4.14,2-.76,4.06-.76,2.05,1,4.1,1,2.06-1,4.12-1,2.05.67,4.11.67,2,.28,4.11.28,2.05.14,4.11.14,2.05-.44,4.1-.44,2.06.66,4.11.66S514,.78,516.09.78s2-.11,4.11-.11,2,.39,4.11.39,2.05-.29,4.11-.29,2.05-.6,4.11-.6,2.05.31,4.11.31,2.06.73,4.11.73,2.06-.27,4.11-.27,2.06.27,4.12.27,2-.07,4.11-.07,2,0,4.11,0,2.06-1,4.11-1,2.06,1.11,4.12,1.11,2.05-.23,4.11-.23,2.06-.34,4.11-.34,2.06.49,4.12.49,2.05-.11,4.11-.11S583.94.45,586,.45s2.06.28,4.12.28,2-.42,4.11-.42,2.06.09,4.12.09,2,0,4.1,0,2.06.63,4.12.63,2.05-.68,4.11-.68,2.06.62,4.12.62,2.05-.62,4.11-.62,2.06,1,4.11,1,2.06-.27,4.12-.27,2.06-.5,4.12-.5,2,.39,4.11.39,2.06,0,4.12,0,2.06,0,4.11,0,2.06-.1,4.12-.1,2.07.5,4.13.5,3-2.29,4.43-.82-.16,2.4-.16,4.48,0,2.09,0,4.18-.25,2.09-.25,4.18.76,2.09.76,4.18-.38,2.09-.38,4.18.31,2.09.31,4.17-.69,2.09-.69,4.18-.39,2.08-.39,4.17-.06,2.09-.06,4.17.62,2.09.62,4.18-.62,2.09-.62,4.18V51c0,2.09.32,2.09.32,4.17s.55,2.09.55,4.18-.25,2.09-.25,4.18-.83,2.08-.83,4.17.56,2.09.56,4.18.64,2.09.64,4.18-.69,2.09-.69,4.18.37,2.09.37,4.17.27,2.09.27,4.18.05,2.09.05,4.18-.13,2.09-.13,4.18-.94,2.09-.94,4.18,1.17,2.09,1.17,4.18-.67,2.09-.67,4.18.72,2.09.72,4.18-.73,2.09-.73,4.18.63,2.09.63,4.18-.64,2.09-.64,4.18.55,2.09.55,4.18.09,2.09.09,4.18-.82,2.09-.82,4.18.56,2.09.56,4.19-.12,2.09-.12,4.18.46,2.09.46,4.18-1.27,2.09-1.27,4.18,1,2.09,1,4.18.31,2.09.31,4.18-.25,2.09-.25,4.18,0,2.09,0,4.18-.06,2.09-.06,4.18-.35,2.09-.35,4.18.29,2.09.29,4.19-.68,2.09-.68,4.18.34,2.09.34,4.18.74,2.1.74,4.19-.27,2.09-.27,4.18-.71,2.09-.71,4.19a17.44,17.44,0,0,0,.15,4.21C656.18,211.89,657,212.18,655.58,213.67Z"/><path class="cls-4" d="M436.28,1236.7a3.64,3.64,0,0,0-1.16-2.75,3.92,3.92,0,0,0-2.75-1.44,4.3,4.3,0,0,0-3,1.17,4.08,4.08,0,0,0-.76,3,3.84,3.84,0,0,0,.89,2.9c.75.75,1.74,1.71,2.89,1.71a4.85,4.85,0,0,0,3.11-1.49A4.29,4.29,0,0,0,436.28,1236.7Z"/><path class="cls-5" d="M436.28,1236.7a3.64,3.64,0,0,0-1.16-2.75,3.92,3.92,0,0,0-2.75-1.44,4.3,4.3,0,0,0-3,1.17,4.08,4.08,0,0,0-.76,3,3.84,3.84,0,0,0,.89,2.9c.75.75,1.74,1.71,2.89,1.71a4.85,4.85,0,0,0,3.11-1.49A4.29,4.29,0,0,0,436.28,1236.7Z"/><path class="cls-1" d="M400.83,1316.68a5.13,5.13,0,0,0-1.15-3.34c-.75-.75-2.2-.75-3.34-.75a5.47,5.47,0,0,0-4.09,4.09,3.67,3.67,0,0,0,1.51,2.58,3.36,3.36,0,0,0,2.58,1.26,3.8,3.8,0,0,0,2.85-1A4.4,4.4,0,0,0,400.83,1316.68Z"/><path class="cls-3" d="M431.8,1200.52c0,2.1-.38,2.1-.38,4.2s-.74,2.09-.74,4.19.46,2.1.46,4.2-.09,2.1-.09,4.2,1.84,3,.37,4.5-2.36.11-4.42.11-2.05-.16-4.1-.16-2.06-.16-4.11-.16-2.06.59-4.12.59-2.05-.34-4.11-.34-2.05-.95-4.1-.95-2.06-.07-4.11-.07-2.06,0-4.11,0-2.06.3-4.11.3-2.06.76-4.12.76-2.05-.17-4.11-.17-2,.28-4.1.28-2.06-1-4.12-1-2.05,1.23-4.11,1.23-2.06-1.14-4.11-1.14-2.06.42-4.11.42-2.06,0-4.11,0-2.06.2-4.12.2-2.05,0-4.11,0-2.05.32-4.11.32-2.06-.59-4.11-.59-2.06-.45-4.12-.45-2.05,1.18-4.11,1.18-2.06-.91-4.11-.91-2.06-.22-4.12-.22-2.05,1-4.11,1-2.06-.8-4.12-.8-2.05.88-4.11.88-2.06-.71-4.11-.71-2.06.6-4.11.6-2.06,0-4.12,0-2,.16-4.11.16-2.06-.69-4.11-.69-2.06,0-4.12,0-2.05-.33-4.11-.33-2.06.59-4.12.59-2.06-.59-4.11-.59-2.06.19-4.12.19-2.06.22-4.12.22-2.06-.2-4.11-.2-2.06-.31-4.12-.31-2.06.66-4.13.66-2.91,1.6-4.37.14-.19-2.32-.19-4.38-.16-2.07-.16-4.14.37-2.06.37-4.13.17-2.06.17-4.13.62-2.07.62-4.13-1.25-2.07-1.25-4.14,0-2.07,0-4.13.33-2.07.33-4.14-.33-2.07-.33-4.13.57-2.07.57-4.14.35-2.06.35-4.13-.26-2.07-.26-4.13.71-2.07.71-4.14-1.14-2.06-1.14-4.13.6-2.07.6-4.13-.3-2.07-.3-4.14-.43-2.06-.43-4.13.35-2.06.35-4.13.54-2.07.54-4.14-.88-2.07-.88-4.13.84-2.07.84-4.14-.09-2.07-.09-4.13-.4-2.07-.4-4.14.41-2.07.41-4.14-.41-2.06-.41-4.13.06-2.07.06-4.14.76-2.06.76-4.13-.33-2.07-.33-4.14-.24-2.06-.24-4.13.08-2.07.08-4.13.2-2.07.2-4.14.36-2.06.36-4.12-.32-2.07-.32-4.13-.37-2.07-.37-4.13-.66-2.07-.66-4.14.11-2.06.11-4.13.09-2.07.09-4.13,1.22-2.07,1.22-4.14-1.18-2.06-1.18-4.13-.13-2.07-.13-4.13,1.27-2.07,1.27-4.13-1.24-2.07-1.24-4.14.69-2.07.69-4.13-.39-2.07-.39-4.14.11-2.07.11-4.13-.18-2.07-.18-4.14.16-2.07.16-4.14.79-2.06.79-4.13-.52-2.07-.52-4.14-.16-2.07-.16-4.13.41-2.07.41-4.14.12-2.07.12-4.14-.64-2.07-.64-4.14.39-2.06.39-4.13-.16-2.07-.16-4.14.56-2.07.56-4.14-.93-2.07-.93-4.14,0-2.06,0-4.13,0-2.07,0-4.14.87-2.07.87-4.14-1-2.07-1-4.14.7-2.07.7-4.14S254,963.1,254,961s0-2.07,0-4.14.87-2.07.87-4.14,0-2.07,0-4.14-.65-2.07-.65-4.13.67-2.07.67-4.14-1.13-2.07-1.13-4.14.81-2.07.81-4.14-.85-2.07-.85-4.15.36-2.06.36-4.13.45-2.07.45-4.14.15-2.08.15-4.15-.38-2.07-.38-4.15-1.78-2.94-.32-4.41,2.33.49,4.38.49,2.05-.16,4.11-.16,2,.12,4.11.12,2.05-.7,4.11-.7,2.06.48,4.11.48,2.05-.48,4.11-.48,2,.26,4.11.26,2.05-.17,4.11-.17,2.05.32,4.11.32,2.05.72,4.11.72,2-.22,4.11-.22,2.05-.32,4.11-.32,2.05-.69,4.11-.69,2.06.55,4.11.55,2.06.54,4.11.54,2.06-1.14,4.12-1.14,2.05.62,4.11.62,2.05-.3,4.11-.3,2.06-.15,4.11-.15,2.06-.15,4.11-.15,2.06.49,4.12.49,2.05.58,4.11.58,2.06-.79,4.11-.79,2.06.25,4.12.25,2.05.22,4.11.22,2.06-.22,4.12-.22,2.05.47,4.11.47,2.06-.68,4.11-.68,2.06-.18,4.12-.18,2.05-.15,4.11-.15,2,.49,4.11.49,2.06-.43,4.11-.43,2.06.22,4.12.22,2.05.16,4.11.16,2.06.88,4.12.88,2.05-.67,4.11-.67,2.06.7,4.12.7,2.06,0,4.12,0,2.05-.68,4.11-.68,2.06-.32,4.12-.32,2.06.91,4.12.91,2.06-.33,4.12-.33,3-2,4.45-.56.38,2.4.38,4.48-1.21,2.08-1.21,4.15,1,2.08,1,4.16-.31,2.08-.31,4.15-.89,2.08-.89,4.16.56,2.07.56,4.15-.61,2.08-.61,4.16.56,2.07.56,4.15.29,2.08.29,4.15-.73,2.08-.73,4.16.05,2.07.05,4.15,0,2.07,0,4.15,1.06,2.07,1.06,4.15-1,2.08-1,4.16.86,2.08.86,4.15-.22,2.08-.22,4.15-.31,2.08-.31,4.16,0,2.07,0,4.15-.32,2.07-.32,4.15,1.11,2.08,1.11,4.16-1.15,2.08-1.15,4.16.65,2.07.65,4.15.68,2.08.68,4.15-.85,2.08-.85,4.16.62,2.08.62,4.16-.66,2.07-.66,4.15-.43,2.08-.43,4.15.8,2.08.8,4.16.2,2.08.2,4.16-.69,2.07-.69,4.15,1,2.08,1,4.16-.69,2.08-.69,4.16,0,2.07,0,4.15.63,2.08.63,4.16v4.16c0,2.08-1.15,2.08-1.15,4.16s.07,2.08.07,4.16.07,2.08.07,4.15.13,2.08.13,4.16,0,2.08,0,4.16.37,2.08.37,4.16-.39,2.08-.39,4.16.41,2.08.41,4.15.42,2.08.42,4.16.14,2.08.14,4.16-.6,2.07-.6,4.15-.11,2.08-.11,4.16.32,2.08.32,4.16.23,2.08.23,4.16-1.15,2.08-1.15,4.16.1,2.08.1,4.16,0,2.08,0,4.16,1.19,2.09,1.19,4.17-.75,2.08-.75,4.17"/><path class="cls-3" d="M386.28,796.35c-1.47,1.47-2.36-.4-4.44-.4s-2.08.32-4.17.32-2.08.23-4.16.23-2.08-1-4.16-1-2.08.7-4.16.7-2.08-.46-4.16-.46-2.08.38-4.17.38l-4.16,0c-2.08,0-2.08.55-4.16.55s-2.08-.28-4.16-.28-2.08-1-4.16-1-2.09.71-4.17.71S334,796,331.89,796s-2.08-.44-4.16-.44-2.08,1.2-4.15,1.2-2.08-.7-4.16-.7-2.08.2-4.16.2-2.08-.89-4.16-.89-2.08.58-4.16.58-2.08-.18-4.16-.18-2.08-.08-4.16-.08h-4.16c-2.08,0-2.08.42-4.16.42s-2.08-.43-4.16-.43-2.09.43-4.17.43-2.08-.14-4.16-.14h-4.16c-2.08,0-2.08.34-4.16.34s-2.08-.45-4.16-.45-2.09.78-4.17.78-2.08-.43-4.16-.43-2.08.07-4.16.07-2.08.49-4.17.49-2.08-1.31-4.16-1.31-2.08,1-4.16,1-2.08-.42-4.17-.42-2.08.51-4.16.51-2.08-.62-4.16-.62-2.09.69-4.17.69-2.08-.51-4.16-.51-2.09.38-4.17.38-2.08-.82-4.16-.82-2.09.48-4.17.48-2.08.18-4.16.18-2.09-.84-4.17-.84-2.08.61-4.16.61-2.08-.7-4.16-.7-2.09.35-4.17.35-2.08.67-4.16.67S180,796,177.88,796s-2.08-.43-4.16-.43-2.09,1.18-4.17,1.18-2.09-1-4.17-1-2.08-.4-4.17-.4-2.08.92-4.16.92-2.09-.16-4.17-.16-2.09.33-4.17.33-2.09-.39-4.18-.39-2.64,1.42-4.11-.05,0-2,0-4.13.43-2.09.43-4.18-.21-2.09-.21-4.18.37-2.09.37-4.18,0-2.09,0-4.18-.88-2.09-.88-4.18-.46-2.09-.46-4.18,1-2.09,1-4.17.32-2.09.32-4.18-1.26-2.1-1.26-4.19.57-2.09.57-4.18-.41-2.09-.41-4.18,0-2.09,0-4.18.25-2.09.25-4.17.26-2.1.26-4.19-.72-2.09-.72-4.18,1.18-2.09,1.18-4.18-.28-2.09-.28-4.18-.09-2.09-.09-4.18-.47-2.09-.47-4.18.88-2.1.88-4.19-.39-2.09-.39-4.18.34-2.09.34-4.18-.51-2.09-.51-4.18-.47-2.09-.47-4.18.5-2.09.5-4.18.47-2.09.47-4.18-.2-2.09-.2-4.18-.67-2.09-.67-4.18.25-2.09.25-4.17.16-2.09.16-4.18-.39-2.09-.39-4.18.49-2.09.49-4.18-.06-2.09-.06-4.18.58-2.09.58-4.18-.24-2.09-.24-4.18-.43-2.08-.43-4.17.21-2.09.21-4.18-.83-2.09-.83-4.18.11-2.09.11-4.18.29-2.09.29-4.18.49-2.09.49-4.18-.27-2.09-.27-4.18.52-2.09.52-4.19-.56-2.09-.56-4.18.54-2.09.54-4.18.24-2.09.24-4.18-.86-2.09-.86-4.19.09-2.09.09-4.18-.63-2.09-.63-4.18.4-2.09.4-4.18.57-2.09.57-4.19.27-2.09.27-4.18-.25-2.09-.25-4.18.29-2.1.29-4.19,0-2.09,0-4.18-.94-2.09-.94-4.18.49-2.1.49-4.19.44-2.09.44-4.18-.64-2.09-.64-4.18.31-2.09.31-4.19.3-2.09.3-4.18-1-2.09-1-4.18.83-2.1.83-4.19-.47-2.09-.47-4.18-.14-2.09-.14-4.19.78-2.09.78-4.18,0-2.1,0-4.19-1.13-2.09-1.13-4.19.13-2.09.13-4.18.9-2.1.9-4.19-1.17-2.1-1.17-4.19-1.25-3.13.23-4.61,2.5.28,4.58.28,2.08.63,4.16.63,2.09.13,4.17.13,2.08-.24,4.16-.24,2.08-.79,4.16-.79,2.08,1.12,4.16,1.12,2.08-1.12,4.16-1.12,2.09.67,4.17.67,2.08.39,4.16.39,2.08-.56,4.16-.56,2.08,0,4.16,0,2.08-.41,4.17-.41,2.08-.25,4.16-.25,2.08.41,4.16.41,2.07.65,4.15.65,2.08.13,4.16.13,2.08-.78,4.16-.78,2.08.78,4.16.78,2.08-.87,4.16-.87,2.08-.1,4.16-.1,2.08-.33,4.16-.33,2.08,1,4.16,1,2.08-.36,4.16-.36,2.08-.17,4.16-.17,2.08.55,4.17.55,2.08-.2,4.16-.2,2.08-.76,4.16-.76,2.08,1.23,4.16,1.23,2.08.07,4.16.07,2.09-.18,4.17-.18,2.08-1,4.16-1,2.08,1,4.16,1,2.08-.45,4.16-.45,2.09.18,4.17.18,2.08.29,4.16.29,2.08-.7,4.17-.7,2.08.2,4.16.2,2.08.54,4.16.54,2.09-.78,4.17-.78l4.16,0c2.09,0,2.09,0,4.17,0s2.08.12,4.16.12,2.09.5,4.17.5,2.08-.63,4.16-.63,2.09.51,4.17.51,2.08-.53,4.16-.53,2.08.81,4.16.81,2.09-.11,4.17-.11,2.08.23,4.16.23,2.08-.83,4.17-.83h4.16c2.09,0,2.09.84,4.17.84s2.08-.85,4.17-.85,2.08.18,4.17.18,2.08.09,4.16.09h4.17c2.09,0,2.09.38,4.17.38s2.09.07,4.17.07,3-2.21,4.44-.74.05,2.35.05,4.44-.68,2.09-.68,4.18.17,2.09.17,4.18.75,2.09.75,4.18-.33,2.09-.33,4.18.37,2.09.37,4.18-1.23,2.09-1.23,4.18.61,2.09.61,4.18.52,2.09.52,4.18-1.11,2.09-1.11,4.18.76,2.09.76,4.18-.28,2.09-.28,4.18.37,2.09.37,4.18-.56,2.09-.56,4.18.06,2.09.06,4.18-.09,2.09-.09,4.18-.34,2.09-.34,4.18.47,2.09.47,4.18.68,2.09.68,4.18-.89,2.09-.89,4.18.05,2.09.05,4.18.67,2.09.67,4.18-.76,2.09-.76,4.18.67,2.09.67,4.18-.29,2.09-.29,4.18-.39,2.09-.39,4.19.34,2.09.34,4.18.13,2.09.13,4.18-.29,2.09-.29,4.17,0,2.09,0,4.18.06,2.09.06,4.18.42,2.09.42,4.18-.49,2.09-.49,4.18.85,2.09.85,4.18-.74,2.09-.74,4.18-.26,2.09-.26,4.18.23,2.08.23,4.17.91,2.09.91,4.18-1.07,2.09-1.07,4.18.35,2.09.35,4.18-.4,2.09-.4,4.18,1,2.1,1,4.18-1,2.09-1,4.19,1.19,2.09,1.19,4.18-1.39,2.09-1.39,4.18.34,2.09.34,4.18.52,2.09.52,4.18-.45,2.09-.45,4.19,1,2.09,1,4.18-1,2.09-1,4.18.9,2.09.9,4.19-.74,2.09-.74,4.18.76,2.09.76,4.19-.42,2.09-.42,4.18-.73,2.09-.73,4.18.15,2.09.15,4.19.13,2.09.13,4.18-.23,2.09-.23,4.18.35,2.1.35,4.19-.52,2.09-.52,4.18.33,2.09.33,4.18.35,2.09.35,4.18-.77,2.09-.77,4.19.19,2.09.19,4.18.83,2.09.83,4.19-.83,2.09-.83,4.18.41,2.1.41,4.19.51,2.09.51,4.18.21,2.1.21,4.19-.11,2.1-.11,4.19,0,2.09,0,4.19-.36,2,.13,4C387.16,794.06,387.75,794.86,386.28,796.35Z"/><path class="cls-3" d="M135.41,1365c2.76-.21,2.24-1,5.57-.73,1.6.12,3.32,1.49,5.33,1.88,1.7.33,3.72-.07,5.56.54,1.69.56,3.17,1.85,4.86,2.71a30,30,0,0,1,4.79,2.7c1.43,1.08,3.36,1.82,4.62,3.25s1.05,3.67,2,5.35c.87,1.53,2.63,2.72,3.26,4.56s1.08,3.57,1.56,5.45-.14,3.82.22,5.71,1.69,3.51,1.94,5.4.84,3.71,1,5.6-1.07,3.84-1,5.72,1.27,3.75,1.27,5.63-.62,3.77-.7,5.64.11,3.81-.05,5.66-.13,3.84-.38,5.66-1,3.72-1.4,5.51-1.65,3.54-2.14,5.27a53,53,0,0,1-1.61,5.34c-.77,1.89-.68,4.06-1.61,5.5a16.29,16.29,0,0,1-3.78,4.45,27.39,27.39,0,0,1-5.12,2.61,34.25,34.25,0,0,1-5.5,1.49,38.44,38.44,0,0,1-5.57,1.13c-1.87.15-3.75-1-5.63-1s-3.93,1.07-5.77.73-3.54-1.6-5.29-2.2a33.82,33.82,0,0,1-5.26-2.06c-1.69-.91-2.9-2.44-4.29-3.62s-3.55-1.67-4.93-2.93-2.7-2.68-4-4-2.24-3.09-3.39-4.54a46,46,0,0,1-3.53-4.43c-1-1.61-1.11-3.64-1.83-5.37s-2.38-3.19-2.78-5,.16-3.8.1-5.74"/><path class="cls-3" d="M147.13,1354.2c-2.43,1.32-1.65,1.66-4,4a25.86,25.86,0,0,0-3,4.52,20.94,20.94,0,0,0-2.29,4.85,22,22,0,0,0-.89,5.3c-.14,2-1.73,3.83-1.91,5.68-.19,2,1.1,4.17.78,6a31.1,31.1,0,0,1-1.7,5.68,15.68,15.68,0,0,1-3,5.28c-1.3,1.32-3.68,1.14-5.72,1.73a31.87,31.87,0,0,0-4.89,2.28,18,18,0,0,0-4.7,2.67,13.27,13.27,0,0,0-3.17,4.49,20.19,20.19,0,0,0-1.23,5.32c-.19,1.93,0,3.72-.13,5.31-.17,2-.74,3.68-.89,5.23-.19,2,.82,3.94.52,5.42a15.61,15.61,0,0,1-1.81,5.22c-.86,1.33-3,1.65-4.67,2.92a47.69,47.69,0,0,1-4.25,3,35.42,35.42,0,0,0-5,3.69c-1.58,1.42-2.19,3.52-3,5.32a7.66,7.66,0,0,0-.17,5.58,13,13,0,0,0,2.46,5.3"/><path class="cls-3" d="M159.09,1364.44c2.43-1.77,1.85-2.15,5.09-3,1.75-.48,3.93-1.49,6.1-1.19a14.85,14.85,0,0,1,5.92,2.28c1.47,1,2.56,3,4,4.78A31.39,31.39,0,0,1,183,1372c.76,1.52.71,3.52,1.42,5.35.63,1.63,1.76,3.15,2.34,5s1.27,3.39,1.75,5.22,1.17,3.46,1.58,5.29.57,3.61.91,5.44-.3,3.75,0,5.58.57,3.6.79,5.43,1.85,3.49,2,5.32-1.08,3.77-1,5.6,1.12,3.63,1.16,5.45.13,3.72.1,5.53-.45,3.7-.56,5.49.15,3.76,0,5.53"/><path class="cls-6" d="M155.76,1405.08c0-1.1.46-1,1.36-1.9a4.38,4.38,0,0,1,2-.68,7.29,7.29,0,0,1,2.09-.25c.71,0,1.55,0,2.48,0s1.63-.11,2.5,0,1.66-.13,2.51-.06,1.62.64,2.45.71,1.7-.12,2.51-.05,1.71,0,2.5.08,1.73.28,2.48.34c1,.09,1.9-.18,2.51-.13a6.21,6.21,0,0,1,2.64.89,4.68,4.68,0,0,1,1.88,2.09,10.82,10.82,0,0,1,.11,2.75,22.5,22.5,0,0,1-.32,2.63c-.06.8-.05,1.57-.1,2.32s.45,1.61.4,2.35-.17,1.57-.22,2.31-.35,1.55-.4,2.3.25,1.58.2,2.33-.36,1.55-.41,2.28a7.21,7.21,0,0,1-.49,2.35,4.07,4.07,0,0,1-1.54,1.83,5.8,5.8,0,0,1-2.24,1,17.34,17.34,0,0,1-2.42-.3c-.75,0-1.53-.25-2.34-.35l-2.25-.27c-.71-.08-1.44-.39-2.23-.48l-2.25-.25-2.25-.25c-.77-.09-1.55.06-2.29,0s-1.52-.27-2.24-.35-1.64.34-2.32.26a20,20,0,0,1-2.17-.78"/><path class="cls-3" d="M155.76,1405.08c0-1.1.46-1,1.36-1.9a4.38,4.38,0,0,1,2-.68,7.29,7.29,0,0,1,2.09-.25c.71,0,1.55,0,2.48,0s1.63-.11,2.5,0,1.66-.13,2.51-.06,1.62.64,2.45.71,1.7-.12,2.51-.05,1.71,0,2.5.08,1.73.28,2.48.34c1,.09,1.9-.18,2.51-.13a6.21,6.21,0,0,1,2.64.89,4.68,4.68,0,0,1,1.88,2.09,10.82,10.82,0,0,1,.11,2.75,22.5,22.5,0,0,1-.32,2.63c-.06.8-.05,1.57-.1,2.32s.45,1.61.4,2.35-.17,1.57-.22,2.31-.35,1.55-.4,2.3.25,1.58.2,2.33-.36,1.55-.41,2.28a7.21,7.21,0,0,1-.49,2.35,4.07,4.07,0,0,1-1.54,1.83,5.8,5.8,0,0,1-2.24,1,17.34,17.34,0,0,1-2.42-.3c-.75,0-1.53-.25-2.34-.35l-2.25-.27c-.71-.08-1.44-.39-2.23-.48l-2.25-.25-2.25-.25c-.77-.09-1.55.06-2.29,0s-1.52-.27-2.24-.35-1.64.34-2.32.26a20,20,0,0,1-2.17-.78"/><path class="cls-6" d="M110.39,1420.39a3.63,3.63,0,0,0,.81,2c.44.6.57,1.61,1.23,2.16a17.54,17.54,0,0,0,2.06,1.37,17.29,17.29,0,0,0,2.26,1,8.36,8.36,0,0,0,2.37.38c.64.09,1.37.73,2.28.77.71,0,1.5-.36,2.36-.34s1.51.31,2.34.32,1.53-.39,2.35-.38,1.54,0,2.35,0,1.53.68,2.34.7,1.54-.19,2.35-.16,1.54.21,2.34.25a19.75,19.75,0,0,0,2.24-.07c.83-.07,1.37-.81,2-1.08a2.82,2.82,0,0,0,1.5-1.26,5,5,0,0,0,1-1.9,15.54,15.54,0,0,0,.05-2.21c0-.9,0-1.73,0-2.53s.08-1.66.07-2.53.2-1.62.19-2.53-.21-1.6-.21-2.53c0-.77-.33-1.61-.33-2.54a20.85,20.85,0,0,0,0-2.23,11.35,11.35,0,0,0-.51-2.17,7.7,7.7,0,0,0-.68-2.17,4.71,4.71,0,0,0-1.93-1.17c-.63-.31-1.27-1-2.07-1s-1.62.56-2.47.5-1.56-.4-2.39-.46-1.62.25-2.44.19-1.57-.66-2.38-.72l-2.43-.16c-.82,0-1.65.25-2.44.19s-1.63-.25-2.41-.31-1.65-.23-2.4-.29c-.9-.08-1.74.06-2.43,0a21.28,21.28,0,0,0-2.44-.48,11.24,11.24,0,0,0-2.54.14,5.87,5.87,0,0,0-2.23,1.33,5.17,5.17,0,0,0-1.22,2.26,7.72,7.72,0,0,0-.2,2.5c.06.95.06,1.79.12,2.56.06,1,.58,1.74.64,2.52s-.4,1.76-.34,2.58.1,1.64.17,2.55.85,1.54.91,2.49C110.25,1418.61,110.33,1419.45,110.39,1420.39Z"/><path class="cls-3" d="M110.39,1420.39a3.63,3.63,0,0,0,.81,2c.44.6.57,1.61,1.23,2.16a17.54,17.54,0,0,0,2.06,1.37,17.29,17.29,0,0,0,2.26,1,8.36,8.36,0,0,0,2.37.38c.64.09,1.37.73,2.28.77.71,0,1.5-.36,2.36-.34s1.51.31,2.34.32,1.53-.39,2.35-.38,1.54,0,2.35,0,1.53.68,2.34.7,1.54-.19,2.35-.16,1.54.21,2.34.25a19.75,19.75,0,0,0,2.24-.07c.83-.07,1.37-.81,2-1.08a2.82,2.82,0,0,0,1.5-1.26,5,5,0,0,0,1-1.9,15.54,15.54,0,0,0,.05-2.21c0-.9,0-1.73,0-2.53s.08-1.66.07-2.53.2-1.62.19-2.53-.21-1.6-.21-2.53c0-.77-.33-1.61-.33-2.54a20.85,20.85,0,0,0,0-2.23,11.35,11.35,0,0,0-.51-2.17,7.7,7.7,0,0,0-.68-2.17,4.71,4.71,0,0,0-1.93-1.17c-.63-.31-1.27-1-2.07-1s-1.62.56-2.47.5-1.56-.4-2.39-.46-1.62.25-2.44.19-1.57-.66-2.38-.72l-2.43-.16c-.82,0-1.65.25-2.44.19s-1.63-.25-2.41-.31-1.65-.23-2.4-.29c-.9-.08-1.74.06-2.43,0a21.28,21.28,0,0,0-2.44-.48,11.24,11.24,0,0,0-2.54.14,5.87,5.87,0,0,0-2.23,1.33,5.17,5.17,0,0,0-1.22,2.26,7.72,7.72,0,0,0-.2,2.5c.06.95.06,1.79.12,2.56.06,1,.58,1.74.64,2.52s-.4,1.76-.34,2.58.1,1.64.17,2.55.85,1.54.91,2.49C110.25,1418.61,110.33,1419.45,110.39,1420.39Z"/><path class="cls-3" d="M147.34,1354.7a23,23,0,0,0-5.13-1.68c-1.51-.35-3.23-1.24-5.23-1.53-1.66-.24-3.58.84-5.49.74-1.72-.08-3.5-.88-5.37-.77s-3.65-.27-5.48,0a45.19,45.19,0,0,0-5.24,1.58,40.67,40.67,0,0,0-5.12,1.88c-1.59.73-2.59,2.6-4.15,3.61s-3.44,1.24-4.85,2.45-2.12,2.87-3.37,4.25a46,46,0,0,0-3.17,4.3c-1.33,1.88-3.57,2.93-4.22,4.54-.88,2.18-.26,4.44-.46,6.15a33,33,0,0,1-1.1,5.88c-.51,1.61-1.57,2.39-4.61,2.85a14.68,14.68,0,0,0-5.52,2.09,13.88,13.88,0,0,0-4.19,4.13c-1.07,1.62-1,3.72-1.53,5.61s-1.66,3.74-1.64,5.63a20.14,20.14,0,0,0,1.24,5.74c.57,1.9.08,3.67.08,5.34,0,1.85.17,3.49-.5,5.19s-.73,3.63-1.91,5.19a45,45,0,0,1-3.92,3.85,20.23,20.23,0,0,0-3.44,3.89,15.13,15.13,0,0,0-2,4.85,13,13,0,0,0,.44,5.21c.39,1.7.55,3.64,1.55,5.1"/><path d="M147.08,1355.27c2.16,1,1.54,1.29,2.87,3.34a11.32,11.32,0,0,1,1.74,4.2c.42,2.93,2.79,2.8.75,3.52-2.29.82-2.11.49-4.55,0-1.78-.4-3.51-1.66-4.63-1.76-2.64-.21-3.63,2.3-5.09.31s.68-2.15,2.13-4.3c.81-1.2,2.28-2.1,3.4-3.2A7.58,7.58,0,0,1,147.08,1355.27Z"/><path class="cls-3" d="M147.08,1355.27c2.16,1,1.54,1.29,2.87,3.34a11.32,11.32,0,0,1,1.74,4.2c.42,2.93,2.79,2.8.75,3.52-2.29.82-2.11.49-4.55,0-1.78-.4-3.51-1.66-4.63-1.76-2.64-.21-3.63,2.3-5.09.31s.68-2.15,2.13-4.3c.81-1.2,2.28-2.1,3.4-3.2A7.58,7.58,0,0,1,147.08,1355.27Z"/><path class="cls-3" d="M123.91,1414.28c1.83-.12,4.41-.84,7,.26a17.74,17.74,0,0,1,5.78,4.2"/><path class="cls-3" d="M172,1415.73c-2.54-.26-4.8,1.78-6.89,2.45-2.65.85-5.48,1.13-6.79,2.42-1.81,2.18-1.06,2.62-1.35,5.65-.15,1.66-.81,4,.31,5.89a14.92,14.92,0,0,0,4.34,4.12"/><path class="cls-3" d="M133.22,1390.09c2,.26,4.22,0,6.92.6,1.7.37,3.18,1.59,5.11,4.45"/><path class="cls-3" d="M158.05,1444.6c-2.48-.88-2.28-1.45-4.77-2.33s-2.83.09-5.31-.79-2.57-.66-5.06-1.54-2.16-1.81-4.65-2.69-2.47-2.22-5.09-1.86-1,2.93-.34,5.92c.34,1.66,1.85,3.22,2.9,4.85.94,1.46,2.41,2.26,4.18,3.19,1.42.75,2.83,2.17,4.94,2.31a24.52,24.52,0,0,0,5.52-.6"/><path class="cls-3" d="M97.84,1464.81c1.77,1.93,2.27,1.47,4,3.4s1.49,2.17,3.26,4.1l3.54,3.85c1.77,1.93,2.32,1.42,4.09,3.36s.59,4.53,3.2,4.49c3.1,0,2.85-1.75,5.22-3.74s2.09-2.33,4.47-4.32,1.49-3.29,4.59-3.41c2.34-.09,1.46,1,2.9,2.85s1.78,1.58,3.21,3.43.13,4,2.47,4,1.59-1.74,3-3.65,1-2.27,2.42-4.18"/><path d="M129,1480.49c-2.49-.55-1.32,2.35-3.13,4.14s-2.85.75-4.67,2.55-4,1.69-2.78,4c1.6,3,4.47-.83,6.51,1.93,1.69,2.28-1.42,2.88-1.91,5.68s.57,3,.08,5.79-.11,2.87-.6,5.67-1.82,2.57-2.31,5.37.65,3,.16,5.8-1.06,2.71-1.55,5.51-.19,2.85-.67,5.66-.25,2.85-.74,5.65-3.26,3.24-1.46,5.45,2.7.83,5.47.83,2.77-.19,5.54-.19,3.31,1.13,5.2-.9-.54-2.4-.74-5.18,0-2.8-.19-5.58.09-2.8-.11-5.57-.46-2.76-.66-5.54.92-2.86.72-5.64-1.61-2.68-1.81-5.46.57-2.83.37-5.61-.4-2.77-.6-5.56-2.4-3.72,0-5.17c3-1.87,3.5,2.75,6.41.67,2.2-1.56-1.24-1.77-2.38-4.22s-1.33-2.44-1.88-5.08C130.63,1482.54,131.62,1481.07,129,1480.49Z"/><path class="cls-3" d="M129,1480.49c-2.49-.55-1.32,2.35-3.13,4.14s-2.85.75-4.67,2.55-4,1.69-2.78,4c1.6,3,4.47-.83,6.51,1.93,1.69,2.28-1.42,2.88-1.91,5.68s.57,3,.08,5.79-.11,2.87-.6,5.67-1.82,2.57-2.31,5.37.65,3,.16,5.8-1.06,2.71-1.55,5.51-.19,2.85-.67,5.66-.25,2.85-.74,5.65-3.26,3.24-1.46,5.45,2.7.83,5.47.83,2.77-.19,5.54-.19,3.31,1.13,5.2-.9-.54-2.4-.74-5.18,0-2.8-.19-5.58.09-2.8-.11-5.57-.46-2.76-.66-5.54.92-2.86.72-5.64-1.61-2.68-1.81-5.46.57-2.83.37-5.61-.4-2.77-.6-5.56-2.4-3.72,0-5.17c3-1.87,3.5,2.75,6.41.67,2.2-1.56-1.24-1.77-2.38-4.22s-1.33-2.44-1.88-5.08C130.63,1482.54,131.62,1481.07,129,1480.49Z"/><path class="cls-3" d="M271,1434.1c2.66,1.21,1.91,1,4.72,3.17,1.33,1,3.38,1.66,4.87,3.27a34.19,34.19,0,0,1,4,4.35,35.71,35.71,0,0,1,2.91,5.21c.75,1.69.75,3.82,1.27,5.81.47,1.79.09,3.8.31,5.84.2,1.77,1.41,3.43,1.29,5.06a29.07,29.07,0,0,1-.87,5.13,30.56,30.56,0,0,1-2,4.76,33.91,33.91,0,0,1-2.76,4.32,43.72,43.72,0,0,1-2.62,4.4,39.76,39.76,0,0,1-3.64,3.62c-2.24,2.14-3.17.69-3.18,3.24,0,2.77,1.3,1,3.63,3.46,1.11,1.16,1.68,3.19,3,4.77,1.11,1.35,2.08,2.91,3.19,4.5a54.89,54.89,0,0,1,3.12,4.54,43.51,43.51,0,0,1,2.15,5c.69,1.72,2.32,3.16,2.72,5,.47,2.1.55,4.17.83,6,.33,2.18.74,4.19.87,6,.16,2.33.48,4.4.44,6.09-.1,3.89-.72,3-1.37,6"/><path class="cls-3" d="M282.64,1351.63c-.32,2.69-.32,2.69-.65,5.39s-.26,2.7-.58,5.39-.81,2.63-1.13,5.32.45,2.79.13,5.48-.05,2.73-.37,5.42-1.11,2.6-1.43,5.3-.47,2.68-.79,5.37"/><path class="cls-3" d="M203,1543.56a16.57,16.57,0,0,1-2.23-5.41,46,46,0,0,1-.75-5.82c-.23-1.81-1.22-3.74-1.17-5.84a38.74,38.74,0,0,1,.46-6,39.31,39.31,0,0,1,1.82-5.69,39.74,39.74,0,0,1,2.4-5.43c.93-1.75,1.65-3.59,2.65-5.1,1.11-1.67,3.09-2.58,4.24-4,1.28-1.56,1.79-3.69,3.07-4.94,1.47-1.44,3.31-2.3,4.68-3.36,1.72-1.33,3.67-1.81,5.07-2.62,3.08-1.81,5.31-.09,5.62-2.93.29-2.63-2.79-1.1-4.84-3.53-1-1.17-2.62-2.37-3.51-4.16-.72-1.45-.29-3.54-.73-5.42a24.41,24.41,0,0,1-1-5.17,33.11,33.11,0,0,1,.61-5.24c.23-1.63,1.08-3.18,1.59-5,.45-1.6-.32-3.71.37-5.46a41.09,41.09,0,0,1,2.75-5,36.18,36.18,0,0,1,3.26-4.69,33.72,33.72,0,0,1,3.93-4.12c1.49-1.33,2.74-2.94,4.26-3.89,1.71-1.07,3.8-1.32,5.42-2a35.82,35.82,0,0,1,5.38-1.81c3.34-.78,4.21,1.79,5.51-.73s-.37-2.84-.06-5.64,1.53-2.68,1.85-5.48-.3-2.88,0-5.69-.06-2.84.26-5.65.57-2.78.89-5.59,1.35-2.68,1.66-5.49-1.06-3-.74-5.77,1.34-2.7,1.66-5.51,0-2.84.34-5.64,1-2.74,1.27-5.55-1.08-3-.76-5.77.59-2.78.91-5.59.57-2.78.89-5.6,1-2.73,1.36-5.54"/><path d="M265.71,1464.4c0,3.35.57,7.24-1.62,9.43s-6.09,4.43-9.44,4.43-6.06-3.41-8.25-5.61a11.08,11.08,0,0,1-3.22-8.25c0-3.35,1.95-5.14,4.14-7.33s4-5.14,7.33-5.14,7.44.64,9.64,2.84S265.71,1461.05,265.71,1464.4Z"/><path class="cls-3" d="M265.71,1464.4c0,3.35.57,7.24-1.62,9.43s-6.09,4.43-9.44,4.43-6.06-3.41-8.25-5.61a11.08,11.08,0,0,1-3.22-8.25c0-3.35,1.95-5.14,4.14-7.33s4-5.14,7.33-5.14,7.44.64,9.64,2.84S265.71,1461.05,265.71,1464.4Z"/><path class="cls-1" d="M261.08,1390.62c.47-1,.72-1,1.6-1.76a2.79,2.79,0,0,1,2.2-.58,3.15,3.15,0,0,1,1.85,1.24,8.51,8.51,0,0,1,1.39,1.82c.29.6.05,1.51.34,2.31.23.65,1,1.2,1.21,2s.15,1.5.32,2.25.21,1.48.35,2.22.1,1.49.22,2.24.31,1.47.41,2.22.87,1.41.95,2.16-.1,1.52,0,2.27.1,1.51.15,2.26.38,1.5.42,2.24-.39,1.55-.36,2.29-.22,1.53-.2,2.26.06,1.52.07,2.25.69,1.54.68,2.26-.31,1.56-.32,2.25c0,.85-.63,1.59-.65,2.23-.05,1.42,1.46,2.76.34,2.63s-1.15-.56-2.16-1.1-.86-.83-1.87-1.36-.79-1-1.8-1.49-1-.49-2.06-1-1-.47-2.06-1-1.11-.35-2.12-.89-1.25-.1-2.26-.64-.78-.88-1.59-1.69-.24-.62-.07-2.09c.08-.66.27-1.43.39-2.31.09-.72.34-1.48.45-2.31s.31-1.49.43-2.3.13-1.54.26-2.34.51-1.48.64-2.27-.54-1.67-.4-2.45.52-1.49.67-2.27,0-1.59.2-2.36.82-1.43,1-2.19-.13-1.66,0-2.4.89-1.41,1.1-2.15S260.85,1391.34,261.08,1390.62Z"/><path class="cls-3" d="M256.59,1392.48a10.89,10.89,0,0,1,2.14-.66,14.85,14.85,0,0,1,2.08-.73,21.33,21.33,0,0,1,2.16-.53c.72-.09,1.46,0,2.23,0s1.48-.36,2.24-.33,1.45.41,2.2.5,1.51,0,2.25.1,1.52.13,2.24.35,1.28.87,2,1.15a20.71,20.71,0,0,1,1.88,1.21c.65.35,1.5.34,2.12.77s.95,1.15,1.51,1.65,1.34.74,1.82,1.32.55,1.4.95,2,1.06,1.07,1.37,1.77a16.66,16.66,0,0,1,1.06,2c.21.7-.3,1.58-.17,2.34s1.06,1.4,1.17,2.14-.21,1.61-.11,2.36.54,1.51.62,2.25-.14,1.59-.08,2.33.37,1.55.4,2.29.06,1.58.07,2.32-.31,1.58-.33,2.31-.43,1.55-.48,2.28.12,1.59,0,2.3-.21,1.58-.35,2.27-.48,1.54-.67,2.19a21.6,21.6,0,0,1-.6,2.22c-.63,1.41-.64.87-1.42,1.71"/><path class="cls-3" d="M275.64,1400.27a22.87,22.87,0,0,0-2.19-.81c-.75-.24-1.45-.58-2.22-.75s-1.49-.66-2.27-.78-1.61.06-2.39,0-1.6.16-2.37.13-1.59,0-2.35,0-1.62,0-2.36.07-1.74-.59-2.41-.52a8.48,8.48,0,0,0-2.5.64"/><path class="cls-3" d="M279.09,1407.62c-.66-.3-1.62-.06-2.41-.3s-1.44-.55-2.23-.73-1.51-.31-2.3-.43-1.49-.6-2.28-.69-1.63.55-2.41.48-1.53-.58-2.3-.63-1.6.23-2.36.2-1.59-.19-2.34-.21-1.63.37-2.35.37c-.88,0-1.67-.15-2.34-.14a6.18,6.18,0,0,1-2.05-.21"/><path class="cls-3" d="M279,1416.83a19.92,19.92,0,0,0-2.24-.79c-.68-.25-1.63.21-2.41,0s-1.31-1-2.08-1.16-1.59.17-2.36,0-1.46-.57-2.22-.69-1.59.26-2.35.16-1.44-1.08-2.19-1.16-1.63.43-2.36.36-1.56-.5-2.28-.55-1.64-.15-2.3-.19c-1.43-.08-1.16.19-2.31.15"/><path class="cls-3" d="M257.56,1420.46c1.06.43,1.23,0,2.3.45s1.12.3,2.18.74,1.17.18,2.23.62,1,.61,2.05,1,.9.84,2,1.27,1.13.27,2.2.7,1.23,0,2.29.47,1,.63,2.06,1.07.87.85,1.9,1.38.82.19,1.81,1c.48.4.79,1.16,1.4,1.67s1.33.57,1.91,1,1.3.63,1.87,1.08.64,1.51,1.2,1.94"/><path class="cls-2" d="M264.69,1431c-.35,2.75,1,2.93.68,5.68s-.63,2.72-1,5.47-.61,2.72-1,5.47-1.09,2.66-1.44,5.41.62,2.87.27,5.63-.67,2.71-1,5.46-.35,2.75-.7,5.51-.82,2.69-1.17,5.44.56,2.86.2,5.62-.12,2.78-.47,5.53-.83,2.69-1.18,5.44-1.29,2.64-1.64,5.39-.24,2.77-.6,5.52.81,2.9.46,5.65-1.3,2.63-1.66,5.39-.3,2.76-.66,5.51-.36,2.76-.71,5.51"/><path class="cls-2" d="M275.75,1351.69c-.36,2.78.31,2.87-.05,5.65s-1.57,2.63-1.92,5.42.25,2.86-.11,5.65,0,2.83-.34,5.62-.62,2.75-1,5.54-1.39,2.65-1.75,5.44,1,3,.66,5.76"/><path class="cls-2" d="M264.93,1384.94c.35-2.76.86-2.7,1.22-5.47s-1-2.94-.68-5.71.65-2.73,1-5.5.43-2.76.79-5.53.39-2.77.75-5.54-.2-2.84.16-5.61"/><path class="cls-2" d="M246.92,1524.74c.35-2.75.44-2.74.79-5.49s.85-2.69,1.2-5.44-.58-2.87-.23-5.63-.16-2.82.19-5.57,1.33-2.62,1.68-5.38.13-2.78.48-5.53.76-2.7,1.11-5.45-.51-2.86-.16-5.61.2-2.77.56-5.52.65-2.72,1-5.47.36-2.75.72-5.5,0-2.8.37-5.55,1.4-2.62,1.75-5.37-.72-2.89-.37-5.64.89-2.68,1.25-5.44,1-2.67,1.37-5.42.54-2.74.89-5.49"/><path class="cls-2" d="M250.62,1437.94c-.35,2.71-.6,2.68-.94,5.39s.33,2.79,0,5.5-.71,2.66-1,5.37l-.68,5.43c-.34,2.71.4,2.8.06,5.51s-1.12,2.61-1.46,5.32-.76,2.65-1.1,5.36.1,2.77-.24,5.48-.85,2.64-1.19,5.35.53,2.82.18,5.53.1,2.77-.25,5.48-.78,2.65-1.13,5.36-.58,2.68-.92,5.39.25,2.79-.1,5.5-.12,2.74-.46,5.46-.71,2.67-1.05,5.38"/><path class="cls-3" d="M166.54,1460c2.7-.16,2.1-.9,5.35-.59a44.69,44.69,0,0,1,5.41.54c1.66.35,3.2,1.58,5,2.21a36,36,0,0,1,4.84,2.23,31,31,0,0,1,4.55,2.74c1.39,1.08,3.36,1.38,4.67,2.44s2.08,3,3.34,4.09,2.62,2.42,3.82,3.48c1.46,1.3,3.35,1.81,4.44,2.82,2.36,2.19,2.27,1.39,4.11,3.21"/><path class="cls-3" d="M83.64,1491.13c-.63,1.86-1.56,3.57-2.16,5.34s-1.25,3.68-1.86,5.44-1.7,3.53-2.3,5.29-.41,4-1,5.74-1.06,3.77-1.66,5.51c-.65,1.9-1.73,3.56-2.33,5.28-.67,1.93-2.18,3.43-2.77,5.12-.69,2-1.22,3.82-1.79,5.46-.73,2.1-.26,4.3-.79,5.81-1.24,3.54-1.85,2.39-2.8,5.09"/><path class="cls-3" d="M171.69,1474.52c1,2.34.11,2,.86,5.16a47.74,47.74,0,0,1,1,5c.21,1.54.38,3.25.45,5.09.06,1.6.72,3.35.63,5.14-.09,1.63-1.46,3.22-1.72,5s.07,3.4-.33,5.12-.48,3.37-1,5c-.6,1.86-1.42,3.55-2,5.24-.6,1.87-2.18,3.31-2.72,5-.62,1.89.11,4.09-.43,5.74-.63,1.92-2.2,3.37-2.73,5-.65,2-1,3.84-1.48,5.41-.7,2.12-1.89,3.67-2.37,5.09-1.26,3.78.45,3.11-.46,5.75"/><path class="cls-1" d="M254.86,1354.94c-1.86-2-2.85.07-5.61.07s-2.76-.57-5.52-.57-2.76,1.1-5.52,1.1-2.76-.34-5.52-.34-2.76.06-5.52.06-2.76-.29-5.52-.29-2.76.88-5.52.88-2.76-.44-5.52-.44-2.76.36-5.52.36-2.76-.8-5.53-.8-2.76-.45-5.52-.45-2.76-.07-5.52-.07-2.77.72-5.53.72-3-1.45-5.69-.71,1.53,2,4.09,4.46a38.8,38.8,0,0,1,4.05,3.76c1.08,1.29,2.73,2.38,3.86,4.06,1,1.43,1.71,3.19,2.66,4.92.84,1.53.8,3.59,1.59,5.37.71,1.62,2,3.07,2.62,4.9.59,1.68,1.85,3.24,2.35,5.11s.11,3.72.48,5.61c.34,1.7,1,3.48,1.27,5.43.22,1.76.72,3.61.86,5.52s.29,3.68.37,5.57,0,3.7,0,5.58-1,3.71-1,5.57,1.32,3.75,1.29,5.59-.86,3.73-.92,5.55.7,3.8.62,5.6-1,3.75-1.13,5.52c-.12,2,.51,3.89.4,5.61-.14,2.09-1,3.91-1.15,5.49-.27,3.47-1.77,3.1,0,5.21,1.56,1.83,2,1,4,2.3s1.56,2.07,3.62,3.32,1.91,1.71,4.31,1.9c2.75.22-.24-1.87.1-5.21.16-1.59-.12-3.57.25-5.58.32-1.71,2.16-3.19,2.69-5s0-3.83.73-5.58a40.13,40.13,0,0,1,2.15-5.18,32.67,32.67,0,0,1,3.49-4.43,33.44,33.44,0,0,1,4-4,33.78,33.78,0,0,1,4.72-3.19,35.1,35.1,0,0,1,5.28-2.1,44.65,44.65,0,0,1,5.3-2c3.32-.77,4.66,2.2,6-.27s0-2.83.34-5.47-.52-2.74-.18-5.38.64-2.59,1-5.23,1.16-2.53,1.49-5.16.17-2.66.51-5.3.35-2.63.68-5.27-.44-2.74-.1-5.38,1.33-2.51,1.67-5.14-.73-2.78-.39-5.42,1-2.55,1.36-5.18.55-2.61.89-5.25-.1-2.69.83-5.18C255.46,1357.7,256.66,1356.91,254.86,1354.94Z"/><path class="cls-4" d="M27.81,1345.33a4.91,4.91,0,0,0-1.51-3.42c-.87-.87-2.08-1.9-3.41-1.9s-2.23,1.35-3.1,2.22a4.27,4.27,0,0,0-1.57,3.1,4.48,4.48,0,0,0,1.4,3.27,4.68,4.68,0,0,0,3.27,1.6c1.33,0,2-1.09,2.9-2S27.81,1346.66,27.81,1345.33Z"/><path d="M95.56,1383c-4.33,3.63-3,5.36-7,5,.67-1,1-3.61,1.24-5.82.16-1.71.55-3.53.85-5.22.35-2,.52-3.57,1.62-4.54,2.92,1.14,1.86,2.37,3.12,5C96.3,1379.45,97.41,1381.46,95.56,1383Z"/><path class="cls-3" d="M95.56,1383c-4.33,3.63-3,5.36-7,5,.67-1,1-3.61,1.24-5.82.16-1.71.55-3.53.85-5.22.35-2,.52-3.57,1.62-4.54,2.92,1.14,1.86,2.37,3.12,5C96.3,1379.45,97.41,1381.46,95.56,1383Z"/><path class="cls-3" d="M371.93,979.36c1.56,2,1.64,2,3.21,4s1.65,2,3.22,4,1.44,2.16,3,4.21,2.53,1.52,2.62,4.1c.1,2.87-1.08,2.36-2.49,4.86a13.56,13.56,0,0,0-2,5.29c-.54,2.28.41,1.36,1.92,3.75.71,1.14,2.35,2.09,3,3.69.57,1.33.56,3,1,4.65a28.14,28.14,0,0,1,.43,4.64,14.4,14.4,0,0,1-.24,4.44c-.3,1.35-1.26,2.61-1.8,4.13-.48,1.36-.68,2.88-1.29,4.31s-.82,2.91-1.48,4.28-1.57,2.6-2.26,3.93-.95,3-1.66,4.24-1.57,2.69-2.29,3.91c-.85,1.45-2.62,2.17-3.3,3.27-1.45,2.36.35,3.64-1.89,3.84s-2.11-.54-4.32-1-2.38.28-4.59-.21-2-1.33-4.24-1.81-2.43.54-4.65,0-2-1.51-4.2-2-2.44.53-4.66,0"/><path class="cls-3" d="M350.55,956.08c-1.78,1.61-1.41,1.23-3.64,3.1-1.07.9-2.32,1.92-3.7,3-1.19.94-1.81,2.79-3.14,3.79s-2.61,1.89-3.93,2.8-2.93,1.5-4.26,2.31-2.78,1.87-4.13,2.51a42,42,0,0,0-3.72,2.32c-1.23.76-3,.73-4.22,1.66a38.77,38.77,0,0,0-3.49,2.82c-1.06,1-1.55,2.61-2.49,3.76a34.63,34.63,0,0,0-3,3.32,31.82,31.82,0,0,0-1.76,4.1,28.43,28.43,0,0,0-1.27,4.21,16.19,16.19,0,0,0-.25,4.77,17.33,17.33,0,0,0,.38,4.77,30.33,30.33,0,0,0,2.09,4.37c.68,1.39.71,3.21,1.59,4.7s2,2.54,2.87,4,1.27,3,2.13,4.45,1.52,2.81,2.33,4.31"/><path class="cls-3" d="M327.45,1017.26c-1.07-2.36-1.34-2.13-4-3.31-1.3-.56-3.06-1.54-5.18-1.2a19.79,19.79,0,0,0-4.91,2.1c-1.64.82-2.26,2.44-3.11,3.69a8.22,8.22,0,0,0-1.73,4.29,11.72,11.72,0,0,0,.5,4.8,14.29,14.29,0,0,0,2.33,4.35,13.12,13.12,0,0,0,4,2.9c1.43.76,3,1.78,4.65,1.85"/><path class="cls-3" d="M351,969.47c1.77-1.45,2-1.17,3.77-2.62s1.85-1.36,3.61-2.82,1.72-1.51,3.49-3l3.55-2.91"/><path class="cls-3" d="M364.22,973.15c1.77-1.45,1.13-2.24,2.9-3.69s2.27-.83,4-2.29,1.4-1.91,3.17-3.36,1.66-1.59,3.43-3"/><path class="cls-3" d="M372.28,979.74c2.36-1.34,1.82-2.28,4.18-3.62s2.69-.74,5.05-2.08,2.6-.92,5-2.26"/><path class="cls-3" d="M338.94,975.12c1.84,1.59,1.4,1.37,2.5,4.21a17.52,17.52,0,0,1,1.35,4.72c.15,1.42-.78,3-1,4.83a30.5,30.5,0,0,1-.46,4.79,42.51,42.51,0,0,1-1.53,4.52,29.4,29.4,0,0,1-2.12,4.21c-.9,1.68-1,3.5-1.85,4.51-2,2.37-4.07.43-4.32,2.82-.28,2.59,1.07,2.58,1.57,5.13s.68,2.53,1.18,5.08"/><path class="cls-3" d="M349.25,1003.44a11.86,11.86,0,0,1,5.67.95,13.77,13.77,0,0,1,5.08,3.06"/><path class="cls-3" d="M384.82,1005.12c-1.6-.34-3.5-1.36-5.59-1.12a21.46,21.46,0,0,0-5.7,1.18,7.74,7.74,0,0,0-4.21,4c.95,2.54.79,2.72,2.25,5s2.73,1.47,4.19,3.76.51,2.9,2,5.19"/><path class="cls-3" d="M351.94,988.29c1.19-1,3.69-1.33,6-1.93a14.66,14.66,0,0,1,6-.09"/><path class="cls-3" d="M371.34,1032.83c-2-1.19-2.33-.63-4.32-1.82s-2.12-1-4.11-2.15-2-1.16-4-2.35-1.65-1.78-3.64-3-1.83-1.76-4.15-2,.36,1.71.57,4.17c.12,1.34-.86,3.13-.27,4.57a10.9,10.9,0,0,0,2.85,3.58,10.66,10.66,0,0,0,4.09,1.72,14.58,14.58,0,0,0,4.32,1"/><path d="M336,1051.17c-2.5.57-.7,2.65-.2,5.71a23,23,0,0,0,1.78,4.88c.62,1.43,2.07,2.5,3.19,4,.89,1.2.91,3,1.81,4,1.06,1.19,2.56,1.78,3.46,2.63,1.88,1.79,1.69,4.48,3.14,2.92,1.75-1.87,1.25-2.26,2.29-4.59s1.17-2.29,2.21-4.63.91-2.39,2-4.73,3.39-2.64,2.47-5c-.79-2.05-2.88.29-5-.2s-2.05-.86-4.18-1.35-2.23-.1-4.36-.6-2.08-.79-4.08-1.71C338.31,1051.53,338.16,1050.68,336,1051.17Z"/><path class="cls-7" d="M336,1051.17c-2.5.57-.7,2.65-.2,5.71a23,23,0,0,0,1.78,4.88c.62,1.43,2.07,2.5,3.19,4,.89,1.2.91,3,1.81,4,1.06,1.19,2.56,1.78,3.46,2.63,1.88,1.79,1.69,4.48,3.14,2.92,1.75-1.87,1.25-2.26,2.29-4.59s1.17-2.29,2.21-4.63.91-2.39,2-4.73,3.39-2.64,2.47-5c-.79-2.05-2.88.29-5-.2s-2.05-.86-4.18-1.35-2.23-.1-4.36-.6-2.08-.79-4.08-1.71C338.31,1051.53,338.16,1050.68,336,1051.17Z"/><path class="cls-3" d="M359.8,1083.44c-2,1.32-1.81,1.6-3.79,2.92s-2.48.59-4.47,1.92-1.31,3.64-3.69,3.38c-2.05-.23-1.07-2-2.27-3.7s-1.06-1.78-2.26-3.47-.53-3.45-2.57-3.75c-2.35-.35-2.35,1.38-4.39,2.58s-1.52,2.11-3.56,3.32-2.09,2.46-4.44,2.11c-2.14-.32-1.44-1.82-2.76-3.53s-1.68-1.45-3-3.16-.77-2.15-2.09-3.86-1-2-2.33-3.67-1.37-1.68-2.69-3.4-3.34-1-3.6-3.11,1.32-2.19,2.19-4.23,1.69-1.7,2.55-3.75-.32-2.54.54-4.58"/><path class="cls-3" d="M307,1068.84c-2.11,1.35-1.74.84-4.34,2.52-1.2.79-2.72,1.57-4.29,2.6-1.3.85-2.34,2.34-3.81,3.32s-3.22,1.11-4.64,2.06-2.27,2.61-3.66,3.55-2.78,1.88-4.14,2.82-2.9,1.55-4.23,2.55-2.62,1.93-3.89,3-2.91,1.69-4.08,2.9-1.27,3.21-2.33,4.53-1.88,2.56-2.81,4-1.64,2.71-2.44,4.22-2.3,2.46-3,4-.71,3.19-1.26,4.8-1.26,3-1.71,4.63-.47,3.2-.84,4.87-.35,3.21-.64,4.89"/><path class="cls-3" d="M254.29,1221.56c1.61-1,2.75-2.63,4.19-3.57,1.62-1.07,3.46-1.57,4.89-2.51,1.64-1.09,2.87-2.51,4.27-3.45,1.65-1.1,3.16-2.09,4.55-3,1.66-1.11,3.49-1.61,4.88-2.54,1.63-1.11,3.51-1.51,4.93-2.47s2.73-2.46,4.25-3.46,2.92-2,4.55-3c1.42-.9,3.06-1.65,4.75-2.7,1.42-.87,2.75-2.16,4.45-3.19,1.44-.87,3.37-1.15,5.07-2.16,1.45-.87,2.8-2.15,4.48-3.14,1.47-.87,2.72-2.33,4.38-3.31,1.49-.87,2.94-2,4.6-3,1.5-.87,3.68-.73,5.33-1.7,1.5-.88,3-2,4.6-2.94s3.28-1.47,4.91-2.42,2.68-2.52,4.31-3.47,3.52-1.06,5.15-2,2.75-2.51,4.38-3.45a27,27,0,0,0,2.87-4.45c1.34-2.28,1.68-2.07,3-4.34s1.15-2.39,2.49-4.66,1-2.45,2.38-4.73,1-2.44,2.74-4.45c1.57-1.82,2.1-1.11,4-2.6l3.79-3"/><path class="cls-3" d="M279.67,1166.3c2.56-.68,2.66-.29,5.22-1s2.54-.77,5.1-1.45,2.74,0,5.3-.67,2.33-1.54,4.89-2.23,2.76.07,5.32-.61,2.5-.92,5.06-1.61,2.49-1,5.05-1.67,3.06.29,5.27-1.17-.18-2.58.61-5.85c.38-1.62,1.49-3.32,2.1-5.29.54-1.73.69-3.7,1.41-5.49a47.8,47.8,0,0,1,2.09-5.32c1-1.71,2.77-2.82,4-4.16s3-2.07,4.6-2.83"/><path class="cls-3" d="M333.08,1141c1.41-2.1,1.43-1.61,3.06-4,.86-1.27,2.4-2.35,3.38-3.83s1.48-3.2,2.35-4.53c1.15-1.77,1.68-3.58,2.26-4.55a14.47,14.47,0,0,1,4.1-3.67,45.77,45.77,0,0,1,4.6-2.58c2.58-1.29,2.9.11,5.31-.84"/><path class="cls-3" d="M346.47,1146.83c1.66-2.3,2.42-1.74,4.09-4s1.83-2.18,3.5-4.48.43-3.36,2.47-5.34c1.55-1.52,1.92-1.27,3.78-2.39s1.83-1.17,3.69-2.3"/><path class="cls-3" d="M343.64,1139.49c1.6-2,1.1-2.41,2.71-4.42s1.8-1.86,3.41-3.88.78-2.89,2.68-4.62c1.61-1.46,2.16-1,4-2.08s1.85-1.16,3.7-2.28"/><path class="cls-3" d="M311.54,1158.24c0,2.46.31,2,.47,4.88.09,1.45-.33,3.15-.16,4.94.16,1.57.38,3.22.63,4.87s.85,3.21,1.22,4.76a30,30,0,0,0,1.32,4.67c.79,1.8,1.5,3.28,2.68,4"/><path d="M322.38,1177.77c-2.13-.29-1.63,2.25-3.48,3.34s-2.26.24-3.47,2,1,.84,2.49,2.34c1,1,1.67,2.7,2.84,2.92,1.4.26,1.54-2.26,1.57-4.67C322.37,1181.13,325,1178.14,322.38,1177.77Z"/><path class="cls-7" d="M322.38,1177.77c-2.13-.29-1.63,2.25-3.48,3.34s-2.26.24-3.47,2,1,.84,2.49,2.34c1,1,1.67,2.7,2.84,2.92,1.4.26,1.54-2.26,1.57-4.67C322.37,1181.13,325,1178.14,322.38,1177.77Z"/><path class="cls-3" d="M296.91,1164a32.58,32.58,0,0,0-.05,4.93c.08,1.44,0,3.14.2,4.92.15,1.58,1,3.15,1.28,4.8s-.28,3.45.1,5c.41,1.72,1.76,3,2.35,4.38.8,1.81,1.53,2.94,2.71,3.6"/><path class="cls-2" d="M304.69,1153.61c0-2.35.55-2.35.55-4.69s-.4-2.34-.4-4.69,0-2.34,0-4.69.18-2.34.18-4.69-.31-2.34-.31-4.69.57-2.35.57-4.69-.31-2.35-.31-4.7-.48-2.34-.48-4.69-.17-2.34-.17-4.69.93-2.35.93-4.69-.17-2.35-.17-4.7-1.62-2.57.08-4.2,2-.44,4.4-.44,2.45.65,4.89.65,2.45-.6,4.89-.6,2.45.17,4.9.17,2.77-1.63,4.48.13,0,2.13,0,4.66.26,2.54.26,5.08-.08,2.54-.08,5.08-.32,2.54-.32,5.08,0,2.54,0,5.08"/><path class="cls-3" d="M381.47,1075.46a12.39,12.39,0,0,1,3.53,1.82,31,31,0,0,1,3.44,2c1,.75,1.94,1.68,3,2.67s1.61,2,2.52,3.1,2.29,1.53,3.09,2.67.7,2.66,1.38,3.86,1.28,2.25,1.85,3.51,1.43,2.23,1.89,3.54.72,2.52,1.08,3.86,1,2.62,1.34,3.93.67,2.71,1,4,.93,2.66,1.28,4,.41,2.8.77,4.09,1.07,2.62,1.42,3.9,0,2.93.35,4.21.73,2.72,1.08,4,1.69,2.47,2.05,3.73c.4,1.41.12,2.92.47,4.16.41,1.45.42,2.88.77,4.1.43,1.48.78,2.81,1.12,4,.47,1.59,1.86,2.61,2.18,3.67.86,2.83-.69,5.66.78,4.22s.36-2.2,1.39-4,2.12-1.13,3.15-2.89,1-1.8,2-3.56.52-2.06,1.55-3.82l2.08-3.52c1-1.76,1-1.81,2-3.57s.77-1.92,1.81-3.68,1.78-1.32,2.82-3.08.35-2.16,1.39-3.93,2-1.21,3-3,.84-1.88,1.88-3.64-.43-3.81,1.57-4.27,1.87,1.49,3.51,2.64,1.2,1.76,2.84,2.91,2.33.16,4,1.31,1,2.12,2.6,3.27,1.72,1,3.37,2.17,2.08.52,3.72,1.67"/><path class="cls-3" d="M457.31,1136.29c-.7,1.93-1.35.86-2.4,3.47-.42,1,.19,2.76-.43,4.25-.48,1.12-.9,2.43-1.5,3.83-.5,1.15-1.82,2.07-2.41,3.42-.52,1.18-1.28,2.33-1.87,3.65s-1.33,2.32-1.92,3.63-.55,2.69-1.14,4-1.37,2.33-2,3.62-1.27,2.37-1.87,3.65,0,3-.64,4.23-2.38,1.86-3,3.13,0,3-.61,4.26-1.36,2.35-2,3.61a18.37,18.37,0,0,1-2.38,3.63,16.22,16.22,0,0,1-3.42,2.59c-1.15.83-2.14,2.07-3.47,2.6s-2.93,0-4.36.23a25.41,25.41,0,0,1-4.14.74,31.83,31.83,0,0,1-4.26,0,37.81,37.81,0,0,1-4.11-1.16c-1.37-.32-2.72-.67-4.07-1.13s-3-.09-4.34-.67-2.17-2.05-3.4-2.75A41.11,41.11,0,0,1,394,1187a37.17,37.17,0,0,1-3-3c-1.08-1-3-1.07-3.89-2.12a29.27,29.27,0,0,1-2.39-3.61"/><path class="cls-3" d="M440,1126.1c1.82,1.24,1.49,1.73,3.31,3s1.72,1.38,3.54,2.62,1.63,1.51,3.45,2.75,2.3.54,4.12,1.78,2,1,3.83,2.21,1.73,1.38,3.55,2.62"/><path class="cls-3" d="M468,1117.35c1.44-1.33,1.49-.66,3.25-2.28.85-.77,1.73-1.8,2.8-2.78s1.29-2.42,2.3-3.34,2.63-1,3.61-1.89,1.42-2.44,2.36-3.28,2.64-1.18,3.54-2c1.28-1.11,1.81-2.65,2.5-3.17a13.69,13.69,0,0,0,2.62-2.4,35.19,35.19,0,0,0,1.89-3.08c.7-1.1,1.19-2.23,1.71-3.19,1-1.86,1.89-1.09,2.65-2.74"/><path class="cls-3" d="M477.46,1074c-1,1.74-1.08,1.12-2.49,3.09-.67.94-1.27,2.15-2.22,3.28-.81,1-1.31,2.32-2.29,3.3a37.14,37.14,0,0,1-3,2.65c-1.17.94-2.57,1.7-3.85,2.62s-2.84,1.44-4.08,2.28c-1.41.94-2.64,2-3.8,2.68a16.38,16.38,0,0,0-3.41,2.72"/><path class="cls-3" d="M458,1080.58c-.91,1.1-1.83,2.19-2.76,3.22s-2.44,1.64-3.38,2.64-1.66,2.37-2.59,3.38-1.52,2.46-2.39,3.5-2.86,1.44-3.62,2.55a22,22,0,0,0-1.85,3.91,13.91,13.91,0,0,0-.64,4.21,12.39,12.39,0,0,0-.09,4.26c.32,1.26,1.54,2.27,2.28,3.63"/><path class="cls-3" d="M485.7,1077.86c-1.06,1.89-1.46,1.05-3.08,3.19-.75,1-1.1,2.61-2.19,3.82-.9,1-2.47,1.5-3.6,2.55s-1.72,2.35-2.91,3.27-2.83.89-4.09,1.68"/><path class="cls-3" d="M491.09,1082.1a38.05,38.05,0,0,1-2.65,3.48c-.78,1-1.6,2.28-2.65,3.5-.91,1.06-2.19,1.86-3.26,2.93s-1.32,2.94-2.45,3.85"/><path class="cls-3" d="M459.55,1112.79a13.41,13.41,0,0,1,.65-3.89,12.82,12.82,0,0,1,1.76-3.53,15.47,15.47,0,0,1,2.61-3.09c1.11-.88,1.94-2.25,3.12-2.84s3.09-.12,4.25-.5c2.3-.74,1.76-1.33,3.8-1.61"/><path d="M462.44,1125.91c-.34,1.61.32,1.79,1.68,2.86.85.68,2.4.17,3.44.33,1.69.27.14-.37-1.22-2s-.43-2.79-2.44-3.27C462.62,1123.56,462.72,1124.61,462.44,1125.91Z"/><path class="cls-3" d="M462.44,1125.91c-.34,1.61.32,1.79,1.68,2.86.85.68,2.4.17,3.44.33,1.69.27.14-.37-1.22-2s-.43-2.79-2.44-3.27C462.62,1123.56,462.72,1124.61,462.44,1125.91Z"/><path class="cls-3" d="M367.68,1074.5c1.68,1.52,1.65.68,3.45,2.9.81,1,1.17,2.59,2.14,4,.77,1.14,2.44,1.88,3.25,3.3.7,1.23.87,2.86,1.56,4.3s2,2.36,2.58,3.83.34,3,.81,4.54,1.54,2.66,1.92,4.18-.31,3.11,0,4.64,1.22,2.83,1.4,4.37-.26,3-.17,4.57.35,3,.35,4.52.66,3,.66,4.62-1.27,3-1.27,4.63,1,3,1,4.63,0,3,0,4.63-.87,3.06-.87,4.62.92,3.07.92,4.63.34,3.07.34,4.62-1.17,3.08-1.17,4.63,1,3.08,1,4.63-.5,3.09-.5,4.63.26,3.09.26,4.63.22,3.1.22,4.63-.41,3.1-.41,4.63-.74,3.11-.74,4.63.16,3.12.16,4.64.91,3.12.91,4.63.18,3.13.18,4.63-.18,3.15-.18,4.63c0,1.63-.25,3.17-.25,4.63,0,1.67.22,3.22.22,4.63,0,1.77-1,3.32-1,4.63,0,2.94,1.21,2.31,1.21,4.62"/><path class="cls-3" d="M346.43,1052.29c1.83-2,2.37-1.57,4.2-3.62"/><path class="cls-3" d="M358.27,1050.48c-1.83,2-1.66,2.2-3.49,4.25"/><path class="cls-3" d="M363.81,1051.91c-1.83,2-1.8,2.07-3.63,4.12"/><path d="M418.27,1154.41c-.24,2.44-2.14,2.38-4.38,3.22-1.55.57-3.18-.34-4.57-1.52s-2.06-2.09-2.05-3.52a9.35,9.35,0,0,1,1.46-4.07,21.54,21.54,0,0,1,2.49-3.59c1.55-1.94.82-4.88,2.33-3.24s.83,1.9,1.48,4.06-.06,2.51,1,4.52C417.12,1152.43,418.49,1152.16,418.27,1154.41Z"/><path class="cls-7" d="M418.27,1154.41c-.24,2.44-2.14,2.38-4.38,3.22-1.55.57-3.18-.34-4.57-1.52s-2.06-2.09-2.05-3.52a9.35,9.35,0,0,1,1.46-4.07,21.54,21.54,0,0,1,2.49-3.59c1.55-1.94.82-4.88,2.33-3.24s.83,1.9,1.48,4.06-.06,2.51,1,4.52C417.12,1152.43,418.49,1152.16,418.27,1154.41Z"/><path class="cls-3" d="M264.44,925.94c0-1.76,0-1.76,0-3.53s-1-1.76-1-3.53"/><path class="cls-3" d="M270,925.94c0-1.6,1-1.6,1-3.21s-.33-1.61-.33-3.21-.26-1.61-.26-3.22"/><path class="cls-3" d="M277.64,925.94c0-1.52-1.28-1.52-1.28-3.05s.21-1.52.21-3,.07-1.53.07-3.05.45-1.53.45-3.06"/><path class="cls-1" d="M346,1605.43a4.56,4.56,0,0,1-3.18-1,4.8,4.8,0,0,1-1.25-3.18,3.79,3.79,0,0,1,4.43-4.35,4.28,4.28,0,0,1,2.89,1.45c.75.75.67,1.75.67,2.9s.39,2.44-.36,3.2A4.64,4.64,0,0,1,346,1605.43Z"/><path d="M416.13,928a2.51,2.51,0,0,1-.95,2c-.63.63-1.08,1.6-2,1.6a4.42,4.42,0,0,1-2.89-.76A4.75,4.75,0,0,1,409,928c0-1,1-1.86,1.64-2.49s1.53-.4,2.49-.4,2.14-.51,2.77.12S416.13,927.06,416.13,928Z"/><path class="cls-3" d="M421.21,922.19c-1-.85-2.65-1-4-1.49a13.07,13.07,0,0,0-4.06-.41c-1.45,0-3-.43-4.23,0a12,12,0,0,0-3.84,2"/><path class="cls-3" d="M425.42,918c-.79-.71-2.13-.71-3.1-1.26a16.16,16.16,0,0,0-3-1.13,17.75,17.75,0,0,0-3-1.19c-1.05-.17-2.11-1.06-3.22-1.06a21.73,21.73,0,0,0-3.36.36c-1.11.19-1.93,1.43-2.94,1.79s-2.39.08-3.32.62a15.84,15.84,0,0,0-2.68,2"/><path class="cls-3" d="M405.08,922.31a12.06,12.06,0,0,1,3.87-1.9,13.26,13.26,0,0,1,4.19-.45c1.44,0,2.64.83,3.88,1.25s3,.4,4,1.25"/></g></g></g></g></svg>