<svg xmlns="http://www.w3.org/2000/svg" viewBox="0 0 546.33 1759.38"><defs><style>.cls-1{fill:#8e9b91;}.cls-2,.cls-3,.cls-5,.cls-7,.cls-9{fill:none;}.cls-2{stroke:#677d70;}.cls-2,.cls-3,.cls-5,.cls-9{stroke-linecap:round;stroke-linejoin:round;stroke-width:3.61px;}.cls-3{stroke:#000;}.cls-4{fill:#677d70;}.cls-5,.cls-7{stroke:#e6b49d;}.cls-6{fill:#e6b49d;}.cls-7{stroke-miterlimit:10;stroke-width:4.33px;}.cls-8{fill:#fff;}.cls-9{stroke:#fff;}</style></defs><g id="Layer_2" data-name="Layer 2"><g id="sect9"><g id="bg"><g id="right2"><path class="cls-1" d="M210.91,869.38c-2.06,2.08-3.25-.25-6.17-.25s-2.93-.15-5.85-.15-2.93.16-5.85.16-2.92-.72-5.85-.72-2.92,1.38-5.85,1.38-2.92-.74-5.84-.74-2.93-.51-5.85-.51-2.93.33-5.85.33-2.93.78-5.85.78-2.93-.15-5.85-.15-2.92-1-5.85-1-2.92-.35-5.84-.35-2.93,1.37-5.85,1.37-2.93-.8-5.85-.8-2.93.89-5.85.89-2.93-.39-5.86-.39-2.92-.43-5.84-.43-2.93.47-5.86.47-2.93-.67-5.86-.67-3.46,2.17-5.49.06,0-2.69,0-5.73.3-3,.3-6.07-1-3-1-6.08-.48-3-.48-6.08.09-3,.09-6.07.06-3,.06-6.08,1.08-3,1.08-6.08,0-3,0-6.07-1-3-1-6.08.61-3,.61-6.09S96,804,93.78,802c-2.48-2.25-3.54.21-6.9.21s-3.35-.62-6.7-.62-4.08,2.7-6.62.52c-2.18-1.87-.63-2.78-.63-5.65s1.2-2.88,1.2-5.75-1.21-2.88-1.21-5.75.12-2.88.12-5.75-.36-2.88-.36-5.75.89-2.88.89-5.75-.34-2.88-.34-5.75-.61-2.88-.61-5.76,0-2.87,0-5.74.17-2.88.17-5.75.09-2.88.09-5.75.62-2.88.62-5.76.81-2.87.81-5.75-1.4-2.88-1.4-5.75-.37-2.88-.37-5.75.88-2.88.88-5.76.06-2.88.06-5.76-1.84-3.46.23-5.46,2.69.06,5.67.06,3,.11,6,.11,3-1.2,6-1.2,3,1.4,6,1.4,3-1.54,6-1.54,3,1.71,6,1.71,3-.93,6-.93,3-.69,6-.69,3,.52,6,.52,3,.91,6,.91,3-1.44,6-1.44,3,.53,6,.53,3,1,6,1,3-.65,6-.65,3,.44,6,.44,3,.23,6,.23,3-.69,6-.69,3,.72,6,.72,3,.09,6,.09,3-.2,6-.2,3-1.22,6-1.22,3,.54,6,.54,3.61-1.84,5.74.26.79,2.69.79,5.63-.14,2.93-.14,5.87-.76,2.93-.76,5.87-.46,2.94-.46,5.88.25,2.93.25,5.87.37,2.94.37,5.87.85,2.94.85,5.88S210,742.7,210,745.64s.11,2.94.11,5.88.19,2.93.19,5.87-.33,2.94-.33,5.88,1.19,2.93,1.19,5.87-.48,2.94-.48,5.88-.15,2.93-.15,5.87-.17,2.94-.17,5.88,1,2.94,1,5.87-1.66,2.94-1.66,5.88,1,2.94,1,5.87.4,2.94.4,5.88-.25,2.94-.25,5.87-.21,2.94-.21,5.88-.83,2.94-.83,5.87.59,2.94.59,5.88-.09,2.94-.09,5.88.69,2.94.69,5.88.34,2.94.34,5.88-1.44,2.94-1.44,5.88.18,3,.87,5.81C211.65,866.33,213,867.3,210.91,869.38Z"/><path class="cls-1" d="M545.39,1546.83c-1.49-1.49-2.1-.56-4.2-.56s-2.11.5-4.21.5-2.11-.36-4.21-.36-2.11-.12-4.21-.12-2.1.09-4.21.09-2.1,0-4.21,0-2.11,1.09-4.21,1.09-3-2.51-4.65-1.2c-1.45,1.17.6,2.43.39,4.29s.09,1.89-.12,3.74-.22,1.86-.43,3.72-.7,1.75-1.52,3.43c-1.38,0-2.26.22-3.5.16-1.39-.07-2.66-.6-3.89-.72-1.4-.14-2.78.34-4,.14-1.4-.23-2.76-.28-3.93-.58a25.43,25.43,0,0,1-3.61-1.69,18.77,18.77,0,0,1-3.51-1.76c-1.28-.86-1.64-2.19-2.29-3.1-.89-1.26-1.73-2.15-1.84-3.27a5.06,5.06,0,0,1,.52-3.23c-2.18,0-2.18-1.21-4.36-1.21s-2.18.2-4.36.2-2.18.31-4.36.31-2.18.17-4.36.17-2.18.51-4.36.51-2.18-.85-4.37-.85-2.18.32-4.36.32-2.37-.92-4.38-.07,1.39,1.23,3.1,3.35c.83,1,1.67,2.35,2.66,3.69.85,1.16,2.09,2.19,2.94,3.5s.84,3,1.55,4.36,1.92,2.5,2.44,3.86a20,20,0,0,1,1.29,3.75c.23,1.27-.2,2.66-.17,4s.69,2.67.57,4-.29,2.67-.53,3.93-.85,2.56-1.18,3.78-1.09,2.49-1.48,3.65c-.47,1.38-1.46,2.4-1.88,3.44-.91,2.21-.93,1.77-.65,3.7.31,2.2,1.29,1.18,2.49,3.53a36.35,36.35,0,0,1,1.47,4.27,26.66,26.66,0,0,1,1.28,4.33,22,22,0,0,1,.26,4.54,18.26,18.26,0,0,1-.85,4.47,28.1,28.1,0,0,1-1.48,3.69,29.78,29.78,0,0,1-1.9,3.51,29.33,29.33,0,0,1-2.35,3.24c-.94,1-2.34,1.51-3.3,2.29s-2.52,1.05-3.56,1.65c-1.31.75-2,2.42-3,2.76a21.74,21.74,0,0,1-4.6.81c-1.53.14-3.17-.68-4.59-.67-2.55,0-4.15-2.08-4,.17s.41,2,1.53,3.78,1.78,1.41,2.9,3.23.77,2,1.9,3.84.61,2.13,1.74,3.95,1.48,1.6,2.6,3.42.78,2.09,2.38,3.51,1.45-.32,4-.63c1.19-.14,2.56-.68,4.12-.83,1.29-.11,2.76.74,4.24.65,1.33-.08,2.71-.12,4.15-.16s2.74-.07,4.16-.06,2.8-.86,4.2-.79,2.82,0,4.2.18,2.7,1.07,4.06,1.3,2.9,0,4.22.29a38.78,38.78,0,0,1,4,1.39,28.15,28.15,0,0,1,4,1.57c1.17.69,1.61,2.43,2.66,3.22s2.51,1.13,3.47,2,1.49,2.24,2.36,3.26,2.24,1.6,3,2.7.82,2.62,1.53,3.78,1.28,2.28,1.92,3.46,1.71,2.09,2.31,3.31,1,2.46,1.56,3.69,1.94,2,2.49,3.26.53,2.66,1.08,3.9,1.33,2.3,1.89,3.53,1.16,2.38,1.73,3.61.62,2.64,1.22,3.85.68,2.86,1.26,4.1,2.15,2.2,2.69,3.46,1.06,2.71,1.57,4,.23,3,.69,4.28,1.86,2.45,2.27,3.72c.47,1.45.26,3,.61,4.26.41,1.51.55,2.91.83,4.15.36,1.63.82,3,1,4.12.44,2.79-1.49,4,.49,4.76,1.75.66,2.1,0,4,0s1.87-1.14,3.74-1.14,1.88.07,3.75.07,2.33,1.68,3.58.28c1.4-1.55-.13-1.93-.13-4s.8-2.09.8-4.17-.85-2.09-.85-4.17.87-2.08.87-4.17-.52-2.08-.52-4.17-.2-2.08-.2-4.17,0-2.08,0-4.17.63-2.09.63-4.17-.21-2.09-.21-4.17,0-2.08,0-4.17-.44-2.08-.44-4.17.22-2.08.22-4.17.12-2.08.12-4.17-.19-2.09-.19-4.17.74-2.09.74-4.17-.42-2.09-.42-4.18.17-2.08.17-4.17-.47-2.08-.47-4.17-.35-2.09-.35-4.17.49-2.09.49-4.17.13-2.09.13-4.18.18-2.08.18-4.17-.34-2.09-.34-4.17-.22-2.09-.22-4.18.15-2.09.15-4.17.29-2.09.29-4.18-.53-2.08-.53-4.17.39-2.09.39-4.17-.66-2.09-.66-4.18.81-2.09.81-4.18-.11-2.08-.11-4.17.39-2.09.39-4.18-1.22-2.08-1.22-4.17.65-2.08.65-4.17.72-2.09.72-4.17-1.35-2.09-1.35-4.18.29-2.09.29-4.17.76-2.09.76-4.18-.57-2.09-.57-4.18.68-2.09.68-4.18-.68-2.09-.68-4.18.69-2.08.69-4.17-.94-2.09-.94-4.18.89-2.09.89-4.18-.48-2,0-4.09S546.88,1548.3,545.39,1546.83Z"/><path class="cls-2" d="M536.56,1540.2c0,2.08-.69,2.08-.69,4.16s.72,2.08.72,4.16.51,2.09.51,4.17-1.21,2.08-1.21,4.16,1.27,2.08,1.27,4.16-1,2.08-1,4.17.88,2.08.88,4.16,0,2.08,0,4.17-.55,2.08-.55,4.16-.5,2.08-.5,4.16.84,2.08.84,4.17,0,2.08,0,4.16-.18,2.09-.18,4.17-.12,2.08-.12,4.17.42,2.08.42,4.16,0,2.08,0,4.17-.51,2.08-.51,4.17-.11,2.08-.11,4.16.72,2.09.72,4.17-.31,2.08-.31,4.16.27,2.09.27,4.17-1.15,2.09-1.15,4.17.22,2.08.22,4.17-.08,2.08-.08,4.17.26,2.08.26,4.16-.16,2.09-.16,4.18-.12,2.08-.12,4.16,0,2.09,0,4.17,1.1,2.09,1.1,4.17-.68,2.09-.68,4.17.77,2.09.77,4.17-1.17,2.09-1.17,4.17.1,2.09.1,4.18.18,2.08.18,4.17.13,2.08.13,4.17.13,2.08.13,4.17.47,2.08.47,4.16-.19,2.09-.19,4.17-.17,2.09-.17,4.18v4.17c0,2.08.43,2.08.43,4.17s-.19,2.08-.19,4.17-.16,2.08-.16,4.17.05,2.09.05,4.18,0,2.08,0,4.17,1.69,3.14.21,4.62-2.53-.26-4.62-.26-2.09-.07-4.18-.07-2.09.5-4.18.5-2.09-1.15-4.18-1.15-2.09.86-4.18.86-2.09.33-4.18.33-2.09-1.07-4.18-1.07-2.09-.29-4.18-.29-2.09.06-4.18.06-2.09,1-4.18,1-2.09.06-4.18.06-2.09-.36-4.18-.36-2.09.09-4.18.09-2.09.19-4.18.19-2.09-.17-4.18-.17-2.09-.16-4.19-.16-2.09-.65-4.18-.65-2.09.37-4.18.37-2.09-.12-4.18-.12-2.09-.28-4.18-.28-2.09.74-4.18.74-2.09.44-4.18.44-2.09-.43-4.18-.43-2.09.51-4.18.51-2.09-.22-4.18-.22-2.09-.22-4.19-.22-2.09.13-4.17.13l-4.18,0c-2.09,0-2.09-.35-4.18-.35s-2.09-.09-4.17-.09-2.09.57-4.18.57-2.09-.36-4.18-.36-2.09-.6-4.18-.6-2.09.24-4.18.24-2.09.85-4.18.85-2.09-.62-4.18-.62-2.09-.12-4.18-.12-2.09-.14-4.18-.14-2.09.83-4.18.83-2.09-1-4.18-1-2.09-.13-4.18-.13-2.09.22-4.18.22-2.09.36-4.18.36-2.09-.19-4.18-.19-2.09,1-4.19,1-2.09-1-4.18-1-2.09.55-4.18.55-2.09-.89-4.18-.89-2.09.65-4.18.65-2.09.49-4.18.49-2.1,0-4.19,0-2.09-.46-4.18-.46-2.09-.11-4.18-.11-2.1-.65-4.19-.65-2.09.83-4.18.83-2.09.49-4.18.49-2.1-.3-4.19-.3-2.09-.57-4.18-.57-2.1-.1-4.19-.1-2.09-.25-4.18-.25-2.09.29-4.18.29-2.09-.24-4.18-.24-2.09.29-4.19.29-2.09,0-4.18,0-2.09.69-4.18.69-2.1-.71-4.19-.71-2.09.42-4.19.42-2.09.49-4.18.49-2.1-1.15-4.19-1.15-2.09.36-4.19.36-2.09-.54-4.19-.54-2.09.73-4.19.73-2.2.92-3.69-.56.13-1.59.13-3.68-1-2.1-1-4.2-.22-2.09-.22-4.19,1.22-2.1,1.22-4.19-.44-2.1-.44-4.2-.31-2.09-.31-4.19.19-2.1.19-4.19-.24-2.1-.24-4.2,0-2.09,0-4.19-.36-2.1-.36-4.2,1.06-2.09,1.06-4.18-.71-2.1-.71-4.2.06-2.09.06-4.19-.57-2.1-.57-4.2.34-2.09.34-4.19.2-2.1.2-4.2.43-2.1.43-4.19-.9-2.1-.9-4.2.86-2.1.86-4.2-.13-2.1-.13-4.2-.3-2.09-.3-4.19-.42-2.1-.42-4.2,0-2.1,0-4.2.39-2.11.39-4.21"/><path class="cls-3" d="M349,1731.64c-1.31-.44-2.52-1.12-3.81-1.6s-2.7-.65-4-1.16-2.34-1.52-3.61-2.07-2.64-.81-3.89-1.39-2.64-.87-3.87-1.48-2.1-1.93-3.32-2.57-2.51-1.12-3.71-1.79-2.81-.65-4-1.34-1.93-2.12-3.1-2.85-2.56-1.11-3.71-1.86-2.59-1.08-3.73-1.85-2.41-1.39-3.53-2.18-2.19-1.71-3.29-2.52-2.21-1.67-3.31-2.5-2.28-1.58-3.36-2.43-1.57-2.45-2.63-3.32-2.69-1.09-3.74-2-1.35-2.66-2.39-3.56-2.3-1.56-3.32-2.48-2.05-1.85-3.05-2.78-1.95-2-2.93-2.91-2.37-1.53-3.34-2.49-2.06-1.86-3-2.83-1.31-2.6-2.25-3.58-2.08-1.84-3-2.84-2.19-1.74-3.11-2.75-2.13-1.82-3-2.84-2-1.94-2.89-3-1-2.82-1.87-3.86-1.6-2.27-2.46-3.32-2.31-1.71-3.16-2.76-1.72-2.19-2.55-3.25-1.17-2.61-2-3.68-2.35-1.72-3.16-2.79-1.59-2.31-2.38-3.38-1.5-2.38-2.27-3.46-1.33-2.51-2.08-3.58-1.79-2.22-2.51-3.29c-.84-1.24-1.59-2.39-2.28-3.44-.87-1.33-1.47-2.58-2.08-3.55a29.06,29.06,0,0,0-2.9-3.86c1.6-1.32,2.15-.65,3.75-2s1.31-1.66,2.9-3,1.34-1.64,2.93-3,1.63-1.28,3.23-2.59,1.63-1.27,3.23-2.58,2.31-.46,3.91-1.78,1.68-1.22,3.28-2.54a9.18,9.18,0,0,1,2.54,2.52c.74.92.91,2.59,1.94,3.84.81,1,1.81,2,2.8,3.14.85,1,2.52,1.42,3.5,2.53s.91,2.85,1.89,3.94,2.31,1.63,3.29,2.69,1.6,2.3,2.59,3.35,2,1.94,3,3,1.64,2.29,2.65,3.3,2.79,1.13,3.81,2.12,1.53,2.43,2.56,3.4,2.44,1.47,3.49,2.43,2.17,1.74,3.23,2.68,1.69,2.31,2.76,3.24,1.68,2.36,2.76,3.26,2.26,1.67,3.37,2.56,2.86.88,4,1.74,2.05,1.93,3.18,2.77,2,2,3.14,2.85,2.45,1.38,3.62,2.17,2.46,1.35,3.64,2.11,2.29,1.63,3.49,2.36,2.49,1.28,3.71,2,2.21,1.79,3.45,2.46,2.84.6,4.09,1.23,2.28,1.72,3.55,2.31,2.68.86,4,1.41,2.59,1,3.9,1.54,2.63,1,3.95,1.4,2.54,1.29,3.88,1.68"/><path class="cls-3" d="M365.79,1681.48c-.67.57-1.29,1.2-1.91,1.8s-1,1.43-1.62,2.08-1.39,1.12-1.93,1.79-.64,1.71-1.14,2.41-1.37,1.19-1.83,1.93-1.05,1.43-1.47,2.19-.7,1.62-1.08,2.4-.22,1.81-.56,2.61-1.29,1.37-1.59,2.18-.39,1.73-.65,2.55-.77,1.61-1,2.45.14,1.84-.05,2.68-1,1.58-1.17,2.43.41,1.86.28,2.7-1.13,1.63-1.23,2.47,0,1.8-.08,2.64.18,1.8.13,2.63-.37,1.79-.39,2.61.57,1.82.57,2.62c0,1-.57,1.88-.54,2.61a5.14,5.14,0,0,0,.74,2.6"/><path class="cls-1" d="M225.21,1083.71c-1.23,1.22-.19,1.39-.19,3.12s.34,1.73.34,3.45-.79,1.73-.79,3.46,0,1.72,0,3.45,1,1.73,1,3.46-.68,1.73-.68,3.46-.39,1.72-.39,3.45,0,1.73,0,3.46,1,1.72,1,3.45-.71,1.73-.71,3.46.81,1.73.81,3.45-1.25,1.73-1.25,3.46.08,1.73.08,3.46.6,1.73.6,3.46,0,1.72,0,3.45.09,1.73.09,3.46.31,1.73.31,3.45-.87,1.73-.87,3.46.79,1.73.79,3.46-1.08,1.73-1.08,3.45.22,1.73.22,3.46,1,1.73,1,3.45-.32,1.73-.32,3.46-.74,1.73-.74,3.46,1.2,1.73,1.2,3.46-1.18,1.72-1.18,3.45.15,1.73.15,3.46.78,1.73.78,3.46-1.12,1.73-1.12,3.46.07,1.73.07,3.46,1,1.73,1,3.46-.32,1.72-.32,3.45-.5,1.73-.5,3.47.39,1.73.39,3.46-1.68,2.7-.48,3.95,2.18-1,3.85-1,1.68,1.12,3.36,1.12h3.35c1.67,0,1.67-1.35,3.35-1.35s1.68.5,3.35.5,1.68.76,3.36.76,1.68-1.08,3.36-1.08,1.73,1.11,3.4.94c1.84-.18-1.25-1.11-3.31-2-1-.43-2.59-.07-3.74-.88a22.74,22.74,0,0,1-2.87-2.45c-.81-.81-.92-2.34-1.7-3.41a26.51,26.51,0,0,1-2-3c-.57-1.07-1.86-1.78-2.31-2.83s-.05-2.55-.39-3.63-1.22-2.17-1.47-3.27,0-2.48-.17-3.56c-.19-1.32.26-2.52.2-3.53-.13-2.18-1.08-1.7-.43-3.34s.12-1.59,1.64-3c.72-.67,2.42-.42,3.42-1.19a32.75,32.75,0,0,1,2.71-1.92,26.78,26.78,0,0,1,2.74-1.94c1-.48,1.82-1.5,2.92-1.86,1.34-.43,2.64.29,3.53.15,1.67-.25,2.75-.88,3.36-.25a6.69,6.69,0,0,1,1.51,3.28c.19,1-.32,2.24,0,3.48a26.58,26.58,0,0,0,1,3.67c.48,1.15,1.28,2.22,1.83,3.32s.9,2.54,1.46,3.51a10.87,10.87,0,0,0,2.39,3c-.06-1.81-.44-1.66-.36-3.63.05-1.18.91-2.39,1.09-3.53.27-1.66.39-2.71,1.15-2.84a2.73,2.73,0,0,1,3,1.72,13.36,13.36,0,0,1,1.35,3.68c.17,1.15-.93,2.51-1,3.86,0,1-.07,2.19-.15,3.47-.08,1.12.65,2.36.55,3.54s-.41,2.35-.51,3.47c-.12,1.27-.05,2.48-.15,3.5-.21,2.07-2.43,2.8-.69,2.77s1.63-.12,3.29-.84a7.47,7.47,0,0,0,3-1.72c1.26-1.08.31-.93,0-3-.14-.93-.67-2-.85-3.22-.14-1-.81-2-1-3.22s-.18-2.17-.32-3.31-.07-2.2-.19-3.32-.57-2.17-.67-3.28.2-2.25.13-3.35.4-2.26.36-3.35-.66-2.23-.67-3.3c0-1.22,0-2.25-.11-3.19-.1-1.27.66-2.47.45-3.34-.31-1.28-1.35-2-1.83-2.79s-1.25-1.62-1.95-2.53a18.64,18.64,0,0,1-1.38-2.88c-.39-.82-1.38-1.57-1.74-2.78-.31-1.05-.3-2.21-.51-3.29a29.29,29.29,0,0,1-1-3.24c-.09-1.1.85-2.23.91-3.32s-.75-2.32-.53-3.4,1.38-1.9,1.77-2.94.37-2.22.94-3.19,1.59-1.5,2.32-2.38.8-2.22,1.65-3a28.42,28.42,0,0,1,2.81-1.84c1-.71,2.37-.75,3.34-1.31s1.85-1.63,2.87-2.08,2.07-1.52,3.15-1.82,2.57.8,3.71.71a17.06,17.06,0,0,1,3.43-.44,18.47,18.47,0,0,1,3.41.71,24,24,0,0,1,3.11,1.58,28.44,28.44,0,0,1,3.28,1.28c1,.62,2.31.65,3.34,1.14s1.77,1.84,2.85,2.23,2.31.55,3.43.85,2.35.25,3.49.46,2.35-.13,3.51,0,2.21,1.28,3.38,1.37,2.34,0,3.5.11,2.35-.49,3.52-.45,2.27-.07,3.3,0,2.29.15,3.31.34a19.2,19.2,0,0,1,3.22.94c1,.4,1.5,1.78,2.4,2.41s2.47.4,3.26,1.26.56,2.26,1.23,3.23,1.86,1.34,2.43,2.37.68,2.21,1.15,3.16,1,2,1.4,3,1,2.07,1.26,3.08a26.34,26.34,0,0,1,.85,3.24c.17,1.12-.51,2.24-.52,3.34s.92,2.3.71,3.41-1.7,1.77-2.09,2.85c-.52,1.47-.69,2.72-1,3.65-1.26,3.55-2.21,2.31-1.29,4a9.2,9.2,0,0,1,1.49,3.6,13.57,13.57,0,0,1,.75,3.88,10.47,10.47,0,0,1-.69,3.92,17.28,17.28,0,0,1-1.49,2.67c-.58.89-.73,2.12-1.36,2.85s-2,1.11-2.67,1.72c-1.33,1.24-3.24.81-2.57,2.18.85,1.73,1.8,1.09,3.15,2.46s.65,2.36,2.34,3.3,1.29-1.18,3.69-1.59a19,19,0,0,1,3.66-.81,33.76,33.76,0,0,1,3.74,0c1.12.1,2.22,1.24,3.54,1.46,1.14.2,2.43-.09,3.53.32s1.91,1.43,2.94,2a29.47,29.47,0,0,1,3.08,1.65c.94.67,2,1.23,2.88,2s1.34,2,2.16,2.81,2,1.32,2.78,2.19,1,2.25,1.67,3.14,2.26,1.29,2.91,2.19,1,2.28,1.56,3.19c.72,1.1,1.12,2.23,1.63,3.09,1.11,1.86,2.09,4.71,2.54,3s.14-1.88.14-3.61-.73-1.74-.73-3.47-.17-1.74-.17-3.47-.47-1.74-.47-3.47,1-1.74,1-3.47-.42-1.74-.42-3.47-.15-1.74-.15-3.47.56-1.74.56-3.47-.47-1.74-.47-3.47-.42-1.74-.42-3.48.78-1.73.78-3.47-.65-1.73-.65-3.47.89-1.73.89-3.47-.42-1.74-.42-3.47.49-1.74.49-3.48,0-1.73,0-3.47-.15-1.73-.15-3.47-.86-1.74-.86-3.47.94-1.74.94-3.47-.65-1.74-.65-3.48.1-1.73.1-3.47-.19-1.74-.19-3.47-.16-1.74-.16-3.48-.06-1.73-.06-3.47.84-1.74.84-3.47-.07-1.74-.07-3.47-.64-1.74-.64-3.47-.08-1.74-.08-3.48.09-1.73.09-3.47-.16-1.74-.16-3.47.14-1.74.14-3.48.2-1.73.2-3.47.51-1.74.51-3.48-.5-1.73-.5-3.47-.27-1.74-.27-3.48-.07-1.74-.07-3.47.4-1.74.4-3.48-.32-1.74-.32-3.48,1.22-1.82,0-3-1.3.25-3,.25-1.74-.63-3.47-.63-1.74-.27-3.48-.27-1.74.61-3.47.61-1.74-.44-3.48-.44-1.74,0-3.48,0-1.74.51-3.48.51-1.74-.1-3.47-.1h-3.48c-1.74,0-1.74.18-3.48.18s-1.74-.87-3.47-.87-1.74.76-3.48.76-1.74-.51-3.48-.51-1.74.32-3.48.32-1.74.23-3.48.23-1.74-1-3.48-1-1.74.7-3.48.7-1.74-.46-3.48-.46-1.74.38-3.48.38-1.74,0-3.47,0-1.75.55-3.49.55-1.74-.28-3.47-.28-1.75-1-3.48-1-1.75.72-3.49.72-1.74-.13-3.48-.13-1.74-.44-3.48-.44-1.74,1.2-3.48,1.2-1.74-.7-3.48-.7-1.74.2-3.48.2-1.74-.89-3.48-.89-1.74.58-3.48.58-1.74-.18-3.48-.18-1.74-.07-3.48-.07h-3.48c-1.74,0-1.74.42-3.48.42s-1.74-.43-3.48-.43-1.74.43-3.48.43-1.74-.14-3.48-.14h-3.48c-1.75,0-1.75.34-3.49.34s-1.74-.45-3.48-.45-1.74.79-3.48.79-1.74-.44-3.49-.44-1.74.07-3.48.07-1.88.77-3.61.49S226.45,1082.48,225.21,1083.71Z"/><path class="cls-4" d="M274,1343.12c-1.24-1.26-.51-1.39-.51-3.16s.15-1.77.15-3.54.22-1.77.22-3.54-1.21-2,0-3.27,1.42,0,3.12.07,1.7.46,3.4.51,1.74-1.18,3.45-1.13,1.69.42,3.4.47,1.71-.35,3.42-.3,1.68.8,3.39.85,1.73-.71,3.43-.66,1.69.82,3.39.87,1.72-.56,3.43-.51,1.67,1,3.38,1.06,1.72-.6,3.43-.55,1.71-.21,3.42-.17,1.7,0,3.41.07,1.68.73,3.39.78,1.72-.37,3.42-.32,1.72-.5,3.43-.45,1.67,1.36,3.38,1.41,1.71-.24,3.42-.19,1.72-.39,3.42-.34,1.7.5,3.4.54,1.73-.71,3.44-.66,1.71-.11,3.42-.06,1.67,1.29,3.38,1.34,2.31.73,3.57-.43.61-1.87.76-3.65-.1-1.81.05-3.59-.38-1.83-.23-3.61.19-1.78.34-3.56.38-1.76.53-3.54.61-1.75.76-3.53,0-1.8.13-3.58.17-1.78.32-3.56-.05-1.81.1-3.59.05-1.79.2-3.58,0-1.8.13-3.58-1.36-3.4.42-3.63.06,1.9.57,3.6.65,1.66,1.15,3.37,1.39,1.44,1.89,3.14-.47,2,0,3.7,1.33,1.46,1.83,3.16-.32,2,.18,3.65,1.31,1.47,1.81,3.17.3,1.77.8,3.48.71,1.64,1.22,3.34.64,1.67,1.14,3.38-1.33,3,.16,4,2.19-.58,4.08-.7,2.76-1.94,4.2-.7-.37,2.23-.37,4-.17,1.76-.16,3.52-.33,1.76-.33,3.52.85,1.76.85,3.53,1.36,2.77.13,4-2.26,0-4,0-1.74-.18-3.47-.18-1.74.28-3.47.28-1.74-.38-3.47-.38-1.74-1-3.48-1S358.71,1344,357,1344s-1.73.12-3.47.12-1.73-.86-3.47-.86-1.74-.23-3.47-.23-1.74-.27-3.47-.27-1.74.61-3.48.61-1.73-.28-3.47-.28-1.73-.16-3.47-.16-1.74,1.21-3.47,1.21-1.74-1.37-3.47-1.37-1.74,1.28-3.48,1.28-1.73-.21-3.46-.21-1.74-.07-3.48-.07-1.73-.45-3.47-.45-1.73.62-3.47.62-1.74-1-3.47-1-1.74.34-3.48.34-1.73.25-3.47.25-1.74-.43-3.48-.43-1.73,0-3.47,0-1.74,1-3.47,1-1.74-.91-3.48-.91-1.74.11-3.48.11-1.87-.78-3.58-.5S275.21,1344.37,274,1343.12Z"/><path class="cls-2" d="M326.07,1241.18c0,1.75.44,1.76.4,3.51s-.44,1.73-.47,3.48.21,1.76.17,3.5.5,1.76.47,3.51-.08,1.75-.12,3.49-.27,1.74-.31,3.49-.49,1.74-.52,3.48.13,1.75.1,3.5-.06,1.75-.1,3.49.16,1.75.13,3.5.07,1.75,0,3.5.14,1.75.1,3.5-.1,1.74-.14,3.49-.56,1.74-.6,3.49.12,1.75.08,3.49.88,1.77.84,3.52-1.05,1.73-1.09,3.48.83,1.77.79,3.52-.9,1.73-.94,3.48-.56,1.94.64,3.22,1.39.07,3.08.07,1.7-.21,3.4-.21,1.7-.14,3.4-.14,1.71,1.11,3.41,1.11,2.18.65,3.4-.54-.58-1.72-.54-3.43.62-1.7.65-3.4.2-1.71.24-3.42.37-1.7.4-3.41-.82-1.73-.79-3.44-.29-1.72-.25-3.43.2-1.71.23-3.42.22-1.71.25-3.42-.25-1.71-.21-3.43.42-1.7.46-3.41,1-1.69,1-3.4-1.19-1.74-1.15-3.45-.09-1.71-.05-3.43.89-1.69.92-3.4.27-1.71.31-3.42.3-1.71.34-3.43-.57-1.73-.54-3.44"/><path class="cls-2" d="M287.14,1225.74c0,1.71-.42,1.7-.46,3.41s-.12,1.7-.16,3.41-.73,1.69-.77,3.4,1.21,1.73,1.18,3.44,0,1.71,0,3.41,0,1.71,0,3.42-1,1.68-1,3.39.51,1.72.48,3.43-.31,1.7-.34,3.4.32,1.71.28,3.42.26,1.71.23,3.42-.58,1.69-.62,3.4,0,1.71-.05,3.42.26,1.71.23,3.42-.22,1.7-.26,3.41-.3,1.7-.34,3.41-.08,1.71-.12,3.41.29,1.72.25,3.43-.91,1.69-.95,3.4.79,1.72.76,3.43-.42,1.7-.46,3.41-.21,1.7-.25,3.41-.3,1.71-.34,3.42.09,1.71.06,3.42-.39,1.78.8,3,1.26.19,3,.19,1.7,0,3.4,0,1.7-.44,3.4-.44,1.7.7,3.41.7,2.53,1.47,3.73.26.12-2.08.16-3.84-1-1.79-1-3.56.49-1.75.53-3.52.94-1.74,1-3.51-1.24-1.79-1.2-3.56,0-1.76.05-3.53.54-1.75.58-3.52.76-1.75.8-3.51,0-1.77,0-3.54-.07-1.76,0-3.53-.27-1.77-.23-3.54-.7-1.78-.67-3.54,1.2-1.74,1.24-3.5-.62-1.78-.58-3.55.19-1.76.23-3.53.26-1.76.3-3.52.18-1.77.22-3.53-.1-1.78-.06-3.54.45-1.76.49-3.53-1.19-1.79-1.15-3.56.42-1.76.46-3.52-.36-1.78-.32-3.55.8-1.75.84-3.52-.72-1.78-.68-3.55.81-1.76.85-3.53"/><path class="cls-5" d="M307.6,1181.36c.91-.5.8-.72,1.71-1.22s.88-.58,1.8-1.08,1-.33,1.94-.83.94-.46,1.86-1"/><path class="cls-2" d="M377.66,1343.36c-1.48,1.48-2,.41-4.05.41s-2.09-.72-4.19-.72-2.09.57-4.19.57-2.1.58-4.2.58-2.09-.82-4.19-.82-2.09-.24-4.19-.24-2.1-.2-4.19-.2-2.1.48-4.19.48-2.1-.6-4.2-.6-2.1.6-4.19.6-2.1-.55-4.2-.55-2.09-.08-4.19-.08-2.1.07-4.19.07-2.1,1.28-4.2,1.28-2.09-1-4.19-1-2.1.27-4.2.27-2.1.63-4.19.63l-4.2,0c-2.09,0-2.09,0-4.19,0s-2.1-.29-4.2-.29-2.1-.56-4.19-.56-2.1-.36-4.2-.36-2.1,1.31-4.19,1.31-2.1-1.36-4.2-1.36-2.1.34-4.19.34-2.1.77-4.2.77-2.09,0-4.19,0-2.1-.62-4.2-.62-2.09.3-4.19.3-2.1-.3-4.2-.3-2.1.39-4.2.39l-4.2,0c-2.1,0-2.1-.63-4.2-.63s-2.09.7-4.19.7-2.1-.76-4.2-.76-2.1.84-4.2.84-2.1-.16-4.21-.16-2.78,1.4-4.27-.08-.45-2.16-.45-4.25.86-2.1.86-4.19-.09-2.09-.09-4.18-.31-2.09-.31-4.19.49-2.09.49-4.18-.17-2.1-.17-4.19-.32-2.1-.32-4.19-.56-2.09-.56-4.18.72-2.1.72-4.19-.18-2.09-.18-4.18.38-2.1.38-4.19-.57-2.09-.57-4.18-.21-2.1-.21-4.19-.21-2.09-.21-4.19,1-2.09,1-4.18-.73-2.1-.73-4.19,0-2.1,0-4.19.23-2.09.23-4.19.41-2.09.41-4.19.21-2.09.21-4.18-.86-2.09-.86-4.19.6-2.09.6-4.18-.58-2.1-.58-4.19.51-2.09.51-4.18.3-2.09.3-4.19-.14-2.09-.14-4.18-.83-2.09-.83-4.18,0-2.1,0-4.19.1-2.09.1-4.19.05-2.09.05-4.18.18-2.09.18-4.19-.24-2.09-.24-4.18.17-2.09.17-4.18.34-2.1.34-4.19-.23-2.1-.23-4.19.75-2.09.75-4.18v-4.19c0-2.09-1.11-2.09-1.11-4.19s.27-2.09.27-4.19,0-2.09,0-4.18.68-2.1.68-4.19-.1-2.09-.1-4.19.28-2.09.28-4.19-1.24-2.09-1.24-4.18.37-2.1.37-4.19-.09-2.1-.09-4.19-.06-2.09-.06-4.19.06-2.09.06-4.19,1.06-2.09,1.06-4.19,0-2.09,0-4.19-.32-2.09-.32-4.18-.29-2.1-.29-4.19.18-2.1.18-4.19.31-2.1.31-4.2-1-2.09-1-4.19,0-2.09,0-4.19,1.06-2.09,1.06-4.19-.58-2.09-.58-4.19.41-2.09.41-4.19-.8-2.09-.8-4.18,0-2.1,0-4.2.74-2.09.74-4.19-.36-2.1-.36-4.19.5-2.1.5-4.19-.44-2.1-.44-4.19-.48-2.1-.48-4.2-.06-2.1-.06-4.2-1.1-2.85.38-4.34,2.23.7,4.33.7,2.09-.78,4.19-.78,2.09-.06,4.19-.06,2.1.74,4.19.74,2.1-.27,4.2-.27,2.09-.2,4.19-.2,2.09.47,4.19.47,2.1.12,4.19.12,2.1-.36,4.2-.36,2.09.16,4.19.16,2.1-.54,4.19-.54,2.1-.35,4.2-.35,2.09.56,4.19.56,2.1.13,4.2.13,2.09-.89,4.19-.89,2.1,1.36,4.2,1.36,2.09-1.23,4.19-1.23,2.1,1.07,4.2,1.07,2.09,0,4.19,0,2.1-.64,4.2-.64,2.09.52,4.19.52,2.1-.69,4.2-.69,2.1.48,4.19.48,2.1.45,4.2.45,2.1-.57,4.19-.57,2.1.08,4.2.08,2.09-.38,4.19-.38,2.1.74,4.2.74,2.09-.91,4.19-.91,2.1.18,4.2.18,2.1-.38,4.2-.38,2.1.68,4.2.68,2.1-.46,4.19-.46,2.1.06,4.2.06,2.1.71,4.2.71,2.1-.41,4.2-.41,2.1.54,4.21.54,2.71-2,4.2-.47-.38,2.09-.38,4.19-.06,2.09-.06,4.18.71,2.09.71,4.18-.18,2.1-.18,4.19.34,2.09.34,4.19-.92,2.09-.92,4.19.39,2.09.39,4.18-.34,2.09-.34,4.19.2,2.09.2,4.18-.31,2.09-.31,4.19-.06,2.09-.06,4.18-.05,2.1-.05,4.19.9,2.09.9,4.19-.79,2.09-.79,4.18.39,2.1.39,4.19-.35,2.09-.35,4.19.75,2.09.75,4.18-.43,2.1-.43,4.19.08,2.09.08,4.19,0,2.09,0,4.18.81,2.1.81,4.19-.56,2.1-.56,4.19.42,2.09.42,4.19.07,2.09.07,4.18-.37,2.09-.37,4.19.07,2.09.07,4.18.18,2.09.18,4.18-.86,2.09-.86,4.19.27,2.09.27,4.18-.22,2.1-.22,4.19.54,2.09.54,4.18-.7,2.09-.7,4.18,1.08,2.1,1.08,4.19-1.08,2.09-1.08,4.19,1,2.09,1,4.18.17,2.1.17,4.19-.06,2.09-.06,4.18-1.15,2.1-1.15,4.19,1.26,2.1,1.26,4.19-.51,2.1-.51,4.19-.87,2.09-.87,4.19.92,2.09.92,4.19,0,2.09,0,4.19-.41,2.09-.41,4.18.28,2.1.28,4.19.56,2.1.56,4.19-.2,2.09-.2,4.19-.65,2.09-.65,4.19-.39,2.1-.39,4.19,1.17,2.09,1.17,4.19-.88,2.09-.88,4.19.25,2.09.25,4.18.19,2.1.19,4.19-.21,2.1-.21,4.2.12,2.09.12,4.19.56,2.09.56,4.19-.31,2.09-.31,4.18-.72,2.1-.72,4.19-.15,2.1-.15,4.19.21,2.1.21,4.19.59,2.1.59,4.2-.78,2.09-.78,4.19.48,2.09.48,4.19.65,2.09.65,4.19-.19,2.1-.19,4.19-.08,2.1-.08,4.2-1.35,2.26-.94,4.32S379.14,1341.87,377.66,1343.36Z"/><path class="cls-2" d="M230.87,1568.44c0-2.09-.24-2.09-.24-4.18s1-2.09,1-4.18,0-2.09,0-4.18-1-2.09-1-4.18.74-2.09.74-4.18-.35-2.1-.35-4.19-.1-2.09-.1-4.18.79-2.1.79-4.19-1.08-2.09-1.08-4.19.27-2.09.27-4.19-1.64-3.18-.16-4.67,2.56.31,4.65.31,2.09-.06,4.17-.06,2.09.67,4.18.67,2.08-1,4.17-1,2.09.45,4.17.45,2.09.76,4.18.76,2.08-1.18,4.17-1.18,2.08.39,4.17.39,2.09,0,4.17,0,2.09.19,4.18.19,2.08-.5,4.17-.5,2.09-.08,4.17-.08,2.09.25,4.18.25,2.08-.42,4.17-.42,2.09.93,4.17.93,2.09-.57,4.17-.57,2.09.35,4.17.35,2.08-.12,4.17-.12,2.08-.3,4.17-.3,2.08.91,4.17.91,2.08-.59,4.17-.59,2.09-.65,4.17-.65,2.09.57,4.18.57,2.08.24,4.17.24,2.08.54,4.17.54,2.08-.61,4.17-.61,2.09.26,4.17.26,2.09.18,4.18.18,2.08.07,4.17.07,2.08-.06,4.17-.06,2.09-.47,4.17-.47,2.09-.27,4.18-.27,2.09,0,4.17,0,2.09.51,4.17.51,2.09-.32,4.18-.32,2.09.39,4.17.39,2.09.1,4.18.1,2.08-.25,4.17-.25,2.09.35,4.18.35,2.08-1,4.17-1,2.09.31,4.18.31,2.09-.49,4.17-.49,2.09.77,4.18.77,2.09-.28,4.18-.28,2.08-.58,4.17-.58,2.09.69,4.18.69,2.09-.11,4.17-.11,2.09.7,4.18.7,2.08-1.33,4.17-1.33,2.09,1,4.17,1,2.09.27,4.18.27,2.09-.56,4.18-.56,2.08,0,4.17,0,2.09-.69,4.18-.69,2.09,1,4.18,1,2.09-.77,4.18-.77,2.09.13,4.18.13,2.09.83,4.18.83,2.09-.53,4.18-.53,2.09-.72,4.18-.72,2.1.8,4.19.8"/><path class="cls-2" d="M248.12,307.75c-1.46,1.48-1.73-.25-3.81-.25s-2.08.76-4.16.76-2.09.43-4.17.43-2.08.05-4.16.05-2.08-.61-4.16-.61-2.08-.64-4.16-.64-2.08,1-4.16,1-2.09,0-4.17,0-2.08-.27-4.16-.27-2.08-.33-4.16-.33-2.08.41-4.16.41-2.08-.17-4.17-.17-2.08.61-4.16.61-2.08-.17-4.16-.17-2.07-.81-4.15-.81-2.08-.16-4.16-.16-2.08.21-4.16.21-2.08-.21-4.16-.21-2.08.95-4.16.95-2.08-.26-4.16-.26-2.08.17-4.16.17-2.08.25-4.16.25-2.08-.69-4.16-.69-2.08.65-4.16.65-2.08-.72-4.16-.72-2.09-.32-4.17-.32-2.08.84-4.16.84-2.08-.91-4.16-.91-2.08.22-4.16.22-2.08-.16-4.17-.16-2.08.1-4.16.1-2.08,1-4.16,1-2.08-1.1-4.16-1.1-2.09.29-4.17.29-2.08.21-4.16.21-2.08,0-4.16,0-2.09-.52-4.17-.52-2.08,1.16-4.16,1.16-2.09-.49-4.17-.49-2.08.18-4.16.18-2.08,0-4.17,0-2.08.24-4.16.24-2.08-1-4.17-1-2.08,1.09-4.16,1.09-2.08-.72-4.17-.72-2.08-.6-4.16-.6-2.08,1.33-4.16,1.33-2.08-.83-4.16-.83-2.09-.38-4.17-.38-2.08.67-4.17.67-2.08.17-4.16.17-2.09-.71-4.17-.71-2.08.37-4.17.37-2.08-.24-4.17-.24-2.08.94-4.16.94-2.09-1.31-4.17-1.31-2.08.08-4.17.08-2.09.57-4.17.57-2.48,1.26-3.95-.21-.73-1.87-.73-4,1.16-2.09,1.16-4.18-.91-2.09-.91-4.18.82-2.09.82-4.18,0-2.09,0-4.18-.51-2.09-.51-4.18-.15-2.09-.15-4.18.26-2.09.26-4.18.18-2.09.18-4.18S3,268.38,3,266.29s.57-2.09.57-4.18S2.46,260,2.46,257.93s1-2.09,1-4.18-.33-2.09-.33-4.18-.44-2.09-.44-4.18-.06-2.09-.06-4.18.52-2.09.52-4.18.36-2.09.36-4.18-.62-2.09-.62-4.18.68-2.09.68-4.18-1.31-2.09-1.31-4.18.75-2.09.75-4.18.48-2.09.48-4.18-1.23-2.09-1.23-4.19.6-2.09.6-4.18-.11-2.09-.11-4.18.1-2.09.1-4.18-.58-2.09-.58-4.18,1.14-2.09,1.14-4.17-.85-2.09-.85-4.18.66-2.09.66-4.18S3,176.42,3,174.34s-.8-2.09-.8-4.19,0-2.09,0-4.18.6-2.09.6-4.17-.2-2.09-.2-4.18.35-2.09.35-4.18.44-2.09.44-4.18-.45-2.09-.45-4.18.49-2.09.49-4.18-1-2.09-1-4.18.28-2.09.28-4.18.6-2.09.6-4.18.18-2.09.18-4.19,0-2.09,0-4.18-.16-2.09-.16-4.18-.17-2.09-.17-4.18.25-2.09.25-4.18-.24-2.09-.24-4.18-.8-2.1-.8-4.19.88-2.09.88-4.18-1-2.09-1-4.18.22-2.1.22-4.19,1.08-2.09,1.08-4.18-.35-2.09-.35-4.18S3,76.08,3,74s-.37-2.09-.37-4.18.44-2.09.44-4.18.31-2.09.31-4.19-.94-2.09-.94-4.18.84-2.09.84-4.18S3,51,3,48.89s.22-2.1.22-4.19.14-2.09.14-4.18-.16-2.09-.16-4.19-.53-2.09-.53-4.19S2.12,30.05,2.12,28s.65-2.1.65-4.19.55-2.09.55-4.18-.85-2.1-.85-4.19,1-2.1,1-4.19S2.23,9.11,2.23,7,1.08,4,2.56,2.55,4.91,2.24,7,2.24s2.08.38,4.17.38,2.08.11,4.16.11h4.16c2.08,0,2.08-.26,4.16-.26s2.08.15,4.16.15,2.08.23,4.17.23,2.08-.42,4.16-.42,2.08-.27,4.16-.27,2.08.27,4.16.27,2.08.5,4.16.5,2.09-.23,4.17-.23S54.86,3,56.94,3,59,2.52,61.1,2.52s2.08-.08,4.15-.08,2.08-.12,4.16-.12,2.08-.13,4.16-.13S75.65,3.5,77.73,3.5s2.08-.22,4.16-.22,2.08-1,4.16-1,2.08.24,4.17.24,2.07,1,4.15,1,2.08-.27,4.16-.27,2.08-.58,4.16-.58,2.09-.05,4.17-.05,2.08-.15,4.16-.15,2.08.16,4.16.16,2.08.44,4.16.44,2.08-.29,4.16-.29,2.09.22,4.17.22,2.08-.82,4.16-.82S133.91,3.5,136,3.5s2.09-.81,4.17-.81,2.08.78,4.16.78,2.08-.79,4.16-.79,2.09.79,4.17.79,2.08-1.24,4.16-1.24,2.08,1,4.17,1S163.06,3,165.14,3s2.08-.56,4.16-.56,2.09.32,4.17.32,2.08-.6,4.16-.6,2.09.54,4.17.54,2.08-.16,4.16-.16,2.09.35,4.17.35,2.08-.62,4.16-.62,2.08.42,4.17.42,2.08,0,4.16,0,2.08-.17,4.16-.17,2.09.12,4.17.12,2.08.65,4.16.65,2.09-.68,4.17-.68,2.09.92,4.17.92,2.08-.29,4.17-.29,2.08.06,4.16.06,2.09,0,4.17,0,2.09-.81,4.17-.81,2.09-.18,4.18-.18,2.27-.57,3.75.91.46,1.66.46,3.75S248,9.09,248,11.18s.31,2.1.31,4.19-.48,2.09-.48,4.18.81,2.09.81,4.18.55,2.09.55,4.18-.73,2.09-.73,4.17.48,2.09.48,4.18-.08,2.09-.08,4.18-.85,2.1-.85,4.19.62,2.09.62,4.18S248,50.9,248,53s.24,2.09.24,4.18.51,2.09.51,4.18-1,2.09-1,4.18.91,2.09.91,4.18-.93,2.09-.93,4.18.88,2.09.88,4.18-.79,2.09-.79,4.18,0,2.09,0,4.18.57,2.09.57,4.18.75,2.09.75,4.18-.44,2.09-.44,4.18.48,2.09.48,4.18-.82,2.09-.82,4.18.71,2.09.71,4.18-.93,2.09-.93,4.19.16,2.09.16,4.18-.36,2.09-.36,4.17.58,2.09.58,4.18.34,2.09.34,4.18-.55,2.09-.55,4.17-.44,2.09-.44,4.19,1.09,2.09,1.09,4.18-.05,2.09-.05,4.18,0,2.09,0,4.17-.34,2.09-.34,4.18-.35,2.09-.35,4.18,0,2.09,0,4.18-.4,2.09-.4,4.18.57,2.09.57,4.18,0,2.09,0,4.18-.5,2.09-.5,4.19.16,2.09.16,4.18,1.09,2.09,1.09,4.18-.31,2.09-.31,4.18-.08,2.09-.08,4.18-.62,2.09-.62,4.19-.11,2.09-.11,4.18,1.07,2.09,1.07,4.18-.48,2.09-.48,4.18-.58,2.09-.58,4.19-.13,2.09-.13,4.18,1.28,2.09,1.28,4.18-1.09,2.09-1.09,4.19-.14,2.09-.14,4.18,1,2.09,1,4.18-.28,2.1-.28,4.19-.2,2.09-.2,4.18.54,2.09.54,4.18,0,2.09,0,4.19-.16,2.09-.16,4.18-.57,2.09-.57,4.18-.23,2.09-.23,4.18,1,2.09,1,4.19-.81,2.09-.81,4.18.07,2.1.07,4.19.5,2.09.5,4.19-.59,2.09-.59,4.18-.37,2.1-.37,4.19.58,2.1.58,4.19-.32,2.13,0,4.19S249.6,306.26,248.12,307.75Z"/><path class="cls-6" d="M153.54,1160.33c0-1.15.32-2.5-.43-3.25s-2.11-.74-3.25-.74a3.89,3.89,0,0,0-2.86,1.13c-.75.75-.69,1.71-.69,2.86a3.39,3.39,0,0,0,.83,2.72,3.72,3.72,0,0,0,2.72,1.29,4.34,4.34,0,0,0,3.1-.91C153.71,1162.68,153.54,1161.47,153.54,1160.33Z"/><path class="cls-7" d="M153.54,1160.33c0-1.15.32-2.5-.43-3.25s-2.11-.74-3.25-.74a3.89,3.89,0,0,0-2.86,1.13c-.75.75-.69,1.71-.69,2.86a3.39,3.39,0,0,0,.83,2.72,3.72,3.72,0,0,0,2.72,1.29,4.34,4.34,0,0,0,3.1-.91C153.71,1162.68,153.54,1161.47,153.54,1160.33Z"/><path d="M173.91,1181a3.4,3.4,0,0,0-1.26-2.59c-.75-.75-1.44-2.11-2.59-2.11a4.91,4.91,0,0,0-3.06,1.64,4.29,4.29,0,0,0-1,3.06,4.15,4.15,0,0,0,1.07,3,4.1,4.1,0,0,0,3,1,3.87,3.87,0,0,0,2.83-1.19A3.74,3.74,0,0,0,173.91,1181Z"/><path class="cls-1" d="M185.9,1103.52a3.54,3.54,0,0,0-1.47-2.54c-.75-.75-1.4-2-2.54-2a4.69,4.69,0,0,0-3,1.56,4.88,4.88,0,0,0-1.71,3c0,1.14,1.08,2.15,1.83,2.9s1.75,1.86,2.9,1.86a5.32,5.32,0,0,0,3.31-1.45C186,1106.08,185.9,1104.66,185.9,1103.52Z"/><path class="cls-3" d="M437.09,1538.74l4.22,0h4.22c2.11,0,2.11.44,4.22.44s2.12-.31,4.23-.31,2.11.07,4.22.07,2.11.88,4.23.88,2.11-1.11,4.22-1.11,2.11.37,4.22.37,2.12.75,4.23.75,2.12-1.11,4.23-1.11,2.12.33,4.23.33"/><path class="cls-3" d="M231.3,1539.34h4.21c2.11,0,2.11.16,4.22.16s2.1-1,4.21-1,2.11.87,4.22.87,2.11-.45,4.21-.45,2.11-.41,4.22-.41,2.11,0,4.22,0,2.1.06,4.21.06,2.11,1.11,4.22,1.11,2.11.12,4.22.12,2.1-1.14,4.21-1.14,2.11.91,4.22.91,2.11-.13,4.22-.13,2.11-1,4.21-1,2.11,1.19,4.22,1.19,2.11-.62,4.22-.62,2.1.4,4.21.4,2.11-.1,4.22-.1,2.11.44,4.22.44,2.1-1.17,4.21-1.17,2.11.69,4.22.69,2.11-.6,4.22-.6,2.11-.16,4.22-.16,2.11.62,4.22.62,2.11.71,4.22.71,2.11-.14,4.22-.14,2.11-1.09,4.22-1.09,2.12.29,4.23.29,2.11.47,4.22.47"/><path d="M244.21,1530.77c0-1.14-1-2.12-1.79-2.87a4,4,0,0,0-2.88-1.22c-1.14,0-2.55,0-3.3.79s-.66,2.16-.66,3.3a3.87,3.87,0,0,0,1.11,2.86,4.07,4.07,0,0,0,2.85,1.34,4.6,4.6,0,0,0,3.18-1A5,5,0,0,0,244.21,1530.77Z"/><path class="cls-3" d="M328.36,559.72c-1.48,1.48-2.27-.81-4.37-.81S321.9,560,319.8,560s-2.09-.37-4.19-.37-2.1-.75-4.19-.75-2.1,1.11-4.2,1.11-2.09-.33-4.19-.33-2.09-.7-4.19-.7-2.1,1-4.19,1-2.1.24-4.2.24-2.09-.87-4.19-.87-2.1.8-4.19.8-2.1-.47-4.2-.47-2.09-.38-4.19-.38-2.1.94-4.2.94-2.09-.79-4.19-.79-2.1-.13-4.2-.13-2.09-.22-4.19-.22-2.1.5-4.2.5-2.09-.08-4.19-.08-2.1-.7-4.2-.7-2.09.72-4.19.72-2.1.52-4.2.52-2.1-1.22-4.19-1.22-2.1,1.27-4.2,1.27-2.1-1-4.19-1-2.1.87-4.2.87-2.09,0-4.19,0-2.1-.55-4.2-.55-2.09-.51-4.19-.51-2.1.85-4.2.85-2.1,0-4.2,0-2.1-.18-4.2-.18-2.1-.13-4.19-.13-2.1.43-4.2.43l-4.2,0c-2.1,0-2.1-.51-4.2-.51s-2.1-.11-4.21-.11-3.1,2-4.6.55.15-2.48.15-4.56-.27-2.08-.27-4.16,1.15-2.08,1.15-4.17-.22-2.08-.22-4.16.08-2.08.08-4.17-.26-2.08-.26-4.16.16-2.08.16-4.16.11-2.09.11-4.17,0-2.08,0-4.16-1.1-2.09-1.1-4.17.68-2.09.68-4.17-.78-2.08-.78-4.16,1.17-2.09,1.17-4.17-.09-2.08-.09-4.16-.18-2.09-.18-4.17-.13-2.08-.13-4.16-.14-2.09-.14-4.17-.46-2.08-.46-4.17.19-2.08.19-4.16.17-2.09.17-4.17v-4.17c0-2.08-.43-2.08-.43-4.16s.19-2.08.19-4.16.15-2.09.15-4.17-.05-2.08-.05-4.16.05-2.08.05-4.16-.39-2.08-.39-4.16.44-2.08.44-4.16.07-2.09.07-4.17-.5-2.08-.5-4.16,1.14-2.08,1.14-4.17-.85-2.08-.85-4.16-.33-2.08-.33-4.16,1.06-2.09,1.06-4.17.3-2.08.3-4.17-.06-2.08-.06-4.16-1-2.08-1-4.16-.06-2.09-.06-4.17.35-2.08.35-4.17-.08-2.08-.08-4.16-.19-2.09-.19-4.17.17-2.08.17-4.17.16-2.08.16-4.16.65-2.09.65-4.17-.37-2.08-.37-4.17.12-2.08.12-4.17.28-2.08.28-4.16-.74-2.09-.74-4.17-.44-2.09-.44-4.17.43-2.08.43-4.17-.51-2.08-.51-4.17.22-2.08.22-4.17.22-2.08.22-4.16-.13-2.09-.13-4.18,0-2.08,0-4.16.34-2.08.34-4.17.09-2.08.09-4.16-.57-2.09-.57-4.17.37-2.09.37-4.17.6-2.09.6-4.17-.24-2.09-.24-4.17-.86-2.09-.86-4.17.62-2.09.62-4.18.12-2.08.12-4.16.14-2.09.14-4.17-.83-2.09-.83-4.18,1-2.09,1-4.18-1.53-2.26-.06-3.74,1.66,0,3.76,0,2.09-.37,4.19-.37,2.1.19,4.19.19,2.1-.94,4.2-.94,2.09,1,4.19,1,2.09-.54,4.19-.54,2.1.88,4.19.88,2.1-.65,4.19-.65,2.1-.48,4.2-.48,2.1-.05,4.19-.05,2.1.46,4.19.46,2.1.11,4.2.11,2.1.64,4.19.64,2.1-.83,4.2-.83,2.09-.49,4.19-.49,2.1.3,4.2.3,2.1.57,4.19.57,2.1.1,4.2.1,2.09.25,4.19.25,2.1-.28,4.2-.28,2.1.23,4.19.23,2.1-.28,4.2-.28,2.1,0,4.19,0,2.1-.68,4.2-.68,2.1.7,4.19.7,2.1-.41,4.2-.41,2.09-.49,4.19-.49,2.1,1.15,4.2,1.15,2.09-.37,4.19-.37,2.1.54,4.2.54,2.1-.72,4.2-.72,2.1.76,4.2.76,2.1-.09,4.2-.09,2.09-1,4.19-1,2.1-.22,4.2-.22,2.1,1.22,4.2,1.22,2.1-.44,4.21-.44,2.78-1.76,4.27-.28-.16,2.15-.16,4.23.24,2.08.24,4.16,0,2.09,0,4.17.36,2.08.36,4.16-1.06,2.09-1.06,4.17.7,2.08.7,4.17-.05,2.08-.05,4.16.57,2.08.57,4.17-.34,2.08-.34,4.16-.2,2.08-.2,4.17-.43,2.08-.43,4.16.9,2.09.9,4.17-.86,2.08-.86,4.16.13,2.09.13,4.17.3,2.08.3,4.16.42,2.09.42,4.17,0,2.08,0,4.16-.39,2.09-.39,4.17.39,2.08.39,4.16-1.15,2.09-1.15,4.17.29,2.08.29,4.17.09,2.08.09,4.16.14,2.08.14,4.16-.29,2.08-.29,4.16.69,2.09.69,4.17-1,2.08-1,4.16.77,2.08.77,4.16.08,2.08.08,4.17-.15,2.08-.15,4.16-.16,2.09-.16,4.17.38,2.08.38,4.16.37,2.08.37,4.17-.67,2.08-.67,4.16-.68,2.08-.68,4.17.37,2.08.37,4.17.4,2.08.4,4.16-.82,2.08-.82,4.16.38,2.08.38,4.17,0,2.08,0,4.17.7,2.08.7,4.16-.1,2.08-.1,4.16.14,2.09.14,4.17-.1,2.09-.1,4.17-.22,2.08-.22,4.17.32,2.08.32,4.16-1.12,2.09-1.12,4.17,1.29,2.08,1.29,4.17-.8,2.08-.8,4.17.33,2.08.33,4.16-.57,2.09-.57,4.17.11,2.09.11,4.17,0,2.08,0,4.17.35,2.08.35,4.17,0,2.08,0,4.17-.56,2.08-.56,4.17.5,2.08.5,4.17-.35,2.08-.35,4.16-.12,2.08-.12,4.17.09,2.08.09,4.17,0,2.08,0,4.16,1.1,2.09,1.1,4.18-1.35,2.08-1.35,4.17,1.06,2.08,1.06,4.17.3,2.08.3,4.17,0,2.08,0,4.17-1.15,2.08-1.15,4.17a12.48,12.48,0,0,0,.55,4.16C328.78,557.62,329.84,558.25,328.36,559.72Z"/><path class="cls-8" d="M513.62,1691s7,14.92,14.67,33.69-6.1,42.51-34.16,29.36c-34.13-16-48-22.18-48-22.18"/><path class="cls-3" d="M431.21,1628.55c-.24.85-.35,1.73-.62,2.55s-.66,1.62-1,2.43-.77,1.57-1.1,2.37-.47,1.71-.84,2.49-.63,1.65-1,2.41-1,1.45-1.44,2.2-1.18,1.31-1.67,2-.87,1.51-1.39,2.21-1.19,1.26-1.75,1.94-.9,1.51-1.5,2.15-1.15,1.31-1.77,1.93-1.2,1.27-1.85,1.85-1.25,1.22-1.92,1.78-1.85.45-2.55,1-1.29,1.14-2,1.65-1.05,1.52-1.79,2-1.54.82-2.29,1.28-1.81.32-2.57.76-1.42,1-2.19,1.4-1.36,1.12-2.15,1.52-1.53.8-2.33,1.17-1.53.82-2.34,1.19-1.62.61-2.43,1-1.7.4-2.51.69-1.57.74-2.39,1-1.7.33-2.53.52-1.61.85-2.46,1-1.8-.58-2.66-.51-1.69.6-2.55.59-1.68-.52-2.54-.6-1.77.29-2.61.13-1.55-.84-2.38-1.08-1.89.2-2.69-.12-1.32-1.25-2.09-1.66a24.8,24.8,0,0,1-2.26-1.22,25.59,25.59,0,0,1-2.28-1.26c-.66-.53-1.17-1.26-1.8-1.88s-1.48-1-2.05-1.63-.84-1.53-1.36-2.24-1.07-1.34-1.54-2.08-.71-1.57-1.13-2.34-1.15-1.33-1.53-2.12-.48-1.66-.82-2.48-.67-1.57-1-2.39-.67-1.58-.94-2.42-.43-1.65-.67-2.5-.05-1.74-.26-2.6-.8-1.56-1-2.42.22-1.77.06-2.64-.47-1.64-.6-2.51-.22-1.69-.33-2.56-.19-1.69-.29-2.56-.68-1.65-.75-2.52-.25-1.7-.31-2.57.56-1.75.51-2.62-.47-1.7-.5-2.57.3-1.72.28-2.59-.22-1.71-.22-2.59.3-1.72.31-2.6-.59-1.75-.63-2.6-.42-1.76-.46-2.61.39-1.79.35-2.64-.36-1.77-.39-2.62,0-1.78,0-2.63.49-1.78.47-2.64-.41-1.77-.42-2.62.34-1.77.34-2.62-.15-1.77-.14-2.62-.28-1.79-.26-2.63.69-1.75.73-2.59-.47-1.81-.41-2.65.72-1.73.8-2.56-.35-1.83-.24-2.66.76-1.69.91-2.5.39-1.73.6-2.52.14-1.82.42-2.59.23-1.87.6-2.62a22,22,0,0,1,1.55-2.16,23.52,23.52,0,0,1,1.35-2.3c.56-.66,1.54-1,2.17-1.58s.92-1.52,1.59-2.13,1.65-.72,2.33-1.33,1.2-1.23,1.86-1.85"/><path class="cls-8" d="M365.57,1604.84c0-1.2.37-1.14-.61-2.11a4.46,4.46,0,0,0-2.11-1,7.59,7.59,0,0,0-2.34-.42c-.77,0-1.71-.2-2.72-.14-.84.06-1.73.4-2.68.47s-1.8-.17-2.72-.09-1.74.77-2.65.85-1.83,0-2.71.06-1.88-.22-2.73-.14-1.9.06-2.71.13l-2.68.24a6.75,6.75,0,0,0-2.88.93,4.85,4.85,0,0,0-1.81,2.37,9,9,0,0,0-.74,2.86,21.26,21.26,0,0,0,.19,2.93c.07.86.63,1.66.69,2.47s-.42,1.73-.37,2.54.74,1.66.79,2.47,0,1.7,0,2.51-.56,1.74-.51,2.55.33,1.68.38,2.48a7.6,7.6,0,0,0,.65,2.54,4.15,4.15,0,0,0,1.79,1.8,5.66,5.66,0,0,0,2.33,1.06,14.16,14.16,0,0,0,2.61.26c.82,0,1.63-.71,2.52-.82s1.7.33,2.71.21c.82-.09,1.7-.37,2.64-.48s1.76-.06,2.67-.16,1.78-.12,2.67-.22,1.78-.3,2.65-.4,1.78-.55,2.62-.64,1.83-.57,2.63-.67c1.12-.14,2.08.14,2.69,0"/><path class="cls-3" d="M365.57,1604.84c0-1.2.37-1.14-.61-2.11a4.46,4.46,0,0,0-2.11-1,7.59,7.59,0,0,0-2.34-.42c-.77,0-1.71-.2-2.72-.14-.84.06-1.73.4-2.68.47s-1.8-.17-2.72-.09-1.74.77-2.65.85-1.83,0-2.71.06-1.88-.22-2.73-.14-1.9.06-2.71.13l-2.68.24a6.75,6.75,0,0,0-2.88.93,4.85,4.85,0,0,0-1.81,2.37,9,9,0,0,0-.74,2.86,21.26,21.26,0,0,0,.19,2.93c.07.86.63,1.66.69,2.47s-.42,1.73-.37,2.54.74,1.66.79,2.47,0,1.7,0,2.51-.56,1.74-.51,2.55.33,1.68.38,2.48a7.6,7.6,0,0,0,.65,2.54,4.15,4.15,0,0,0,1.79,1.8,5.66,5.66,0,0,0,2.33,1.06,14.16,14.16,0,0,0,2.61.26c.82,0,1.63-.71,2.52-.82s1.7.33,2.71.21c.82-.09,1.7-.37,2.64-.48s1.76-.06,2.67-.16,1.78-.12,2.67-.22,1.78-.3,2.65-.4,1.78-.55,2.62-.64,1.83-.57,2.63-.67c1.12-.14,2.08.14,2.69,0"/><path class="cls-3" d="M425.35,1597.35c.62-1.06,1.14-.36,2.16-1.45a14.68,14.68,0,0,1,1.73-1.65,13.37,13.37,0,0,1,1.83-1.64,15.49,15.49,0,0,1,2.3-.81c.74-.25,1.42-1,2.27-1.09s1.64.53,2.5.53,1.63-.5,2.48-.37,1.46.78,2.29,1a13.91,13.91,0,0,1,2.35.87,9.1,9.1,0,0,1,4.31,2.68,14.21,14.21,0,0,1,1.44,2.13,16.22,16.22,0,0,1,1.1,2.3,18,18,0,0,1,1,2.35,21.41,21.41,0,0,1,.19,2.56c.13.84.87,1.62.91,2.48s-.58,1.7-.63,2.55a35,35,0,0,1-.35,5.12,22.15,22.15,0,0,1-.77,2.47,22.49,22.49,0,0,1-1.37,2.2,17.93,17.93,0,0,1-1.54,2,16.26,16.26,0,0,1-1.36,2.17A12.76,12.76,0,0,1,446,1625c-.8.52-1.15,1.68-1.89,2.09a22.11,22.11,0,0,1-2.62.76,17.2,17.2,0,0,1-2.59.62c-1,.28-1.69,1.2-2.47,1.28a9.86,9.86,0,0,1-2.72-.39,6.5,6.5,0,0,1-2.58-.85"/><path class="cls-3" d="M437.71,1583a18.35,18.35,0,0,1-2.37,1c-.79.24-1.67.23-2.55.4s-1.6.75-2.49.85-1.7.25-2.59.3-1.72-.1-2.6-.11-1.72,0-2.6-.07-1.73.07-2.61,0-1.64-.73-2.51-.85-1.79.34-2.65.19-1.64-.59-2.5-.76-1.6-.71-2.44-.92-1.64-.51-2.48-.75-1.8,0-2.62-.23-1.77-.2-2.59-.49-1.41-1.17-2.21-1.49-1.68-.47-2.47-.82-1.51-.86-2.28-1.24-1.42-1-2.17-1.43-1.89-.18-2.63-.62-1.4-1-2.11-1.53-1.36-1-2.07-1.51-1.33-1-2-1.58-1.5-.83-2.16-1.39-1-1.39-1.69-2-1.29-1.09-1.93-1.67l-1.88-1.73c-.62-.58-1.49-.91-2.11-1.51s-.77-1.65-1.38-2.25-1.45-1-2.05-1.57-1.35-1.07-1.94-1.68-1.1-1.32-1.69-1.93-.79-1.63-1.37-2.24-1.72-.74-2.3-1.35-.77-1.64-1.34-2.25-1.29-1.17-1.85-1.77-.92-1.53-1.46-2.13-1.75-.81-2.27-1.39-1.11-1.47-1.58-2c-1.07-1.21-1.83-.8-1.59-2.06s1.05-.2,2.6-1c.68-.34,1.28-1.22,2.23-1.65.76-.33,1.67-.53,2.59-.9s1.65-.64,2.55-1,1.76-.35,2.67-.63,1.57-1,2.48-1.23,1.72-.57,2.63-.78,1.83-.13,2.74-.3,1.86.18,2.77,0,1.66-.28,2.53-.37,1.63-.8,2.5-.86,1.72.4,2.59.36,1.69-.09,2.56-.1,1.7,0,2.56,0,1.7,0,2.56,0,1.69.34,2.54.39,1.73-.31,2.59-.23,1.72,0,2.57.1,1.65.62,2.5.74,1.67.32,2.52.45,1.69.22,2.53.38,1.79-.18,2.62,0,1.55.91,2.38,1.12,1.63.5,2.45.74,1.78,0,2.59.29,1.72.3,2.52.6,1.6.58,2.42.93,1.41,1,2.2,1.41,1.35,1.1,2.13,1.5,1.81.24,2.58.67,1.47.87,2.21,1.33,1.37,1,2.1,1.53,1.3,1.12,2,1.63,1.54.8,2.23,1.32,1.29,1.15,2,1.7,1.57.82,2.21,1.4,1.21,1.25,1.82,1.85.86,1.57,1.45,2.2,1.08,1.33,1.63,2,1.2,1.24,1.71,1.92.91,1.46,1.38,2.17,1.44,1.14,1.87,1.88.7,1.6,1.07,2.37.83,1.54,1.14,2.34.75,1.59,1,2.42,0,1.78.19,2.62.69,1.66.77,2.52-.34,1.74-.34,2.6a25.17,25.17,0,0,1-.35,2.55,25.48,25.48,0,0,1,.1,2.63c-.17.83-.94,1.51-1.2,2.35s-.41,1.63-.75,2.45-.76,1.5-1.16,2.28-.74,1.52-1.2,2.27"/><path d="M349.41,1545.6c-1.08-.67-.44.48-1.5,1.72-.46.54-.89,1.28-1.48,2.06-.47.61-1.47.93-2,1.68s-.3,1.78-.79,2.53-1.24,1.17-1.7,1.93-.75,1.49-1.17,2.26-1.09,1.32-1.48,2.1-.24,1.74-.61,2.53a10.9,10.9,0,0,0-.84,2.51,15.23,15.23,0,0,0-.52,2.64,23.07,23.07,0,0,0,.27,2.7c.08.89-.23,1.85-.08,2.75s.95,1.66,1.16,2.53,0,1.88.29,2.72.81,1.71,1.09,2.51c.34,1,.29,2,.58,2.68a7.75,7.75,0,0,0,1.49,2.42s0-1-.06-2.54c0-.73-.19-1.58-.19-2.52s.16-1.63.21-2.52-.27-1.69-.18-2.55.39-1.66.54-2.49a24,24,0,0,1,.53-2.47,20.92,20.92,0,0,1,.45-2.54,10.63,10.63,0,0,1,1.6-2c.53-.74,1.28-1.34,1.87-2.09s1-1.6,1.58-2.31,1.43-1.26,2-1.95.93-1.75,1.52-2.4,1.18-1.62,1.73-2.21c1.17-1.25,2.5-.48,2.1-1.81s-.68-1.08-1.48-2.09-1-.81-1.83-1.81-1-.91-1.69-2S350.5,1546.27,349.41,1545.6Z"/><path class="cls-3" d="M349.41,1545.6c-1.08-.67-.44.48-1.5,1.72-.46.54-.89,1.28-1.48,2.06-.47.61-1.47.93-2,1.68s-.3,1.78-.79,2.53-1.24,1.17-1.7,1.93-.75,1.49-1.17,2.26-1.09,1.32-1.48,2.1-.24,1.74-.61,2.53a10.9,10.9,0,0,0-.84,2.51,15.23,15.23,0,0,0-.52,2.64,23.07,23.07,0,0,0,.27,2.7c.08.89-.23,1.85-.08,2.75s.95,1.66,1.16,2.53,0,1.88.29,2.72.81,1.71,1.09,2.51c.34,1,.29,2,.58,2.68a7.75,7.75,0,0,0,1.49,2.42s0-1-.06-2.54c0-.73-.19-1.58-.19-2.52s.16-1.63.21-2.52-.27-1.69-.18-2.55.39-1.66.54-2.49a24,24,0,0,1,.53-2.47,20.92,20.92,0,0,1,.45-2.54,10.63,10.63,0,0,1,1.6-2c.53-.74,1.28-1.34,1.87-2.09s1-1.6,1.58-2.31,1.43-1.26,2-1.95.93-1.75,1.52-2.4,1.18-1.62,1.73-2.21c1.17-1.25,2.5-.48,2.1-1.81s-.68-1.08-1.48-2.09-1-.81-1.83-1.81-1-.91-1.69-2S350.5,1546.27,349.41,1545.6Z"/><path class="cls-3" d="M383.24,1590.15a10.82,10.82,0,0,1,2.29-1.15,18.92,18.92,0,0,1,2.35-1.2c.78-.21,1.79.37,2.69.22s1.6-.83,2.49-.88a20.71,20.71,0,0,1,2.6.08c.84.08,1.59.75,2.44,1s1.81,0,2.61.32a14.82,14.82,0,0,1,2.39,1.13c.68.48.88,1.59,1.51,2.23s1.62.83,2.15,1.56a24.73,24.73,0,0,1,1.15,2.36"/><path class="cls-3" d="M372.19,1611.36A21,21,0,0,1,372,1614c-.11.74-1,1.49-1.15,2.44-.14.8-.25,1.66-.45,2.54s-.37,1.66-.61,2.51,0,1.81-.31,2.63-.48,1.72-.83,2.5a21.84,21.84,0,0,1-1.39,2.25c-.47.77-1.34,1.21-1.9,1.82a7.17,7.17,0,0,1-2,1.46,2.93,2.93,0,0,0-1.23,2.6,5,5,0,0,0,.42,2.89c.49.79,1.64,1.06,2.49,1.5a3.94,3.94,0,0,0,2.67.72c.8-.17,1.35-1,2.18-1.76"/><path class="cls-3" d="M432.73,1618.56c.72-1,.82-1,1.54-2s.42-1.24,1.14-2.28.52-1.17,1.24-2.2.73-1,1.45-2,.67-1.07,1.39-2.1,1.36-.58,2.08-1.62,0-1.5.75-2.53.8-1,1.52-2,.61-1.11,1.33-2.15,1.34-.59,2.06-1.63.51-1.18,1.23-2.21.86-.94,1.58-2,.76-1,1.48-2"/><path d="M399.51,1665.23c-.26,1.36.16,1.47.26,2.85s.71,1.34.8,2.72,0,1.39.13,2.77-.17,1.4-.08,2.78a4.7,4.7,0,0,0,.54,2.61c.55,1.2.5-.34,2-1.13.66-.35,1.43-.8,2.29-1.31.7-.42,1.46-.87,2.26-1.39s1.28-1.17,2-1.71,1.64-.69,2.36-1.25,1.46-1,2.14-1.58,1.34-1.16,2-1.78,1.44-1.09,2-1.74,1.19-1.35,1.75-2,1.09-1.43,1.59-2.17.76-1.64,1.18-2.41a24.46,24.46,0,0,0,1.26-2.37c.36-.85.16-1.88.45-2.69s1.09-1.55,1.33-2.36,0-1.89.2-2.71.41-1.77.54-2.59.1-1.84.17-2.64c.08-1,.51-1.88.5-2.63a6.66,6.66,0,0,0-.25-2.2s-.36.52-1.37,1.87c-.46.61-.91,1.41-1.54,2.21-.51.64-1.6.9-2.22,1.64s-.85,1.56-1.47,2.26-.87,1.59-1.49,2.27-1.21,1.3-1.85,2-1.51,1-2.16,1.64-1.3,1.21-2,1.83-1.62.85-2.3,1.44-1.15,1.38-1.85,1.94-1.33,1.21-2.05,1.73-1.36,1.18-2.1,1.68-1.56.9-2.33,1.35S400.3,1664.82,399.51,1665.23Z"/><path class="cls-3" d="M399.51,1665.23c-.26,1.36.16,1.47.26,2.85s.71,1.34.8,2.72,0,1.39.13,2.77-.17,1.4-.08,2.78a4.7,4.7,0,0,0,.54,2.61c.55,1.2.5-.34,2-1.13.66-.35,1.43-.8,2.29-1.31.7-.42,1.46-.87,2.26-1.39s1.28-1.17,2-1.71,1.64-.69,2.36-1.25,1.46-1,2.14-1.58,1.34-1.16,2-1.78,1.44-1.09,2-1.74,1.19-1.35,1.75-2,1.09-1.43,1.59-2.17.76-1.64,1.18-2.41a24.46,24.46,0,0,0,1.26-2.37c.36-.85.16-1.88.45-2.69s1.09-1.55,1.33-2.36,0-1.89.2-2.71.41-1.77.54-2.59.1-1.84.17-2.64c.08-1,.51-1.88.5-2.63a6.66,6.66,0,0,0-.25-2.2s-.36.52-1.37,1.87c-.46.61-.91,1.41-1.54,2.21-.51.64-1.6.9-2.22,1.64s-.85,1.56-1.47,2.26-.87,1.59-1.49,2.27-1.21,1.3-1.85,2-1.51,1-2.16,1.64-1.3,1.21-2,1.83-1.62.85-2.3,1.44-1.15,1.38-1.85,1.94-1.33,1.21-2.05,1.73-1.36,1.18-2.1,1.68-1.56.9-2.33,1.35S400.3,1664.82,399.51,1665.23Z"/><path class="cls-3" d="M419.33,1581.41c0,1.39.14,1.39.17,2.79s-.09,1.4-.06,2.8-.13,1.41-.1,2.81.17,1.4.2,2.8-.58,1.41-.55,2.82.79,1.38.82,2.78"/><path class="cls-3" d="M342,1619.27c.94-.92,1.11-.32,2.34-1.31.61-.49,1-1.49,1.77-2s1.36-1.16,2.15-1.61,1.88-.18,2.7-.53,1.48-1.22,2.32-1.41a10.15,10.15,0,0,1,2.7.05,7,7,0,0,1,2.63.46,7.28,7.28,0,0,1,2.27,1.5,11.33,11.33,0,0,1,1.32,2.36"/><path class="cls-3" d="M513.46,1691a9.17,9.17,0,0,0-.67-4.12c-.42-1.11-1.92-2-2.55-3.44-.53-1.17-1.24-2.33-1.92-3.64s-.26-3-1-4.19-1.55-2.29-2.37-3.46-1.66-2.22-2.55-3.31-2.37-1.58-3.35-2.58a40.24,40.24,0,0,0-3.15-2.63,38.23,38.23,0,0,0-3.08-2.73c-1.13-.77-2-2.1-3.2-2.75a34,34,0,0,0-3.77-1.88c-1.27-.48-2.8-.33-4.18-.65s-2.59-1.24-4-1.4-2.79.78-4.22.78-2.65-.61-3.91-.61-2.66.82-3.9.82-2.68-.76-3.91-.76c-1.39,0-2.69.71-3.9.71-1.43,0-2.73-1-3.9-1-1.52,0-2.82.75-3.9.75-2.61,0-1.94-.56-3.89-.56"/><path class="cls-3" d="M514.06,1690.79c.87,1.84-.15,1.69.93,4.06.48,1.05,1.78,2,2.42,3.39.51,1.14,1,2.41,1.61,3.75.52,1.18,1.3,2.33,1.87,3.64s.47,2.71,1,4,.43,2.73,1,4,2.08,2,2.62,3.31,1.25,2.41,1.78,3.7,0,2.91.55,4.19,1.47,2.37,1.8,3.68,1.2,2.63,1.33,4a29.23,29.23,0,0,1,.11,4.18c-.07,1.37-.84,2.72-1.12,4a23.89,23.89,0,0,1-1.2,3.91c-.49,1.28-1.72,2.13-2.43,3.28a20.54,20.54,0,0,1-2,3.48,19.06,19.06,0,0,1-2.92,2.83,19.71,19.71,0,0,1-3.47,2.22,21.51,21.51,0,0,1-4,1.06c-1.28.26-2.68-.4-4.1-.37a25.73,25.73,0,0,1-4-.18c-1.29-.16-2.85.8-4.24.45s-2.2-1.86-3.54-2.35-2.78-.23-4.06-.83-2.51-1.11-3.71-1.67-2.36-1.45-3.56-2-2.65-.82-3.85-1.38-2.1-2-3.3-2.55-2.75-.61-3.94-1.16-2.32-1.57-3.5-2.12-2.6-1-3.78-1.54-2.44-1.34-3.61-1.88-2.78-.65-3.94-1.18c-1.33-.61-2.72-.83-3.85-1.35-1.37-.63-2.58-1.22-3.68-1.72-1.46-.67-2.72-1.14-3.74-1.6a33,33,0,0,1-4.12-2.21"/><path class="cls-3" d="M417.41,1731.26c1.88-1.09,1.83-.15,4.15-1.51,1.08-.63,2.63-.89,4-1.72,1.16-.68,2.36-1.54,3.67-2.32s2.38-1.6,3.66-2.36,2.28-1.8,3.54-2.56,2.26-1.88,3.49-2.63,3-.77,4.17-1.51,2.29-1.94,3.46-2.67a22,22,0,0,1,3.87-2.18,19.22,19.22,0,0,1,4.37-.82c1.47-.17,3-.78,4.46-.65a30,30,0,0,1,4.39,1c1.41.33,2.94.55,4.34,1s2.5,1.73,3.88,2.27,2.55,1.54,3.91,2.09,2.8,1,4.17,1.48,3,0,4.29.48c1.4.51,2.68,1.07,3.92,1.51,1.42.51,2.58,1.39,3.8,1.83,1.44.52,3,.41,4.16.84,1.47.53,2.62,1.42,3.8,1.83,1.5.53,2.79,1,4,1.37,1.46.51,2.72,1,4,1.39s2.69.44,4.1.92c1.18.39,2.27,1.42,3.78,1.93"/><path class="cls-8" d="M416.45,1621.48a5.15,5.15,0,0,1-1.1,2.66c-.53.67-1.68.77-2.47,1.26a12,12,0,0,1-2.34,1.19,13.65,13.65,0,0,1-2.54.83,22,22,0,0,1-2.42.62c-.74.08-1.63-.47-2.53-.38s-1.56.59-2.42.67-1.66-.16-2.5-.08-1.6.6-2.43.68-1.65.2-2.46.29-1.75-.52-2.55-.43-1.67.44-2.43.54c-.94.12-1.81.07-2.48.18a11.74,11.74,0,0,1-2.37.25c-.91,0-1.88.43-2.54.1A4.77,4.77,0,0,1,379,1628a8.81,8.81,0,0,1-.36-2.49,14.38,14.38,0,0,1-.22-2.42c0-1,.07-1.88.08-2.75s.14-1.8.15-2.73.26-1.76.27-2.75c0-.83-.21-1.74-.2-2.74,0-.84-.34-1.75-.34-2.75a21,21,0,0,1,.26-2.44,14.36,14.36,0,0,1,.4-2.42,6.75,6.75,0,0,1,1.4-2c.51-.68.88-1.44,1.61-1.8s1.56,0,2.43-.09,1.63-.89,2.56-1,1.73.17,2.64.11,1.7-.51,2.59-.57,1.78.49,2.66.43l2.63-.18c.89-.07,1.74-.51,2.59-.57s1.79,0,2.63-.06,1.81,0,2.63-.11c1-.09,1.82-.42,2.57-.51a16.76,16.76,0,0,1,2.69.27,9.69,9.69,0,0,1,2.51.64,5.13,5.13,0,0,1,2.2,1.11,4.38,4.38,0,0,1,1.36,2.08,7.23,7.23,0,0,1,.24,2.56c-.07,1-.2,1.93-.26,2.76-.07,1,.35,2,.29,2.8s-.73,1.82-.8,2.72-.18,1.77-.25,2.75.67,1.79.6,2.82C416.54,1619.54,416.52,1620.45,416.45,1621.48Z"/><path class="cls-3" d="M416.45,1621.48a5.15,5.15,0,0,1-1.1,2.66c-.53.67-1.68.77-2.47,1.26a12,12,0,0,1-2.34,1.19,13.65,13.65,0,0,1-2.54.83,22,22,0,0,1-2.42.62c-.74.08-1.63-.47-2.53-.38s-1.56.59-2.42.67-1.66-.16-2.5-.08-1.6.6-2.43.68-1.65.2-2.46.29-1.75-.52-2.55-.43-1.67.44-2.43.54c-.94.12-1.81.07-2.48.18a11.74,11.74,0,0,1-2.37.25c-.91,0-1.88.43-2.54.1A4.77,4.77,0,0,1,379,1628a8.81,8.81,0,0,1-.36-2.49,14.38,14.38,0,0,1-.22-2.42c0-1,.07-1.88.08-2.75s.14-1.8.15-2.73.26-1.76.27-2.75c0-.83-.21-1.74-.2-2.74,0-.84-.34-1.75-.34-2.75a21,21,0,0,1,.26-2.44,14.36,14.36,0,0,1,.4-2.42,6.75,6.75,0,0,1,1.4-2c.51-.68.88-1.44,1.61-1.8s1.56,0,2.43-.09,1.63-.89,2.56-1,1.73.17,2.64.11,1.7-.51,2.59-.57,1.78.49,2.66.43l2.63-.18c.89-.07,1.74-.51,2.59-.57s1.79,0,2.63-.06,1.81,0,2.63-.11c1-.09,1.82-.42,2.57-.51a16.76,16.76,0,0,1,2.69.27,9.69,9.69,0,0,1,2.51.64,5.13,5.13,0,0,1,2.2,1.11,4.38,4.38,0,0,1,1.36,2.08,7.23,7.23,0,0,1,.24,2.56c-.07,1-.2,1.93-.26,2.76-.07,1,.35,2,.29,2.8s-.73,1.82-.8,2.72-.18,1.77-.25,2.75.67,1.79.6,2.82C416.54,1619.54,416.52,1620.45,416.45,1621.48Z"/><path class="cls-3" d="M403.86,1612.47a9.24,9.24,0,0,0-2.27-1.07,20.35,20.35,0,0,0-2.4-.61,15.17,15.17,0,0,0-2.46-.08c-.79-.07-1.63-.69-2.47-.57a11.09,11.09,0,0,0-2.28,1.06,9.74,9.74,0,0,0-2.3.93c-.62.46-.93,1.32-1.51,2a14.76,14.76,0,0,0-1.41,2"/><path class="cls-3" d="M362.76,1650.16a4.76,4.76,0,0,0,2.64.08c.71-.13,1.5-.63,2.48-.94a21.83,21.83,0,0,0,2.57-.64c.74-.31,1.48-.81,2.32-1.24s1.34-1.06,2.15-1.53,1.69-.51,2.46-1,1.28-1.16,2-1.7,1.43-1,2.14-1.52,1.21-1.23,1.91-1.81,1.44-1,2.11-1.57,1.42-1,2.07-1.64.85-1.61,1.49-2.25a8,8,0,0,1,2-1.59,1.7,1.7,0,0,1,2.24.8,5.07,5.07,0,0,1,1,2.29,17.79,17.79,0,0,1,.15,2.52c0,.79-.41,1.62-.52,2.47s-.09,1.67-.26,2.49-.44,1.64-.67,2.41a22.56,22.56,0,0,1-.71,2.41,24.42,24.42,0,0,1-1.32,2.44,26.52,26.52,0,0,1-1.59,2.26,24.42,24.42,0,0,1-1.85,2,25.15,25.15,0,0,1-1.91,1.94c-.74.66-1.3,1.41-2,1.9a18.36,18.36,0,0,1-2.43,1.29c-1.5.82-2.31,1.29-2.31,1.29"/><path class="cls-3" d="M480.86,1717.51c-.75,1.06-.67,1.12-1.43,2.18s-.31,1.37-1.07,2.43-1.23.73-2,1.79-.42,1.3-1.18,2.36-.8,1-1.55,2.09-.66,1.13-1.41,2.19-.67,1.12-1.43,2.18-.71,1.09-1.47,2.15-1.18.76-1.93,1.82-.72,1.09-1.48,2.15-.42,1.3-1.18,2.36-.71,1.09-1.47,2.16-.8,1-1.55,2.09"/><path class="cls-3" d="M493.39,1728.32c-.7,1-1,.78-1.69,1.76s-.45,1.15-1.15,2.14-.48,1.14-1.18,2.12-1.1.7-1.8,1.69-.37,1.22-1.06,2.2-1.16.67-1.86,1.66-.48,1.14-1.18,2.13"/><path class="cls-3" d="M383.34,1688c1.44,1.92,1.94,1.55,3.39,3.47s.86,2.36,2.3,4.28.56,3.66,2.92,4.12c1.82.36,1.14-1.86,2.35-3.26s1.72-1,2.93-2.36.78-1.79,2-3.19.81-3.63,2.64-3.31c2.34.4,1.94,2,3.42,3.88s.71,2.48,2.2,4.34.84,3,3.21,3.21c2.11.18,1.5-1.12,2.86-2.74s1.16-1.79,2.51-3.42,1.19-1.76,2.55-3.38,1.8-1.25,3.16-2.88.94-2,2.3-3.59,1.92-1.15,3.27-2.78.59-2.27,1.94-3.89,1.76-1.29,3.11-2.92,1.57-1.45,2.92-3.08,1.57-1.45,2.93-3.07,1.46-1.55,2.82-3.18"/><path class="cls-3" d="M261.89,1610.1c-.84,1-.85,1-1.69,2s-1.32.58-2.16,1.56-.26,1.48-1.1,2.47-1.34.57-2.18,1.55-.44,1.33-1.28,2.32-1,.8-1.89,1.79-.83,1-1.67,2-.77,1-1.61,2-.79,1-1.63,2-1.21.68-2.05,1.67-.33,1.42-1.18,2.41-1.44.47-2.28,1.46-.72,1.09-1.57,2.08-.87,1-1.72,2"/><path class="cls-3" d="M246.66,1602.87a39,39,0,0,0-1.77-3.7c-.57-1-1.55-2.06-2.35-3.38-.65-1.1-1-2.47-1.83-3.69s-1-2.56-1.84-3.73-2.06-1.87-2.9-3-1.66-2.16-2.55-3.21-1.11-2.72-2-3.71-2.42-1.52-3.43-2.42a37.59,37.59,0,0,0-3.22-2.56,26.9,26.9,0,0,0-3.39-2.39c-1.29-.61-2.78-.44-4.08-.69a18.43,18.43,0,0,0-3.71-.61A10.76,10.76,0,0,0,210,1571c-1.23.46-2.75.25-3.73,1s-1.23,2.35-2.06,3.31-2.31,1.39-3.08,2.38-1.2,2.38-2.18,3.71c-.79,1.06-2.08,1.91-2.94,3.15s-.86,2.81-1.63,4-1.75,2.28-2.41,3.5-2,2.35-2.48,3.58a13.77,13.77,0,0,0-.58,4.3c-.09,1.25.74,2.42,1.23,3.85.43,1.22-.15,3.07.64,4.29a23.78,23.78,0,0,0,3,3,21.42,21.42,0,0,0,3.21,2.68,20.27,20.27,0,0,0,3.54,2.3,18.36,18.36,0,0,0,4.17.7c1.34.2,2.68-.35,4.1-.51"/><path class="cls-3" d="M225.37,1580.44c-1.77.57-1.69-.26-3.7.8a33.54,33.54,0,0,0-3.2,2c-1,.66-1.49,2-2.47,2.89a20.48,20.48,0,0,0-2.78,3.52c-1,1.4-2.82,2.27-3.19,3.49-.6,1.94.18,4,1.95,4.18,1.5.15,3.31-.93,5-1.33,2.61-.61,3.62-3.34,5-1.24,1.27,1.89-1.2,2.15-.85,4.37.2,1.23.92,2,2.72,2.89a11,11,0,0,0,4.06,1.78,39.65,39.65,0,0,0,4.53-.08"/><path class="cls-3" d="M205.85,1580.19c.49,1.89.69,1.62,1.58,3.62a19.65,19.65,0,0,0,1.61,3.64,9.7,9.7,0,0,0,3.2,2.4"/><path class="cls-3" d="M199.56,1589.69a10.58,10.58,0,0,0,1.54,3.75,22.82,22.82,0,0,0,2.51,3.11c.77.94,2.13,1.41,3.22,2.25s1.6,2.32,2.86,2.87,2.67,0,4,.22a21,21,0,0,0,3.82,0"/><path class="cls-3" d="M195.66,1596.81c.46,1.9,1.17,1.22,2.24,3.26.53,1,.49,2.58,1.4,3.7.77.94,2.07,1.46,3.16,2.3a15.21,15.21,0,0,0,3.1,2.37c1.11.49,2.28,1.44,3.65,1.69a23.64,23.64,0,0,0,4,0"/><path class="cls-2" d="M291.56,1602c-1.67-1.17-1.38-1.59-3.05-2.76s-1.9-.85-3.58-2-1.28-1.73-3-2.91-2.34-.22-4-1.39-1-2.09-2.71-3.26l-3.35-2.35c-1.67-1.18-2.44-.07-4.12-1.25s-1.39-1.58-3.06-2.75-1.24-1.8-2.92-3-2.29-.29-4-1.47-1.13-2-2.81-3.12-1.61-1.28-3.29-2.46"/><path class="cls-2" d="M311,1589.9c-1.39-1.56-1.56-1.42-2.95-3s-2.12-.92-3.52-2.49-1.15-1.77-2.54-3.34-.84-2.06-2.24-3.63-2.29-.77-3.68-2.33-.51-2.36-1.91-3.92-1.5-1.47-2.9-3-2-1-3.37-2.62-.56-2.31-2-3.88-1.45-1.52-2.84-3.09-2.17-.87-3.57-2.43-1.16-1.78-2.56-3.34-1-1.91-2.41-3.48-1.69-1.3-3.08-2.87-.9-2-2.29-3.59-2.27-.8-3.67-2.37"/><path class="cls-2" d="M326.56,1575.38c-1.07-1.76,0-2.41-1.08-4.17s-1.15-1.71-2.22-3.47-1.59-1.45-2.67-3.2l-2.14-3.52c-1.08-1.76-1.15-1.71-2.23-3.47s-1.34-1.6-2.42-3.36-.33-2.21-1.41-4-1.75-1.35-2.82-3.1-.16-2.33-1.24-4.08-1.27-1.65-2.34-3.41-1.91-1.25-3-3-.8-1.93-1.88-3.69"/><path class="cls-3" d="M314.24,1209.5c-.36.3-.68.69-1.08,1s-.9.41-1.31.71-.67.75-1.07,1-1,.34-1.38.61-.65.81-1.07,1.06-1,.32-1.4.55-.92.37-1.36.57-.78.76-1.23.91-1.07-.1-1.53,0-.93.14-1.42.2-.92.51-1.41.53-1-.29-1.46-.3-1,.14-1.46.09-.94-.19-1.43-.28-.9-.31-1.38-.44-.87-.36-1.33-.53-1,0-1.47-.25-.77-.6-1.19-.85-.8-.52-1.2-.81-.83-.48-1.21-.79-.73-.62-1.09-1-.65-.7-1-1.06-.54-.79-.85-1.18-.67-.69-1-1.09-.61-.74-.88-1.16-.42-.87-.66-1.3-.39-.87-.62-1.31-.52-.81-.73-1.26-.27-.93-.46-1.38-.63-.78-.81-1.24-.37-.89-.54-1.35-.15-1-.31-1.44-.11-1-.26-1.44-.37-.89-.5-1.36-.11-1-.23-1.44-.31-.91-.43-1.39-.52-.87-.63-1.35-.14-1-.23-1.44-.21-.94-.3-1.42.18-1,.1-1.5-.28-.93-.36-1.41l-.21-1.44c-.06-.47-.36-.93-.42-1.41s-.19-1-.25-1.44.22-1,.17-1.48-.33-.94-.37-1.43.21-1,.17-1.47-.1-1-.14-1.45-.16-1-.19-1.44-.24-1-.27-1.45.33-1,.3-1.47-.14-1-.15-1.45-.3-1-.31-1.45.3-1,.29-1.46-.37-1-.38-1.45,0-1,0-1.46-.05-1-.05-1.45.32-1,.32-1.47,0-1,0-1.46"/><path class="cls-3" d="M270.06,1153.25a18.26,18.26,0,0,1-2.09-2.92c-.59-1-.06-2.53-.39-3.61s-1.34-2.09-1.42-3.23a16.53,16.53,0,0,1,.4-3.49,18.75,18.75,0,0,1,.71-3.39c.36-1.1,1.32-1.9,1.87-2.93s.6-2.33,1.32-3.24,1.92-1.35,2.78-2.12a18.1,18.1,0,0,1,2.6-2.21,17.46,17.46,0,0,1,3-1.74,16.1,16.1,0,0,1,3.38-.69,29,29,0,0,1,3.37-.75,15.7,15.7,0,0,1,3.34.83,16.69,16.69,0,0,1,3.35.68,25.86,25.86,0,0,1,3.18,1.38c.95.6,1.51,1.81,2.48,2.45s1.66,1.63,2.68,2.19,2.3.41,3.41.83,2,1.23,3.16,1.48c1,.21,2.26-.22,3.48-.14,1.05.08,2.2.76,3.42.72s2.28-.67,3.35-.7,2.3-.51,3.36-.52,2.3,1,3.35,1.07c1.21,0,2.4-1.13,3.43-1,1.21.12,2.24,1,3.25,1.21s2.42.18,3.38.67a13.89,13.89,0,0,1,2.56,2.32,17.71,17.71,0,0,1,2.55,2.28,24.27,24.27,0,0,1,2,3.07,21.47,21.47,0,0,1,1,3.49c.4,1.18.13,2.42.31,3.55a21.81,21.81,0,0,1,.65,3.48,23.64,23.64,0,0,1-.27,3.54,24,24,0,0,1-1,3.41,33.62,33.62,0,0,1-1,3.43c-.9,2-1.15,1.33-2.17,2.8"/><path class="cls-3" d="M324.79,1169.92c.48-1.62,1.06-1.17,2.16-2.73.59-.82,1-2,2-2.71a8.3,8.3,0,0,1,3.23-1.13c1-.17,2.23-.77,3.48-.54a6.67,6.67,0,0,1,3.05,2,10.54,10.54,0,0,1,1.93,2.91c.44,1,.08,2.3.26,3.45a12.42,12.42,0,0,1-.09,3.27c-.12,1.09.45,2.41,0,3.47a12,12,0,0,1-1.78,3,13.47,13.47,0,0,1-2.6,2.35,16.63,16.63,0,0,1-3.18,1.38"/><path class="cls-3" d="M270.41,1152.77c1.28-1.24.74-1.39,2.57-2.6.85-.57,2.49-.13,3.69-.74,1-.5,1.66-1.92,2.86-2.35a30.7,30.7,0,0,1,3.51-.81,29.7,29.7,0,0,1,3.55-.52c1.14-.11,2.32.69,3.56.73a27.55,27.55,0,0,1,3.5.07c1.13.18,2.54-.63,3.73-.29s1.94,1.61,3.08,2.07,2.46.26,3.56.83,2,1.56,3,2,2.53.29,3.61.66,2,2.06,3.14,2.29,2.58-.49,3.74-.48,2.5.44,3.67.18a17.83,17.83,0,0,0,3.52-1.14,24.18,24.18,0,0,0,3-2.19c.94-.65,2.28-1,3.24-1.79s1.17-2.21,2.06-3.12"/><path class="cls-3" d="M293.05,1190.46a3.56,3.56,0,0,1-1.9-1.45c-.76-1.08-.95-1.28-.33-2.29a15.93,15.93,0,0,0,1.36-1.37,13.25,13.25,0,0,0,1.17-1.5,12.38,12.38,0,0,0,1.08-1.59,13.31,13.31,0,0,0,.85-1.74c.18-.61-.08-1.33,0-2s.14-1.24.18-1.89.06-1.25.06-1.9.28-1.27.26-1.93-.11-1.27-.14-1.92a8.25,8.25,0,0,0-.35-2c-.18-.62-.77-1.09-1.09-1.7a13.11,13.11,0,0,0-.72-1.89,15.66,15.66,0,0,0-1.13-1.7,16.33,16.33,0,0,0-1.73-1.1c-.53-.42-.9-1.1-1.48-1.43a13.52,13.52,0,0,0-2-.59,11.74,11.74,0,0,0-1.95-.45,9.29,9.29,0,0,0-2,0,8.65,8.65,0,0,0-2,.12,9.31,9.31,0,0,0-2,.38"/><path d="M310.75,1174.14a9.45,9.45,0,0,1,.12,1.95,7.74,7.74,0,0,1-.2,2c-.36.71-1.19.67-1.78.73s-1.27.18-1.76-.44a6,6,0,0,1-.93-1.79c-.2-.58.11-1.32,0-2s-.57-1.35-.5-2a7.34,7.34,0,0,1,.38-2c.36-.71,1.21-.74,1.8-.8a1.9,1.9,0,0,1,1.85.46,6.75,6.75,0,0,1,.7,1.91A8.89,8.89,0,0,1,310.75,1174.14Z"/><path class="cls-3" d="M339.58,1166c-.87,1-1,.94-1.84,2s-1.12.82-2,1.86-.67,1.19-1.54,2.22-.67,1.2-1.54,2.23-.88,1-1.75,2.06"/><path d="M286.54,1177.3c.08.69.67,1.35.6,2a5.47,5.47,0,0,1-.89,1.81c-.35.71-.72,1.35-1.31,1.42a2.19,2.19,0,0,1-1.7-1,5.66,5.66,0,0,1-1.22-1.64,9.61,9.61,0,0,1-.31-2,9.14,9.14,0,0,1,0-2,5.43,5.43,0,0,1,.9-1.8,1.57,1.57,0,0,1,1.32-1.06,1.9,1.9,0,0,1,1.83.51,6.11,6.11,0,0,1,1,1.8C286.92,1175.83,286.47,1176.6,286.54,1177.3Z"/><path class="cls-3" d="M289,1197c1.22-.25,1.34.33,2.57.08s1.13-.71,2.36-1,1.29.05,2.51-.21,1.14-.69,2.37-1,1.4.59,2.63.34,1.12-.8,2.35-1.06,1.21-.45,2.44-.17-.57.66-1.33,2.08a25.46,25.46,0,0,1-1.15,2.41c-.46.71-1.27,1.2-1.86,1.93s-.76,1.69-1.42,2.31a16.34,16.34,0,0,1-2.23,1.49,11.38,11.38,0,0,1-2.48.87"/><path class="cls-3" d="M313.79,1165.81c-.69-1.07-.79-.67-1.82-1.75-.52-.56-.65-1.72-1.38-2.28s-1.72-.41-2.51-.77a7.66,7.66,0,0,0-2.36-.8,6.85,6.85,0,0,0-2.49.14,8.22,8.22,0,0,0-2.59.54"/><path class="cls-3" d="M317.9,1149.55c.16,1.27-.32,1.33-.16,2.61s.59,1.23.75,2.51.29,1.26.45,2.54.42,1.25.58,2.53,0,1.3.14,2.58-.25,1.33-.09,2.61.34,1.26.5,2.54.56,1.23.72,2.51,0,1.31.13,2.59-.37,1.35-.21,2.63"/><path d="M306.24,1132.31c-1.37,1.32-1.95,0-4.17,0-1.14,0-2.45-.39-3.8-.46s-2.58-.05-3.81-.21a21.58,21.58,0,0,1-3.77-.69,7.67,7.67,0,0,1-2.9-1.74,9.22,9.22,0,0,1-1.62-2.92c-.78-1.67-1.78-1.59-.68-2.82s1.06-.46,2.92.06c.91.26,2,.53,3.12.92s2,.76,3,1.2,1.67,1.52,2.59,2.06,2,1,2.86,1.5c1.08.59,2,1.11,2.86,1.5C304.73,1131.63,307.4,1131.19,306.24,1132.31Z"/><path class="cls-3" d="M306.24,1132.31c-1.37,1.32-1.95,0-4.17,0-1.14,0-2.45-.39-3.8-.46s-2.58-.05-3.81-.21a21.58,21.58,0,0,1-3.77-.69,7.67,7.67,0,0,1-2.9-1.74,9.22,9.22,0,0,1-1.62-2.92c-.78-1.67-1.78-1.59-.68-2.82s1.06-.46,2.92.06c.91.26,2,.53,3.12.92s2,.76,3,1.2,1.67,1.52,2.59,2.06,2,1,2.86,1.5c1.08.59,2,1.11,2.86,1.5C304.73,1131.63,307.4,1131.19,306.24,1132.31Z"/><path class="cls-3" d="M234,1177.35c.34,1.33.25,1,.75,2.63.24.75.07,1.78.41,2.76.28.81.66,1.66,1,2.57s.64,1.69,1,2.56,1.27,1.41,1.68,2.25.5,2.11,1.18,3a30.22,30.22,0,0,0,1.79,2.77c.72.81,1.88,1.24,2.64,2s1.22,2,2,2.66,2.06,1.14,2.79,1.75c1.5,1.26,2.19.45,2.69,2s-.2,1.24-1,3c-.36.77-1,1.6-1.44,2.65-.38.84-1.24,1.55-1.68,2.55s-.61,1.86-1,2.83-.36,2-.77,3-1,1.72-1.4,2.68-1.35,1.58-1.75,2.53-.36,2-.75,3-1.16,1.68-1.54,2.63-.33,2-.71,3-.4,2-.77,2.94-1.56,1.55-1.93,2.49,0,2.15-.36,3.1-.85,1.83-1.19,2.77-.72,1.89-1.05,2.84-1.26,1.7-1.58,2.65-.46,2-.76,2.94.14,2.16-.15,3.11-1.26,1.74-1.54,2.69.14,2.05.16,3.12a13.28,13.28,0,0,0,.09,3.08c.26,1,1.1,1.73,1.56,2.69s.11,2.32.72,3.17,1.79,1.22,2.55,1.94a16.57,16.57,0,0,0,2.16,2.27,10.47,10.47,0,0,0,5.84,2.15,15.57,15.57,0,0,0,3.08.75c1,0,2-.69,3.06-.87a20,20,0,0,0,3.07-.49,23.2,23.2,0,0,0,3.07-.8c.89-.42,1.52-1.47,2.44-2s1.78-1,2.65-1.61,1.6-1.24,2.42-2,1.8-1.06,2.57-1.82.85-2,1.57-2.8,1.74-1.17,2.43-2,1-1.8,1.66-2.65,1.35-1.54,2-2.4,1.68-1.72,2.27-2.6c.2,1.48-.33,1.58-.48,3.06s-.14,1.49-.29,3-.68,1.43-.83,2.92-.27,1.47-.43,3,.49,1.55.33,3-.11,1.49-.26,3-.13,1.49-.29,3-.31,1.47-.47,2.95-.53,1.45-.69,2.93.15,1.52,0,3,.15,1.52,0,3-.17,1.48-.32,3-.17,1.48-.32,3-.95,1.4-1.1,2.89.42,1.55.27,3-.39,1.47-.54,2.95-.11,1.5-.26,3-.57,1.45-.72,2.94.34,1.54.18,3-.59,1.44-.74,2.92,0,1.5-.18,3,0,1.51-.14,3-.29,1.47-.44,3,.2,1.53.05,3-1.62,1.93-.63,3.06,1.63-.2,3.14-.15,1.52-.18,3-.14,1.5.54,3,.58,1.51.39,3,.43,1.53-.46,3.05-.41,1.5.44,3,.49,1.53-.4,3.05-.36,1.5.53,3,.58,1.53-.39,3-.35,1.53-.28,3-.24,1.5.82,3,.87,1.54-.86,3.06-.81,1.49.53,3,.58,1.52-.35,3-.31,1.5.37,3,.42,1.52-.25,3-.2l3,.09c1.52,0,1.51.39,3,.43s1.51.45,3,.49,1.53-.25,3-.2,1.52,0,3,.06,1.52.17,3,.22,1.53-.18,3-.14,1.51.46,3,.51,1.52-.19,3-.15,1.53-.3,3-.26,1.52-.08,3,0,1.5.73,3,.77,2.12.9,3.25-.11.44-1.71.57-3.23-.33-1.57-.2-3.1.6-1.49.73-3-.31-1.57-.18-3.1.26-1.51.39-3,.35-1.51.48-3,0-1.54.14-3.07-.06-1.54.07-3.07.2-1.52.33-3,.36-1.51.49-3,.12-1.53.25-3.06-.4-1.57-.27-3.1.65-1.49.78-3-1.66-2.89-.14-3.15,0,1.6.31,3,.25,1.47.59,2.92.33,1.46.68,2.91,1,1.3,1.34,2.75.18,1.49.53,2.94.22,1.48.56,2.94.83,1.33,1.18,2.78-.26,1.6.09,3.05,1,1.3,1.33,2.75.35,1.46.69,2.91.07,1.52.42,3,.28,1.47.63,2.93"/><path class="cls-3" d="M245.36,1185.88a4.62,4.62,0,0,1-2.22-2c-.31-.64-.59-1.45-1-2.29s-.8-1.43-1.13-2.23-.37-1.63-.66-2.42-.19-1.7-.42-2.48-.81-1.54-1-2.32a24.8,24.8,0,0,1-.8-2.45"/><path class="cls-3" d="M250.9,1182.09c-.6-1.19-1-.66-1.68-2.14-.31-.71.09-1.84-.27-2.75s-1.55-1.28-1.85-2.16-.09-1.82-.33-2.69-.06-1.8-.23-2.66-.85-1.67-.92-2.52"/><path class="cls-3" d="M250.74,1164.75c.11.79.78,1.58,1,2.47s-.07,1.82.21,2.66,1.26,1.38,1.58,2.2.81,1.53,1.15,2.33,1.19,1.35,1.55,2.13.42,1.72.79,2.48.08,1.93.45,2.67,1.11,1.45,1.49,2.16c.45.86,1.47,1.29,1.83,1.94.78,1.41-.23,3.63.26,2.44s1.07-1.15,1.21-2.51-.33-1.41-.19-2.77.43-1.34.58-2.7-.49-1.44-.34-2.81-.35-1.41-.2-2.78"/><path class="cls-3" d="M258.51,1198.12c0-1.2-.49-.81-1.05-2.21a9.51,9.51,0,0,0-.8-2.26c-.4-.59-1.26-.88-1.87-1.53a17.73,17.73,0,0,0-1.78-1.51c-.59-.46-.7-1.71-1.43-2.16s-1.58-.4-2.34-.78-1.32-.91-2.1-1.23-1.6-.22-2.4-.48"/><path class="cls-3" d="M267.17,1190.57c-.09,1.19-.25,2.36-.35,3.53s.22,2.39.12,3.56-.37,2.35-.47,3.52-.56,2.33-.66,3.49-.09,2.38-.19,3.54-.12,2.38-.22,3.54-.18,2.38-.29,3.54-.54,2.34-.65,3.49-.61,2.34-.72,3.49.64,2.46.52,3.61-.18,2.38-.29,3.53-.25,2.38-.37,3.51-.9,2.33-1,3.45-.17,2.42-.29,3.53-.31,2.41-.44,3.51c-.14,1.28.52,2.54.39,3.6-.15,1.36-1.11,2.44-1.22,3.42-.27,2.28-.69,1.69-.91,3.44"/><path class="cls-3" d="M244.65,1209c.71,1.11.95.52,2.11,1.62a13.08,13.08,0,0,0,1.8,1.91,16.83,16.83,0,0,0,2.49.85,13.7,13.7,0,0,0,2.44.73c.81.19,1.54,1.19,2.47,1.25a21.4,21.4,0,0,0,2.65-.46,18.85,18.85,0,0,0,2.68-.09c.81-.19,1.55-.83,2.43-1.14s1.5-.81,2.34-1.2"/><path class="cls-3" d="M241.5,1220.75c.71,1.11.78.82,1.94,1.91.55.52,1.77.38,2.59.92a12.52,12.52,0,0,0,2.07,1.54,13.92,13.92,0,0,0,2.46.75,15.84,15.84,0,0,0,2.57,0c.83.05,1.68.82,2.6.73a19,19,0,0,0,2.71,0,26.64,26.64,0,0,0,2.53-.89c.79-.28,1.31-1.33,2.15-1.71"/><path class="cls-3" d="M280.61,1202.44c-1.63-.36-1.09-.26-3,.19a9,9,0,0,0-2.83,1.23c-.84.52-2.25.44-3.09,1.36-.68.73-.91,1.93-1.54,3"/><path class="cls-3" d="M289.83,1224.19a16.47,16.47,0,0,0,3.31,1c.94.24,2.26-.4,3.5-.2,1,.17,2.13.55,3.31.64a33.07,33.07,0,0,0,3.39.26c1.09,0,2.15-.79,3.29-1s2.36.45,3.47.14,1.8-1.53,2.85-2a19.39,19.39,0,0,0,2.88-1.58,20.21,20.21,0,0,0,2.85-1.75"/><path class="cls-3" d="M377.77,1273.21c-1.5.67-2.9,1.77-4.43,2.09a21.79,21.79,0,0,1-4.91,0,20.93,20.93,0,0,1-4.88-.23,21.94,21.94,0,0,1-4.59-1.76c-1.4-.72-2.49-2.06-3.78-3.09s-1.9-2.49-3-3.74a31.2,31.2,0,0,1-3.21-3.53,37.86,37.86,0,0,1-2.35-4.18c-.68-1.45-1.22-3-2-4.39s-1.84-2.66-2.65-4-1.09-3.11-1.94-4.45-2.06-2.52-2.94-3.83-2.28-2.35-3.2-3.61-2.07-2.5-3-3.72-1.18-3.26-2.14-4.44-2.27-2.45-3.22-3.57c-1.18-1.39-2-2.83-2.92-3.84a12,12,0,0,0-3.78-3c-.3-2.27.43-2.36.14-4.63s-1-2.19-1.25-4.46-.1-2.29-.39-4.57,0-2.31-.24-4.59.46-2.85-.84-4.74c-1.81-2.61-2.86-1.74-5.43-3.61"/><path class="cls-3" d="M363.93,1241.44c-1.79-1.58-1.55-1.85-3.34-3.43s-1.84-1.52-3.63-3.1-1.36-2.05-3.15-3.63-2.3-1-4.09-2.58-1.34-2.09-3.13-3.68-2.43-.89-3.67-2.93.28-1.76.77-4.65c.24-1.42.7-3.06.88-4.84.16-1.56-.29-3.25-.26-4.92s.52-3.32.35-4.92a22.72,22.72,0,0,0-1.42-4.7,11,11,0,0,0-2.58-4"/><path class="cls-3" d="M336.63,1206.53c-.41-2.16-.1-1.87-.57-4.37-.25-1.31.05-2.91-.23-4.43s-1-2.89-1.25-4.25c-.32-1.8-1.05-3.31-1.19-4.28a6.2,6.2,0,0,0-1.86-3.24,25.89,25.89,0,0,0-3-2.76c-1.81-1.44-.91-2.33-2.69-3.44"/><path class="cls-3" d="M324.17,1206.62c-.55-2.4.25-2.58-.3-5s-.37-2.45-.92-4.85a8,8,0,0,0-2-4.4c-1.88-2.57-2.5-1.71-5.07-3.57"/><path class="cls-3" d="M330.41,1201.37c-.6-2.16-1.12-2-1.72-4.17s-.37-2.22-1-4.38-.32-2.11-1.7-3.87c-2-2.5-2.27-2-4.84-3.82"/><path class="cls-3" d="M342.71,1222.07c-1.26-.27-1,.32-2.57.43a11.24,11.24,0,0,0-2.57,0c-.75.19-1.38.89-2.24,1.27a15.19,15.19,0,0,0-2.16,1.24c-.68.44-1.91.21-2.6.8s-1,1.44-1.57,2.11a22.48,22.48,0,0,0-1.89,1.8c-.48.66-.64,1.6-1.12,2.36s-.63,1.56-1,2.36"/><path class="cls-3" d="M344.48,1198.66c1.61-.68,1-1.1,3.13-1.48a22.07,22.07,0,0,1,3.46-.52,24.16,24.16,0,0,1,3.5.23,21,21,0,0,1,3.55.31,23.89,23.89,0,0,1,3.26,1.42,26.57,26.57,0,0,1,2.87,2.06,24.3,24.3,0,0,1,2.82,2.06,27.25,27.25,0,0,1,2.53,2.43,33.12,33.12,0,0,1,2.2,2.73c.65.91,1,2.06,1.63,3.11s.76,2.15,1.3,3.25,1.76,1.7,2.23,2.82.91,2.13,1.31,3.26"/><path class="cls-3" d="M351.4,1230.72c-1.18-.36-1,.23-2.49.3a8.6,8.6,0,0,0-2.46.06c-.71.2-1.26.93-2.06,1.36a14.23,14.23,0,0,0-2,1.36c-.6.48-1.84.33-2.45,1s-.74,1.49-1.27,2.19a24.53,24.53,0,0,0-1.62,1.91c-.41.67-.48,1.58-.88,2.36"/><path class="cls-3" d="M228.79,1077.76c0-1.76,0-1.76,0-3.53s.27-1.76.27-3.53"/><path class="cls-3" d="M235.06,1077.76c0-1.6-.05-1.6-.05-3.2s.62-1.61.62-3.22.63-1.6.63-3.21"/><path class="cls-3" d="M242.54,1077.76c0-1.52-.84-1.52-.84-3s.87-1.52.87-3,.11-1.53.11-3.06-.76-1.53-.76-3"/><path class="cls-9" d="M251.34,1129.12c-.72-.51-.57-.72-1.29-1.22s-.92-.22-1.64-.72-.53-.76-1.24-1.27-.89-.25-1.6-.75-.48-.86-1.19-1.36-.9-.24-1.62-.74-.58-.7-1.3-1.21-.77-.43-1.49-.93-.88-.27-1.6-.77-.4-1-1.12-1.46-1-.16-1.68-.67-.71-.51-1.43-1"/><path class="cls-9" d="M259.37,1124.18c-.59-.67-.66-.61-1.26-1.28s-.2-1-.8-1.69-.73-.55-1.33-1.22-.5-.75-1.1-1.43-.57-.69-1.17-1.36l-1.2-1.34c-.59-.67-.69-.59-1.28-1.26s-.48-.77-1.08-1.44-.93-.37-1.53-1-.65-.63-1.24-1.3-.22-1-.82-1.67-.63-.65-1.23-1.32-.61-.66-1.21-1.33-.85-.45-1.45-1.13-.67-.6-1.27-1.28-.5-.76-1.1-1.43"/><path class="cls-9" d="M266.87,1117.34c-.46-.75-.76-.57-1.22-1.32s-.48-.74-.94-1.5-.35-.81-.81-1.57-.59-.66-1-1.41-.13-1-.59-1.71-.69-.62-1.15-1.37-.3-.86-.76-1.61-.53-.71-1-1.47-.39-.79-.85-1.55-.68-.62-1.14-1.38-.6-.67-1.06-1.42-.45-.77-.91-1.52"/></g></g></g></g></svg>