<svg xmlns="http://www.w3.org/2000/svg" viewBox="0 0 996.98 719.89"><defs><style>.cls-1{fill:#8e9b91;}.cls-2{fill:#677d70;}.cls-3{font-size:33.73px;font-family:PTSerif-Italic, PT Serif;font-style:italic;}.cls-20,.cls-3{fill:#fff;}.cls-4{letter-spacing:-0.02em;}.cls-5{letter-spacing:0.02em;}.cls-6,.cls-8{letter-spacing:0em;}.cls-10,.cls-11,.cls-12,.cls-13,.cls-7,.cls-8,.cls-9{font-family:PTSerif-Regular, PT Serif;font-style:normal;}.cls-19,.cls-7{letter-spacing:-0.04em;}.cls-9{letter-spacing:-0.06em;}.cls-11{letter-spacing:-0.02em;}.cls-12{letter-spacing:0em;}.cls-13{letter-spacing:0.02em;}.cls-14{letter-spacing:-0.02em;}.cls-15{letter-spacing:0em;}.cls-16{letter-spacing:-0.01em;}.cls-17{letter-spacing:-0.04em;}.cls-18{letter-spacing:-0.04em;}.cls-21{fill:#e6b49d;}.cls-22,.cls-23,.cls-24{fill:none;stroke-linecap:round;stroke-linejoin:round;stroke-width:3.61px;}.cls-22{stroke:#000;}.cls-23{stroke:#fff;}.cls-24{stroke:#e6b49d;}</style></defs><g id="Layer_2" data-name="Layer 2"><g id="sect6"><g id="art"><path class="cls-1" d="M0,262.07c0-2.05,2.12-1,3.58-2.45s.85-2.05,2.31-3.5,1.59-1.31,3.05-2.75,1.51-1.39,3-2.83l2.92-2.9c1.46-1.45,1.72-1.18,3.18-2.63s1.51-1.39,3-2.83.86-2.05,2.32-3.5,1.5-1.4,3-2.85,1.93-1,3.38-2.41,1.35-1.56,2.81-3,.92-2,2.38-3.43,1.69-1.21,3.15-2.65,1.2-1.71,2.66-3.16,2.33-.57,3.79-2,1-1.88,2.48-3.32,1.1-1.82,2.55-3.26,2.24-.66,3.7-2.1.92-2,2.37-3.44,1.66-1.24,3.12-2.69,1.2-1.71,2.66-3.15,1.85-1.05,3.31-2.5,1.42-1.49,2.88-2.93,1.52-1.39,3-2.83,1.69-1.21,3.15-2.66,1.14-1.78,2.6-3.22,1-1.94,2.43-3.39,2.09-.81,3.55-2.26,1.42-1.48,2.88-2.93,1-1.92,2.45-3.37,2-.91,3.46-2.36,1-1.92,2.45-3.36,1.66-1.25,3.13-2.7.81-2.45,2.87-2.48,1.51,1,3.14,2.42,1.71,1.31,3.34,2.72,2.84.66,3,2.8-1.39,1.21-2.86,2.66-1.43,1.49-2.9,2.94-1.17,1.75-2.64,3.2-1.82,1.11-3.29,2.56-.87,2.06-2.34,3.51-2,.93-3.46,2.38-1.65,1.27-3.12,2.72-1.31,1.62-2.78,3.07-.83,2.1-2.3,3.55-2.22.7-3.69,2.15-1.22,1.7-2.69,3.15-1.76,1.17-3.23,2.62-.78,2.16-2.25,3.61-2.17.74-3.64,2.19-.64,2.3-2.11,3.76-2.44.46-3.91,1.91-1.24,1.69-2.71,3.15-1.1,1.82-2.57,3.27-1.78,1.13-3.25,2.58-.8,2.14-2.27,3.59-2.15.77-3.62,2.22-.83,2.09-2.3,3.55-2,.92-3.46,2.38-.94,2-2.42,3.44-1.76,1.16-3.23,2.61-2,.94-3.46,2.39-1.36,1.57-2.83,3-1.39,1.54-2.86,3-1.63,1.29-3.1,2.74-1.23,1.7-2.7,3.16-1.84,1.08-3.31,2.54-1.24,1.69-2.71,3.14-1.24,1.71-2.71,3.16-.91,2.18-3,2.17-1.13-1.14-2.62-2.61-1.72-1.23-3.51-2.34C1.07,264.06,0,264.18,0,262.07Z"/><path class="cls-2" d="M377.25,220.9c1.05-1.79,0-2,0-4s-.45-2.08-.45-4.15.7-2.07.7-4.14.4-2.07.4-4.13-.05-2.07-.05-4.14-1-2.07-1-4.14.46-2.06.46-4.13.9-2.07.9-4.14-1.28-2.07-1.28-4.14,0-2.07,0-4.14.51-2.07.51-4.14.71-2.07.71-4.14-.08-2.07-.08-4.14-.11-2.07-.11-4.14-.31-2.07-.31-4.14-.75-2.07-.75-4.14,1.16-2.07,1.16-4.14-.66-2.07-.66-4.14.14-2.07.14-4.14.23-2.07.23-4.14.14-2.07.14-4.14-.14-2.07-.14-4.14.41-2.08.41-4.15-1.22-2.07-1.22-4.14.37-2.07.37-4.14-.39-2.07-.39-4.14.75-2.07.75-4.15-.76-2.07-.76-4.14.77-2.07.77-4.14-.61-2.07-.61-4.14,1-2.08,1-4.15-.65-2.07-.65-4.14-.27-2.07-.27-4.15,0-2.07,0-4.14.68-2.07.68-4.14S377.3,74,377.3,72s-.54-2.07-.54-4.14,1.31-2.08,1.31-4.15-.29-2.07-.29-4.14-.44-2.07-.44-4.14.45-2.08.45-4.15-.76-2.07-.76-4.15-.16-2.07-.16-4.14,1.24-2.08,1.24-4.15-.47-2.07-.47-4.14.4-2.08.4-4.15-.25-2.07-.25-4.15-.54-2.07-.54-4.15,0-2.08,0-4.15A17,17,0,0,1,378,14.2a16.68,16.68,0,0,1,1.68-3.45,16.65,16.65,0,0,1,1.87-3.29,16.69,16.69,0,0,1,2.7-2.68,15.61,15.61,0,0,1,6.73-3.58,17.57,17.57,0,0,1,3.85-.6c2.08,0,2.08.06,4.17.06s2.08.52,4.16.52S405.2,1,407.28,1s2.09-.92,4.17-.92,2.09,1,4.17,1,2.09-.86,4.18-.86,2.08.86,4.17.86,2.08-.84,4.17-.84,2.08.22,4.17.22,2.08-.22,4.17-.22,2.08-.14,4.17-.14,2.08,1.12,4.17,1.12S446.9.71,449,.71,451.07.1,453.16.1s2.08.59,4.16.59,2.09.16,4.17.16,2.08.33,4.17.33,2.08-.85,4.17-.85S471.91,0,474,0s2.09.16,4.17.16,2.09.18,4.17.18,2.09-.28,4.17-.28,2.09.38,4.17.38,2.09,1,4.17,1S496.93.19,499,.19s2.08-.12,4.17-.12,2.09.86,4.17.86,2.09.23,4.17.23,2.09.27,4.17.27,2.09-.61,4.17-.61S522,1.1,524,1.1s2.09.16,4.17.16S530.29.05,532.38.05s2.08,1.37,4.17,1.37S538.63.14,540.72.14s2.08.21,4.17.21,2.08.07,4.17.07,2.08.45,4.17.45,2.08-.62,4.17-.62,2.09,1,4.17,1S563.66.9,565.75.9s2.08-.26,4.17-.26,2.08.44,4.17.44,2.09,0,4.17,0,2.08-1,4.17-1,2.08.91,4.17.91,2.08-.1,4.17-.1,2.09.5,4.17.5S597,.15,599.11.15s2.09.28,4.17.28,2.09.45,4.18.45,2.08-.11,4.17-.11,2.09-.41,4.17-.41S617.89.7,620,.7s2.09.27,4.18.27,2.08-.36,4.17-.36,2.08,0,4.17,0,2.08.19,4.17.19,2.08,0,4.17,0S642.92.57,645,.57s2.09.09,4.18.09,2.08.31,4.17.31,2.09-.8,4.17-.8,2.09.89,4.17.89S663.78,1,665.87,1,668,.57,670,.57s2.08.11,4.17.11S676.3.4,678.38.4s2.09,0,4.17,0,2.09-.2,4.18-.2,2.08.33,4.17.33S693,.24,695.07.24s2.09.78,4.18.78,2.08,0,4.17,0,2.08-1,4.17-1,2.09.68,4.17.68,2.09.39,4.18.39,2.08,0,4.17,0,2.09-1,4.17-1,2.09.71,4.18.71,2.08-.81,4.17-.81,2.09,1.25,4.17,1.25,2.09-.08,4.18-.08,2.08-.6,4.17-.6h4.17c2.09,0,2.09-.09,4.18-.09s2.08-.31,4.17-.31,2.09.87,4.17.87S763.93.31,766,.31s2.08,1.08,4.17,1.08,2.09-.22,4.17-.22,2.09-1,4.18-1,2.09.32,4.17.32,2.09.74,4.18.74S789,.06,791.06.06s2.08,1.18,4.16,1.18,2.09-.15,4.17-.15,2.09-.78,4.17-.78,2.09,1.12,4.17,1.12,2.09-.07,4.18-.07,2.08-1,4.17-1,2.09.32,4.17.32,2.09.5,4.17.5,2.09-.39,4.17-.39,2.09.67,4.18.67S834.86.25,836.94.25s2.09,1.12,4.18,1.12h4.17c2.09,0,2.09-1.35,4.17-1.35s2.09.5,4.18.5,2.08.75,4.17.75S859.9.2,862,.2s2.08.94,4.17.94,2.09.13,4.17.13S872.42.16,874.51.16s2.09,0,4.17,0,2.09.92,4.18.92S885,1,887,1,889.12.1,891.21.1s2.09.87,4.18.87,2.08-.56,4.17-.56,2.09.47,4.18.47,2.09.56,4.17.56,2.09-.37,4.18-.37,2.09-.94,4.18-.94,2.09,1.29,4.18,1.29,2.08,0,4.17,0S926.71,1,928.79,1,930.88.35,933,.35s2.09,1,4.18,1,2.08-1,4.17-1,2.09-.28,4.18-.28,2.09.72,4.18.72,2.09.28,4.18.28S956,.86,958,.86s2.09.38,4.18.38,2.08-.49,4.17-.49,2.1-.4,4.19-.4,2.09.77,4.18.77,2.09,0,4.19,0c1.32,0,2.7-.6,3.94-.31a18.48,18.48,0,0,1,3.88,1c1.17.57,1.66,2.28,2.67,3.08a16.45,16.45,0,0,1,2.69,2.65c.8,1,2.18,1.66,2.74,2.84A17.55,17.55,0,0,1,996,14.16a17.85,17.85,0,0,1,.62,3.89c0,2.08.34,2.08.34,4.16s-.59,2.08-.59,4.17.37,2.08.37,4.16S996,32.62,996,34.7s.36,2.08.36,4.16.52,2.08.52,4.16-.1,2.08-.1,4.16-.18,2.08-.18,4.16.34,2.08.34,4.16-.39,2.09-.39,4.17-.54,2.08-.54,4.16.59,2.08.59,4.16,0,2.08,0,4.16-.94,2.08-.94,4.16.66,2.09.66,4.17v4.17c0,2.08-.35,2.08-.35,4.16s.65,2.08.65,4.16-.29,2.08-.29,4.17.51,2.08.51,4.16-1,2.08-1,4.17.94,2.08.94,4.16-.91,2.08-.91,4.17.51,2.08.51,4.16-.55,2.08-.55,4.17.87,2.08.87,4.16-.3,2.09-.3,4.17-.69,2.08-.69,4.16.53,2.09.53,4.17.64,2.09.64,4.17-1.36,2.08-1.36,4.16.48,2.09.48,4.17,0,2.08,0,4.17-.34,2.08-.34,4.16.43,2.09.43,4.17.6,2.08.6,4.16-1,2.09-1,4.17.22,2.08.22,4.16.3,2.09.3,4.17.51,2.08.51,4.17-1,2.08-1,4.16.1,2.09.1,4.17.58,2.09.58,4.17.16,2.09.16,4.17.1,2.09.1,4.17,0,2.09,0,4.17-1,2.09-1,4.17,1.22,2.09,1.22,4.18-1,2.08-1,4.17c0,1.33.69,2.72.41,4a17.37,17.37,0,0,1-1.72,3.55,17.63,17.63,0,0,1-8,8.33c-1.15.56-2.6.27-3.88.56S980.27,240,979,240c-2.08,0-2.08-1.25-4.15-1.25s-2.07.25-4.15.25-2.07-.07-4.14-.07-2.08.13-4.15.13-2.08.28-4.15.28-2.08.12-4.15.12-2.08,0-4.15,0-2.08.63-4.15.63-2.08-.73-4.15-.73-2.08-.23-4.15-.23-2.08.54-4.15.54-2.08-.65-4.15-.65-2.07.58-4.15.58-2.07.49-4.14.49-2.08.1-4.15.1-2.07-1-4.15-1-2.07.62-4.14.62-2.08-.58-4.15-.58-2.07.26-4.15.26-2.07.21-4.15.21-2.07-.58-4.14-.58-2.08.54-4.15.54-2.08-.73-4.15-.73-2.08,1-4.15,1-2.08-.52-4.16-.52-2.07-.27-4.15-.27-2.07-.27-4.15-.27-2.07-.13-4.15-.13-2.07.73-4.15.73-2.07.18-4.14.18-2.08.47-4.15.47-2.08-1-4.15-1-2.07.42-4.15.42-2.07.15-4.15.15-2.07-.56-4.14-.56-2.08.46-4.15.46-2.08.43-4.15.43-2.08-.78-4.15-.78-2.08.64-4.16.64-2.07-.89-4.15-.89-2.07.43-4.15.43-2.08-.49-4.15-.49-2.07,0-4.15,0-2.07.15-4.15.15-2.07.85-4.15.85-2.07-.93-4.15-.93-2.07.65-4.15.65-2.07-.11-4.15-.11-2.07.19-4.15.19-2.07.16-4.15.16-2.07.07-4.15.07-2.07-.84-4.15-.84-2.08.07-4.15.07-2.08.64-4.15.64-2.08.08-4.15.08-2.08-.1-4.15-.1-2.08.17-4.15.17-2.08-.14-4.15-.14-2.08-.2-4.15-.2-2.08-.52-4.15-.52-2.08.51-4.16.51-2.07.27-4.15.27-2.08.07-4.15.07-2.08-.41-4.15-.41-2.08.32-4.15.32-2.08.19-4.15.19-2.08.08-4.15.08-2.08-.63-4.16-.63-2.07-.27-4.15-.27-2.07.61-4.15.61-2.08-.44-4.15-.44-2.08,0-4.15,0-2.08.51-4.16.51-2.07-.11-4.15-.11h-4.15c-2.07,0-2.07.18-4.15.18s-2.08-.87-4.15-.87-2.08.76-4.15.76-2.08-.51-4.16-.51-2.07.31-4.15.31-2.07.24-4.15.24-2.08-1-4.15-1-2.08.7-4.16.7-2.07-.47-4.15-.47-2.07.39-4.15.39-2.08,0-4.15,0-2.08.56-4.15.56-2.08-.28-4.16-.28-2.07-1-4.15-1-2.08.72-4.15.72-2.08-.12-4.16-.12-2.07-.44-4.15-.44-2.07,1.19-4.15,1.19-2.08-.69-4.15-.69-2.08.2-4.15.2-2.08-.89-4.15-.89-2.07.58-4.15.58-2.07-.19-4.15-.19-2.07-.07-4.15-.07h-4.15c-2.08,0-2.08.42-4.15.42s-2.08-.44-4.15-.44-2.08.44-4.15.44-2.08-.14-4.15-.14h-4.15c-2.08,0-2.08.33-4.16.33s-2.07-.44-4.15-.44-2.08.78-4.15.78-2.08-.44-4.15-.44-2.08.07-4.16.07-2.07.5-4.15.5-2.08-1.31-4.16-1.31-2.07,1-4.15,1-2.07-.41-4.15-.41-2.08.5-4.16.5-2.07-.61-4.15-.61-2.08.69-4.15.69-2.08-.51-4.16-.51-2.08.37-4.15.37-2.08-.82-4.16-.82-2.07.49-4.15.49-2.08.18-4.16.18-2.08-.84-4.15-.84-2.08.61-4.16.61-2.08-.71-4.15-.71-2.08.36-4.16.36-2.08.67-4.15.67-2.08-.49-4.16-.49-2.07-.43-4.15-.43-2.08,1.17-4.16,1.17-2.07-1-4.15-1-2.08-.39-4.16-.39-2.08.92-4.16.92-2.08-.16-4.15-.16-2.08.33-4.16.33-2.08-.39-4.16-.39-2.08-.08-4.16-.08-2.08,0-4.16,0S404,239,401.89,239s-2.09.21-4.17.21c-1.47,0-1.47-.38-2.94-.38H390.6c-2.09,0-2.09.87-4.19.87s-2.09.47-4.18.47-2.09-1-4.18-1-2.1-.32-4.19-.32-2.09,1.27-4.19,1.27-2.09-.57-4.18-.57-2.1.41-4.19.41-2.09,0-4.18,0-2.1-.25-4.19-.25-2.1-.26-4.19-.26-4.33,2.23-4.87.2,2.74-.77,4.57-1.79,1.69-1.27,3.52-2.3,1.78-1.1,3.61-2.13S357.16,232,359,231s2.26-.26,4.09-1.28,1.64-1.36,3.46-2.39,2-.73,3.83-1.75,1.46-1.73,3.41-2.51S376.18,222.7,377.25,220.9Z"/><text class="cls-3" transform="translate(651.94 51.15)"><tspan class="cls-4">T</tspan><tspan x="20" y="0">rue</tspan><tspan class="cls-5" x="66.59" y="0">.</tspan><tspan class="cls-6" x="76.54" y="0">.</tspan><tspan class="cls-7" x="85.68" y="0">.</tspan><tspan class="cls-8" x="93.74" y="0"> </tspan><tspan class="cls-9" x="101.94" y="0">W</tspan><tspan class="cls-10" x="131.25" y="0">e had a </tspan><tspan class="cls-11" x="245.4" y="0">v</tspan><tspan class="cls-12" x="261.89" y="0">e</tspan><tspan class="cls-13" x="278.86" y="0">r</tspan><tspan class="cls-12" x="292.39" y="0">y </tspan><tspan class="cls-10"><tspan x="-227.99" y="49.47">dif</tspan><tspan class="cls-14" x="-187.58" y="49.47">f</tspan><tspan x="-176.65" y="49.47">erent pi</tspan><tspan class="cls-15" x="-59.77" y="49.47">c</tspan><tspan x="-44.09" y="49.47">ture of our </tspan><tspan class="cls-16" x="123.46" y="49.47">w</tspan><tspan x="147.61" y="49.47">edding da</tspan><tspan class="cls-17" x="293.9" y="49.47">y</tspan><tspan class="cls-18" x="309.56" y="49.47">.</tspan><tspan x="-202.69" y="98.95">When the pandemic hit</tspan><tspan class="cls-19" x="148.79" y="98.95">,</tspan><tspan x="156.99" y="98.95"> </tspan><tspan class="cls-16" x="165.18" y="98.95">w</tspan><tspan x="189.34" y="98.95">e had to </tspan><tspan x="16.56" y="148.42">gi</tspan><tspan class="cls-14" x="44.46" y="148.42">v</tspan><tspan x="60.95" y="148.42">e that pi</tspan><tspan class="cls-15" x="185.42" y="148.42">c</tspan><tspan class="cls-6" x="201.11" y="148.42">ture up</tspan><tspan class="cls-19" x="309.55" y="148.42">.</tspan></tspan></text><path class="cls-20" d="M374.23,180.17c2.06.52,1,2.45,2,4.35s.61,2.07,1.56,4,.74,2,1.69,3.91,1.21,1.77,2.16,3.67.8,2,1.75,3.88.59,2.08,1.54,4,1.26,1.75,2.21,3.65,1.15,1.8,2.11,3.7c0,0,1.5.43,3.89,1.36,1.08.41,2.13,1.41,3.55,2,1.14.51,2.38,1,3.69,1.67,1.15.57,2.84.3,4.08,1s2.34,1.34,3.53,2.08,2.14,1.69,3.28,2.48,2,1.85,3.08,2.7,1.8,2,2.83,2.94,2.82.95,3.79,1.92,1,2.74,1.93,3.77,2,1.82,2.83,2.92,2.16,1.83,2.88,3,.6,2.77,1.21,4,1.48,2.29,2,3.57.47,2.67,1,4.09c.44,1.23,1.22,2.43,1.69,3.83s.74,2.62,1.2,4,.64,2.66,1.08,4,1.71,2.34,2.14,3.7.73,2.66,1.15,4,.2,2.82.61,4.17,1.05,2.57,1.46,3.92,1.23,2.51,1.63,3.87.9,2.61,1.3,4,.51,2.74.91,4.09.14,2.84.53,4.19,1.29,2.52,1.68,3.86,1,2.6,1.39,3.95.23,2.82.61,4.17.63,2.71,1,4.05,1,2.61,1.36,4,1,2.62,1.35,4,.8,2.67,1.17,4,.78,2.67,1.15,4,.85,2.66,1.22,4,.45,2.77.82,4.11,1.34,2.52,1.71,3.86-.53,3-.16,4.38,1.53,2.48,1.9,3.81.08,2.88.45,4.22.61,2.73,1,4.06,1.77,2.42,2.13,3.76-.29,3,.07,4.31.87,2.67,1.23,4,.9,2.66,1.25,4,1.19,2.59,1.54,3.92,1.17,2.6,1.52,3.92-.08,2.93.27,4.25.56,2.77.91,4.08,1,2.65,1.39,4,.26,2.86.6,4.15,1.93,2.44,2.27,3.72-.51,3.11-.18,4.37c.38,1.46,1.1,2.72,1.42,3.94.41,1.56,1.39,2.74,1.69,3.88.68,2.6,2.57,3.36.62,4.09s-2.08.34-4.19.34-2.1-.16-4.2-.16-2.1-.26-4.2-.26-2.1.7-4.2.7-2.11-.47-4.21-.47-2.1.26-4.21.26-2.1-.3-4.2-.3-2.1-.41-4.2-.41-2.11.74-4.21.74-2.1-.84-4.21-.84-2.1.38-4.2.38-2.11-.28-4.21-.28-2.1,0-4.2,0-2.11.22-4.21.22-2.1-.33-4.21-.33-2.1.14-4.21.14-2.1.27-4.2.27-2.11-.49-4.21-.49-2.1.29-4.21.29-2.1.44-4.2.44-2.1-.34-4.21-.34-2.1-.55-4.2-.55-2.11,1.33-4.21,1.33-2.1-.86-4.21-.86-2.1.1-4.2.1-2.11-.11-4.21-.11-2.11-.43-4.21-.43-2.11,1.2-4.21,1.2-2.11.09-4.21.09-2.11-.75-4.21-.75-2.1-.35-4.21-.35-2.11-.27-4.21-.27l-4.22,0c-2.11,0-3.07,2.56-4.61,1.12s.64-2.55.51-4.64.08-2.12-.05-4.22-.26-2.09-.39-4.19-1.25-2-1.38-4.13,1-2.16.89-4.26-.18-2.1-.31-4.2-.54-2.07-.67-4.17,0-2.11-.15-4.21-.66-2.06-.79-4.16-.41-2.09-.54-4.19,1.15-2.18,1-4.28-1.14-2-1.27-4.13.55-2.14.42-4.24.19-2.12.05-4.23-.57-2.07-.7-4.17-.11-2.1-.25-4.2-.74-2.06-.87-4.16,1-2.17.83-4.27-.19-2.1-.32-4.2-.55-2.07-.68-4.17.22-2.13.09-4.23-1.3-2-1.43-4.13-.1-2.09-.24-4.19-.08-2.11-.21-4.21.34-2.13.21-4.23.3-2.12.17-4.23-.83-2.05-1-4.15.6-2.15.47-4.25-1-2.05-1.12-4.15.79-2.16.66-4.26-.84-2.06-1-4.16.55-2.15.42-4.25-.79-2.06-.92-4.16.08-2.12-.05-4.22-.5-2.08-.64-4.19-.56-2.22.05-4.24,1.4-1.43,2.63-3,1.07-1.67,2.31-3.22,1.73-1.14,3-2.68.69-2,1.93-3.51,1.76-1.12,3-2.66,1-1.75,2.21-3.29.7-2,1.94-3.52,3.12-.76,3.39-2.72-1.32-1.89-2.09-3.7-.58-1.89-1.35-3.7-1.18-1.63-2-3.44-.32-2-1.08-3.81-.34-2-1.11-3.8-2-1.29-2.74-3.1-.84-1.78-1.61-3.59-1.24-1.95-.71-3.84,1.16-1.65,2.8-2.89,1.52-1.38,3.15-2.61,2-.68,3.69-1.92,1.41-1.53,3-2.76,1.72-1.13,3.36-2.36,1.45-1.48,3.09-2.71,1.79-1,3.42-2.26,1.83-1,3.46-2.22,1.88-.91,3.52-2.15,1.62-1.25,3.25-2.49a10.41,10.41,0,0,0,2.92-2.92C372.26,181.29,372.24,179.66,374.23,180.17Z"/><path class="cls-21" d="M150.42,321.84c-1.43,1.55-2.3-.53-4.41-.53s-2.11.35-4.23.35-2.11-.44-4.22-.44-2.11,0-4.22,0-2.11-.14-4.22-.14-2.11.6-4.22.6-2.11,0-4.22,0-2.12-.54-4.23-.54-2.11.69-4.21.69S110.12,321,108,321s-2.11,1.13-4.22,1.13-2.11-.78-4.22-.78-2.11,1-4.22,1-2.11-1.29-4.22-1.29S89,321,86.9,321s-2.11,1-4.22,1-2.12.15-4.23.15-2.11-.06-4.22-.06H70c-2.11,0-2.11-.57-4.22-.57s-2.12-.35-4.24-.35-3,2.26-4.54.79.34-2.36.34-4.4.14-2,.14-4.08-.06-2-.06-4.08.06-2.05.06-4.09-.47-2-.47-4.07-.24-2-.24-4.08.94-2,.94-4.08S57,291.05,57,289s-.29-2-.29-4.08.37-2,.37-4.08.37-2,.37-4.09.4-2,.4-4.08-.39-2-.39-4.09-.14-2-.14-4.08-.64-2-.64-4.08.81-2.05.81-4.09-.78-2-.78-4.09-1-2.87.46-4.29,2.3-.07,4.41-.07,2.11.21,4.23.21,2.11.35,4.22.35,2.11-.38,4.22-.38,2.11.13,4.22.13,2.11.38,4.22.38,2.11-.47,4.23-.47,2.11.45,4.22.45,2.11.14,4.22.14,2.11-.72,4.22-.72,2.11.86,4.22.86,2.11-.94,4.22-.94,2.11-.33,4.22-.33,2.11.67,4.22.67,2.12.12,4.23.12,2.11.49,4.22.49,2.12-.57,4.23-.57,2.11-.17,4.22-.17,2.12.77,4.23.77,2.11-1.43,4.23-1.43,2.11.35,4.23.35,3.14-1.59,4.71-.17c1.42,1.28-1.18,2.44-1.18,4.35s.51,1.91.51,3.82.27,1.92.27,3.83.71,2.08-.22,3.75c-1.08,1.94-1.63,1.43-3.42,2.74s-1.84,1.25-3.63,2.56-1.42,1.83-3.21,3.14-2.13.86-3.93,2.17-3.16.38-3.85,2.49.88,2,1.62,4,1.12,1.78,1.86,3.7,1,1.85,1.71,3.77,0,2.21.76,4.14.54,2,1.29,3.93,0,3,1.75,4c2,1.12,2.44-.55,4.69-.76s3.3-2.45,5-.92-1,2.79-1,5.07-.15,2.28-.15,4.56.51,2.28.51,4.56-1.07,2.5-.56,4.73C150.09,319.71,152,320.16,150.42,321.84Z"/><path class="cls-20" d="M283.4,100A18,18,0,0,1,286,96.79c.8-.84,1.76-1.8,2.92-2.86.92-.85,1.5-2.3,2.66-3.22,1-.81,2.61-1,3.79-1.8s2-1.8,3.23-2.55,2.63-.78,3.88-1.45,2.18-1.6,3.46-2.19,2.16-1.85,3.47-2.37,2.66-.65,4-1.08,2.67-.56,4-.92,2.67-.47,4-.75,2.61-.78,4-1,2.75.2,4.14.06,2.66-.47,4.06-.54,2.7,0,4.1,0,2.82-.89,4.17-.84,2.74,1.13,4.09,1.24,2.76.29,4.1.47,2.74.41,4.07.67,3-.47,4.29-.12,2.73.82,4,1.28,2.49,1.37,3.73,1.94,2.62,1,3.8,1.73,2.54,1.28,3.66,2.08,1.55,2.5,2.6,3.42,1.89,1.94,2.86,2.94,2.4,1.53,3.3,2.61,1.33,2.42,2.16,3.56,1.88,2,2.65,3.21,1.65,2.22,2.36,3.44,1.68,2.21,2.35,3.46.94,2.61,1.57,3.88,1.51,2.42,2,3.69.23,2.91.67,4.21,1.22,2.55,1.56,3.89.2,2.81.44,4.16.36,2.75.5,4.12,0,2.76,0,4.14.21,2.75.16,4.13-.08,2.76-.23,4.14-.61,2.69-.85,4-.11,2.8-.44,4.14-.58,2.72-1,4-.79,2.68-1.29,4-.95,2.63-1.53,3.88-1.36,2.44-2,3.65-1.81,2.16-2.55,3.31-1.3,2.47-2.12,3.57-1.05,2.78-1.95,3.8-2.59,1.42-3.6,2.44-1.3,2.69-2.34,3.66-2.47,1.48-3.54,2.41-2.35,1.59-3.44,2.48-2.07,1.94-3.18,2.8-2.58,1.27-3.71,2.1-2.06,2-3.2,2.78-2.09,2-3.23,2.77-2.52,1.39-3.66,2.14-2.13,2-3.26,2.75c-1.29.81-2.53,1.52-3.64,2.19-1.37.83-3.18.57-4.22,1.17-2.3,1.33-1.67,1.32-3.51,2.36s-1.44.77-3.74,2c-1.09.56-2,1.9-3.46,2.58-1.21.57-2.86.37-4.23.95s-2.21,2-3.56,2.54-3,0-4.37.36-2.53,1.77-3.88,2a29.71,29.71,0,0,1-4.3.62c-1.52.06-2.93-.83-4.2-1.15a6.83,6.83,0,0,1-3.29-2.28,22.05,22.05,0,0,1-2.73-3.1c-.73-1.08-2.06-1.91-2.78-3.25-.62-1.16-1.31-2.41-1.93-3.77s-.67-2.7-1.21-4.07-.47-2.75-1-4.13-1.57-2.38-2-3.77-1-2.61-1.34-4,.2-2.92-.15-4.32-1-2.59-1.35-4-.6-2.71-.89-4.11-.59-2.72-.85-4.12-1-2.65-1.26-4.06,0-2.83-.21-4.24-.07-2.8-.26-4.21-.75-2.72-.92-4.14-1.14-2.68-1.29-4.1,0-2.82-.12-4.24.64-2.86.53-4.28-1.19-2.77-1.3-4.13,1-2.95.85-4.3-.9-2.81-1-4.15-.24-2.87-.36-4.2-.34-2.87-.45-4.2c-.13-1.49,0-2.91-.12-4.22-.13-1.51-.91-2.85-1-4.14-.13-1.55-.1-3-.2-4.21-.12-1.62.25-3,.19-4.24a40,40,0,0,1-.09-4.2A6.09,6.09,0,0,1,283.4,100Z"/><path class="cls-1" d="M166.63,347.56c-1.35-1.59-1.54-.26-3.62-.26s-2.09-.3-4.17-.3-2.09.46-4.17.46-2.09-.77-4.17-.77-2.09.62-4.17.62-2.09-.28-4.18-.28-2.08.22-4.17.22-2.08.09-4.17.09-2.09-.25-4.17-.25-2.09.23-4.17.23-2.09.16-4.18.16-2.08-1-4.17-1-2.09.36-4.17.36-2.09-.32-4.17-.32-2.09.41-4.18.41-2.08.23-4.17.23-2.09-.4-4.17-.4-2.09.49-4.18.49-2.08-.44-4.17-.44-2.08.29-4.17.29-2.08-.24-4.17-.24-2.09.13-4.17.13-2.09-.17-4.18-.17-2.08.19-4.17.19-2.09-.2-4.18-.2-2.08.33-4.17.33-2.09.42-4.18.42-2.09-1-4.17-1-2.09,1.3-4.18,1.3-2.09-1-4.18-1-2.09.6-4.18.6-2.92-1.94-4.27-.34.42,2.13.78,4.19.16,2.09.52,4.15,1.2,1.91,1.56,4,.3,2.07.66,4.13-.7,2.25-.34,4.3.16,2.1.52,4.16.73,2,1.09,4.05.12,2.1.47,4.16.25,2.08.61,4.14.61,2,1,4.08,1.21,1.91,1.57,4,.16,2.09.52,4.15.42,2.06.78,4.12-.29,2.17.07,4.23.91,2,1.27,4,0,2.12.4,4.18.08,2.11.44,4.17.86,2,1.22,4,.37,2.06.73,4.12.13,2.1.49,4.16,1,1.95,1.36,4-.18,2.16.18,4.22,1,1.95,1.31,4-.55,2.22-.19,4.29.82,2,1.18,4-.21,2.16.14,4.22.41,2.06.77,4.11,1.38,1.89,1.74,4,.35,2.06.71,4.12-.63,2.24-.27,4.3.74,2,1.1,4.06.7,2,1.06,4.06-.62,2.23-.26,4.29.94,2,1.3,4,.08,2.11.44,4.17,1,1.95,1.35,4,.67,2,1,4.08-1.24,2.61.38,3.95,1.89-.42,4-.42,2.13.24,4.25.24,2.13,1,4.25,1,2.13-.63,4.25-.63,2.13-.27,4.25-.27,2.13.32,4.25.32,2.12.11,4.25.11,2.12-.12,4.25-.12,2.12.57,4.25.57,2.12-1.11,4.25-1.11,2.12.6,4.25.6,2.13.41,4.25.41,2.13-.27,4.26-.27,2.12-.62,4.25-.62,2.12.12,4.25.12,2.13.76,4.25.76,2.13.29,4.26.29,2.13-1.1,4.26-1.1,2.77,1.95,4.4.58-.29-2.3,0-4.36.65-2,1-4.07.67-2,1-4.06,0-2.12.31-4.18.86-2,1.19-4,.41-2.05.74-4.11.19-2.08.53-4.14.57-2,.9-4.08-.42-2.18-.08-4.24-.05-2.13.28-4.19.4-2,.74-4.1.38-2.05.72-4.11,1.19-1.93,1.52-4l.68-4.11c.33-2.06-.42-2.19-.09-4.25s.82-2,1.15-4,.51-2,.84-4.09.11-2.1.45-4.16.82-2,1.16-4,0-2.12.28-4.18-.2-2.15.14-4.21,1.28-1.91,1.61-4-.62-2.22-.28-4.28.43-2,.77-4.11,0-2.1.37-4.16,1-1.94,1.38-4,.06-2.1.4-4.16-.15-2.14.19-4.2.37-2.05.7-4.11.47-2,.81-4.1.4-2,.74-4.12.83-2,1.16-4,1-2,1.31-4-.77-2.24-.43-4.3,0-2.11.37-4.17,1-2,1.36-4,0-2.14.72-4.11S168,349.16,166.63,347.56Z"/><path class="cls-21" d="M216.66,454.2c-.86-1.84.3-2,1.06-3.85s1.18-1.72,1.94-3.6.59-1.95,1.35-3.84.85-1.84,1.61-3.73,1.24-1.69,2-3.57.94-1.81,1.71-3.7.41-2,1.17-3.91.89-1.83,1.65-3.71,1-1.8,1.75-3.68.47-2,1.23-3.89.1-2.15.86-4,1.56-1.56,2.33-3.45-.85-3.3,1-4.09,2,1,4,1.77,2,.82,3.95,1.56,2.32-.15,4.3.59,1.79,1.27,3.78,2,2.15.29,4.13,1,1.9,1,3.88,1.73,1.92.92,3.9,1.66,2,.6,4,1.34,1.69,1.52,3.68,2.26,2.13.35,4.12,1.09,2,.66,4,1.4,1.77,1.33,3.76,2.08,2.29-.09,4.28.66,1.85,1.11,3.83,1.85,2.28,0,4.27.71,1.52,2,3.51,2.71,2.43-.42,4.42.32,2.79.18,3.69,2.11-.52,1.92-1.29,3.8-.83,1.85-1.6,3.73-.91,1.83-1.68,3.71-.63,1.93-1.4,3.82-1.26,1.68-2,3.56-.5,2-1.27,3.87,0,2.19-.78,4.08-1.79,1.46-2.56,3.35,0,2.19-.77,4.07-.44,2-1.2,3.9-.93,1.82-1.7,3.7-1.71,1.51-2.48,3.39.94,3.5-.94,4.28-2.32-.52-4.31-1.26-1.87-1-3.86-1.77-1.73-1.43-3.71-2.17-2.24-.06-4.22-.8-1.74-1.39-3.72-2.13-2.16-.27-4.15-1-1.94-.85-3.92-1.59-2.21-.16-4.19-.9-1.9-1-3.89-1.71-1.72-1.43-3.71-2.17-2.11-.4-4.09-1.14-1.91-.95-3.9-1.69-2.13-.36-4.11-1.1-1.89-1-3.88-1.74-2-.71-4-1.45-2.09-.48-4.07-1.22-1.78-1.52-3.88-1.85S217.56,456.12,216.66,454.2Z"/><path class="cls-21" d="M286.87,330.61c1.69-1.2,1.14-1,3.28-2.54,1-.68,2.15-1.39,3.43-2.32,1-.74,2.17-1.53,3.38-2.41,1.05-.76,2.43-1.22,3.61-2.07s2.06-1.78,3.22-2.62,1.89-2,3-2.86,2-1.91,3.13-2.73,2.4-1.36,3.54-2.18,2-1.89,3.16-2.71,2.73-.91,3.86-1.73,2.44-1.33,3.56-2.14,2.19-1.7,3.31-2.51,1.54-2.6,2.66-3.41,2.4-1.41,3.52-2.21,2.87-.76,4-1.56,2-2,3.11-2.78,2.22-1.69,3.33-2.48,2.15-1.79,3.26-2.58,2.71-1,3.81-1.8,1.51-2.72,2.6-3.5,2.39-1.49,3.48-2.27,2.45-1.44,3.52-2.2,2.63-1.25,3.67-2c1.26-.89,2.33-1.78,3.32-2.47,1.23-.85,2.27-1.88,3.4-2.68s2.62-1.41,3.74-2.21,1.85-2.47,3-3.27,2.7-1.31,3.82-2.08,2.34-1.87,3.48-2.59c1.31-.83,2.68-1.37,3.86-2a23.8,23.8,0,0,1,4-1.78,13.47,13.47,0,0,1,4.33-.18,12.9,12.9,0,0,1,4.34.34,12.46,12.46,0,0,1,3.68,2.25,12.26,12.26,0,0,1,2.5,3.46,14.93,14.93,0,0,1,1.09,4,18.36,18.36,0,0,1,.33,4.12c0,1.35.66,2.83.4,4.28s-1.64,2.4-2.11,3.79a32.68,32.68,0,0,1-1.51,3.86,39.33,39.33,0,0,1-1.91,3.69c-.72,1.17-1,2.63-1.91,3.79s-2.22,1.73-3.18,2.81-1.3,2.58-2.34,3.58-1.78,2.22-2.89,3.13-2.53,1.32-3.7,2.17-1.88,2.23-3.1,3-2.64,1.14-3.83,1.88-2.25,1.76-3.45,2.49-2.52,1.33-3.72,2.05-2.81.83-4,1.55-2.11,2-3.33,2.7-2.78.84-4,1.53-2.1,2-3.34,2.72-2.46,1.39-3.7,2.06-2.52,1.3-3.77,1.95-2.54,1.26-3.8,1.9-2.38,1.58-3.65,2.2-2.79.71-4.07,1.31-2.9.44-4.19,1-2.15,2.12-3.46,2.68-2.51,1.32-3.83,1.85-3,0-4.34.54-2.55,1.21-3.88,1.69-2.43,1.58-3.78,2-2.86.34-4.21.78-2.57,1.22-3.93,1.63-2.93,0-4.31.38-2.58,1.21-4,1.57-2.88.81-4.21,1.06c-1.54.3-2.95.75-4.27.88-1.6.15-3.05-.39-4.33-.45-1.69-.09-3.21.26-4.37-.14a7.29,7.29,0,0,1-3.72-2.51,5.94,5.94,0,0,1-.79-4.59,12.15,12.15,0,0,1,2.6-3.74C284.13,332.11,285.58,331.52,286.87,330.61Z"/><path class="cls-21" d="M306.32,698.32c2-.75,1.52-.53,4-1.6,1.11-.49,2.64-.61,4.11-1.26,1.22-.53,2.3-1.63,3.7-2.24,1.25-.55,2.49-1.29,3.85-1.88s2.89-.43,4.23-1,2-2.44,3.34-3,2.76-.84,4.06-1.41,2.48-1.49,3.77-2.06,3.22.13,4.5-.43,2.45-1.65,3.71-2.2,2.58-1.45,3.8-2c1.45-.65,2.86-1,4-1.54,1.75-.79,3-1.59,3.8-2a15,15,0,0,1,3.54-1.21c1.36-.29,2.78-.85,3.91-.44s1.89,1.63,2.86,2.69a21.85,21.85,0,0,1,2,3.2c.58,1,1.28,2,1.88,3.23s1.57,2.38,2.1,3.63,1.28,2.55,1.72,3.81.15,2.94.49,4.22a35.66,35.66,0,0,1,.65,4.07,27.06,27.06,0,0,1,.45,4.06,16.28,16.28,0,0,1-.09,4.12c-.43,1.5-.69,3.21-1.68,4s-2.72.24-4.31.24c-.93,0-2.34-.16-4.12-.16-1.21,0-2.6.51-4.12.51-1.28,0-2.66-.57-4.12-.57s-2.69,1.06-4.11,1.06-2.72-.06-4.12-.06-2.73-.29-4.12-.29-2.74.65-4.13.65-2.75-.19-4.12-.19-2.77.08-4.13.08-2.78-1.16-4.13-1.16-2.79,1.19-4.12,1.19-2.82-1.24-4.13-1.24c-1.47,0-2.85.4-4.13.4-1.55,0-2.94.37-4.12.37-2.14,0-3.59-.18-4.11-.17a10.5,10.5,0,0,1-4.15-1.09c-1.53-.62-3.05-1-3.76-2.17a6.84,6.84,0,0,1-1.24-4.49,8.06,8.06,0,0,1,2.58-3.87A11,11,0,0,1,306.32,698.32Z"/><path class="cls-22" d="M182.63,331.2c-.54,3-.9,2.93-1.44,5.92s.43,3.17-.12,6.16-.74,3-1.28,6-1.21,2.87-1.75,5.86-.46,3-1,6-.44,3-1,6-.87,2.94-1.41,5.93.5,3.18-.05,6.17l-1.08,6c-.54,3-1.42,2.83-2,5.83s-.91,2.92-1.45,5.92-.22,3.05-.76,6-1.27,2.87-1.82,5.86.53,3.19,0,6.18.28,3.15-.26,6.14-1.15,2.88-1.69,5.88-.85,2.94-1.39,5.93S164,436,163.47,439s-.18,3.06-.72,6.05-1.53,2.82-2.07,5.81.67,3.21.13,6.21-1.08,2.9-1.62,5.89-1.26,2.87-1.81,5.86-.88,2.94-1.42,5.93-.77,3-1.31,6,.85,3.25.31,6.24,1,4.32-1.33,6.24-3.42.47-6.58.47-3.16-.36-6.32-.36-3.15-.05-6.31-.05-3.15-.91-6.31-.91-3.15.52-6.31.52-3.16-.65-6.31-.65-3.16,0-6.32,0-3.16-.21-6.31-.21-3.16.9-6.32.9-3.16,0-6.31,0-3.16-.81-6.32-.81-3.16,1-6.32,1-3.22.85-5.68-1.14S70.08,490,69.54,487s.59-3.2,0-6.19-2-2.72-2.58-5.72,1.35-3.33.81-6.32-.42-3-1-6-2.07-2.72-2.61-5.71-.76-3-1.3-5.95-.45-3-1-6l-1.08-6c-.54-3,.28-3.14-.26-6.14s0-3.08-.57-6.08-1.88-2.75-2.42-5.74.16-3.12-.38-6.12-.35-3-.89-6-.63-3-1.17-6-.45-3-1-6-1.22-2.87-1.76-5.87-.9-2.93-1.44-5.92.84-3.24.3-6.23-1.65-2.8-2.19-5.8-1-2.91-1.51-5.91,0-3.09-.55-6.08,0-3.1-.53-6.1,0-3.09-.5-6.09-1.12-2.89-1.66-5.89-.74-3-1.29-6-1.47-2.83-2-5.83"/><path class="cls-22" d="M76.2,363.31c.36,3-.25,3.06.11,6s.67,2.94,1,5.92,1.4,2.86,1.77,5.84.44,3,.81,5.95-.34,3.06,0,6.05-.42,3.07-.06,6.05,1.43,2.86,1.8,5.84.59,2.95,1,5.93-1,3.16-.69,6.14.94,2.91,1.3,5.89.36,3,.72,6,.43,3,.79,6,1.15,2.88,1.52,5.86-.31,3.07.06,6.05-.14,3,.22,6,.94,2.92,1.3,5.9,1.58,2.83,1.94,5.82-.08,3,.28,6-.94,3.15-.58,6.13"/><path class="cls-22" d="M111.91,370.16c0,3.07,1.32,3.07,1.32,6.13s-1.43,3.07-1.43,6.14,1.45,3.06,1.45,6.13-.85,3.07-.85,6.14-.47,3.06-.47,6.13.31,3.07.31,6.14-.82,3.06-.82,6.13.57,3.06.57,6.13.66,3.06.66,6.13-.36,3.07-.36,6.14.84,3.06.84,6.13-.06,3.07-.06,6.13-1.69,3.07-1.69,6.14.48,3.07.48,6.13-.09,3.07-.09,6.14,1.15,3.07,1.15,6.14-1.29,3.08-1.29,6.15"/><path class="cls-22" d="M149.14,363.4c-.36,3-1.91,2.79-2.27,5.78s-.58,2.95-1,5.93.71,3.11.35,6.09-1,2.9-1.41,5.88.2,3.05-.16,6,0,3-.4,6,.17,3.05-.19,6-.93,2.91-1.29,5.9.09,3-.27,6-1.62,2.83-2,5.81.23,3.05-.13,6-1,2.91-1.38,5.89-.48,3-.84,6-.76,2.93-1.12,5.91-.11,3-.48,6-.25,3-.61,6-.77,2.94-1.13,5.92.26,3.06-.1,6.05-.18,3-.54,6"/><path d="M42.06,330.76c1.38,0,1.38.7,2.76.7s1.39.1,2.77.1,1.38-.49,2.77-.49,1.38.31,2.76.31,1.38-.25,2.76-.25,1.38-.15,2.77-.15,1.38-.24,2.76-.24,1.39.26,2.77.26,1.38-.21,2.77-.21,1.38.57,2.76.57,1.38-.27,2.77-.27,1.38.3,2.76.3,1.38.05,2.77.05,1.38.18,2.76.18,1.39-.11,2.77-.11,1.39-.05,2.77-.05,1.38.18,2.76.18,1.39-.28,2.77-.28,1.38-.09,2.77-.09,1.38-.07,2.77-.07,1.38-.08,2.76-.08,1.39.11,2.77.11,1.38.33,2.77.33,1.38-.19,2.77-.19,1.38-.6,2.76-.6,1.39.65,2.77.65,1.39-.66,2.77-.66,1.38.39,2.77.39,1.38.21,2.77.21,1.38-.14,2.76-.14,1.39.37,2.77.37,1.38-.25,2.76-.25,1.39-.3,2.77-.3,1.39.16,2.77.16,1.38-.38,2.77-.38,1.38,0,2.77,0,1.38.76,2.76.76,1.39-.22,2.77-.22,1.39,0,2.77,0,1.39-.51,2.77-.51,1.39.58,2.77.58,1.39-.7,2.78-.7,1.38.71,2.76.71,1.39-.7,2.77-.7,1.39-.05,2.78-.05,1.38.53,2.77.53,1.39.29,2.78.29,1.38-.62,2.69-.16-.39.68-1.66,1.92c-.55.54-1.21,1.2-2,1.9-.63.55-1.54.9-2.32,1.53s-1.61.81-2.39,1.38-1.16,1.45-2,2-1.44,1.09-2.25,1.6-1.86.39-2.68.87-1.43,1.12-2.26,1.56-1.6.84-2.45,1.26-1.61.82-2.46,1.2-1.52,1.07-2.38,1.43-1.8.41-2.68.74-1.77.41-2.65.72-1.64.82-2.53,1.1-1.59,1.06-2.49,1.31-1.82.28-2.72.5-1.91-.15-2.82,0-1.66,1-2.58,1.17-1.92-.46-2.84-.32-1.74.71-2.66.83-1.81.22-2.73.31-1.82.24-2.75.31-1.83,0-2.75,0-1.82.53-2.75.55-1.84-.06-2.77-.06-1.87-.32-2.8-.34-1.87,0-2.79-.07-1.88-.05-2.8-.12-1.85-.3-2.77-.39-1.92.28-2.84.16-1.87-.24-2.78-.37-1.79-.69-2.7-.85-1.81-.5-2.72-.67-1.86-.23-2.76-.44-1.75-.74-2.64-1-1.94,0-2.83-.24-1.92-.14-2.8-.41-1.72-.82-2.6-1.11-1.74-.72-2.61-1-1.83-.48-2.69-.8-1.82-.52-2.67-.87-1.57-1.14-2.41-1.5-2-.26-2.79-.64-1.6-1-2.42-1.42-1.54-1.15-2.35-1.57-1.59-1-2.39-1.45-1.59-1-2.37-1.46-2-.42-2.72-.89-1.61-1.06-2.34-1.54-1.73-.95-2.42-1.43c-.88-.62-1.55-1.31-2.18-1.78A7.6,7.6,0,0,1,42.06,330.76Z"/><path class="cls-22" d="M42.06,330.76c1.38,0,1.38.7,2.76.7s1.39.1,2.77.1,1.38-.49,2.77-.49,1.38.31,2.76.31,1.38-.25,2.76-.25,1.38-.15,2.77-.15,1.38-.24,2.76-.24,1.39.26,2.77.26,1.38-.21,2.77-.21,1.38.57,2.76.57,1.38-.27,2.77-.27,1.38.3,2.76.3,1.38.05,2.77.05,1.38.18,2.76.18,1.39-.11,2.77-.11,1.39-.05,2.77-.05,1.38.18,2.76.18,1.39-.28,2.77-.28,1.38-.09,2.77-.09,1.38-.07,2.77-.07,1.38-.08,2.76-.08,1.39.11,2.77.11,1.38.33,2.77.33,1.38-.19,2.77-.19,1.38-.6,2.76-.6,1.39.65,2.77.65,1.39-.66,2.77-.66,1.38.39,2.77.39,1.38.21,2.77.21,1.38-.14,2.76-.14,1.39.37,2.77.37,1.38-.25,2.76-.25,1.39-.3,2.77-.3,1.39.16,2.77.16,1.38-.38,2.77-.38,1.38,0,2.77,0,1.38.76,2.76.76,1.39-.22,2.77-.22,1.39,0,2.77,0,1.39-.51,2.77-.51,1.39.58,2.77.58,1.39-.7,2.78-.7,1.38.71,2.76.71,1.39-.7,2.77-.7,1.39-.05,2.78-.05,1.38.53,2.77.53,1.39.29,2.78.29,1.38-.62,2.69-.16-.39.68-1.66,1.92c-.55.54-1.21,1.2-2,1.9-.63.55-1.54.9-2.32,1.53s-1.61.81-2.39,1.38-1.16,1.45-2,2-1.44,1.09-2.25,1.6-1.86.39-2.68.87-1.43,1.12-2.26,1.56-1.6.84-2.45,1.26-1.61.82-2.46,1.2-1.52,1.07-2.38,1.43-1.8.41-2.68.74-1.77.41-2.65.72-1.64.82-2.53,1.1-1.59,1.06-2.49,1.31-1.82.28-2.72.5-1.91-.15-2.82,0-1.66,1-2.58,1.17-1.92-.46-2.84-.32-1.74.71-2.66.83-1.81.22-2.73.31-1.82.24-2.75.31-1.83,0-2.75,0-1.82.53-2.75.55-1.84-.06-2.77-.06-1.87-.32-2.8-.34-1.87,0-2.79-.07-1.88-.05-2.8-.12-1.85-.3-2.77-.39-1.92.28-2.84.16-1.87-.24-2.78-.37-1.79-.69-2.7-.85-1.81-.5-2.72-.67-1.86-.23-2.76-.44-1.75-.74-2.64-1-1.94,0-2.83-.24-1.92-.14-2.8-.41-1.72-.82-2.6-1.11-1.74-.72-2.61-1-1.83-.48-2.69-.8-1.82-.52-2.67-.87-1.57-1.14-2.41-1.5-2-.26-2.79-.64-1.6-1-2.42-1.42-1.54-1.15-2.35-1.57-1.59-1-2.39-1.45-1.59-1-2.37-1.46-2-.42-2.72-.89-1.61-1.06-2.34-1.54-1.73-.95-2.42-1.43c-.88-.62-1.55-1.31-2.18-1.78A7.6,7.6,0,0,1,42.06,330.76Z"/><path class="cls-2" d="M450.69,425c1.65,1.28.65,2.33,1.16,4.36s-.06,2.18.45,4.2-.05,2.17.46,4.2.47,2,1,4.07.93,1.93,1.44,4,1.38,1.81,1.89,3.84.59,2,1.1,4-.62,2.32-.11,4.35.73,2,1.24,4,.09,2.14.6,4.17,1.75,1.73,2.26,3.76c.36,1.43-.55,3.07-.31,4.41s.45,2.8.58,4.16,1.49,2.79,1.52,4.16-.57,2.89-.66,4.26-.67,2.81-.86,4.17-.76,2.73-1,4.09.2,3-.15,4.31-1.56,2.53-1.93,3.87.3,3-.05,4.38-1.82,2.5-2.1,3.87-.28,2.87-.43,4.28a35.87,35.87,0,0,0-.24,4.3,31.84,31.84,0,0,0,.24,4.31c.23,1.5,1.22,2.79,1.49,4.1.32,1.49.12,3,.49,4.3.42,1.46,1.59,2.57,2.08,3.82s.34,3.06,1,4.28,2.47,1.88,3.22,3.08.82,2.81,1.64,4,1.63,2.26,2.46,3.5,1.39,2.39,2.19,3.66,1.2,2.49,2,3.8,2,2.2,2.57,3.4c.63,1.36.38,2.93.8,4.19s1.47,2.55,1.72,3.87a30.86,30.86,0,0,1,.43,4.19c.07,1.43-.58,2.78-.68,4.17s.51,2.85.32,4.26-.28,2.77-.49,4.18-.35,2.75-.51,4.18-.49,2.72-.56,4.18-.32,2.75-.29,4.21-.2,2.8,0,4.26c.17,1.64.74,3,.83,4.32.13,1.72-.17,3.16-.14,4.39.05,1.83.18,3.19.15,4.37,0,1.6.63,2.8.78,4.34.12,1.17-.57,2.66-.14,4.46.28,1.18,1.15,2.44,1.63,4.11.35,1.23.77,2.62,1.26,4.2.4,1.29,1.1,2.51,1.48,3.84s.95,2.57,1.31,3.9-.48,2.95-.14,4.27,1.36,2.49,1.67,3.81,1.15,2.56,1.45,3.88.42,2.73.7,4.05.69,2.68,1,4-.37,2.91-.12,4.2,1.11,2.64,1.35,3.92c.26,1.44.67,2.77.89,4,.27,1.54-.39,3-.2,4.19a24,24,0,0,0,1.17,4.41c-2.29,0-2.27-.95-4.56-1s-2.29.48-4.58.44-2.28-.41-4.57-.45-2.54,1.39-4.75.79c-.49-1.29-.69-3.22-1.18-4.5s-.59-2.73-1.08-4-1.1-2.54-1.59-3.82-2.05-2.18-2.54-3.46.06-3-.43-4.26-1.71-2.3-2.2-3.59-1.13-2.52-1.61-3.81-.27-2.84-.75-4.13-1.69-2.32-2.17-3.6,0-2.95-.47-4.23-1.54-2.38-2-3.66-.3-2.83-.77-4.12-.87-2.62-1.33-3.91-2-2.21-2.49-3.5.19-3-.27-4.3-1.74-2.31-2.2-3.6-.42-2.78-.88-4.07-1.67-2.34-2.13-3.63-.66-2.7-1.12-4-.81-2.65-1.26-3.94-1.45-2.43-1.9-3.72,0-2.92-.49-4.21-1.61-2.37-2-3.67.16-3-.29-4.27-1-2.59-1.42-3.88-1.58-2.39-2-3.68-1.07-2.56-1.51-3.86-.57-2.73-1-4-.33-2.8-.76-4.1-1.07-2.56-1.5-3.86-1.65-2.37-2.07-3.67-.05-2.89-.47-4.19-1.47-2.44-1.88-3.74-.84-2.64-1.25-3.94-.37-2.78-.78-4.08-1.51-2.43-1.92-3.73.09-2.93-.31-4.23-.71-2.68-1.1-4-.84-2.64-1.24-3.94-1.52-2.44-1.91-3.74-.83-2.65-1.22-3.95-.27-2.81-.65-4.12-1.15-2.55-1.53-3.86,0-2.89-.35-4.2-1.19-2.55-1.56-3.85-.77-2.67-1.14-4-.59-2.72-1-4-1.23-2.54-1.58-3.85-.22-2.82-.56-4.13-1.14-2.57-1.47-3.88-1.09-2.59-1.42-3.9-.36-2.78-.68-4.09-.44-2.76-.76-4.07-.14-2.83-.44-4.14-.8-2.67-1.1-4-.36-2.77-.65-4.08-.79-2.69-1.07-4-.84-2.68-1.11-4-.16-2.83-.41-4.12-1.76-2.54-2-3.82c-.27-1.44-.55-2.8-.77-4.07-.25-1.46.2-2.93,0-4.19-.25-1.5-1.2-2.75-1.37-4-.23-1.61-.31-3-.44-4.11-.33-2.8.21-3.72.21-3.72,2.1,0,2.1-.24,4.21-.24s2.11-.23,4.21-.23,2.11-.15,4.22-.15,2.11.82,4.21.82,2.11-.32,4.22-.32,2.11-.68,4.21-.68,2.11.65,4.22.65,2.11-.31,4.22-.31,2.11.16,4.21.16,2.11.07,4.22.07,2.11-.43,4.22-.43a11.25,11.25,0,0,0,4.09-.33C448.35,424.29,449,423.68,450.69,425Z"/><path class="cls-22" d="M281.21,154.11c0-.93-.06-1.81-.1-2.64s-.07-1.81-.11-2.64-.6-1.79-.64-2.61-.2-1.81-.23-2.63.6-1.83.58-2.66-.44-1.76-.44-2.63.34-1.73.35-2.63-.21-1.81-.19-2.73a6.15,6.15,0,0,0-2.24-1.33c-1.17-.52-1.38-.06-2.54-.58s-1.31-.21-2.48-.72-1-.94-2.16-1.46-1.29-.24-2.46-.76-1.15-.57-2.32-1.09-1-1-2.13-1.52-1.33-.17-2.5-.69"/><path class="cls-22" d="M334.92,215.12c-.75.49-1.47,1-2.2,1.47s-1.48,1-2.22,1.44-1.51,1-2.27,1.38-1.94.12-2.71.5-1.53.91-2.31,1.26-1.38,1.31-2.17,1.63-1.74.5-2.55.77-1.88-.09-2.71.12-1.67.57-2.51.72-1.71.61-2.56.68a23.66,23.66,0,0,1-2.65.06,20.77,20.77,0,0,1-2.65-.2,18.21,18.21,0,0,1-2.54-.78,17,17,0,0,1-2.3-1.31,17.17,17.17,0,0,1-2.31-1.25,19,19,0,0,1-1.91-1.81c-.62-.59-1.59-.91-2.17-1.61s-.4-1.85-.91-2.6-1.35-1.18-1.8-2-.38-1.74-.77-2.55-1.18-1.37-1.52-2.2-.18-1.78-.49-2.63-1.31-1.39-1.58-2.25.08-1.84-.16-2.7-.57-1.64-.79-2.51-.75-1.61-.94-2.48-.17-1.75-.35-2.63-.7-1.64-.86-2.52,0-1.78-.12-2.66-.37-1.71-.49-2.6,0-1.76-.15-2.65"/><path class="cls-22" d="M339.92,146.15c.6-1.07.08-1.15,1.07-2.26.48-.53,1.45-.73,2.16-1.31s.93-1.47,1.68-1.9a15.63,15.63,0,0,1,2.34-.94c.73-.27,1.68.16,2.53,0a14.42,14.42,0,0,1,2.37-.45,16.74,16.74,0,0,1,2.44,0,18.16,18.16,0,0,1,2.46.25,13.87,13.87,0,0,1,2.33,1.11,12.6,12.6,0,0,1,2.09,1.42c.7.5,1.72.61,2.31,1.22s.73,1.62,1.2,2.33a15,15,0,0,1,1.39,2.13,18,18,0,0,1,.78,2.42,20.34,20.34,0,0,1,.51,2.49,22.83,22.83,0,0,1,.39,2.5,25,25,0,0,1,.36,2.56,25.65,25.65,0,0,1,.12,2.62,25.22,25.22,0,0,1-.9,2.47,21.52,21.52,0,0,1-1.07,2.34c-.3.82-.16,1.81-.55,2.57s-1.38,1.16-1.87,1.85-.43,1.88-1,2.48a14,14,0,0,1-2.1,1.59c-.79.54-1.5,1.13-2.22,1.55a25.71,25.71,0,0,1-2.51,1,22.5,22.5,0,0,1-2.54.9,16.23,16.23,0,0,1-2.62.57,12.54,12.54,0,0,1-2.71.2,3.83,3.83,0,0,1-2.38-1"/><path class="cls-22" d="M269.92,107a5.09,5.09,0,0,0,2,1.6c.63.36,1.4.77,2.3,1.27.68.38,1.6.52,2.45,1s1.52.73,2.34,1.18,1.42,1,2.23,1.39,1.45.92,2.26,1.35,1.57.69,2.38,1.12,1.34,1.13,2.14,1.55,1.83.23,2.62.65,1.25,1.34,2,1.76,1.63.63,2.42,1,1.66.56,2.45,1,1.55.78,2.35,1.19,1.38,1.09,2.17,1.5,1.43,1,2.23,1.42,1.72.45,2.51.86,1.35,1.18,2.13,1.59,1.93.07,2.72.48,1.33,1.21,2.13,1.62,1.47,1,2.28,1.37,1.89-.09,2.73.17,1.57.85,2.42,1,1.73.28,2.6.41,1.72.28,2.6.35,1.74-.27,2.62-.27,1.77.69,2.65.64,1.69-.67,2.57-.78,1.79.15,2.65,0,1.7-.49,2.55-.7,1.54-.93,2.38-1.19,1.64-.54,2.46-.85,1.76-.28,2.56-.64,1.53-.85,2.31-1.25,1.66-.62,2.41-1.07,1.65-.68,2.38-1.17,1.29-1.22,2-1.75"/><path class="cls-22" d="M263.74,114.61c1.22.64,1.15.78,2.37,1.42s1.49.13,2.71.77.84,1.37,2.06,2,1.24.61,2.46,1.25,1.4.33,2.62,1,1.13.81,2.35,1.46"/><path class="cls-22" d="M347.1,166.85c.7-1,1-.87,1.67-1.92s.09-1.44.79-2.49.95-.88,1.65-1.93.6-1.11,1.3-2.15.68-1.06,1.38-2.11.57-1.13,1.27-2.17,1.22-.69,1.92-1.74.13-1.42.83-2.47,1.07-.8,1.77-1.85,1-.84,1.71-1.88,0-1.51.7-2.56,1.13-.77,1.83-1.82.9-.92,1.59-2"/><path class="cls-22" d="M284.65,107.15c.51-.72.61-1.73,1.14-2.42s1.23-1.27,1.79-1.93,1.15-1.34,1.74-2,1.38-1.1,2-1.71.92-1.59,1.56-2.17,1.25-1.27,1.92-1.82,1.53-.91,2.23-1.43,1.7-.63,2.42-1.11,1.42-1,2.16-1.47,1.19-1.44,1.95-1.86,1.79-.38,2.57-.76,1.57-.77,2.36-1.12,1.62-.67,2.43-1,1.63-.64,2.45-.91,1.74-.28,2.58-.52,1.58-.87,2.42-1.07,1.69-.53,2.54-.7,1.8.1,2.66,0,1.73-.17,2.6-.27,1.73-.26,2.59-.32,1.72-.65,2.59-.68,1.77.49,2.64.48,1.75.08,2.61.11,1.78-.41,2.64-.36,1.79-.14,2.65-.05,1.77.15,2.62.27,1.71.62,2.55.77,1.67.7,2.5.87,1.88-.26,2.7-.06,1.74.46,2.53.69,1.7.69,2.46,1,1.51.77,2.26,1.07,1.67.41,2.4.75,1.49.82,2.21,1.2,1.69.48,2.38.9,1.4,1,2.06,1.46,1.08,1.41,1.7,1.91,1.24,1.16,1.81,1.7,1.31,1.1,1.83,1.68a20,20,0,0,1,1.46,2c.57.78,1.52,1.16,1.87,1.76a4.42,4.42,0,0,1,.71,2.32c.9-1.07.82-1.14,1.73-2.2s.78-1.16,1.68-2.23,1.24-.78,2.14-1.84.6-1.33,1.5-2.4"/><path class="cls-22" d="M376,177.7c.64-.62,1.27-1.23,1.87-1.87s1.08-1.41,1.65-2.07,1.59-1,2.13-1.67.63-1.75,1.15-2.46,1.26-1.27,1.75-2,1.27-1.3,1.72-2,1-1.5,1.42-2.27.38-1.81.76-2.6.44-1.74.8-2.54,1.27-1.39,1.59-2.2.45-1.74.73-2.56.72-1.64,1-2.48.76-1.65,1-2.49-.33-1.91-.15-2.76.49-1.71.62-2.57.29-1.75.38-2.61.18-1.78.22-2.64-.24-1.78-.25-2.64.32-1.8.25-2.65-.23-1.79-.38-2.62a22.07,22.07,0,0,0-.6-2.57,12.69,12.69,0,0,0-1.29-2.28c-.43-.87-.44-1.59-1-2.16a5.9,5.9,0,0,1,2.43-1c1.28-.34,1.23-.54,2.52-.89s1.32-.21,2.61-.55,1.43.19,2.72-.15"/><path class="cls-22" d="M383.29,109.5c1-.94.71-1.32,1.75-2.26s.86-1.14,1.91-2.08,1.4-.54,2.45-1.48,1-1,2-2,1.19-.78,2.24-1.72"/><path class="cls-22" d="M386.87,116.63c1-.7,1.15-.54,2.2-1.24s1.09-.64,2.13-1.34,1.23-.43,2.28-1.13.74-1.16,1.78-1.86,1-.81,2-1.51,1.34-.26,2.39-1"/><path class="cls-22" d="M309.24,108.43c1.11.74,1,.92,2.1,1.66s1.24.53,2.36,1.27,1,1,2.07,1.7,1.38.34,2.49,1.08,1.24.54,2.36,1.28,1,.93,2.1,1.67"/><path d="M340.88,210.24a6.53,6.53,0,0,0,.64,2.55c.55,1.23,1,1.05,1.5,2.28s0,1.49.52,2.72,1,1,1.53,2.27.23,1.37.78,2.6.32,1.42,1.23,2.42.32-.9,1.57-2.23c.51-.53,1.69-.64,2.41-1.41.55-.58.71-1.64,1.39-2.37s1.19-1.24,1.84-1.94,1.58-.9,2.22-1.6.77-1.67,1.41-2.35a23,23,0,0,0,1.43-2.08c.49-.68,1.56-1,2-1.73s.29-1.77.68-2.53,1-1.39,1.36-2.18.5-1.63.79-2.42.46-1.65.72-2.45.76-1.56,1-2.36.91-1.55,1.11-2.35.33-1.72.51-2.52-.18-1.84,0-2.61c.18-.95.22-1.8.34-2.52.26-1.57,1.6-1.49.58-2.25s-.45.4-1.73,1.47c-.54.45-1.09,1.09-1.84,1.72-.57.49-1.6.58-2.3,1.18s-.73,1.64-1.41,2.23-1.5.76-2.16,1.35-1.16,1.17-1.82,1.76-1.44.85-2.09,1.44-.84,1.52-1.49,2.1-1.25,1.08-1.89,1.67-1.38,1-2,1.53-1.09,1.27-1.71,1.86-1.52.82-2.14,1.41-.79,1.59-1.41,2.18-1.5.84-2.12,1.43S341.5,209.65,340.88,210.24Z"/><path class="cls-22" d="M340.88,210.24a6.53,6.53,0,0,0,.64,2.55c.55,1.23,1,1.05,1.5,2.28s0,1.49.52,2.72,1,1,1.53,2.27.23,1.37.78,2.6.32,1.42,1.23,2.42.32-.9,1.57-2.23c.51-.53,1.69-.64,2.41-1.41.55-.58.71-1.64,1.39-2.37s1.19-1.24,1.84-1.94,1.58-.9,2.22-1.6.77-1.67,1.41-2.35a23,23,0,0,0,1.43-2.08c.49-.68,1.56-1,2-1.73s.29-1.77.68-2.53,1-1.39,1.36-2.18.5-1.63.79-2.42.46-1.65.72-2.45.76-1.56,1-2.36.91-1.55,1.11-2.35.33-1.72.51-2.52-.18-1.84,0-2.61c.18-.95.22-1.8.34-2.52.26-1.57,1.6-1.49.58-2.25s-.45.4-1.73,1.47c-.54.45-1.09,1.09-1.84,1.72-.57.49-1.6.58-2.3,1.18s-.73,1.64-1.41,2.23-1.5.76-2.16,1.35-1.16,1.17-1.82,1.76-1.44.85-2.09,1.44-.84,1.52-1.49,2.1-1.25,1.08-1.89,1.67-1.38,1-2,1.53-1.09,1.27-1.71,1.86-1.52.82-2.14,1.41-.79,1.59-1.41,2.18-1.5.84-2.12,1.43S341.5,209.65,340.88,210.24Z"/><path class="cls-22" d="M476,417.87c-1,0-2,.28-3,.28s-2-.12-3-.12-2,.65-3,.65-2-.6-3-.6-2,.58-3,.58-2,0-3,0-2,.18-3,.19-2-.46-3-.45-2-.48-3-.48-2,.82-3,.83-2,.17-3,.18-2-.76-3-.75-2,.43-3,.44-2,.48-3,.49l-3,.05c-1,0-2-.4-3-.38s-2,0-3,0-2-.48-3-.47-2,.4-3,.42-2,.18-3,.2-2,.23-3,.25-2-.07-3-.05-2-.54-3-.52-2,.08-3,.1-2,.94-3,1-2-.8-3-.77-2,.62-3,.65-2,.09-3,.12-2-.17-3-.14-2,.31-3,.34-2-.61-3-.58-2,.48-3,.5-2-.27-3-.25-2,.18-3,.2-2-.1-3-.08-2,.46-3,.48-2,.3-3,.31-2,0-3,0-2,.08-3,.1-2-.88-3-.87-2,1-3,1-2-.1-3-.1-2,.15-3,.15-2-.87-3-.88-2,.29-3,.28-2-.22-3-.22-2-.08-3-.09l-3,0c-1,0-2,.18-3,.16s-2-.3-3-.32-2,.71-3,.68"/><path class="cls-22" d="M409.48,449.93c.15,1-.41,2.05-.26,3s.7,1.87.85,2.8.17,2,.32,2.88.64,1.89.79,2.81,0,2,.11,2.91,0,2,.14,2.91,1.24,1.8,1.39,2.71.38,1.93.54,2.84-.3,2.06-.14,3,.81,1.87,1,2.77.5,1.91.68,2.81-.08,2,.12,2.93.71,1.85.94,2.74.41,1.9.69,2.8.77,1.75,1.09,2.68.45,1.83.81,2.77.45,1.83.83,2.78.41,1.85.8,2.8c.27.67.61,1.59,1,2.78.27.84,1,1.67,1.29,2.72.28.89.25,1.94.56,3s.66,1.83,1,2.83.48,1.9.76,2.9.53,1.89.8,2.87.73,1.84,1,2.82.15,2,.42,3,.54,1.9.81,2.88,1.45,1.66,1.72,2.63.47,1.93.73,2.9-.22,2.12,0,3.09.62,1.9.88,2.86.75,1.87,1,2.84.89,1.83,1.14,2.79-.18,2.12.07,3.08,1,1.81,1.26,2.77.16,2,.4,3,1,1.82,1.24,2.77.55,1.94.8,2.89-.28,2.16,0,3.1.77,1.89,1,2.83.3,2,.53,2.95.55,2,.77,2.89c.26,1.07,1.23,1.86,1.43,2.72.25,1.05.42,2,.64,2.86.28,1.06.1,2.11.36,3,.32,1.07.72,1.94,1,2.74a24.32,24.32,0,0,0,1.19,2.67c.46.85.84,1.7,1.4,2.59.46.73.74,1.67,1.32,2.62.44.74,1.14,1.44,1.68,2.4.42.77,1.23,1.44,1.73,2.39.41.8.71,1.74,1.18,2.7s.9,1.66,1.34,2.61.38,1.91.81,2.85,1.15,1.58,1.56,2.52.18,2,.57,2.93,1.53,1.44,1.92,2.38.4,1.91.77,2.85,1.13,1.63,1.49,2.57.06,2,.42,3,.7,1.8,1.05,2.74,1.1,1.65,1.45,2.59.53,1.87.87,2.81.56,1.86.9,2.8.93,1.72,1.27,2.67a15.25,15.25,0,0,1,.23,3,19.55,19.55,0,0,1-.18,3c0,1,0,1.95-.13,2.95s-.12,2-.26,3-.24,2-.34,3-.25,2-.26,3,.59,2,.71,3-.32,2.1,0,3.08a17.06,17.06,0,0,0,1.09,2.86c.42.85,1.66,1.26,2.08,2.07s.78,1.7,1.21,2.5.47,1.89.9,2.67,1.22,1.5,1.65,2.27.46,2,.89,2.7c.54.91,1.77,1.26,2.18,1.93.91,1.5-.34,2.53,1.05,2.51a7.38,7.38,0,0,0,3-.57c1.47-.45,1.49-.38,3-.84s1.36-.79,2.83-1.24,1.35-.82,2.82-1.27,1.61,0,3.08-.44,1.31-1,2.78-1.41,1.44-.52,2.91-1,1.64.09,3.11-.36,1.58-.07,3.05-.53,1.44-.54,2.9-1,1.44-.56,2.91-1,1.38-.72,2.85-1.17,1.38-.77,2.85-1.22,1.66.14,3.13-.31"/><path class="cls-22" d="M468.65,386.58c.27,1,.21,2,.47,2.95s1.34,1.7,1.59,2.65-.3,2.14-.06,3.09.75,1.86,1,2.82,1,1.82,1.19,2.78-.16,2.08.06,3,.7,1.88.91,2.85.06,2,.26,3,.64,1.9.83,2.87.29,2,.47,2.93.22,2,.39,2.95,1,1.85,1.15,2.82.26,2,.42,2.95-.15,2,0,3,.47,1.94.61,2.92.59,1.93.71,2.9.34,2,.46,2.94,0,2,.13,3-.25,2-.16,3,.58,1.94.67,2.92.34,2,.42,2.95-.24,2-.17,3,0,2,.09,3,.28,2,.33,3,.25,2,.29,3,.11,2,.14,3,.08,2,.09,3,.11,2,.12,3-.2,2-.19,3,.44,2,.44,3-1,2-1,3,.56,2,.54,3-.54,2-.57,2.95-.15,2-.18,3,.69,2,.65,3-.85,2-.9,2.93,0,2-.05,3,0,2,0,3,.23,2,.17,3,.2,2,.15,3-.71,2-.77,2.93-.24,2-.29,3,.13,2,.08,3-.43,2-.46,2.95.82,2,.79,3-1,2-1,3,.26,2,.28,3,.52,2,.57,2.94-.22,2-.13,3,.44,2,.58,2.91.19,2,.38,2.94.26,2,.53,2.92,1.05,1.73,1.4,2.64a28.91,28.91,0,0,0,.89,2.82c.45.89,1.06,1.69,1.5,2.56s.69,1.87,1.13,2.75.63,1.9,1.06,2.78,1.35,1.54,1.78,2.42.33,2.05.75,2.93,1.1,1.67,1.52,2.56.66,1.87,1.07,2.77.83,1.79,1.23,2.69,1,1.74,1.34,2.64.56,1.91.94,2.82.84,1.78,1.21,2.7.91,1.76,1.26,2.68.37,2,.7,2.89.86,1.79,1.18,2.72.93,1.77,1.24,2.71.36,2,.64,2.9.18,2,.44,2.94,1.44,1.66,1.68,2.62-.11,2,.11,3,.5,1.9.71,2.87.31,1.94.5,2.91,0,2,.2,3,1.16,1.81,1.3,2.79.33,2,.45,2.93-.3,2-.2,3-.06,2,0,3,0,2,.05,3,.17,2,.25,3,1.07,1.94,1.14,2.92-.52,2-.45,3,0,2,.08,3,.25,2,.32,3,.95,1.95,1,2.92-.67,2.07-.6,3,.18,2,.25,3,.44,2,.51,3,.07,2,.13,3,.53,2,.6,3,.33,2,.4,3-.78,2.08-.71,3,.85,2,.92,2.94-.36,2.07-.3,3-.09,2.06,0,3,.44,2,.49,3c.07,1.1.12,2.09.17,3,.07,1.17.57,2.13.61,3,.11,2-.7,1.52-.63,3"/><path class="cls-22" d="M329.59,405.76c0,1-.51,2-.53,3s-.2,2-.23,3-.28,2-.31,3,.48,2,.44,3,.05,2,0,3,.13,2,.09,3-.78,2-.83,3,.07,2,0,3,0,2-.09,3,.22,2,.17,3-.59,2-.64,3,.46,2,.4,3-.64,2-.69,3-.25,2-.31,3,.48,2,.42,3-.77,2-.83,3,.66,2.05.59,3.05,0,2-.08,3-.27,2-.33,3-.26,2-.33,3-.1,2-.18,3-.85,1.95-.93,2.95.71,2.08.63,3.08-.89,1.95-1,2.94.29,2.06.2,3.05-.78,2-.87,2.94.12,2.05,0,3-.24,2-.35,3-.3,2-.41,3-.14,2-.26,3-.4,2-.53,3-.1,2-.24,3,0,2-.08,3-.54,2-.61,2.95.46,2,.42,3-.49,2-.49,3,0,2,0,3,.4,2,.48,3-.2,2-.09,3,.07,2,.22,3,.66,1.91.84,2.9-.13,2.06.08,3,1.06,1.8,1.29,2.79.08,2,.32,3,.34,1.95.59,2.94.59,1.89.84,2.87.6,1.9.87,2.88.49,1.92.76,2.9,1,1.79,1.24,2.78.48,1.92.74,2.91.48,1.93.72,2.84-.21,2.12,0,3,.57,1.92.81,2.83.37,2,.6,2.87.68,1.9.9,2.8.83,1.87,1,2.77.32,2,.52,2.89.75,1.91.93,2.8-.26,2.12-.09,3,.9,1.89,1,2.79.17,2,.31,2.91-.06,2,.09,3,.78,1.79.95,2.82.23,1.85.42,2.89c.16.89.46,1.81.66,2.85s-.24,2,0,3,.78,1.79,1,2.8,0,2,.22,3,.56,1.86.78,2.85.69,1.83.9,2.82.72,1.83.93,2.81.33,1.92.54,2.9,0,2,.17,3,.76,1.84,1,2.82.61,1.87.81,2.84-.24,2-.06,3,.11,2,.3,2.94,1.17,1.78,1.34,2.75-.39,2.06-.22,3,.63,1.88.8,2.85.72,1.87.88,2.85.34,1.93.49,2.91.37,1.93.51,2.91,0,2,.19,2.95.3,1.94.43,2.92-.08,2,0,3,.74,1.89.86,2.87-.31,2-.21,3,.21,2,.3,2.94.79,1.91.87,2.89,0,2,.06,3,.37,1.95.43,2.93-.7,2-.65,3,.33,2,.36,2.93.19,2,.21,2.95"/><path class="cls-22" d="M328.87,336.32c0,1.51-.88,1.53-.86,3s.45,1.5.47,3,.25,1.51.28,3,.26,1.5.29,3-.8,1.52-.78,3,.46,1.51.49,3,.41,1.5.44,3-.44,1.52-.41,3l0,3c0,1.51-.14,1.51-.12,3s.67,1.5.7,3-.84,1.53-.82,3,.23,1.51.26,3,.4,1.51.43,3,0,1.51.06,3,.17,1.51.2,3-.75,1.53-.72,3,.67,1.5.69,3-.07,1.51-.05,3-.23,1.52-.2,3"/><path class="cls-22" d="M352.31,685.45c-1.4.64-1.08.44-2.83,1.23-.8.36-1.91.43-3,.9-.87.4-1.79.87-2.78,1.32S342,690,341,690.4s-2,.57-2.93,1-1.74,1.14-2.69,1.55-2,.47-3,.87-1.89.86-2.82,1.25-1.71,1.34-2.63,1.71-2.24.09-3.14.44-2,.83-2.85,1.14-1.7,1.38-2.59,1.74-2.15.28-3,.69a30,30,0,0,0-2.53,1.71c-1,.56-2.13.66-2.86,1.21a13.28,13.28,0,0,0-2.05,2.32,8.41,8.41,0,0,0-1.87,2.54,4.64,4.64,0,0,0,.65,3.05,6.1,6.1,0,0,0,2,2.1c.72.57,1.18,1.78,2.2,2.24a19.84,19.84,0,0,0,2.92,1,27.09,27.09,0,0,0,3,.65c1,.15,2,0,3.08.1s2,.08,3,.08,2-.53,3-.53,2-.19,2.95-.19,2,.78,2.95.78,2-.16,2.95-.16,2-.26,3-.26,2,.17,2.95.17,2,.05,2.95.05,2,.17,2.95.17,2-.11,2.95-.11,2,0,2.94,0c1.08,0,2.06-.16,3-.16,1.11,0,2.09.51,2.95.51,1.21,0,2.17-.25,2.94-.25a11.48,11.48,0,0,0,3-.18"/><path class="cls-22" d="M339.7,665.54c1.46,0,1.45-.09,2.91-.1s1.46.24,2.92.23,1.47.05,2.93.05,1.46-.38,2.92-.38,1.46.33,2.92.32,1.46.54,2.92.54,1.46-.42,2.93-.42,1.46.42,2.92.41,1.46-.05,2.93-.05,1.46-.21,2.92-.22,1.46-.69,2.92-.69,1.46.55,2.93.55,1.46-.06,2.92-.07,1.46.13,2.93.13,1.46-.06,2.92-.07,1.47-.41,2.93-.41,1.42.37,2.8-.11.32-.64.5-2.56c.07-.83-.13-1.84,0-3,.09-.9.29-1.87.39-2.94.08-.92.39-1.89.48-2.93s-.38-2-.29-3,.58-1.9.67-2.92.67-1.89.76-2.9-.55-2-.46-3,0-2,.07-3,.79-1.89.88-2.9.52-1.92.61-2.92-.38-2-.28-3,.21-2,.3-3,.17-2,.26-3,.62-1.92.71-2.92.23-2,.33-3,.07-2,.16-3,.35-2,.44-2.94-.7-2-.61-3,.71-1.92.8-2.91-.39-2-.3-3,.74-1.91.83-2.9.06-2,.15-3,0-2,.08-3,.2-2,.29-3,.55-1.93.64-2.92.4-1.94.49-2.93-.58-2-.49-3,.34-2,.43-2.94-.05-2,0-3,.45-2,.54-2.93,0-2,.06-3,.85-1.91.94-2.89-.43-2-.34-3,.23-2,.33-3,.05-2,.14-3,1-1.9,1.1-2.89-.67-2-.58-3,.57-1.94.66-2.92.41-2,.5-2.94.26-2,.35-2.95,0-2,.12-3,0-2,.05-3,.57-1.94.66-2.92.28-2,.37-3-.64-2-.55-3,.62-1.93.71-2.91.43-1.95.52-2.94-.35-2-.26-3,.2-2,.29-3,.5-1.95.59-2.93,0-2,.09-3,.27-2,.36-2.95.26-2,.35-2.95-.36-2-.27-3,.42-2,.51-2.93.66-1.94.75-2.91.3-2,.39-2.95.2-2,.29-2.95.14-2,.23-3,.16-2,.25-3,.26-2,.35-2.95-.53-2.06-.44-3,0-2,.05-3,.41-2,.5-2.93.86-1.93.95-2.89.21-2,.3-2.95-.55-2.07-.46-3,.73-2,.82-2.9-.58-2.1-.5-3,1.2-2,1.28-2.85c.1-1.14-.79-2.22-.71-3.05a4.79,4.79,0,0,1,1.2-2.9"/><path class="cls-22" d="M356.81,651.58h2.94c1.46,0,1.46-.9,2.93-.91s1.47.23,2.93.23,1.47.11,2.94.1,1.47.6,2.94.6,1.47-1,2.94-1,1.46.28,2.93.27,1.47.25,2.94.25,1.47-.39,2.94-.4,1.47.74,2.94.73,1.47-.34,2.94-.35,1.48.21,2.95.2"/><path class="cls-22" d="M474.64,657.44c1.46-.45,1.48-.39,2.95-.84s1.23-1.21,2.69-1.66,1.72.37,3.18-.07,1.38-.73,2.84-1.18,1.44-.54,2.9-1,1.48-.4,2.94-.85,1.36-.81,2.82-1.26,1.7.31,3.16-.14,1.23-1.23,2.69-1.68,1.57-.11,3-.56,1.51-.31,3-.76,1.51-.3,3-.75,1.31-.94,2.78-1.39"/><path d="M348,649.65c.79,2.08.67-1.41,1.62-4.27.39-1.16,1.11-2.48,1.69-4.14.43-1.25.16-2.92.71-4.47.46-1.3,1.74-2.42,2.29-3.93a17.62,17.62,0,0,0,1-5.24,16.33,16.33,0,0,0-.61-5.31c-.5-1.68-2-2.91-2.94-4.4s-1.35-3.34-2.53-4.65c-1-1.1-2.1-2.06-3-3.06s-1.87-2.43-2.73-3.33c-1.81-1.87-2.88-4.83-3.14-2.7-.27,2.29-.48,2.36-.08,4.63s1.47,2.08,1.87,4.36-.56,2.44-.16,4.71.75,2.21,1.15,4.49.94,2.17,1.34,4.45-.26,2.38.14,4.66.5,2.25.9,4.52,1.3,2.12,1.7,4.39a36.13,36.13,0,0,1,.37,4.65C347.76,647.35,347.14,647.49,348,649.65Z"/><path class="cls-22" d="M348,649.65c.79,2.08.67-1.41,1.62-4.27.39-1.16,1.11-2.48,1.69-4.14.43-1.25.16-2.92.71-4.47.46-1.3,1.74-2.42,2.29-3.93a17.62,17.62,0,0,0,1-5.24,16.33,16.33,0,0,0-.61-5.31c-.5-1.68-2-2.91-2.94-4.4s-1.35-3.34-2.53-4.65c-1-1.1-2.1-2.06-3-3.06s-1.87-2.43-2.73-3.33c-1.81-1.87-2.88-4.83-3.14-2.7-.27,2.29-.48,2.36-.08,4.63s1.47,2.08,1.87,4.36-.56,2.44-.16,4.71.75,2.21,1.15,4.49.94,2.17,1.34,4.45-.26,2.38.14,4.66.5,2.25.9,4.52,1.3,2.12,1.7,4.39a36.13,36.13,0,0,1,.37,4.65C347.76,647.35,347.14,647.49,348,649.65Z"/><path d="M392.51,627.09c-.88,2.1-.9-2.07-2.11-4.55-.58-1.19-2.18-2.14-2.91-3.65-.64-1.29-1.09-2.78-1.78-4.2s-.73-3-1.4-4.39-2.31-2.29-3-3.61-1.41-2.82-2-4.07c-.81-1.6-.75-3.39-1.31-4.45a16.91,16.91,0,0,1-1.85-4.35c-.36-1.65.24-3.15.4-4.68s-.11-3.24.48-4.69A23.88,23.88,0,0,1,378.9,580c.7-1,1.8-2.11,2.83-3.41.85-1.08,1.82-2.22,2.81-3.4s1.6-2.48,2.57-3.6,2.27-2,3.23-3,2.22-2.06,3.15-3.09c1.09-1.22,2.32-2.11,3.19-3.06,1.8-2,2.41-5.68,2.84-3.53s-.83,2.32-1.07,4.65.06,2.37-.19,4.7.06,2.36-.18,4.7-.51,2.3-.76,4.63,0,2.36-.22,4.69-.75,2.28-1,4.61,0,2.36-.27,4.69-.68,2.29-.92,4.62,0,2.36-.29,4.69.52,2.42.27,4.75-.78,2.27-1,4.61-.11,2.34-.36,4.68-.59,2.3-.84,4.63-.77,2.38-.62,4.73S393.41,624.92,392.51,627.09Z"/><path class="cls-22" d="M392.51,627.09c-.88,2.1-.9-2.07-2.11-4.55-.58-1.19-2.18-2.14-2.91-3.65-.64-1.29-1.09-2.78-1.78-4.2s-.73-3-1.4-4.39-2.31-2.29-3-3.61-1.41-2.82-2-4.07c-.81-1.6-.75-3.39-1.31-4.45a16.91,16.91,0,0,1-1.85-4.35c-.36-1.65.24-3.15.4-4.68s-.11-3.24.48-4.69A23.88,23.88,0,0,1,378.9,580c.7-1,1.8-2.11,2.83-3.41.85-1.08,1.82-2.22,2.81-3.4s1.6-2.48,2.57-3.6,2.27-2,3.23-3,2.22-2.06,3.15-3.09c1.09-1.22,2.32-2.11,3.19-3.06,1.8-2,2.41-5.68,2.84-3.53s-.83,2.32-1.07,4.65.06,2.37-.19,4.7.06,2.36-.18,4.7-.51,2.3-.76,4.63,0,2.36-.22,4.69-.75,2.28-1,4.61,0,2.36-.27,4.69-.68,2.29-.92,4.62,0,2.36-.29,4.69.52,2.42.27,4.75-.78,2.27-1,4.61-.11,2.34-.36,4.68-.59,2.3-.84,4.63-.77,2.38-.62,4.73S393.41,624.92,392.51,627.09Z"/><path d="M414.14,480c1,2,1.4-.85,3.8-2.58,1-.71,2.05-1.75,3.46-2.76,1.07-.77,2.23-1.69,3.55-2.64,1.11-.79,2.58-1.28,3.87-2.19,1.13-.81,1.81-2.39,3.08-3.3s2.44-1.54,3.7-2.43a37.94,37.94,0,0,0,3.57-3.06c1.3-1.17,3.13-1.57,4.05-2.66a24.62,24.62,0,0,0,2.48-4.11c1.55-2.58,3.95-2.83,1.74-3.69s-2.17-.46-4.58-.46-2.4-.46-4.81-.46-2.41-.33-4.82-.33-2.4,0-4.81,0-2.4.26-4.81.26-2.41.53-4.82.53-2.4.22-4.82.22-2.92-2-4.42-.09-.57,2.28-.14,4.78,1.09,2.38,1.52,4.87-.24,2.61.19,5.1.48,2.49.91,5,1.72,2.34,1.86,4.87S413,477.73,414.14,480Z"/><path class="cls-22" d="M414.14,480c1,2,1.4-.85,3.8-2.58,1-.71,2.05-1.75,3.46-2.76,1.07-.77,2.23-1.69,3.55-2.64,1.11-.79,2.58-1.28,3.87-2.19,1.13-.81,1.81-2.39,3.08-3.3s2.44-1.54,3.7-2.43a37.94,37.94,0,0,0,3.57-3.06c1.3-1.17,3.13-1.57,4.05-2.66a24.62,24.62,0,0,0,2.48-4.11c1.55-2.58,3.95-2.83,1.74-3.69s-2.17-.46-4.58-.46-2.4-.46-4.81-.46-2.41-.33-4.82-.33-2.4,0-4.81,0-2.4.26-4.81.26-2.41.53-4.82.53-2.4.22-4.82.22-2.92-2-4.42-.09-.57,2.28-.14,4.78,1.09,2.38,1.52,4.87-.24,2.61.19,5.1.48,2.49.91,5,1.72,2.34,1.86,4.87S413,477.73,414.14,480Z"/><path d="M465.55,634.39c1.41,1.83.91-2.13,1.3-4.9.19-1.34.49-2.89.7-4.58.18-1.45.57-3,.74-4.58s-.3-3.13-.17-4.67.21-3.13.28-4.61c.13-2.64-.55-3.91-1.8-4.55a7.15,7.15,0,0,0-5.16,0,34.43,34.43,0,0,0-5.45,2.32c.79,2.12,1,2,1.79,4.16s1.54,1.84,2.32,4,.09,2.38.87,4.5,1.14,2,1.93,4.1,1.11,2,1.53,4.27S464.17,632.59,465.55,634.39Z"/><path class="cls-22" d="M465.55,634.39c1.41,1.83.91-2.13,1.3-4.9.19-1.34.49-2.89.7-4.58.18-1.45.57-3,.74-4.58s-.3-3.13-.17-4.67.21-3.13.28-4.61c.13-2.64-.55-3.91-1.8-4.55a7.15,7.15,0,0,0-5.16,0,34.43,34.43,0,0,0-5.45,2.32c.79,2.12,1,2,1.79,4.16s1.54,1.84,2.32,4,.09,2.38.87,4.5,1.14,2,1.93,4.1,1.11,2,1.53,4.27S464.17,632.59,465.55,634.39Z"/><path class="cls-22" d="M325.4,139.57c.16,1.35-.36,1.41-.2,2.75s.73,1.28.88,2.62-.33,1.4-.17,2.75.53,1.3.69,2.64,0,1.37.16,2.71.29,1.33.45,2.68.09,1.36.25,2.7"/><path d="M480.64,541.71a13.48,13.48,0,0,0-2.41-3.73c-.83-1-1.74-2.21-2.82-3.57-.87-1.09-1.82-2.28-2.79-3.59s-1.69-2.44-2.61-3.74-2.06-2.21-2.93-3.52-1.17-2.82-2-4.15-2.16-2.23-2.92-3.58a6.86,6.86,0,0,1-.32-5.15A13.6,13.6,0,0,1,464,506a30.79,30.79,0,0,1,3.49-3.81c1.26-1.16,3.27-1.44,4.6-2.45s2.7-2.34,4-3.17c2.52-1.64,1.78-2,4-3.2a23,23,0,0,0-1.28,4.95c-.21,1.37-.31,3-.53,4.82-.18,1.49.55,3.21.39,4.91-.14,1.55-.36,3.14-.46,4.81s0,3.19,0,4.83-.62,3.22-.58,4.84-.18,3.27-.05,4.86,1,3.18,1.21,4.74-.15,3.41.26,4.91A29.88,29.88,0,0,0,480.64,541.71Z"/><path class="cls-22" d="M480.64,541.71a13.48,13.48,0,0,0-2.41-3.73c-.83-1-1.74-2.21-2.82-3.57-.87-1.09-1.82-2.28-2.79-3.59s-1.69-2.44-2.61-3.74-2.06-2.21-2.93-3.52-1.17-2.82-2-4.15-2.16-2.23-2.92-3.58a6.86,6.86,0,0,1-.32-5.15A13.6,13.6,0,0,1,464,506a30.79,30.79,0,0,1,3.49-3.81c1.26-1.16,3.27-1.44,4.6-2.45s2.7-2.34,4-3.17c2.52-1.64,1.78-2,4-3.2a23,23,0,0,0-1.28,4.95c-.21,1.37-.31,3-.53,4.82-.18,1.49.55,3.21.39,4.91-.14,1.55-.36,3.14-.46,4.81s0,3.19,0,4.83-.62,3.22-.58,4.84-.18,3.27-.05,4.86,1,3.18,1.21,4.74-.15,3.41.26,4.91A29.88,29.88,0,0,0,480.64,541.71Z"/><path class="cls-22" d="M377,682c1,1.83-.08,1.57,1.33,4,.57,1,1.67,1.94,2.51,3.34.63,1.06,1.64,2.07,2.44,3.37.67,1.09.58,2.78,1.37,4,.7,1.1,1.39,2.31,2.18,3.54s2.31,1.73,3.1,3a8.84,8.84,0,0,1,1.11,4.56,10.7,10.7,0,0,1-.82,4.57,13.29,13.29,0,0,1-2.79,3.71,6.07,6.07,0,0,1-4.29,1.28"/><path class="cls-22" d="M303.08,709.91c1.48,0,1.48.19,3,.18s1.48-.43,3-.43,1.48.71,3,.71,1.48-.39,3-.4,1.48-.44,3-.44,1.48.4,3,.4,1.49.25,3,.25,1.48-.68,3-.68,1.48.25,3,.25,1.48.31,3,.31,1.48-.58,3-.58,1.49-.1,3-.1,1.49.47,3,.47,1.48-.16,3-.17,1.48.49,3,.48,1.48-.77,3-.78,1.49,0,3,0,1.49.52,3,.52,1.49-.58,3-.59,1.48.49,3,.49,1.49.15,3,.15,1.49-.57,3-.58,1.49.37,3,.37"/><path class="cls-22" d="M346.28,675.69c1.48.35,1.66-.41,3.14-.05s1.3,1.1,2.77,1.45,1.61-.2,3.09.15,1.46.43,2.94.78,1.33,1,2.81,1.32,1.59-.11,3.07.24,1.48.39,3,.74"/><path class="cls-22" d="M492,685.28a14.91,14.91,0,0,1-2.39,1.26c-.8.36-1.82.63-2.88,1.11-.87.39-1.87.67-2.87,1.12s-1.8.92-2.77,1.35-1.81.94-2.77,1.36-2,.51-3,.92-1.6,1.49-2.54,1.89-2,.68-2.91,1.06-2.05.5-3,.87-1.74,1.35-2.65,1.7-2.15.42-3,.72-2,.5-2.94.86-1.9.88-2.76,1.29-2.05.67-2.87,1.15-1.46,1.65-2.19,2.21a12.75,12.75,0,0,0-2,2.23c-.76.89-1.8,1.4-2.05,2.24a4.84,4.84,0,0,0,0,3.17,6.84,6.84,0,0,0,2.08,2.37c.72.57,1.89.55,2.91,1a19.43,19.43,0,0,0,2.78,1.07c.92.25,1.77,1.13,2.83,1.3s2.06-.58,3.11-.5,2,.45,3,.45l2.94,0c1,0,2-.29,2.94-.29s2,.56,2.94.56,2-.54,2.94-.54,2,0,2.94,0,2,.41,2.94.41,2,0,2.95,0,2,.47,2.93.47,2-.88,2.94-.88,2,.62,2.94.62,2-.46,2.94-.46,2,.35,3,.35,2-.56,2.93-.56c1.06,0,2,.19,2.94.19,1.09,0,2.07-.2,2.94-.2,1.17,0,2.14.77,2.94.77,2,0,1.46.05,2.92.05"/><path class="cls-22" d="M454.79,710.36c1.48,0,1.48-.58,3-.58s1.48-.12,3-.12,1.48.49,3,.48,1.48-.07,3-.08,1.48-.16,3-.17,1.48-.4,3-.4,1.49.2,3,.19,1.48.59,3,.59,1.48-.69,3-.69,1.48-.18,3-.18,1.48,1,3,1,1.47-1,3-1,1.48,1,3,1,1.48-.42,3-.42,1.49-.17,3-.17,1.48-.46,3-.46,1.49,0,3,0,1.48.08,3,.08,1.49.43,3,.43,1.48.1,3,.1,1.49-.35,3-.36,1.48,0,3,0,1.48.31,3,.3,1.48.15,3,.15,1.49.17,3,.17"/><path class="cls-22" d="M511.26,680.54c1,1.71.34,1.55,1.63,3.65.59,1,2.09,1.62,2.89,2.88.65,1,1.5,2.07,2.26,3.25s1.56,2.07,2.32,3.21,1,2.49,1.74,3.6,1.07,2.48,1.84,3.56,1.76,2,2.54,3.06a6.86,6.86,0,0,1,1.5,4A8.9,8.9,0,0,1,526.8,712a11.34,11.34,0,0,1-2.89,3.18c-1.33,1.22-2.33,2.15-3.47,2.15"/><path class="cls-22" d="M300,201.54c-1.19.63-1.32.4-2.51,1s-1.13.74-2.33,1.38-1.27.5-2.46,1.14-.85,1.27-2.05,1.91-1.39.27-2.59.91-1.31.41-2.51,1.05-.87,1.25-2.07,1.89"/><path class="cls-22" d="M288.23,134.83a17.46,17.46,0,0,1,1.7,2.29,24.8,24.8,0,0,0,1.57,2.19,22.88,22.88,0,0,0,1.69,2.1,21.82,21.82,0,0,0,1.93,1.91,25.72,25.72,0,0,0,2.23,1.55,25.41,25.41,0,0,0,2.46,1.14,22,22,0,0,0,2.52,1,23,23,0,0,0,2.63.55"/><path class="cls-22" d="M285.07,298.28c1.47-1.45,1.31-.49,3.33-2.49.8-.8,1-2.54,2.14-3.69.87-.87,2.26-1.41,3.35-2.48.89-.9,2.16-1.58,3.21-2.63s1.69-2.06,2.72-3.1,1.46-2.33,2.48-3.35,2-1.81,3-2.82,2.45-1.37,3.46-2.38,2.11-1.7,3.12-2.71,1.14-2.69,2.14-3.69,2.37-1.46,3.37-2.46,1.41-2.42,2.41-3.42,2.14-1.69,3.14-2.68,2.16-1.69,3.15-2.68,1.67-2.19,2.66-3.18S331.05,253,332,252s2-1.87,3-2.86,1.82-2,2.81-3,2.09-1.76,3.08-2.75,1.39-2.47,2.38-3.46,1.65-2.21,2.64-3.19,2-1.89,3-2.88,2-1.9,3-2.89,2.57-1.22,3.72-2.11a40.19,40.19,0,0,1,3.42-2.34c1.16-.71,2-2.06,3.29-2.69s2.72-.73,4-1.25,2.64-.79,4-1.2,2.6-1,4-1.26,2.79,0,4.19-.2,2.7-.68,4.11-.74,2.79-.6,4.19-.53,2.68,1.15,4.07,1.34,2.92-.5,4.28-.17,2.7.81,4,1.27,2.75.72,4,1.31,2.18,1.86,3.4,2.57,2.51,1.23,3.66,2.06a42,42,0,0,1,3.61,2.24c1,.89,2.06,1.91,3.05,2.94s1.81,2.14,2.72,3.24,1.67,2.22,2.5,3.39,1.15,2.55,1.89,3.77.83,2.67,1.51,3.93,2.26,1.94,2.86,3.24,1.42,2.42,2,3.74.36,2.83.84,4.18.84,2.62,1.26,4,.53,2.67,1,4.09.83,2.6,1.25,4,.71,2.66,1.12,4,1.72,2.37,2.13,3.74-.3,3,.11,4.35,2,2.31,2.37,3.67-.53,3-.13,4.41,1.5,2.46,1.9,3.82,1.3,2.52,1.7,3.87.38,2.79.78,4.15.08,2.88.47,4.23,1.88,2.36,2.27,3.71.37,2.79.76,4.14,0,2.9.41,4.25,1.28,2.55,1.66,3.89.44,2.79.83,4.14.6,2.74,1,4.08,1.31,2.55,1.69,3.88.22,2.87.6,4.2.71,2.73,1.1,4.06.92,2.66,1.3,4,1.72,2.44,2.1,3.76.36,2.84.74,4.16.5,2.8.88,4.11,1.47,2.53,1.84,3.84.67,2.77,1,4.07.2,2.91.57,4.2.43,2.87.79,4.13c.42,1.46,1,2.76,1.34,4,.44,1.55,1.12,2.82,1.44,3.95a17,17,0,0,1,.74,4"/><path class="cls-22" d="M287.88,283.37c1.21,1.63,1.08,1.73,2.28,3.36s1.36,1.52,2.57,3.15,1,1.76,2.25,3.39,1.48,1.43,2.68,3.06,1.55,1.39,2.76,3,.35,2.26,1.56,3.89,2.26.86,3.47,2.49.4,2.23,1.61,3.86,1.69,1.28,2.89,2.91.9,1.86,2.11,3.5,1.28,1.58,2.48,3.21,1,1.76,2.26,3.39,1.9,1.13,3.11,2.77.61,2,2.25,3.19c1.25-.57,2.38-.22,3.64-.79s2.59-.94,3.85-1.51,2.35-1.47,3.61-2,2.62-.9,3.87-1.47,2.56-1,3.81-1.61,2.4-1.39,3.65-2,2.13-2,3.37-2.55,2.57-1,3.81-1.62,2.44-1.27,3.67-1.89,2.76-.68,4-1.32,2.18-1.79,3.38-2.45,2.58-1.06,3.77-1.74,2.53-1.16,3.7-1.87,2.09-1.89,3.24-2.63,2.31-1.53,3.43-2.3,2.4-1.41,3.5-2.22,1.79-2.19,2.85-3.05,2.48-1.34,3.5-2.25,1.61-2.31,2.58-3.27,2.6-1.34,3.5-2.36,1.45-2.4,2.29-3.48,2.14-1.89,2.89-3,1.45-2.4,2.11-3.6.33-2.89.88-4.16,1-2.49,1.45-3.8,1.76-2.35,2.06-3.71.16-2.77.33-4.15-.07-2.74,0-4.14,1-2.74,1-4.15-.78-2.69-1-4.09-.11-2.76-.38-4.14"/><path class="cls-22" d="M316.67,336.07c-1.19,1.82-1.25,1.78-2.43,3.59s-1,2-2.14,3.78-1.4,1.67-2.59,3.49-1.25,1.77-2.44,3.58-1,2-2.15,3.78-.95,2-2.13,3.78l-2.37,3.63c-1.18,1.82-1.15,1.84-2.33,3.66s-.74,2.11-1.92,3.93-1,2.07-2.53,3.63-1.73.93-4.28,1.69c-1.23.37-2.81.29-4.36.74-1.35.39-2.86.51-4.32.92s-2.73,1.24-4.13,1.62-3.11,0-4.46.36c-1.6.4-2.92,1.34-4.15,1.59a35.5,35.5,0,0,0-4,.73,10.44,10.44,0,0,0-3.45,2.08,6.52,6.52,0,0,0-2,3.32,12,12,0,0,0-.71,3.94,32.18,32.18,0,0,0,.62,4,31.6,31.6,0,0,0,1.06,4.14c.42,1.51-.06,3.23.46,4.43a27.53,27.53,0,0,0,2.33,3.72c1.42,2.29.88,2.21,2.43,3.71"/><path class="cls-22" d="M281,404.7a14.07,14.07,0,0,0,4.39-.32,43.12,43.12,0,0,0,4.13-1.59,33.12,33.12,0,0,0,4.15-1.47,36.59,36.59,0,0,0,3.81-2.22,41.48,41.48,0,0,0,3.37-2.83,39.67,39.67,0,0,0,3.49-2.71,42.26,42.26,0,0,0,3.16-3.13c.88-1.11,1.36-2.6,2.2-3.88"/><path class="cls-22" d="M189.47,306.53l3.5,1.2c1.12.38,2.34,1.12,3.84,1.63,1.2.41,2.49.94,3.91,1.43,1.24.42,2.86,0,4.24.44s2.39,1.42,3.75,1.89,2.74.44,4.09.91,2.51,1.14,3.85,1.6,2.54,1.09,3.86,1.55,2.66.76,4,1.22,2.34,1.69,3.66,2.16,2.75.52,4.06,1,2.66.84,4,1.3,2.42,1.52,3.72,2,2.92.1,4.21.56,2.51,1.32,3.79,1.78,2.92.18,4.2.64,2.2,2.2,3.46,2.66,3.09-.19,4.34.28,2.43,1.66,3.64,2.13c1.42.54,2.82.8,4,1.26s2.52,1.05,3.76,1.47,2.55,1,3.82,1.32,2.67.52,4,.76,2.62,1,3.94,1.12,2.73-.06,4.07,0,2.65-.83,4-.93,2.78.86,4.13.65,2.48-1.25,3.82-1.54,2.47-1,3.79-1.34,2.58-.58,3.88-1,2.86.08,4.15-.41,2.17-1.74,3.45-2.26,2.36-1.24,3.62-1.79,2.56-.79,3.82-1.36"/><path class="cls-22" d="M268.45,395.32c.24,1.31.3,2.61.6,3.7a34.19,34.19,0,0,0,1.45,3.47c.81,2.18,1.23,1.47,2.14,3.08"/><path class="cls-22" d="M268.21,395.24a39.59,39.59,0,0,0,4.85.52c1.23,0,2.64-.45,4.19-.55a35.46,35.46,0,0,0,4.23-.07,28.28,28.28,0,0,0,4-1.25,21.54,21.54,0,0,0,3.85-1.69c1.19-.71,2.67-1.2,3.68-2.22"/><path class="cls-22" d="M418.91,276c-.91,1.9-.21,2.23-1.12,4.13s-.79,2-1.7,3.86-1.42,1.66-2.33,3.57-.06,2.31-1,4.21-1.48,1.64-2.38,3.54-1,1.85-1.92,3.76-.9,1.9-1.81,3.81-.55,2.07-1.45,4-.66,2-1.57,3.93-1.43,1.66-2.34,3.57"/><path d="M293.3,290.4a44,44,0,0,0-3.06-3.44,40,40,0,0,0-3.48-2.8c-1.22-1-2.25-2.31-3.51-2.84a4.76,4.76,0,0,0-4.32.45c-1.43.82-1.15,2-.33,3.74a20,20,0,0,0,2.73,3.6c1,1.24,1.8,2.63,2.81,3.67,1.83,1.87,3.55,3.9,3.55,3.9,1.49-1.48.77-2.21,2.3-3.66S291.81,291.88,293.3,290.4Z"/><path class="cls-22" d="M293.3,290.4a44,44,0,0,0-3.06-3.44,40,40,0,0,0-3.48-2.8c-1.22-1-2.25-2.31-3.51-2.84a4.76,4.76,0,0,0-4.32.45c-1.43.82-1.15,2-.33,3.74a20,20,0,0,0,2.73,3.6c1,1.24,1.8,2.63,2.81,3.67,1.83,1.87,3.55,3.9,3.55,3.9,1.49-1.48.77-2.21,2.3-3.66S291.81,291.88,293.3,290.4Z"/><path class="cls-22" d="M286.07,471.58c-2.14-.84-1.7-2-3.84-2.81s-2.16-.79-4.31-1.63-2.17-.76-4.31-1.6-2.37-.26-4.51-1.1-1.86-1.56-4-2.4-2.47,0-4.61-.84-2.31-.41-4.46-1.25-1.92-1.41-4.06-2.25-2.45,0-4.6-.88-2-1.28-4.11-2.12-2.28-.51-4.42-1.35-2.07-1-4.21-1.87-1.84-1.62-4-2.46-2.4-.16-4.55-1-1.87-1.55-4-2.39-2.45-.07-4.6-.91-3.68.23-4.57-1.9.92-2.55,1.79-4.77.91-2.2,1.78-4.42.5-2.37,1.37-4.59,1.46-2,2.33-4.21,1.72-1.89,2.58-4.11-.25-2.66.62-4.89.61-2.32,1.48-4.55"/><path class="cls-22" d="M270.42,401c2.07.85,2.59-.41,4.65.43s2,1.12,4,2,1.61,1.95,3.68,2.8,2.26.39,4.33,1.24,2.1.76,4.17,1.61,2.16.64,4.23,1.49,1.75,1.64,3.82,2.49,2.65-.56,4.72.29,3.58.12,4.39,2.21-1.13,2.55-2,4.78-1.4,2-2.27,4.26-.75,2.28-1.62,4.52-.61,2.33-1.49,4.57-1.27,2.07-2.14,4.31.09,2.61-.78,4.84-1.41,2-2.29,4.26-.64,2.32-1.52,4.55-1.12,2.14-2,4.38-.75,2.28-1.62,4.52-1.34,2.06-2.21,4.29"/><path class="cls-22" d="M253.48,393.78c2.66,1,2.31,1.94,5,3"/><path class="cls-22" d="M228.55,404c-1.54,1.45,1.58.81,3.78,1.67,1.24.49,2.82.56,4.13,1.07,1.54.6,2.64,2,3.6,2.38,1.68.67,3.6-.13,5.22-.66,1.47-.48,3.49-.92,4.28-3,.64-1.64,1.54-3.58,2.26-5.41,1.14-2.93,4.29-5.09,1.48-5.92-2.12-.63-2.14.94-4.2,1.74s-2.11.66-4.17,1.45-2.08.78-4.14,1.57-2.24.34-4.3,1.14-1.85,1.26-4,1.83S230.15,402.48,228.55,404Z"/><path class="cls-22" d="M229.44,438.22c.9-2.29.48-2.46,1.37-4.75s1.26-2.16,2.16-4.45.55-2.43,1.44-4.73,1.36-2.12,2.26-4.41.59-2.42,1.49-4.72"/><path class="cls-22" d="M241.88,443.09c.82-2.1.15-2.37,1-4.47s1-2,1.84-4.12.74-2.13,1.56-4.23,2-1.62,2.87-3.72-.44-2.59.38-4.69,2.12-1.6,2.95-3.7.4-2.27,1.23-4.37.43-2.25,1.26-4.36"/><path class="cls-22" d="M253.31,447.56c.81-2.08,2.06-1.59,2.87-3.68s1-2,1.79-4.1.28-2.29,1.1-4.38,1.42-1.85,2.24-3.93-.3-2.53.51-4.61"/><path class="cls-22" d="M281,306.5c-2-.44-1.9-.95-3.92-1.39s-2.19.38-4.21-.06-2-.51-4-.95-2.05-.27-4.07-.71-2.07-.19-4.08-.63-1.88-1.05-3.9-1.5-2-.47-4-.91-2.1,0-4.12-.48-1.78-1.52-3.79-2-2.15.2-4.17-.24-1.88-1-3.9-1.47-2-.42-4-.86-2-.42-4-.86-2.08-.13-4.1-.58-2.2.4-4.21,0-1.93-.83-3.95-1.27-1.91-.93-3.93-1.37-2.13.11-4.15-.33-2-.55-4-1l-4-.87c-2-.45-1.94-.82-4-1.26a13.26,13.26,0,0,1-3.86-1.16c-2-.89-.94-1.14-2.56-3.23-.79-1-2.42-1.65-3.41-2.93-.85-1.11-1.66-2.37-2.57-3.58s-1.35-2.68-2.21-3.85-1.69-2.5-2.5-3.63c-1-1.34-2.23-2.29-2.91-3.34a35.56,35.56,0,0,0-2.09-3.5c-1-1.15-2.37-1.43-3.46-2a5.76,5.76,0,0,0-3.6-.61c-1.16.09-2.74-.83-4.2-.22-1.11.45-2,1.75-3.32,2.52s-2.95.75-4.27,1.57-2.47,1.66-3.74,2.47-2.21,2.13-3.44,2.92-2.7,1.48-3.87,2.25c-1.39.91-2.46,2-3.54,2.75-2.26,1.5-3.71,2.36-3.71,2.36"/><path class="cls-22" d="M161,285.94c0,2.18-.55,1.88-.2,4.42.17,1.28,1.6,2.51,2,4,.37,1.35-.22,3.15.43,4.48s2.17,2.08,3.13,3.18a11.65,11.65,0,0,0,3.38,2.48c1.19.66,2.25,2,3.8,2.22a19.06,19.06,0,0,0,4.41-.39"/><path class="cls-22" d="M161.34,269.86c-1.21.71-2.93.76-4.26,1.57s-2.53,1.55-3.8,2.35-2.24,2.08-3.47,2.87-2.56,1.68-3.74,2.45c-1.39.91-2.62,1.79-3.7,2.5-2.26,1.51-3.39,2.18-3.39,2.18"/><path class="cls-22" d="M141.49,289.72c1.12-.65,2.33-1.25,3.51-1.94s2.08-1.76,3.23-2.43l3.49-2c1.22-.7,2.49-1.21,3.58-1.84,1.29-.74,2.44-1.47,3.45-2,2.13-1.22,1.38-1.61,3.12-2.61"/><path class="cls-22" d="M145,295.91c1.12-.66,1.83-2,2.89-2.56s2.56-.76,3.6-1.36,1.86-2,2.87-2.59c1.24-.72,2.23-1.55,3.16-2.08,2.07-1.18,1.71-.82,3.35-1.75"/><path class="cls-22" d="M156.64,256.34c0-2.4.6-2.4.6-4.81s-1.26-2.41-1.26-4.81,1.84-2.6.26-4.41c-1.37-1.58-1.63-.08-3.72-.08s-2.09-.12-4.19-.12-2.09-.72-4.18-.72-2.09.08-4.19.08-2.09-.1-4.18-.1-2.1,1-4.19,1-2.09-1-4.18-1-2.1,1-4.19,1-2.09-.84-4.18-.84-2.09-.35-4.19-.35-2.09.1-4.18.1-2.09,1.26-4.19,1.26-2.09-1.28-4.18-1.28-2.09.49-4.19.49-2.09.78-4.18.78-2.1,0-4.19,0-2.1-1.3-4.19-1.3-2.09.62-4.19.62-2.09-.41-4.19-.41-2.09.11-4.19.11-2.09-.39-4.19-.39-2.29-.36-3.76,1.14-.86,1.7-.86,3.83,1,2.13,1,4.26-.39,2.14-.39,4.27-.14,2.13-.14,4.26.2,2.13.2,4.27.43,2.13.43,4.26-1.37,2.13-1.37,4.26.81,2.14.81,4.27.25,2.13.25,4.26-.31,2.14-.31,4.27-.63,2.13-.63,4.27,1.16,2.13,1.16,4.26-.26,2.14-.26,4.27-.26,2.13-.26,4.27.44,2.13.44,4.27-.94,2.14-.94,4.27-.89,2.57.6,4.1,1.92.39,4,.39,2.09-.4,4.18-.4,2.1-.49,4.19-.49,2.09.65,4.18.65,2.1-.44,4.19-.44,2.09.66,4.19.66h4.18c2.09,0,2.09-.31,4.19-.31s2.09.47,4.18.47,2.09-.92,4.18-.92,2.09.39,4.19.39,2.09-.51,4.18-.51S116.9,315,119,315h4.18c2.1,0,2.1,0,4.19,0s2.1,0,4.19,0h4.19c2.09,0,2.09-.8,4.18-.8s2.1-.2,4.19-.2h4.19c2.1,0,2.1.93,4.2.93s3.08,1.42,4.54-.09-.16-2.5-.16-4.67-.5-2.17-.5-4.34.9-2.16.9-4.33-1.1-2.17-1.1-4.34-.09-2.17-.09-4.34,0-2.17,0-4.34"/><path d="M64.59,314.52a25.9,25.9,0,0,0,2.66-3.06c.69-.91,1.1-2.29,2-3.48.74-1,1.7-1.93,2.55-3.05s1.1-2.45,1.94-3.54,2.57-1.34,3.39-2.41,1.55-2.15,2.37-3.2.71-2.83,1.53-3.87,1.6-2.15,2.41-3.17,2.56-1.43,3.36-2.42,1.29-2.49,2.07-3.45c.94-1.14,1.88-2.11,2.63-3a20.36,20.36,0,0,1,2.61-3,11.51,11.51,0,0,1,3.63-2c1.31-.3,2.71.62,4,.95a11.43,11.43,0,0,1,3.33,1.85,18.78,18.78,0,0,1,3,2.38,33.87,33.87,0,0,1,2.39,3c.79,1,1.92,1.76,2.67,2.88s2.06,1.79,2.64,2.67c.87,1.32,1.17,2.55,1.71,3.27,1.27,1.72,1.94,2.35,3,1.54.64-.5,1.65-1.19,2.9-2.31s2.1-2.37,3.38-3a7.25,7.25,0,0,1,4.36-.76,8.37,8.37,0,0,1,3.95,2,18.4,18.4,0,0,1,3.07,3.29c.75,1,1.6,2.06,2.53,3.21s1.64,2.12,2.53,3.21,2.26,1.66,3.14,2.71,1.16,2.61,2,3.64,2,2,2.83,3c1,1.15,2.47,1.71,3.24,2.61a15.66,15.66,0,0,1,2.27,3.4c-2.09,0-2.09-.29-4.18-.29s-2.09.35-4.19.35-2.09.51-4.18.51-2.09-.15-4.19-.15-2.09-.18-4.18-.18-2.1-.79-4.19-.79-2.09.67-4.18.67-2.1-.52-4.19-.52-2.09.7-4.18.7-2.09-.53-4.19-.53-2.09-.13-4.18-.13-2.09-.27-4.19-.27-2.09.26-4.18.26-2.09.69-4.19.69-2.09-.16-4.18-.16-2.1-.81-4.19-.81-2.1.81-4.19.81-2.09-.3-4.19-.3-2.09.84-4.19.84-2.09-.39-4.19-.39-2.1-.45-4.19-.42S66.69,314.53,64.59,314.52Z"/><path class="cls-22" d="M64.59,314.52a25.9,25.9,0,0,0,2.66-3.06c.69-.91,1.1-2.29,2-3.48.74-1,1.7-1.93,2.55-3.05s1.1-2.45,1.94-3.54,2.57-1.34,3.39-2.41,1.55-2.15,2.37-3.2.71-2.83,1.53-3.87,1.6-2.15,2.41-3.17,2.56-1.43,3.36-2.42,1.29-2.49,2.07-3.45c.94-1.14,1.88-2.11,2.63-3a20.36,20.36,0,0,1,2.61-3,11.51,11.51,0,0,1,3.63-2c1.31-.3,2.71.62,4,.95a11.43,11.43,0,0,1,3.33,1.85,18.78,18.78,0,0,1,3,2.38,33.87,33.87,0,0,1,2.39,3c.79,1,1.92,1.76,2.67,2.88s2.06,1.79,2.64,2.67c.87,1.32,1.17,2.55,1.71,3.27,1.27,1.72,1.94,2.35,3,1.54.64-.5,1.65-1.19,2.9-2.31s2.1-2.37,3.38-3a7.25,7.25,0,0,1,4.36-.76,8.37,8.37,0,0,1,3.95,2,18.4,18.4,0,0,1,3.07,3.29c.75,1,1.6,2.06,2.53,3.21s1.64,2.12,2.53,3.21,2.26,1.66,3.14,2.71,1.16,2.61,2,3.64,2,2,2.83,3c1,1.15,2.47,1.71,3.24,2.61a15.66,15.66,0,0,1,2.27,3.4c-2.09,0-2.09-.29-4.18-.29s-2.09.35-4.19.35-2.09.51-4.18.51-2.09-.15-4.19-.15-2.09-.18-4.18-.18-2.1-.79-4.19-.79-2.09.67-4.18.67-2.1-.52-4.19-.52-2.09.7-4.18.7-2.09-.53-4.19-.53-2.09-.13-4.18-.13-2.09-.27-4.19-.27-2.09.26-4.18.26-2.09.69-4.19.69-2.09-.16-4.18-.16-2.1-.81-4.19-.81-2.1.81-4.19.81-2.09-.3-4.19-.3-2.09.84-4.19.84-2.09-.39-4.19-.39-2.1-.45-4.19-.42S66.69,314.53,64.59,314.52Z"/><path d="M139,262.42c0,1.42-1.35,2.49-2,3.63s-1,2.88-2.13,3.56a8.83,8.83,0,0,1-4.15,1.07,9,9,0,0,1-4.23-.93,9,9,0,0,1-2.74-3.31c-.66-1.14-.52-2.6-.52-4s-.15-2.88.51-4,2.12-1.65,3.3-2.33a7.05,7.05,0,0,1,3.68-1.22,7.93,7.93,0,0,1,4,.68c1.18.68,1.75,2,2.43,3.2S139,261,139,262.42Z"/><path class="cls-22" d="M139,262.42c0,1.42-1.35,2.49-2,3.63s-1,2.88-2.13,3.56a8.83,8.83,0,0,1-4.15,1.07,9,9,0,0,1-4.23-.93,9,9,0,0,1-2.74-3.31c-.66-1.14-.52-2.6-.52-4s-.15-2.88.51-4,2.12-1.65,3.3-2.33a7.05,7.05,0,0,1,3.68-1.22,7.93,7.93,0,0,1,4,.68c1.18.68,1.75,2,2.43,3.2S139,261,139,262.42Z"/><path class="cls-22" d="M13.83,274.09c1.46-1.46,2.24-.68,3.7-2.14s.92-2,2.38-3.46,1.8-1.12,3.26-2.58,1.52-1.4,3-2.86,1.18-1.74,2.64-3.2,1.05-1.87,2.51-3.33,2.31-.61,3.77-2.07,1.52-1.41,3-2.87.8-2.12,2.26-3.58,1.91-1,3.37-2.47,1-1.87,2.51-3.33,1.13-1.79,2.59-3.25,1.5-1.43,3-2.89,2.36-.56,3.82-2l2.93-2.92c1.46-1.46.78-2.14,2.24-3.6s1.25-1.67,2.71-3.13,2.14-.78,3.6-2.24.94-2,2.4-3.43,2-1,3.42-2.42,1.39-1.54,2.85-3,1.58-1.34,3-2.8,1.25-1.67,2.71-3.13,1.6-1.33,3.06-2.8,1.25-1.67,2.71-3.13,1.93-1,3.39-2.45.58-2.35,2-3.81,2.06-.87,3.52-2.33,1-1.87,2.51-3.33,1.29-1.64,2.75-3.11,1.72-1.21,3.18-2.67,1.92-1,3.39-2.46.95-2,2.41-3.45,1.69-1.24,3.16-2.71"/><path class="cls-22" d="M105.28,166.83c-1.46,1.46-1.2,1.72-2.66,3.18s-2,.88-3.5,2.34-1,2-2.42,3.42-1.81,1.1-3.27,2.56-1.61,1.32-3.07,2.78-1,1.88-2.5,3.34-2,1-3.43,2.41-.56,2.37-2,3.83-2.28.64-3.74,2.1-1,1.9-2.48,3.36-2,1-3.42,2.42-1.2,1.72-2.67,3.18-1.49,1.42-2.95,2.89-1.31,1.61-2.77,3.07-.87,2-2.34,3.51-1.75,1.16-3.21,2.62-1.16,1.76-2.62,3.22-2,.92-3.46,2.38-1.54,1.38-3,2.84-1.27,1.66-2.73,3.12-2,.94-3.44,2.4-.73,2.18-2.19,3.65-2,.88-3.5,2.34-1.37,1.55-2.84,3-1.54,1.37-3,2.84-1.35,1.57-2.81,3-1.25,1.68-2.71,3.14-1.2,1.73-2.66,3.19-2.14.79-3.6,2.25-.89,2-2.36,3.49-2,1-3.42,2.43-1,1.95-2.44,3.41-1.42,1.51-2.88,3-3.32.58-3.59,2.63c-.21,1.57,1.74,1,2.86,2.1s1.32.92,2.44,2"/><path class="cls-22" d="M32.85,232.29c-1.09-1.58-1.28-1.08-2.33-3-.55-1-.91-2.3-1.42-3.56a22.41,22.41,0,0,1-1.34-3.58c-.27-1.31.27-2.52.44-3.72a4.65,4.65,0,0,1,1.41-3c.78-.78.9-2.63,2-3.75.88-.89,2.5-1.21,3.53-2.24s1.82-2,2.81-3,1.5-2.35,2.46-3.31,2.45-1.44,3.4-2.38,1.88-2.07,2.79-3c1.06-1.06,1.52-2.55,2.38-3.4,1.26-1.27,3.11-1.43,3.72-2.05,1-1,1.54-2.67,2.83-2.89s2.61.87,3.94,1.11,2.68.07,3.89.53A36.83,36.83,0,0,1,67,192.51a17.17,17.17,0,0,1,3.4,2.34"/><path class="cls-21" d="M665.68,303.86c-1.45-1.47-2.08,0-4.15,0s-2.06.62-4.12.62h-4.12c-2.07,0-2.07-1.15-4.13-1.15s-2.06.08-4.12.08-2.07.06-4.13.06-2.06.13-4.12.13-2.07,0-4.13,0-2.06.37-4.12.37-2.07-.39-4.13-.39-2.06.41-4.12.41-2.06.42-4.12.42-2.06.14-4.13.14-2.06-.6-4.12-.6-2.06-.11-4.13-.11-2.06.32-4.12.32-2.07.23-4.13.23-2.06-1.14-4.13-1.14-2.06.09-4.13.09h-4.12c-2.07,0-2.07,1.19-4.13,1.19s-2.06-.75-4.13-.75-2.07-.35-4.13-.35-2.54-.87-4,.59.46,2,.46,4-.31,2.09-.31,4.18-.39,2.09-.39,4.17.5,2.09.5,4.18-.53,2.09-.53,4.18-.07,2.09-.07,4.18.58,2.09.58,4.18.15,2.09.15,4.18,0,2.09,0,4.18-.84,2.09-.84,4.18.08,2.1.08,4.19,0,2.09,0,4.18.78,2.09.78,4.18-.25,2.09-.25,4.18.12,2.1.12,4.19-1.41,2.24.06,3.74,1.6,1.09,3.67,1.09,2.06-.84,4.12-.84,2.06-.22,4.12-.22,2.07.77,4.13.77,2.06-.91,4.12-.91,2.07.5,4.13.5,2.06-.27,4.12-.27,2.07,1,4.13,1,2.06-1.31,4.12-1.31,2.07,1.31,4.13,1.31H612c2.06,0,2.06-.27,4.13-.27s2.06.24,4.12.24,2.06-.62,4.12-.62,2.07-.72,4.13-.72,2.06.93,4.12.93,2.07.25,4.13.25,2.06-.91,4.13-.91,2.06.92,4.13.92,2.06-.7,4.12-.7,2.07-.51,4.13-.51,2.07.39,4.13.39,2.07.11,4.13.11,3.13,2.12,4.59.65-.57-2.53-.57-4.62.55-2.09.55-4.18-.5-2.09-.5-4.17.6-2.09.6-4.18-.67-2.09-.67-4.18.85-2.09.85-4.18-1.06-2.09-1.06-4.18.89-2.09.89-4.18-.72-2.09-.72-4.18.53-2.09.53-4.18-.47-2.09-.47-4.19.25-2.09.25-4.18.12-2.09.12-4.18.36-2.09.36-4.18-.89-2.11-.45-4.15C666.3,305.91,667.15,305.35,665.68,303.86Z"/><path class="cls-21" d="M665.91,404.78c-1.45-1.47-2.31-.23-4.38-.23s-2.06.65-4.12.65-2.06-.39-4.12-.39-2.07.16-4.13.16-2.06-.56-4.12-.56-2.07.92-4.13.92l-4.12,0c-2.07,0-2.07,0-4.13,0s-2.06-.87-4.12-.87-2.07,1-4.13,1-2.06-.7-4.12-.7-2.06.59-4.12.59-2.06,0-4.13,0-2.06-.88-4.12-.88-2.06,0-4.13,0-2.06.65-4.12.65-2.07-.66-4.13-.66-2.06,1.12-4.13,1.12-2.06-.8-4.13-.8-2.06.84-4.12.84-2.07-.35-4.13-.35-2.06-.45-4.13-.45-2.07-.15-4.13-.15-2.72-1.08-4.17.39.41,2.12.41,4.21-.6,2.09-.6,4.18.16,2.09.16,4.18-.12,2.08-.12,4.17.7,2.09.7,4.18-.48,2.09-.48,4.18.48,2.09.48,4.18-.26,2.09-.26,4.18.17,2.09.17,4.18-.32,2.09-.32,4.18-.72,2.1-.72,4.19.22,2.09.22,4.18.32,2.09.32,4.18.69,2.09.69,4.18-.55,2.1-.55,4.19-1.87,3-.4,4.52,2.39-1,4.46-1,2.06.61,4.12.61,2.06-.29,4.12-.29,2.07-.15,4.13-.15,2.06-.15,4.12-.15,2.07.48,4.13.48,2.06.59,4.12.59,2.07-.8,4.13-.8,2.06.26,4.12.26,2.07.22,4.13.22,2.06-.23,4.12-.23,2.06.47,4.13.47,2.06-.67,4.12-.67,2.06-.18,4.12-.18,2.07-.15,4.13-.15,2.06.49,4.12.49,2.07-.44,4.13-.44,2.06.22,4.13.22,2.06.16,4.13.16,2.06.88,4.12.88,2.07-.67,4.13-.67,2.07.7,4.13.7,2.07,0,4.13,0,2.67.8,4.12-.67-.33-2.07-.33-4.16.92-2.09.92-4.18-.34-2.08-.34-4.17-.69-2.09-.69-4.18S665,453.12,665,451s1.22-2.09,1.22-4.18-1-2.09-1-4.18.31-2.09.31-4.18.89-2.09.89-4.18-.56-2.09-.56-4.18.61-2.09.61-4.18-.56-2.09-.56-4.18-.29-2.09-.29-4.19.73-2.09.73-4.18-.56-2-.07-4.06C666.74,407,667.38,406.27,665.91,404.78Z"/><path class="cls-21" d="M666,505.86c-1.45-1.47-2.37,1-4.44,1s-2.06-.38-4.12-.38-2.06-.74-4.12-.74-2.07.46-4.13.46-2.06-.09-4.12-.09-2.07.49-4.13.49h-4.12c-2.07,0-2.07-.16-4.13-.16s-2.06-.16-4.12-.16-2.07.58-4.13.58-2.06-.33-4.12-.33-2.06-.95-4.12-.95-2.06-.08-4.13-.08-2.06,0-4.12,0-2.06.29-4.13.29-2.06.77-4.12.77-2.07-.17-4.13-.17-2.06.28-4.13.28-2.06-1-4.13-1-2.06,1.22-4.12,1.22-2.07-1.13-4.13-1.13-2.06.41-4.13.41-2.07.06-4.13.06-2.55-1.33-4,.14,0,2,0,4,.31,2.09.31,4.18-.59,2.09-.59,4.18-.45,2.09-.45,4.18,1.19,2.08,1.19,4.17-.91,2.09-.91,4.18-.23,2.09-.23,4.18.95,2.09.95,4.18-.79,2.09-.79,4.18.87,2.09.87,4.19-.71,2.09-.71,4.18.6,2.09.6,4.18.05,2.09.05,4.18.17,2.09.17,4.18-.69,2.1-.69,4.19-1.47,2.78,0,4.27,2.14.38,4.21.38,2.06-.6,4.12-.6,2.06.6,4.12.6,2.07-.2,4.13-.2,2.06-.22,4.12-.22,2.07.2,4.13.2,2.06.32,4.12.32,2.07-.67,4.13-.67,2.06-.24,4.12-.24,2.07-.09,4.13-.09,2.06-.16,4.12-.16,2.06.37,4.13.37,2.06.17,4.12.17,2.06.62,4.12.62,2.07-1.25,4.13-1.25h4.12c2.07,0,2.07.33,4.13.33s2.06-.33,4.13-.33,2.06.57,4.13.57,2.06.35,4.12.35,2.07-.26,4.13-.26,2.07.71,4.13.71,2.07-1.14,4.13-1.14,2.78,2,4.23.56-.26-2.18-.26-4.27-.44-2.09-.44-4.18.35-2.08.35-4.17.55-2.09.55-4.18-.88-2.09-.88-4.18.84-2.09.84-4.18-.09-2.09-.09-4.17-.41-2.09-.41-4.18.42-2.1.42-4.19-.42-2.09-.42-4.18.06-2.09.06-4.18.76-2.09.76-4.18-.33-2.09-.33-4.18-.23-2.1-.23-4.19-.42-2.13.08-4.17C666.32,508,667.43,507.35,666,505.86Z"/><path class="cls-22" d="M559,318.23c-1.48,1.53.08,1.65.08,3.77s0,2.13,0,4.25S558,328.38,558,330.5s0,2.13,0,4.25.33,2.13.33,4.25.67,2.13.67,4.25-1.13,2.13-1.13,4.26.92,2.12.92,4.25-.24,2.13-.24,4.25-.21,2.13-.21,4.26.75,2.12.75,4.25-.95,2.13-.95,4.26,0,2.13,0,4.26-1.39,3,.09,4.53,2.33.33,4.38.33,2.05-1.11,4.1-1.11,2,1.18,4.09,1.18,2-.81,4.1-.81,2,.26,4.09.26,2,.58,4.1.58,2-.68,4.09-.68,2,.2,4.1.2,2,.48,4.09.48,2-.26,4.1-.26,2.05-.64,4.09-.64,2,.44,4.1.44,2,0,4.09,0,2,.28,4.1.28,2-1,4.09-1l4.1,0c2,0,2,.22,4.1.22s2-.27,4.09-.27,2.05.61,4.1.61,2.05-.56,4.1-.56,2,.28,4.1.28,2-.49,4.1-.49,2,.89,4.1.89,2.62,1.14,4-.34-.07-2.07-.07-4.2-.38-2.13-.38-4.27.85-2.13.85-4.26-.69-2.13-.69-4.26.13-2.13.13-4.26.07-2.14.07-4.27-.28-2.13-.28-4.26.91-2.14.91-4.27-1.18-2.13-1.18-4.26.24-2.14.24-4.27.71-2.13.71-4.27-.26-2.13-.26-4.26.2-2.14.2-4.27-.47-2.13-.47-4.27-.29-2.13-.29-4.27.92-2.14.92-4.27-1-2.14-1-4.28c0,0-.9.06-3.38.06-1.17,0-2.53-.7-4-.7-1.26,0-2.62.43-4,.43s-2.67-.07-4-.07-2.69.15-4,.15-2.72.09-4.05.09-2.75.68-4,.68c-1.44,0-2.84-.44-4.19-.09a20.3,20.3,0,0,0-3.79,1.82,26.46,26.46,0,0,0-3.58,2.14,36.51,36.51,0,0,0-3.44,2.43c-1.17,1-2.78,1.47-3.62,2.38a9.91,9.91,0,0,0-2.24,3.66c-2,0-2-.52-4.09-.52s-2,.79-4.1.79-2.05-.43-4.09-.43-2.05-.08-4.1-.08-2-.14-4.09-.14-2,.4-4.1.4-2,.35-4.1.35-2,.09-4.09.09-2,.11-4.1.11l-4.1,0c-2,0-2-.69-4-1S560.38,316.75,559,318.23Z"/><path class="cls-22" d="M558.42,317.75c0-2.08.28-2.08.28-4.16s-.53-2.08-.53-4.16.39-2.08.39-4.16-.66-2.09-.66-4.17-.72-2.51.74-4,1.87,0,3.92,0,2.05.39,4.09.39,2.05-1.22,4.1-1.22,2,.65,4.09.65,2,.72,4.1.72,2-1.35,4.09-1.35,2.05.28,4.1.28,2,.77,4.1.77,2-.57,4.09-.57,2,.67,4.1.67,2.05-.67,4.1-.67,2.08-.41,3.86.62c2,1.19,2,1.28,3.29,3.24s.6,2.46,1.93,4.41"/><path d="M664.72,366.44c-1.51,1.48-2.62-.4-4.74-.4s-2.11.29-4.23.29-2.11.07-4.23.07-2.11-.56-4.23-.56-2.11-.61-4.23-.61-2.12,1-4.23,1-2.12-.07-4.23-.07-2.12-.87-4.24-.87-2.11,1-4.23,1-2.12-.65-4.24-.65-2.38,1.42-3.89-.06-.06-1.73-.06-3.8.34-2.07.34-4.15,0-2.07,0-4.14-1.14-2.08-1.14-4.15.07-2.08.07-4.16-1.21-2.86.27-4.32,2.28-.13,4.39-.13,2.12.8,4.23.8,2.12-.86,4.23-.86,2.12.87,4.23.87,2.12-.52,4.24-.52,2.11-.2,4.23-.2h4.23c2.12,0,2.12.63,4.23.63s2.12-.21,4.24-.21,2.12,0,4.23,0,2.91-1.85,4.42-.37-.13,2.26-.13,4.33-.12,2.08-.12,4.15.19,2.07.19,4.15-.75,2.07-.75,4.15a11.07,11.07,0,0,0,.43,4.21C664.67,364.25,666.2,365,664.72,366.44Z"/><path class="cls-23" d="M635.47,348.63c1.29,1.29,1.69.89,3,2.17s1.41,1.16,2.7,2.45.91,1.67,2.2,3,1.49,1.08,2.79,2.37"/><path class="cls-23" d="M645.66,347.9c-1.28,1.28-1,1.53-2.32,2.82s-1.41,1.17-2.7,2.46-1.45,1.13-2.74,2.41-.6,2-1.89,3.28"/><path class="cls-22" d="M558.56,419c-1.47,1.54-.78,2-.78,4.17s.37,2.12.37,4.24.05,2.13.05,4.25.69,2.13.69,4.25-.1,2.13-.1,4.25.14,2.13.14,4.26-.1,2.12-.1,4.25-.22,2.13-.22,4.25.32,2.13.32,4.26-1.12,2.12-1.12,4.25,1.29,2.12,1.29,4.25-.79,2.13-.79,4.26.32,2.13.32,4.26-1.93,3-.45,4.53,2.33,0,4.38,0l4.1,0c2,0,2-.35,4.09-.35s2,0,4.1,0,2,.56,4.09.56,2-.5,4.1-.5,2,.36,4.09.36,2,.12,4.1.12,2-.09,4.09-.09l4.1,0c2.05,0,2.05-1.09,4.09-1.09s2,1.35,4.1,1.35,2-1.06,4.09-1.06,2-.3,4.1-.3h4.09c2.05,0,2.05,1.15,4.1,1.15s2-.56,4.1-.56,2,.43,4.09.43,2.05-.65,4.1-.65,2.05-.22,4.1-.22,2,.51,4.1.51,2,0,4.1,0,2,.69,4.1.69,2.74.88,4.16-.6-.65-2.19-.65-4.32,1.21-2.13,1.21-4.27-.2-2.13-.2-4.26-.31-2.13-.31-4.26-.17-2.13-.17-4.26-.51-2.14-.51-4.27.85-2.13.85-4.26-.32-2.14-.32-4.27.07-2.13.07-4.26-.23-2.14-.23-4.27.14-2.13.14-4.27-.43-2.13-.43-4.26.89-2.14.89-4.27-.58-2.13-.58-4.27-.26-2.13-.26-4.27.55-2.14.55-4.27a7.74,7.74,0,0,0-.68-4.06c-.7-1.9-1,.44-3.46.44-1.17,0-2.53-.3-4-.3-1.26,0-2.62-.35-4-.35s-2.67-.56-4-.56-2.69,1-4,1-2.72.28-4.05.28-2.75-.34-4-.34a15.69,15.69,0,0,0-4,.69,20,20,0,0,0-3.88,1.41,27.73,27.73,0,0,0-3.61,2.07,36.19,36.19,0,0,0-3.32,2.55,39,39,0,0,0-3,3c-1.73,1.85-.86,2.95-2.89,3.5s-2.21-.57-4.25-.57-2-.65-4.1-.65-2.05,1.25-4.09,1.25-2.05,0-4.1,0-2-.88-4.09-.88-2,.85-4.1.85-2-.75-4.1-.75-2,.76-4.09.76-2-.42-4.1-.42-2-.6-4.1-.6-2.09.83-4.09.42S560,417.51,558.56,419Z"/><path class="cls-22" d="M558.74,418.89c0-2.08-.9-2.08-.9-4.16s.86-2.08.86-4.16-.14-2.08-.14-4.16-.3-2.09-.3-4.17-1.69-3.11-.23-4.6,2.48-.2,4.53-.2,2.05.39,4.09.39,2.05-.39,4.1-.39,2,1.15,4.09,1.15,2-.29,4.1-.29,2-.09,4.09-.09,2.05-.13,4.1-.13,2,.29,4.1.29,2-.7,4.09-.7,2,1,4.1,1,2.05-.77,4.1-.77,2.47-1.07,4.24,0c2,1.18,1.3,2.12,2.63,4.08s1.21,2.05,2.54,4"/><path d="M663.78,466.63c-1.51,1.48-1.68.47-3.8.47s-2.11.49-4.23.49-2.11.05-4.23.05-2.11-.46-4.23-.46-2.11-.11-4.23-.11-2.12-.65-4.23-.65-2.12.83-4.23.83-2.12.49-4.24.49-2.11-.3-4.23-.3-2.12-.57-4.24-.57-2.52,1.47-4,0,.34-1.87.34-3.94-.29-2.07-.29-4.15.24-2.07.24-4.14-.29-2.08-.29-4.15,0-2.08,0-4.16-2-3-.55-4.47,2.43.57,4.54.57,2.12-.41,4.23-.41,2.12-.49,4.23-.49,2.12,1.15,4.23,1.15,2.12-.36,4.24-.36,2.11.54,4.23.54,2.11-.73,4.23-.73,2.12.76,4.23.76,2.12-.08,4.24-.08,2.12-1,4.23-1,3.12-1.54,4.64-.06-1.05,2.48-1.05,4.56.44,2.07.44,4.14.31,2.08.31,4.15-.19,2.07-.19,4.15a17.29,17.29,0,0,0,.24,4.13C664.68,464.85,665.26,465.17,663.78,466.63Z"/><path class="cls-23" d="M635.66,449.58c1.29,1.29,1,1.59,2.28,2.87s1.84.74,3.13,2,1.21,1.37,2.5,2.66,1.47,1.11,2.76,2.4"/><path class="cls-23" d="M646.46,449.84c-1.28,1.29-1.94.63-3.23,1.92s-.94,1.63-2.23,2.91-1.8.79-3.09,2.08-1.19,1.39-2.48,2.68"/><path class="cls-22" d="M558.3,519.88c-1.47,1.53.89,2.28.89,4.41s-.79,2.12-.79,4.25-.14,2.12-.14,4.24S558,534.91,558,537s.5,2.12.5,4.25-.08,2.12-.08,4.25-.7,2.12-.7,4.25.72,2.13.72,4.25.52,2.13.52,4.26-1.21,2.12-1.21,4.25,1.27,2.13,1.27,4.25-1,2.13-1,4.26.87,2.13.87,4.26-1.59,2.36-.12,3.89,1.67.39,3.72.39,2.05.51,4.1.51,2-.85,4.09-.85,2,0,4.1,0,2,.18,4.09.18,2,.13,4.1.13,2-.43,4.09-.43l4.1,0c2,0,2,.51,4.09.51s2,.11,4.1.11,2.05-.71,4.09-.71,2,.3,4.1.3,2-.26,4.09-.26,2,1.15,4.1,1.15,2-.22,4.09-.22,2.05.07,4.1.07,2-.25,4.1-.25,2,.15,4.09.15,2.05.12,4.1.12l4.1,0c2,0,2-1.09,4.1-1.09s2,.68,4.1.68,2-.78,4.1-.78,3.05,2.5,4.47,1,0-2.49,0-4.62-.18-2.13-.18-4.26-.12-2.14-.12-4.27-.14-2.13-.14-4.26-.47-2.13-.47-4.26.19-2.14.19-4.27.18-2.13.18-4.26,0-2.14,0-4.27-.42-2.13-.42-4.26.19-2.14.19-4.27.15-2.13.15-4.27,0-2.13,0-4.26,0-2.14,0-4.27-.4-2.13-.4-4.27.45-2.13.45-4.27.07-2.14.07-4.27-.5-2.14-.5-4.27a7.63,7.63,0,0,0-3.43-.54c-1.17,0-2.53.85-4,.85-1.26,0-2.62.33-4,.33s-2.67-1.06-4-1.06-2.69-.3-4-.3-2.72.07-4.05.07-2.75,1-4,1a15.83,15.83,0,0,0-4.08.59,21.55,21.55,0,0,0-4,1.14,28.74,28.74,0,0,0-3.59,2.21,35.18,35.18,0,0,0-3.19,2.76c-1.17,1-2.29,1.91-3.13,2.81-1.73,1.86-.79,2.57-2.83,3.13s-2-.65-4.09-.65-2,.36-4.1.36-2.05-.11-4.09-.11-2.05-.28-4.1-.28-2,.74-4.09.74-2,.44-4.1.44-2-.44-4.1-.44-2,.51-4.09.51-2-.22-4.1-.22-2-.22-4.1-.22-2.17.6-4.16.13C560.28,519.77,559.73,518.4,558.3,519.88Z"/><path class="cls-22" d="M558.43,520c0-2.08-.25-2.08-.25-4.16s.15-2.08.15-4.16-.18-2.08-.18-4.16.47-2.09.47-4.17-2.07-3.13-.61-4.62,2.5.35,4.55.35,2.05-.32,4.09-.32h4.1c2,0,2,0,4.09,0s2,.44,4.1.44,2-.31,4.09-.31,2.05.07,4.1.07,2,.89,4.1.89,2-1.11,4.09-1.11,2,.36,4.1.36,2.05.76,4.1.76,2.57-2.08,4.34-1.05c2,1.19,1.21,2.28,2.55,4.24s.76,2.35,2.09,4.31"/><path d="M664.31,568.31c-1.51,1.48-2.21.4-4.33.4s-2.11.22-4.23.22-2.11-1.09-4.23-1.09-2.11-.24-4.23-.24-2.11.71-4.23.71-2.12,0-4.23,0-2.12-.68-4.23-.68-2.12.83-4.24.83-2.11-.09-4.23-.09-2.12-.19-4.24-.19-2.44,1.25-3.95-.23-.1-1.78-.1-3.86v-4.15c0-2.07.17-2.07.17-4.14s-1-2.08-1-4.15.86-2.08.86-4.16-1.84-2.89-.36-4.35,2.31-.49,4.42-.49,2.12,0,4.23,0,2.12.06,4.23.06,2.12,1.12,4.23,1.12,2.12.11,4.24.11,2.11-1.14,4.23-1.14,2.11.91,4.23.91,2.12-.13,4.23-.13,2.12-1,4.24-1,2.12,1.19,4.23,1.19,2.82-2.07,4.33-.58-.35,2.16-.35,4.24.09,2.07.09,4.14-.44,2.08-.44,4.15,1.17,2.08,1.17,4.15-1.15,2.16-.69,4.18C664.59,566.3,665.8,566.85,664.31,568.31Z"/><path class="cls-23" d="M636.24,550.14c1.29,1.29.72,1.86,2,3.14s1.16,1.41,2.45,2.7,1.49,1.09,2.78,2.38.83,1.75,2.12,3"/><path class="cls-23" d="M646.14,550.66c-1.29,1.28-1.85.72-3.14,2s-.32,2.25-1.6,3.54-1.67.92-3,2.21-1.82.75-3.11,2"/><path d="M110.07,166.85a5.6,5.6,0,0,1-.88,3.13,5.92,5.92,0,0,1-2.14,2.54c-1,.6-2,1.65-3.28,1.65a7.52,7.52,0,0,1-3.58-1.13,7.69,7.69,0,0,1-2.85-2.48c-.6-1,0-2.44,0-3.71s-.8-2.79-.2-3.82,2.3-1.2,3.35-1.81a6.5,6.5,0,0,1,3.25-1.28,6.82,6.82,0,0,1,3.48.88,7.2,7.2,0,0,1,2.72,2.44C110.57,164.29,110.07,165.57,110.07,166.85Z"/><path d="M929.18,239.55a6.72,6.72,0,0,1-.79,3.44,7,7,0,0,1-2.46,2.63,7.42,7.42,0,0,1-3.5,1.41,7.82,7.82,0,0,1-3.65-1.16,7.61,7.61,0,0,1-2.52-2.76,7.28,7.28,0,0,1-1-3.56,5.75,5.75,0,0,1,3.44-6.37,7.66,7.66,0,0,1,3.68-.83,6.92,6.92,0,0,1,6.24,3.6A7.22,7.22,0,0,1,929.18,239.55Z"/><path class="cls-24" d="M307,178.62c-1.2.67-.92,1.16-2.13,1.83s-1.43.25-2.63.92-1.33.44-2.54,1.1-1.17.74-2.37,1.4-.86,1.3-2.06,2-1.55.06-2.75.73"/><path class="cls-22" d="M303.38,155.17c-.08-1.19.12-1.31-.9-2.23a4.84,4.84,0,0,0-2.21-1.23c-.65-.13-1.5.35-2.45.43-.77.06-1.74-.38-2.74-.26-.84.09-1.66.88-2.61,1s-1.86-.5-2.77-.38-1.77.38-2.67.49l-2.69.33c-.93.13-1.85.17-2.7.29s-1.81.72-2.62.83c-1.09.15-2.06-.07-2.72,0a6,6,0,0,0-2.58,1.36c-.77.52-1.79,1-2.15,2-.27.78.35,1.85.33,3a16.32,16.32,0,0,0-.33,2.9c.11.85.26,1.68.36,2.49s.11,1.7.2,2.5,0,1.71.12,2.52.63,1.64.72,2.44-.31,1.75-.22,2.55.62,1.64.71,2.44a7.86,7.86,0,0,0,.63,2.48,4.89,4.89,0,0,0,1.53,2.21c.7.4,1.74.2,2.66.27a14.1,14.1,0,0,0,2.55-.12c.81-.08,1.65-.23,2.53-.38s1.65-.15,2.57-.29,1.68-.13,2.56-.27,1.72-.06,2.57-.2,1.67-.54,2.51-.67,1.77,0,2.58-.17,1.76-.38,2.53-.51a24.61,24.61,0,0,0,2.45-.88,2.57,2.57,0,0,0,2.05-1.53,18.48,18.48,0,0,0,.48-2.69c.18-.82.33-1.72.45-2.64s0-1.79.08-2.69,0-1.82,0-2.68.8-1.87.79-2.69a15.08,15.08,0,0,0-.59-2.66"/><path d="M285.06,166c-.8.22-1.16.66-1.26,1.69a6.08,6.08,0,0,0,0,2.47c.15.54.71,1.09.92,1.82s.14,1.34.34,2,.57,1.24.77,1.87.47,1.32.67,1.9c.27.81.47,1.48.64,1.88a1.57,1.57,0,1,0,3.06-.7c-.06-.55-.13-1.27-.25-2.07s-.4-1.33-.51-2-.66-1.32-.78-2-.28-1.42-.4-2.05c-.16-.86.25-1.7.13-2.15a6.19,6.19,0,0,0-1.06-2.33C286.9,165.68,286.18,165.67,285.06,166Z"/><path class="cls-22" d="M285.06,166c-.8.22-1.16.66-1.26,1.69a6.08,6.08,0,0,0,0,2.47c.15.54.71,1.09.92,1.82s.14,1.34.34,2,.57,1.24.77,1.87.47,1.32.67,1.9c.27.81.47,1.48.64,1.88a1.57,1.57,0,1,0,3.06-.7c-.06-.55-.13-1.27-.25-2.07s-.4-1.33-.51-2-.66-1.32-.78-2-.28-1.42-.4-2.05c-.16-.86.25-1.7.13-2.15a6.19,6.19,0,0,0-1.06-2.33C286.9,165.68,286.18,165.67,285.06,166Z"/><path class="cls-22" d="M319.46,416.3c1.72,1.22,2.23.51,3.94,1.74s1.05,2.15,2.77,3.38,1.92.93,3.64,2.16,1.72,1.22,3.43,2.44,1.66,1.31,3.38,2.53,2,.79,3.74,2,1.8,1.11,3.51,2.34,1.21,1.95,2.92,3.17,1.86,1,3.58,2.27,2,.89,3.68,2.12"/></g></g></g></svg>