<svg xmlns="http://www.w3.org/2000/svg" viewBox="0 0 111.6 583.54"><defs><style>.cls-1{fill:none;stroke:#000;stroke-linecap:round;stroke-linejoin:round;stroke-width:4.33px;}</style></defs><g id="Layer_2" data-name="Layer 2"><g id="sect2"><g id="connline"><path class="cls-1" d="M109.43,581.37c-.38-2,.07-2.12-.31-4.15s-1.45-1.84-1.83-3.88.3-2.16-.08-4.2.1-2.12-.28-4.16-.66-2-1-4-.32-2.05-.7-4.09-1.38-1.85-1.76-3.89.41-2.18,0-4.22-.95-1.93-1.33-4-.55-2-.93-4,.89-2.27.51-4.31-1.28-1.87-1.66-3.91,0-2.1-.39-4.14-.27-2.06-.65-4.1-.46-2-.83-4.06-.38-2-.75-4.07-1.08-1.91-1.46-3.95S96.42,510,96,508s-.73-2-1.11-4,.29-2.16-.09-4.2-.79-2-1.17-4-1.18-1.89-1.56-3.92-.06-2.1-.44-4.14-.11-2.09-.49-4.12-.19-2.08-.57-4.11-.64-2-1-4,.18-2.15-.2-4.19-.6-2-1-4-.27-2.06-.65-4.1-1.28-1.87-1.66-3.91.61-2.22.23-4.26-.34-2-.72-4.08-.37-2-.75-4.08S83.42,445,83,442.92s-.35-2-.73-4.08,0-2.1-.38-4.14-.6-2-1-4-.62-2-1-4,.66-2.23.28-4.27-.23-2.06-.61-4.1-1.09-1.91-1.47-3.95.07-2.12-.3-4.16-.76-2-1.14-4-.6-2-1-4-.73-2-1.11-4,0-2.1-.38-4.14-.68-2-1.06-4,.46-2.2.08-4.23-.77-2-1.15-4,.06-2.12-.32-4.15-.3-2.06-.68-4.1-.12-2.08-.49-4.12-.55-2-.93-4.05-.45-2-.83-4.07-.11-2.09-.49-4.12-.79-2-1.17-4-.51-2-.89-4.05-.48-2-.86-4.06-.49-2-.87-4-.22-2.07-.6-4.11.11-2.13-.27-4.17-.66-2-1-4-1.25-1.88-1.63-3.92.57-2.22.19-4.26-1.34-1.86-1.72-3.89.19-2.15-.19-4.19-.07-2.1-.44-4.13-.59-2-1-4,.16-2.14-.21-4.18-.76-2-1.14-4-.82-2-1.19-4-.15-2.08-.52-4.12-.94-1.94-1.32-4-.34-2-.72-4.08.75-2.25.37-4.29-.7-2-1.08-4-.32-2.05-.7-4.09-1.14-1.89-1.52-3.93.48-2.2.1-4.24-1.4-1.85-1.78-3.89.65-2.23.28-4.27-1.4-1.85-1.78-3.89-.45-2-.83-4.07.4-2.18,0-4.22,0-2.12-.35-4.16-.58-2-1-4-1.07-1.91-1.45-3.95-.44-2-.82-4.07.09-2.12-.29-4.16.14-2.14-.24-4.18-1.09-1.91-1.47-4-.54-2-.92-4,.57-2.21.19-4.25-.76-2-1.14-4-.37-2-.75-4.08-.43-2-.81-4.07S36,188,35.6,186s.07-2.12-.31-4.16,0-2.1-.42-4.14-.77-2-1.15-4-1.19-1.89-1.57-3.93-.08-2.09-.46-4.13.5-2.2.12-4.24-1.32-1.87-1.7-3.91.79-2.25.41-4.29-1-1.92-1.41-4-.38-2-.75-4.07-.48-2-.85-4.07-.14-2.08-.52-4.12-1-1.92-1.41-4-.24-2.06-.62-4.1.07-2.13-.3-4.17-.44-2-.82-4.07-.45-2-.82-4.07-.16-2.08-.54-4.12-1.08-1.91-1.46-4-.38-2-.75-4.08.21-2.15-.17-4.19-.13-2.09-.51-4.13-.6-2-1-4,.12-2.13-.26-4.17-1.1-1.91-1.48-3.95-.93-1.94-1.31-4,0-2.12-.34-4.16-.18-2.08-.56-4.12-.63-2-1-4-.62-2-1-4,.29-2.17-.09-4.21S11.37,57.5,11,55.46s0-2.1-.4-4.14.11-2.14-.27-4.18-.15-2.08-.53-4.12S9.56,41,9.18,38.91,7.87,37,7.49,35s-.32-2-.7-4.1-.63-2-1-4-.13-2.08-.51-4.13-.35-2-.73-4.09.23-2.15-.15-4.19-.73-2-1.11-4S3.33,8.3,3,6.25s-.4-2-.78-4.08"/></g></g></g></svg>