<svg xmlns="http://www.w3.org/2000/svg" viewBox="0 0 5.77 785.71"><defs><style>.cls-1{fill:none;stroke:#000;stroke-linecap:round;stroke-linejoin:round;stroke-width:4.33px;}</style></defs><g id="Layer_2" data-name="Layer 2"><g id="sect6"><g id="art"><path class="cls-1" d="M3.35,783.54c0-2.08.13-2.08.13-4.15s-.78-2.08-.78-4.16.77-2.08.77-4.16-.86-2.07-.86-4.15-.1-2.08-.1-4.16-.33-2.07-.33-4.15.95-2.08.95-4.16-.35-2.07-.35-4.15-.18-2.08-.18-4.15.56-2.08.56-4.16S3,739.91,3,737.84s-.75-2.08-.75-4.16,1.23-2.07,1.23-4.15.07-2.08.07-4.16-.19-2.07-.19-4.15-1-2.08-1-4.16,1-2.07,1-4.15-.44-2.08-.44-4.15.18-2.08.18-4.15.28-2.08.28-4.15-.69-2.07-.69-4.15.2-2.07.2-4.15.54-2.07.54-4.15-.79-2.07-.79-4.15,0-2.07,0-4.15,0-2.07,0-4.15.12-2.08.12-4.15.5-2.08.5-4.15-.63-2.08-.63-4.16.52-2.07.52-4.15-.54-2.08-.54-4.16.82-2.08.82-4.15-.12-2.08-.12-4.16.24-2.08.24-4.16-.83-2.07-.83-4.15,0-2.08,0-4.15.85-2.08.85-4.16-.86-2.07-.86-4.15.19-2.08.19-4.15.08-2.08.08-4.15v-4.15c0-2.08.37-2.08.37-4.16s.08-2.07.08-4.15-.85-2.07-.85-4.15.06-2.07.06-4.15.67-2.08.67-4.15-.16-2.08-.16-4.15-.76-2.08-.76-4.16.33-2.07.33-4.15S2.3,578,2.3,575.89s1.23-2.08,1.23-4.15-.61-2.08-.61-4.16-.52-2.07-.52-4.15,1.11-2.08,1.11-4.16-.77-2.08-.77-4.16S3,553,3,551s-.37-2.08-.37-4.16.55-2.08.55-4.15,0-2.08,0-4.16.09-2.07.09-4.15.33-2.08.33-4.15-.46-2.08-.46-4.16-.69-2.07-.69-4.15.9-2.07.9-4.15-.06-2.08-.06-4.15-.67-2.08-.67-4.16.76-2.07.76-4.15-.66-2.08-.66-4.15S3,499,3,497s.4-2.07.4-4.15S3,490.73,3,488.65s-.13-2.07-.13-4.15.29-2.08.29-4.16,0-2.08,0-4.16,0-2.07,0-4.15-.42-2.08-.42-4.16.49-2.08.49-4.15-.85-2.08-.85-4.16.74-2.07.74-4.15.25-2.08.25-4.15-.23-2.08-.23-4.16S2.23,445,2.23,443s1.07-2.08,1.07-4.15S3,436.72,3,434.64s.4-2.08.4-4.15-1-2.08-1-4.16,1-2.08,1-4.16S2.18,420.09,2.18,418s1.39-2.08,1.39-4.16-.33-2.08-.33-4.16-.53-2.08-.53-4.15.45-2.08.45-4.16-1-2.08-1-4.16,1-2.07,1-4.15-.9-2.08-.9-4.16.73-2.07.73-4.15-.75-2.08-.75-4.16.42-2.08.42-4.15.72-2.08.72-4.16-.15-2.08-.15-4.16-.12-2.08-.12-4.16.23-2.08.23-4.15S3,357.75,3,355.67s.52-2.08.52-4.16-.33-2.07-.33-4.15-.35-2.08-.35-4.16.77-2.08.77-4.15-.2-2.08-.2-4.16-.82-2.08-.82-4.16.83-2.08.83-4.16S3,324.49,3,322.41s-.52-2.08-.52-4.16-.21-2.07-.21-4.15.12-2.08.12-4.16,0-2.08,0-4.16-.15-2.08-.15-4.15.94-2.08.94-4.16-.88-2.08-.88-4.16,1.14-2.08,1.14-4.16-.36-2.08-.36-4.15,0-2.08,0-4.16.09-2.08.09-4.16-.54-2.08-.54-4.15-.13-2.08-.13-4.16.88-2.08.88-4.16-.24-2.08-.24-4.16-.42-2.08-.42-4.16-.36-2.08-.36-4.16-.21-2.07-.21-4.15,1.08-2.08,1.08-4.16.24-2.08.24-4.16-.7-2.08-.7-4.16,0-2.08,0-4.16.68-2.08.68-4.15-.83-2.08-.83-4.16.09-2.08.09-4.16.18-2.08.18-4.16.35-2.08.35-4.16-.22-2.08-.22-4.16,0-2.07,0-4.15.16-2.08.16-4.16-1.05-2.08-1.05-4.16.87-2.08.87-4.16-.45-2.07-.45-4.15-.41-2.08-.41-4.15,0-2.08,0-4.16.06-2.08.06-4.15,1.11-2.08,1.11-4.16.12-2.08.12-4.16-1.15-2.08-1.15-4.16.92-2.08.92-4.15S3.18,154,3.18,152s-1-2.08-1-4.15,1.19-2.08,1.19-4.16-.63-2.08-.63-4.16.4-2.08.4-4.16-.09-2.08-.09-4.16.44-2.07.44-4.15-1.17-2.08-1.17-4.17S3,120.78,3,118.7s-.6-2.08-.6-4.16-.17-2.08-.17-4.16.62-2.08.62-4.16.72-2.08.72-4.16S3.44,100,3.44,97.9s-1.08-2.08-1.08-4.16.29-2.08.29-4.16.47-2.08.47-4.16-.27-2.08-.27-4.16S2.6,79.18,2.6,77.1s.15-2.08.15-4.17-.18-2.08-.18-4.16S3,66.69,3,64.61s-.8-2.08-.8-4.16.54-2.08.54-4.16-.31-2.08-.31-4.16,0-2.08,0-4.16,0-2.08,0-4.16.44-2.08.44-4.16-.31-2.08-.31-4.16.07-2.08.07-4.16.88-2.09.88-4.17S2.41,25.08,2.41,23s.37-2.08.37-4.16.75-2.09.75-4.17-1.11-2.08-1.11-4.16.33-2.09.33-4.18.7-2.08.7-4.16"/></g></g></g></svg>