<svg xmlns="http://www.w3.org/2000/svg" viewBox="0 0 992.35 1178.96"><defs><style>.cls-1{fill:#e6b49d;}.cls-2,.cls-5,.cls-6{fill:none;}.cls-2,.cls-6{stroke:#000;stroke-linecap:round;stroke-linejoin:round;}.cls-2{stroke-width:3.61px;}.cls-3{fill:#677d70;}.cls-4{fill:#8e9b91;}.cls-5{stroke:#e6b49d;stroke-miterlimit:10;}.cls-5,.cls-6{stroke-width:4.33px;}</style></defs><g id="Layer_2" data-name="Layer 2"><g id="sect8"><g id="hand"><path class="cls-1" d="M129.5,828.46c-1.58-1.3-1.91-.15-3.88.41s-1.73,1.39-3.7,2-2.21-.28-4.17.29-1.83,1.06-3.8,1.63-1.91.75-3.88,1.32-2,.55-3.93,1.12-2.15,0-4.11.52-1.91.77-3.88,1.33-2,.61-3.92,1.17-1.85,1-3.82,1.55-2,.36-4,.93-2,.45-4,1-1.92.75-3.89,1.32-2.17-.16-4.14.41-1.85,1-3.81,1.53-2,.41-4,1-1.84,1-3.81,1.57S61,848.41,59,849s-2.1.1-4.07.67-2,.44-4,1-2,.39-4,1-1.88.9-3.85,1.46-1.91.78-3.88,1.34-2,.42-4,1-2,.28-4,.85-1.83,1.08-3.8,1.64-2.08.19-4.05.75a7.2,7.2,0,0,0-3.58,1.68c-1.63,1.22.49.83,2.53,2.46.9.71,2.07,1.44,3.38,2.31,1,.68,2,1.74,3.3,2.47,1.11.62,2.87.16,4.18.78s2.12,1.69,3.45,2.23,2.24,1.65,3.58,2.1,2.94-.46,4.3-.08,2.48,1,3.85,1.27,2.46,1.32,3.84,1.56,2.74-.12,4.12.06,2.6,1,4,1.12,2.73-.46,4.12-.39,2.67.8,4.07.82,2.68-.94,4.07-1,2.73.8,4.12.72,2.74-.2,4.06-.32,2.71-.53,4-.68,2.66-.78,4-1,2.72-.31,4-.55,2.69-.55,4-.84,2.54-1.13,3.8-1.47,2.65-.64,3.89-1,2.58-.91,3.79-1.37,3,0,4.16-.56c1.32-.59,2.59-1.15,3.7-1.73,1.32-.69,2.35-1.65,3.39-2.29,1.34-.83,2.06-2.15,3-2.83,2.1-1.59,3.4-.13,4-2.08s-.65-2.18-.4-4.16.49-1.94.73-3.92.46-2,.7-3.92-.5-2.07-.25-4,1.18-1.85,1.43-3.83.26-2,.51-3.95-.19-2,.49-3.87S131,829.72,129.5,828.46Z"/><path class="cls-1" d="M65.17,1010.75c0,2,1.32.36,3.68,1.55,1,.52,2.19,1.29,3.6,2,1.11.56,2.26,1.32,3.59,2,1.15.58,2.09,1.78,3.38,2.43s2.56.88,3.84,1.53,2.35,1.32,3.61,2,2.29,1.47,3.55,2.1,2.75.57,4,1.2,2.63.83,3.87,1.46,2.24,1.61,3.48,2.24,2.67.78,3.91,1.4,2.33,1.43,3.57,2.06,2.34,1.42,3.57,2,2.5,1.12,3.74,1.74l3.68,1.83c1.22.62,2.28,1.55,3.52,2.17s2.4,1.31,3.63,1.93,2.7.72,3.93,1.34,2.28,1.56,3.51,2.18,2.18,1.77,3.4,2.39,2.56,1,3.79,1.65,2.84.47,4.06,1.08,2.18,1.79,3.4,2.41,2.41,1.35,3.63,2,2.4,1.36,3.61,2,2.84.49,4.05,1.1,2,2.13,3.24,2.74,2.4,1.35,3.62,2,2.56,1,3.77,1.66,2.64.92,3.84,1.52,2.4,1.41,3.6,2,2.9.41,4.1,1,2.05,2.13,3.23,2.73,2.75.76,3.93,1.35,2.12,2,3.29,2.63,2.83.69,4,1.25c1.36.68,2.8.86,3.9,1.39,1.51.75,2.77,1.31,3.7,1.76a35.77,35.77,0,0,0,3.74,2,27.65,27.65,0,0,0,4.11,1.14c1.46.24,2.9,1,4.27.95s2.82-1,4.17-1.36a19.76,19.76,0,0,0,3.79-1.83,22,22,0,0,0,3.73-1.86c1.15-.84,2.59-1.34,3.58-2.37a29.06,29.06,0,0,0,2.83-3.24,34.32,34.32,0,0,0,2.5-3.54,34.79,34.79,0,0,0,1.52-4.06c.42-1.09,1.13-2.3,1.67-3.74.45-1.18.67-2.56,1.19-3.93.46-1.21,1-2.48,1.47-3.81s.32-2.76.82-4.07,1.62-2.28,2.11-3.57.58-2.7,1.07-4,.52-2.73,1-4,2.05-2.17,2.53-3.43.64-2.71,1.12-3.95,1.49-2.42,2-3.64.33-2.91.77-4.09c.55-1.44,1.76-2.46,2.17-3.55.91-2.39,1.4-4.22,1.4-4.22-.46-2-1.28-1.22-1.82-3.78-.24-1.12-.73-2.42-1-4-.25-1.22.68-2.79.4-4.24-.24-1.26-.92-2.51-1.18-3.93s-.79-2.57-1-4-.27-2.68-.5-4.06-.69-2.62-.91-4-.45-2.66-.66-4-.77-2.62-1-4,.68-2.82.49-4.19-1.06-2.59-1.23-4-.28-2.7-.44-4.07-.88-2.64-1-4,.06-2.75-.07-4.11-.06-2.73-.18-4.09.21-2.75.11-4.11-1.09-2.67-1.17-4,.71-2.77.65-4.13-.25-2.72-.29-4.08-.37-2.73-.39-4.08-.43-2.75-.42-4.1,0-2.75.06-4.1.49-2.74.57-4.08-.22-2.78-.11-4.12,1.4-2.62,1.56-4,.06-2.75.27-4.07.37-2.73.65-4,.47-2.72.82-4,1-2.55,1.49-3.8.26-2.88.67-4.15,1.77-2.42,2.12-3.71,0-2.93.26-4.23.49-2.77.7-4.08.57-2.77.69-4.09.35-2.82.35-4.14a34.18,34.18,0,0,0-.58-4.11,28.62,28.62,0,0,0-1-4c-.33-1.41-.11-2.87-.62-4.09s-.62-2.91-1.34-4a24.47,24.47,0,0,0-2.89-3.11,25.31,25.31,0,0,0-3.36-2.48c-1.1-.84-1.85-2.3-3.06-3a37.39,37.39,0,0,0-3.95-1.5c-1.27-.53-2.61-1-3.93-1.39s-2.85-.13-4.18-.46-2.68-.74-4-1-2.77-.4-4.09-.63-2.73-.6-4.08-.84-2.71-.71-4.06-1-2.81-.18-4.16-.43-2.55-1.59-3.9-1.83-3,.78-4.33.54-2.61-1.28-4-1.52-2.81-.17-4.15-.4-2.66-1-4-1.29-2.77-.38-4.11-.62-2.75-.51-4.09-.74-2.82-.15-4.16-.38-2.76-.52-4.09-.76-2.67-1-4-1.27-2.86,0-4.18-.22-2.72-.84-4-1.07-2.76-.6-4.07-.83-2.81-.39-4.11-.62l-4.11-.69c-1.45-.25-3,.59-4.28.37-1.47-.25-2.61-1.81-3.87-2-1.52-.26-3.06.56-4.27.35-1.62-.27-3-.2-4.15-.39-2.8-.47-2.22-2.63-3.44-1s-1.68,1.38-2.37,3.32-.16,2.13-.85,4.07-1.09,1.79-1.78,3.73-.07,2.16-.76,4.1-.48,2-1.16,3.95-1.18,1.76-1.86,3.7-.65,2-1.34,3.9-1.35,1.71-2,3.65-.14,2.14-.83,4.08,0,2.16-.74,4.1-1.83,1.53-2.52,3.47-.5,2-1.19,3.95-.39,2.05-1.08,4-.52,2-1.21,3.94-.21,2.11-.9,4-1.49,1.66-2.18,3.6-.38,2-1.07,4-.75,1.91-1.44,3.86-.47,2-1.16,4-.82,1.89-1.5,3.83-.28,2.09-1,4-1.53,1.64-2.22,3.58-.14,2.14-.82,4.08-.45,2-1.14,4-1.21,1.76-1.89,3.7,0,2.19-.7,4.13-.65,2-1.34,3.9-1,1.84-1.66,3.78-1,1.82-1.71,3.77-1.21,1.75-1.9,3.69.25,2.28-.43,4.22-.43,2-1.12,4-1,1.83-1.7,3.77-.54,2-1.23,3.93-.72,1.93-1.41,3.87-.74,1.92-1.43,3.86-.73,1.93-1.41,3.88-.63,2-1.31,3.9-.56,2-1.24,3.94-1.25,1.75-1.94,3.69-1.3,1.72-2,3.67.48,2.36-.2,4.3-.72,1.94-1.41,3.88S69.58,997,68.89,999s.11,2.23-.58,4.17-1.23,1.75-2.08,3.63S65.2,1008.68,65.17,1010.75Z"/><path class="cls-2" d="M269.82,700.53c-1.37.29-2.62,1.07-4,1.36s-2.8.2-4.14.49-2.75.47-4.09.75-2.89-.24-4.23,0-2.57,1.31-3.91,1.6-2.83.05-4.17.33-2.62,1.07-3.95,1.35-2.86,0-4.19.29-2.58,1.23-3.92,1.52-2.9-.25-4.24,0-2.49,1.64-3.83,1.93-2.91-.28-4.24,0-2.57,1.31-3.9,1.6-2.84.09-4.17.38-2.61,1.08-3.94,1.39-2.78.38-4.1.69-2.75.52-4.07.83-2.81.31-4.13.63-2.6,1.11-3.91,1.45-2.72.67-4,1-2.62,1-3.93,1.39-2.56,1.21-3.86,1.58-2.9.07-4.19.47-2.46,1.47-3.74,1.89-2.75.6-4,1.05-2.54,1.16-3.8,1.65-3,.16-4.21.69-2.36,1.57-3.59,2.15-2.7.85-3.9,1.49-2.56,1.19-3.73,1.88-1.83,2.32-3,3.08-2.28,1.54-3.39,2.36-2.34,1.45-3.41,2.34-1.81,2.09-2.84,3-2.41,1.43-3.41,2.41-1.92,2-2.89,3-2.24,1.66-3.18,2.71-1.93,2-2.85,3-1.54,2.29-2.44,3.38-1.83,2-2.71,3.15-1.45,2.5-2.31,3.59-2,2.08-2.84,3.16-1.61,2.38-2.47,3.46-2.28,1.84-3.13,2.93-1.74,2.27-2.59,3.35-.8,3-1.65,4.1-2.49,1.69-3.33,2.77-1.69,2.33-2.53,3.4-1.31,2.63-2.15,3.71-2.35,1.8-3.21,2.86-1.7,2.32-2.56,3.37-1.29,2.69-2.17,3.73-2.77,1.4-3.67,2.41-.92,3.07-1.86,4-2.74,1.33-3.74,2.26-1.72,2.36-2.78,3.24-2.14,1.91-3.29,2.72-2.44,1.44-3.67,2.17-2.57,1.12-3.86,1.76-2.5,1.21-3.84,1.78-2.33,1.69-3.7,2.19-2.79.46-4.19.92-2.71.57-4,1-2.52,1.19-3.79,1.6-2.88.07-4.14.48-2.42,1.52-3.68,1.92-2.8.36-4,.76-2.72.66-4,1-2.48,1.41-3.71,1.81-2.89.16-4.12.55c-1.39.43-2.3,2.06-3.51,2.44-1.42.44-3.07-.26-4.25.11-1.47.46-2.58,1.45-3.72,1.81-1.57.48-3.07.19-4.11.51a10.24,10.24,0,0,0-4,1.91,29,29,0,0,0,2.13,3.73c.66,1,1.64,2.13,2.58,3.42.77,1.08,2.29,1.7,3.24,2.86s1.48,2.38,2.49,3.45,2.25,1.67,3.33,2.63,1.67,2.41,2.83,3.24a32.44,32.44,0,0,0,3.58,2.35,35.91,35.91,0,0,0,3.9,1.44c1.21.46,2.32,1.6,3.73,2,1.26.36,2.87-.29,4.28,0s2.5,1.36,3.92,1.6,2.72.31,4.13.49,2.72.44,4.13.56,2.75.07,4.16.15,2.76-.17,4.16-.14,2.75-.34,4.15-.35,2.77.9,4.17.85,2.71-.93,4.11-1,2.8.49,4.2.36,2.66-1,4-1.16,2.72-.43,4.09-.65,2.86.29,4.22,0,2.57-1.22,3.93-1.52,2.61-.88,4-1.22,3,.35,4.29,0,2.37-1.72,3.69-2.15,2.59-.93,3.9-1.4,2.87-.2,4.16-.71,2.55-1.09,3.83-1.64,2.47-1.26,3.72-1.85,2.33-1.52,3.56-2.16,2.51-1.16,3.72-1.85,2.17-1.74,3.35-2.48"/><path class="cls-2" d="M69.69,1119c-1.46,1.53-1.65,1.35-3.11,2.89s-1.34,1.65-2.79,3.18-1.69,1.32-3.15,2.85-2,1-3.43,2.57-1.3,1.69-2.76,3.22-1.23,1.76-2.68,3.29-1,2-2.42,3.55-1.86,1.15-3.32,2.69-1.85,1.16-3.31,2.7-.63,2.32-2.09,3.85-1.91,1.11-3.37,2.65-1.25,1.73-2.71,3.27-1.34,1.64-2.8,3.18-1.36,1.64-2.81,3.17-1.82,1.21-3.28,2.74-1.88,1.13-3.34,2.67-.88,2.09-2.34,3.63-1.65,1.36-3.11,2.9-1.15,2-3.06,2.9-1-1-2.44-3.15c-.64-1-.95-2.39-1.71-3.75-.61-1.09-1.84-2-2.46-3.33-.55-1.17-1.28-2.37-1.79-3.71s-1.1-2.5-1.51-3.85-.29-2.74-.61-4.11-1-2.58-1.2-4-.15-2.74-.25-4.14,0-2.72,0-4.12,1-2.64,1.09-4-.37-2.75-.12-4.13,1.2-2.47,1.56-3.81.68-2.56,1.14-3.88.3-2.76.86-4,.84-2.6,1.49-3.84,2.08-1.92,2.81-3.11,1.17-2.56,1.89-3.73.87-2.74,1.59-3.92,1.24-2.51,1.95-3.68,2.5-1.75,3.21-2.92.57-2.93,1.29-4.1,1.72-2.23,2.44-3.4,2.21-1.92,2.93-3.09,1-2.68,1.69-3.85,2-2.07,2.7-3.24,1-2.67,1.7-3.85,1.21-2.54,1.93-3.71,2.08-2,2.79-3.18,1.42-2.42,2.13-3.59,1.49-2.37,2.2-3.54.57-2.94,1.28-4.1,2.35-1.86,3-3,.73-2.84,1.44-4,1.66-2.28,2.36-3.44,1.73-2.24,2.44-3.4,1.47-2.39,2.18-3.55,1.74-2.23,2.44-3.38.52-3,1.22-4.14,2.44-1.82,3.14-3,.92-2.76,1.61-3.89.9-2.79,1.58-3.92,2.21-2,2.89-3.12c.77-1.28,1-2.78,1.63-3.87.8-1.32,2.08-2.16,2.72-3.22.86-1.41,1.94-2.37,2.52-3.33,1.5-2.48.68-2,1.45-4s.47-2,1.14-4,1.31-1.74,2-3.7S78,999,78.62,997s1.32-1.74,2-3.71.7-1.95,1.37-3.91.07-2.16.73-4.12L84,981.34c.67-2,1.77-1.59,2.43-3.55s.59-2,1.25-3.95.61-2,1.27-3.94.54-2,1.2-4,.64-2,1.3-3.93.32-2.08,1-4,1-1.84,1.7-3.8.28-2.09.94-4,.26-2.1.93-4.06.53-2,1.2-4,1.22-1.77,1.89-3.73.77-1.93,1.43-3.89.37-2.07,1-4,.45-2,1.11-4,1.75-1.59,2.41-3.55.58-2,1.25-4,.65-2,1.31-3.93-.46-2.34.2-4.3,1.37-1.72,2-3.68,1-1.85,1.66-3.81,0-2.17.71-4.14.28-2.09.94-4,1-1.86,1.63-3.83,1-1.83,1.7-3.8.19-2.12.85-4.08,1.17-1.8,1.84-3.76.72-1.94,1.39-3.91.11-2.14.78-4.11.52-2,1.18-4,.67-2,1.33-3.94,1.46-1.7,2.12-3.67"/><path class="cls-2" d="M269.84,819.21c-1.89.84-1.09,1-3.35,2.38-1,.62-2.3,1.08-3.59,2-1,.74-2.44,1.15-3.6,2.11-1,.82-1.45,2.38-2.54,3.37s-2.54,1.23-3.56,2.26-1.82,2-2.78,3.07-1.49,2.3-2.4,3.4-2,1.85-2.89,3-1.29,2.43-2.11,3.59-1.58,2.2-2.35,3.39-2.11,1.91-2.83,3.13-1.09,2.53-1.77,3.76-1.09,2.52-1.72,3.78-1.29,2.42-1.88,3.69-1.31,2.42-1.87,3.71-1.4,2.39-1.91,3.7-.69,2.68-1.17,4-.56,2.71-1,4-.21,2.79-.62,4.14-.87,2.58-1.25,3.93-.79,2.61-1.12,4-1.84,2.39-2.14,3.75.57,2.93.29,4.31-.39,2.7-.64,4.08-1.72,2.49-1.94,3.87.82,2.89.63,4.27-1,2.63-1.21,4,.09,2.77-.05,4.16-.37,2.72-.48,4.11,0,2.74-.12,4.14-.33,2.72-.4,4.12-.9,2.71-.95,4.11.44,2.76.42,4.16.13,2.75.13,4.15-.42,2.75-.4,4.14-.07,2.76,0,4.15.73,2.73.79,4.12-.28,2.77-.21,4.16.31,2.74.4,4.13-.37,2.78-.26,4.17,1.14,2.67,1.26,4,.22,2.74.36,4.13.24,2.73.39,4.12-.55,2.83-.38,4.22,1.31,2.61,1.49,4-.33,2.82-.13,4.2,1,2.64,1.17,4,.4,2.72.62,4.1-.42,2.86-.19,4.23.5,2.71.75,4.09,1.13,2.59,1.39,4-.14,2.83.13,4.2,1.64,2.49,1.92,3.85"/><path class="cls-2" d="M347.49,796.27c-.13,1.41-.07,2.83-.19,4.21s-1,2.74-1.12,4.13.17,2.84.05,4.23-.41,2.79-.53,4.17.22,2.85.1,4.23.11,2.84,0,4.22-.72,2.77-.83,4.15-.37,2.79-.48,4.17-.42,2.8-.54,4.18.11,2.84,0,4.22,0,2.83-.13,4.21-.38,2.8-.5,4.18-.51,2.79-.62,4.16.3,2.86.19,4.24-.63,2.78-.74,4.15.44,2.87.32,4.25-1,2.75-1.15,4.13-.13,2.83-.24,4.2-.63,2.78-.74,4.16,1,2.92.85,4.29-.89,2.76-1,4.13-1,2.75-1.1,4.12,1.08,3,.95,4.32-.56,2.79-.69,4.16-1.06,2.73-1.2,4.1.26,2.87.11,4.24-1,2.73-1.16,4.09.32,2.89.14,4.25-1.07,2.71-1.27,4.07.51,2.94.3,4.3-1.34,2.64-1.59,4-.48,2.77-.75,4.12-.31,2.82-.61,4.16-.21,2.86-.55,4.19-.84,2.7-1.22,4-.79,2.7-1.21,4-.41,2.84-.88,4.15-1.08,2.61-1.59,3.91-1,2.62-1.58,3.91-2.1,2.11-2.71,3.38-1.24,2.48-1.88,3.74-1,2.61-1.66,3.86-.75,2.79-1.4,4-2.33,1.92-3,3.14-.52,2.89-1.18,4.11-1.54,2.34-2.21,3.56-1.51,2.35-2.17,3.57-.66,2.8-1.33,4-2.16,2-2.82,3.22-1.34,2.43-2,3.66-1.34,2.43-2,3.66-1.49,2.34-2.16,3.58-.33,3-1,4.2-2.35,1.88-3,3.12-.6,2.81-1.26,4.06-1.54,2.31-2.2,3.56-1.81,2.17-2.47,3.42-.7,2.75-1.37,4-1.48,2.34-2.14,3.6-1.71,2.21-2.38,3.47-1.06,2.56-1.72,3.81-.72,2.74-1.38,4-1.68,2.23-2.34,3.49-1.32,2.42-2,3.67-1.53,2.32-2.19,3.57-.41,2.91-1.06,4.16-1.3,2.44-1.95,3.7-1.48,2.34-2.13,3.59-1,2.57-1.69,3.83-1.82,2.17-2.47,3.42-.78,2.71-1.43,4-1.53,2.32-2.18,3.58-.85,2.68-1.5,3.93-2.06,2.05-2.71,3.3-.94,2.63-1.59,3.88-1.24,2.48-1.88,3.73-.94,2.64-1.59,3.89-2,2.08-2.67,3.33-.66,2.78-1.31,4-1.38,2.41-2,3.66-1.36,2.41-2,3.57-1.13,2.54-1.83,3.67-2.23,1.84-3,2.93-.64,3-1.45,4-1.92,2-2.79,3-2.37,1.57-3.31,2.5-1.81,2.09-2.82,3-2.25,1.57-3.34,2.34-2,1.93-3.17,2.61-2.29,1.59-3.51,2.17-2.86.27-4.13.74-2.26,1.84-3.57,2.22-2.79.13-4.13.42-2.76-.16-4.12.06-2.6.82-4,1-2.68.22-4.06.33-2.67.36-4.05.44-2.69.24-4.07.3-2.67.79-4.05.84-2.73-.55-4.11-.51c-2.11,0-2.12.31-4.23.24s-2.12,0-4.23-.11-2.11-.28-4.22-.35-2.08-.89-4.19-1-2.14.57-4.25.5-2.1-.58-4.21-.65-2.14.72-4.25.65-2.1-.49-4.21-.56-2.11-.15-4.22-.22-2.11-.21-4.23-.28-2.12.34-4.24.27-2.12.28-4.24.21-2.12,0-4.23,0-2.12,0-4.23,0-2.12,0-4.23-.12-2.09-1.08-4.21-1.15-2,.54-4-.29.37-.82,1.17-3.27c.36-1.11.69-2.45,1.27-3.9.46-1.17.67-2.59,1.29-3.92s1.45-2.27,2.14-3.53.8-2.67,1.56-3.87,2.34-1.68,3.17-2.82,1.26-2.44,2.17-3.5,2.11-1.73,3.1-2.71,1.4-2.5,2.46-3.39,2.09-1.82,3.23-2.62,2.3-1.53,3.51-2.22,2.68-.78,4-1.36,2.6-.73,3.92-1.19,2.32-1.73,3.68-2.07,2.76-1,4.13-1.29,3.05.18,4.41-.15,2.86-.58,4.22-.92,2.87-.55,4.23-.88,2.87-.55,4.22-.88,2.79-.9,4.14-1.23,2.59-1.78,3.93-2.11,2.95-.33,4.29-.65,3,0,4.36-.3c1.5-.36,2.79-1.14,4.09-1.45,1.54-.37,3-.61,4.21-.91,1.64-.39,2.93-1.21,4.08-1.48,2.81-.66,2.71,1,3.95-.8s.87-1.76,1.63-3.66.91-1.84,1.67-3.74.22-2.12,1-4,1.07-1.78,1.83-3.68,1.64-1.54,2.4-3.44.83-1.87,1.59-3.77.79-1.89,1.55-3.79.49-2,1.25-3.91.05-2.18.81-4.08.92-1.84,1.69-3.74.5-2,1.26-3.91,1.72-1.52,2.48-3.42-.38-2.36.38-4.26,1.81-1.48,2.58-3.38.37-2.05,1.14-4,.7-1.93,1.47-3.83.57-2,1.34-3.89.79-1.89,1.56-3.79"/><path class="cls-2" d="M106.85,961.89c1.85.92,1.58,1.46,3.43,2.38s2,.54,3.88,1.46,1.93.76,3.78,1.68,1.86.9,3.7,1.82,2,.56,3.87,1.48,1.42,1.78,3.27,2.7,1.83.94,3.68,1.86,1.86.9,3.71,1.82,2.25.11,4.1,1,1.91.8,3.76,1.72,1.51,1.59,3.36,2.51,2.1.4,4,1.31,1.8,1,3.65,2,2,.67,3.82,1.58,1.32,2,3.17,2.91,2.15.3,4,1.22,1.62,1.39,3.47,2.3,2.17.27,4,1.19,1.49,1.64,3.34,2.56,1.83,1,3.68,1.88,2.09.43,3.94,1.35,1.77,1.08,3.62,2,2.27.09,4.12,1,1.58,1.46,3.43,2.38,2,.66,3.83,1.58,1.88.85,3.73,1.77,1.6,1.41,3.45,2.33,1.58,1.48,3.43,2.39,2.31,0,4.16.89,1.82,1,3.67,1.9,1.46,1.7,3.31,2.62,2.28.06,4.13,1,1.56,1.5,3.41,2.41,1.76,1.11,3.61,2,1.94.74,3.8,1.66,1.69,1.22,3.54,2.14l3.7,1.84c1.86.92,2.36-.1,4.21.82s1.82,1,3.67,1.9,1.76,1.1,3.62,2,1.88.86,3.74,1.77,1.5,1.64,3.35,2.56"/><path class="cls-2" d="M69.32,1118.71c-2,.55-2.16-.11-4.13.44s-1.88.91-3.85,1.46-1.87.94-3.84,1.49-2.2-.23-4.17.32-1.88.91-3.86,1.46-2,.59-3.94,1.15-1.79,1.22-3.76,1.77-2,.45-4,1-1.93.69-3.91,1.24-2,.45-4,1-2,.34-4,.89-1.9.86-3.88,1.41-2,.22-4,0-1-.83-1.34-3.44c-.15-1.2.51-2.7.41-4.29-.08-1.3-.47-2.7-.48-4.21,0-1.34.58-2.74.66-4.2s.06-2.76.22-4.2.37-2.74.63-4.16.21-2.81.57-4.19.8-2.68,1.28-4,1.51-2.39,2.12-3.67A37.64,37.64,0,0,1,23.6,1092a38.44,38.44,0,0,1,2.67-3.26,36.93,36.93,0,0,1,2.85-3,33,33,0,0,1,3.05-2.83,33.45,33.45,0,0,1,3.42-2.39c1.17-.72,1.9-2.35,3.22-3s3.13,0,4.39-.56,2.11-2.16,3.36-2.74,2.44-1.47,3.69-2.06l3.82-1.76c1.3-.61,3-.15,4.3-.74s2.33-1.69,3.58-2.27,2.76-.8,4-1.38,2.3-1.79,3.55-2.36,2.48-1.4,3.72-2,2.8-.72,4-1.3,2.56-1.22,3.8-1.79,2.88-.56,4.11-1.13,2.35-1.72,3.58-2.28,2.33-1.8,3.55-2.36,3.12-.09,4.33-.65,2.55-1.37,3.75-1.92c1.37-.62,2.51-1.49,3.7-2,1.41-.64,2.61-1.37,3.75-1.89,1.51-.68,2.57-1.71,3.63-2.19,2.58-1.15,3.25.78,4.3-1s.42-2.17,1.12-4.19.77-2,1.47-4,.49-2.1,1.19-4.11.83-2,1.53-4,.29-2.16,1-4.17,1.55-1.73,2.25-3.74.15-2.21.85-4.23.46-2.1,1.16-4.12,1.23-1.84,1.93-3.86,0-2.25.72-4.27.66-2,1.37-4.05,1-1.92,1.69-3.94,1-1.9,1.73-3.92,1.23-1.84,1.93-3.86-.23-2.35.47-4.37"/><path class="cls-2" d="M106.93,1143.75c-2.06.53-2.21-.07-4.26.47s-2.09.42-4.14,1-2.09.4-4.14.94-1.85,1.34-3.9,1.87-2.31-.43-4.36.11-2.09.41-4.14.94-2,.75-4,1.28-2,.89-4,1.42-2.11.36-4.16.89-2,2.22-4.13,2,.11-2.24-.08-4.75c-.08-1.14-.71-2.47-.75-4,0-1.24.83-2.58.86-4,0-1.28-.57-2.64-.48-4s-.28-2.7-.12-4.07.3-2.68.54-4,1-2.55,1.28-3.87.79-2.57,1.21-3.86,1.48-2.28,2-3.52.34-2.8,1-4a37.14,37.14,0,0,1,1.72-3.73,32.92,32.92,0,0,1,2.78-3c.89-1,2.25-1.53,3.29-2.42a31.64,31.64,0,0,1,3.26-2.31c1.1-.7,2.37-1.2,3.59-1.93s2.15-1.6,3.36-2.3,2.45-1.11,3.67-1.78,2.23-1.53,3.45-2.18,2.4-1.23,3.62-1.86,2.1-1.85,3.32-2.46,2.75-.58,4-1.19,2.26-1.56,3.49-2.16,2.24-1.62,3.47-2.2,3-.12,4.18-.69,2.33-1.49,3.55-2,2.71-.65,3.93-1.21,2.21-1.79,3.42-2.33,2.83-.43,4-1,2.5-1.2,3.7-1.73,2.17-2,3.35-2.52c1.35-.58,2.52-1.32,3.66-1.81,1.43-.61,3.17,0,4.23-.47a16,16,0,0,0,3.7-2.08c.91-1.9.63-2,1.54-3.93s1.09-1.82,2-3.72.69-2,1.6-3.9.89-1.92,1.8-3.81.58-2.06,1.49-4,1.88-1.44,2.79-3.34.27-2.2,1.18-4.1,1-1.88,1.88-3.78.39-2.15,1.31-4,1.22-1.75,2.13-3.65,1.09-1.81,2-3.72,1.31-1.71,2.22-3.61.09-2.29,1-4.19,1.69-1.53,2.6-3.43.79-2,1.7-3.87.64-2,1.56-3.93.54-2.08,1.45-4,.9-1.91,1.82-3.81"/><path class="cls-3" d="M992,456.44a23,23,0,0,0-3.69,2c-1,.57-2.33,1.06-3.72,1.88-1.07.63-2.18,1.48-3.48,2.26-1.11.67-2.58.91-3.84,1.67s-2.07,1.8-3.3,2.56-2.59,1-3.82,1.73-2,2-3.18,2.74-2.15,1.71-3.35,2.46-2.44,1.25-3.64,2-2.41,1.3-3.61,2.05-2.36,1.4-3.55,2.15-2.2,1.65-3.39,2.4-2.08,1.85-3.28,2.6-2.6,1-3.79,1.76-2.35,1.43-3.54,2.18-2.14,1.76-3.32,2.51-2.78.75-4,1.5-1.85,2.21-3,3-2.53,1.15-3.71,1.9-2.41,1.33-3.6,2.08-1.94,2.08-3.12,2.82-2.85.66-4,1.41-1.91,2.13-3.09,2.88-2.28,1.55-3.45,2.3-2.75.82-3.92,1.57-1.78,2.35-3,3.1-2.9.58-4.07,1.33-2.28,1.56-3.45,2.31-2.52,1.18-3.7,1.93-2,2-3.16,2.76-2.09,1.86-3.26,2.61-2.69.9-3.86,1.65-2.07,1.89-3.24,2.64-2.06,1.91-3.23,2.66-2.62,1-3.79,1.76-2.34,1.48-3.51,2.23-2.68.92-3.86,1.67-1.85,2.23-3,3-2.5,1.22-3.67,2-2,2-3.14,2.8-2.59,1.08-3.76,1.83-2.71.88-3.88,1.63-2.26,1.6-3.42,2.35-2.12,1.82-3.29,2.57-2.18,1.72-3.35,2.47-2.59,1.08-3.76,1.82-2,2-3.15,2.77-2.56,1.13-3.73,1.88-2,2-3.14,2.8-2.38,1.41-3.55,2.16-2.54,1.16-3.7,1.91-2.62,1-3.79,1.79-2.48,1.25-3.65,2-2.19,1.71-3.36,2.46-2.27,1.58-3.44,2.33-1.79,2.32-3,3.07-2.52,1.2-3.68,1.94-2.65,1-3.81,1.76-2.15,1.77-3.32,2.52-2.17,1.74-3.34,2.49-2.64,1-3.81,1.75-2.55,1.14-3.71,1.89-2,2-3.13,2.8-2,2-3.14,2.78S765.2,600,764,600.77s-2.65,1-3.81,1.74-1.94,2.1-3.1,2.85-2.85.69-4,1.43-1.74,2.41-2.91,3.16-2.72.87-3.89,1.62-1.84,2.25-3,3-3,.53-4.11,1.28-2.3,1.54-3.46,2.29-1.92,2.13-3.09,2.88-2.63,1-3.79,1.77-2.43,1.34-3.59,2.09-1.7,2.48-2.86,3.23-2.72.89-3.88,1.64-2.68,1-3.84,1.7-2,2-3.18,2.74-1.9,2.16-3.06,2.91-2.74.86-3.9,1.61-2.11,1.84-3.27,2.59-2.35,1.47-3.52,2.22-2.73.87-3.89,1.62-2.12,1.83-3.29,2.58-2,2-3.15,2.78-2.94.56-4.1,1.31-2.09,1.87-3.26,2.62-2,2-3.16,2.77-2.43,1.35-3.6,2.1-2.81.76-4,1.51-2.3,1.56-3.46,2.31-2.37,1.45-3.53,2.2-2,2-3.16,2.77-2.58,1.11-3.75,1.86-2.36,1.45-3.52,2.2-2.21,1.69-3.38,2.44-2.44,1.33-3.6,2.08-2.14,1.81-3.3,2.56-2.18,1.75-3.34,2.5-2.29,1.56-3.46,2.31-2.46,1.29-3.63,2-2.23,1.65-3.39,2.4-2.07,1.9-3.24,2.65-2.6,1.08-3.77,1.83-2.47,1.28-3.63,2-2,2-3.17,2.77-2.81.77-4,1.52-1.91,2.15-3.07,2.9-2.44,1.34-3.6,2.09-2.07,1.91-3.23,2.66-2.74.88-3.9,1.63-2.28,1.59-3.44,2.34-2.39,1.41-3.55,2.16-2.16,1.77-3.32,2.52-2.55,1.17-3.71,1.92-1.87,2.22-3,3-2.41,1.39-3.57,2.14-2.31,1.54-3.47,2.29-2.81.77-4,1.52-2.23,1.65-3.39,2.4-2.38,1.43-3.54,2.18-2.53,1.21-3.69,2-2.11,1.84-3.27,2.59-2.55,1.18-3.71,1.92-2.18,1.74-3.34,2.49-2.4,1.4-3.56,2.15-2.35,1.47-3.51,2.22-2.29,1.57-3.45,2.32-1.82,2.29-3,3-2.54,1.19-3.7,1.94l-3.49,2.25c-1.17.75-2.75.85-3.91,1.6s-2.26,1.61-3.42,2.36-2.13,1.81-3.29,2.56-2.52,1.2-3.68,2-2.35,1.48-3.51,2.23-2.4,1.39-3.56,2.14-1.75,2.4-2.91,3.15-2.32,1.54-3.47,2.28-2.71.94-3.86,1.68-2.5,1.26-3.65,2-2.42,1.38-3.58,2.12-1.57,2.7-2.72,3.44-2.44,1.35-3.59,2.1-2.28,1.61-3.43,2.35-2.31,1.55-3.47,2.29-2.67,1-3.82,1.75-2.73.89-3.89,1.63-1.86,2.25-3,3-2.48,1.3-3.63,2-2.19,1.73-3.34,2.48-2.37,1.45-3.52,2.2-2.3,1.58-3.44,2.32-2.48,1.31-3.62,2.05-2.11,1.88-3.25,2.62-2.37,1.48-3.51,2.22-2.65,1.05-3.79,1.79-2.17,1.78-3.31,2.52-2.1,1.92-3.24,2.66-2.62,1.1-3.76,1.84-2.57,1.18-3.7,1.91-2.25,1.7-3.37,2.43-2.26,1.7-3.38,2.42-2.16,1.87-3.27,2.59-2.4,1.52-3.5,2.24-2.4,1.54-3.49,2.24c-1.26.82-2.88.86-3.93,1.54-1.35.88-2.54,1.59-3.51,2.22-2.28,1.48-1.25,3.5-2.86,2.2s-1-1.59-2.14-3.35-1.91-1.26-3-3-.63-2.06-1.73-3.83-.67-2-1.78-3.8-2.1-1.14-3.2-2.9-.6-2.09-1.7-3.85-1.65-1.42-2.76-3.18l-2.22-3.53c-1.1-1.76-.45-2.17-1.56-3.94s-1.06-1.79-2.17-3.55-.74-2-1.84-3.76-1.79-1.34-2.89-3.1-.74-2-1.85-3.76-.75-2-1.86-3.75-1.8-1.33-2.91-3.1-.77-2-1.88-3.74-1.72-1.38-2.82-3.14l-2.23-3.52c-1.1-1.77-1.13-1.75-2.23-3.52s-.41-2.2-1.52-4-1.15-1.73-2.26-3.5-1.77-1.35-2.87-3.11-.74-2-1.84-3.77-.86-1.92-2-3.69-1.36-1.6-2.47-3.37-.47-2.16-1.57-3.93-1.61-1.45-2.72-3.22-1.06-1.79-2.17-3.55-1.26-1.67-2.37-3.44-1.46-1.54-2.57-3.31-.45-2.18-1.56-3.94-.9-1.9-2-3.66-1-1.84-2.09-3.6-1.28-1.66-2.38-3.42-1.47-1.54-2.58-3.31-.59-2.09-1.69-3.85-1.39-1.59-2.5-3.36-2-1.19-3.13-3-.79-2-1.89-3.73-.95-1.87-2.06-3.63-1-1.81-2.15-3.58-.74-2-1.85-3.77-1.5-1.51-2.61-3.28-.68-2-1.79-3.8-1.27-1.67-2.38-3.43-1-1.86-2.09-3.62l-2.21-3.54c-1.11-1.77-1.5-1.53-2.61-3.3s-2.56-1.54-2.3-3.62,1.37-1.71,2.88-3.13,1.94-1,3.45-2.39,1.26-1.68,2.77-3.1,1.33-1.62,2.83-3l3-2.84c1.5-1.42,2.19-.69,3.7-2.12s1.06-1.9,2.57-3.32,1.45-1.48,3-2.91,1.73-1.19,3.24-2.61,1.37-1.58,2.88-3,1.15-1.81,2.66-3.23,1.68-1.24,3.19-2.66,1.28-1.67,2.79-3.09,1.83-1.08,3.34-2.51,2.08-.82,3.59-2.24,1.22-1.73,2.73-3.15,1.34-1.6,2.85-3,1-1.92,2.55-3.34,1.86-1.05,3.37-2.47,1.85-1.06,3.36-2.48,1.71-1.21,3.21-2.63,1.47-1.47,3-2.89.81-2.16,2.32-3.58,2.22-.66,3.73-2.08,1-1.91,2.56-3.33,1.66-1.25,3.17-2.67,1.85-1.06,3.36-2.48.54-2.45,2.05-3.87,2-.91,3.49-2.34,1.86-1,3.37-2.46,1.42-1.51,2.93-2.94,1.41-1.52,2.91-2.94,1.05-1.91,2.55-3.33,1.83-1.09,3.33-2.51,2-1,3.47-2.37.67-2.31,2.18-3.73,1.56-1.36,3.07-2.78,1.53-1.4,3-2.82,1.33-1.61,2.83-3,2.34-.54,3.85-2,.88-2.09,2.39-3.51,1.35-1.59,2.86-3,2.13-.77,3.63-2.19.91-2.06,2.42-3.48,1.55-1.39,3.06-2.81,2.31-.58,3.82-2,1.12-1.84,2.62-3.26,1-2,2.51-3.39,2.17-.73,3.68-2.16,1.12-1.83,2.63-3.26,1.74-1.18,3.25-2.6,1.56-1.37,3.07-2.79,1.58-1.35,3.09-2.77,1.47-1.47,3-2.89,1.11-1.85,2.62-3.27,1.88-1,3.38-2.46,1.72-1.2,3.23-2.62,1.4-1.54,2.91-3,1.31-1.63,2.82-3.06,1.08-1.87,2.58-3.3,2.25-.63,3.76-2.06,1.24-1.71,2.75-3.13,1.36-1.57,2.87-3,1.82-1.08,3.33-2.5,1.13-1.83,2.64-3.25,1.68-1.24,3.19-2.66,1.81-1.1,3.32-2.52.93-2,2.44-3.46,2-.91,3.5-2.34.93-2,2.44-3.45,2.2-.69,3.71-2.12,1.12-1.83,2.62-3.26,2-.94,3.47-2.37,1-1.93,2.54-3.35,1.42-1.51,2.93-2.94,2.12-.78,3.63-2.21,1.43-1.5,2.94-2.93,1.53-1.4,3-2.83,1.21-1.74,2.72-3.16,1.22-1.74,2.73-3.17,1.41-1.52,2.92-2.95,1.8-1.11,3.31-2.53,1.77-1.16,3.28-2.58,1.14-1.81,2.65-3.23,1.31-1.63,2.82-3.06,1.7-1.21,3.21-2.64,1.75-1.16,3.26-2.59,1-2,2.48-3.42,2.37-.5,3.88-1.93,1.16-1.79,2.67-3.21,1.7-1.22,3.21-2.64,1.39-1.55,2.9-3,.89-2.08,2.4-3.51,1.46-1.47,3-2.89,2-.9,3.51-2.33,1.33-1.62,2.84-3,1.18-1.77,2.69-3.19,1.71-1.22,3.22-2.64,1.6-1.33,3.11-2.76,2.15-.74,3.66-2.16.8-2.18,2.31-3.61,2.15-.74,3.66-2.17,1.46-1.48,3-2.9,1.52-1.41,3-2.84,1.63-1.3,3.14-2.72,1-2,2.48-3.42,2.06-.84,3.57-2.26,1.05-1.91,2.56-3.33,1.45-1.49,3-2.91,1.14-1.82,2.64-3.25,1.93-1,3.44-2.4,1.79-1.13,3.3-2.56,1.71-1.21,3.22-2.63,1.11-1.84,2.62-3.27,1.27-1.67,2.78-3.1,2-.95,3.46-2.38,1-2,2.47-3.43,1.76-1.17,3.27-2.59,1.1-1.87,2.61-3.29,1.55-1.39,3.06-2.81,1.73-1.19,3.24-2.62,1.34-1.6,2.85-3,1.65-1.28,3.16-2.71l3-2.84c1.51-1.42,1.46-1.48,3-2.9s2-.89,3.52-2.32,1.48-1.45,3-2.88,1.13-1.83,2.64-3.25,1.92-1,3.43-2.41,1.69-1.23,3.2-2.66,1.2-1.76,2.71-3.18,1.06-1.9,2.57-3.33,2.07-.83,3.58-2.26,1.58-1.35,3.09-2.78,1-1.95,2.52-3.38,2-.95,3.47-2.38,1.62-1.3,3.13-2.73,1.39-1.55,2.9-3,1.24-1.7,2.75-3.13,1-1.93,2.55-3.35,2.24-.65,3.75-2.07,1.42-1.52,2.93-2.95,1-2,2.48-3.42,2.27-.62,3.78-2,.89-2.09,2.4-3.52,1.62-1.3,3.13-2.73,1.71-1.21,3.22-2.64,1-1.95,2.53-3.37,1.68-1.25,3.19-2.67,1.81-1.11,3.32-2.53,1.6-1.34,3.11-2.76,1.34-1.61,2.85-3,1.6-1.32,3.11-2.75,2-1,3.46-2.39.88-2.09,2.39-3.51,2.1-.81,3.61-2.23.69-2.3,2.2-3.72,2-.91,3.51-2.34,1-1.92,2.55-3.35,2.09-.81,3.6-2.23,1.23-1.72,2.74-3.14,2.05-.86,3.56-2.28.64-2.36,2.15-3.79,1.92-1,3.43-2.41,1.08-1.88,2.59-3.31,2.22-.68,3.73-2.1.87-2.1,2.38-3.53,1.43-1.51,2.94-2.94,1.85-1.07,3.36-2.49,1.11-1.85,2.62-3.28,2.24-.65,3.75-2.08,1-1.92,2.55-3.34,1.6-1.32,3.11-2.74,1.29-1.66,2.8-3.08,2.12-.77,3.63-2.19.85-2.13,2.36-3.55,1.82-1.11,3.33-2.54,1.59-1.33,3.1-2.76,1.67-1.26,3.18-2.68.93-2,2.44-3.46,1.8-1.11,3.31-2.54,1.69-1.23,3.2-2.66,1.85-1.06,3.36-2.48.66-2.33,2.17-3.75,1.92-1,3.43-2.41,1.65-1.28,3.16-2.7,1.25-1.71,2.76-3.13,1.44-1.51,2.95-2.94,1.4-1.54,2.91-3,2.13-.75,3.64-2.18,1-1.91,2.56-3.34,1.71-1.22,3.22-2.64,1.07-1.89,2.58-3.32,1.85-1.07,3.36-2.49,2-.89,3.53-2.32.71-2.27,2.22-3.7,2.17-.72,3.68-2.14,1.7-1.23,3.21-2.66,1.21-1.75,2.72-3.17,1.58-1.36,3.09-2.78,1.3-1.65,2.81-3.08,1.6-1.34,3.11-2.76,1.49-1.45,3-2.88S900,87,901.47,85.58s1.43-1.52,2.94-3,1.29-1.66,2.81-3.08,1.36-1.58,2.88-3,1.28-1.67,2.79-3.09,1.56-1.37,3.08-2.8,1.89-1,3.4-2.45,1.83-1.09,3.34-2.52,1-2,2.47-3.44,1.77-1.16,3.28-2.59,1.82-1.09,3.34-2.52,1.6-1.33,3.11-2.76,1.45-1.49,3-2.92.8-2.18,2.31-3.61,1.7-1.23,3.21-2.65,1.75-1.17,3.26-2.6,1.4-1.54,2.91-3,1.57-1.37,3.08-2.79,1.79-1.14,3.3-2.56,1-2,2.54-3.38,2.06-.84,3.58-2.27,1.52-1.41,3-2.83.77-2.21,2.29-3.64,1.67-1.26,3.18-2.69,1.94-1,3.45-2.41.88-2.1,2.4-3.52,2.26-.64,3.77-2.07S981.5,9.82,983,8.39s1.66-1.27,3.18-2.69,1.12-1.85,2.64-3.28,1.94-1,3.45-2.42"/><path d="M285.24,666.51c-.44-2,1.71.53,4.33.88,1.15.15,2.65-.5,4.21-.23,1.23.2,2.44,1.3,3.9,1.59,1.27.25,2.72,0,4.14.34s2.67.42,4.07.77,2.62.69,4,1.07,2.43,1.36,3.78,1.78,2.65.62,4,1.07,2.59.85,3.91,1.34,2.71.55,4,1.07,2.45,1.24,3.73,1.8,2.45,1.21,3.71,1.81,2.56,1,3.8,1.64,2.07,1.92,3.29,2.59,2.59,1,3.79,1.66,2.25,1.56,3.42,2.3,2.56,1.1,3.7,1.89,2.46,1.29,3.58,2.11,1.9,2,3,2.9,2,1.83,3.09,2.73,1.94,2,2.95,2.89,2.23,1.63,3.21,2.61,2.08,1.82,3,2.84,1.72,2.14,2.62,3.2,1.53,2.29,2.39,3.38,2.09,1.86,2.9,3,1.25,2.47,2,3.64,2.06,2,2.76,3.16.69,2.79,1.34,4,1.38,2.38,2,3.62.83,2.65,1.38,3.91,2.22,2.07,2.72,3.35.39,2.82.85,4.12.21,2.83.63,4.14,2.1,2.26,2.47,3.58.45,2.76.78,4.09-.1,2.86.19,4.21,1.12,2.59,1.38,3.94-.18,2.83,0,4.19,1.08,2.64,1.26,4-.34,2.82-.19,4.19,1.21,2.66,1.33,4-.68,2.83-.6,4.2.18,2.76.23,4.13.37,2.76.39,4.13.48,2.77.47,4.14-.15,2.78-.18,4.14-.07,2.79-.13,4.14.38,2.82.3,4.17-.3,2.79-.4,4.13-.2,2.81-.33,4.14-1.34,2.68-1.49,4-.38,2.79-.56,4.1-.07,2.85-.26,4.13c-.23,1.48.21,3,0,4.2-.27,1.56-1.63,2.71-1.86,3.85a22.71,22.71,0,0,0-.48,4.31c-1.11-1.76-.9-1.89-2-3.65s-.93-1.88-2-3.65S388,831,386.88,829.2s-.3-2.27-1.41-4-1.09-1.78-2.2-3.54-1.08-1.77-2.19-3.54-.93-1.87-2-3.63-2-1.18-3.15-2.94-.11-2.39-1.22-4.15-1.78-1.34-2.89-3.11-.88-1.9-2-3.67-.62-2.06-1.73-3.83-1.68-1.4-2.79-3.16-.92-1.88-2-3.64-.7-2-1.81-3.79-1.33-1.62-2.44-3.39-1.65-1.42-2.75-3.19-.73-2-1.84-3.76-1.07-1.78-2.18-3.55-.87-1.92-2-3.68-1.95-1.24-3.05-3-1.1-1.77-2.21-3.53-.91-1.89-2-3.65-1.34-1.63-2.45-3.39-.59-2.09-1.69-3.86-1.58-1.46-2.69-3.23-.87-1.91-2-3.68-1.51-1.51-2.62-3.28-.36-2.23-1.47-4-1.41-1.57-2.52-3.33-1.15-1.75-2.25-3.51-1.43-1.57-2.54-3.33-.39-2.22-1.49-4-1.69-1.4-2.8-3.16-1-1.84-2.11-3.6-1-1.81-2.14-3.57-1.35-1.62-2.46-3.39-.34-2.24-1.44-4-2.11-1.14-3.21-2.91-.91-1.89-2-3.66-.52-2.14-1.63-3.9-1.32-1.64-2.43-3.4-.94-1.88-2.05-3.64-1.5-1.52-2.61-3.29-1.35-1.62-2.46-3.38-.33-2.26-1.44-4-2-1.25-3.06-3-.34-2.27-1.71-3.85S285.68,668.55,285.24,666.51Z"/><path class="cls-2" d="M407.19,534.54c.64,2,0,2.19.62,4.16s1.19,1.8,1.83,3.78,1.28,1.76,1.91,3.74-.51,2.35.12,4.33.83,1.91,1.47,3.88.94,1.88,1.58,3.86.8,1.92,1.44,3.9,1.12,1.82,1.76,3.79-.17,2.24.47,4.22.94,1.87,1.58,3.85.57,2,1.21,4,.86,1.91,1.5,3.88.5,2,1.14,4,1.05,1.84,1.69,3.82-.21,2.25.43,4.22,1.19,1.8,1.83,3.77.88,1.9,1.52,3.87.11,2.15.75,4.13,1.33,1.75,2,3.72.68,2,1.32,3.94.34,2.07,1,4,.3,2.08.94,4.05.11,2.15.75,4.12,1.59,1.67,2.22,3.64.91,1.89,1.55,3.87.31,2.08,1,4.06.78,1.92,1.42,3.9.6,2,1.24,4,.59,2,1.22,4,.6,2,1.24,4,.71,2,1.34,3.93.78,1.93,1.42,3.91.08,2.16.72,4.13,0,2.18.66,4.15,1.83,1.59,2.46,3.57.61,2,1.25,4-.2,2.25.44,4.23,1.45,1.71,2.08,3.69-.07,2.2.57,4.18,1.37,1.74,2,3.72.24,2.1.88,4.08.06,2.16.7,4.14,1,1.85,1.67,3.82.81,1.93,1.45,3.9.65,2,1.29,3.95,1,1.86,1.65,3.83-.27,2.28.36,4.25.61,2,1.25,4,.65,2,1.29,3.95,1.51,1.7,2.15,3.67.76,1.94,1.4,3.92-.08,2.2.56,4.18,1.19,1.79,1.83,3.77.52,2,1.16,4,.91,1.89,1.55,3.87-.51,2.34.13,4.32,1.3,1.77,1.94,3.74.14,2.14.78,4.12,1.33,1.75,2,3.73-.13,2.23.51,4.21.59,2,1.23,4,1.15,1.81,1.79,3.79.48,2,1.12,4,1.52,1.7,2.16,3.68.07,2.17.71,4.15"/><path d="M992.35,457.09c-1.76,1.12-1.79,1.07-3.54,2.19s-2,.74-3.75,1.86-2.1.59-3.85,1.71-1.83,1-3.58,2.13-1.62,1.32-3.38,2.45-1.33,1.78-3.08,2.9-2.36.18-4.11,1.3-1.15,2.06-2.91,3.18-2.11.56-3.87,1.68-2,.79-3.72,1.92-1.45,1.59-3.21,2.71-1.73,1.15-3.49,2.28-1.53,1.47-3.28,2.59-1.62,1.33-3.38,2.45-2,.77-3.73,1.9-2.1.57-3.86,1.69-1.82,1-3.58,2.13-1.33,1.78-3.08,2.9-2.17.47-3.93,1.59-1.28,1.85-3,3-1.7,1.2-3.45,2.32-1.58,1.4-3.33,2.52-2.27.31-4,1.43-1.56,1.43-3.32,2.55-1.66,1.27-3.41,2.39-2.06.65-3.81,1.77-1.64,1.3-3.4,2.42-1.35,1.75-3.1,2.88-2.42.08-4.18,1.2-1.79,1.07-3.54,2.19-1.66,1.28-3.41,2.4-1.25,1.92-3,3-2.3.28-4,1.4-1.52,1.5-3.27,2.62-1.85,1-3.6,2.09-1.91.89-3.66,2-1.38,1.7-3.14,2.83-1.86,1-3.62,2.07-2,.67-3.79,1.79-1.34,1.78-3.09,2.9-1.75,1.14-3.5,2.26-1.74,1.14-3.5,2.26-1.82,1-3.57,2.14-2,.71-3.79,1.83-1.41,1.65-3.17,2.77-2,.69-3.79,1.81-1.46,1.57-3.22,2.69-2.19.44-4,1.56-1.69,1.22-3.44,2.34-1.88.92-3.64,2-1.31,1.82-3.06,3l-3.5,2.25c-1.76,1.12-2.21.41-4,1.53s-1.29,1.84-3.05,3-1.85,1-3.61,2.08-1.8,1.05-3.56,2.17L792,584.34c-1.75,1.12-2,.81-3.71,1.93s-1.79,1.06-3.55,2.18-1.3,1.83-3.05,3-1.79,1.07-3.54,2.19-2.12.55-3.88,1.67-1.66,1.27-3.42,2.39-1.35,1.75-3.1,2.88-1.94.84-3.69,2-1.56,1.44-3.32,2.56-2.42.08-4.17,1.2-1.43,1.64-3.18,2.76-1.48,1.56-3.23,2.68-2.36.19-4.11,1.31-1.34,1.77-3.1,2.89-1.91.88-3.66,2-1.56,1.43-3.32,2.55-2,.66-3.81,1.78-1.72,1.17-3.48,2.29-1.8,1.05-3.56,2.17-1.94.84-3.69,2-1.51,1.51-3.26,2.63-1.39,1.7-3.14,2.82-2.24.37-4,1.49-1.72,1.17-3.48,2.3-1.4,1.68-3.15,2.8-2.16.49-3.92,1.61-1.4,1.68-3.15,2.8-1.91.89-3.67,2-2,.79-3.72,1.91-1.58,1.41-3.33,2.53-1.69,1.23-3.45,2.35-1.91.88-3.66,2-1.77,1.11-3.52,2.23-1.72,1.17-3.48,2.29-1.52,1.48-3.28,2.6-2,.7-3.77,1.82-1.29,1.84-3,3-2.15.5-3.9,1.62-1.9.91-3.65,2-1.64,1.31-3.39,2.44-1.27,1.89-3,3-2.33.22-4.09,1.34-1.57,1.42-3.32,2.54-2,.78-3.73,1.9-1.22,1.95-3,3.07-2.29.28-4,1.4-1.11,2.13-2.87,3.25-2.5,0-4.26,1.08-1.58,1.4-3.33,2.52-1.47,1.56-3.23,2.69-2,.74-3.75,1.86-1.24,1.94-3,3.06-2.28.31-4,1.43-1.27,1.88-3,3-2.16.5-3.91,1.63-1.35,1.75-3.11,2.88-2,.77-3.74,1.89-2.15.51-3.9,1.63-1.68,1.25-3.43,2.38-1.69,1.22-3.45,2.34-1.88.93-3.64,2.06-1.57,1.41-3.32,2.53-2,.69-3.8,1.81-1.57,1.41-3.33,2.53-1.57,1.41-3.33,2.54-2.17.47-3.93,1.59-1.65,1.29-3.41,2.41-1.31,1.82-3.07,2.94-2.2.43-4,1.55-1.54,1.47-3.29,2.59-1.48,1.56-3.24,2.69-1.64,1.29-3.4,2.42-1.82,1-3.58,2.14-1.77,1.11-3.52,2.23-1.68,1.25-3.44,2.37-2.26.33-4,1.46-1.29,1.86-3,3-2.37.17-4.12,1.29-1.57,1.43-3.33,2.55-1.75,1.13-3.51,2.26-1.81,1-3.57,2.16-1.46,1.58-3.22,2.7-1.69,1.24-3.45,2.37-2.23.38-4,1.5-1.63,1.33-3.39,2.45-1.54,1.48-3.3,2.61-1.49,1.72-3.39,2.59.21-2,2-4c.77-.87,2.49-1.19,3.54-2.38.83-.94,1.91-1.81,2.9-2.94.85-1,1.23-2.46,2.19-3.56s1.79-2,2.74-3.09,2.29-1.58,3.23-2.65,1.16-2.58,2.09-3.64,1.85-2,2.78-3.05,1.92-1.92,2.85-3,2.05-1.82,3-2.87,1.63-2.2,2.54-3.26l2.71-3.1c.9-1,1.92-2,2.84-3s1-2.75,1.91-3.8,2.45-1.5,3.36-2.55,1.45-2.36,2.36-3.41,1.48-2.34,2.39-3.38,1.83-2,2.73-3.09,1.84-2,2.75-3.08,2.64-1.35,3.54-2.39,1.88-2,2.78-3,.93-2.83,1.83-3.87,2.49-1.49,3.39-2.54,1.69-2.16,2.58-3.21,1-2.73,1.94-3.78,2.7-1.31,3.59-2.35,1.31-2.5,2.21-3.55,2.09-1.83,3-2.88,1.71-2.16,2.61-3.21,2.12-1.81,3-2.86.9-2.86,1.79-3.91S572,681,572.91,680s1.33-2.49,2.21-3.54,1.66-2.22,2.54-3.27,2.25-1.71,3.13-2.76,2.32-1.65,3.2-2.7,1.67-2.21,2.54-3.26.94-2.82,1.81-3.86,2-1.94,2.86-3,2.13-1.83,3-2.88,1.55-2.32,2.42-3.37S598.18,649,599,648s1.88-2.06,2.73-3.11,1.6-2.28,2.45-3.32,2.11-1.88,2.94-2.93,1.11-2.68,1.94-3.73,2.15-1.86,3-2.91,1.47-2.42,2.26-3.46,1.69-2.27,2.45-3.3c.89-1.21,1.67-2.32,2.38-3.34s2-2,2.81-3.17,1.45-2.45,2.3-3.54,1.81-2.18,2.69-3.25,2.49-1.58,3.4-2.62,1.06-2.85,2-3.86,2.22-1.79,3.2-2.77,2.54-1.42,3.56-2.35,1.36-2.72,2.41-3.61,2.4-1.56,3.49-2.4,2.67-1.14,3.79-1.94,1.77-2.44,2.94-3.17,2.32-1.7,3.52-2.37,2.91-.58,4.15-1.17,2.26-1.93,3.53-2.45,2.83-.59,4.14-1,2.8-.46,4.14-.8,2.58-1.56,3.94-1.79,2.92.37,4.3.25,2.8-.05,4.19-.05,2.78.29,4.16.41a38.27,38.27,0,0,1,4.15.12c1.35.28,2.67.7,4,1.08s2.42,1.46,3.74,1.89,2.84.2,4.15.64,2.78.4,4.09.82,2.32,2,3.65,2.32,3-.59,4.32-.36,2.62,1.35,4,1.42,2.72-.83,4.11-1a24.71,24.71,0,0,0,4-.74c1.29-.34,2.74-.26,4.06-.84a28.86,28.86,0,0,0,3.94-1.48c1.12-.68,1.79-2.17,2.94-3.06s2-1.71,3.1-2.7,2.05-1.73,3-2.79,1.9-1.92,2.82-3,1.36-2.36,2.22-3.51,1.6-2.17,2.41-3.35,1.94-2,2.71-3.18,1.57-2.28,2.31-3.48.83-2.73,1.55-3.93,1.69-2.22,2.4-3.42,1.17-2.52,1.87-3.74,2.38-1.83,3.07-3,1.18-2.52,1.87-3.74,1.43-2.38,2.11-3.6,1.13-2.55,1.81-3.77,1.49-2.35,2.16-3.57,1.46-2.37,2.13-3.59,1.37-2.41,2.05-3.63.4-3,1.08-4.17,2-2.09,2.64-3.3.7-2.8,1.39-4,2.4-1.83,3.09-3,1.32-2.46,2-3.65,1.26-2.49,2-3.68,1.33-2.45,2.06-3.63,1.34-2.45,2.08-3.62,1.1-2.61,1.85-3.78,1.68-2.24,2.45-3.39,1.69-2.22,2.48-3.37,1.58-2.29,2.38-3.42,1.29-2.52,2.11-3.64,1.83-2.12,2.67-3.22,1.84-2.11,2.71-3.18,1.74-2.2,2.64-3.25,1.86-2.09,2.78-3.11,1.61-2.34,2.56-3.34,2.28-1.7,3.27-2.66,2.06-1.89,3.09-2.81,1.77-2.24,2.83-3.12,2.88-.87,4-1.71,1.74-2.34,2.88-3.12,2.17-1.84,3.35-2.56,2.93-.49,4.15-1.14,2.58-1,3.84-1.56,2.49-1.15,3.79-1.64,2.27-1.89,3.51-2.28,2.67-.86,3.93-1.17,2.81-.26,4.08-.46a39.18,39.18,0,0,1,4-.5,30.36,30.36,0,0,1,4.11-.11,24.4,24.4,0,0,1,4,.86,21.66,21.66,0,0,1,3.78,1.54c1.26.59,2,1.81,3.14,2.58a26.55,26.55,0,0,1,3.32,2.26,38.5,38.5,0,0,1,2.69,3c.88,1,1.49,2.24,2.31,3.32s2.21,1.74,3,2.83,2,1.93,2.79,3,1.38,2.4,2.28,3.37a25.65,25.65,0,0,0,3.29,2.35,15.74,15.74,0,0,0,3.26,2.24,14.48,14.48,0,0,0,3.76,1.34,18,18,0,0,0,4,0,7.78,7.78,0,0,0,3.69-1.37,14.75,14.75,0,0,0,3.29-2.42,29.65,29.65,0,0,0,2.6-3.21c.72-1.07,1-2.53,1.67-3.8s1.59-2.17,2.23-3.46,1.72-2.18,2.3-3.48.87-2.58,1.42-3.89.23-2.82.74-4.14,1.56-2.31,2.05-3.62,1-2.51,1.53-3.83,1-2.52,1.5-3.84.11-2.85.56-4.16,1.81-2.28,2.26-3.59,1-2.56,1.42-3.87.65-2.67,1.08-4,.51-2.71.94-4,1-2.54,1.46-3.86,0-2.89.39-4.2,1.8-2.3,2.23-3.6.35-2.78.79-4.08,1.71-2.32,2.15-3.62.27-2.8.72-4.1.44-2.76.9-4.06.87-2.61,1.33-3.9,1.37-2.44,1.85-3.72,1.06-2.55,1.55-3.83,1.58-2.33,2.08-3.61.24-2.86.76-4.13.59-2.74,1.12-4,1.37-2.43,1.92-3.68,1.64-2.28,2.21-3.52,1.25-2.45,1.85-3.68,1.44-2.36,2.06-3.57,1-2.57,1.67-3.76,1.54-2.29,2.23-3.46,1.17-2.52,1.89-3.66,1.52-2.31,2.28-3.42,1.05-2.67,1.87-3.75,2.25-1.75,3.13-2.77,1.51-2.37,2.45-3.34,1.65-2.33,2.66-3.22,2.84-.9,3.93-1.7a37.46,37.46,0,0,1,3.21-2.53"/><path d="M165.84,669.24c0-1.15-.94-2-1.69-2.7a3.54,3.54,0,0,0-2.7-1.14c-1.15,0-2.58-.24-3.33.51s-.45,2.18-.45,3.33-.15,2.43.6,3.18,2,.53,3.18.53,2.35.14,3.1-.61A4.64,4.64,0,0,0,165.84,669.24Z"/><path class="cls-4" d="M396.89,388.82a4.41,4.41,0,0,0-1.09-3.09c-.75-.75-1.95-.61-3.1-.61a3.05,3.05,0,0,0-3.75,3.7c0,1.15-.27,2.53.48,3.28s2.13.29,3.27.29,2.24.17,3-.58A4.25,4.25,0,0,0,396.89,388.82Z"/><path class="cls-4" d="M13.4,956.68c0-1.14.11-2.17-.64-2.92a3.94,3.94,0,0,0-2.91-1c-1.15,0-2.45,0-3.2.74s-.4,2.06-.4,3.2a3.22,3.22,0,0,0,1,2.59C8,960,8.7,961,9.85,961s1.79-1,2.54-1.74A3.14,3.14,0,0,0,13.4,956.68Z"/><path class="cls-1" d="M592,787a4.05,4.05,0,0,0-1.17-2.91,4.16,4.16,0,0,0-2.92-1.28,4.06,4.06,0,0,0-2.84,1.35,3.93,3.93,0,0,0-1.22,2.84,4.25,4.25,0,0,0,1,3c.75.75,1.89.75,3,.75s2.54.25,3.29-.5S592,788.17,592,787Z"/><path class="cls-5" d="M592,787a4.05,4.05,0,0,0-1.17-2.91,4.16,4.16,0,0,0-2.92-1.28,4.06,4.06,0,0,0-2.84,1.35,3.93,3.93,0,0,0-1.22,2.84,4.25,4.25,0,0,0,1,3c.75.75,1.89.75,3,.75s2.54.25,3.29-.5S592,788.17,592,787Z"/><path class="cls-4" d="M513.08,881.45c0-1.14-1-2-1.79-2.72s-1.58-1.77-2.72-1.77-1.77,1.22-2.52,2-2,1.38-2,2.52,1,1.95,1.79,2.7a3.6,3.6,0,0,0,2.7,1.21c1.14,0,2.54.14,3.29-.61A5.05,5.05,0,0,0,513.08,881.45Z"/><path d="M772.88,986.33a4.87,4.87,0,0,0-1.59-3.07,4.72,4.72,0,0,0-3.07-1.46,4.47,4.47,0,0,0-2.87,1.66,4.09,4.09,0,0,0-1.31,2.87,4.6,4.6,0,0,0,1,3.19,4.69,4.69,0,0,0,6.34,0A4.94,4.94,0,0,0,772.88,986.33Z"/><path d="M385.51,1069.53c0-1.14-.93-2-1.68-2.72a4,4,0,0,0-2.72-1.54c-1.15,0-1.79,1-2.54,1.72a3.15,3.15,0,0,0,0,5.08c.75.75,1.39,2,2.54,2a4.93,4.93,0,0,0,3.23-1.27A4.83,4.83,0,0,0,385.51,1069.53Z"/><path class="cls-6" d="M385.51,1069.53c0-1.14-.93-2-1.68-2.72a4,4,0,0,0-2.72-1.54c-1.15,0-1.79,1-2.54,1.72a3.15,3.15,0,0,0,0,5.08c.75.75,1.39,2,2.54,2a4.93,4.93,0,0,0,3.23-1.27A4.83,4.83,0,0,0,385.51,1069.53Z"/></g></g></g></svg>