<svg xmlns="http://www.w3.org/2000/svg" viewBox="0 0 565.11 617.82"><defs><style>.cls-1{fill:none;stroke:#000;stroke-linecap:round;stroke-linejoin:round;stroke-width:4.33px;}</style></defs><g id="Layer_2" data-name="Layer 2"><g id="sect6"><g id="connline"><path class="cls-1" d="M561.82,615.65c0-2,1.13-2,1.13-4s-.43-2-.43-4-.39-2-.39-4,.52-2,.52-4-.66-2-.66-4,.27-2,.27-4-.44-2-.44-4-.07-2-.07-4,.41-2,.41-4,.58-2,.58-4-.3-2-.3-4-.33-2-.33-4-.45-2-.45-4v-4c0-2,.43-2,.43-4.05,0-1.45.53-2.89.44-4.28s-.9-2.79-1.09-4.16-.41-2.82-.71-4.17.17-3-.25-4.36-2-2.31-2.57-3.58-.25-3.07-.94-4.28-2.22-2-3.05-3.11a34.61,34.61,0,0,0-2.48-3.44A35.33,35.33,0,0,0,548.1,521c-1.11-.88-1.92-2.18-3.14-2.92a33.45,33.45,0,0,0-3.83-1.93c-1.27-.56-2.82-.44-4.19-.87s-2.56-1.28-4-1.55-2.86.42-4.3.29-2.74-.86-4.18-.86c-.86,0-2.26.07-4.16.07-1.19,0-2.58-.09-4.16-.09-1.26,0-2.65.15-4.16.15-1.29,0-2.68-.69-4.15-.69s-2.71.17-4.16.17-2.72-.06-4.16-.06-2.72.09-4.15.09-2.74.74-4.16.74-2.74-.44-4.16-.44-2.74-.11-4.16-.11-2.74-.27-4.16-.27-2.75-.08-4.16-.08-2.74.49-4.15.49-2.75-.44-4.15-.44-2.75.46-4.15.46-2.76.63-4.16.63-2.75-.51-4.15-.51-2.76-.37-4.16-.37-2.75.88-4.15.88-2.76-.26-4.16-.26-2.76.12-4.15.12-2.76-1-4.16-1-2.76.29-4.16.29-2.76.46-4.15.46l-4.16,0c-1.38,0-2.76.26-4.16.26s-2.76-.89-4.15-.89-2.77.39-4.16.39-2.77-.62-4.16-.62-2.77.65-4.16.65-2.76.34-4.16.34-2.76-.4-4.15-.4-2.77-.06-4.16-.06-2.77.77-4.16.77-2.77-1-4.16-1-2.77.39-4.16.39-2.76-.06-4.15-.06l-4.16,0c-1.38,0-2.77-.29-4.15-.29s-2.77,1-4.16,1-2.77-.73-4.16-.73-2.77.53-4.15.53-2.77-.18-4.16-.18-2.77.38-4.16.38-2.77-.51-4.16-.51-2.77-.64-4.16-.64-2.77,1-4.16,1-2.77.07-4.16.07-2.77-1.27-4.15-1.27-2.77,1.29-4.16,1.29-2.77,0-4.16,0-2.77-1-4.15-1-2.77-.07-4.16-.07-2.77.87-4.16.87-2.77.28-4.16.28-2.77-.59-4.16-.59-2.78-.72-4.16-.72-2.78,1-4.17,1h-4.16c-1.39,0-2.78-.13-4.16-.13s-2.78-.89-4.17-.89-2.78,1.33-4.17,1.33-2.77-.18-4.16-.18-2.78-1.1-4.17-1.1-2.78.61-4.17.61-2.78,0-4.16,0-2.78.17-4.17.17-2.78-.09-4.16-.09-2.78.51-4.16.51-2.78-.41-4.16-.41-2.78-.75-4.17-.75-2.77.09-4.16.09-2.77.33-4.16.33-2.78-.46-4.16-.46-2.78.13-4.16.13-2.78.75-4.16.75-2.78-.87-4.16-.87-2.78.22-4.17.22-2.78.93-4.16.93-2.78-.38-4.16-.38-2.78-.2-4.16-.2-2.78.3-4.17.3-2.78-.43-4.16-.43-2.78.13-4.16.13-2.78-.05-4.17-.05-2.78.53-4.16.53h-4.16c-1.4,0-2.78-.84-4.16-.84s-2.79.44-4.16.44-2.79-.39-4.17-.39-2.78.83-4.16.83-2.78.18-4.16.18-2.78-.57-4.16-.57-2.78.09-4.16.09-2.78-.37-4.16-.37-2.79.24-4.16.24-2.79-.58-4.16-.58-2.79.4-4.16.4-2.8.79-4.17.79-2.79-1-4.16-1-2.8,1-4.17,1-2.8-.67-4.16-.67-2.8-.29-4.16-.29-2.8-.14-4.16-.14-2.8.44-4.16.44-2.81-.66-4.16-.66-2.81.73-4.15.73-2.83.11-4.16.11S72.4,513,71.08,513s-2.85.29-4.16.29c-1.49,0-2.87.6-4.15.6-1.55,0-2.94-.31-4.16-.31-1.72,0-3.11-.73-4.15-.73-1.41,0-2.78.26-4.14.25s-2.78-.3-4.13-.34-2.78,0-4.12-.07-2.79-.17-4.13-.27-2.88.72-4.21.57-2.63-1.46-3.95-1.69-2.77-.3-4.07-.64a40.09,40.09,0,0,1-4.05-.9,30.61,30.61,0,0,1-3.56-2.11,25.06,25.06,0,0,1-3.51-2.1c-1.1-.83-2.57-1.27-3.51-2.29a25.53,25.53,0,0,1-2.33-3.49,26.77,26.77,0,0,1-2.37-3.47,36.49,36.49,0,0,1-1.4-4c-.4-1.25-.74-2.63-1.05-4s.1-2.77-.1-4.19-1-2.61-1.13-4,.43-2.75.37-4.18-.7-2.7-.7-4.13c0-1.19,1-2.57,1-4.14,0-1.26-.27-2.64-.27-4.14,0-1.29-.49-2.67-.49-4.13s.38-2.7.38-4.14,0-2.71,0-4.14,0-2.71,0-4.14-.09-2.72-.09-4.13.49-2.73.49-4.14-1-2.73-1-4.14.29-2.74.29-4.14,0-2.73,0-4.13.25-2.74.25-4.14-.76-2.73-.76-4.13.38-2.74.38-4.13-.31-2.74-.31-4.14.69-2.74.69-4.13.39-2.75.39-4.14.06-2.74.06-4.13-.62-2.75-.62-4.14.62-2.75.62-4.14V384.9c0-1.37-.32-2.75-.32-4.14s-.55-2.75-.55-4.14.25-2.75.25-4.14.83-2.75.83-4.13S3,365.59,3,364.21s-.64-2.75-.64-4.14.69-2.75.69-4.14-.37-2.75-.37-4.13-.27-2.76-.27-4.14,0-2.76,0-4.14.13-2.76.13-4.14.94-2.76.94-4.14-1.17-2.76-1.17-4.14S3,328.35,3,327s-.72-2.75-.72-4.13.73-2.75.73-4.14-.63-2.75-.63-4.13S3,311.8,3,310.42s-.55-2.76-.55-4.14-.09-2.76-.09-4.14.82-2.75.82-4.14-.56-2.75-.56-4.14.12-2.75.12-4.14-.46-2.75-.46-4.13,1.27-2.76,1.27-4.14-1-2.76-1-4.14-.32-2.75-.32-4.13.25-2.76.25-4.14,0-2.76,0-4.14.06-2.76.06-4.14.35-2.76.35-4.15-.29-2.76-.29-4.14.68-2.76.68-4.14-.34-2.77-.34-4.15-.74-2.76-.74-4.14.27-2.77.27-4.15.71-2.76.71-4.14S3,229,3,227.6v-4.15c0-1.38-.68-2.76-.68-4.14s.87-2.77.87-4.14-.93-2.77-.93-4.15.6-2.76.6-4.14.18-2.76.18-4.14.15-2.76.15-4.14-1-2.76-1-4.14.74-2.77.74-4.14.31-2.77.31-4.14-1-2.77-1-4.14.48-2.77.48-4.15.43-2.76.43-4.14.39-2.77.39-4.14.11-2.77.11-4.15-.41-2.76-.41-4.14-.62-2.77-.62-4.14-.19-2.77-.19-4.14,0-2.78,0-4.15.26-2.77.26-4.14-.29-2.77-.29-4.15.35-2.77.36-4.14-.15-2.77-.15-4.14-.1-2.77-.1-4.14S3.58,125.4,3.58,124s-.45-2.77-.45-4.14-.1-2.77-.1-4.14-.34-2.78-.34-4.14-.28-2.78-.28-4.14-.24-2.78-.24-4.14,1.17-2.78,1.17-4.15S2.41,96.4,2.41,95V90.9c0-1.4.14-2.78.14-4.14s.82-2.78.82-4.14,0-2.79,0-4.14-1.07-2.79-1.07-4.14.31-2.8.31-4.14-.47-2.8-.47-4.15,1.37-2.8,1.37-4.14S3,59.1,3,57.77s.3-2.83.3-4.14c0-1.47,0-2.85,0-4.13,0-1.51.09-2.89.09-4.14,0-1.6-.73-3-.73-4.14a16.93,16.93,0,0,0-.4-4.13c0-1.32.72-2.71.81-4.14s-.35-2.79-.17-4.19.19-2.81.47-4.18,1.9-2.36,2.32-3.68.42-2.76,1-4A27.59,27.59,0,0,1,8.4,13.11,23.93,23.93,0,0,1,11.07,9.9a21.84,21.84,0,0,1,3.25-2.56,21.64,21.64,0,0,1,3.74-1.68,23.9,23.9,0,0,1,3.86-1.22c1.27-.34,2.39-1.79,3.84-2s2.75.26,4.21.26c1.18,0,2.59.43,4.14.43,1.3,0,2.7.16,4.15.16s2.75.12,4.15.12,2.8-.79,4.16-.79,2.85-.49,4.16-.49c1.53,0,2.94.47,4.15.47,2.52,0,2.07.75,4.14.75"/></g></g></g></svg>