<svg xmlns="http://www.w3.org/2000/svg" viewBox="0 0 214.33 214.68"><defs><style>.cls-1{fill:#e6b49d;}.cls-2{font-size:20.21px;font-family:PTSerif-Bold, PT Serif;font-weight:700;}.cls-3{letter-spacing:-0.02em;}</style></defs><g id="Layer_2" data-name="Layer 2"><g id="sect5"><g id="art"><path class="cls-1" d="M180.48,34.83c-.87-.87-1.69-1.79-2.59-2.63s-1.82-1.66-2.75-2.46-1.66-1.86-2.61-2.63-1.77-1.77-2.75-2.5-2.05-1.41-3.05-2.12-2.49-.72-3.52-1.39-2-1.4-3.07-2-1.89-1.65-3-2.24S155,15.58,153.93,15s-2.42-.67-3.53-1.18-2.13-1.28-3.26-1.75-2.53-.3-3.68-.73-2.33-.74-3.49-1.13-2-1.86-3.18-2.2-2.56,0-3.75-.33-2.23-1.32-3.43-1.58-2.45-.39-3.66-.61-2.53.12-3.74,0-2.42-.52-3.65-.66-2.48.07-3.7,0-2.45-.21-3.68-.25-2.46.3-3.69.3-2.44.15-3.67.2-2.5-.68-3.72-.6-2.4.79-3.63.92-2.45.17-3.66.34-2.55-.29-3.76-.07-2.32,1-3.52,1.24-2.29,1-3.48,1.28-2.56-.07-3.74.28S76.13,9.69,75,10.07s-2.53.23-3.68.66-2.24,1-3.38,1.51-2.42.62-3.54,1.13-1.84,1.84-2.94,2.39-2.23,1-3.32,1.6-2.46.65-3.52,1.28-1.81,1.74-2.85,2.41-1.9,1.54-2.92,2.24-2.3,1-3.28,1.74-1.82,1.66-2.78,2.44S41,29.23,40.1,30s-2.29,1.12-3.19,2-1.72,1.76-2.59,2.64-1.76,1.74-2.6,2.63-1.84,1.67-2.64,2.6-1.75,1.78-2.52,2.73-1.53,2-2.27,2.94-1.29,2.13-2,3.13-1.35,2.07-2,3.11S19.6,54.25,19,55.3s-1.79,1.82-2.37,2.89-1.33,2.1-1.88,3.2S14.11,63.83,13.6,65s-1.52,2-2,3.16-.57,2.43-1,3.58-.6,2.39-1,3.56-1.47,2.12-1.82,3.3S7,80.91,6.74,82.11s-.39,2.45-.65,3.65.2,2.55,0,3.76S4.75,91.81,4.58,93s-.38,2.45-.51,3.67-.22,2.48-.31,3.7.2,2.5.16,3.73-.17,2.46-.17,3.69.56,2.46.6,3.69.16,2.45.25,3.67.18,2.45.31,3.67-.57,2.56-.4,3.78.45,2.44.66,3.66.67,2.39.93,3.59,1,2.29,1.33,3.49.35,2.45.7,3.63,1.14,2.22,1.53,3.39.05,2.59.48,3.74,1.23,2.17,1.7,3.31,1.33,2.1,1.84,3.22,1.22,2.13,1.78,3.23.12,2.71.71,3.79,2.23,1.57,2.86,2.63.94,2.29,1.61,3.33,1.6,1.87,2.3,2.88.68,2.54,1.42,3.53,1.65,1.85,2.42,2.81,2,1.53,2.81,2.46,1.21,2.21,2.06,3.11,1.72,1.76,2.6,2.63,1.52,2,2.42,2.83,1.94,1.56,2.86,2.36,2,1.43,3,2.2,1.9,1.59,2.88,2.32,2.28,1,3.29,1.75,1.6,2,2.63,2.72,2.51.62,3.57,1.25,2,1.47,3.07,2.06,1.89,1.71,3,2.26,2.26,1,3.38,1.53,2.62.17,3.75.64,2,1.77,3.1,2.2,2.5.36,3.66.75,2.27,1,3.45,1.36,2.51.14,3.7.44,2.22,1.37,3.42,1.63,2.41.59,3.62.81,2.51,0,3.73.14,2.47.1,3.69.23,2.46.08,3.69.17,2.43.59,3.66.63,2.47-.43,3.7-.43,2.46.24,3.69.19,2.47.06,3.69,0,2.47-.1,3.69-.23,2.36-.94,3.58-1.11,2.51.15,3.72-.07,2.46-.29,3.66-.55,2.37-.7,3.56-1,2.19-1.3,3.37-1.65,2.34-.7,3.51-1.09,2.39-.56,3.54-1,2.36-.7,3.5-1.17,2.27-.94,3.39-1.45,2.23-1,3.34-1.56,2.38-.75,3.46-1.34,2.22-1.11,3.28-1.74,2-1.53,3-2.2,2.21-1.14,3.22-1.84,1.91-1.57,2.89-2.31,2-1.4,3-2.18,2-1.5,2.9-2.31,1.63-1.87,2.54-2.71,1.67-1.8,2.55-2.68,2.19-1.33,3-2.22,1-2.38,1.86-3.31,1.49-2,2.26-2.9,1.92-1.63,2.66-2.61,1.39-2,2.1-3,1.84-1.75,2.51-2.78.68-2.48,1.31-3.54,1.92-1.75,2.51-2.82.55-2.51,1.1-3.61.8-2.33,1.31-3.45,1-2.25,1.43-3.39,1.22-2.16,1.65-3.31,1.25-2.17,1.64-3.34.78-2.34,1.13-3.52.4-2.45.7-3.65.7-2.37,1-3.57.47-2.42.69-3.63.11-2.48.29-3.69.87-2.38,1-3.6,0-2.48.06-3.71-.2-2.48-.16-3.71.94-2.45.94-3.68-1.15-2.44-1.19-3.67.42-2.48.33-3.71-.21-2.45-.34-3.68.07-2.49-.11-3.71-1.17-2.3-1.39-3.52-.15-2.46-.41-3.67-.93-2.29-1.23-3.49-.26-2.47-.6-3.65S206.37,76.2,206,75s-1.27-2.16-1.7-3.31-.82-2.32-1.29-3.46-1.14-2.18-1.65-3.3-.72-2.38-1.27-3.48-.75-2.4-1.34-3.48-1.11-2.22-1.74-3.28-1.78-1.81-2.45-2.84-1.45-2-2.16-3-1-2.29-1.76-3.28-1.82-1.71-2.59-2.67-2-1.54-2.79-2.47-1.61-1.84-2.45-2.74S181.35,35.71,180.48,34.83ZM57.67,157.64c-.87-.87-1.65-1.83-2.47-2.74s-1.63-1.85-2.4-2.79-1.25-2.14-2-3.12-1.18-2.15-1.84-3.18-1.37-2-2-3.07-1.9-1.76-2.46-2.85-1-2.27-1.49-3.39-.53-2.43-1-3.58-.75-2.32-1.13-3.48-1.17-2.21-1.49-3.4-.3-2.45-.55-3.64-1.13-2.3-1.32-3.51-.46-2.45-.58-3.67.92-2.53.86-3.76-.77-2.42-.77-3.65.79-2.41.85-3.64,0-2.43.17-3.65-.25-2.49-.06-3.7.61-2.38.86-3.58.24-2.46.56-3.65.72-2.35,1.1-3.52.44-2.45.88-3.6.8-2.35,1.3-3.47,1.74-1.9,2.3-3,.62-2.46,1.24-3.52,1.36-2.06,2-3.09,1.91-1.65,2.64-2.64,1-2.28,1.81-3.24,1.24-2.18,2.07-3.1,2.19-1.31,3.06-2.18,1.37-2.14,2.28-3,2.24-1.17,3.19-1.94S65.21,51.69,66.2,51s2.21-1.12,3.23-1.78,1.62-2.07,2.68-2.68,2.22-1.11,3.31-1.67,2.48-.51,3.59-1,2-1.47,3.2-1.91,2.24-1.08,3.4-1.46,2.51-.23,3.69-.55,2.34-.81,3.54-1.07,2.37-.74,3.58-.93,2.53.32,3.75.19,2.43-.32,3.65-.38,2.45-.06,3.68-.06,2.43.26,3.66.32,2.41.33,3.63.46,2.41.27,3.62.46,2.44.2,3.64.45,2.39.49,3.57.8,2.58,0,3.75.34,2.12,1.38,3.27,1.82,2.19,1.07,3.32,1.57,2.45.55,3.54,1.11,1.9,1.64,3,2.25,2.3.93,3.33,1.6S148,50,149,50.73s1.5,2.05,2.46,2.83,1.79,1.63,2.71,2.45,1.92,1.5,2.79,2.37,2.24,1.27,3,2.18.93,2.44,1.7,3.39,1.46,1.93,2.18,2.92,1.42,2,2.09,3,1.6,1.87,2.21,2.93,1.11,2.18,1.66,3.27,1.57,2,2.07,3.09,1,2.25,1.46,3.39.83,2.32,1.21,3.49-.11,2.58.21,3.76.67,2.33.92,3.53.68,2.35.87,3.56.84,2.36,1,3.58-.05,2.47,0,3.69.55,2.44.55,3.67-.83,2.43-.89,3.65.22,2.47.09,3.69.11,2.49-.08,3.7-.21,2.48-.47,3.68-1.63,2.13-1.95,3.31.47,2.7.09,3.86-1.15,2.22-1.59,3.36-.63,2.41-1.13,3.54-1.85,1.83-2.4,2.93-1,2.23-1.59,3.3-.77,2.4-1.45,3.44-1.82,1.72-2.54,2.71-1.42,2-2.2,2.94-1.82,1.64-2.65,2.55-1.53,1.89-2.4,2.76-1.59,1.88-2.5,2.7-1.88,1.57-2.83,2.34-1.62,1.93-2.61,2.65-2.45.76-3.47,1.43-1.65,2-2.71,2.61-2.29,1-3.37,1.52-2.46.54-3.57,1-2.21,1-3.35,1.47-2,1.71-3.17,2.08-2.6-.15-3.78.17-2.25,1.09-3.45,1.35-2.45.2-3.66.39-2.36.9-3.58,1-2.5-.57-3.73-.51-2.42,0-3.65,0-2.44.42-3.67.36-2.46.06-3.68-.06-2.47-.14-3.68-.33-2.34-.84-3.54-1.1-2.51-.05-3.7-.37-2.3-.91-3.46-1.29-2.27-.94-3.42-1.38-2.23-1-3.35-1.49-2.52-.43-3.61-1-1.93-1.61-3-2.23-2-1.39-3-2.06-2.12-1.23-3.11-1.95-2.4-.93-3.36-1.7-1.9-1.59-2.81-2.42S58.54,158.51,57.67,157.64Z"/><path class="cls-1" d="M0,185c-.53-6.25,4.42-3,8.85-7.4s2.17-6.68,6.6-11.11,4.46-4.4,8.89-8.83,5-3.86,9.43-8.29,3.48-5.39,7.91-9.82,5.7-3.16,10.12-7.59,4.37-4.5,8.8-8.93,5.53-3.33,10-7.76,4.74-4.12,9.17-8.55,3.76-5.11,8.19-9.54,4.7-4.17,9.13-8.6,3.48-5.39,7.91-9.82,5-3.9,9.4-8.33,4-4.89,8.4-9.32,5.85-3,10.28-7.45,4.37-4.49,8.8-8.92,1.75-7.11,6.18-11.55,6.43-2.44,10.87-6.87,4.2-4.66,8.63-9.1,3.12-5.75,7.55-10.18,3.35-7.52,9.6-7c7.4.62,4.87,4.65,10.12,9.9s6.83,3.67,12.08,8.92,6.68,4.39,7.31,11.79c.53,6.24-.8,5.79-5.23,10.22s-6.66,2.2-11.09,6.63-3.17,5.69-7.6,10.12-4.09,4.77-8.52,9.2-4.81,4-9.24,8.48-5.06,3.8-9.49,8.23-4.39,4.48-8.82,8.91-2.91,6-7.34,10.39-5.5,3.36-9.93,7.8-5.07,3.79-9.5,8.22-3.63,5.23-8.07,9.67-6.2,2.65-10.64,7.09-2.89,6-7.32,10.4-5.53,3.33-10,7.76-4.88,4-9.31,8.42-3.14,5.72-7.57,10.16-6,2.86-10.43,7.3-1.65,7.21-6.08,11.65-7,1.89-11.41,6.33-3.07,5.8-7.5,10.23-2.58,7.27-8.83,6.74c-7.39-.62-4.78-3.87-10-9.11s-4.5-6.37-10.52-10.72S.67,192.42,0,185Z"/><text class="cls-2" transform="translate(42.6 99.46)"><tspan class="cls-3">C</tspan><tspan x="12.69" y="0">OMMUNITY</tspan><tspan x="-3.34" y="32.34">QUARANTINE</tspan></text></g></g></g></svg>