<svg xmlns="http://www.w3.org/2000/svg" viewBox="0 0 472.88 146.97"><defs><style>.cls-1{fill:#e6b49d;}.cls-2{font-size:25.99px;font-family:PTSerif-Regular, PT Serif;}.cls-3{letter-spacing:-0.02em;}.cls-4{letter-spacing:-0.03em;}.cls-5{letter-spacing:-0.04em;}.cls-6{letter-spacing:-0.02em;}.cls-7{letter-spacing:0em;}.cls-8{letter-spacing:-0.01em;}.cls-9{letter-spacing:0em;}.cls-10{letter-spacing:-0.04em;}.cls-11{letter-spacing:-0.01em;}.cls-12{letter-spacing:-0.02em;}</style></defs><g id="Layer_2" data-name="Layer 2"><g id="sect3"><g id="copy"><path class="cls-1" d="M335.18,33.45c-1.5,1.45-2.08-.51-4.17-.51s-2.09.84-4.18.84-2.09,0-4.18,0-2.09-.18-4.18-.18-2.09-.13-4.18-.13-2.09.43-4.18.43-2.09,0-4.18,0-2.09-.51-4.18-.51-2.09-.11-4.18-.11-2.09.72-4.18.72-2.09-.31-4.18-.31S287.12,34,285,34s-2.09-1.15-4.18-1.15-2.09.23-4.18.23-2.09-.08-4.19-.08-2.09.26-4.18.26-2.09-.16-4.18-.16S262,33,259.94,33s-2.09,0-4.18,0-2.1,1.1-4.19,1.1-2.09-.68-4.18-.68-2.09.77-4.18.77S241.12,33,239,33s-2.09.1-4.18.1-2.09.18-4.18.18-2.1.13-4.19.13-2.09.13-4.18.13-2.09.47-4.19.47-2.09-.19-4.18-.19-2.09-.18-4.19-.18h-4.18c-2.09,0-2.09.43-4.19.43s-2.09-.2-4.18-.2-2.1-.15-4.19-.15-2.09.05-4.18.05-2.09-.05-4.18-.05-2.1.4-4.19.4-2.09-.45-4.18-.45-2.1-.07-4.19-.07-2.09.5-4.18.5-2.1-1.14-4.19-1.14-2.09.85-4.19.85-2.09.33-4.19.33-2.09-1.06-4.18-1.06-2.1-.3-4.19-.3-2.1.07-4.19.07-2.09,1-4.19,1-2.1,0-4.19,0-2.73,1.09-4.24-.36-.1-2.07-.1-4.1-.19-2-.19-4.05-1.24-2.76.22-4.17,2.2.11,4.29.11,2.1.65,4.19.65,2.09-.36,4.18-.36,2.09.11,4.18.11,2.09.28,4.18.28,2.09-.74,4.17-.74,2.09-.44,4.18-.44,2.09.43,4.18.43,2.09-.51,4.18-.51,2.09.23,4.19.23,2.09.21,4.18.21,2.09-.13,4.18-.13,2.09,0,4.18,0,2.09.35,4.18.35,2.09.09,4.18.09,2.09-.57,4.18-.57,2.09.36,4.18.36,2.1.6,4.19.6,2.09-.23,4.18-.23,2.09-.86,4.18-.86,2.09.62,4.19.62,2.09.12,4.18.12,2.09.14,4.18.14,2.09-.83,4.19-.83,2.09,1,4.18,1,2.09.13,4.18.13,2.1-.22,4.19-.22,2.09-.36,4.18-.36,2.09.19,4.19.19,2.09-.94,4.18-.94,2.09,1,4.19,1S261.92,21,264,21s2.09.88,4.19.88,2.09-.65,4.18-.65,2.1-.48,4.19-.48,2.09-.06,4.18-.06,2.09.46,4.18.46,2.09.12,4.19.12,2.09.64,4.18.64,2.1-.83,4.19-.83,2.09-.49,4.18-.49,2.1.3,4.19.3,2.1.57,4.19.57,2.09.1,4.19.1,2.09.25,4.19.25,2.09-.28,4.18-.28,2.1.23,4.19.23,2.1-.28,4.2-.28,2.52-1.5,4-.05.61,1.86.61,3.89-1.12,2.12-.7,4.1S336.63,32,335.18,33.45Z"/><text class="cls-2" transform="translate(129.74 22.09)">Tha<tspan class="cls-3" x="44.46" y="0">t</tspan><tspan class="cls-4" x="53.51" y="0">&apos;</tspan><tspan x="59.07" y="0">s right</tspan><tspan class="cls-5" x="133" y="0">,</tspan><tspan x="139.32" y="0" xml:space="preserve"> guys! </tspan><tspan class="cls-6" x="-105.47" y="58.9">A</tspan><tspan class="cls-7" x="-88.21" y="58.9" xml:space="preserve"> pandemic </tspan><tspan class="cls-8" x="37.54" y="58.9">w</tspan><tspan x="56.14" y="58.9">on&apos;t stop the </tspan><tspan class="cls-8" x="208.79" y="58.9">w</tspan><tspan x="227.4" y="58.9">edding</tspan><tspan class="cls-5" x="306.24" y="58.9">,</tspan><tspan x="312.56" y="58.9"> </tspan><tspan x="-129.74" y="88.36">and </tspan><tspan class="cls-8" x="-80.44" y="88.36">w</tspan><tspan x="-61.84" y="88.36">e can </tspan><tspan class="cls-8" x="4.53" y="88.36">w</tspan><tspan class="cls-9" x="23.14" y="88.36">eather any storm—but wait</tspan><tspan class="cls-10" x="336.83" y="88.36">,</tspan><tspan x="-114.06" y="117.81" xml:space="preserve"> h</tspan><tspan class="cls-8" x="-92.49" y="117.81">o</tspan><tspan class="cls-7" x="-78.43" y="117.81">w did </tspan><tspan class="cls-11" x="-10.21" y="117.81">w</tspan><tspan x="8.39" y="117.81">e get here in the first pla</tspan><tspan class="cls-12" x="290.46" y="117.81">c</tspan><tspan x="302.1" y="117.81">e?</tspan></text></g></g></g></svg>