<svg xmlns="http://www.w3.org/2000/svg" viewBox="0 0 836.03 2183.98"><defs><style>.cls-1,.cls-3,.cls-6,.cls-7,.cls-8{fill:none;}.cls-1,.cls-7{stroke:#000;}.cls-1,.cls-3,.cls-6,.cls-7{stroke-linecap:round;stroke-linejoin:round;}.cls-1,.cls-3,.cls-6{stroke-width:3.61px;}.cls-2{fill:#e6b49d;}.cls-3,.cls-8{stroke:#e6b49d;}.cls-4{fill:#8e9b91;}.cls-5{fill:#fff;}.cls-6{stroke:#677d70;}.cls-7{stroke-width:5.48px;}.cls-8{stroke-miterlimit:10;stroke-width:4.33px;}</style></defs><g id="Layer_2" data-name="Layer 2"><g id="sect9"><g id="bg"><g id="right1"><path class="cls-1" d="M605.35,1967.33c-1.31-.27-1.36,0-2.66-.29s-1.3-.32-2.6-.59-1.22-.69-2.53-1-1.43.32-2.74,0-1.22-.65-2.53-.92-1.36,0-2.67-.28-1.32-.19-2.63-.46-1.3-.32-2.61-.59-1.22-.7-2.52-1-1.22-.7-2.53-1-1.3-.3-2.61-.57-1.38,0-2.69-.22-1.44.41-2.75.14-1.33-.22-2.64-.49-1.12-1.13-2.43-1.4-1.34-.1-2.65-.37-1.25-.59-2.56-.86-1.5.68-2.81.41-1.12-1.19-2.44-1.46l-2.62-.54c-1.31-.27-1.32.2-2.64.4s-.17.48-.45,2.17c-.12.75-.59,1.59-.76,2.6-.14.81-.52,1.67-.68,2.62s.35,1.83.2,2.76-.94,1.63-1.09,2.55.53,1.88.38,2.79-1.17,1.61-1.33,2.51-.12,1.79-.27,2.69-.34,1.75-.5,2.65-.4,1.74-.55,2.63.26,1.86.1,2.75-.73,1.7-.89,2.58.26,1.88.1,2.76-1,1.66-1.13,2.53.63,2,.47,2.83-.94,1.67-1.1,2.54-.27,1.79-.43,2.66-.46,1.76-.62,2.62-.56,1.76-.73,2.61.17,1.91,0,2.74-1,1.71-1.14,2.51c-.22,1,.1,2-.07,2.73a16.85,16.85,0,0,1-.84,2.49c-.38.91-1.19,1.38-1.66,2-.62.8-.89,1.72-1.61,2a3.28,3.28,0,0,1-2.64-.08,5.86,5.86,0,0,1-2-1.78,12.7,12.7,0,0,1-1.15-2.39,21.22,21.22,0,0,1-.69-2.53c-.22-.78-.16-1.67-.33-2.59s-.59-1.62-.69-2.54.13-1.72.09-2.63-.18-1.7-.18-2.62-.52-1.73-.48-2.64"/><path class="cls-2" d="M822.7,1475.68c-1.66-1.67-2-.43-4.35-.43s-2.36-.29-4.72-.29-2.36.64-4.72.64-2.36-.77-4.72-.77-2.36.72-4.72.72-2.36-.08-4.72-.08-2.35-.43-4.71-.43-2.36.66-4.72.66H780.6c-2.36,0-2.36-1-4.72-1s-2.36,1.08-4.72,1.08-2.36-.83-4.72-.83-2.36.92-4.72.92-2.36-.78-4.72-.78-2.36.6-4.72.6-2.36-.23-4.72-.23-2.36.21-4.73.21-2.4-.79-4.66-.11-.32,1.47-1.24,4.28c-.41,1.24-1,2.7-1.51,4.38-.44,1.34-1.66,2.57-2.18,4.16-.45,1.39-.56,3-1.07,4.53s-1,2.85-1.53,4.38-1.14,2.82-1.64,4.33-.36,3.1-.86,4.6-.92,2.92-1.41,4.41-1,2.9-1.49,4.39-1.07,2.88-1.56,4.37-1.53,2.74-2,4.22-.75,3-1.24,4.47-.21,3.18-.69,4.65-1.68,2.7-2.17,4.17-.62,3.06-1.1,4.52-1,2.93-1.51,4.39-.3,3.17-.78,4.63-1.44,2.79-1.92,4.25-1.69,2.71-2.18,4.16-.64,3.07-1.12,4.52-.91,3-1.39,4.42-.77,3-1.25,4.47-.92,3-1.4,4.43-1.43,2.84-1.9,4.25-.16,3.28-.63,4.67c-.53,1.58-1.12,3-1.5,4.52a34.14,34.14,0,0,0-.68,4.67c-.18,1.57-1.26,3.1-1.17,4.73a32.62,32.62,0,0,0,1.06,4.72c.33,1.47,1.36,2.79,1.93,4.4a47.91,47.91,0,0,0,1.34,4.6c.6,1.31.84,2.87,1.53,4.27s1.06,2.83,1.76,4.18,1.45,2.67,2.16,4,1.69,2.57,2.4,3.84,2,2.46,2.68,3.69c.83,1.46,1.79,2.67,2.44,3.79,1.39,2.4-.12,3,2.06,3.6s2.25,1.1,4.63,1.1,2.38-.67,4.76-.67,2.38.67,4.76.67,2.38-.05,4.77-.05,2.38-1,4.76-1,2.38-.25,4.76-.25,2.38,1.08,4.76,1.08,2.38-.87,4.76-.87,2.39.41,4.77.41,2.38.63,4.76.63,2.38.06,4.76.06,2.38-1.23,4.76-1.23,2.38,1.12,4.76,1.12,2.38-1,4.76-1,2.39.25,4.77.25,2.38.68,4.76.68,2.39-1,4.77-1l4.76,0c2.38,0,2.38.88,4.76.88s2.39-.22,4.77-.22,2.39.67,4.77.67,3.08,1,4.78-.72-.51-2.37-.51-4.73.22-2.37.22-4.74,0-2.36,0-4.73-.37-2.36-.37-4.73.42-2.36.42-4.73.29-2.37.29-4.74.31-2.36.31-4.73-.55-2.37-.55-4.73.58-2.37.58-4.74-.31-2.37-.31-4.73-.31-2.37-.31-4.74.26-2.36.26-4.73-.28-2.37-.28-4.73.51-2.37.51-4.74-.22-2.36-.22-4.73.43-2.37.43-4.74-.21-2.36-.21-4.73-.77-2.37-.77-4.74.54-2.36.54-4.73-.14-2.37-.14-4.74.34-2.37.34-4.74.13-2.36.13-4.73-.1-2.37-.1-4.74-.09-2.37-.09-4.73-.67-2.37-.67-4.74-.09-2.36-.09-4.73.34-2.37.34-4.74.1-2.36.1-4.73.29-2.37.29-4.74-.08-2.37-.08-4.74.27-2.36.27-4.73-.81-2.37-.81-4.74.83-2.37.83-4.74-.46-2.35-.05-4.68S824.37,1477.37,822.7,1475.68Z"/><path class="cls-3" d="M661.41,1508.45c1-.34.89-.64,1.88-1s1.14.08,2.12-.27,1-.4,2-.75.84-.75,1.83-1.1"/><path class="cls-2" d="M681.11,1248.48c-2.29,2.32-3.35.92-6.62.92s-3.26-.1-6.52-.1-3.27-.17-6.53-.17-3.26-.86-6.53-.86-3.26-.22-6.52-.22-3.27.69-6.53.69-3.26,0-6.53,0-3.26-.61-6.53-.61-3.26-.3-6.53-.3-3.26-.35-6.53-.35-3.26,1.14-6.52,1.14-3.27.65-6.53.65-3.26.09-6.52.09-3.27-1.81-6.53-1.81-3.27,1.74-6.53,1.74-3.27-1.56-6.53-1.56-3.27-.22-6.53-.22-3.27.8-6.53.8-3.27-.35-6.53-.35-3.27-.3-6.54-.3-3.91,2.69-6.21.37-.13-3-.13-6.28.66-3.3.66-6.6-1.44-3.3-1.44-6.6.29-3.3.29-6.6.66-3.29.66-6.59-1.19-3.3-1.19-6.59.75-3.3.75-6.6.47-3.3.47-6.6-.12-3.3-.12-6.59.63-3.3.63-6.6-1.25-3.3-1.25-6.6-.59-3.3-.59-6.59,1.3-3.3,1.3-6.6.34-3.3.34-6.6-.27-3.3-.27-6.6-1.23-3.3-1.23-6.6.17-3.3.17-6.6,1.35-3.3,1.35-6.6-1.69-3.3-1.69-6.6.69-3.3.69-6.6,0-3.3,0-6.6-.57-3.3-.57-6.6,1.1-3.3,1.1-6.6-1.07-3.3-1.07-6.6-.06-3.3-.06-6.6.8-3.3.8-6.6.1-3.3.1-6.6.94-3.3.94-6.6-1.75-3.3-1.75-6.61,1.23-3.3,1.23-6.6-.9-3.3-.9-6.6.68-3.31.68-6.61-3.16-4.9-.84-7.25,3.91.11,7.18.11,3.26-.39,6.52-.39,3.27,1.5,6.53,1.5,3.26.1,6.52.1,3.27.16,6.53.16,3.27-.52,6.53-.52,3.26.31,6.53.31,3.26-.78,6.53-.78,3.26.2,6.52.2,3.27.55,6.53.55,3.27-.19,6.53-.19,3.27.08,6.53.08,3.26.1,6.52.1,3.27-1.09,6.53-1.09,3.27,1.08,6.53,1.08,3.27-1.54,6.53-1.54,3.27,1.52,6.53,1.52,3.27-1.12,6.53-1.12,3.27.16,6.53.16,3.27,1.24,6.54,1.24,4.31-3.23,6.61-.91,0,3.37,0,6.67-.12,3.3-.12,6.6.29,3.3.29,6.59-.08,3.3-.08,6.6-.37,3.3-.37,6.6.85,3.29.85,6.59-1.43,3.3-1.43,6.6.77,3.3.77,6.6.85,3.3.85,6.6-.8,3.29-.8,6.59-.51,3.3-.51,6.6,1.32,3.29,1.32,6.59-.5,3.3-.5,6.6-.64,3.3-.64,6.6,1.13,3.3,1.13,6.59.18,3.3.18,6.6-.94,3.3-.94,6.6.3,3.3.3,6.6-1,3.3-1,6.6,1.53,3.31,1.53,6.61-.1,3.3-.1,6.6-1,3.3-1,6.6,1.14,3.3,1.14,6.6-1,3.3-1,6.59-.32,3.3-.32,6.6,1.12,3.31,1.12,6.61-.74,3.3-.74,6.6.65,3.3.65,6.6-1.45,3.3-1.45,6.6,1.76,3.3,1.76,6.6-1.08,3.3-1.08,6.61-1.33,3.54-.62,6.77C681.05,1245.43,683.43,1246.12,681.11,1248.48Z"/><path class="cls-3" d="M116.52,1439.83c.93-.27,1-.1,1.91-.37s.87-.46,1.8-.73,1,.07,2-.2.83-.62,1.76-.9,1,.08,2-.2.85-.55,1.78-.82"/><path class="cls-3" d="M200.5,1469.33c.87-.52.68-.82,1.56-1.35s1.15,0,2-.57.71-.79,1.58-1.31.91-.46,1.78-1,.93-.43,1.8-.95.91-.47,1.79-1"/><path class="cls-1" d="M81.1,1482.08c-2.56.76-1.72,1-4.67,2.47-1.38.66-3.34.77-5,1.83a44.92,44.92,0,0,0-4.66,2.69,48.46,48.46,0,0,0-4,3.6c-1.22,1.2-1.51,3.31-2.67,4.75s-2.51,2.43-3.48,4-2.7,2.56-3.47,4.23,0,3.77-.55,5.52a49.34,49.34,0,0,0-1.28,5.1c-.33,1.68-1.18,3.32-1.35,5.15s-1.08,3.48-1.08,5.32"/><path class="cls-2" d="M41.48,1508.55c.61,2.13,1.84-1.31,3.44-3.51.75-1,1.39-2.43,2.39-3.74.83-1.11,1.16-2.75,2.12-4s2.72-1.56,3.69-2.72,1.41-2.69,2.39-3.79,2.12-2.12,3.12-3.15,2.3-2,3.35-2.91a29.85,29.85,0,0,1,3.53-2.58c1.95-1.3,3.42-2.44,4.64-3.25,4.71-3.12,7.06-1.84,5-3.8-1.6-1.57-2.13-.4-3.57-2.86a39.77,39.77,0,0,1-1.67-4.23,34.92,34.92,0,0,1-1.83-4.16c-.37-1.33,0-3-.23-4.55-.23-1.39-1.18-2.8-1.3-4.38-.11-1.42.52-3.07.37-4.79-.13-1.48-.88-3-1-4.67s.69-3.18.55-4.8-.9-3.07-1-4.67-.49-3.13-.59-4.72-.22-3.17-.29-4.75.56-3.2.52-4.77-.48-3.19-.47-4.74-.49-3.24-.42-4.77,1.49-3.14,1.66-4.64a44.62,44.62,0,0,1,.45-4.67,22.51,22.51,0,0,1,1-4.62c.67-1.4,1.8-2.67,2.58-4.17s.83-3.22,1.63-4.65,1.51-2.94,2.36-4.31,2.82-2.08,3.74-3.36,1.63-2.94,2.65-4.07a19.46,19.46,0,0,1,3.81-2.89c1.55-1.05,2.72-1.76,4.19-1.66s3-.47,4.79-.59c1.5-.1,3.1-.2,4.76-.36s3.17-.06,4.79-.18,3.2.26,4.79.25a41.61,41.61,0,0,1,4.74,0,25.46,25.46,0,0,1,4.63.88c1.41.42,3,.61,4.45,1s3,.61,4.45,1,3,.57,4.45,1,3,.92,4.34,1.4a28,28,0,0,1,3.94,2.26,13.83,13.83,0,0,1,3.65,2.47c.9,1,2.58,1.78,3.49,3.34.75,1.29.6,3.21,1.31,4.68s2.13,2.56,2.73,4c.67,1.57.48,3.41,1,4.72,1,2.62,2.37,1.92,2.44,4.28s-.42,2.51-.63,5,0,2.49-.21,5-1.55,2.46-.35,4.63c1,1.88,1.32,1.55,3.33,2.33s2.21.26,4.22,1,1.79,1.79,3.79,1c2.15-.86,1.32-1.47,2.43-3.49s1.27-1.94,2.38-4,1.41-1.87,2.52-3.89.37-2.44,1.48-4.46.83-2.18,2-4.21,1.26-1.94,2.37-4,1.27-1.93,2.39-4,.87-2.16,2-4.19,1.45-1.83,2.57-3.86,2-1.55,3.09-3.57,0-2.62,1.16-4.64,1-2.08,2.12-4.1,1.87-1.62,3-3.64,1.32-1.91,2.44-3.94,1.35-1.89,2.47-3.92.58-2.31,1.7-4.34,1.36-1.89,2.48-3.91,1.25-2,2.37-4,.06-2.61,1.18-4.63,4.63-2.13,3.41-4.1-3,1-5.33,1-2.37-.22-4.74-.22-2.37-.06-4.75-.06-2.36-.45-4.74-.45-2.37.62-4.74.62-2.37-1-4.74-1-2.37.33-4.74.33-2.37.26-4.74.26-2.38-.44-4.75-.44-2.37,0-4.74,0-2.37,1-4.75,1-2.37-.91-4.74-.91-2.37.1-4.74.1-2.37-.5-4.75-.5-2.37,1.24-4.74,1.24-2.37-.28-4.75-.28-2.37-.45-4.74-.45-2.37.11-4.75.11-2.37.41-4.74.41-2.37-.35-4.75-.35-2.37-.26-4.74-.26-2.38.36-4.75.36-2.37,0-4.75,0-2.37-.19-4.74-.19-2.37,0-4.74,0-2.37.25-4.75.25-2.37-.1-4.74-.1-2.38-.3-4.75-.3-2.37.8-4.75.8-2.37-.9-4.74-.9-2.38.06-4.75.06-2.37.44-4.75.44-2.37-.11-4.75-.11-2.38.28-4.75.28-2.89-1.81-4.57-.13.29,2.19.29,4.57-.34,2.37-.34,4.75.35,2.38.35,4.75-.79,2.38-.79,4.76,0,2.38,0,4.75,1,2.38,1,4.76-.68,2.38-.68,4.76-.39,2.38-.39,4.75,0,2.38,0,4.76,1,2.38,1,4.76-.71,2.38-.71,4.76.81,2.38.81,4.76-1.25,2.37-1.25,4.75.08,2.38.08,4.76.6,2.38.6,4.76V1418c0,2.37.08,2.37.08,4.75s.31,2.38.31,4.76-.87,2.38-.87,4.76.79,2.38.79,4.76-1.08,2.38-1.08,4.76.23,2.38.23,4.76,1,2.37,1,4.75-.32,2.38-.32,4.76-.75,2.38-.75,4.76,1.2,2.37,1.2,4.75-1.18,2.38-1.18,4.76.15,2.38.15,4.76.78,2.38.78,4.77-1.11,2.38-1.11,4.76.07,2.38.07,4.76,1,2.38,1,4.76-.31,2.38-.31,4.76a20.22,20.22,0,0,1-.5,4.71C41.2,1506.05,40.81,1506.26,41.48,1508.55Z"/><path class="cls-2" d="M199,1671.14c-1.94-1.28-1.36-1.79-2.22-4s.08-2.54-.78-4.7-1.76-1.79-2.62-4-1.12-2.06-2-4.21-.19-2.43-1.06-4.59-.61-2.26-1.47-4.43-2.13-1.84-2-4.16c.2-2.63,1.8,1,5,1.48,1.52.21,3.37-.1,5.33,0,1.65.08,3.41-.3,5.26-.4s3.56.5,5.34.2a29.37,29.37,0,0,0,4.58-1.17c1.6-.54,2.64-1.87,3.85-2.7a12.56,12.56,0,0,0,3-3.33c.85-1.19,2.59-2,3.19-3.54a34,34,0,0,0,1.3-4.55c.31-1.42-.23-3.1,0-4.76.17-1.21.6-2.71.87-4.47.2-1.36.25-2.9.51-4.51.22-1.42.12-3,.37-4.54s1.05-2.86,1.3-4.4.11-3,.36-4.54,1.15-2.87,1.4-4.38.14-3,.38-4.54,0-3.1.23-4.57.6-3,.84-4.47.68-3,.92-4.45c.27-1.6.18-3.16.41-4.54.28-1.7.92-3.14,1.13-4.42.47-2.8-1.13-5,1-4.22s1.13,1.64,2.74,3.75a11.56,11.56,0,0,0,3.43,3.14c1.3.75,2.69,2.11,4.47,2,1.44-.07,2.77-.76,4-.78,1.53,0,2.89,0,4,0,2.55,0,3.17-1.64,3.76.28a10.44,10.44,0,0,1,.64,4.6c0,2.35-.3,2.35-.3,4.69s.51,2.34.51,4.69-1,2.34-1,4.68.93,2.34.93,4.69-.91,2.34-.91,4.68.51,2.35.51,4.69-.54,2.35-.54,4.69.87,2.35.87,4.69-.31,2.35-.31,4.69-.69,2.34-.69,4.68.54,2.35.54,4.69.64,2.34.64,4.69-1.37,2.34-1.37,4.68.48,2.35.48,4.69,0,2.35,0,4.69-.34,2.35-.34,4.69.44,2.35.44,4.69.59,2.35.59,4.69-1,2.35-1,4.7,2,2.85.3,4.5-2.19.23-4.57.24-2.38.52-4.77.53-2.39-1-4.77-1-2.39.11-4.77.12-2.39.6-4.77.61-2.39.17-4.77.18-2.39.11-4.78.12-2.38,0-4.77,0-2.39-1-4.77-1-2.38,1.23-4.77,1.24-2.49-1.37-4.85-1S201,1672.46,199,1671.14Z"/><path class="cls-3" d="M738.37,1454.49c2,0,2,.06,4.1.06s2,.68,4.11.68,2-.17,4.1-.17,2.06-.75,4.11-.75,2.05.33,4.11.33,2.05-.37,4.1-.37,2,1.23,4.1,1.23,2-.61,4.11-.61,2-.52,4.1-.52,2.06,1.11,4.11,1.11,2.05-.76,4.11-.76,2.05.28,4.11.28,2.05-.37,4.1-.37,2.06.56,4.11.56,2.06-.06,4.11-.06,2,.09,4.11.09,2,.34,4.11.34,2.06-.47,4.11-.47,3-2,4.44-.55-.76,2.35-.76,4.37,0,2,0,4,.67,2,.67,4.06-.76,2-.76,4"/><path class="cls-3" d="M596.88,1454.57c2.1,0,2.1.56,4.2.56s2.11-.21,4.21-.21,2.1-.75,4.2-.75,2.1,1.23,4.2,1.23,2.11.07,4.21.07,2.1-.19,4.21-.19,2.1-1,4.2-1,2.1,1,4.21,1,2.1-.44,4.2-.44,2.1.18,4.21.18,2.1.28,4.2.28,2.11-.69,4.21-.69,2.1.2,4.2.2,2.1.54,4.2.54,2.11-.79,4.21-.79h4.2c2.11,0,2.11,0,4.21,0s2.1.13,4.2.13,2.11.49,4.21.49,2.11-.62,4.21-.62,2.1.51,4.21.51,2.1-.53,4.21-.53,2.1.81,4.2.81,2.11-.12,4.21-.12,2.11.24,4.21.24,2.11-.83,4.22-.83h4.21"/><path class="cls-3" d="M494.43,1582.89c0-2.06.58-2.06.58-4.13s-.24-2.06-.24-4.13-.43-2.06-.43-4.12.21-2.07.21-4.13-.83-2.06-.83-4.13.11-2.06.11-4.12.29-2.07.29-4.13.49-2.06.49-4.13-.27-2.06-.27-4.13.52-2.06.52-4.13-.56-2.06-.56-4.13.54-2.06.54-4.12.24-2.07.24-4.13-.86-2.07-.86-4.14.09-2.06.09-4.13-.63-2.06-.63-4.13.4-2.06.4-4.13.57-2.06.57-4.12.27-2.07.27-4.13-.26-2.07-.26-4.13.3-2.07.3-4.13,0-2.07,0-4.13-.94-2.07-.94-4.13.49-2.07.49-4.13.44-2.07.44-4.14-.64-2.06-.64-4.13.31-2.06.31-4.13.3-2.07.3-4.13-1-2.07-1-4.13.83-2.07.83-4.14-1.92-2.74-.45-4.19,2.15-.16,4.25-.16,2.1.78,4.21.78,2.1,0,4.2,0,2.1-1.13,4.2-1.13,2.1.13,4.21.13,2.09.9,4.19.9,2.1-1.17,4.21-1.17,2.1.06,4.19.06,2.11.45,4.21.45,2.1.64,4.2.64,2.1.13,4.2.13,2.11-.24,4.21-.24,2.1-.79,4.2-.79,2.11,1.12,4.21,1.12,2.1-1.12,4.2-1.12,2.11.67,4.21.67,2.1.39,4.21.39,2.1-.56,4.21-.56,2.1,0,4.21,0"/><path class="cls-2" d="M779.3,2183.56c-1.8-1-1.15-1.66-2.29-3.37s-1.3-1.61-2.43-3.33-1.1-1.74-2.24-3.45-1.39-1.55-2.52-3.26-.65-2-1.78-3.76-.76-2-1.89-3.69-2.13-1.06-3.26-2.78-.38-2.22-1.51-3.94-1-1.84-2.08-3.55-1.93-1.2-3.06-2.92-.48-2.15-1.61-3.87-1.86-1.24-3-3-.54-2.11-1.68-3.83-2.44-1.23-2.83-3.25.33-2.3.72-4.45.22-2.17.6-4.31,1.07-2,1.46-4.17.41-2.14.79-4.29.72-2.08,1.11-4.23-.21-2.25.18-4.39,1-2,1.36-4.19.2-2.18.58-4.33.17-2.19.55-4.33-.19-2.32.94-4.18.8,1.21,3,2.62c1,.65,2.55.85,3.88,1.69,1.09.69,2.4,1.23,3.66,2s2.37,1.35,3.6,2.1,2.44,1.27,3.67,2,2.2,1.72,3.42,2.41,2.35,1.52,3.57,2.18,2.19,1.88,3.41,2.51,3.07.16,4.29.74,2.57,1.18,3.78,1.7c1.39.58,2.54,1.38,3.75,1.78a17.24,17.24,0,0,0,4,.62c1.64.19,2.88.92,3.91,1.07,3.9.56,3.64-1,3.62,1s.25,2.08.25,4.15-.7,2.08-.7,4.16,1.14,2.07,1.14,4.14-.6,2.08-.6,4.16.29,2.07.29,4.15.44,2.07.44,4.15-.35,2.08-.35,4.15-.54,2.08-.54,4.15.87,2.08.87,4.16-.84,2.08-.84,4.16.09,2.08.09,4.16.41,2.07.41,4.15-.41,2.08-.41,4.15.41,2.08.41,4.16-.06,2.08-.06,4.16.84,2.26-.6,3.77-1.58.15-3.57.15-2,.23-4,.23-2-.08-4-.08-2-.19-4-.19-2-.36-4-.36a19.56,19.56,0,0,0-4,.32C781.19,2183.59,781.05,2184.52,779.3,2183.56Z"/><path class="cls-2" d="M546.14,2024.58c2.08.41,1.92,1.21,4,1.62s2.19-.22,4.26.19,2,.92,4,1.33,2.23-.37,4.3,0,2,.83,4.06,1.24,2.05.49,4.13.89,2,.55,4.11,1,2.15,0,4.23.42,2.14.07,4.21.48,2.09.31,4.16.72,2.1.3,4.17.71,2.08.39,4.15.79,1.88,1.42,3.95,1.82,2,.61,4.12,1,2.29,1,4.34.49-.64-2-1.34-4.57a31.87,31.87,0,0,1-1.26-4.3,33.34,33.34,0,0,1,0-4.48c0-1.45-.5-3-.24-4.54s1.62-2.6,2.19-4c.67-1.69.79-3.29,1.21-4.5.7-2,1.47-3.5,1.33-4.57-.19-1.41-1.78-1.83-3.79-2.61-1.13-.43-2.59-.75-4.41-1.26-1.13-.32-2.51-.66-4.1-1-1.28-.29-2.54-1.18-4-1.49-1.33-.29-2.66-.91-4.1-1.21s-2.94.36-4.36.08-2.82-.31-4.22-.59-2.62-1.45-4-1.72-2.8-.69-4.15-1-2.82-.74-4.13-1c-1.51-.32-2.87-.78-4.11-1.07-1.7-.4-3.12-.55-4.12-.87-2-.62-3.09.51-4.14,1.24a6,6,0,0,0-2.44,3.38c-.43,1.29-1.49,2.61-1.86,4.24-.32,1.42-.2,3-.62,4.56a38.81,38.81,0,0,1-1.42,3.85c-.51,1.27-.61,2.74-1.17,4s-1.19,2.56-1.71,3.74c-.63,1.42-1.31,2.62-1.66,3.72C545.1,2023.24,544.9,2024.33,546.14,2024.58Z"/><path class="cls-2" d="M807.73,2018.64c-.62,1.94-1.3-1.53-2.93-3.49-.74-.89-1.86-1.74-2.85-2.91-.81-1-1.63-2-2.57-3.15s-1.89-1.88-2.81-2.95S794.93,2004,794,2003s-2.09-1.74-3-2.77-1.13-2.63-2-3.64-2.25-1.64-3.16-2.64-2-1.84-2.94-2.81-1.48-2.39-2.39-3.34-2.5-1.49-3.59-2.48-2.15-1.86-3.27-2.79-2-2-3.18-2.92-2.1-2-3.26-2.87-2.07-2.15-3.23-2.94-3-.82-4.17-1.57-2.65-1.37-3.79-2.08c-1.39-.85-2.45-1.89-3.51-2.52-2.32-1.37-4.09-2.47-4.09-2.47s0-1.2-.22-4.1c-.08-1.13-.11-2.5-.23-4.15-.08-1.22-.13-2.6-.24-4.14-.09-1.26-.26-2.63-.37-4.13-.09-1.29-.34-2.65-.45-4.12-.09-1.31.39-2.73.28-4.19s.45-2.74.34-4.19-1.45-2.6-1.56-4-.17-2.71-.28-4.14.67-2.78.56-4.2-1.06-2.66-1.17-4.08.53-2.78.42-4.19-1-2.67-1.09-4.09.2-2.76.09-4.17.36-2.84.2-4.27-.73-2.74-.92-4.16-.57-2.75-.8-4.16-.48-2.76-.74-4.17-.92-2.67-1.22-4.07.33-3,0-4.34-.66-2.75-1-4.12-.77-2.72-1.18-4.08-1.71-2.42-2.16-3.75-1-2.61-1.55-3.93-.32-2.91-.86-4.21-1.66-2.35-2.26-3.62-1.12-2.59-1.78-3.83-1.6-2.32-2.33-3.52-.5-3.06-1.3-4.2-2.22-1.91-3.1-3-1.46-2.53-2.43-3.53-2.52-1.47-3.59-2.37-1.74-2.42-2.91-3.19-2.27-1.52-3.43-2.2-2.63-.89-3.81-1.53-2.34-1.41-3.54-2-2.84-.31-4.07-.85-2.26-1.62-3.49-2.12-2.64-.71-3.89-1.17-2.59-.84-3.84-1.25-2.44-1.38-3.69-1.76-2.5-1.37-3.74-1.71c-1.4-.38-3,.31-4.19,0-1.5-.36-2.8-.73-3.92-1a11.78,11.78,0,0,1-3.33-1c0-2.3-1-2.3-1-4.59s.65-2.3.65-4.6-1.47-2.56.07-4.26,1.73-.05,3.82-.05,2.1.35,4.19.35h4.18c2.09,0,2.09-1.13,4.19-1.13s2.09.07,4.18.07,2.09.2,4.19.2,2.09-.07,4.18-.07,2.1.8,4.19.8,2.09-.86,4.18-.86,2.1.87,4.19.87,2.09-.52,4.18-.52,2.1-.2,4.19-.2h4.19c2.09,0,2.09.63,4.18.63s2.1-.2,4.19-.2,2.09,0,4.19,0,2.09-.44,4.18-.44,2.1.21,4.19.21,2.09.12,4.19.12,2.09-.19,4.18-.19,2.09.75,4.19.75,2.09-.42,4.18-.42,2.09.16,4.19.16,2.09-.46,4.18-.46,2.1-.35,4.19-.35,2.1.48,4.19.48,2.1.13,4.19.13,2.1.19,4.19.19,2.1-.35,4.19-.35,2.1-.21,4.19-.21,2.1.15,4.19.15,2.1.29,4.2.29,2.92-1.93,4.41-.45-.32,2.31-.32,4.41.67,2.1.67,4.19-.81,2.1-.81,4.2.11,2.1.11,4.2-.39,2.1-.39,4.2,1.22,2.09,1.22,4.19-.65,2.1-.65,4.19-.72,2.1-.72,4.19,1.35,2.1,1.35,4.19-.29,2.1-.29,4.2-.77,2.1-.77,4.2.58,2.1.58,4.19-.68,2.1-.68,4.2.68,2.09.68,4.19-.69,2.1-.69,4.2.94,2.09.94,4.19-.89,2.1-.89,4.2,0,2.1,0,4.2.27,2.1.27,4.2.44,2.09.44,4.19-.13,2.1-.13,4.2,0,2.1,0,4.2.51,2.1.51,4.2-.12,2.09-.12,4.19,0,2.1,0,4.2-1.06,2.1-1.06,4.2-.05,2.1-.05,4.2.33,2.1.33,4.19.67,2.1.67,4.2-1.13,2.1-1.13,4.2.92,2.1.92,4.2-.25,2.1-.25,4.2-.2,2.1-.2,4.2.75,2.1.75,4.2-.95,2.1-.95,4.2,0,2.1,0,4.2,0,2.1,0,4.2-.2,2.1-.2,4.2,1.11,2.1,1.11,4.2-1.18,2.1-1.18,4.2.8,2.1.8,4.2-.25,2.1-.25,4.2-.58,2.1-.58,4.2.68,2.11.68,4.21-.21,2.1-.21,4.2-.47,2.1-.47,4.2.26,2.1.26,4.2.64,2.1.64,4.2-.44,2.1-.44,4.2-.41,2.19,0,4.26C807.3,2016.53,808.37,2016.63,807.73,2018.64Z"/><path class="cls-1" d="M800.26,2110c0,2,.1,2,.1,4.07s.09,2,.09,4.06-.93,2-.93,4.07.3,2,.3,4.06.47,2,.47,4.07-1.13,2-1.13,4.07,1,2,1,4.07,0,2,0,4.07-1,2-1,4.08.16,2,.16,4.07.51,2,.51,4.07.15,2,.15,4.07-.4,2-.4,4.07.77,2,.77,4.08,1.1,2.78-.36,4.19-2.22.06-4.33.06-2.1.43-4.21.43-2.1-.09-4.21-.09-2.11-1.21-4.21-1.21-2.11.75-4.21.75-2.11.58-4.21.58-2.11-.64-4.21-.64-2.11.41-4.22.41-2.1-.08-4.21-.08-2.1.34-4.21.34-2.1-.44-4.2-.44-2.11-.29-4.22-.29-2.1-.62-4.2-.62-2.11,1.12-4.22,1.12-2.1.24-4.21.24-2.1-1.06-4.21-1.06-2.11.7-4.21.7-2.11-.05-4.22-.05-2.1-.46-4.21-.46-2.11.51-4.21.51-2.11-.62-4.22-.62-2.11.69-4.21.69-2.12.28-4.22.28-2.11-.75-4.23-.75"/><path class="cls-3" d="M583.1,1961.57c0-2.07.38-2.07.38-4.14s.54-2.07.54-4.14-1.29-2.07-1.29-4.14.21-2.07.21-4.14.63-2.07.63-4.14-.71-2.07-.71-4.14.73-2.07.73-4.14-.16-2.07-.16-4.14-.82-2.07-.82-4.14.07-2.07.07-4.14.51-2.08.51-4.15.68-2.07.68-4.14-.51-2.07-.51-4.14-.5-2.07-.5-4.14,1.11-2.08,1.11-4.15-.37-2.07-.37-4.14-.16-2.08-.16-4.15-.22-2.07-.22-4.14-.14-2.07-.14-4.14-.41-2.08-.41-4.15,1.31-2.07,1.31-4.14-.65-2.08-.65-4.15.2-2.07.2-4.14.29-2.08.29-4.15-1-2.08-1-4.15.57-2.07.57-4.15.06-2.07.06-4.14-.22-2.07-.22-4.15-.37-2.07-.37-4.14-.1-2.08-.1-4.15.53-2.07.53-4.15,0-2.07,0-4.14-.21-2.07-.21-4.14-.24-2.07-.24-4.15.1-2.07.1-4.15.36-2.07.36-4.14-.57-2.07-.57-4.14.3-2.08.3-4.15,1-2.08,1-4.15-1.19-2.08-1.19-4.15,1-2.07,1-4.15-1.13-2.07-1.13-4.15,1.26-2.07,1.26-4.15-.3-2.08-.3-4.16-2-3-.56-4.43,2.36,0,4.44,0,2.08.93,4.16.93,2.08-.68,4.16-.68,2.08-.3,4.16-.3,2.09.55,4.17.55h4.16c2.08,0,2.08.43,4.16.43s2.08-.82,4.16-.82,2.08.8,4.15.8,2.08-.81,4.16-.81,2.08.28,4.16.28,2.08-.54,4.16-.54,2.09.54,4.17.54,2.08.31,4.16.31,2.08-.59,4.16-.59,2.08-.43,4.16-.43,2.08,1.33,4.16,1.33,2.08-.43,4.16-.43,2.09.07,4.17.07,2.08-.17,4.16-.17,2.08.43,4.16.43,2.08-.5,4.16-.5,2.08,0,4.17,0,2.08-.76,4.16-.76,2.08.78,4.16.78,2.08-.13,4.17-.13,2.08.54,4.16.54,2.08.07,4.16.07,2.09-.37,4.17-.37,2.08.43,4.16.43,2.08-1,4.17-1,2.08.48,4.16.48,2.08-.5,4.17-.5,2.08.17,4.16.17,2.08.26,4.17.26,2.08.48,4.16.48,2.09-.5,4.17-.5,2.08.19,4.16.19,2.08-.7,4.17-.7,2.08.67,4.16.67,2.08-.72,4.16-.72,2.09.52,4.17.52,2.08,0,4.17,0,2.08.17,4.16.17,2.09-.41,4.17-.41,2.08,1,4.17,1,2.08-.79,4.17-.79,2.08.63,4.16.63,2.09-.07,4.17-.07,2.09-.81,4.17-.81h4.18c2.08,0,3-1.47,4.51,0s-.24,2.42-.24,4.5-.15,2.08-.15,4.16.51,2.08.51,4.16-.45,2.08-.45,4.16.51,2.09.51,4.17-.38,2.08-.38,4.16,0,2.08,0,4.16.3,2.08.3,4.16-1,2.08-1,4.16.31,2.09.31,4.17-.25,2.08-.25,4.15.81,2.08.81,4.16-.94,2.08-.94,4.16.45,2.07.45,4.15.67,2.08.67,4.16-.56,2.08-.56,4.16-.31,2.08-.31,4.16.9,2.08.9,4.16-.3,2.08-.3,4.16-.85,2.08-.85,4.16.61,2.08.61,4.15.26,2.09.26,4.17-1,2.08-1,4.16,1,2.08,1,4.16-.73,2.08-.73,4.16.87,2.08.87,4.16-.07,2.08-.07,4.17-1,2.08-1,4.16,1.1,2.08,1.1,4.16.19,2.08.19,4.16-.37,2.08-.37,4.16-.15,2.09-.15,4.17-.5,2.08-.5,4.16,1,2.08,1,4.16-.9,2.08-.9,4.16,0,2.09,0,4.17.32,2.08.32,4.16-.66,2.08-.66,4.16.31,2.09.31,4.17.4,2.08.4,4.17-.19,2.08-.19,4.16-.19,2.08-.19,4.16.76,2.08.76,4.16.11,2.09.11,4.17-.46,2.08-.46,4.16-.66,2.08-.66,4.17.64,2.08.64,4.16-.65,2.08-.65,4.16.37,2.08.37,4.17.83,2.08.83,4.16-.5,2.09-.5,4.17v4.17c0,2.08-.15,2.08-.15,4.16s-.48,2.09-.48,4.17.76,2.09.76,4.17-.52,2.09-.52,4.18"/><path class="cls-1" d="M583.14,2046.58c0-1.92-.27-1.92-.27-3.83s1.15-1.91,1.15-3.83-.41-1.91-.41-3.82-.77-1.92-.77-3.84-.17-1.92-.17-3.83"/><path class="cls-1" d="M183,1663.81c-2.08,0-2.08.54-4.17.54s-2.08.22-4.17.22-2.09-1.32-4.18-1.32-2.08.51-4.17.51-2.09.3-4.17.3-2.09-.11-4.18-.11-2.09-.2-4.17-.2-2.09-.41-4.18-.41-2.09-.14-4.17-.14-2.09,1.22-4.18,1.22-2.09-.48-4.17-.48-2.09-.44-4.18-.44-2.09-.15-4.18-.15-2.08-.13-4.17-.13-2.09.79-4.18.79-2.09.49-4.18.49-2.08-.47-4.17-.47-2.09-.75-4.18-.75-2.08.18-4.17.18l-4.18,0c-2.08,0-2.08.73-4.17.73H91.15c-2.09,0-2.09-.15-4.17-.15s-2.09.52-4.18.52-2.09-.54-4.18-.54-2.09.42-4.18.42-2.09-1-4.18-1-2.09,1.14-4.18,1.14-2.09-.26-4.18-.26H57.72c-2.09,0-2.09-1.1-4.18-1.1s-3,2.5-4.51,1,1-2.4,1-4.49-.34-2.08-.34-4.16-.25-2.09-.25-4.17.56-2.08.56-4.16-.32-2.09-.32-4.17-.3-2.08-.3-4.16-.56-2.09-.56-4.17.26-2.08.26-4.16.77-2.09.77-4.17.2-2.08.2-4.16-.69-2.09-.69-4.17.49-2.08.49-4.16-.81-2.09-.81-4.17-.12-2.08-.12-4.16.11-2.08.11-4.17-.36-2.08-.36-4.16.5-2.08.5-4.17.3-2.08.3-4.16-.82-2.09-.82-4.17,1.25-2.08,1.25-4.16-.81-2.09-.81-4.17.93-2.08.93-4.16-1.27-2.09-1.27-4.17.55-2.08.55-4.17-.56-2.08-.56-4.16.6-2.08.6-4.17.07-2.08.07-4.16-.08-2.08-.08-4.17.58-2.08.58-4.16-1.13-2.09-1.13-4.17,0-2.08,0-4.17.37-2.08.37-4.16-.27-2.08-.27-4.17,1.15-2.08,1.15-4.17-.41-2.08-.41-4.16-.77-2.08-.77-4.16-.17-2.08-.17-4.16,1.07-2.08,1.07-4.16-.64-2.08-.64-4.17.38-2.08.38-4.16.53-2.08.53-4.16-1.28-2.09-1.28-4.17.21-2.08.21-4.16.63-2.08.63-4.17-.71-2.08-.71-4.16.73-2.08.73-4.16-.16-2.09-.16-4.17-.82-2.08-.82-4.17.07-2.08.07-4.16.51-2.09.51-4.17.68-2.08.68-4.16-.51-2.09-.51-4.17-.5-2.09-.5-4.17S50,1441,50,1438.94s-.37-2.08-.37-4.16-.16-2.09-.16-4.17-.22-2.09-.22-4.17-.15-2.08-.15-4.17-.4-2.08-.4-4.17S50,1416,50,1413.94s-.66-2.09-.66-4.17.21-2.09.21-4.17.29-2.08.29-4.17-1-2.08-1-4.17.57-2.08.57-4.17.06-2.08.06-4.16-.23-2.09-.23-4.17-.36-2.09-.36-4.17-.1-2.09-.1-4.17.53-2.09.53-4.17,0-2.09,0-4.17-.21-2.08-.21-4.17-.24-2.08-.24-4.17.1-2.08.1-4.17.36-2.09.36-4.17-.58-2.09-.58-4.17.3-2.09.3-4.17,1-2.09,1-4.17-1.19-2.09-1.19-4.18,1-2.09,1-4.17-2.41-3.17-.94-4.66,2.54,1.06,4.6,1.06,2.07-.3,4.13-.3,2.06-.67,4.12-.67,2.06.06,4.12.06,2.06.93,4.12.93,2.06-.68,4.11-.68,2.06-.3,4.12-.3,2.06.55,4.12.55h4.13c2.06,0,2.06.43,4.12.43s2.06-.82,4.12-.82,2.06.8,4.12.8,2.06-.81,4.12-.81,2.06.28,4.12.28,2.06-.54,4.12-.54,2.07.54,4.13.54,2.06.31,4.12.31,2.06-.59,4.12-.59,2.06-.43,4.12-.43,2.06,1.33,4.13,1.33,2.06-.43,4.12-.43,2.06.07,4.12.07,2.06-.17,4.13-.17,2.06.43,4.12.43,2.06-.5,4.12-.5,2.06,0,4.13,0,2.06-.76,4.12-.76,2.06.79,4.13.79,2.06-.14,4.12-.14,2.06.54,4.13.54,2.06.07,4.12.07,2.06-.37,4.13-.37,2.06.43,4.12.43,2.06-1,4.13-1,2.06.48,4.12.48,2.06-.5,4.12-.5,2.07.17,4.13.17,2.06.26,4.12.26,2.07.48,4.13.48,2.06-.49,4.12-.49,2.07.18,4.13.18,2.06-.7,4.13-.7,2.06.67,4.13.67,2.06-.72,4.12-.72,2.07.52,4.13.52,2.07,0,4.13,0,2.06.17,4.13.17,2.07-.41,4.13-.41,2.07,1,4.14,1"/><path d="M390.09,1907.45c0-1.15.05-2.22-.7-3a4.33,4.33,0,0,0-3-1.34,4.6,4.6,0,0,0-3.13,1.18c-.75.75-.58,2-.58,3.13s-.27,2.47.48,3.22a5.11,5.11,0,0,0,3.23,1.45,5,5,0,0,0,3.18-1.5C390.35,1909.87,390.09,1908.59,390.09,1907.45Z"/><path class="cls-1" d="M583.32,1805.57c2.08,0,2.08-.8,4.16-.8s2.08.47,4.16.47,2.08.38,4.16.38,2.08-.95,4.16-.95,2.09.79,4.17.79,2.08.14,4.16.14,2.08.22,4.16.22,2.08-.5,4.16-.5,2.08.08,4.15.08,2.08.7,4.16.7,2.08-.73,4.16-.73,2.08-.51,4.16-.51,2.09,1.21,4.17,1.21,2.08-1.27,4.16-1.27,2.08,1,4.16,1,2.08-.87,4.16-.87,2.08,0,4.16,0,2.08.55,4.16.55,2.09.5,4.17.5,2.08-.84,4.16-.84,2.08,0,4.16,0,2.08.18,4.16.18,2.08.12,4.17.12,2.08-.42,4.16-.42l4.16,0c2.08,0,2.08.51,4.17.51s2.08.11,4.16.11,2.08-.72,4.16-.72,2.09.31,4.17.31,2.08-.26,4.16-.26,2.08,1.15,4.17,1.15,2.08-.23,4.16-.23,2.08.08,4.17.08,2.08-.26,4.16-.26,2.08.16,4.17.16,2.08.12,4.16.12,2.09,0,4.17,0,2.08-1.1,4.16-1.1,2.08.68,4.17.68,2.08-.77,4.16-.77,2.08,1.17,4.16,1.17,2.09-.1,4.17-.1,2.08-.18,4.17-.18,2.08-.13,4.16-.13,2.09-.13,4.17-.13,2.08-.47,4.17-.47,2.08.19,4.17.19,2.08.18,4.16.18h4.17c2.09,0,2.09-.43,4.17-.43s2.09.2,4.18.2,2.08.15,4.17.15"/><path class="cls-3" d="M179.87,317.44c-1.44,1.46-2.47-1.07-4.52-1.07s-2,.48-4.11.48-2.05-.41-4.11-.41-2,.25-4.11.25-2.05.54-4.11.54-2,0-4.11,0-2.05-.23-4.11-.23-2.05-.46-4.11-.46-2.05.18-4.11.18-2.05,0-4.11,0-2.05.2-4.11.2-2.05.11-4.11.11-2,.17-4.11.17-2.06-.06-4.11-.06-2.06-.52-4.11-.52-2.06.15-4.12.15-2,.92-4.11.92-2-1-4.11-1-2.06.86-4.11.86-2.06-.86-4.12-.86-2,.84-4.11.84-2.06-.22-4.11-.22-2.06.22-4.12.22-2.05.14-4.11.14-2.05-1.12-4.11-1.12-2.06.55-4.11.55-2.06.61-4.12.61-2.06-.58-4.11-.58-2.06-.17-4.12-.17-2-.33-4.11-.33-2,.85-4.11.85-2.06.33-4.11.33-2.06-.16-4.12-.16-2.05-.18-4.11-.18-2.06.28-4.11.28-2.06-.38-4.12-.38-2.06-1-4.12-1-2.06,1.23-4.11,1.23-2.06.12-4.12.12-2.06-.86-4.12-.86-2.06-.23-4.12-.23-2.06-.27-4.12-.27-2.59,2.1-4,.64S3,315,3,312.9s.16-2.07.16-4.14-1.21-2.06-1.21-4.13,1.37-2.07,1.37-4.14S2,298.43,2,296.36s.21-2.07.21-4.13.07-2.07.07-4.14.45-2.06.45-4.13-.62-2.07-.62-4.13,1-2.07,1-4.14-.34-2.06-.34-4.13-.25-2.07-.25-4.13.43-2.07.43-4.14,0-2.07,0-4.13S2,257.09,2,255s.91-2.06.91-4.13-.11-2.07-.11-4.13.51-2.07.51-4.14S2,240.56,2,238.49s.27-2.07.27-4.14.45-2.06.45-4.13-.11-2.07-.11-4.13-.4-2.07-.4-4.14.34-2.07.34-4.14.27-2.06.27-4.13-.36-2.07-.36-4.14,0-2.06,0-4.13.19-2.07.19-4.14,0-2.07,0-4.13-.25-2.07-.25-4.14.09-2.06.09-4.13.31-2.06.31-4.13S2,182.68,2,180.61s.9-2.06.9-4.13-.06-2.06-.06-4.13-.44-2.07-.44-4.13.12-2.07.12-4.14S2.28,162,2.28,160s.05-2.07.05-4.13-.2-2.07-.2-4.13.33-2.07.33-4.14-.34-2.07-.34-4.13.78-2.07.78-4.14,0-2.07,0-4.14S2,133.08,2,131s.68-2.07.68-4.13.39-2.07.39-4.14,0-2.07,0-4.14-1-2.07-1-4.14.71-2.06.71-4.13-.81-2.07-.81-4.14,1.25-2.07,1.25-4.13S3.1,100,3.1,97.92s-.6-2.07-.6-4.14,0-2.07,0-4.14-.09-2.07-.09-4.14-.31-2.06-.31-4.13S3,79.3,3,77.23s-.79-2.07-.79-4.14S3.27,71,3.27,69s-.22-2.06-.22-4.13-1-2.07-1-4.14.31-2.07.31-4.13.75-2.07.75-4.14-1.2-2.07-1.2-4.14,1.18-2.07,1.18-4.14S3,42.07,3,40s-.78-2.07-.78-4.14S3.3,33.79,3.3,31.72s-.07-2.07-.07-4.15-1-2.07-1-4.14.31-2.07.31-4.14S3,17.22,3,15.15,2.62,13.08,2.62,11s.67-2.07.67-4.15-2.49-3-1-4.48,2.39,1,4.45,1h4.1C12.87,3.36,12.87,2,14.93,2s2.05.5,4.11.5,2.05.76,4.11.76,2.05-1.08,4.1-1.08,2.06.94,4.11.94,2.06.13,4.11.13,2.06-1.1,4.11-1.1,2.06,0,4.12,0,2,.92,4.11.92,2-.14,4.11-.14,2-.87,4.11-.87,2,.87,4.11.87,2.06-.56,4.11-.56,2.06.48,4.11.48,2.06.56,4.11.56,2.06-.38,4.12-.38,2-.94,4.11-.94,2,1.3,4.11,1.3,2.06,0,4.12,0S91,3,93,3s2-.65,4.11-.65,2.06,1,4.11,1,2.06-1,4.12-1,2.06-.27,4.11-.27,2.06.72,4.12.72,2,.27,4.11.27,2.06-.26,4.11-.26,2.06.37,4.11.37,2.06-.49,4.12-.49,2.05-.39,4.11-.39,2.06.77,4.11.77,2.06-.05,4.12-.05,2-.75,4.11-.75S148.57,2,150.63,2s2.06,1.18,4.11,1.18,2.06,0,4.12,0,2.06-.81,4.12-.81,2.06.2,4.11.2,2.06-.18,4.12-.18,2.06-.34,4.13-.34,2.72-.85,4.17.61.39,2.12.39,4.19-.67,2.06-.67,4.13.35,2.07.35,4.14.52,2.06.52,4.13-.1,2.06-.1,4.13-.18,2.07-.18,4.14.34,2.06.34,4.13-.38,2.07-.38,4.13-.55,2.07-.55,4.14.59,2.07.59,4.13,0,2.07,0,4.14-.94,2.06-.94,4.13.65,2.07.65,4.14v4.13c0,2.07-.34,2.07-.34,4.13s.65,2.07.65,4.14-.3,2.06-.3,4.13.51,2.07.51,4.13-1,2.07-1,4.14.93,2.07.93,4.14-.91,2.06-.91,4.13.52,2.07.52,4.13-.55,2.07-.55,4.14.87,2.07.87,4.14-.3,2.06-.3,4.13-.7,2.07-.7,4.14.54,2.07.54,4.13.64,2.07.64,4.14-1.37,2.07-1.37,4.14.49,2.06.49,4.13v4.13c0,2.06-.34,2.06-.34,4.13s.44,2.07.44,4.13.6,2.06.6,4.13-1,2.07-1,4.13.21,2.07.21,4.14.31,2.06.31,4.13.5,2.07.5,4.14-1,2.06-1,4.13.1,2.06.1,4.13.59,2.06.59,4.13.16,2.07.16,4.14.1,2.07.1,4.13,0,2.07,0,4.14-1,2.07-1,4.13,1.22,2.07,1.22,4.14-1,2.07-1,4.14.85,2.06.85,4.13-.45,2.07-.45,4.14,0,2.07,0,4.13.14,2.07.14,4.14.1,2.07.1,4.14-.76,2.06-.76,4.13S180,223.9,180,226s-1.25,2.07-1.25,4.14.25,2.07.25,4.13-.07,2.07-.07,4.14.13,2.07.13,4.14.28,2.07.28,4.13.12,2.08.12,4.15,0,2.06,0,4.13.63,2.07.63,4.14-.73,2.07-.73,4.14-.23,2.06-.23,4.13.54,2.07.54,4.14-.65,2.07-.65,4.14.58,2.07.58,4.13.49,2.07.49,4.14.1,2.07.1,4.14-1,2.07-1,4.14.62,2.07.62,4.14-.58,2.07-.58,4.14.26,2.07.26,4.14.21,2.07.21,4.15-1.09,2.22-.57,4.23C179.74,315.33,181.33,316,179.87,317.44Z"/><path class="cls-1" d="M697.37,1936.5c-.42.49-.65,1.15-1.08,1.66s-.74,1.09-1.17,1.6-1.08.79-1.52,1.29-.65,1.17-1.09,1.67-1.14.73-1.59,1.22-.55,1.27-1,1.76-1.11.75-1.57,1.23-1,.84-1.48,1.31-.56,1.3-1,1.76-1.34.48-1.83.92-1,.84-1.5,1.28-.63,1.28-1.14,1.7-1.29.49-1.81.9-.89,1-1.42,1.39-1.11.71-1.65,1.09-1.16.62-1.71,1-1.15.62-1.71,1-.86,1.11-1.43,1.45-1.26.44-1.84.76-1.16.6-1.75.91-1.09.74-1.69,1-1.18.58-1.78.85-1.22.5-1.83.75-1.27.36-1.89.59-1.17.61-1.8.82-1.2.54-1.84.74-1.29.26-1.93.45a13.39,13.39,0,0,1-1.93.27,13.73,13.73,0,0,1-1.94.27,17,17,0,0,1-1.94-.31c-.64-.07-1.35.19-2,.06s-1.29-.25-1.94-.44-1.16-.62-1.79-.85-1.11-.7-1.72-1-1.22-.42-1.81-.73-1-.79-1.61-1.13-1.16-.58-1.71-1-1.33-.38-1.86-.78-1-.86-1.51-1.27-1-.82-1.52-1.26-.65-1.22-1.13-1.68-1-.78-1.5-1.26-.89-1-1.33-1.45-1.09-.78-1.51-1.29-.9-1-1.3-1.49-.42-1.32-.8-1.86-1-.9-1.36-1.45-.36-1.32-.7-1.89-.69-1.1-1-1.68-.73-1.08-1-1.67-.8-1.07-1.08-1.67-.07-1.4-.33-2-.62-1.15-.86-1.76-.78-1.11-1-1.73,0-1.38-.18-2-.83-1.12-1-1.75-.31-1.28-.46-1.92-.35-1.27-.49-1.92.17-1.36.06-2-.18-1.28-.28-1.94-.66-1.23-.73-1.89-.11-1.31-.16-2,0-1.32,0-2-.25-1.31-.27-2,.35-1.31.35-2,.08-1.31.1-2-.35-1.32-.31-2"/><path class="cls-1" d="M625,1834.82c-1.35.9-.9.87-2.44,2.22-.69.61-1.15,1.7-2,2.59-.69.7-1.58,1.35-2.33,2.24s-1.34,1.62-2,2.53-1.31,1.67-1.92,2.61-.75,2-1.3,3-1.26,1.73-1.74,2.73-.84,2-1.26,3-1.38,1.77-1.74,2.82-.13,2.21-.42,3.27-1,2-1.23,3,.07,2.19-.09,3.28-.6,2.08-.7,3.18-.3,2.14-.35,3.24.48,2.13.43,3.2-.51,2.09-.56,3.15.07,2.11,0,3.18-.22,2.1-.26,3.16.18,2.12.14,3.18.33,2.12.29,3.18-.86,2.08-.9,3.14.44,2.13.41,3.19-.5,2.1-.53,3.16.15,2.11.13,3.17.5,2.12.48,3.18-.84,2.11-.85,3.17.35,2.12.35,3.18.52,2.11.53,3.17-1,2.13-.94,3.19.9,2.1.92,3.16,0,2.11,0,3.17.17,2.11.22,3.17-.09,2.12,0,3.18,0,2.12.08,3.17.39,2.1.46,3.15-.47,2.16-.39,3.21.86,2.05,1,3.1-.56,2.19-.45,3.24.81,2,.94,3.08-.38,2.2-.23,3.24.72,2,.89,3.08.13,2.14.31,3.17,1,2,1.23,3-.52,2.28-.29,3.31.68,2,.94,3,.29,2.14.58,3.15.65,2,1,3,1.56,1.72,1.91,2.71.59,2,1,3,.69,2,1.11,3,.85,2,1.32,2.88.59,2.1,1.11,3,.95,1.94,1.52,2.82,1.77,1.36,2.39,2.2,1.1,1.83,1.78,2.63,1.12,1.87,1.86,2.62,1.68,1.33,2.48,2,1.81,1.12,2.67,1.73,1.87,1,2.78,1.5,1.54,1.59,2.5,2,2.14.31,3.14.68,1.89.92,2.92,1.21"/><path class="cls-1" d="M666.28,1827.19a17.77,17.77,0,0,1,3.08-.12c.88,0,1.94-.49,3.13-.41,1,.07,2,0,3.14.16s2,.51,3.06.69,1.92.79,3,1,2,.29,3.07.56,2.16-.06,3.18.27,1.76,1.25,2.76,1.61,2.11.28,3.09.69,1.9.83,2.85,1.29,1.69,1.26,2.62,1.76,2.08.55,3,1.1,1.36,1.71,2.24,2.31,1.62,1.24,2.47,1.88,1.63,1.24,2.43,1.93,1.95.92,2.72,1.64,1.52,1.42,2.26,2.18,1.12,1.78,1.82,2.58,1.57,1.38,2.22,2.21.77,2,1.39,2.87,1.46,1.49,2,2.37,1.13,1.73,1.67,2.64.93,1.84,1.43,2.77,1.31,1.65,1.78,2.6.52,2,.95,3,1.12,1.77,1.51,2.75,1,1.83,1.39,2.83.45,2,.77,3.06.47,2.08.77,3.08.22,2.15.5,3.16.68,2,.95,3,.33,2.11.58,3.12.62,2,.85,3.06.65,2,.85,3,.11,2.14.3,3.17,1.31,1.93,1.48,3,.36,2.1.51,3.14-.22,2.18-.09,3.22.84,2,1,3.09.16,2.13.26,3.17-.6,2.19-.52,3.24.35,2.1.41,3.14.3,2.12.35,3.16.22,2.12.27,3.17-.55,2.14-.52,3.18.3,2.12.32,3.16.57,2.12.58,3.17-.45,2.14-.43,3.18.26,2.13.28,3.17-.08,2.13-.06,3.17,0,2.13,0,3.17.41,2.12.46,3.16.38,2.1.45,3.14,0,2.12.1,3.16,0,2.13.18,3.16.74,2,.94,3-.28,2.23,0,3.25.77,2,1.1,3"/><path class="cls-1" d="M619.36,1961.28c.2,1.06.5,2.09.71,3.11s1.32,1.88,1.56,2.89-.29,2.28,0,3.27,1.18,1.89,1.49,2.87.8,2,1.15,2.95.23,2.2.63,3.15,1.39,1.71,1.84,2.64.26,2.27.77,3.17,1.49,1.61,2,2.46.79,2.08,1.43,2.9,1.32,1.73,2,2.48,2.1.89,2.89,1.56,1.1,2.08,2,2.65,2.15.57,3.09,1a22.08,22.08,0,0,0,2.78,1.59c1,.33,2.16,0,3.21.2a22.44,22.44,0,0,0,3.09.56"/><path class="cls-1" d="M707.58,1988.05a11.16,11.16,0,0,0,2-2.55c.47-.78.7-1.9,1.24-3,.43-.88,1.13-1.76,1.56-2.84s.63-2,1-3.09.09-2.15.36-3.24,1.17-1.9,1.38-3,0-2.15.11-3.25.22-2.1.3-3.2-.14-2.12-.12-3.22-.17-2.1-.21-3.2.8-2.17.7-3.27-.76-2.06-.91-3.15-.72-2-.92-3.1-.27-2.09-.51-3.16-.59-2-.88-3.09.11-2.24-.22-3.28-1.08-1.89-1.45-2.92-.84-2-1.24-3-.16-2.24-.6-3.24-1.54-1.65-2-2.64"/><path d="M692.92,1942.26c1.53.35,0,1,.36,2.94.16.87,1.27,1.79,1.35,3,.06,1-.85,2-.89,3.14s-.13,2-.28,3.07.62,2.19.37,3.26-.93,1.88-1.27,2.92-1,1.81-1.4,2.82-1,1.75-1.52,2.72-.38,2.11-.94,3-1.62,1.39-2.23,2.29-.87,2.28-1.53,3.14c-1.51-.51-.84-1.72-2.11-2.68s-1.38-.82-2.65-1.78-1.25-1-2.53-1.95-1.21-1-2.48-2-1.62-.51-2.9-1.47a6.49,6.49,0,0,1-2.21-2.18c-.89-1.28.52-.37,2.28-1.52.72-.46,2-.5,2.95-1.23.75-.55,1-2,1.88-2.68.74-.6,1.94-.78,2.78-1.52s1.48-1.38,2.29-2.13,1.56-1.31,2.34-2.08,1.61-1.28,2.36-2,1-1.85,1.77-2.64,1.85-1.09,2.56-1.9S692.22,1943.08,692.92,1942.26Z"/><path class="cls-1" d="M692.92,1942.26c1.53.35,0,1,.36,2.94.16.87,1.27,1.79,1.35,3,.06,1-.85,2-.89,3.14s-.13,2-.28,3.07.62,2.19.37,3.26-.93,1.88-1.27,2.92-1,1.81-1.4,2.82-1,1.75-1.52,2.72-.38,2.11-.94,3-1.62,1.39-2.23,2.29-.87,2.28-1.53,3.14c-1.51-.51-.84-1.72-2.11-2.68s-1.38-.82-2.65-1.78-1.25-1-2.53-1.95-1.21-1-2.48-2-1.62-.51-2.9-1.47a6.49,6.49,0,0,1-2.21-2.18c-.89-1.28.52-.37,2.28-1.52.72-.46,2-.5,2.95-1.23.75-.55,1-2,1.88-2.68.74-.6,1.94-.78,2.78-1.52s1.48-1.38,2.29-2.13,1.56-1.31,2.34-2.08,1.61-1.28,2.36-2,1-1.85,1.77-2.64,1.85-1.09,2.56-1.9S692.22,1943.08,692.92,1942.26Z"/><path d="M629.2,1844.63c-1.47-.78.38-1.29.89-3.25.24-.94.23-2.13.6-3.31.32-1,1-2,1.44-3s.8-2.07,1.28-3.08a32.59,32.59,0,0,1,1.25-3.14c.6-1,1.72-1.56,2.43-2.37a11.24,11.24,0,0,1,2.49-2.08c1-.62,1.76-1.71,2.86-1.86a8.53,8.53,0,0,1,3,.15,11.55,11.55,0,0,1,2.55,1.45c.85.47,1.32,1.42,2,2s1.89.88,2.47,1.5c1.14,1.22,2.67,1.11,2.06,2.4a18,18,0,0,0-3.58.3,19.64,19.64,0,0,0-3.32.38c-1,.34-1.82,1.32-2.83,1.81a31.93,31.93,0,0,0-3.08,1.24c-1,.59-1.72,1.43-2.6,2.07s-1.73,1.41-2.56,2.1-1.75,1.45-2.51,2.16-2,1.32-2.68,2C630,1843.56,630.66,1845.41,629.2,1844.63Z"/><path class="cls-1" d="M629.2,1844.63c-1.47-.78.38-1.29.89-3.25.24-.94.23-2.13.6-3.31.32-1,1-2,1.44-3s.8-2.07,1.28-3.08a32.59,32.59,0,0,1,1.25-3.14c.6-1,1.72-1.56,2.43-2.37a11.24,11.24,0,0,1,2.49-2.08c1-.62,1.76-1.71,2.86-1.86a8.53,8.53,0,0,1,3,.15,11.55,11.55,0,0,1,2.55,1.45c.85.47,1.32,1.42,2,2s1.89.88,2.47,1.5c1.14,1.22,2.67,1.11,2.06,2.4a18,18,0,0,0-3.58.3,19.64,19.64,0,0,0-3.32.38c-1,.34-1.82,1.32-2.83,1.81a31.93,31.93,0,0,0-3.08,1.24c-1,.59-1.72,1.43-2.6,2.07s-1.73,1.41-2.56,2.1-1.75,1.45-2.51,2.16-2,1.32-2.68,2C630,1843.56,630.66,1845.41,629.2,1844.63Z"/><path class="cls-1" d="M639.56,1928.08a6.36,6.36,0,0,1-3.86-.59c-1.82-1.18-2-1.49-1.69-3.42a21.3,21.3,0,0,0,1.59-2.92,24.32,24.32,0,0,0,.76-3.25,29.24,29.24,0,0,0,.86-3.24c.12-1.11-.41-2.25-.41-3.35s-.11-2.2-.2-3.29.16-2.26,0-3.32,0-2.32-.24-3.35-.76-2.2-1-3.18c-.34-1.2-.41-2.38-.73-3.27a13,13,0,0,0-1.39-3.07c-.73-1.35-1.22-.62-2.39-2.09-.55-.69-1.1-1.55-1.87-2.39s-1.39-1.39-2.18-2.12-1-1.92-1.86-2.56a30.64,30.64,0,0,0-2.7-1.55,23.61,23.61,0,0,0-2.73-1.44,18.75,18.75,0,0,0-3-.55,15.36,15.36,0,0,0-3-.36c-1-.08-2-.77-3.06-.64"/><path class="cls-1" d="M672.53,1875.07c-1.26-.84-1.45.11-3.06-.82-.76-.44-1.32-1.56-2.32-2.08s-1.93-.56-2.9-1-1.76-1-2.73-1.34-1.82-1-2.79-1.28-1.94-.78-2.92-1-2.15.37-3.14.29a16.45,16.45,0,0,0-3-.39,10.67,10.67,0,0,0-3,.71,8.26,8.26,0,0,0-2.39,1.93,8.73,8.73,0,0,0-1.7,2.5"/><path class="cls-1" d="M638.77,1938.37c1.58-.52,1.23-.26,3.16-1,.89-.33,2-.61,3.13-1.07,1-.38,2-.76,3.08-1.22s2.17-.46,3.21-.94,2.07-.78,3.08-1.28,1.64-1.63,2.61-2.16,2.07-.86,3-1.42,2.13-.85,3-1.47c1.3-.89,2-1.22,2.78-.84a3.15,3.15,0,0,1,1.59,2.69,11.63,11.63,0,0,1,0,3.35c-.2,1-1.12,1.9-1.56,3s-.34,2.24-.93,3.22a20.94,20.94,0,0,1-2.13,2.56c-.7.82-1.88,1.14-2.74,1.86a16.71,16.71,0,0,1-2.45,2.14,15.93,15.93,0,0,1-2.94,1.5,18.28,18.28,0,0,1-3.29.23,18.52,18.52,0,0,1-3.25.59c-1,0-2-.72-3.18-.93"/><path class="cls-1" d="M663.51,1976.08c.17,1,.49.67.78,1.89.13.55,0,1.27.22,2s.45,1.22.65,1.9.31,1.27.53,1.93.59,1.19.83,1.83.72,1.13,1,1.76.06,1.43.34,2,.87,1.06,1.18,1.65.38,1.32.73,1.9.81,1.07,1.18,1.63,1.05.88,1.46,1.4.46,1.38.91,1.86,1.12.79,1.62,1.22a14.38,14.38,0,0,0,1.79.92c.55.37.82,1.25,1.42,1.54s1.43,0,2.07.2a10.93,10.93,0,0,0,1.92.43,12.7,12.7,0,0,0,2,0,14.54,14.54,0,0,0,2-.08,15.87,15.87,0,0,0,1.94-.39c.62-.18,1.17-.55,1.82-.81a19.37,19.37,0,0,0,2-.46c.58-.29.94-1,1.54-1.34s1.38-.27,1.95-.66.86-1,1.41-1.47,1.31-.48,1.84-.92.83-1.06,1.35-1.52"/><path class="cls-3" d="M679.91,1920c.27-1,.77-.82,1-1.79s0-1,.31-2,.34-1,.61-1.92.15-1,.42-2,.13-1,.4-2,.35-.94.63-1.91.61-.87.88-1.84"/><path class="cls-3" d="M660.69,1907.79c.92-.28.91-.31,1.84-.58s.83-.6,1.76-.87,1-.11,1.9-.39,1,0,1.94-.27.87-.5,1.8-.77,1-.14,1.9-.41"/><path class="cls-3" d="M620.06,1916.2c1-.06,1-.14,1.93-.2s1-.24,1.92-.3l1.93-.13c1-.06,1,.1,1.94,0s1-.28,1.92-.34,1-.12,1.93-.18"/><path class="cls-1" d="M697.32,1983.29c.59-.94,1.21-1.8,1.72-2.69s.81-2,1.26-2.92,1.5-1.71,1.87-2.66.11-2.24.4-3.23,1.28-1.9,1.45-2.93-.3-2.17-.26-3.23.66-2.13.57-3.21-.65-2-.85-3.12-.22-2.1-.5-3.16-1.18-1.82-1.52-2.87.26-2.3-.12-3.34-.91-1.9-1.31-2.93-.53-2-.94-3.06-.85-1.93-1.27-3-1.67-1.57-2.1-2.59-.68-2-1.1-3-.69-2-1.11-3-.76-2-1.17-3-.38-2.12-.79-3.13-.63-2-1-3-1.44-1.7-1.83-2.71-.53-2.06-.92-3.08-.36-2.11-.74-3.14-.93-1.91-1.29-2.93-1-1.89-1.35-2.92-.95-1.9-1.3-2.92-.09-2.21-.43-3.24-1.24-1.82-1.57-2.85-.43-2.09-.76-3.12-.06-2.2-.38-3.24-1-1.91-1.32-2.94-.84-2-1.15-3-.16-2.21-.47-3.23S676,1882,675.64,1881s-.09-2.24-.4-3.25-1.35-1.84-1.66-2.85-.22-2.2-.54-3.2-.46-2.13-.79-3.13-1.48-1.79-1.81-2.79.19-2.35-.15-3.34-.64-2.08-1-3.07-1.55-1.75-1.91-2.74-.08-2.28-.45-3.26-1.13-1.9-1.52-2.87-.67-2.07-1.07-3-.62-2.1-1.06-3-.74-2.07-1.21-3-1.67-1.59-2.17-2.5-.71-2.11-1.26-3-1.13-1.88-1.74-2.72-1.5-1.6-2.17-2.4a30.82,30.82,0,0,0-2.21-2.33,26.5,26.5,0,0,0-2.39-2.15,25.15,25.15,0,0,0-2.56-2,24.45,24.45,0,0,0-3-1.19,5,5,0,0,0-3.14-.08,6.68,6.68,0,0,0-2.88,1.33,13.79,13.79,0,0,0-2.31,2.28,27.52,27.52,0,0,0-1.55,2.86c-.51.92-1.27,1.77-1.71,2.76s-.31,2.22-.69,3.21-.68,2.09-1,3c-.38,1.13-1.06,2.06-1.31,3-.54,1.88-.85,1.46-1.2,3"/><path class="cls-1" d="M628.87,1844.61s-.34.72-1,2.3c-.28.69-.24,1.66-.63,2.61-.3.74-.89,1.46-1.24,2.35s0,1.84-.34,2.72-1.17,1.39-1.5,2.25-.92,1.51-1.25,2.36-.53,1.66-.85,2.51.21,1.94-.1,2.78-1.4,1.35-1.71,2.2,0,1.85-.33,2.7-.47,1.69-.77,2.54-1.12,1.46-1.41,2.31,0,1.85-.31,2.7-1.31,1.41-1.6,2.25-.1,1.82-.38,2.67-1.06,1.51-1.33,2.35-.61,1.66-.88,2.5.29,1.94,0,2.79-1.41,1.41-1.67,2.26.1,1.87-.15,2.72-.91,1.57-1.16,2.42.08,1.87-.16,2.72-.69,1.64-.93,2.49-.56,1.68-.79,2.53,0,1.81-.27,2.67-1.13,1.53-1.35,2.39.11,1.85-.1,2.71-1.25,1.52-1.45,2.38-.35,1.74-.54,2.6.15,1.85,0,2.72"/><path d="M629.26,1908.26a12.54,12.54,0,0,1,.15,2.62,7.29,7.29,0,0,1-1,2.44,2.09,2.09,0,0,1-2,1.11c-.76.08-1.2-.12-1.84-.92-.47-.58-1.42-1-1.73-1.94a11.47,11.47,0,0,1-.68-2.55,11.92,11.92,0,0,1,.12-2.63,7.73,7.73,0,0,1,.87-2.47c.46-.92,1.17-1.72,1.93-1.8s1.22.87,1.87,1.67c.47.59,1.61,1,1.92,1.86A13,13,0,0,1,629.26,1908.26Z"/><path class="cls-1" d="M629.26,1908.26a12.54,12.54,0,0,1,.15,2.62,7.29,7.29,0,0,1-1,2.44,2.09,2.09,0,0,1-2,1.11c-.76.08-1.2-.12-1.84-.92-.47-.58-1.42-1-1.73-1.94a11.47,11.47,0,0,1-.68-2.55,11.92,11.92,0,0,1,.12-2.63,7.73,7.73,0,0,1,.87-2.47c.46-.92,1.17-1.72,1.93-1.8s1.22.87,1.87,1.67c.47.59,1.61,1,1.92,1.86A13,13,0,0,1,629.26,1908.26Z"/><path d="M663.71,1899.5a12.38,12.38,0,0,1,.15,2.53,9.55,9.55,0,0,1-.26,2.65c-.46.92-1.54.87-2.3,1s-1.65.23-2.29-.57a7.89,7.89,0,0,1-1.2-2.32c-.26-.76.14-1.71.05-2.61s-.73-1.75-.64-2.54a9,9,0,0,1,.49-2.64c.46-.92,1.56-1,2.32-1a2.46,2.46,0,0,1,2.4.59,9.05,9.05,0,0,1,.92,2.48A12,12,0,0,1,663.71,1899.5Z"/><path class="cls-1" d="M663.71,1899.5a12.38,12.38,0,0,1,.15,2.53,9.55,9.55,0,0,1-.26,2.65c-.46.92-1.54.87-2.3,1s-1.65.23-2.29-.57a7.89,7.89,0,0,1-1.2-2.32c-.26-.76.14-1.71.05-2.61s-.73-1.75-.64-2.54a9,9,0,0,1,.49-2.64c.46-.92,1.56-1,2.32-1a2.46,2.46,0,0,1,2.4.59,9.05,9.05,0,0,1,.92,2.48A12,12,0,0,1,663.71,1899.5Z"/><path class="cls-1" d="M805.86,2064c-2.65-.82-1.85-.78-5.25-1.83-1.49-.46-3.57,0-5.61-.65-1.61-.5-3.16-1.77-5.08-2.36-1.67-.51-3.52-.78-5.39-1.35-1.7-.52-3.4-1.29-5.24-1.85s-3.62-.62-5.45-1.18-3.71-.37-5.52-.93-3.09-2.43-4.9-3-3.77-.21-5.57-.76-3.29-1.84-5.08-2.39-3.63-.74-5.42-1.28-3.8-.17-5.59-.71-3.11-2.47-4.89-3-3.72-.46-5.5-1-3.81-.17-5.59-.7-3-2.73-4.83-3.26-4,.42-5.77-.11-3.53-1.13-5.3-1.66-3.62-.87-5.38-1.39-3.48-1.35-5.25-1.87-3.52-1.2-5.28-1.72-3.71-.6-5.47-1.11-3.26-2.13-5-2.64-3.92.13-5.67-.37-3.22-2.36-5-2.85-3.89,0-5.62-.52c-2-.56-3.7-2-5.38-2.09-2.07-.06-3.84,1-5.41,1.85a10.09,10.09,0,0,0-4.26,3.64c-.85,1.41-.49,3.51-1.06,5.57-.45,1.63-2.52,3.11-2.8,5.18-.26,1.89-.17,4-.41,6.07s-.9,4-1.1,6-.3,4.08-.49,6.06,1.32,4.28,1.16,6.18c-.19,2.23-.6,4.26-.73,6-.29,3.67-.46,3-.67,6"/><path class="cls-1" d="M675.79,2056.18a23.55,23.55,0,0,0,4.9,3.29,43.44,43.44,0,0,0,5.23,2.78c1.75.73,3.86.6,5.82,1s3.77,1.09,5.75,1a16.51,16.51,0,0,0,5.65-1.43c1.69-.73,4.05-.92,5.6-2.39,1.31-1.23,1.85-3.46,3-5.31"/><path class="cls-1" d="M657.57,2042.17c-.26,1.89.51,4,.27,6.14s-1.73,3.86-1.93,5.89.49,4.15.31,6.12-1,4.09-1.12,6c-.19,2.23.73,4.37.59,6.12-.28,3.68-1.79,2.91-2,5.93"/><path class="cls-1" d="M663,2080.07c.24-1.74.28-3.59.54-5.42s1.5-3.46,1.75-5.25-1.28-3.9-1-5.64c.27-1.89,2.07-3.48,2.32-5.17.29-2-.38-4-.16-5.52.48-3.3,1-2.6,1.44-5.29"/><path class="cls-1" d="M672.5,2081.54c.24-1.74-.1-3.52.13-5.16s0-3.53.25-5.14c.26-1.82.83-3.47,1-5,.28-1.92.9-3.58,1.11-5,.46-3.19-.39-2.65,0-5.19"/><path class="cls-1" d="M726.93,1974.26a19.28,19.28,0,0,1,4.4-.78c1.2-.08,2.64.41,4.23.43,1.3,0,2.73-.3,4.23-.16,1.33.13,2.59,1.11,4,1.37s2.77.09,4.18.46,2.65.73,4,1.21,2.51,1.13,3.81,1.74,2.73.76,4,1.48,2.07,1.89,3.25,2.73,2.48,1.32,3.57,2.26,2.35,1.59,3.35,2.63,1.67,2.23,2.63,3.25,1.7,2.19,2.64,3.22,1.46,2.39,2.39,3.43,2,2,2.86,3,1.62,2.26,2.52,3.32,1.94,2,2.84,3,2,1.95,2.88,3,1.46,2.39,2.35,3.46,2.72,1.34,3.6,2.41,1.79,2.12,2.67,3.19,1.22,2.59,2.1,3.66,2.35,1.66,3.22,2.73,1.69,2.2,2.57,3.27,1,2.81,1.84,3.87,2,2,2.84,3,2,2,2.85,3,1.92,2,2.81,3.06,1.2,2.65,2.11,3.68,2.09,1.87,3,2.89,2.38,1.68,3.24,2.76,1.2,2.63,2,3.77,1.8,2.19,2.48,3.39,1.2,2.55,1.77,3.81a39.56,39.56,0,0,1,1.48,3.91,39.1,39.1,0,0,1,1.54,3.94,38.39,38.39,0,0,1,1,4.15,31.27,31.27,0,0,1-.81,8.43c-.23,1.37,0,2.89-.4,4.26s-1.76,2.33-2.32,3.64-.89,2.62-1.58,3.88-1.26,2.47-2.08,3.65-2.19,1.79-3.1,2.91-.78,3-1.77,4-2.76,1.08-3.82,1.86-1.94,2.09-3.16,2.64a19.76,19.76,0,0,1-4,.81,22.27,22.27,0,0,1-4,.12,26.86,26.86,0,0,1-4,0c-1.3-.16-2.78.33-4.15,0s-2.3-1.61-3.63-2.07-2.75-.29-4-.83-2.27-1.48-3.52-2.09-2.78-.5-4-1.17-1.79-2.3-3-3-2.45-1.12-3.62-1.86-2.62-.92-3.78-1.68-2.09-1.74-3.23-2.52-2.22-1.55-3.34-2.36-2.23-1.74-3.38-2.57-2.64-1.2-3.78-2-2.08-2-3.22-2.81-2.34-1.61-3.48-2.44-1.79-2.37-2.92-3.2-2.72-1.11-3.84-2-1.93-2.2-3-3-2.69-1.19-3.8-2-2.06-2.05-3.15-2.87-2.22-1.86-3.3-2.68-2.78-1.16-3.85-2-2-2.23-3-3c-1.29-1-2.55-1.69-3.5-2.42-2.14-1.64-3.57-2.56-3.57-2.56"/><polyline class="cls-1" points="541.89 1954.46 537.15 1952.68 532.35 1951.29 527.42 1950.55 522.27 1951.03 517.61 1948.84 512.54 1948.89 507.61 1948.22 502.87 1946.45 497.81 1946.49 493.13 1944.39 488.09 1944.25 483.34 1942.55 478.46 1941.56 473.31 1942.03 468.67 1939.71 463.58 1939.84 458.8 1938.3 453.72 1938.36 453.78 1932.55 453.52 1927.3 451.65 1922.42 450.07 1917.36 445.28 1915.34 440.47 1913.4 435.38 1913.68 430.46 1915.1 425.54 1916.09 420.53 1916.63 415.47 1917.01 410.63 1918.44 405.26 1920.08"/><polyline class="cls-1" points="437.08 1931.33 432.36 1934.29 430.51 1939.6 427.89 1944.55 428.16 1950.12"/><path class="cls-1" d="M416,1936.1c-2.33,1.55-1.92,2.18-4.25,3.72s-2.8.86-5.13,2.4-2.39,1.46-4.73,3-1.57,2.7-3.91,4.24-3.14.33-5.48,1.88-1.77,2.4-4.11,4-2.7,1-5,2.55"/><path class="cls-1" d="M420.25,1944.77c-2.22,1.59-2.52,1.18-4.75,2.77s-2.13,1.72-4.36,3.31-1.42,2.72-3.64,4.32-3,.51-5.23,2.1-1.67,2.38-3.9,4-2.1,1.77-4.33,3.37-2.75.87-5,2.47"/><path class="cls-1" d="M397.85,1972.41c2.3-1.73,1.87-2.3,4.17-4s2.18-1.9,4.47-3.63,3-.87,5.26-2.6,1.59-2.68,3.89-4.42,3-.86,5.26-2.6,1.92-2.25,4.22-4"/><path class="cls-1" d="M413.87,1972.66c1.66-.77,2.86-2.37,4.34-3.27s3.63-1.2,5-2.23,2.37-3,3.59-4.09c1.48-1.35,2.78-2.6,3.82-3.74,2.21-2.42,1-2.61,3.58-3.4s1.56-.07,4.91,1.3c1.42.58,3.19,1.13,5.19,1.9,1.55.59,3.29,1.19,5.19,1.88,1.61.59,3.26,1.43,5.12,2.08,1.65.57,3.31,1.42,5.14,2s3.32,1.5,5.14,2.08,3.62.58,5.45,1.14,3.35,1.47,5.17,2,3.55.83,5.37,1.34,3.73.16,5.55.65,3.24,2,5.06,2.5,3.7.31,5.52.76,3.55.87,5.37,1.3,3.65.46,5.48.87,3.62.55,5.45.94,3.29,2.2,5.12,2.57"/><path d="M544.83,1988.49a9,9,0,0,0-3.51-1.54c-1.85-.49-1.9-.31-3.75-.8s-1.91-.27-3.76-.76-1.81-.66-3.67-1.15-1.82-.8-3.72-.49c-2.06.33-.4,1.31-.5,3.87,0,1.2.3,2.62.29,4.18,0,1.3.32,2.69.37,4.15s-.55,2.78-.44,4.2-.2,2.84,0,4.23,1.1,2.67,1.39,4,.11,2.91.53,4.2,1.52,2.47,2.12,3.67c.81,1.6,1.22,3.14,2,3.67,1.22.81,2.74,0,3.91-1.14.78-.76,1.14-2.09,1.86-3.48.56-1.09,2.07-1.9,2.58-3.25.45-1.19-.28-2.87.12-4.2s1.38-2.35,1.71-3.68.1-2.71.37-4,1-2.56,1.18-3.86,0-2.74.19-4S544.75,1989.72,544.83,1988.49Z"/><path class="cls-1" d="M544.83,1988.49a9,9,0,0,0-3.51-1.54c-1.85-.49-1.9-.31-3.75-.8s-1.91-.27-3.76-.76-1.81-.66-3.67-1.15-1.82-.8-3.72-.49c-2.06.33-.4,1.31-.5,3.87,0,1.2.3,2.62.29,4.18,0,1.3.32,2.69.37,4.15s-.55,2.78-.44,4.2-.2,2.84,0,4.23,1.1,2.67,1.39,4,.11,2.91.53,4.2,1.52,2.47,2.12,3.67c.81,1.6,1.22,3.14,2,3.67,1.22.81,2.74,0,3.91-1.14.78-.76,1.14-2.09,1.86-3.48.56-1.09,2.07-1.9,2.58-3.25.45-1.19-.28-2.87.12-4.2s1.38-2.35,1.71-3.68.1-2.71.37-4,1-2.56,1.18-3.86,0-2.74.19-4S544.75,1989.72,544.83,1988.49Z"/><path class="cls-1" d="M751.76,2047.53c1.36-1.54,1.22-1,3-2.85.83-.83,1.82-1.83,3-2.9.93-.87,2.44-1.26,3.54-2.23s2.14-1.62,3.26-2.52,1.59-2.39,2.72-3.23,2.19-1.66,3.35-2.44,2.3-1.55,3.49-2.26,2.5-1.21,3.73-1.84,2.69-.77,3.95-1.32,2.4-1.43,3.7-1.86a40.92,40.92,0,0,1,3.91-1.52,32.79,32.79,0,0,1,4.15-.64,29.62,29.62,0,0,1,4.21-.08c1.37.08,2.59,1.34,3.94,1.64s2.86,0,4.15.5"/><path class="cls-1" d="M619.1,1993.94a8.76,8.76,0,0,0-3.76,3c-.68,1-.72,2.66-1.54,4-.68,1.11-1.86,2-2.55,3.36s-1.3,2.44-1.89,3.76-.71,2.7-1.18,4-1.46,2.48-1.81,3.84.19,2.9,0,4.29a33.71,33.71,0,0,0-.75,4.13c0,1.38-.54,2.86-.39,4.26s1.24,2.62,1.6,4a20.35,20.35,0,0,0,3.18,7.7c.72,1.13,1.13,2.62,2.08,3.72s2.64,1.26,3.71,2.24"/><path class="cls-1" d="M624.21,1908.71c-1.55-.72-1.87,0-3.42-.77s-1.34-1.17-2.89-1.89"/><path class="cls-1" d="M659.05,1899.67c-1.55-.72-1.66-.48-3.21-1.2s-2,.26-3.56-.46"/><path class="cls-1" d="M772.09,2171c-.59-1.29-1.93-2.22-2.61-3.52s-.64-2.92-1.37-4.18-1.07-2.75-1.84-4-2.19-2-3-3.23-1-2.85-1.83-4-2.27-2-3.1-3.11-2-2.23-2.79-3.32-2.17-2.1-3-3.14c-1-1.28-1.72-2.57-2.52-3.52-1.74-2.07-.37-3.29-2.47-3.79-1.94-.46-2.06.27-4,.27s-2,.66-4,.66-2-.31-4-.31-2-.86-4-.86-2,.62-4,.62-2-.59-4-.59-2,.62-4,.62-2,.49-4,.49"/><path class="cls-4" d="M370.51,1910a4,4,0,0,0-1-3,4.6,4.6,0,0,0-3-1.56c-1.15,0-1.92,1.11-2.67,1.86a3.41,3.41,0,0,0-1.05,2.67,3.36,3.36,0,0,0,1.08,2.63c.75.75,1.49,1.65,2.64,1.65a4.34,4.34,0,0,0,3-1.31A4,4,0,0,0,370.51,1910Z"/><path class="cls-2" d="M396.31,1930a4,4,0,0,0-1.3-2.82,3.89,3.89,0,0,0-2.82-1.22,3.63,3.63,0,0,0-2.61,1.43,3.41,3.41,0,0,0-1.23,2.61,3.93,3.93,0,0,0,.9,2.94,4.07,4.07,0,0,0,2.94,1.12,3.87,3.87,0,0,0,2.8-1.25A3.94,3.94,0,0,0,396.31,1930Z"/><path d="M783.5,1796.08c0,1-1.32,1.43-2,2.06s-1.1,1.37-2.06,1.37a3.22,3.22,0,0,1-2.31-1.12,3.34,3.34,0,0,1-1.23-2.31,4,4,0,0,1,.81-2.72,4.08,4.08,0,0,1,2.73-.94c1,0,1.42,1,2,1.61S783.5,1795.12,783.5,1796.08Z"/><path class="cls-1" d="M787.17,1790.72c-1-.85-2.47-.87-3.83-1.33a11.67,11.67,0,0,0-3.85-1c-1.46,0-2.94-.36-4.19.07a11,11,0,0,0-3.39,2.46"/><path class="cls-1" d="M791.66,1786.17a15.61,15.61,0,0,0-2.6-2.08,18,18,0,0,0-3.11-1.15,19.2,19.2,0,0,0-3.21-.64,21.05,21.05,0,0,0-3.25.12,19.76,19.76,0,0,0-3.21.28,20.45,20.45,0,0,0-3.22.48,16.2,16.2,0,0,0-2.74,1.76,13.68,13.68,0,0,0-2.48,2"/><path class="cls-1" d="M771.65,1790.63a11.39,11.39,0,0,1,3.79-1.74,12.6,12.6,0,0,1,4-.54,13.37,13.37,0,0,1,4.13.18,11.14,11.14,0,0,1,3.57,2.16"/><path class="cls-1" d="M595.37,1796.83c0-1.77-.41-1.77-.41-3.53s-.59-1.77-.59-3.53"/><path class="cls-1" d="M601.58,1796.83c0-1.6,0-1.6,0-3.21s-.38-1.6-.38-3.21-.38-1.61-.38-3.22"/><path class="cls-1" d="M608.08,1796.83c0-1.53-.18-1.53-.18-3s-.45-1.52-.45-3,.39-1.53.39-3,.35-1.53.35-3.06"/><path class="cls-3" d="M583.73,1961.57c0-2.07-.75-2.07-.75-4.14s-.13-2.07-.13-4.14.27-2.07.27-4.14,0-2.07,0-4.14-.29-2.07-.29-4.14.9-2.07.9-4.14-.93-2.07-.93-4.14.47-2.07.47-4.14.58-2.07.58-4.14.16-2.07.16-4.14-.84-2.08-.84-4.15-.57-2.07-.57-4.14,1-2.07,1-4.14-.31-2.07-.31-4.14.27-2.08.27-4.15.44-2.07.44-4.14-1.21-2.08-1.21-4.15.26-2.07.26-4.14.07-2.07.07-4.14,0-2.08,0-4.15-.47-2.07-.47-4.14.6-2.08.6-4.15-.06-2.07-.06-4.14,0-2.08,0-4.15-.58-2.08-.58-4.15,1-2.07,1-4.15-.53-2.07-.53-4.14-.32-2.07-.32-4.15.22-2.07.22-4.14.9-2.08.9-4.15-1.19-2.07-1.19-4.15.9-2.07.9-4.14-.25-2.07-.25-4.14.55-2.07.55-4.15-1.2-2.07-1.2-4.15.24-2.07.24-4.14.23-2.07.23-4.14.63-2.08.63-4.15S583,1802,583,1800s.28-2.08.28-4.15,0-2.07,0-4.15.4-2.07.4-4.15-.78-2.07-.78-4.15-.2-2.08-.2-4.16.41-2.07.41-4.15"/><path class="cls-1" d="M799.35,1812.62c0,2.09,1,2.09,1,4.18s-.5,2.09-.5,4.18.26,2.09.26,4.18.22,2.09.22,4.18-.41,2.09-.41,4.18-.74,2.09-.74,4.18.16,2.09.16,4.18.91,2.09.91,4.18.18,2.09.18,4.18-.18,2.09-.18,4.18-.25,2.1-.25,4.19.22,2.09.22,4.19-1,2.09-1,4.18,1.21,2.09,1.21,4.18-.67,2.09-.67,4.18.17,2.09.17,4.19-.52,2.09-.52,4.18.89,2.09.89,4.18-.08,2.09-.08,4.18-.38,2.1-.38,4.19.29,2.09.29,4.18-.7,2.09-.7,4.19,1,2.09,1,4.18-.69,2.09-.69,4.19.42,2.09.42,4.18-.64,2.09-.64,4.18.7,2.1.7,4.19-.94,2.09-.94,4.18.23,2.1.23,4.19-.22,2.09-.22,4.19.59,2.09.59,4.18-.32,2.09-.32,4.18,0,2.1,0,4.19.64,2.09.64,4.18-.67,2.09-.67,4.19-.36,2.09-.36,4.18.39,2.09.39,4.19-.44,2.09-.44,4.19.76,2.09.76,4.19.37,2.09.37,4.18-.38,2.1-.38,4.19-.21,2.09-.21,4.19.51,2.09.51,4.19.19,2.1.19,4.2-.31,2.09-.31,4.19"/><path class="cls-1" d="M98.53,1384.8c-2.61-.18-2,.84-5,1.93-1.4.51-3.41.45-5,1.65-1.25.93-1.91,2.76-3.14,4.27a26,26,0,0,0-2.91,4.25,37.9,37.9,0,0,0-1.85,4.83c-.56,1.52-1.77,2.94-2.22,4.76-.39,1.6-1.5,3.19-1.79,5s.73,3.62.49,5.32-.21,3.46-.41,5.16-1.61,3.33-1.76,5,.33,3.53.21,5.23.52,3.51.46,5.2-.08,3.47-.07,5.16-.62,3.51-.52,5.18.19,3.51.39,5.16-.29,3.68.06,5.28a32.66,32.66,0,0,0,2,4.88,19.5,19.5,0,0,0,2.62,4.48,10.73,10.73,0,0,0,4,3.15,18.58,18.58,0,0,0,4.75,1.84c1.58.34,3.25,1.46,5.09,1.5a37.3,37.3,0,0,0,5.27-.32c1.63-.2,3.08-1.89,4.83-2.32s3.65.37,5.33-.25,2.84-2.07,4.45-2.84,3-1.56,4.54-2.45a42.73,42.73,0,0,0,4.85-2.84,37.94,37.94,0,0,0,3.92-4c1.41-1.44,3.41-2.25,4.44-3.64,1.26-1.71,1.7-3.73,2.47-5.15,1.65-3,2-2.29,2.74-5"/><path class="cls-5" d="M94.7,1416.07c-.64-1-.22-.88-1.37-1.73a10.49,10.49,0,0,0-1.84-1.4,14.28,14.28,0,0,0-2.16-.86,21.74,21.74,0,0,0-2.31-.21c-.71-.1-1.47.13-2.29.1a21.86,21.86,0,0,0-2.28-.34c-.73,0-1.43.52-2.23.64s-1.44.29-2.23.45-1.56-.1-2.33.11a9.11,9.11,0,0,0-2.25.62,10.33,10.33,0,0,0-1.81,1.49,12.72,12.72,0,0,0-1.44,1.81,15.71,15.71,0,0,0-1,2.06,18.78,18.78,0,0,0-.68,2.17c-.27.73-1,1.32-1.12,2a14.14,14.14,0,0,0-.12,2.3,7.4,7.4,0,0,0,.2,2.22,13.68,13.68,0,0,0,.54,2.31,12.64,12.64,0,0,0,1.33,2,12,12,0,0,0,1.3,1.92,12.85,12.85,0,0,0,1.81,1.48c.63.48,1,1.25,1.75,1.63a17.56,17.56,0,0,0,2.1,1.21,18.75,18.75,0,0,0,2.35.58c.78.16,1.64-.28,2.43-.21a18.52,18.52,0,0,0,2.35.08,18.65,18.65,0,0,0,2.37,0,15.79,15.79,0,0,0,2.19-.92,14.09,14.09,0,0,0,2.25-.72,11.14,11.14,0,0,0,1.93-1.36,9.17,9.17,0,0,0,1.56-1.74"/><path class="cls-1" d="M94.7,1416.07c-.64-1-.22-.88-1.37-1.73a10.49,10.49,0,0,0-1.84-1.4,14.28,14.28,0,0,0-2.16-.86,21.74,21.74,0,0,0-2.31-.21c-.71-.1-1.47.13-2.29.1a21.86,21.86,0,0,0-2.28-.34c-.73,0-1.43.52-2.23.64s-1.44.29-2.23.45-1.56-.1-2.33.11a9.11,9.11,0,0,0-2.25.62,10.33,10.33,0,0,0-1.81,1.49,12.72,12.72,0,0,0-1.44,1.81,15.71,15.71,0,0,0-1,2.06,18.78,18.78,0,0,0-.68,2.17c-.27.73-1,1.32-1.12,2a14.14,14.14,0,0,0-.12,2.3,7.4,7.4,0,0,0,.2,2.22,13.68,13.68,0,0,0,.54,2.31,12.64,12.64,0,0,0,1.33,2,12,12,0,0,0,1.3,1.92,12.85,12.85,0,0,0,1.81,1.48c.63.48,1,1.25,1.75,1.63a17.56,17.56,0,0,0,2.1,1.21,18.75,18.75,0,0,0,2.35.58c.78.16,1.64-.28,2.43-.21a18.52,18.52,0,0,0,2.35.08,18.65,18.65,0,0,0,2.37,0,15.79,15.79,0,0,0,2.19-.92,14.09,14.09,0,0,0,2.25-.72,11.14,11.14,0,0,0,1.93-1.36,9.17,9.17,0,0,0,1.56-1.74"/><path class="cls-5" d="M117,1436.09a19.63,19.63,0,0,1-2.39-.19c-.84-.11-1.49-.86-2.2-1.07a11,11,0,0,1-2.16-.81,10.23,10.23,0,0,1-2-1.19,11.09,11.09,0,0,1-1.81-1.58c-.46-.64-.36-1.61-.68-2.33a16.31,16.31,0,0,1-1.18-2.06,23.61,23.61,0,0,1-.25-2.36c-.13-.8-.61-1.54-.67-2.3s-.15-1.62-.17-2.37.61-1.66.61-2.36a6.44,6.44,0,0,1,.19-2.27,10.2,10.2,0,0,1,1.19-2,14.4,14.4,0,0,1,1.41-1.83c.54-.57.72-1.55,1.32-2.05a22.66,22.66,0,0,1,2-1.39,17.13,17.13,0,0,1,2.24-.87,10.66,10.66,0,0,1,2.18-.88c.8-.17,1.59-.26,2.35-.35a21.2,21.2,0,0,1,2.38,0,19.38,19.38,0,0,1,2.34.34,19.49,19.49,0,0,1,2.35.23,19,19,0,0,1,2.36.45,14.6,14.6,0,0,1,2.09,1.17,14.12,14.12,0,0,1,2,1.34,13.24,13.24,0,0,1,1.41,1.93,12,12,0,0,1,1.56,1.81,10.29,10.29,0,0,1,.38,2.36c.19.77.95,1.47.95,2.26s-.3,1.58-.38,2.37a21.53,21.53,0,0,1,0,2.41c-.15.77-.88,1.41-1.12,2.16a626.74,626.74,0,0,0-1.73,4.41,15.57,15.57,0,0,1-1.57,1.8,15,15,0,0,1-1.81,1.52,13.72,13.72,0,0,1-1.88,1.47,18.31,18.31,0,0,1-2.3.63,19.82,19.82,0,0,1-2.31.4,17.41,17.41,0,0,1-2.28.42C118.57,1435.37,117.82,1436.09,117,1436.09Z"/><path class="cls-1" d="M117,1436.09a19.63,19.63,0,0,1-2.39-.19c-.84-.11-1.49-.86-2.2-1.07a11,11,0,0,1-2.16-.81,10.23,10.23,0,0,1-2-1.19,11.09,11.09,0,0,1-1.81-1.58c-.46-.64-.36-1.61-.68-2.33a16.31,16.31,0,0,1-1.18-2.06,23.61,23.61,0,0,1-.25-2.36c-.13-.8-.61-1.54-.67-2.3s-.15-1.62-.17-2.37.61-1.66.61-2.36a6.44,6.44,0,0,1,.19-2.27,10.2,10.2,0,0,1,1.19-2,14.4,14.4,0,0,1,1.41-1.83c.54-.57.72-1.55,1.32-2.05a22.66,22.66,0,0,1,2-1.39,17.13,17.13,0,0,1,2.24-.87,10.66,10.66,0,0,1,2.18-.88c.8-.17,1.59-.26,2.35-.35a21.2,21.2,0,0,1,2.38,0,19.38,19.38,0,0,1,2.34.34,19.49,19.49,0,0,1,2.35.23,19,19,0,0,1,2.36.45,14.6,14.6,0,0,1,2.09,1.17,14.12,14.12,0,0,1,2,1.34,13.24,13.24,0,0,1,1.41,1.93,12,12,0,0,1,1.56,1.81,10.29,10.29,0,0,1,.38,2.36c.19.77.95,1.47.95,2.26s-.3,1.58-.38,2.37a21.53,21.53,0,0,1,0,2.41c-.15.77-.88,1.41-1.12,2.16a626.74,626.74,0,0,0-1.73,4.41,15.57,15.57,0,0,1-1.57,1.8,15,15,0,0,1-1.81,1.52,13.72,13.72,0,0,1-1.88,1.47,18.31,18.31,0,0,1-2.3.63,19.82,19.82,0,0,1-2.31.4,17.41,17.41,0,0,1-2.28.42C118.57,1435.37,117.82,1436.09,117,1436.09Z"/><path class="cls-1" d="M130.71,1375.67c-2.73-.35-2.36-.13-5.45-.63-1.67-.27-3.71.27-5.56-.09s-3.49-2-5.06-2.43a12.77,12.77,0,0,0-5-.16c-1.58.24-2.72,1.89-4,2.76a6.76,6.76,0,0,0-3,3.3,7.79,7.79,0,0,0-.56,4.71,54.11,54.11,0,0,0,2.24,5.19c.75,1.87.86,4,1.59,5.46,1.43,3,2.35,1.93,3.76,4.35"/><path class="cls-1" d="M103.52,1375.09c-2.63-.73-1.9-2-5.12-2.21a36.35,36.35,0,0,0-5.55.11c-1.72.14-3.45,1.11-5.28,1.63a23,23,0,0,0-5,2.06,21.07,21.07,0,0,0-4.27,3.31,22.45,22.45,0,0,0-3.08,4.39c-1.14,1.82-3,3-3.84,4.59-1.07,1.94-1.16,4.09-1.88,5.67-1,2.15-2.8,3.56-3.28,5.07-1.25,4-1.13,3.1-.89,6"/><path class="cls-1" d="M110.67,1384.64a54.79,54.79,0,0,0,1.41,5.47c.75,1.87,1.52,3.68,2.25,5.18,1.43,3,2.21,2,3.63,4.41"/><path class="cls-1" d="M119,1384.59a53.78,53.78,0,0,0,2.17,5.14c.75,1.87.73,4,1.47,5.48a43,43,0,0,0,2.59,5"/><path class="cls-1" d="M88.38,1421.46a15.2,15.2,0,0,1-5.2,4.58,17.73,17.73,0,0,1-6.79,1.71"/><path class="cls-1" d="M124.35,1425.89c-1.77.18-4.13-1.29-6.65-2.25a15.78,15.78,0,0,1-5.65-3.49"/><path class="cls-1" d="M80,1406.79a14.88,14.88,0,0,1,4.81-4.85,17.18,17.18,0,0,1,6.56-2.1"/><path class="cls-1" d="M110.38,1445.56a19,19,0,0,1-3,5.08,17.69,17.69,0,0,1-4.85,3.51c-2.32,1.08-4.49,1-5.71.11"/><path class="cls-1" d="M116.24,1445.65c-2.06,0-3.83.37-5.18.11-3.41-.66-2.73-.59-4.63-2.29"/><path class="cls-1" d="M97.31,1420.43c1.26,3,.14,2.92.79,6.51a26.23,26.23,0,0,1,.55,6.35c-.15,2.35-1.52,3.93-2.66,5.53-2,2.81-.95,3.73-3.71,5.37"/><path class="cls-1" d="M136,1378.73c2.58,1.19,2.32.32,5,2.43a37.45,37.45,0,0,1,3.92,4,31.84,31.84,0,0,1,3.26,4.55c1,1.51,3,2.59,3.79,4.44.68,1.67-.23,3.92.17,5.88s2,3.61,2,5.49a36.46,36.46,0,0,1-.69,5.73,46.21,46.21,0,0,1-1.33,5.57,50.17,50.17,0,0,1-2.37,5.2c-.8,2-1,4-1.79,5.46-1.6,3-2.19,2-3.82,4.31"/><path class="cls-1" d="M139.84,1422.49c2.26-2.21,3-2.91,6.4-2a11.17,11.17,0,0,1,5.14,4.27,11,11,0,0,1,1.87,5,10,10,0,0,1-.65,5.4,10.54,10.54,0,0,1-3.93,3.69c-1.51.94-3.3.36-5,.14s-3.2.79-4.2.45c-2.69-.91-2.74-.5-3.81-2.19"/><path class="cls-6" d="M100.88,1636.43c1.9-2,.12-3.23.12-6s-.13-2.72-.13-5.44-.37-2.72-.37-5.44-.88-2.72-.88-5.44,1.36-2.72,1.36-5.44-.77-2.72-.77-5.45.17-2.72.17-5.44.26-2.72.26-5.44.17-2.72.17-5.44-.16-2.72-.16-5.44.48-2.73.48-5.45-1.44-2.72-1.44-5.44.44-2.72.44-5.44-.47-2.72-.47-5.44.89-2.72.89-5.44-.89-2.72-.89-5.44.9-2.73.9-5.45-.71-2.72-.71-5.44,1.13-2.72,1.13-5.44-.76-2.73-.76-5.45-.31-2.72-.31-5.45,2-3.16.1-5.11-2.3-.66-4.94-.66-2.64.5-5.28.5-2.86-1.51-4.7.39-1.3,2.15-1.3,4.87.33,2.72.33,5.44.52,2.72.52,5.44-.53,2.72-.53,5.44.9,2.72.9,5.44.18,2.72.18,5.44-1.45,2.72-1.45,5.45.56,2.72.56,5.44-.48,2.72-.48,5.44.3,2.72.3,5.44.63,2.73.63,5.45,0,2.72,0,5.44-.27,2.72-.27,5.44-.54,2.72-.54,5.44.21,2.72.21,5.44,0,2.73,0,5.45.23,2.72.23,5.44.13,2.72.13,5.44.21,2.72.21,5.44-.08,2.73-.08,5.45-.61,2.72-.61,5.45-1.61,3.74.28,5.7,2.9-1,5.54-1,2.61.51,5.16,1.17C98,1637.16,99,1638.33,100.88,1636.43Z"/><path class="cls-6" d="M138.88,1582.74c0,2.65-.21,2.65-.21,5.31s-.32,2.66-.32,5.31,0,2.66,0,5.32.38,2.66.38,5.32-1,2.66-1,5.32,1,2.66,1,5.32-.45,2.65-.45,5.31-.2,2.66-.2,5.32-.31,2.66-.31,5.32-1.5,3.69.28,5.67c1.59,1.78,2.76-1.06,5.14-1.06s2.39.44,4.77.44,3.09,2,4.58.13c1.86-2.3-.57-2.81-.57-5.77s.83-3,.83-5.93.46-3,.46-5.91-.06-3-.06-5.93-1.22-3-1.22-5.93.54-3,.54-5.92"/><path class="cls-1" d="M208.89,1634.68a64,64,0,0,1-6.44.79,31.16,31.16,0,0,1-6.37-.3,20.75,20.75,0,0,1-6.17-1.1,22.34,22.34,0,0,1-5.72-2.78,40,40,0,0,1-4.7-4.4c-1.38-1.44-2.39-3.35-3.87-5.18-1.27-1.57-2.56-3.25-3.94-5.13-1.2-1.64-3.35-2.75-4.67-4.64-1.17-1.69-1.49-4.08-2.77-6-1.16-1.71-3.14-3-4.4-4.88-1.15-1.73-1.56-4-2.81-5.94s-2.16-3.66-3.4-5.54-2.33-3.57-3.57-5.44-3.53-2.78-4.77-4.63-2.07-3.76-3.32-5.61-2.16-3.7-3.41-5.54-3.27-3-4.52-4.79-1.35-4.27-2.6-6.1-3.59-2.74-4.85-4.56-2.58-3.81-3.85-5.62c-.71-3,.28-3.25,0-6.34s-.18-3.09-.48-6.17.77-3.19.47-6.28-2.21-2.9-2.51-6,.2-3-.64-6c-.78-2.72-1.27-2.31-2.56-4.83s0-3.18-1.27-5.7"/><path class="cls-1" d="M177.21,1577.52c2.12,2.59,1.46,3.12,3.57,5.71s2.83,2,4.95,4.6,1.32,3.24,3.44,5.83,2.07,2.87,4.93,4.62-.45-2.49,0-6.51c.21-1.84,2.07-3.83,2.35-6.26.22-2-1.4-4.37-1.14-6.66.23-2,1.51-4.1,1.76-6.32s-.33-4.35-.08-6.54,1.18-4.2,1.43-6.37-.1-4.38.15-6.52.52-4.33.77-6.45,1.23-4.28,1.48-6.36c.27-2.25,1.36-4.31,1.61-6.34s0-4.11.41-6a52.86,52.86,0,0,1,1.58-5.79,45.79,45.79,0,0,1,2.57-5.4,47,47,0,0,1,2.6-5.42c1.17-1.73,3.06-2.73,4.33-4.18s2.41-3.29,3.82-4.59c1.57-1.44,2.65-3.27,4.13-4.44,1.72-1.36,3.17-2.78,4.58-3.9"/><path class="cls-1" d="M154.47,1512.92a15.68,15.68,0,0,1,3.27,5.62,31.39,31.39,0,0,1,.87,6.53c.17,2.18.94,4.41.83,6.63s-1.07,4.44-1.36,6.54c-.32,2.41-.13,4.74-.51,6.65-.79,3.88-1,6.39-1,6.39"/><path class="cls-1" d="M148.11,1529.81c-.48-2.93-.37-2.49-.9-5.88-.29-1.79-.59-3.83-.9-5.89s1-4.29.76-6.14c-.36-2.46-1.86-4.42-2-5.74a13.55,13.55,0,0,0-1.91-5.64,55.41,55.41,0,0,0-3.64-4.89c-2.12-2.64-1.26-3-3.35-5.2"/><path class="cls-1" d="M132.69,1529.14c-.64-3.27-2-3-2.61-6.28s-.72-3.26-1.36-6.53-.11-3.29-1.3-6.4c-.91-2.38-1.06-2.14-2.48-4.26s-.76-2.57-2.19-4.68"/><path class="cls-1" d="M140,1522.55c-.71-2.94-1.43-2.77-2.14-5.71s-.42-3-1.13-5.95-1.09-2.73-2.27-5.52a16.66,16.66,0,0,0-2.45-4.27c-1.43-2.12-1.46-2.1-2.88-4.22"/><path class="cls-1" d="M92.86,1490c2,1.33,2.78.14,4.76,1.46s1.8,1.62,3.79,2.94,1.33,2.5,3.7,2.23c2.06-.23,1.85-.56,3.06-2.24s.78-2,2-3.67.19-3.26,2.24-3.56c2.34-.35,2,1.42,4,2.62s2.15,1,4.19,2.23,1.72,2.82,4.07,2.47c2.14-.33.82-2.11,2.15-3.82s1.76-1.38,3.08-3.09,1.55-1.54,2.88-3.25,1.22-1.79,2.54-3.51,1-1.95,2.34-3.67,2.1-1.16,2.37-3.32-.1-2.08-1-4.13-.66-2.13-1.52-4.17-.94-2-1.81-4.06"/><path d="M125.87,1461.41c2.22.22.2,2.32-.86,5.06a30.83,30.83,0,0,1-2,4,44.09,44.09,0,0,1-2.65,3.63c-.79,1.06-2.23,1.69-3.74,2.47a25.49,25.49,0,0,1-4,2.06c-1.44.47-3,.74-4.42,1.07s-3.19.28-4.52.5c-2.64.43-3.37,3-4.47,1-1-1.79.28-2.09.12-4.14s-.85-1.93-.19-3.87a43.65,43.65,0,0,0,4.43-.93c1.75-.27,3.58.22,5.1-.18,1.73-.44,3.06-1.85,4.52-2.39a37.63,37.63,0,0,0,4.38-2.32c1.71-.89,3.44-1.21,4.57-2C124.68,1463.57,123.38,1461.16,125.87,1461.41Z"/><path class="cls-7" d="M125.87,1461.41c2.22.22.2,2.32-.86,5.06a30.83,30.83,0,0,1-2,4,44.09,44.09,0,0,1-2.65,3.63c-.79,1.06-2.23,1.69-3.74,2.47a25.49,25.49,0,0,1-4,2.06c-1.44.47-3,.74-4.42,1.07s-3.19.28-4.52.5c-2.64.43-3.37,3-4.47,1-1-1.79.28-2.09.12-4.14s-.85-1.93-.19-3.87a43.65,43.65,0,0,0,4.43-.93c1.75-.27,3.58.22,5.1-.18,1.73-.44,3.06-1.85,4.52-2.39a37.63,37.63,0,0,0,4.38-2.32c1.71-.89,3.44-1.21,4.57-2C124.68,1463.57,123.38,1461.16,125.87,1461.41Z"/><path class="cls-1" d="M170.69,1426.79c-2.54.66-2.42,0-4.89,1.93a20.15,20.15,0,0,0-3.3,4.14,20.48,20.48,0,0,0-2.87,4.47,28.11,28.11,0,0,0-1.35,5.15,35.39,35.39,0,0,0-.66,5.28c0,1.62.69,3.38.84,5.25.14,1.64.4,3.36.71,5.2s0,3.63.28,5.5,1.34,3.44,1.67,5.28-.37,3.78,0,5.58,2,3.28,2.49,5.06.13,3.77.71,5.5,2.3,3,3,4.68.28,4,1.21,5.53a36.14,36.14,0,0,0,3.15,4.62c1.17,1.4,3.3,1.89,4.72,3.06a34.85,34.85,0,0,0,9.51,4.92,32,32,0,0,0,5.28,1.13c2.06.27,3.89,1,5.7.8a16.37,16.37,0,0,0,5.73-1.29c1.52-.76,2.54-2.66,4.24-4a44.23,44.23,0,0,0,4.59-3.5c1.23-1.25,2.65-2.56,4-4.14a31.17,31.17,0,0,0,3.1-4.31,34.68,34.68,0,0,0,2.46-4.7c.7-1.69.76-3.53,1.19-5.17a39.35,39.35,0,0,0,.75-5.19c.27-2,1.45-3.64,1.5-5.17.09-3.2-.69-2.61-1-5.23"/><path class="cls-1" d="M157.82,1431.9c1.44-2.16,1.86-1.3,4.88-1.09a7.55,7.55,0,0,1,4.74,1.34,24.25,24.25,0,0,1,3.74,3.59c1,1.15,2,2.24,3,3.36s1.76,2.47,2.72,3.58,2.49,1.8,3.51,2.85a44.46,44.46,0,0,0,3.14,3.15,30.38,30.38,0,0,0,3.33,3,23.21,23.21,0,0,0,4.05,1.94,21.38,21.38,0,0,0,4.36,1,23.6,23.6,0,0,0,4.48.46c1.62-.06,3.24-.77,4.81-.7a47.34,47.34,0,0,1,4.83.45c1.6.24,3.06,1.17,4.58,1.61a28.66,28.66,0,0,1,4.36,1.91,25.14,25.14,0,0,1,4.19,2.23,25.64,25.64,0,0,1,3.19,3.5c1.06,1.13,2.59,1.89,3.51,3.28s2.13,2.44,2.85,4a45.39,45.39,0,0,1,1.38,4.46,41.37,41.37,0,0,1,1.11,4.49,37.72,37.72,0,0,1,1,4.52,34.14,34.14,0,0,1,.38,4.65c-.07,1.57-.94,3-1.25,4.51s0,3.28-.57,4.69a26.51,26.51,0,0,1-2.46,4,25.33,25.33,0,0,1-3.22,3.34"/><path class="cls-1" d="M178.21,1467.7c-.83,1.57-1.7,4.33-3.9,5.89a18.84,18.84,0,0,1-6.7,2.52"/><path class="cls-1" d="M207.61,1462.72c-1.57.83-3.78,2.19-6.47,2.24-2.12,0-4.35-.91-6.63-1.86"/><path class="cls-1" d="M182.23,1461.92c1.27,2.38,1.86,1.93,2.93,4.55a24.24,24.24,0,0,1,1.74,5.15c.25,2-.72,3.13-1,4.48a33.26,33.26,0,0,1-.82,4.48"/><path class="cls-1" d="M175.39,1442.15c-.33,1.75-.43,4.39-2.07,6.53a17.64,17.64,0,0,1-5.27,4.66"/><path class="cls-1" d="M178.36,1422.82a24.61,24.61,0,0,1,4.5-1.65c1.33-.39,2.95-.65,4.7-1,1.47-.3,3.11-.08,4.79-.28a46.53,46.53,0,0,1,4.73-.63c1.57,0,3.23-.87,4.85-.71s3,1.36,4.59,1.74,3.4,0,4.88.59,2.64,1.91,4,2.83a25.41,25.41,0,0,1,3.48,3.28,26.19,26.19,0,0,1,3.21,3.54c.91,1.32,1.38,3,2.3,4.34s2.14,2.48,3.05,3.83,2.18,2.47,3.08,3.83,1.61,2.86,2.49,4.21,2.28,2.44,3.15,3.79,1.76,2.79,2.63,4.12.83,3.4,1.68,4.73,2.07,2.63,2.9,3.94c.94,1.47,1.77,2.89,2.57,4.16,1,1.56,2.51,2.55,3.25,3.72,1.63,2.61.56,2.53,1.85,4.6"/><path class="cls-3" d="M189,1547.94c1.68-1,1.06-1.73,3.17-2.48a19.09,19.09,0,0,1,3.92-.93,12.45,12.45,0,0,1,4,.46,8.7,8.7,0,0,1,3.71,1.54,10.66,10.66,0,0,1,2.73,3c.67,1.26.41,2.79.89,3.77.67,1.36,1.07,2.55,1.55,3.43a4.58,4.58,0,0,0,3,2.21,7.42,7.42,0,0,0,3.71.34c1-.17,2.16-.76,3.61-1.09,1.29-.29,2.52-.77,3.74-1s2.57-.82,3.77-1a25.63,25.63,0,0,1,3.94,0,11.86,11.86,0,0,1,4,.39c1.22.48,1.82,1.86,2.52,3a8.43,8.43,0,0,1,1.43,3.54c.2,1.85.6,3.25,1.54,3.92a5.86,5.86,0,0,0,4.3.74,14,14,0,0,0,4.18-1.3c1.73-1,3.13-2.65,3.13-3.34"/><path class="cls-1" d="M67.42,1506.21c-.11,2.32-.49,2.3-.61,4.63s-.3,2.31-.42,4.64-.38,2.31-.5,4.64,0,2.33-.11,4.65.93,2.38.82,4.7-.5,2.31-.62,4.63-.15,2.32-.27,4.65.32,2.34.2,4.67-.82,2.29-.94,4.61-.51,2.3-.63,4.63-.07,2.33-.19,4.65.92,2.38.8,4.71-.57,2.3-.69,4.62-1,2.28-1.13,4.61,1.15,2.39,1,4.71-.08,2.33-.2,4.65-.62,2.3-.74,4.63-.83,2.29-.95,4.61,0,2.33-.16,4.66,0,2.33-.13,4.65.2,2.34.08,4.67.62,2.36.51,4.68-1.28,2.27-1.4,4.59.54,2.36.43,4.69-.27,2.32-.39,4.64-.34,2.32-.46,4.64-.26,2.32-.38,4.65,0,2.33-.1,4.66-.53,2.31-.65,4.63,1.11,2.4,1,4.73-2.27,2.8-.67,4.5,2.19-.46,4.51-.46,2.32.75,4.64.75,2.32-.75,4.65-.75,2.32.76,4.64.76,2.32-.6,4.64-.6,2.32,1,4.65,1,2.32-.65,4.64-.65,2.32-.26,4.64-.26,2.33,0,4.65,0,2.32.69,4.64.69,2.33-.42,4.65-.42,2.32-.55,4.64-.55,2.32,1.31,4.64,1.31,2.33-.28,4.65-.28,2.32-.45,4.64-.45,2.32.46,4.65.46,2.32-.77,4.64-.77,2.33-.15,4.65-.15,2.32,1.24,4.65,1.24,2.32-.48,4.64-.48,2.33.4,4.65.4,2.33-.25,4.65-.25,2.75,1,4.52-.49c2-1.67.58-2.38,1.18-4.88s.82-2.44,1.42-4.94,1-2.4,1.65-4.9-1.66-4,.8-4.8c2.16-.65.6,1.85,1.62,3.86s1.2,1.92,2.22,3.93,1.11,2,2.13,4,1.18,1.94,2.2,4,1,2,2,4.06"/><path class="cls-1" d="M201.46,1477.17c.94,1.89.21,4.3-.94,6.4a16.93,16.93,0,0,1-4.24,4.86c-1.84,1.49-3.78,3-5.6,3.41"/><path class="cls-1" d="M207,1476.79a28,28,0,0,1-5.14.06c-3.46-.34-3.18.43-5.23-1.1"/><path d="M146.93,1461.63a36.81,36.81,0,0,0,.14,4.74,46.21,46.21,0,0,0,.58,4.74,43.62,43.62,0,0,0,1.53,4.51c1,2.7.53,2.55,2.11,4.3a29.6,29.6,0,0,0,3.26,3.07c1.65,1.49,1.44,1.73,3.09,3.22l3.31,3a12.68,12.68,0,0,0,3.76,2.44c2.08,1.12-.23-1.59-1.17-4.45-.41-1.26-1.45-2.59-1.93-4.33-.38-1.38-.19-3-.57-4.7-.34-1.44-.53-3-.84-4.62-.29-1.47-.54-3-.79-4.61s-1.34-2.93-1.53-4.54-.1-3.11-.23-4.72,0-3.5-.06-5.31-.7-3.61-.67-5.32c0-1.93,1-3.72,1-5.28.14-3.16,1.53-3.13-.42-4.92-1.63-1.48-.64,1-2.43,3a25,25,0,0,0-3,3.21,29.83,29.83,0,0,0-2.22,3.79c-.59,1.26-1.79,2.43-2.23,3.91s.49,3,.28,4.58S146.93,1460.09,146.93,1461.63Z"/><path class="cls-7" d="M146.93,1461.63a36.81,36.81,0,0,0,.14,4.74,46.21,46.21,0,0,0,.58,4.74,43.62,43.62,0,0,0,1.53,4.51c1,2.7.53,2.55,2.11,4.3a29.6,29.6,0,0,0,3.26,3.07c1.65,1.49,1.44,1.73,3.09,3.22l3.31,3a12.68,12.68,0,0,0,3.76,2.44c2.08,1.12-.23-1.59-1.17-4.45-.41-1.26-1.45-2.59-1.93-4.33-.38-1.38-.19-3-.57-4.7-.34-1.44-.53-3-.84-4.62-.29-1.47-.54-3-.79-4.61s-1.34-2.93-1.53-4.54-.1-3.11-.23-4.72,0-3.5-.06-5.31-.7-3.61-.67-5.32c0-1.93,1-3.72,1-5.28.14-3.16,1.53-3.13-.42-4.92-1.63-1.48-.64,1-2.43,3a25,25,0,0,0-3,3.21,29.83,29.83,0,0,0-2.22,3.79c-.59,1.26-1.79,2.43-2.23,3.91s.49,3,.28,4.58S146.93,1460.09,146.93,1461.63Z"/><path class="cls-1" d="M241.43,1471.74a34.84,34.84,0,0,1,1.76,4.53,39.42,39.42,0,0,1,.93,4.77,43.44,43.44,0,0,1,.85,4.8c.1,1.63-.46,3.23-.53,4.86s.09,3.25-.14,4.85a47.75,47.75,0,0,1-.47,4.88,43.09,43.09,0,0,1-1.3,4.74c-.61,1.6-2.14,2.67-2.91,4a20.78,20.78,0,0,1-2.65,4"/><path class="cls-1" d="M149.5,1562.06a8.79,8.79,0,0,1,1-1.72c.32-.49.95-.83,1.4-1.35a17.4,17.4,0,0,1,1.17-1.54c.45-.42.8-1,1.32-1.45s1-.77,1.59-1.14,1.09-.69,1.66-1,1.41-.06,2-.33,1-.93,1.61-1.15,1.27-.24,1.89-.39a17.74,17.74,0,0,1,1.89-.42,17.93,17.93,0,0,1,1.92.15,16.14,16.14,0,0,1,1.93-.31,13.3,13.3,0,0,1,1.82.66,13.47,13.47,0,0,1,1.84.48,12.76,12.76,0,0,1,1.78.72,15.64,15.64,0,0,1,1.54,1.14,16.07,16.07,0,0,1,1.64,1c.5.47.78,1.13,1.23,1.59s1.1.8,1.55,1.27,1,.86,1.48,1.34.62,1.26,1,1.74.67,1.2,1.07,1.69,1.14.82,1.52,1.33.55,1.27.91,1.79,1,.94,1.37,1.47.38,1.35.68,1.9.93,1,1.18,1.61.8,1.19,1,1.75c.26.74-.14,1.53,0,2.06.28,1.3,1,.94.89,1.92"/><path class="cls-1" d="M166.81,1557.44c-.66.14-1.24.59-1.89.8s-1.32.36-1.94.63-1.08.87-1.68,1.18-1.26.53-1.83.88-1.15.74-1.7,1.11-1.37.47-1.9.86-1.17.8-1.66,1.21-.78,1.31-1.21,1.7a15,15,0,0,0-1.44,1.42"/><path class="cls-1" d="M173.08,1561.39a15.33,15.33,0,0,0-2,.52c-.6.22-1.15.68-1.79,1s-1.36.26-2,.57-1,1-1.55,1.38-1.28.49-1.85.84-1.33.44-1.89.8-.88,1.14-1.43,1.51-1.2.67-1.73,1-1.14.81-1.65,1.18-1.35.6-1.81.94a2.59,2.59,0,0,0-1.1,1.53"/><path class="cls-1" d="M177.75,1568.27a12.17,12.17,0,0,0-1.94.29c-.6.18-1.23.37-1.88.61s-1.4,0-2,.32-1.14.69-1.74,1-.9,1.15-1.49,1.46-1.43.14-2,.46-1,1-1.52,1.35-1.3.45-1.85.78-.95,1.06-1.47,1.39-1.62.1-2.1.41c-1,.67-.55,1-1.37,1.52"/><path class="cls-1" d="M164.62,1581.06c1-.24.86-.61,1.82-.85s.93-.36,1.89-.6.91-.47,1.87-.71,1-.08,2-.31,1.06.12,2-.12.92-.4,1.88-.63.87-.61,1.84-.84,1-.07,2-.31,1,.15,2,0a4.66,4.66,0,0,1,1.79-.21c.53,0,1.13.41,1.82.45s1.21-.28,1.85-.25,1.23-.23,1.85-.21,1.22.74,1.82.75"/><path class="cls-2" d="M63.61,1335.1a5,5,0,0,0-1-3.34c-.75-.75-2.19-.32-3.34-.32a3.5,3.5,0,0,0-2.75.9A4.07,4.07,0,0,0,55,1335.1a4.31,4.31,0,0,0,1.32,3,4,4,0,0,0,3,.88,3.93,3.93,0,0,0,2.93-.92A4.25,4.25,0,0,0,63.61,1335.1Z"/><path class="cls-1" d="M195.88,1663.89c2.14,0,2.14.18,4.27.18s2.13-.5,4.27-.5,2.13.49,4.27.49,2.13-.39,4.27-.39,2.13-.31,4.27-.31,2.14.68,4.27.68,2.14.47,4.28.47,2.13-.69,4.27-.69,2.14.55,4.27.55,2.14-.6,4.27-.6,2.14.66,4.28.66,2.14-.59,4.28-.59,2.42,1.18,4-.31.92-1.75.92-3.83-1.23-2.07-1.23-4.15.68-2.08.68-4.15-.54-2.08-.54-4.16.45-2.08.45-4.15-.39-2.08-.39-4.16v-4.15c0-2.08.47-2.08.47-4.16s.55-2.08.55-4.16-.39-2.07-.39-4.15,0-2.08,0-4.15.18-2.08.18-4.16-.31-2.08-.31-4.15.58-2.08.58-4.16-.32-2.08-.32-4.16-.47-2.07-.47-4.15-.18-2.07-.18-4.15.94-2.08.94-4.16-.17-2.07-.17-4.15.29-2.08.29-4.16-.64-2.08-.64-4.16.65-2.07.65-4.16-.61-2.07-.61-4.15.18-2.08.18-4.16.3-2.08.3-4.16-.16-2.07-.16-4.15-.26-2.08-.26-4.16.09-2.08.09-4.15.32-2.08.32-4.16,0-2.08,0-4.16-.73-2.07-.73-4.15.71-2.08.71-4.16-.61-2.08-.61-4.15.61-2.08.61-4.15.14-2.08.14-4.16,0-2.07,0-4.15-.91-2.08-.91-4.16.23-2.08.23-4.15.18-2.08.18-4.16-.68-2.08-.68-4.15.85-2.08.85-4.16-.91-2.08-.91-4.15v-4.16c0-2.08.39-2.08.39-4.16s.09-2.08.09-4.15.7-2.08.7-4.16-1.26-2.08-1.26-4.16,0-2.08,0-4.15,0-2.08,0-4.16,1-2.08,1-4.16-.55-2.08-.55-4.15.27-2.08.27-4.16-.36-2.08-.36-4.16-.3-2.08-.3-4.16.54-2.08.54-4.16,0-2.08,0-4.15-.3-2.08-.3-4.16.17-2.08.17-4.16.28-2.08.28-4.16,0-2.08,0-4.16-.32-2.08-.32-4.16.87-2.08.87-4.16-.83-2.08-.83-4.16.39-2.08.39-4.16.17-2.08.17-4.16.27-2.08.27-4.15-.13-2.08-.13-4.16-1.05-2.08-1.05-4.16.37-2.08.37-4.16,0-2.08,0-4.16-.44-2.08-.44-4.16.7-2.08.7-4.16.4-2.08.4-4.16-.06-2.08-.06-4.16-1-2.08-1-4.17.45-2.08.45-4.16,2.16-3.2.69-4.68-2.58,1.07-4.65,1.07-2.07,0-4.14,0-2.06-.5-4.13-.5-2.07-.72-4.14-.72-2.06.08-4.13.08-2.07.11-4.14.11-2.07.32-4.14.32-2.07.74-4.14.74-2.07-1.15-4.14-1.15-2.07.66-4.13.66-2.07-.15-4.14-.15-2.07-.22-4.14-.22-2.07-.15-4.14-.15-2.07.14-4.14.14-2.07-.41-4.14-.41-2.07,1.23-4.14,1.23-2.07-.38-4.14-.38-2.07.4-4.14.4-2.07-.76-4.14-.76-2.07.76-4.14.76-2.07-.77-4.14-.77-2.07.61-4.14.61-2.07-1-4.14-1-2.07.65-4.14.65-2.07.26-4.15.26-2.07,0-4.14,0-2.07-.68-4.14-.68-2.07.42-4.14.42-2.07.54-4.14.54-2.07-1.3-4.15-1.3-2.07.28-4.14.28-2.07.44-4.14.44-2.07-.45-4.14-.45-2.07.77-4.14.77-2.07.15-4.14.15-2.07-1.24-4.14-1.24-2.08.48-4.15.48-2.07-.4-4.14-.4-2.07.25-4.14.25-2.08.54-4.15.54-2.07,0-4.14,0-2.08-.23-4.15-.23-2.07-.46-4.14-.46-2.08.18-4.15.18-2.07,0-4.15,0-2.07.2-4.15.2-2.07.11-4.15.11"/><path class="cls-1" d="M176.32,1522.61c.15,3.29-.33,3.31-.18,6.6s.25,3.29.4,6.58-.71,3.33-.56,6.62,1.19,3.25,1.34,6.55-.77,3.34-.62,6.63"/><path class="cls-1" d="M648.7,1481.42c-2.1.76-2.09-.26-4.37,1.21-1.09.7-1.61,2.48-2.85,3.6-1,.92-3,1.13-4,2.38a28,28,0,0,0-2.26,4c-.68,1.25-.67,2.88-1.16,4.36a26.76,26.76,0,0,0-1.11,4.28c-.25,1.54-1.41,2.9-1.64,4.38s.19,3.16,0,4.64-.14,3.1-.31,4.57-.88,3-1,4.5c-.1,1.62-.13,3.16-.09,4.6a28.5,28.5,0,0,0,.09,4.67c.34,1.61,1.65,2.79,2.41,4s1.42,3,2.82,3.74c1.24.68,3.15.46,5,.8a28,28,0,0,0,4.85.75c1.57,0,3.17-.6,4.86-.79s3.29.08,4.92-.3a40.12,40.12,0,0,0,4.82-1.13c1.55-.58,2.81-1.79,4.24-2.58a26.48,26.48,0,0,0,3.78-3.06c1.28-1,3.39-1.28,4.4-2.57a20.24,20.24,0,0,0,2.23-4.52"/><polyline class="cls-1" points="620.4 1506.83 617.95 1504.41 616.57 1501.44 615.47 1498.31 613.43 1495.67 612.41 1492.5 610.75 1489.66 608.64 1487.06 607.15 1484.13 605.97 1481.04 604.91 1477.88 603 1475.17 601.11 1472.45 600.36 1469.13 598.55 1466.37 596.9 1463.53 595.2 1460.7 593.56 1457.85 591.67 1454.92 594.55 1451.95 595.34 1448.29 595.89 1444.65 595.29 1440.95 592.89 1438.52 591.11 1435.7 588.83 1433.3 586.28 1431.16 583.59 1429.19 581 1427.14 578.67 1424.75 576.02 1422.77"/><polyline class="cls-1" points="588.95 1444.49 585.34 1443.91 581.86 1443.99 578.18 1444.22 575.4 1446.64"/><path class="cls-1" d="M577.67,1434.41c-1.76-.58-1.89-.19-3.64-.77s-1.88-.2-3.63-.78-1.48-1.43-3.23-2-1.85-.3-3.6-.88-1.8-.46-3.55-1-1.82-.42-3.58-1-1.79-.48-3.55-1.06"/><path class="cls-1" d="M574.72,1440.83c-1.73-.5-1.68-.67-3.42-1.17s-1.59-1-3.32-1.48-1.9,0-3.63-.47-1.58-1.06-3.31-1.57-1.77-.37-3.51-.88-1.92.12-3.66-.38-1.72-.56-3.46-1.06"/><path class="cls-1" d="M551.57,1439.29c1.84.49,1.61,1.37,3.45,1.86s1.92.16,3.75.65,2-.11,3.84.38,1.87.35,3.71.84,1.62,1.31,3.46,1.79,2,0,3.81.48"/><path class="cls-1" d="M558.12,1447.73a31.36,31.36,0,0,0,3.17,1.51,32.12,32.12,0,0,0,3.45.66c1.21.31,2.26,1,3.34,1.14a33.39,33.39,0,0,0,3.52.08,12.31,12.31,0,0,1,3.11.51,7.91,7.91,0,0,1,2,3.36c.34,1,.54,2.23,1,3.58l1.19,3.52c.38,1.1,0,2.56.39,3.79s1.67,2,2.1,3.21-.05,2.6.38,3.81,1.07,2.21,1.5,3.41,1,2.24,1.45,3.43.42,2.46.86,3.64,1.08,2.23,1.51,3.41,1.08,2.23,1.52,3.4,1.29,2.15,1.73,3.32.68,2.39,1.13,3.55.3,2.53.75,3.7.75,2.36,1.2,3.52,1.42,2.11,1.88,3.27.55,2.45,1,3.6,1.53,2.06,2,3.21,1,2.26,1.5,3.41.87,2.33,1.35,3.47,1.22,2.18,1.71,3.32.62,2.43,1.12,3.57.78,2.37,1.28,3.5,1.61,2,2.12,3.12.14,2.69.66,3.8,1.65,2,2.18,3.09.43,2.57,1,3.66,2,1.78,2.58,2.86.77,2.42,1.35,3.49"/><path class="cls-1" d="M653.8,1474.24a13.55,13.55,0,0,0-4.34-.67,29.18,29.18,0,0,0-4.4.39c-1.42.18-3.17-.69-4.65-.19a19.32,19.32,0,0,0-3.94,2.38,16.36,16.36,0,0,0-3.62,2.81,18.74,18.74,0,0,0-2.57,3.82c-.67,1.37-1.36,2.85-2.06,4.38s-1,3-1.7,4.53-1.6,2.79-2.22,4.3-.23,3.37-.82,4.88-1,3.05-1.57,4.55-2.21,2.66-2.72,4.16-.94,3.14-1.4,4.64-.9,3.18-1.29,4.67c-.44,1.66,0,3.41-.32,4.87a29.82,29.82,0,0,0-.35,4.72,28.33,28.33,0,0,0-.08,4.76c.24,1.68-.07,3.41.46,4.86a19.78,19.78,0,0,0,2.1,4.47c1,1.36,2.55,2.17,3.81,3.12s2.5,2.36,4,2.85"/><path class="cls-1" d="M648.49,1480.94s1.13,1.67,2.76,4.17c.8,1.23,1.07,3.17,2.27,4.57,1,1.2,2.66,2,4,3.14a25,25,0,0,0,3.87,3.25,22,22,0,0,0,4.75,1.76,20,20,0,0,0,5,.93c1.57,0,3.2-.7,4.94-1.07a27.73,27.73,0,0,0,4.59-1.85"/><path class="cls-1" d="M659.57,1476.53c2.27-.77,1.68-1.51,4.54-1.66,1.38-.08,3,.81,4.74,1.07,1.45.22,3.22-.18,4.82.42a24,24,0,0,1,4.33,2.21,25.25,25.25,0,0,1,4,2.77c1.1,1,1.73,2.66,2.78,4,.93,1.18,1.24,2.84,2.11,4.29.76,1.29,2.49,2.16,3.2,3.69.64,1.37,1.46,2.8,2,4.38.52,1.43,0,3.29.43,4.89s1.36,2.86,1.73,4.49,1.29,2.87,1.57,4.27c.31,1.55.58,3,.81,4.44.27,1.57-.12,3.15.05,4.55.19,1.6.27,3.1.35,4.48.09,1.63-.63,3.1-.69,4.46-.07,1.67.25,3.14,0,4.45a19.71,19.71,0,0,1-1.14,4.33A17.12,17.12,0,0,1,693,1542a31.2,31.2,0,0,1-3.32,3.07c-1.09,1-2.79,1.31-3.9,2.38"/><path class="cls-1" d="M672.28,1509.42c2.35-1.11,2.56-1.61,5.16-1.44a6.4,6.4,0,0,1,4.35,3,7.91,7.91,0,0,1,1.12,4.4,8.57,8.57,0,0,1-1,4.38,5.26,5.26,0,0,1-3.41,2.48,6.58,6.58,0,0,1-4.23-.06"/><path class="cls-1" d="M638.5,1514c1.24.09,1.2.64,2.45.73s1.27-.19,2.52-.09,1.26-.06,2.51,0,1.24.23,2.49.32,1.28-.27,2.53-.18,1.25.23,2.5.33,1.59-.52,2.69.09-.91,1.16-2,2.32c-.54.56-1.38,1-2.13,1.6s-1.27,1.15-2,1.69-1.17,1.5-2,1.92a16.23,16.23,0,0,1-2.53,1,12.12,12.12,0,0,1-2.7.25"/><path class="cls-1" d="M646.29,1503.73a8.6,8.6,0,0,0-1.61-2,15.78,15.78,0,0,0-1.86-1.71,12.11,12.11,0,0,0-2.27-1,8.25,8.25,0,0,0-2.3-1,7.42,7.42,0,0,0-2.57,0,9.14,9.14,0,0,0-2.39,1"/><path class="cls-1" d="M668.23,1505.36c-.92-.89-.44-1.11-1.67-1.93a13.84,13.84,0,0,0-2.11-1.53,12,12,0,0,0-2.51-.75c-.82-.17-1.7.39-2.56.49a6.36,6.36,0,0,0-2.34.64,8.18,8.18,0,0,0-2.19,1.26"/><polyline class="cls-1" points="695.26 1509.62 696.97 1506.79 697.35 1503.38 698.83 1500.44 700.61 1497.64 701.42 1494.41 703.27 1491.63 704.48 1488.58 705.21 1485.31 706.58 1482.32 708.28 1479.48 710.1 1476.69 711.05 1473.51 712.01 1470.35 714.15 1467.7 715.2 1464.57 716.41 1461.51 717.58 1458.42 718.79 1455.42 716.42 1452.71 715.86 1448.96 714.72 1445.54 715.41 1441.99 717.1 1439.21 718.39 1436.06 720.88 1433.81 723.16 1431.4 725.37 1428.92 727.57 1426.4 729.96 1424.1 732.73 1422.23"/><polyline class="cls-1" points="721.72 1445.26 724.83 1443.3 728.55 1442.83 731.92 1444.46 735.31 1445.76"/><path class="cls-1" d="M732.16,1434.46c1.71-.7,1.68-.77,3.39-1.48s1.88-.27,3.59-1,1.36-1.54,3.07-2.25l3.42-1.4c1.71-.71,1.82-.44,3.53-1.14s1.63-.91,3.34-1.62,2.06.14,3.77-.57"/><path class="cls-1" d="M735,1439.24c1.69-.63,2,.3,3.73-.33s1.47-1.23,3.16-1.86,2,.06,3.64-.56,1.35-1.58,3-2.2,1.85-.22,3.54-.85,1.54-1,3.24-1.68,1.86-.19,3.56-.82"/><path class="cls-1" d="M758.33,1436.92c-1.8.62-1.59,1.23-3.38,1.85s-1.77.7-3.57,1.32-1.82.53-3.62,1.15-1.71.88-3.51,1.5-1.93.25-3.73.87-1.87.39-3.67,1"/><path class="cls-1" d="M752.67,1446.27a33.17,33.17,0,0,1-3.18,1.55c-1.11.51-2.09,1.34-3.16,1.7a32.93,32.93,0,0,1-3.54.58c-1.28.31-2.42.85-3.42,1-2.14.31-2.4-1.48-3.79-.4s.43,1.71-.17,4c-.26,1-.78,2.16-1.14,3.54-.28,1.09-.61,2.29-.95,3.59-.3,1.13-1.47,2.1-1.81,3.37s.26,2.58-.08,3.82-1.52,2.11-1.86,3.35-.39,2.43-.73,3.65-.46,2.42-.81,3.63-1.09,2.24-1.44,3.46-.43,2.43-.78,3.64-.46,2.43-.81,3.63-.26,2.5-.62,3.7-.9,2.31-1.26,3.51-1.3,2.19-1.67,3.38-.87,2.32-1.24,3.51-.2,2.53-.58,3.72-1.11,2.24-1.49,3.43-.14,2.56-.52,3.74-.68,2.39-1.07,3.57-.87,2.33-1.27,3.51-.53,2.45-.93,3.62-1.18,2.22-1.59,3.39-1.06,2.26-1.48,3.42-.24,2.57-.67,3.72-1.8,2-2.24,3.14-.3,2.56-.75,3.7-1.61,2-2.07,3.17,0,2.7-.52,3.81-1.4,2.13-1.9,3.23"/><path class="cls-1" d="M617.52,1560.35c.49,2.5-.08,2.1.59,5.09.33,1.45,1.21,3,1.67,4.85.39,1.57.65,3.29,1.13,5s1.62,3.07,2.14,4.67.48,3.52,1.08,5,1.8,2.61,2.29,3.94c.56,1.51.57,3.12,1,4.43.55,1.61,1,3.05,1.42,4.27.83,2.7.53,2.18,1.09,4.36a30.42,30.42,0,0,1-2,4.13c-.66,1.16-2.29,2.08-3.11,3.63-.68,1.29-.69,3-1.43,4.53s-1.9,2.5-2.57,4-1.19,2.87-1.79,4.33-.4,3.19-.93,4.66-1,2.94-1.46,4.42-.7,3-1,4.53"/><path class="cls-1" d="M700.71,1560.22c-.48,2.5,0,2.06-.64,5-.33,1.46-.79,3.12-1.24,4.94-.4,1.57-.67,3.27-1.14,5s-1.37,3.14-1.89,4.74-.63,3.46-1.23,4.95-1.11,2.87-1.61,4.21c-.56,1.51-.34,3.18-.78,4.49-.55,1.62-1.76,2.81-2.13,4a39.58,39.58,0,0,0-1.13,4.33,20.45,20.45,0,0,0,1.9,4.26c.66,1.17,1.35,2.57,2.18,4.12.68,1.28,1.71,2.51,2.45,4s.94,2.93,1.61,4.4,2.13,2.44,2.73,3.9.71,3.07,1.24,4.54,1.5,2.81,1.94,4.29.68,3.11,1,4.6"/><path class="cls-1" d="M634.76,1545.15c1.83,1.22,1.11,1.4,3.54,2.64,1.12.57,2.49,1.21,4,1.85,1.25.53,2.51,1.47,4,2s3,.09,4.48.46,2.68,1.43,4.17,1.67,3-.41,4.5-.31a15.52,15.52,0,0,0,4.84-.18c1.6-.43,2.82-1.56,4.2-2.4a23.34,23.34,0,0,0,4.16-2.51,33.79,33.79,0,0,0,3.51-3.45c1.09-1.41,1.52-3.15,2.26-4.39,1.47-2.49.88-2.21,1.81-4.47"/><path class="cls-1" d="M622.63,1601.88c2.3.38,1.73.07,4.64.46,1.32.17,2.9.13,4.66.33,1.42.16,3,.43,4.63.59,1.47.14,3,.65,4.61.78s3.09-.34,4.69-.24,3.06.47,4.65.54,3.06,1.11,4.63,1.14,3.12-1.14,4.69-1.14,3.13.94,4.69.9,3.06-1.25,4.61-1.34,3.22,1,4.76.89,3.1-.63,4.63-.85,3-1.14,4.49-1.44,3.07-.61,4.54-1,3.33,0,4.74-.58,2.67-1.87,4-2.59"/><path class="cls-1" d="M817.13,1479.74c0,2-1.23,2-1.23,4.1s.42,2.06.42,4.11-.29,2.06-.29,4.11-.07,2.06-.07,4.12v4.11c0,2,.29,2,.29,4.11s-.36,2-.36,4.11,1.06,2,1.06,4.11.15,2.06.15,4.11-1.17,2.06-1.17,4.11.1,2.06.1,4.11,0,2.06,0,4.12.77,2,.77,4.11.24,2.06.24,4.11-.31,2.06-.31,4.11-.71,2.06-.71,4.12-.19,2.06-.19,4.11.6,2.06.6,4.12-.68,2-.68,4.11,1,2.05,1,4.11-.61,2.06-.61,4.12.82,2.06.82,4.11-.76,2.06-.76,4.12.71,2,.71,4.11-1,2.06-1,4.11.74,2.06.74,4.12-.56,2-.56,4.11.22,2.06.22,4.12.66,2,.66,4.11-1.27,2.06-1.27,4.11,1,2.06,1,4.12,0,2.06,0,4.12-.87,2.06-.87,4.12.92,2,.92,4.11.34,2.06.34,4.12-1.16,2.06-1.16,4.11,1,2.07,1,4.13,1,2.67-.5,4.13-2.09.26-4.18.26-2.08.22-4.17.22-2.08-.41-4.17-.41-2.08-.74-4.16-.74-2.09.16-4.17.16-2.09.91-4.17.91-2.09.18-4.17.18-2.09-.18-4.17-.18-2.09-.25-4.17-.25-2.09.22-4.17.22-2.09-1-4.17-1-2.09,1.21-4.17,1.21-2.09-.67-4.17-.67-2.09.17-4.17.17-2.09-.52-4.17-.52-2.09.89-4.17.89-2.09-.08-4.17-.08-2.09-.38-4.17-.38-2.08.29-4.17.29-2.08-.7-4.16-.7-2.09,1-4.17,1-2.08-.69-4.16-.69-2.09.42-4.17.42-2.09-.64-4.17-.64-2.09.7-4.17.7-2.09-.94-4.17-.94-2.08.23-4.17.23-2.08-.22-4.16-.22-2.09.59-4.17.59-2.09-.32-4.17-.32h-4.17c-2.09,0-2.09.64-4.17.64s-2.09-.67-4.17-.67-2.09-.36-4.17-.36-2.09.39-4.17.39-2.09-.44-4.17-.44-2.09.76-4.17.76-2.09.37-4.17.37-2.09-.38-4.18-.38-2.08-.21-4.17-.21-2.08.51-4.17.51-2.08.19-4.17.19-2.09-.31-4.17-.31-2.09-.13-4.17-.13-2.09-.52-4.18-.52-2.08.88-4.17.88-2.08.2-4.17.2-2.09-.85-4.17-.85-2.09-.07-4.18-.07-2.08-.43-4.17-.43-2.08.81-4.17.81-2.09.45-4.17.45-2.09-.85-4.17-.85-2.09.2-4.17.2-2.09-.35-4.18-.35-2.08.75-4.17.75-2.09.13-4.18.13-2.08-.26-4.17-.26h-4.18c-2.08,0-2.08.28-4.17.28s-2.09-.9-4.18-.9-2.09.93-4.18.93-2.09-.46-4.18-.46-2.09-.58-4.18-.58"/><path class="cls-2" d="M517.19,1318.92c0,1.14,1.15,1.92,1.9,2.67a3.54,3.54,0,0,0,2.68,1.19,3.47,3.47,0,0,0,2.62-1.24c.75-.75,1.59-1.48,1.59-2.62a4.57,4.57,0,0,0-1.06-3.16c-.75-.75-2-.76-3.15-.76s-2.48-.07-3.24.68A5,5,0,0,0,517.19,1318.92Z"/><path class="cls-8" d="M517.19,1318.92c0,1.14,1.15,1.92,1.9,2.67a3.54,3.54,0,0,0,2.68,1.19,3.47,3.47,0,0,0,2.62-1.24c.75-.75,1.59-1.48,1.59-2.62a4.57,4.57,0,0,0-1.06-3.16c-.75-.75-2-.76-3.15-.76s-2.48-.07-3.24.68A5,5,0,0,0,517.19,1318.92Z"/><path class="cls-4" d="M485.91,1375.73a3.38,3.38,0,0,0,3.83,3.82,3.53,3.53,0,0,0,2.69-1.13c.75-.75,2-1.55,2-2.69a5,5,0,0,0-1.58-3.15c-.75-.75-2-.74-3.14-.74s-2.57-.18-3.32.57S485.91,1374.58,485.91,1375.73Z"/><path class="cls-2" d="M523.61,1391.54c1.15,0,2.55.06,3.3-.69a4.88,4.88,0,0,0,.92-3.3,4.15,4.15,0,0,0-4.22-4.27,4.46,4.46,0,0,0-3.07,1.2,4.24,4.24,0,0,0-.89,3.07,4.32,4.32,0,0,0,.84,3.12A4.38,4.38,0,0,0,523.61,1391.54Z"/><path class="cls-8" d="M523.61,1391.54c1.15,0,2.55.06,3.3-.69a4.88,4.88,0,0,0,.92-3.3,4.15,4.15,0,0,0-4.22-4.27,4.46,4.46,0,0,0-3.07,1.2,4.24,4.24,0,0,0-.89,3.07,4.32,4.32,0,0,0,.84,3.12A4.38,4.38,0,0,0,523.61,1391.54Z"/><path d="M503,1412.15a4.68,4.68,0,0,0,3.14-1.25c.75-.76.43-2,.43-3.15a3.15,3.15,0,0,0-3.57-3.6,3.2,3.2,0,0,0-2.58,1c-.75.75-1.78,1.43-1.78,2.57a3.83,3.83,0,0,0,4.36,4.4Z"/><path class="cls-4" d="M566,1423.15c1.15,0,2.24.17,3-.58a4.69,4.69,0,0,0,1.62-3,4.63,4.63,0,0,0-1.69-2.92c-.75-.75-1.77-.64-2.92-.64s-2.26-.2-3,.55a4.08,4.08,0,0,0-.85,3,3.36,3.36,0,0,0,1.33,2.53A3.13,3.13,0,0,0,566,1423.15Z"/><path class="cls-4" d="M706,1342.44c.81.81,2,.56,3,.56s2.15.18,3-.63a4.43,4.43,0,0,0,1.41-3c0-1.06-.95-1.81-1.75-2.62a3.06,3.06,0,0,0-5.28,0c-.81.81-2,1.59-2,2.66A4.9,4.9,0,0,0,706,1342.44Z"/><path class="cls-2" d="M709,1405.3c.81.81,2,.59,3.08.59a3.18,3.18,0,0,0,2.51-1.15c.81-.81,1.62-1.45,1.62-2.51a4,4,0,0,0-1.34-2.79c-.81-.81-1.73-1.74-2.79-1.74s-1.73,1.17-2.54,2a3.21,3.21,0,0,0-1.12,2.55C708.44,1403.29,708.21,1404.49,709,1405.3Z"/><path class="cls-8" d="M709,1405.3c.81.81,2,.59,3.08.59a3.18,3.18,0,0,0,2.51-1.15c.81-.81,1.62-1.45,1.62-2.51a4,4,0,0,0-1.34-2.79c-.81-.81-1.73-1.74-2.79-1.74s-1.73,1.17-2.54,2a3.21,3.21,0,0,0-1.12,2.55C708.44,1403.29,708.21,1404.49,709,1405.3Z"/><path class="cls-4" d="M747.09,1389.3c.81-.8,2-1.61,2-2.67a4.83,4.83,0,0,0-1.69-3c-.81-.81-1.9-.7-3-.7s-2.12-.08-2.93.73a4.52,4.52,0,0,0-1.53,2.93c0,1.06,1.07,1.78,1.87,2.59a3.6,3.6,0,0,0,2.59,1.38A3.72,3.72,0,0,0,747.09,1389.3Z"/><path d="M746.86,1418.28c.81-.81,1.9-1.7,1.9-2.76s-1-2.08-1.77-2.89a4.07,4.07,0,0,0-2.89-1.24,4.17,4.17,0,0,0-3,1.16,4.06,4.06,0,0,0-1,3,3.94,3.94,0,0,0,1.14,2.88,4.25,4.25,0,0,0,2.88,1.41A4.15,4.15,0,0,0,746.86,1418.28Z"/><path class="cls-2" d="M800.13,1382.44a4.68,4.68,0,0,0,1.33-3.11,4.8,4.8,0,0,0-1.26-3.19c-.81-.81-2.12-.66-3.18-.66s-2.38-.15-3.19.67-.38,2.12-.38,3.18-.42,2.36.39,3.17,2.11.64,3.18.64S799.32,1383.25,800.13,1382.44Z"/><path class="cls-8" d="M800.13,1382.44a4.68,4.68,0,0,0,1.33-3.11,4.8,4.8,0,0,0-1.26-3.19c-.81-.81-2.12-.66-3.18-.66s-2.38-.15-3.19.67-.38,2.12-.38,3.18-.42,2.36.39,3.17,2.11.64,3.18.64S799.32,1383.25,800.13,1382.44Z"/><path class="cls-2" d="M575.72,1475.81c-1.93-1.31-2-.22-4.33-.22s-2.33-.72-4.66-.72-2.33.72-4.66.72-2.33-.69-4.66-.69-2.32.5-4.65.5-2.33-.11-4.66-.11-2.32.62-4.65.62-2.33-.24-4.66-.24-2.33-.73-4.66-.73-2.33.36-4.65.36-2.33-.22-4.66-.22-2.33.41-4.66.41-2.33-.27-4.66-.27-2.33,0-4.66,0-2.34.28-4.67.28-3.13-2-4.78-.33-.36,2.44-.36,4.78.48,2.33.48,4.66.42,2.33.42,4.67-.22,2.33-.22,4.66-.43,2.33-.43,4.67-.24,2.33-.24,4.66-.08,2.33-.08,4.67.27,2.33.27,4.66-.26,2.34-.26,4.68-1.55,3.44.1,5.11,2.75-.08,5.06-.08,2.31-.28,4.62-.28h4.62c2.32,0,2.32,0,4.63,0s2.31-.54,4.62-.54,2.31.13,4.62.13,2.32-.34,4.63-.34,2.31.52,4.62.52,2.31.3,4.62.3,2.31-.47,4.62-.47,2.31.77,4.62.77,2.31-.62,4.63-.62,2.31.29,4.62.29,2.31-.23,4.63-.23,2.31-.09,4.62-.09,2.31.25,4.63.25,2.31-.23,4.62-.23,2.31-.16,4.63-.16,2.32,1,4.63,1,3.54,1.41,4.88-.48-.49-2.52-1.3-4.64-1.19-2-2-4.09-1-2-1.85-4.16-.44-2.26-1.25-4.39-1.28-1.94-2.09-4.06-.41-2.28-1.23-4.4-1.08-2-1.9-4.14-.59-2.21-1.4-4.33-.94-2.07-1.76-4.2a24.76,24.76,0,0,1-1.47-4.27C577.44,1477.36,577.6,1477.08,575.72,1475.81Z"/><path class="cls-1" d="M505.17,1470.45c0-2.09.39-2.09.39-4.17"/><path class="cls-1" d="M512.51,1470.45c0-1.69-1.31-1.69-1.31-3.38s1-1.68,1-3.37"/><path class="cls-1" d="M518.43,1470.45c0-1.55.21-1.55.21-3.1s-.34-1.56-.34-3.11-.42-1.56-.42-3.11"/></g></g></g></g></svg>