<svg xmlns="http://www.w3.org/2000/svg" viewBox="0 0 651.86 153.48"><defs><style>.cls-1{fill:#677d70;}.cls-2{font-size:37.54px;fill:#fff;font-family:PTSerif-Italic, PT Serif;font-style:italic;letter-spacing:0.04em;}</style></defs><g id="Layer_2" data-name="Layer 2"><g id="sect8"><g id="bubbles"><path class="cls-1" d="M619.32,134.43c-1.06-1.79,0-2.2,0-4.27s-.44-2.08-.44-4.15.7-2.08.7-4.15.4-2.08.4-4.15-.05-2.08-.05-4.15-1-2.08-1-4.15.45-2.08.45-4.16.9-2.07.9-4.15S619,99,619,97s0-2.07,0-4.15.51-2.08.51-4.15.71-2.08.71-4.15-.08-2.08-.08-4.16-.11-2.07-.11-4.15-.31-2.07-.31-4.15-.75-2.07-.75-4.15,1.16-2.07,1.16-4.15-.66-2.07-.66-4.15.14-2.08.14-4.15.23-2.08.23-4.16.14-2.08.14-4.15-.14-2.08-.14-4.16.41-2.07.41-4.15S619,36.74,619,34.67s.38-2.08.38-4.16-.4-2.08-.4-4.15.76-2.09.76-4.17-.76-2.08-.76-4.16c0-1.32.62-2.65.33-3.89s-1.28-2.28-1.84-3.44-.45-2.8-1.26-3.8-2.22-1.52-3.23-2.33a17.66,17.66,0,0,0-3.38-1.81A16.16,16.16,0,0,0,606,1.54c-1.24-.28-2.44-1.11-3.76-1.11-2.09,0-2.09.43-4.17.43s-2.09.54-4.17.54S591.78.09,589.69.09s-2.08.29-4.17.29-2.08.44-4.17.44-2.08-.45-4.17-.45-2.09.76-4.17.76-2.09.16-4.17.16S566.75.05,564.66.05s-2.08.47-4.17.47-2.08-.4-4.17-.4-2.08.25-4.16.25-2.09.54-4.17.54-2.09,0-4.17,0-2.08-.23-4.17-.23-2.08-.45-4.17-.45-2.08.18-4.16.18-2.09,0-4.17,0-2.08.2-4.17.2-2.08.1-4.17.1-2.08.18-4.17.18-2.08-.06-4.17-.06S508.39.24,506.3.24s-2.08.16-4.17.16-2.09.92-4.17.92-2.09-1-4.17-1-2.09.86-4.18.86S487.53.3,485.44.3s-2.08.84-4.17.84S479.19.93,477.1.93s-2.08.21-4.17.21-2.08.14-4.16.14S466.68.17,464.6.17s-2.09.55-4.17.55-2.09.61-4.17.61-2.09-.59-4.17-.59S450,.58,447.92.58s-2.09-.34-4.17-.34-2.09.86-4.18.86-2.08.33-4.17.33-2.09-.17-4.17-.17-2.09-.17-4.17-.17-2.09.28-4.17.28S420.8,1,418.71,1s-2.08-1-4.17-1-2.08,1.22-4.17,1.22-2.08.12-4.17.12S404.12.5,402,.5,400,.27,397.86.27,395.78,0,393.69,0s-2.08.6-4.17.6-2.09-.27-4.17-.27-2.09-.16-4.18-.16S379.09,1.38,377,1.38,374.91,0,372.83,0s-2.09,1.28-4.17,1.28-2.09-.22-4.17-.22S362.4,1,360.32,1s-2.09-.46-4.17-.46-2.09.63-4.18.63-2.08-1-4.17-1-2.09.33-4.17.33-2.09.26-4.18.26-2.08-.44-4.17-.44-2.08,0-4.17,0-2.09,1-4.17,1-2.09-.92-4.17-.92-2.09.11-4.18.11-2.08-.5-4.17-.5-2.09,1.24-4.17,1.24S308.16,1,306.07,1,304,.55,301.9.55s-2.09.11-4.17.11-2.09.4-4.17.4-2.09-.34-4.18-.34S287.3.46,285.21.46s-2.09.35-4.17.35-2.09,0-4.18,0-2.08-.19-4.17-.19S270.6.6,268.52.6s-2.09.25-4.17.25-2.09-.09-4.18-.09-2.08-.3-4.17-.3-2.09.8-4.18.8-2.08-.9-4.17-.9-2.09.06-4.17.06-2.09.44-4.17.44-2.09-.11-4.18-.11S233,1,231,1,228.87,1,226.78,1s-2.08.21-4.17.21-2.09-.34-4.17-.34-2.09.35-4.18.35S212.18.4,210.09.4s-2.09,0-4.17,0-2.09,1-4.17,1-2.08-.67-4.17-.67S195.5.28,193.41.28s-2.08,0-4.17,0-2.09,1-4.17,1-2.09-.7-4.18-.7-2.08.81-4.17.81S174.64.12,172.55.12s-2.09.09-4.17.09-2.09.59-4.17.59H160c-2.09,0-2.09.08-4.17.08s-2.09.32-4.17.32S149.6.32,147.51.32s-2.08.79-4.17.79S141.25,0,139.16,0s-2.08.22-4.17.22-2.09,1-4.17,1-2.09-.32-4.18-.32-2.09-.75-4.17-.75-2.09,1.21-4.18,1.21S116.2.18,114.12.18s-2.09.16-4.18.16-2.09.78-4.17.78S103.68,0,101.59,0,99.5.07,97.41.07s-2.09,1-4.17,1S91.15.8,89.06.8,87,.29,84.88.29s-2.09.4-4.17.4S78.62,0,76.53,0s-2.09,1.17-4.17,1.17S70.27.06,68.18.06H64c-2.09,0-2.09,1.35-4.18,1.35s-2.09-.5-4.18-.5S53.56.15,51.48.15,49.39,1.23,47.3,1.23,45.21.29,43.12.29,41,.16,38.94.16s-2.09,1.1-4.18,1.1-2.09,0-4.18,0S28.49.32,26.4.32s-2.09.14-4.19.14-2.09.87-4.18.87c-1.33,0-2.67-.72-3.91-.44S11.8,2.14,10.65,2.7A17.57,17.57,0,0,0,7.12,4.36c-1,.81-2.39,1.41-3.2,2.42A18.82,18.82,0,0,0,2.1,10.36c-.55,1.16-.09,2.67-.38,4S0,16.71,0,18c0,2.09,0,2.09,0,4.19s.39,2.1.39,4.19.64,2.1.64,4.19-1,2.1-1,4.19,1,2.1,1,4.2.27,2.09.27,4.19S.57,45.27.57,47.37.3,49.46.3,51.56s.26,2.1.26,4.19-.38,2.1-.38,4.19.5,2.1.5,4.19.39,2.1.39,4.2S.3,70.42.3,72.52s0,2.1,0,4.19.75,2.1.75,4.2.29,2.1.29,4.19S.2,87.2.2,89.29s0,2.1,0,4.2.81,2.09.81,4.19-.21,2.09-.21,4.19S1,104,1,106.07s.34,2.09.34,4.19-.59,2.1-.59,4.2.37,2.09.37,4.19-.68,2.1-.68,4.19.36,2.1.36,4.2.52,2.1.52,4.21-.1,2.09-.1,4.19a16.82,16.82,0,0,0,.24,3.78,16.15,16.15,0,0,0,1.56,3.44,17.27,17.27,0,0,0,1.68,3.39c.81,1,1.34,2.31,2.36,3.12s2.4,1,3.58,1.56A16.2,16.2,0,0,0,14.25,152c1.24.28,2.45,1.36,3.78,1.36,2.07,0,2.07-.65,4.14-.65h4.15c2.08,0,2.08.35,4.15.35s2.07-.65,4.15-.65,2.07.29,4.15.29,2.07-.51,4.15-.51,2.07,1,4.15,1,2.08-.93,4.15-.93,2.08.91,4.15.91,2.07-.52,4.15-.52,2.07.55,4.15.55,2.07-.87,4.15-.87,2.07.3,4.14.3,2.08.69,4.15.69,2.07-.53,4.15-.53,2.07-.64,4.14-.64,2.08,1.36,4.15,1.36,2.07-.48,4.15-.48h4.14c2.08,0,2.08.35,4.15.35s2.08-.44,4.15-.44,2.08-.6,4.15-.6,2.07,1,4.15,1,2.07-.21,4.15-.21,2.08-.31,4.15-.31,2.08-.51,4.15-.51,2.08,1,4.15,1,2.08-.09,4.15-.09,2.08-.59,4.15-.59,2.08-.16,4.15-.16,2.07-.1,4.15-.1,2.07,0,4.15,0,2.07,1,4.15,1,2.07-1.22,4.14-1.22,2.08,1,4.15,1,2.08-.85,4.15-.85,2.08.45,4.15.45,2.07,0,4.15,0,2.08-.14,4.15-.14,2.08-.1,4.15-.1,2.08.76,4.16.76,2.07-1.07,4.15-1.07,2.07,1.26,4.15,1.26,2.07-.25,4.15-.25,2.07.07,4.14.07,2.08-.13,4.15-.13,2.08-.29,4.15-.29,2.08-.12,4.15-.12,2.08,0,4.15,0,2.08-.63,4.15-.63,2.08.72,4.15.72,2.08.23,4.16.23,2.07-.54,4.15-.54,2.07.66,4.15.66,2.07-.59,4.15-.59,2.07-.48,4.15-.48,2.07-.1,4.15-.1,2.07,1,4.15,1,2.07-.63,4.15-.63,2.07.59,4.15.59,2.08-.26,4.15-.26,2.08-.22,4.16-.22,2.07.59,4.15.59,2.07-.54,4.15-.54,2.07.73,4.15.73,2.07-1,4.15-1,2.07.52,4.15.52,2.08.27,4.15.27,2.08.27,4.15.27,2.08.12,4.16.12,2.07-.72,4.15-.72,2.07-.18,4.15-.18,2.08-.47,4.15-.47,2.08,1,4.15,1,2.08-.42,4.15-.42,2.08-.15,4.16-.15,2.07.56,4.15.56,2.08-.47,4.15-.47,2.08-.42,4.15-.42S348,153,350,153s2.08-.65,4.16-.65,2.07.9,4.15.9,2.07-.43,4.15-.43,2.08.49,4.15.49,2.08,0,4.16,0,2.07-.15,4.15-.15,2.07-.86,4.15-.86,2.08.94,4.15.94,2.08-.65,4.16-.65,2.07.1,4.15.1,2.08-.18,4.15-.18,2.08-.17,4.15-.17,2.08-.06,4.16-.06,2.07.84,4.15.84,2.07-.07,4.15-.07,2.07-.64,4.15-.64,2.07-.08,4.14-.08,2.08.1,4.15.1,2.08-.17,4.15-.17,2.08.14,4.16.14,2.07.2,4.15.2,2.07.51,4.15.51,2.07-.5,4.15-.5,2.07-.27,4.15-.27,2.07-.07,4.15-.07,2.08.4,4.15.4,2.08-.31,4.16-.31,2.07-.19,4.15-.19,2.07-.08,4.15-.08,2.08.63,4.15.63,2.08.27,4.16.27,2.07-.61,4.15-.61,2.08.44,4.15.44,2.08,0,4.16,0,2.07-.51,4.15-.51,2.08.1,4.15.1h4.16c2.08,0,2.08-.18,4.15-.18s2.08.87,4.16.87,2.08-.76,4.15-.76,2.08.51,4.16.51,2.08-.31,4.15-.31,2.08-.24,4.16-.24,2.08,1,4.15,1,2.08-.7,4.16-.7,2.08.46,4.16.46,2.07-.38,4.15-.38,2.07,0,4.15,0,2.08-.55,4.16-.55,2.07.28,4.15.28,2.08,1,4.16,1,2.08-.72,4.15-.72,2.08.12,4.16.12,2.08.44,4.16.44,2.08-1.2,4.16-1.2,2.08.7,4.16.7,2.07-.2,4.15-.2,2.08.89,4.16.89,2.09-.58,4.17-.58,2.08.19,4.16.19c1.47,0,1.47.07,3,.07h4.18c2.09,0,2.09-.42,4.18-.42s2.09.43,4.18.43,2.1-.43,4.19-.43,2.09.14,4.18.14h4.19c2.1,0,2.1-.33,4.19-.33s2.09.44,4.18.44,2.1-.78,4.19-.78,2.09.43,4.19.43,2.09-.07,4.19-.07,3,2.07,3.5,0-.84-1.37-2.67-2.39-2.33-.13-4.16-1.16-1.62-1.39-3.45-2.41-2.07-.59-3.9-1.61-1.53-1.57-3.35-2.59-2.17-.42-4-1.45-1.58-1.47-3.4-2.49a14.7,14.7,0,0,0-3.77-1.7C620.91,136.08,620.39,136.23,619.32,134.43Z"/><text class="cls-2" transform="translate(107.94 89.58)">Let&apos;s still get married?</text></g></g></g></svg>