<svg xmlns="http://www.w3.org/2000/svg" viewBox="0 0 1267.78 721.57"><defs><style>.cls-1{font-size:51.97px;font-family:PTSerif-Bold, PT Serif;font-weight:700;letter-spacing:0.02em;}.cls-2{letter-spacing:-0.02em;}.cls-3{letter-spacing:0.02em;}.cls-4{fill:#e6b49d;}.cls-10,.cls-5,.cls-6,.cls-7,.cls-9{fill:none;}.cls-10,.cls-5{stroke:#8e9b91;}.cls-10,.cls-5,.cls-6,.cls-9{stroke-linecap:round;stroke-linejoin:round;}.cls-5,.cls-6,.cls-7,.cls-9{stroke-width:3.61px;}.cls-6,.cls-7{stroke:#000;}.cls-7{stroke-miterlimit:10;}.cls-8{fill:#8e9b91;}.cls-9{stroke:#1d1d1b;}.cls-10{stroke-width:4.66px;}.cls-11{fill:#fff;}</style></defs><g id="Layer_2" data-name="Layer 2"><g id="sect5"><g id="art"><text class="cls-1" transform="translate(39.03 100.55)">MA<tspan class="cls-2" x="88.3" y="0">R</tspan><tspan class="cls-3" x="123.54" y="0">CH 2020</tspan></text><path class="cls-4" d="M1262.79,196.83c-3,2.77-3.37-.25-7.44-.25s-4.06,1.58-8.12,1.58-4.07.4-8.13.4H1231c-4.07,0-4.07-1.82-8.13-1.82s-4.06-.11-8.12-.11-4.07.57-8.13.57-4.06,1-8.12,1-4.07-1.76-8.13-1.76-4.07,2.15-8.13,2.15-4.06.18-8.13.18-4.06,0-8.12,0-4.07-1.11-8.13-1.11-4.06.21-8.13.21-4.06.73-8.12.73-4.07-2.45-8.13-2.45-4.06.09-8.12.09-4.07,2.34-8.13,2.34-4.06-2-8.13-2-4.06.3-8.12.3-4.07.82-8.13.82-4.06.78-8.13.78-4.06,0-8.13,0-4.06.33-8.12.33-4.07-2-8.13-2-4.06-.39-8.12-.39-4.07.81-8.13.81-4.06.57-8.13.57-4.06-.91-8.12-.91-4.07.31-8.13.31-4.07-.78-8.13-.78-4.06,1.49-8.13,1.49-4.06-1.22-8.12-1.22-4.07,1.61-8.13,1.61-4.06.45-8.13.45-4.06-.27-8.12-.27-4.07-.68-8.13-.68-4.06-1.16-8.13-1.16-4.06-.16-8.12-.16-4.07,1-8.13,1-4.07,0-8.13,0-4.06-.37-8.13-.37-4.06.12-8.13.12-4.06,1.39-8.12,1.39-4.06-1.36-8.13-1.36-4.06,1.63-8.12,1.63-4.07-1.65-8.13-1.65H873.4c-4.07,0-4.07,1.07-8.13,1.07s-4.06,0-8.13,0-4.06.1-8.12.1-4.07-1.74-8.13-1.74-4.06,2.14-8.13,2.14-4.06-1.09-8.12-1.09-4.07-.22-8.13-.22-4.07-1-8.13-1-4.07,2.32-8.13,2.32-4.06-2.29-8.13-2.29-4.06,1.75-8.12,1.75-4.07.4-8.13.4-4.07-1.8-8.13-1.8-4.06.87-8.13.87-4.06,1.09-8.12,1.09-4.07-.33-8.13-.33-4.07-.85-8.13-.85-4.06-1-8.13-1-4.06,1.66-8.13,1.66-4.06-.16-8.12-.16-4.07.34-8.13.34-4.06.51-8.12.51-4.06-1.23-8.12-1.23-4.07-.08-8.13-.08-4.06.8-8.12.8-4.06-2.15-8.12-2.15S658,197.5,654,197.5s-4.06-1.18-8.13-1.18-4.06,0-8.12,0-4.07,0-8.13,0-4.06.61-8.13.61-4.06,1.68-8.12,1.68-4.06-.79-8.13-.79-4.06-1-8.12-1S593,198,589,198s-4.07-.21-8.13-.21-4.07,0-8.13,0-4.06-.75-8.13-.75-4.06-.63-8.13-.63-4.06.17-8.12.17-4.06,1.77-8.13,1.77-4.06-.25-8.12-.25-4.06-1-8.13-1-4.06-.22-8.13-.22-4.06,1-8.13,1-4.06-.68-8.12-.68-4.07,1.46-8.13,1.46-4.06.22-8.12.22-4.07-2.55-8.13-2.55-4.07,1.49-8.13,1.49-4.07-1.67-8.13-1.67-4.06.25-8.13.25-4.06,1.2-8.12,1.2-4.07-.44-8.13-.44-4.07.68-8.13.68-4.07-.13-8.13-.13-4.06.81-8.13.81-4.06.29-8.13.29-4.06-1.74-8.12-1.74-4.07,1.31-8.14,1.31-4.06-.26-8.12-.26-4.07-1.49-8.13-1.49-4.07,1.19-8.13,1.19-4.07,1-8.13,1-4.07-1.59-8.13-1.59-4.07,1.27-8.13,1.27-4.06-1.33-8.13-1.33-4.06.36-8.13.36-4.06-.82-8.13-.82-4.06,2-8.13,2-4.06-.27-8.13-.27S292.3,197,288.23,197s-4.06,1.21-8.13,1.21-4.07.54-8.13.54-4.06-1.14-8.13-1.14-4.07.48-8.13.48-4.07.59-8.13.59-4.07-1.5-8.13-1.5-4.07.22-8.13.22-4.07-.09-8.14-.09-4.06-.5-8.13-.5-4.06-.38-8.13-.38-4.06,0-8.12,0-4.07.49-8.13.49-4.06.11-8.13.11-4.06,1.64-8.13,1.64-4.06-1.39-8.13-1.39-4.06-.4-8.13-.4-4.06,1.17-8.13,1.17-4.06-1.27-8.13-1.27-4.06.84-8.13.84-4.06.57-8.13.57-4.07-1.65-8.13-1.65-4.07-.22-8.14-.22-4.06.45-8.13.45-4.07,1.59-8.13,1.59-4.07-2-8.14-2-4.06-.1-8.13-.1-4.07,0-8.13,0-4.07.79-8.14.79-4.06-.23-8.13-.23S48.37,198,44.3,198s-4.07.12-8.14.12-4.06,0-8.13,0-4.07-1.92-8.14-1.92-4.07.17-8.14.17S7.1,199.8,4.12,197c-2.77-2.56-.84-3.22-.84-7S1,185.27,3.8,182.7c3-2.76,3.87-.93,7.94-.93s4.06,1.77,8.12,1.77,4.07-.84,8.13-.84,4.06-.89,8.12-.89,4.07-.46,8.13-.46,4.06,2.49,8.12,2.49,4.07-2.61,8.13-2.61,4.06.85,8.13.85,4.06-.69,8.12-.69,4.07,2,8.13,2,4.06-.4,8.13-.4,4.06-1.26,8.12-1.26,4.07,1.22,8.13,1.22,4.06-.1,8.13-.1,4.06.77,8.12.77,4.07-.34,8.13-.34,4.06-.52,8.12-.52,4.07.14,8.13.14,4.06-1.13,8.13-1.13,4.06,1.76,8.12,1.76,4.07-1.8,8.13-1.8,4.06.61,8.13.61,4.06,1.34,8.13,1.34,4.06-.16,8.12-.16,4.07-2,8.13-2,4.06,2,8.13,2,4.06-1.12,8.12-1.12,4.06.61,8.13.61,4.06-1.22,8.12-1.22,4.07,1.77,8.13,1.77,4.06.2,8.13.2,4.06-1,8.13-1,4.06-.5,8.12-.5,4.07-.34,8.13-.34,4.06,1,8.13,1,4.06-1.1,8.12-1.1,4.07.57,8.13.57,4.06.37,8.13.37,4.06.2,8.12.2,4.07-1.46,8.13-1.46,4.07,1.17,8.13,1.17,4.06.38,8.13.38,4.06-.36,8.12-.36,4.07-1.54,8.13-1.54h8.13c4.06,0,4.06.54,8.12.54s4.07.4,8.13.4,4.07.06,8.13.06,4.07.07,8.13.07,4.06.93,8.13.93,4.06.26,8.12.26,4.07-.66,8.13-.66,4.06.57,8.13.57,4.06-.38,8.12-.38,4.07.27,8.13.27,4.07.21,8.13.21,4.07-.72,8.13-.72,4.06-.34,8.13-.34,4.06,1.4,8.12,1.4,4.07-1.85,8.13-1.85,4.06-.28,8.13-.28,4.06,1.09,8.13,1.09,4.06-.18,8.13-.18,4.06,1.2,8.12,1.2,4.06-1.65,8.13-1.65,4.06,1.74,8.12,1.74,4.07-1.55,8.13-1.55,4.07-.68,8.13-.68,4.06-.09,8.12-.09,4.07.71,8.13.71,4.06,1,8.12,1,4.06.06,8.12.06,4.07-.63,8.13-.63,4.06.25,8.12.25,4.06-.05,8.13-.05,4.06-.68,8.12-.68,4.07,1.22,8.13,1.22,4.07-.59,8.13-.59,4.06-.79,8.13-.79,4.06,1.93,8.12,1.93,4.06-2.49,8.12-2.49,4.07,1.17,8.13,1.17,4.06,0,8.12,0,4.07.78,8.13.78,4.06-1.8,8.13-1.8,4.06.68,8.13.68,4.06-.89,8.12-.89,4.07.85,8.13.85,4.06,1.13,8.12,1.13,4.07-1.12,8.13-1.12,4.06.15,8.13.15,4.06-.44,8.13-.44,4.06.79,8.12.79,4.07.94,8.13.94,4.06.25,8.13.25,4.06-1.29,8.12-1.29,4.07-.29,8.13-.29,4.06,1.1,8.13,1.1,4.06-.89,8.13-.89,4.06-1.23,8.13-1.23,4.06,0,8.12,0,4.07,1,8.13,1,4.07,1.56,8.13,1.56,4.06-2.68,8.13-2.68,4.06,1,8.13,1,4.06,1.49,8.13,1.49,4.06-2.52,8.12-2.52,4.07,1.56,8.13,1.56,4.07.35,8.13.35,4.07-.57,8.13-.57,4.07,1.27,8.13,1.27,4.07-2.38,8.13-2.38,4.07,1.82,8.13,1.82,4.07-.94,8.13-.94,4.06,1.4,8.13,1.4,4.07-.29,8.13-.29,4.06-.62,8.13-.62,4.06.83,8.13.83,4.06-1.54,8.13-1.54,4.06.21,8.13.21,4.06-.51,8.13-.51,4.06,1.86,8.13,1.86,4.07-.68,8.13-.68,4.07.32,8.13.32,4.07.45,8.13.45,4.07-1.92,8.13-1.92,4.07,1.51,8.13,1.51,4.07-1.12,8.14-1.12,4.06-.35,8.13-.35,4.06,1,8.13,1,4.06-.56,8.12-.56,4.07.27,8.13.27,4.07.89,8.13.89,4.06-2.13,8.13-2.13,4.06,1.34,8.13,1.34,4.06,1,8.13,1,4.06-.57,8.13-.57,4.06.11,8.13.11,4.06-2,8.13-2,4.07,1.57,8.13,1.57,4.07-1.16,8.13-1.16,4.07-.33,8.14-.33,4.06,2.52,8.13,2.52,4.07-1.8,8.13-1.8,4.07.73,8.14.73,4.06.22,8.13.22,4.07-.16,8.13-.16l8.14,0c4.06,0,4.06-1.4,8.13-1.4s4.07,1.65,8.13,1.65,4.07-.7,8.14-.7,4.07,1.33,8.13,1.33,4.07-.82,8.14-.82,4.07-1.61,8.14-1.61,5.53-2,8.52.79c2.76,2.56-1,4.23-.35,7.94S1265.55,194.27,1262.79,196.83Z"/><path class="cls-4" d="M476.76,326.6c-1.85-3.62-5-.38-9-.38s-4.07-.2-8.14-.2-4.07,2-8.14,2-4.07-1.91-8.14-1.91-4.07,1.95-8.14,1.95-4.07-1.65-8.14-1.65-4.07-.69-8.14-.69-4.07.2-8.14.2-4.07,2.46-8.14,2.46-4.07-2.5-8.14-2.5-4.07,1-8.14,1-4.07,1.52-8.14,1.52-4.07.07-8.14.07-4.07-2.56-8.14-2.56-4.07,1.22-8.14,1.22-4.07-.8-8.14-.8-4.07.2-8.14.2-4.07-.75-8.14-.75-4.07,2.58-8.15,2.58-4.07-2-8.14-2-4.07,2-8.14,2-4.07-.76-8.14-.76-4.07-.27-8.14-.27-4.07.39-8.14.39-4.07.85-8.14.85-4.07-2.68-8.14-2.68-4.08,1.57-8.15,1.57-4.07.5-8.14.5-4.07-.61-8.14-.61-4.07-1.24-8.14-1.24-4.08,2.27-8.15,2.27-4.07-.5-8.14-.5-4.07-.52-8.14-.52-4.07.86-8.14.86-4.07-1.84-8.14-1.84-4.07,1.33-8.14,1.33-4.07-.91-8.14-.91-4.07.78-8.14.78-4.07,1-8.14,1-4.07-1.27-8.14-1.27-4.07.85-8.14.85-4.08-1.28-8.15-1.28H125.8c-4.07,0-4.07.59-8.14.59s-4.08-.92-8.15-.92-4.07,1.8-8.14,1.8-4.07-.76-8.15-.76-4.07,1-8.14,1S81,326,76.93,326l-8.14,0c-4.07,0-4.07-.09-8.15-.09s-4.07.08-8.14.08l-8.14,0c-4.08,0-4.08,1.58-8.15,1.58s-4.07.4-8.15.4H19.91c-4.07,0-4.07-1.82-8.15-1.82S6,323.6,3,326.37c-2.77,2.56.26,4.47.26,8.24s-2,4.53.8,7.09c3,2.77,3.65,1.6,7.71,1.6s4.07-2.15,8.13-2.15S23.94,341,28,341s4.07,0,8.14,0,4.06,1.11,8.13,1.11,4.07-.21,8.13-.21,4.07-.73,8.14-.73,4.06,2.45,8.13,2.45,4.07-.09,8.13-.09,4.07-2.34,8.14-2.34,4.06,2,8.13,2,4.06-.29,8.13-.29,4.07-.82,8.14-.82,4.06-.78,8.13-.78,4.07,0,8.13,0,4.07-.33,8.14-.33,4.06,2,8.13,2,4.07.39,8.13.39,4.07-.81,8.14-.81,4.07-.57,8.13-.57,4.07.91,8.14.91,4.06-.31,8.13-.31,4.07.78,8.14.78,4.06-1.5,8.13-1.5,4.07,1.23,8.14,1.23,4.06-1.61,8.13-1.61,4.07-.45,8.14-.45,4.06.27,8.13.27,4.07.68,8.14.68,4.06,1.16,8.13,1.16,4.07.16,8.14.16,4.06-.95,8.13-.95,4.06,0,8.13,0,4.06.37,8.13.37,4.07-.12,8.13-.12,4.07-1.39,8.14-1.39,4.07,1.36,8.13,1.36,4.07-1.63,8.14-1.63,4.06,1.65,8.13,1.65H329c4.06,0,4.06-1.07,8.13-1.07s4.07,0,8.14,0,4.07-.1,8.14-.1,4.06,1.74,8.13,1.74,4.07-2.14,8.14-2.14,4.07,1.09,8.14,1.09,4.07.22,8.14.22,4.06,1,8.13,1,4.07-2.31,8.14-2.31,4.07,2.29,8.14,2.29,4.07-1.75,8.13-1.75,4.07-.4,8.14-.4,4.07,1.8,8.14,1.8,4.07-.87,8.14-.87S447,341,451,341s4,1.78,7.86.38c3.52-1.29,3.08-1.72,5.86-4.24a19.08,19.08,0,0,1,6-4.12C475,330.82,478.47,329.94,476.76,326.6Z"/><path class="cls-5" d="M42.8,123.1c4.08,0,4.08,1.85,8.16,1.85s4.08-1.49,8.16-1.49,4.08-.56,8.16-.56,4.08.71,8.16.71,4.08.73,8.16.73,4.08.79,8.16.79,4.08-.78,8.16-.78,4.08-.27,8.16-.27,4.08-1.25,8.16-1.25,4.08,1.59,8.16,1.59,4.09-1.54,8.17-1.54,4.08.74,8.16.74,4.08,0,8.16,0,4.08.41,8.16.41,4.08.69,8.16.69,4.08-.75,8.16-.75,4.08.26,8.16.26,4.08.74,8.16.74,4.08-.92,8.16-.92,4.08.87,8.16.87,4.08.28,8.17.28,4.08-1.41,8.16-1.41,4.08,1.68,8.16,1.68,4.08-1.83,8.16-1.83,4.08-.65,8.16-.65,4.08,1.3,8.16,1.3,4.08.24,8.16.24,4.08,1,8.16,1,4.08-1.11,8.16-1.11,4.08-.35,8.17-.35,4.08,1.5,8.16,1.5,4.08-2.78,8.16-2.78,4.08.68,8.16.68,4.08-.7,8.16-.7,4.08,2.77,8.16,2.77,4.08-1,8.16-1,4.08-.53,8.16-.53,4.09.47,8.17.47,4.08-.4,8.16-.4,4.08.13,8.16.13,4.08-1.26,8.16-1.26,4.08,1.09,8.16,1.09,4.08.57,8.16.57,4.08-.25,8.17-.25,4.08-.77,8.16-.77,4.08-.44,8.16-.44,4.08,1.54,8.16,1.54,4.08.43,8.16.43,4.08-.17,8.16-.17,4.08-.78,8.16-.78,4.09-1.34,8.17-1.34,4.08,2.32,8.16,2.32,4.08.3,8.16.3,4.08-1,8.16-1,4.08,1.13,8.16,1.13,4.08-2.08,8.16-2.08,4.08.12,8.16.12,4.08.55,8.16.55,4.08-1.25,8.16-1.25,4.08.37,8.16.37,4.07-.16,8.15-.16,4.08,2.28,8.16,2.28,4.08-2.34,8.16-2.34,4.08,2.42,8.16,2.42,4.08-.78,8.16-.78,4.08-.72,8.16-.72,4.08.34,8.16.34,4.08.68,8.16.68,4.08-1.37,8.16-1.37,4.08-.78,8.16-.78,4.08.66,8.16.66,4.08-.65,8.16-.65,4.08.86,8.16.86,4.08-.58,8.16-.58,4.08.41,8.16.41,4.08.78,8.16.78,4.08-.33,8.16-.33,4.08.54,8.16.54,4.08-.88,8.16-.88,4.08,1.58,8.16,1.58,4.08-1.91,8.17-1.91,4.08,1.92,8.16,1.92,4.08.22,8.16.22,4.08-1,8.16-1,4.08-.26,8.16-.26,4.08.26,8.16.26,4.08,0,8.16,0,4.09.85,8.17.85,4.08-.45,8.16-.45,4.08-1.06,8.16-1.06,4.08-.75,8.16-.75,4.08.6,8.16.6,4.09-.69,8.17-.69,4.08,1.68,8.16,1.68,4.08.66,8.16.66,4.08-.19,8.16-.19,4.09-2.38,8.17-2.38,4.08.49,8.16.49,4.08,2.07,8.17,2.07,4.08-.86,8.16-.86,4.08-.15,8.16-.15,4.08-.4,8.17-.4,4.08,1.49,8.16,1.49,4.08-2.64,8.16-2.64,4.09.34,8.17.34,4.08.47,8.16.47,4.08,1,8.16,1,4.09-.23,8.17-.23,4.08-.48,8.16-.48,4.08.74,8.17.74,4.08-1.81,8.16-1.81,4.08,1,8.17,1,4.08-.42,8.16-.42,4.08.47,8.17.47,4.08-.23,8.16-.23,4.08.85,8.17.85,4.08-1,8.16-1,4.08.17,8.17.17,4.08.49,8.16.49,4.08.75,8.16.75,4.08.13,8.16.13,4.08-1.6,8.17-1.6,4.08,2.11,8.16,2.11,4.08-.1,8.16-.1,4.08-.14,8.17-.14,4.08-1.06,8.16-1.06,4.08,1.35,8.16,1.35,4.09-1.56,8.17-1.56,4.08-.81,8.17-.81,4.08,1.07,8.16,1.07,4.09-1.48,8.17-1.48,4.08.83,8.17.83,4.08-.61,8.16-.61,4.09.35,8.17.35,4.08,1.46,8.17,1.46,4.08-1.26,8.17-1.26,4.08,1.31,8.16,1.31,4.09-1.43,8.17-1.43,4.08-.06,8.17-.06,4.08.09,8.17.09,4.08.09,8.17.09,4.08-.69,8.17-.69,4.08,1.11,8.17,1.11,4.09,1.57,8.18,1.57"/><path class="cls-6" d="M153.37,42.26c-4.15,0-4.15-.27-8.31-.27s-4.16,1.18-8.32,1.18-4.16.06-8.32.06-4.16-1.07-8.32-1.07-4.15,1.36-8.32,1.36-4.15-1.81-8.31-1.81-4.16,2.23-8.32,2.23S91,42.41,86.83,42.41s-4.16,2-8.32,2-4.16-2.53-8.32-2.53-4.16-.17-8.32-.17-4.16,2.05-8.32,2.05-4.16.3-8.32.3S41.07,44,36.91,44H28.59c-4.16,0-4.16-1.11-8.33-1.11s-4.16-.68-8.32-.68S7.77,44,3.61,44"/><path class="cls-6" d="M1264.07,42.75c-4,0-4-1-8.09-1s-4,1.43-8.1,1.43-4,1.11-8.09,1.11-4-.83-8.09-.83-4-.4-8.1-.4-4,.49-8.09.49-4,.49-8.09.49-4.05-1.33-8.1-1.33-4,1.63-8.09,1.63-4-.72-8.09-.72-4.05-1-8.1-1-4-.46-8.09-.46-4-.3-8.1-.3-4,1.87-8.09,1.87-4-.12-8.1-.12-4.05.49-8.1.49-4-.48-8.1-.48"/><path d="M37.06,24.15a8.2,8.2,0,0,1-2.75,5.77c-1.53,1.53-3.44,3.36-5.77,3.36a9.56,9.56,0,0,1-6.32-2.81c-1.53-1.53-1.93-4-1.93-6.32a8.13,8.13,0,0,1,2.36-5.89,8.27,8.27,0,0,1,5.89-2.54,8.08,8.08,0,0,1,5.73,2.7A8.17,8.17,0,0,1,37.06,24.15Z"/><path class="cls-6" d="M37.06,24.15a8.2,8.2,0,0,1-2.75,5.77c-1.53,1.53-3.44,3.36-5.77,3.36a9.56,9.56,0,0,1-6.32-2.81c-1.53-1.53-1.93-4-1.93-6.32a8.13,8.13,0,0,1,2.36-5.89,8.27,8.27,0,0,1,5.89-2.54,8.08,8.08,0,0,1,5.73,2.7A8.17,8.17,0,0,1,37.06,24.15Z"/><path class="cls-4" d="M56.73,32.25c-2.33,0-4.75-.29-6.28-1.82s-1.94-3.94-1.94-6.28,1.23-3.92,2.77-5.46,3.12-2.83,5.45-2.83,5.19,0,6.72,1.57,2.34,4.39,2.34,6.72-2,4-3.57,5.49A7.45,7.45,0,0,1,56.73,32.25Z"/><path class="cls-7" d="M56.73,32.25c-2.33,0-4.75-.29-6.28-1.82s-1.94-3.94-1.94-6.28,1.23-3.92,2.77-5.46,3.12-2.83,5.45-2.83,5.19,0,6.72,1.57,2.34,4.39,2.34,6.72-2,4-3.57,5.49A7.45,7.45,0,0,1,56.73,32.25Z"/><path class="cls-8" d="M85,32.38c-2.34,0-3.86-1.31-5.39-2.84a7.17,7.17,0,0,1-2.54-5.39c0-2.33.06-4.8,1.59-6.33A9.51,9.51,0,0,1,85,15.11c2.33,0,4.37,1.61,5.9,3.14s1.67,3.57,1.67,5.9.07,4.58-1.46,6.11A8.49,8.49,0,0,1,85,32.38Z"/><path class="cls-9" d="M85,32.38c-2.34,0-3.86-1.31-5.39-2.84a7.17,7.17,0,0,1-2.54-5.39c0-2.33.06-4.8,1.59-6.33A9.51,9.51,0,0,1,85,15.11c2.33,0,4.37,1.61,5.9,3.14s1.67,3.57,1.67,5.9.07,4.58-1.46,6.11A8.49,8.49,0,0,1,85,32.38Z"/><path class="cls-5" d="M675.35,265.84c4.07,0,4.07.89,8.14.89s4.07-2.13,8.14-2.13,4.07,1.34,8.13,1.34,4.07,1,8.14,1,4.07-.57,8.14-.57,4.07.1,8.14.1,4.07-2,8.14-2,4.07,1.57,8.13,1.57,4.07-1.15,8.14-1.15,4.07-.34,8.14-.34,4.07,2.52,8.14,2.52,4.07-1.79,8.14-1.79,4.07.72,8.14.72,4.07.23,8.14.23,4.07-.16,8.14-.16h8.14c4.07,0,4.07-1.4,8.13-1.4s4.07,1.65,8.14,1.65,4.07-.69,8.14-.69,4.07,1.33,8.14,1.33,4.08-.83,8.14-.83,4.07-1.6,8.14-1.6,4.07.63,8.14.63,4.07.53,8.14.53,4.07.37,8.14.37,4.07-.51,8.14-.51,4.07,1.11,8.14,1.11,4.07-.45,8.14-.45,4.07.21,8.14.21,4.07-1.8,8.15-1.8,4.07,2,8.14,2,4.07.08,8.14.08H944c4.07,0,4.07-2.12,8.14-2.12s4.07.06,8.14.06,4.07.75,8.14.75,4.07-.43,8.14-.43,4.07-.49,8.15-.49,4.07,2.06,8.14,2.06,4.07.3,8.14.3,4.07-1.43,8.14-1.43,4.07.91,8.14.91,4.07-.75,8.14-.75,4.07-.44,8.14-.44,4.07-.7,8.14-.7,4.07.75,8.14.75,4.07-.61,8.14-.61,4.07,1.68,8.14,1.68,4.07-.8,8.14-.8,4.07.87,8.14.87,4.07.16,8.14.16,4.07.52,8.14.52,4.08-.33,8.15-.33,4.07-.14,8.14-.14,4.07.54,8.14.54,4.08-.83,8.15-.83,4.07-.26,8.14-.26,4.08-.21,8.15-.21,4.07-.21,8.14-.21,4.07.3,8.15.3,4.07,1,8.14,1,4.07-.56,8.14-.56,4.08-1.75,8.15-1.75,4.07,1.9,8.15,1.9,4.07-1.93,8.14-1.93,4.08,1.13,8.16,1.13,4.07.63,8.15.63"/><path class="cls-5" d="M42.8,266.39c4.09,0,4.09.06,8.19.06s4.09-.62,8.18-.62,4.09.24,8.18.24,4.09-.05,8.19-.05,4.09-.68,8.18-.68,4.09,1.22,8.19,1.22S96,266,100.09,266s4.09-.79,8.18-.79,4.1,1.94,8.19,1.94,4.09-2.5,8.18-2.5,4.09,1.18,8.19,1.18,4.09,0,8.18,0,4.09.78,8.19.78,4.09-1.79,8.18-1.79,4.09.68,8.19.68,4.09-.9,8.18-.9,4.09.86,8.19.86,4.09,1.12,8.18,1.12,4.1-1.11,8.19-1.11,4.09.14,8.18.14,4.1-.43,8.19-.43,4.09.78,8.19.78,4.09.95,8.18.95,4.09.25,8.18.25,4.09-1.3,8.18-1.3,4.1-.28,8.19-.28,4.09,1.09,8.18,1.09,4.09-.89,8.19-.89,4.09-1.23,8.18-1.23,4.09,0,8.18,0,4.1,1.05,8.19,1.05,4.09,1.56,8.19,1.56,4.09-2.68,8.18-2.68,4.09,1,8.19,1,4.09,1.49,8.19,1.49,4.09-2.53,8.18-2.53,4.1,1.57,8.19,1.57,4.1.34,8.19.34,4.09-.57,8.19-.57,4.09,1.28,8.19,1.28,4.09-2.38,8.18-2.38,4.1,1.81,8.19,1.81,4.1-.94,8.19-.94,4.09,1.4,8.19,1.4,4.1-.28,8.19-.28,4.1-.62,8.19-.62,4.1.82,8.2.82,4.09-1.54,8.19-1.54"/><path class="cls-5" d="M48.27,407.73c4.08,0,4.08-1.08,8.15-1.08s4.07,0,8.14,0,4.07-.09,8.14-.09,4.07,1.74,8.14,1.74,4.07-2.14,8.14-2.14,4.07,1.09,8.14,1.09,4.07.22,8.14.22,4.07,1,8.14,1,4.07-2.31,8.14-2.31,4.07,2.28,8.14,2.28,4.07-1.75,8.14-1.75,4.07-.4,8.14-.4,4.07,1.81,8.15,1.81,4.07-.88,8.14-.88,4.07-1.09,8.14-1.09,4.07.33,8.14.33,4.07.85,8.14.85,4.07,1,8.14,1,4.07-1.65,8.14-1.65,4.07.15,8.14.15,4.07-.33,8.14-.33,4.07-.51,8.14-.51,4.08,1.23,8.15,1.23,4.07.08,8.14.08,4.07-.81,8.14-.81,4.07,2.15,8.14,2.15,4.07-1.28,8.14-1.28,4.07,1.18,8.14,1.18l8.14,0c4.07,0,4.07,0,8.14,0s4.08-.62,8.15-.62,4.07-1.67,8.14-1.67,4.07.78,8.14.78,4.07,1,8.14,1,4.07-1.09,8.14-1.09,4.07.21,8.14.21l8.14,0c4.08,0,4.08.75,8.15.75s4.07.63,8.14.63,4.07-.17,8.14-.17,4.07-1.77,8.14-1.77,4.07.25,8.14.25,4.07,1.05,8.14,1.05,4.08.21,8.15.21,4.07-1,8.14-1,4.07.69,8.14.69,4.07-1.47,8.14-1.47,4.07-.22,8.14-.22,4.07,2.55,8.15,2.55,4.07-1.49,8.14-1.49,4.07,1.67,8.14,1.67,4.07-.25,8.14-.25,4.07-1.2,8.14-1.2,4.07.44,8.14.44S492,407,496,407s4.08.13,8.15.13,4.07-.81,8.14-.81,4.07-.29,8.14-.29,4.07,1.75,8.14,1.75,4.06-1.32,8.13-1.32,4.07.27,8.14.27,4.07,1.48,8.14,1.48,4.06-1.19,8.13-1.19,4.07-1,8.14-1,4.07,1.59,8.14,1.59,4.08-1.27,8.15-1.27,4.07,1.33,8.14,1.33,4.07-.36,8.14-.36,4.07.82,8.14.82,4.07-2,8.14-2,4.06.26,8.13.26,4.07,1.41,8.14,1.41,4.07-1.21,8.14-1.21,4.08-.54,8.15-.54,4.07,1.15,8.14,1.15,4.07-.49,8.14-.49,4.07-.58,8.14-.58,4.07,1.49,8.14,1.49,4.07-.21,8.14-.21,4.07.08,8.14.08,4.07.51,8.15.51,4.07.37,8.14.37l8.14,0c4.07,0,4.07-.49,8.14-.49s4.07-.11,8.14-.11,4.07-1.64,8.14-1.64,4.07,1.4,8.14,1.4,4.08.4,8.15.4,4.07-1.18,8.14-1.18S776.89,408,781,408s4.07-.84,8.14-.84,4.07-.57,8.15-.57,4.07,1.65,8.14,1.65,4.07.23,8.14.23,4.07-.46,8.14-.46,4.07-1.58,8.15-1.58,4.07,2,8.14,2,4.07.11,8.15.11,4.07-.05,8.14-.05,4.07-.78,8.14-.78,4.07.22,8.15.22,4.07-1.18,8.14-1.18,4.07-.12,8.14-.12,4.07.05,8.15.05,4.07,1.91,8.14,1.91,4.07-.16,8.14-.16,4.08-.48,8.15-.48,4.07-1.08,8.14-1.08,4.08.62,8.15.62,4.07-1,8.14-1,4.07,1.77,8.15,1.77,4.07-.83,8.14-.83,4.07-.89,8.15-.89,4.07-.46,8.14-.46,4.07,2.48,8.15,2.48,4.07-2.61,8.14-2.61,4.07.85,8.15.85,4.07-.69,8.14-.69,4.07,2,8.15,2,4.07-.4,8.14-.4,4.07-1.26,8.14-1.26,4.07,1.23,8.14,1.23,4.07-.1,8.14-.1,4.08.77,8.15.77,4.07-.35,8.14-.35,4.08-.52,8.15-.52,4.07.15,8.14.15,4.08-1.13,8.15-1.13,4.07,1.76,8.14,1.76,4.08-1.81,8.15-1.81,4.07.61,8.15.61,4.07,1.34,8.15,1.34,4.07-.16,8.14-.16,4.08-2,8.15-2,4.07,2,8.15,2,4.07-1.13,8.15-1.13,4.07.62,8.14.62,4.08-1.22,8.15-1.22,4.07,1.77,8.15,1.77,4.07.19,8.15.19,4.07-1,8.15-1,4.07-.51,8.15-.51,4.07-.34,8.15-.34,4.08,1,8.16,1"/><path class="cls-5" d="M1218.19,548c-4.09,0-4.09.46-8.17.46s-4.08.76-8.16.76-4.08-1.11-8.16-1.11-4.08,1.55-8.16,1.55-4.08-.56-8.16-.56-4.08-1-8.16-1-4.08.94-8.16.94l-8.16,0c-4.08,0-4.08-.82-8.16-.82s-4.08,1-8.16,1-4.08-.36-8.16-.36-4.08,1.2-8.16,1.2-4.08-2.4-8.16-2.4-4.08.17-8.16.17-4.08,2.29-8.16,2.29-4.08.13-8.16.13-4.09-2.2-8.16-2.2-4.09,1.1-8.17,1.1-4.08-.19-8.16-.19-4.08.82-8.16.82-4.08.48-8.16.48-4.08-1.76-8.16-1.76-4.08-.48-8.16-.48-4.08.25-8.16.25-4.08-.44-8.16-.44-4.08.91-8.16.91-4.08,1.4-8.16,1.4-4.09-.85-8.17-.85S985.6,548,981.52,548s-4.08-.52-8.16-.52-4.08,1-8.16,1-4.08,0-8.16,0-4.08-.3-8.16-.3-4.08-.14-8.16-.14l-8.16,0c-4.09,0-4.09-.12-8.17-.12s-4.08,1.36-8.16,1.36-4.08-1.52-8.16-1.52-4.08.51-8.16.51-4.08,1.53-8.16,1.53-4.08-1-8.16-1-4.08-.57-8.17-.57-4.08.69-8.16.69-4.08,1-8.16,1-4.08-.3-8.16-.3-4.08-.35-8.16-.35-4.08-1.55-8.16-1.55-4.09,1.32-8.17,1.32-4.08-1-8.16-1-4.08,1.36-8.16,1.36-4.08-1-8.16-1-4.08-.27-8.16-.27-4.08-.53-8.16-.53-4.08.52-8.16.52-4.08,1.36-8.16,1.36-4.09-.32-8.17-.32-4.08-1.59-8.16-1.59-4.08,1.58-8.16,1.58-4.08-.58-8.15-.58-4.08,1.63-8.16,1.63-4.08-.75-8.16-.75-4.08-.82-8.16-.82-4.07.64-8.15.64-4.08.87-8.16.87-4.08,0-8.16,0-4.09-.32-8.17-.32-4.08-.74-8.16-.74-4.08.11-8.16.11-4.08-.81-8.16-.81-4.08.22-8.15.22-4.08.59-8.16.59-4.08.27-8.16.27-4.08-1.83-8.16-1.83-4.08,1.4-8.17,1.4-4.08-1.17-8.16-1.17-4.08,2.46-8.16,2.46-4.08-.2-8.16-.2-4.08-.57-8.16-.57-4.08-.23-8.16-.23-4.08-1.42-8.16-1.42-4.08.17-8.16.17-4.08-.21-8.16-.21-4.08,1.95-8.16,1.95-4.08-1.91-8.16-1.91-4.08,2-8.16,2-4.09-1.64-8.17-1.64-4.08-.7-8.16-.7-4.08.21-8.16.21S496,550,491.88,550s-4.08-2.5-8.16-2.5-4.09,1-8.17,1-4.08,1.51-8.16,1.51-4.08.07-8.16.07-4.08-2.55-8.17-2.55-4.08,1.21-8.16,1.21-4.08-.79-8.16-.79-4.08.2-8.16.2-4.09-.76-8.17-.76-4.08,2.59-8.16,2.59-4.08-2-8.16-2-4.08,2-8.17,2-4.08-.76-8.16-.76-4.08-.27-8.16-.27-4.09.39-8.17.39-4.08.84-8.16.84-4.08-2.68-8.16-2.68S349,549,344.94,549s-4.08.51-8.16.51-4.08-.61-8.17-.61-4.08-1.24-8.16-1.24-4.08,2.26-8.17,2.26-4.08-.49-8.16-.49-4.08-.53-8.17-.53-4.08.86-8.16.86-4.08-1.83-8.17-1.83-4.08,1.33-8.16,1.33-4.08-.91-8.17-.91-4.08.78-8.16.78-4.08,1-8.16,1-4.08-1.27-8.16-1.27-4.08.85-8.17.85-4.08-1.29-8.16-1.29h-8.16c-4.08,0-4.08.6-8.17.6s-4.08-.92-8.16-.92-4.08,1.8-8.16,1.8-4.09-.76-8.17-.76-4.08,1-8.16,1-4.09-2.35-8.17-2.35-4.08,0-8.17,0-4.08-.09-8.16-.09-4.09.08-8.17.08-4.08,0-8.17,0-4.08,1.58-8.16,1.58-4.09.39-8.17.39h-8.17c-4.08,0-4.08-1.83-8.17-1.83s-4.08-.11-8.16-.11-4.09.58-8.17.58-4.08,1-8.17,1-4.08-1.76-8.17-1.76-4.09,2.14-8.17,2.14S55.06,550,51,550s-4.09,0-8.18,0"/><path class="cls-5" d="M41.69,124.17c0,4.1,1.22,4.1,1.22,8.2s-1.39,4.1-1.39,8.2.71,4.1.71,8.2-.09,4.1-.09,8.2.42,4.1.42,8.21,1.63,4.1,1.63,8.2-.82,4.1-.82,8.2.83,4.1.83,8.21-1.51,4.1-1.51,8.2-.21,4.1-.21,8.2.54,4.1.54,8.2-1.44,4.1-1.44,8.2,2,4.11,2,8.21S42,234.9,42,239s.26,4.1.26,8.2-.23,4.1-.23,8.2.31,4.11.31,8.21.59,4.1.59,8.2.74,4.11.74,8.21-1.87,4.1-1.87,8.2,1.57,4.1,1.57,8.2S42,300.52,42,304.63s1.36,4.1,1.36,8.2.13,4.1.13,8.2S42,325.14,42,329.24s1.38,4.1,1.38,8.2.54,4.11.54,8.21-2.13,4.1-2.13,8.2,1.92,4.1,1.92,8.2.14,4.11.14,8.21-1.57,4.1-1.57,8.2.09,4.11.09,8.21.27,4.1.27,8.2.66,4.11.66,8.21-.32,4.1-.32,8.2.81,4.11.81,8.21-2.16,4.1-2.16,8.2,1.48,4.11,1.48,8.21-.94,4.1-.94,8.2-.17,4.11-.17,8.21.79,4.1.79,8.21,1.13,4.1,1.13,8.2-2.35,4.11-2.35,8.21-.15,4.1-.15,8.2,1.83,4.1,1.83,8.2S42,497.44,42,501.54s1.16,4.1,1.16,8.2.91,4.1.91,8.21-.11,4.1-.11,8.2-2.48,4.1-2.48,8.2,0,4.11,0,8.21,1.88,4.1,1.88,8.2.6,4.11.6,8.21-1.9,4.11-1.9,8.21,1.44,4.1,1.44,8.21-1.39,4.1-1.39,8.2.21,4.11.21,8.21-.33,4.11-.33,8.21.58,4.1.58,8.21-.37,4.1-.37,8.21.59,4.1.59,8.21-1.31,4.1-1.31,8.2,2.45,4.11,2.45,8.21-1.64,4.1-1.64,8.21,1.13,4.1,1.13,8.21.5,4.1.5,8.21-.7,4.1-.7,8.21-1.29,4.11-1.29,8.21,1.43,4.11,1.43,8.22"/><path class="cls-5" d="M213.06,124.17c0,4.11-1.65,4.11-1.65,8.21s1.47,4.1,1.47,8.21-1.07,4.1-1.07,8.21,1,4.1,1,8.2-1.17,4.11-1.17,8.21,1.3,4.1,1.3,8.21-1.67,4.1-1.67,8.21,2.09,4.1,2.09,8.2-1.74,4.11-1.74,8.21,1.41,4.11,1.41,8.21-1.05,4.11-1.05,8.21.93,4.1.93,8.21-.5,4.1-.5,8.21-.24,4.1-.24,8.21-.7,4.1-.7,8.2.88,4.11.88,8.21,0,4.11,0,8.21.63,4.11.63,8.21.92,4.11.92,8.21-1.48,4.1-1.48,8.21,1.31,4.1,1.31,8.21-.6,4.1-.6,8.21.43,4.1.43,8.21-1.86,4.1-1.86,8.21,1,4.1,1,8.21-.82,4.1-.82,8.21-.35,4.1-.35,8.21,2,4.1,2,8.21,0,4.1,0,8.2-.51,4.11-.51,8.21.86,4.1.86,8.21-1.14,4.1-1.14,8.21.06,4.1.06,8.2-1,4.11-1,8.21-.28,4.11-.28,8.21.6,4.11.6,8.21-.23,4.11-.23,8.21.85,4.11.85,8.21-.47,4.11-.47,8.21.41,4.11.41,8.21-1.27,4.11-1.27,8.21.05,4.11.05,8.21,2.41,4.11,2.41,8.22-1.79,4.1-1.79,8.21.2,4.11.2,8.21,1.19,4.11,1.19,8.22S212,505.9,212,510s.25,4.11.25,8.21,1.42,4.11,1.42,8.21-2.33,4.11-2.33,8.22,2.72,4.11,2.72,8.21-2,4.11-2,8.22,1.13,4.11,1.13,8.22.32,4.11.32,8.22"/><path class="cls-5" d="M381.43,129c0,4.06-.07,4.06-.07,8.12s2.06,4.06,2.06,8.12-2,4.06-2,8.13,1.68,4.06,1.68,8.12-.44,4.06-.44,8.12-.61,4.07-.61,8.13,0,4.06,0,8.12-.63,4.06-.63,8.12,2.17,4.06,2.17,8.12-2.24,4.06-2.24,8.13,1.26,4.06,1.26,8.12,1.34,4.06,1.34,8.12-1.66,4.06-1.66,8.12,1.2,4.07,1.2,8.13-1.29,4.06-1.29,8.12-.85,4.06-.85,8.13,1.58,4.06,1.58,8.12.38,4.06.38,8.12-1.34,4.06-1.34,8.13,1.88,4.06,1.88,8.12-1.35,4.07-1.35,8.13-.07,4.06-.07,8.12,1.22,4.06,1.22,8.13,0,4.06,0,8.12-2.27,4.06-2.27,8.13.16,4.06.16,8.12.12,4.06.12,8.12.27,4.07.27,8.13.05,4.06.05,8.12.72,4.07.72,8.13-.77,4.06-.77,8.12.81,4.07.81,8.13.83,4.06.83,8.13.27,4.06.27,8.12-1.17,4.06-1.17,8.13-.22,4.06-.22,8.12.62,4.07.62,8.13.45,4.06.45,8.13-2.24,4.06-2.24,8.12.18,4.07.18,8.13,0,4.06,0,8.12,2.34,4.07,2.34,8.13-1.47,4.06-1.47,8.12-.69,4.06-.69,8.12,1.28,4.07,1.28,8.13.8,4.06.8,8.12-.61,4.07-.61,8.13-.77,4.06-.77,8.12,1,4.07,1,8.13-1.05,4.06-1.05,8.12-.12,4.07-.12,8.13,1.13,4.06,1.13,8.13.3,4.06.3,8.12,0,4.07,0,8.13-1.63,4.07-1.63,8.13.14,4.06.14,8.13-.08,4.06-.08,8.13,1.53,4.06,1.53,8.13-.49,4.06-.49,8.12.23,4.07.23,8.13.5,4.07.5,8.13-2.52,4.06-2.52,8.13,1.63,4.06,1.63,8.13.44,4.07.44,8.13-1.51,4.07-1.51,8.13,1.78,4.07,1.78,8.14-1,4.07-1,8.13"/><path class="cls-5" d="M553.06,397.61c0,4.09-.5,4.09-.5,8.17s-.44,4.09-.44,8.18.45,4.09.45,8.18-.92,4.09-.92,8.18,1.32,4.09,1.32,8.18.35,4.08.35,8.17.3,4.09.3,8.18-1,4.09-1,8.18.84,4.09.84,8.18-.42,4.09-.42,8.18-.32,4.09-.32,8.18-1.72,4.1-1.72,8.19,1.32,4.09,1.32,8.18S551,508,551,512.12s.08,4.09.08,8.18,1.33,4.1,1.33,8.19.62,4.09.62,8.18-1.79,4.09-1.79,8.18.66,4.09.66,8.18,1.35,4.09,1.35,8.18.5,4.1.5,8.19-2.39,4.09-2.39,8.18,2,4.1,2,8.19-.61,4.1-.61,8.19"/><path class="cls-5" d="M552.47,294.33c0,3.84-1.06,3.84-1.06,7.67s2.23,3.84,2.23,7.67-1.21,3.84-1.21,7.68.57,3.83.57,7.67.3,3.84.3,7.67.29,3.84.29,7.68-1,3.84-1,7.68"/><path class="cls-10" d="M552.68,124.17c0,4-.88,4-.88,8s-.3,4-.3,8,.73,4,.73,8,.85,4,.85,8-1.18,4-1.18,8,.32,4,.32,8-.25,4-.25,8,1.38,4,1.38,8-.94,4-.94,8,.94,4,.94,8-.51,4-.51,8,.32,4,.32,8-.61,4-.61,8-1.42,4-1.42,8"/><path class="cls-5" d="M722.49,124.17c0,4-.14,4-.14,8.1s.43,4,.43,8.1-.78,4-.78,8.09-1,4-1,8.1-.25,4.05-.25,8.1,1.29,4.05,1.29,8.09.29,4.05.29,8.1-1.09,4.05-1.09,8.1.89,4.05.89,8.1,1.23,4,1.23,8.09,0,4.05,0,8.1-1,4-1,8.1-1.56,4-1.56,8.1,2.68,4.05,2.68,8.1-1,4.05-1,8.1-1.49,4.05-1.49,8.09,2.53,4,2.53,8.1-1.57,4.05-1.57,8.1-.34,4.05-.34,8.1.57,4.05.57,8.1-1.28,4.05-1.28,8.1,2.38,4,2.38,8.1-1.81,4.05-1.81,8.1.94,4.05.94,8.1-1.4,4.05-1.4,8.1.28,4.05.28,8.1.62,4,.62,8.1-.82,4-.82,8.09,1.54,4.05,1.54,8.11-.21,4.05-.21,8.09.5,4.06.5,8.11-1.86,4-1.86,8.09.69,4.05.69,8.1-.33,4.05-.33,8.1-.45,4.05-.45,8.1,1.92,4.05,1.92,8.1-1.51,4-1.51,8.09,1.12,4.05,1.12,8.1.36,4,.36,8.1-1,4.05-1,8.1.56,4.05.56,8.1-.26,4.05-.26,8.1-.89,4.05-.89,8.1,2.13,4,2.13,8.1-1.34,4.05-1.34,8.1-1,4.05-1,8.1.57,4.05.57,8.1-.1,4.06-.1,8.11,2,4.05,2,8.1-1.57,4.05-1.57,8.1,1.15,4,1.15,8.11.34,4,.34,8.1-2.53,4-2.53,8.1,1.8,4.05,1.8,8.1-.72,4.06-.72,8.11-.23,4.05-.23,8.1.16,4.06.16,8.11,0,4.06,0,8.11"/><path class="cls-5" d="M892.45,592.29c0-4.06-1.13-4.06-1.13-8.12s1.76-4.07,1.76-8.13-1.8-4.06-1.8-8.12.61-4.06.61-8.13,1.34-4.06,1.34-8.12-.16-4.07-.16-8.13-2-4.06-2-8.12,2-4.07,2-8.13-1.12-4.06-1.12-8.12.61-4.07.61-8.13-1.22-4.07-1.22-8.13,1.77-4.06,1.77-8.12.2-4.07.2-8.13-1-4.06-1-8.13-.5-4.06-.5-8.12-.34-4.07-.34-8.13,1-4.06,1-8.12-1.1-4.07-1.1-8.13.57-4.07.57-8.13.37-4.06.37-8.12.2-4.07.2-8.13-1.46-4.07-1.46-8.13,1.17-4.06,1.17-8.13.38-4.06.38-8.12-.36-4.07-.36-8.13-1.53-4.06-1.53-8.13v-8.12c0-4.07.54-4.07.54-8.13s.4-4.07.4-8.13.06-4.07.06-8.13.07-4.06.07-8.13.94-4.06.94-8.12.25-4.07.25-8.13-.66-4.06-.66-8.12.57-4.06.57-8.13-.38-4.06-.38-8.12.27-4.07.27-8.13.21-4.06.21-8.13-.72-4.06-.72-8.12-.34-4.07-.34-8.13,1.4-4.06,1.4-8.13-1.85-4.06-1.85-8.13-.28-4.06-.28-8.13,1.1-4.06,1.1-8.13-.19-4.06-.19-8.13,1.2-4.06,1.2-8.13-1.65-4.06-1.65-8.13,1.74-4.06,1.74-8.13-1.55-4.06-1.55-8.13-.68-4.06-.68-8.13-.09-4.06-.09-8.13.71-4.06.71-8.13,1-4.06,1-8.13.06-4.06.06-8.13-.63-4.07-.63-8.13.25-4.07.25-8.14,0-4.07,0-8.14"/><path class="cls-5" d="M1061.48,124.17c0,4,.68,4,.68,8.1s-.13,4-.13,8.1.81,4,.81,8.09.29,4,.29,8.1-1.75,4.05-1.75,8.1,1.31,4.05,1.31,8.09-.26,4.05-.26,8.1S1061,184.9,1061,189s1.19,4.05,1.19,8.1,1,4,1,8.09-1.59,4.05-1.59,8.1,1.27,4,1.27,8.1-1.33,4-1.33,8.1.37,4.05.37,8.1-.82,4.05-.82,8.1,2,4.05,2,8.09-.26,4-.26,8.1-1.41,4.05-1.41,8.1,1.21,4.05,1.21,8.1.53,4.05.53,8.1-1.14,4.05-1.14,8.1.48,4,.48,8.1.59,4.05.59,8.1-1.49,4.05-1.49,8.1.21,4.05.21,8.1-.08,4.05-.08,8.1-.51,4-.51,8.1-.38,4-.38,8.09,0,4.05,0,8.11.49,4.05.49,8.09.11,4.06.11,8.11,1.63,4,1.63,8.09-1.39,4.05-1.39,8.1-.4,4.05-.4,8.1,1.17,4.05,1.17,8.1-1.26,4.05-1.26,8.1.84,4,.84,8.09.56,4.05.56,8.1-1.64,4-1.64,8.1-.23,4.05-.23,8.1.46,4.05.46,8.1,1.58,4.05,1.58,8.1-2,4.05-2,8.1-.11,4-.11,8.1,0,4.05,0,8.1.78,4.05.78,8.1-.23,4.05-.23,8.1,1.19,4.06,1.19,8.11.11,4.05.11,8.1,0,4.05,0,8.1-1.91,4-1.91,8.11.16,4,.16,8.1.48,4,.48,8.1,1.08,4.05,1.08,8.1-.62,4.06-.62,8.11,1,4.05,1,8.1-1.76,4.06-1.76,8.11.83,4.06.83,8.11"/><path class="cls-5" d="M1002.2,97.43c3,2.76,4.4.89,8.51.89s4.1-1.49,8.2-1.49,4.11,1.22,8.22,1.22,4.1-1.61,8.2-1.61,4.11-.45,8.22-.45,4.1.27,8.21.27,4.1.68,8.21.68,4.1,1.16,8.21,1.16,4.1.17,8.21.17,4.11-1,8.21-1,4.11,0,8.22,0,4.1.37,8.21.37,4.11-.12,8.21-.12,4.11-1.39,8.22-1.39,4.11,1.36,8.21,1.36,4.11-1.63,8.22-1.63,4.11,1.65,8.21,1.65h8.22c4.1,0,4.1-1.07,8.21-1.07s4.11,0,8.21,0,4.11-.09,8.22-.09,4.11,1.74,8.22,1.74,4.11-2.15,8.21-2.15,4.12,1.09,8.23,1.09,5.29,2.94,8.34.18c2.76-2.51,1.06-3.86,1.06-7.59s-2.31-3.73-2.31-7.45,2.28-3.73,2.28-7.46,1.21-4.51-1.55-7c-3-2.76-3.71.56-7.81.56s-4.1-1.81-8.21-1.81-4.1.88-8.21.88-4.1,1.09-8.21,1.09-4.1-.34-8.21-.34-4.1-.84-8.21-.84-4.11-1-8.21-1-4.11,1.66-8.21,1.66-4.11-.15-8.21-.15-4.11.33-8.22.33-4.1.51-8.21.51-4.11-1.23-8.21-1.23-4.11-.08-8.22-.08-4.1.8-8.21.8-4.11-2.14-8.22-2.14-4.1,1.28-8.21,1.28-4.11-1.19-8.22-1.19-4.1,0-8.21,0-4.11,0-8.21,0-4.11.62-8.22.62-4.1,1.67-8.21,1.67-4.11-.79-8.22-.79-4.11-1-8.22-1-4.11,1.1-8.22,1.1-5-3-8.07-.27c-2.76,2.5.09,3.56.09,7.28s-.75,3.73-.75,7.46.27,3.56-.6,7.19C1000.42,93.45,999.44,94.92,1002.2,97.43Z"/><path class="cls-6" d="M404,715.1c-3.8,0-3.8-.31-7.6-.31s-3.8-1.28-7.6-1.28-3.8.72-7.61.72-3.8-.23-7.6-.23-3.8-.55-7.61-.55-3.8,1.45-7.6,1.45"/><path class="cls-6" d="M839.87,2.89c4.08,0,4.08.32,8.16.32s4.08,1.27,8.16,1.27,4.07-.72,8.15-.72,4.08.23,8.15.23,4.08.55,8.16.55,4.08-1.45,8.16-1.45,4.07-.87,8.15-.87,4.08.85,8.16.85,4.08-1,8.15-1,4.08.44,8.16.44,4.08.43,8.15.43,4.08-.26,8.16-.26,4.08,0,8.16,0,4.07.68,8.15.68,4.08.18,8.16.18,4.08-1.12,8.16-1.12,4.08.71,8.15.71,4.08,1.17,8.16,1.17,4.08-.46,8.16-.46,4.07-1.67,8.15-1.67,4.08,1.21,8.16,1.21,4.08.23,8.16.23,4.08.28,8.16.28,4.07-1.63,8.15-1.63,4.08,1.94,8.16,1.94,4.08.26,8.16.26S1056,4,1060.09,4s4.08-.7,8.16-.7,4.07.36,8.15.36,4.08-1.85,8.16-1.85,4.07,2,8.15,2,4.08-1.07,8.16-1.07S1105,4.42,1109,4.42s4.08-1.27,8.16-1.27,4.08-.95,8.16-.95,4.08-.11,8.16-.11,4.07.9,8.15.9,4.08.22,8.16.22,4.08,1.27,8.16,1.27,4.08-1.63,8.16-1.63,4.08-1,8.16-1,4.08.59,8.16.59,4.08,1.12,8.16,1.12,4.08.19,8.16.19,4.08.49,8.16.49,4.08-.56,8.16-.56,4.08.46,8.16.46,4.08-.56,8.16-.56,4.08,0,8.16,0,4.08-1.34,8.16-1.34,4.09,1.38,8.17,1.38,5.51-3.61,8.39-.72,1,4.31,1,8.4-2.25,4.08-2.25,8.17.71,4.09.71,8.17-1.06,4.09-1.06,8.17,1.42,4.09,1.42,8.18-1.49,4.08-1.49,8.17.17,4.09.17,8.17,1.91,4.09,1.91,8.18.43,4.09.43,8.18-2.39,4.09-2.39,8.18.86,4.08.86,8.17.61,4.09.61,8.18-.38,4.08-.38,8.17.48,4.09.48,8.17.05,4.09.05,8.18.72,4.09.72,8.17-2.09,4.09-2.09,8.18,1.39,4.09,1.39,8.18-.12,4.09-.12,8.18,1.13,4.08,1.13,8.17-.68,4.09-.68,8.18-.38,4.08-.38,8.17-.85,4.09-.85,8.18,1.77,4.09,1.77,8.18-1.69,4.09-1.69,8.18.27,4.09.27,8.17.59,4.09.59,8.18.81,4.09.81,8.17,0,4.09,0,8.18-.76,4.09-.76,8.18.76,4.09.76,8.18-2.25,4.09-2.25,8.18.57,4.08.57,8.17.18,4.09.18,8.18.26,4.09.26,8.18-.57,4.09-.57,8.18,1.37,4.09,1.37,8.18-1.93,4.08-1.93,8.17,1.51,4.09,1.51,8.18.16,4.09.16,8.18-.31,4.09-.31,8.18-.3,4.09-.3,8.18.75,4.09.75,8.18.71,4.09.71,8.18-1.3,4.09-1.3,8.18-1.34,4.09-1.34,8.17.73,4.09.73,8.19.79,4.09.79,8.18-1.61,4.09-1.61,8.18.74,4.09.74,8.18.08,4.09.08,8.18,1.37,4.09,1.37,8.18-.21,4.09-.21,8.18.29,4.09.29,8.18-.21,4.09-.21,8.18-.42,4.09-.42,8.18.62,4.09.62,8.18-2.2,4.09-2.2,8.18,2.53,4.09,2.53,8.18-1.55,4.09-1.55,8.18.64,4.09.64,8.18-1.12,4.09-1.12,8.18.21,4.09.21,8.18,0,4.09,0,8.17.68,4.1.68,8.18-.07,4.09-.07,8.18S1263,547,1263,551.11s1,4.09,1,8.18-.7,4.09-.7,8.18-.23,4.09-.23,8.18.17,4.09.17,8.18,0,4.09,0,8.18,2.14,4.1,2.14,8.19-2.64,4.09-2.64,8.18,2.07,4.09,2.07,8.18.6,4.09.6,8.19,0,4.09,0,8.18-2.26,4.09-2.26,8.18,1.09,4.1,1.09,8.19-.84,4.09-.84,8.18,1.28,4.09,1.28,8.18.43,4.09.43,8.18-1,4.1-1,8.19.08,4.09.08,8.18-1.37,4.1-1.37,8.19,1.14,4.1,1.14,8.19,3.87,6.12,1,9-4.91-2-9-2-4.08.4-8.15.4-4.08.61-8.15.61-4.08.34-8.16.34-4.08,1-8.16,1"/><path class="cls-6" d="M86.88,715.1c-4.17,0-4.17-.31-8.33-.31s-4.16-1.28-8.32-1.28-4.17.72-8.33.72-4.16-.23-8.32-.23-4.16-.55-8.32-.55-4.17,1.45-8.33,1.45-4.17.87-8.33.87-4.16-.85-8.33-.85-4.16,1-8.33,1-5.85,2.28-8.82-.64.22-4.59.22-8.67-.26-4.09-.26-8.18S3,694.35,3,690.26s.69-4.09.69-8.17.17-4.09.17-8.17-1.11-4.09-1.11-8.18.71-4.09.71-8.17,1.17-4.09,1.17-8.18-.46-4.09-.46-8.18S2.52,637.12,2.52,633s1.22-4.09,1.22-8.17.23-4.09.23-8.18.28-4.08.28-8.17-1.63-4.09-1.63-8.18,1.94-4.08,1.94-8.17.26-4.09.26-8.18-.43-4.09-.43-8.18-.71-4.09-.71-8.17.37-4.09.37-8.18-1.85-4.09-1.85-8.18,2-4.08,2-8.17S3.08,539,3.08,534.92s1.73-4.09,1.73-8.17-1.26-4.09-1.26-8.18-.95-4.09-.95-8.18-.11-4.09-.11-8.18.9-4.09.9-8.17.22-4.09.22-8.18,1.27-4.09,1.27-8.18-1.63-4.09-1.63-8.18-1-4.09-1-8.17.59-4.09.59-8.18S4,449.06,4,445s.18-4.08.18-8.17.5-4.09.5-8.18-.56-4.09-.56-8.18.46-4.09.46-8.18S4,408.17,4,404.09s.05-4.09.05-8.18-1.34-4.09-1.34-8.18,1.38-4.09,1.38-8.18-.81-4.09-.81-8.18-1-4.09-1-8.18S4.59,359.1,4.59,355s-.71-4.09-.71-8.18,1.06-4.09,1.06-8.18-1.43-4.09-1.43-8.18S5,326.38,5,322.29s-.17-4.09-.17-8.17S2.93,310,2.93,305.94s-.43-4.1-.43-8.19,2.39-4.08,2.39-8.17S4,285.49,4,281.4s-.61-4.1-.61-8.19.38-4.09.38-8.17-.48-4.1-.48-8.19-.06-4.09-.06-8.18-.71-4.09-.71-8.18,2.09-4.09,2.09-8.18-1.39-4.09-1.39-8.18.12-4.09.12-8.18-1.13-4.09-1.13-8.18.67-4.09.67-8.17.39-4.09.39-8.18.85-4.09.85-8.18-1.77-4.09-1.77-8.18,1.69-4.09,1.69-8.18-.27-4.09-.27-8.18-.59-4.09-.59-8.18-.81-4.09-.81-8.18,0-4.09,0-8.18.77-4.09.77-8.18-.76-4.09-.76-8.18,2.25-4.1,2.25-8.19-.57-4.09-.57-8.18-.18-4.09-.18-8.18-.26-4.09-.26-8.19.57-4.09.57-8.18S2.82,72.79,2.82,68.7s1.93-4.1,1.93-8.19-1.51-4.09-1.51-8.18-.16-4.09-.16-8.18.31-4.09.31-8.19.3-4.09.3-8.18-.75-4.1-.75-8.19-.71-4.09-.71-8.19S.66,6.06,3.55,3.15s4.14,1.32,8.22,1.32,4.08-.73,8.15-.73S24,3,28.08,3s4.08,1.61,8.16,1.61,4.08-.74,8.16-.74,4.08-.08,8.16-.08,4.08-1.37,8.15-1.37,4.08.21,8.16.21S73,2.29,77,2.29s4.08.21,8.16.21,4.08.42,8.16.42,4.08-.62,8.16-.62,4.08,2.2,8.16,2.2S113.75,2,117.83,2s4.08,1.55,8.16,1.55,4.08-.64,8.16-.64S138.24,4,142.32,4s4.08-.21,8.17-.21"/><path class="cls-5" d="M1221.15,124.17c0,4-.88,4-.88,8.09s-.3,4-.3,8.09.73,4,.73,8.08.85,4,.85,8.08-1.18,4-1.18,8.09.32,4,.32,8.08-.25,4-.25,8.09,1.38,4,1.38,8.09-.94,4-.94,8.08.94,4.05.94,8.09-.51,4-.51,8.08.32,4,.32,8.09-.61,4-.61,8.09-1.41,4-1.41,8.08.42,4,.42,8.09.64,4,.64,8.09,1.34,4,1.34,8.08-1.07,4.05-1.07,8.09-1.06,4-1.06,8.09,2.23,4,2.23,8.09-1.21,4-1.21,8.08.57,4,.57,8.09.3,4.05.3,8.09.3,4,.3,8.09-1,4-1,8.08-1.15,4.05-1.15,8.09,1.57,4.05,1.57,8.09-.5,4.05-.5,8.09-.44,4-.44,8.09.45,4,.45,8.08-.92,4.05-.92,8.09,1.32,4.05,1.32,8.09.35,4.05.35,8.09.3,4,.3,8.09-1,4-1,8.09.84,4,.84,8.09-.42,4-.42,8.09-.32,4-.32,8.09-1.72,4-1.72,8.09,1.32,4,1.32,8.09-1.38,4-1.38,8.09.08,4,.08,8.08,1.33,4.05,1.33,8.1.62,4,.62,8.08-1.78,4.05-1.78,8.09.65,4.05.65,8.09,1.35,4,1.35,8.09.5,4,.5,8.08-2.39,4-2.39,8.09,2,4,2,8.09-.6,4.05-.6,8.09-1.75,4.05-1.75,8.09,1.1,4,1.1,8.09-1.19,4-1.19,8.09,1.08,4.05,1.08,8.09.57,4,.57,8.09-1.43,4-1.43,8.1.1,4,.1,8.09-.06,4-.06,8.09,2.06,4,2.06,8.09-2,4-2,8.1,1.68,4,1.68,8.09-.45,4-.45,8.09-.6,4-.6,8.09,0,4,0,8.09-.63,4.05-.63,8.1,2.17,4,2.17,8.09-2.24,4-2.24,8.1,1.26,4,1.26,8.1,1.35,4.05,1.35,8.1"/><path class="cls-6" d="M628.13,234.71a16.58,16.58,0,0,0-1.93-.49,14.92,14.92,0,0,0-2-.26,11.63,11.63,0,0,0-2-.11,6.82,6.82,0,0,0-1.88.57,4.59,4.59,0,0,0-1.65,1,2.53,2.53,0,0,0-.86,1.68c0,.61-.26,1.22-.29,1.84s.09,1.24,0,1.85-.27,1.22-.31,1.84-.08,1.23-.12,1.84.11,1.25.1,1.86a2.13,2.13,0,0,0,1.09,1.7,5.54,5.54,0,0,0,1.86,1.08c.25.06.94.11,1.88.29.54.1,1.2.06,1.89.19s1.22.16,1.87.28,1.17.53,1.8.65,1.3,0,1.92.1,1.24.31,1.85.42,1.23.46,1.82.57,1.34.11,1.89.21c.86.16,1.48.44,1.82.51a3.63,3.63,0,0,0,1.65-.1,1.64,1.64,0,0,0,1.1-1.1,4.24,4.24,0,0,0,.44-1.57c0-.5,0-1.2.11-2,.05-.63.12-1.31.18-2s-.14-1.38-.1-2,.36-1.41.37-2a10.71,10.71,0,0,0-.27-2.29c-.15-.91-.47-1.38-1.38-1.54"/><path class="cls-6" d="M632.58,246.22c0-4.12.88-4.12.91-8.23"/><path class="cls-6" d="M655.45,266.54a31.22,31.22,0,0,0-3.51-3.68,22.66,22.66,0,0,0-3.81-3.34,16.09,16.09,0,0,0-4.68-2.09,14,14,0,0,0-5.1.15,16.89,16.89,0,0,0-4.78,1.57,24.46,24.46,0,0,0-4.46,2.44c-2.32,1.8-5.22,1.58-3.42,3.38s2.23,1.11,4.67,2,2.43.93,4.87,1.84,2.53.66,5,1.57l4.87,1.82"/><path class="cls-6" d="M610.49,256.35a31.47,31.47,0,0,0,1.19,5.3,22.5,22.5,0,0,0,2.85,4.6,21,21,0,0,0,3.72,3.87,25.51,25.51,0,0,0,4.45,3,34.44,34.44,0,0,0,4.84,2.54c1.67.56,3.2,1.46,4.78,1.82a42.26,42.26,0,0,0,5.06.87,34.36,34.36,0,0,0,5.12-.17c1.77-.08,3.33-1,4.9-1.35a23,23,0,0,0,4.67-1.64c1.59-.73,3.47-.85,4.76-1.87a31.75,31.75,0,0,0,6.3-8.07c.64-1.55.15-3.44.39-5.13s1.21-3.32,1.05-5a23.66,23.66,0,0,0-1-5c-.19-2-1.28-3.78-1.39-5.62-.13-2,.2-3.95.08-5.77-.14-2,0-4-.22-5.77a31.09,31.09,0,0,0-1-5.73c-.65-1.88-2.13-3.28-3.37-4.74"/><path class="cls-6" d="M642.23,205.1c-1.24,2-1.45,1.88-2.68,3.9s-.67,2.51-2.37,4.15c-1.85.18-3.7.53-5.38.85a42,42,0,0,0-5.14,1.28,33.11,33.11,0,0,0-5,1.79,25,25,0,0,0-4.62,2.75,21.16,21.16,0,0,0-3.67,4,21.89,21.89,0,0,0-2.34,4.84,25.89,25.89,0,0,0-.92,5.25,32.92,32.92,0,0,0-.33,5.27"/><path class="cls-6" d="M652.19,218.32c3.19-2.67,2.88-3,6.06-5.71"/><path class="cls-6" d="M658,223.49c4.09-2.1,4.06-2.15,8.16-4.26"/><path class="cls-6" d="M610.39,270.67c-1.17-1.8-1.08-1.25-3-3.12a36,36,0,0,0-3.38-2.62,33.33,33.33,0,0,0-3.59-2.26,30.23,30.23,0,0,0-3.7-2.15,34.69,34.69,0,0,0-4-1.44,39.7,39.7,0,0,0-4.23-.7,41.13,41.13,0,0,0-4.26-.26c-1.38-.05-2.82-.64-4.31-.55s-2.82.3-4.29.53-2.79.49-4.24.84"/><path class="cls-6" d="M571.24,259.24c-.26-2.6-.11-4-.48-5.28a19.91,19.91,0,0,0-2.21-4.85,13.81,13.81,0,0,0-3.7-3.81,9.52,9.52,0,0,0-4.83-1.85,13.5,13.5,0,0,0-5.26.25,24.18,24.18,0,0,0-4.72,2.4,11.63,11.63,0,0,0-3.87,3.06,13.68,13.68,0,0,0-2.11,4.52,16.05,16.05,0,0,0-.34,4.95,12.77,12.77,0,0,0,1.1,4.77,15,15,0,0,0,2.46,4.4,16.67,16.67,0,0,0,4.06,3.06,11,11,0,0,0,4.81,1.3,13.51,13.51,0,0,0,4.9-.87,18.69,18.69,0,0,0,4.44-2.27,19.5,19.5,0,0,0,3.59-3.45"/><path class="cls-6" d="M587.35,272.38a13.06,13.06,0,0,0-3,3.86c-.88,1.87-.43,3.26,2.31,2.12a27.57,27.57,0,0,0,4.1-2.64c1.21-.83,2.4-1.65,3.5-2.53s2.25-1.92,3.25-2.84c1.19-1.07,2.19-2.14,3.07-3,1.85-1.87,2.89-3,2.89-3"/><path class="cls-6" d="M569,265.92a16,16,0,0,1,4.14.56c1.2.24,2.8-.18,4.3.3a41.28,41.28,0,0,1,3.8,2,29.48,29.48,0,0,1,3.59,2.21,25.8,25.8,0,0,1,3.62,2.21,24.67,24.67,0,0,1,3.12,2.95,23.89,23.89,0,0,1,2.13,3.72,25.4,25.4,0,0,1,1.37,4c.51,2.05.78,2,1.24,4.05s.12,2.14.58,4.2.42,2.07.88,4.14.83,2,1.29,4,.56,2,1,4.11l.92,4.13c.46,2.06-.07,2.18.39,4.25"/><path class="cls-6" d="M667.76,279.7c2.38-.82,2.08-.74,5-.52a16.94,16.94,0,0,1,4.86,1.34,20.82,20.82,0,0,1,7.08,5.2,14.63,14.63,0,0,1,3.57,6.7,14.06,14.06,0,0,1,1.2,3.58"/><path class="cls-6" d="M689.55,295.8a14.29,14.29,0,0,1,3.51-1.86,34,34,0,0,1,3.86-.88,12.94,12.94,0,0,1,3.84-.69,9.05,9.05,0,0,1,3.81,1,8.93,8.93,0,0,1,2.72,2.78,14.71,14.71,0,0,1,2.15,3.27,31.44,31.44,0,0,1,1,3.89,12,12,0,0,1,.43,3.95,10.93,10.93,0,0,1-.88,3.92,17.07,17.07,0,0,1-2.25,3.35,15.41,15.41,0,0,1-3.19,2.38,11.24,11.24,0,0,1-3.47,1.71,15.44,15.44,0,0,1-3.94.63,10.41,10.41,0,0,1-3.92-.59,10,10,0,0,1-3.34-2.14,15.61,15.61,0,0,1-2.62-3,20.68,20.68,0,0,1-1.66-3.63,17.63,17.63,0,0,1-1.13-3.84"/><path class="cls-6" d="M662.35,273.94c1.83-.44,2-.11,3.76.17,1.29.21,2.53.63,2.68,2.12a6.85,6.85,0,0,1-.87,3.67c-.65,1.35-1.47,2.5-2,3.65-.68,1.38-1.06,2.74-1.62,3.86-.72,1.47-1.47,2.64-2,3.67-1.26,2.51-.85,1.9-1.81,3.75"/><path class="cls-6" d="M682.88,299.67c-1.59-1.34-.94-1.2-3.44-2.26a31.25,31.25,0,0,0-3.93-1.33c-1.2-.32-2.55-.65-4-.9-1.26-.22-2.66-.09-4.15-.22-1.29-.11-2.65-.28-4.13-.31-1.3,0-2.68,0-4.13.09s-2.68.24-4.13.37"/><path class="cls-6" d="M601.58,322.28c2.1-.35,1.55-.44,4.15-.92,1.2-.22,2.79.4,4.36.1,1.29-.25,2.69-.6,4.17-.9l4.17-.87c1.36-.29,2.56-1.51,4-1.83s2.9-.05,4.29-.38,2.84-.41,4.2-.76,2.65-1.23,4-1.61,2.64-1.05,3.89-1.35c1.42-.34,2.82-.37,4.07-.59a40.68,40.68,0,0,1,4.1-.22,34.06,34.06,0,0,1,4.1-.45,13.55,13.55,0,0,1,3.94,1.2,7.59,7.59,0,0,1,3.29,2.23"/><path class="cls-6" d="M659.11,315.7c-.49-2.24-.09-2.33-.59-4.57s-.47-2.25-1-4.49-.86-2.16-1.36-4.41-.5-2.24-1-4.48.18-2.39-.32-4.64-.54-2.23-1-4.48.24-2.69-1.08-4.58-1.81.86-4.34,1.78a35.78,35.78,0,0,1-4.25,1.24,31.6,31.6,0,0,1-4.35.86,29.51,29.51,0,0,1-4.44-.23,26.11,26.11,0,0,1-4.41-.46,25.48,25.48,0,0,1-4.32-1.22,27.22,27.22,0,0,1-4-2.08,32.71,32.71,0,0,1-3.33-3,35.23,35.23,0,0,1-3.07-3.22"/><path class="cls-6" d="M606.05,329.67c.54,2.05.55,2.05,1.09,4.1s.32,2.11.86,4.16.48,2.06,1,4.11.67,2,1.2,4.07.49,2.06,1,4.11.72,2,1.26,4.06-.16,2.38,1,4.17c1.26,2,.47-1.88,1.48-4.52a42.25,42.25,0,0,1,2.17-4.13,35.73,35.73,0,0,1,2.42-4c.88-1.22,1.48-2.77,2.61-3.91a25.69,25.69,0,0,1,3.85-2.72,6.72,6.72,0,0,1,4-1.48,4.25,4.25,0,0,1,3.63,2.09,12.06,12.06,0,0,1,1.09,4.22,21.55,21.55,0,0,1,.26,4.33,27.11,27.11,0,0,1-.26,4.37,27.27,27.27,0,0,1-1.74,4c-.54,1.37-.67,3-1.46,4.16"/><path class="cls-6" d="M617.1,363.62c.39,1.33,1.18,2.59,1.73,4s.72,2.78,1.35,4.13,1.61,2.37,2.3,3.69.83,2.78,1.55,4.08,2,2.13,2.75,3.41.94,2.76,1.7,4a16.57,16.57,0,0,0,2.74,2.95,9.73,9.73,0,0,0,3.06,2.6,7.55,7.55,0,0,0,4,0,33.9,33.9,0,0,0,3.89-.84,29.21,29.21,0,0,0,4-1.38,40,40,0,0,0,3.92-1.72c1.2-.69,2.27-1.71,3.44-2.54a38.68,38.68,0,0,0,3.36-2.61,35.12,35.12,0,0,0,2.88-3.12,23.86,23.86,0,0,0,2.29-3.53c.78-1.26,1.82-2.3,2.22-3.6a10.79,10.79,0,0,0,.06-4.2,9.51,9.51,0,0,0-1-4,13.88,13.88,0,0,0-2.71-3.18c-1.2-1.13-2.06-2.46-3.24-3a9.5,9.5,0,0,0-4.39-.58,11.12,11.12,0,0,0-4.33.83,18.32,18.32,0,0,0-3.81,2.3c-1.12.91-1.72,2.44-2.7,3.52s-1.92,2.24-2.76,3.37c-.94,1.28-1.9,2.43-2.58,3.52-1.37,2.21-.92,2-1.88,3.92"/><path class="cls-6" d="M634.76,375.51c-.5-2.19-.33-2.23-.83-4.42s-1.1-2-1.6-4.23.1-2.32-.4-4.51-1-2.08-1.46-4.27-.83-2.11-1.33-4.3-.25-2.24-.75-4.43-.43-2.2-.94-4.39,0-2.31-.45-4.49-1-2.08-1.49-4.27-.15-2.27-.65-4.46-.82-2.12-1.33-4.31"/><path class="cls-6" d="M665,363.29c-2.35-.2-1.85-.05-4.64.49a21.31,21.31,0,0,0-4.63,1c-1.34.54-2.5,1.71-3.92,2.64-1.23.79-2.8,1.33-4,2.49a28.35,28.35,0,0,0-3.15,3.54c-.91,1.2-1.68,2.46-2.47,3.61s-1.78,2.45-2.5,3.59c-.88,1.38-1.43,2.78-2.06,3.86-1.37,2.34-.86,2-1.84,3.94"/><path class="cls-6" d="M659.33,315.89c1.91,1.2,1.62.52,3.89,2.3,1,.78,2.46,1.42,3.76,2.56,1,.91,2.26,1.85,3.44,3,1,1,1.66,2.49,2.76,3.65s1.91,2.24,2.94,3.43a22.07,22.07,0,0,1,2.84,3.63,40.61,40.61,0,0,1,2.18,4.09c.58,1.42,0,3.26.48,4.71s1,2.94,1.36,4.35c.42,1.64.78,3.13,1.06,4.44a36,36,0,0,0,1.48,5c-2,.35-2.17-.39-4.22,0s-2.11,0-4.15.35-2.49-.27-3.87,1.28.41,1.89.37,3.89-1.23,2-.43,3.88,1.43-.1,4-.22a35.72,35.72,0,0,1,4.35-.51c1.37.07,2.78.75,4.28,1a32.85,32.85,0,0,1,4.19,1c1.57.49,3.18.77,4.23,1.7a10.65,10.65,0,0,1,2.79,3.76,12.22,12.22,0,0,1,.81,4.63c0,1.5-1.18,2.87-1.79,4.24a9.85,9.85,0,0,1-2.48,3.59,9,9,0,0,1-3.88,2c-1.33.33-2.84,1.18-4.49.93-1.4-.21-2.69-.7-3.92-1-1.41-.29-2.75-.51-3.94-.85-1.41-.4-2.79-.59-3.92-1-1.46-.55-2.16-2.28-3.15-2.77a17.9,17.9,0,0,0-3.9-1.48"/><path class="cls-6" d="M670,374.8c2.67,1.38,2.14.85,5.51,2.21,1.62.66,3.24,2.06,5.34,2.74,1.81.59,3.89.51,5.92,1a57.31,57.31,0,0,0,5.78,1.4,39.67,39.67,0,0,0,5.92.57"/><path class="cls-6" d="M662.14,363.23c.23-3,.89-2.41.54-5.94-.17-1.71-1.47-3.54-2-5.66a38.87,38.87,0,0,0-2-5.46,32.2,32.2,0,0,0-2.8-5c-1-1.62-1.54-3.55-2.95-5s-3.12-2.09-4.82-3.25a27.14,27.14,0,0,0-4.88-3.06,33.68,33.68,0,0,0-5.46-2.07"/><path class="cls-6" d="M645,215.66c1.59-2.29,1.2-2.57,2.79-4.86s2.73-1.51,4.32-3.8"/><path class="cls-6" d="M609.94,238.93a5.29,5.29,0,0,0-2.87-3.41c-1-.63-2.57-.09-4.24.1-1.14.13-2.77-.43-4.25.4-1.18.65-1.67,2.18-2.49,3.15a11.55,11.55,0,0,0-2.12,3.18,10.82,10.82,0,0,0-.84,7.7,12.7,12.7,0,0,0,1.23,3.84c.69,1.09,2.37,1.31,3.46,2.06s1.78,2.27,3.14,2.54c1.91.39,3.58-.18,4.81-.3,3.17-.3,2.29-.27,3.69-2.17"/><path class="cls-6" d="M619.7,229c.83-.3,1.93.07,2.73-.29s1.3-1.36,2.06-1.78,1.64-.71,2.36-1.17,1.83-.52,2.52-1,1.27-1.37,1.91-1.88,1.72-.9,2.29-1.4c1.23-1.07.79-1.11,1.71-2"/><path class="cls-6" d="M595.37,236.05c1.7,2.45,2.09,2.18,3.79,4.63s.56,3.24,2.26,5.69,2.12,2.16,3.82,4.61"/><path class="cls-11" d="M648.08,240.08c0,.57,0,1.25-.07,2s-.07,1.29-.14,2-.26,1.29-.33,2,0,1.34-.1,2-.19,1.34-.24,2-.14,1.4-.15,2a2.28,2.28,0,0,0,.9,1.9,5.59,5.59,0,0,0,2,.74,14,14,0,0,0,1.83.54c.54.11,1.17.21,1.86.35s1.24.06,1.89.18,1.24.15,1.88.27,1.2.46,1.82.57,1.28.16,1.88.27,1.31.07,1.89.18,1.33.19,1.88.29a13.32,13.32,0,0,1,1.79.65,3.28,3.28,0,0,0,1.6-.21,1.43,1.43,0,0,0,1.12-.94,4.16,4.16,0,0,0,.47-1.57c0-.5-.08-1.2,0-2,.05-.62.26-1.3.32-2s0-1.37,0-2,0-1.42,0-2a3.1,3.1,0,0,0-.36-1.77,6.54,6.54,0,0,0-1.22-1.36,11.28,11.28,0,0,0-1.48-1,15.72,15.72,0,0,0-1.72-.58,17,17,0,0,0-1.59-.89c-.54-.18-1.18-.14-1.78-.29s-1.14-.32-1.75-.43"/><path class="cls-6" d="M648.08,240.08c0,.57,0,1.25-.07,2s-.07,1.29-.14,2-.26,1.29-.33,2,0,1.34-.1,2-.19,1.34-.24,2-.14,1.4-.15,2a2.28,2.28,0,0,0,.9,1.9,5.59,5.59,0,0,0,2,.74,14,14,0,0,0,1.83.54c.54.11,1.17.21,1.86.35s1.24.06,1.89.18,1.24.15,1.88.27,1.2.46,1.82.57,1.28.16,1.88.27,1.31.07,1.89.18,1.33.19,1.88.29a13.32,13.32,0,0,1,1.79.65,3.28,3.28,0,0,0,1.6-.21,1.43,1.43,0,0,0,1.12-.94,4.16,4.16,0,0,0,.47-1.57c0-.5-.08-1.2,0-2,.05-.62.26-1.3.32-2s0-1.37,0-2,0-1.42,0-2a3.1,3.1,0,0,0-.36-1.77,6.54,6.54,0,0,0-1.22-1.36,11.28,11.28,0,0,0-1.48-1,15.72,15.72,0,0,0-1.72-.58,17,17,0,0,0-1.59-.89c-.54-.18-1.18-.14-1.78-.29s-1.14-.32-1.75-.43"/><path class="cls-6" d="M653.83,249.67c-.16-4,.7-4,.54-8"/><path class="cls-6" d="M486.87,259.91c-1-4.11-.12-4.31-1.07-8.42"/><path class="cls-6" d="M485,284.65c1.82.5,3.48,1.26,5.18,1.55a44.16,44.16,0,0,0,5.38.34,36.08,36.08,0,0,0,5.36-.17,29,29,0,0,0,5.26-.91,24.29,24.29,0,0,0,5.13-1.63,20.42,20.42,0,0,0,4.64-2.95,18,18,0,0,0,3.25-4.5,17.78,17.78,0,0,0,1.32-5.36c.25-1.73-.42-3.5-.68-5.35a22.77,22.77,0,0,0-1.44-5.15c-.31-2,.28-4.06.05-5.88-.25-2-.64-3.89-.88-5.7-.26-2-.23-4-.59-5.76-.41-2-1.83-3.57-2.53-5.23-.76-1.83-1-3.93-2.33-5.31"/><path class="cls-6" d="M509.35,226.52a37.56,37.56,0,0,0-4.83-2.49,34.13,34.13,0,0,0-5.29-1.21,37.31,37.31,0,0,0-10.76-.26,32.34,32.34,0,0,0-5.37.86,31.88,31.88,0,0,0-5.2,1.79,31,31,0,0,0-4.64,3,27.52,27.52,0,0,0-3.76,4c-1.19,1.4-1.73,3.21-2.56,4.8a21.89,21.89,0,0,0-1.86,5c-.44,1.74-1.38,3.44-1.38,5.29a23.77,23.77,0,0,0,.83,5.43"/><path class="cls-6" d="M511.12,233.76a19.57,19.57,0,0,1,4.24,4.38c1.14,1.4,3.21,2.45,4.48,4.44a47.18,47.18,0,0,1,3.46,5.3c.85,1.81.34,4.24,1,6.34a44.37,44.37,0,0,1,2,5.9c.34,2,1.61,4,1.68,6.17a48.29,48.29,0,0,1,.18,6.41c-.2,2-2.35,3.8-2.84,5.93-.44,2,.5,4.42-.22,6.48-.67,1.9-1.91,3.73-2.83,5.71"/><path class="cls-6" d="M464.33,252.9c-.9-1.88-.67-1.86-2.62-2.93-1-.57-2.4-1.75-4.06-1.45-1.12.2-2.27,1.35-3.7,2.27-1.13.73-2.63,1.21-3.38,2.23a12.74,12.74,0,0,0-1.81,3.68c-.39,1.24.07,2.74.06,4a12.84,12.84,0,0,0,.85,3.75c.38,1.26.15,2.87.9,3.91a10.59,10.59,0,0,0,3.18,2.5c1.06.64,2.46.44,3.83.63a13.51,13.51,0,0,0,4.53-.22c3.15-.5,3.4.92,4.68-1.06"/><path class="cls-6" d="M450.79,250.27c1.85,2.33,2.06,2.16,3.91,4.5s2,2.2,3.89,4.54,1.26,2.8,3.11,5.14"/><path class="cls-6" d="M512.53,260.39c-1.13-4-.3-4.2-1.43-8.17"/><path class="cls-6" d="M504.43,222.16c0,1.91,0,1.31-.81,3.6a18.14,18.14,0,0,1-1.32,3.57,32.49,32.49,0,0,1-2.49,2.89,29.19,29.19,0,0,1-2.25,3.09A36.38,36.38,0,0,1,495,238.2c-.93.76-1.89,1.66-3,2.44-1.3.9-2.81,1.22-3.87,2-1.28.92-2.47,1.7-3.47,2.57a19.6,19.6,0,0,0-2.69,3.34,18.55,18.55,0,0,0-1.91,3.78c-.53,1.18-2.08,2.13-2.53,3.67-.36,1.25-.63,2.7-1,4.25-.28,1.29-.56,2.71-.84,4.25-.25,1.32.68,2.94.43,4.46s-1.11,2.75-1.15,4.15a33.19,33.19,0,0,0-.17,4.32c.16,1.44,1.06,2.75,1.39,4.11a33.27,33.27,0,0,0,1.63,3.92,37.93,37.93,0,0,0,3.38,7.8,24.12,24.12,0,0,0,3.13,2.91c1.11,1.09,1.9,2.38,3,3a7.87,7.87,0,0,0,4.14,1.22"/><path class="cls-6" d="M511.68,265.24a33.22,33.22,0,0,0-5.14-2.29,22.32,22.32,0,0,0-5.37-1.64,14.63,14.63,0,0,0-5.65.3,13,13,0,0,0-4.76,3,17.32,17.32,0,0,0-3.47,4.37c-1.61,2.73-4.83,3.77-2.4,5.17,2.18,1.26,2.58-.27,5.09-.21s2.5.32,5,.39,2.52.08,5,.14,2.52-.16,5-.1l5,.13"/><path class="cls-6" d="M431.91,293.68a37.49,37.49,0,0,0-4.47-2.8,16,16,0,0,0-5-1.62,13.32,13.32,0,0,0-5.23.44,9.38,9.38,0,0,0-4.64,2.3,13.3,13.3,0,0,0-2.81,4.4,22,22,0,0,0-1.87,5,11.58,11.58,0,0,0,.55,4.94A13.5,13.5,0,0,0,410,311a14.26,14.26,0,0,0,3.56,3.54,15.4,15.4,0,0,0,4.57,2,16.84,16.84,0,0,0,5,.7,14.78,14.78,0,0,0,4.83-1.24,11,11,0,0,0,3.87-2.9,11.64,11.64,0,0,0,2.82-3.95,20.53,20.53,0,0,0,1.31-4.85,18.69,18.69,0,0,0-.48-5"/><path class="cls-6" d="M435.55,299.59a22.07,22.07,0,0,1,3.7-2.23c1.1-.6,2.15-1.83,3.63-2.49,1.24-.55,2.76-.73,4.21-1.22a43.39,43.39,0,0,1,4.22-1,38.94,38.94,0,0,1,4.22-1.09,30.34,30.34,0,0,1,4.38-.39,26.19,26.19,0,0,1,4.34.66,22.87,22.87,0,0,1,4.09,1.43c1,2.07.78,2.17,1.3,4.4s.24,2.3.76,4.54.49,2.24,1,4.47.82,2.17,1.34,4.41.6,2.22,1.12,4.46"/><path class="cls-6" d="M458.11,241.82a24,24,0,0,0,2.54.89,25.18,25.18,0,0,0,2.68.34,25.83,25.83,0,0,0,2.64-.58c.9-.11,1.71-.5,2.58-.69s1.76-.22,2.61-.47,1.78-.33,2.59-.65,1.54-1,2.33-1.34,1.77-.5,2.52-.92,1.61-.87,2.33-1.32,1.35-1.31,2-1.79,1.47-1.19,2.06-1.66a9.54,9.54,0,0,1,2.58-1.46"/><path class="cls-6" d="M529.56,300c2.47.44,2,.34,4.92-.33a15.28,15.28,0,0,0,4.66-1.72,16,16,0,0,0,6.1-6.25,21.69,21.69,0,0,0,1.6-3.45,31.54,31.54,0,0,0,1.42-3.55,13.72,13.72,0,0,0,.59-3.79"/><path class="cls-6" d="M544.52,262.48a15.26,15.26,0,0,0-1.81,4.46,20.46,20.46,0,0,0-.51,4.81"/><path class="cls-6" d="M548.71,280.86a25,25,0,0,0,3.65,1.58,15.74,15.74,0,0,0,3.91.71,12.3,12.3,0,0,0,4-.24,10.08,10.08,0,0,0,3.42-1.92,9.29,9.29,0,0,0,2.53-2.9,13,13,0,0,0,1.43-3.61,17.85,17.85,0,0,0,.37-3.81,16.82,16.82,0,0,0-.2-3.81"/><path class="cls-6" d="M541.78,271.77c.06,2,.55,1.62,0,3.82A17.09,17.09,0,0,1,540,279a12.87,12.87,0,0,1-2.39,2.89c-.85.86-1.24,2.45-2.47,3.13a17.5,17.5,0,0,1-3.71,1.48,23.83,23.83,0,0,1-3.92.46,28.61,28.61,0,0,1-3.94.54"/><path class="cls-6" d="M477.79,324.15c-1.57,1.49-1.17,1.91-2.74,3.41s-1.46,1.6-3,3.09l-3.13,3c-1.57,1.5-2.14.89-3.71,2.39s-1.52,1.55-3.08,3-1.61,1.47-3.18,3a10,10,0,0,0-2.51,3.45c-1.05,1.81.39.89,2.23,2.91a31.37,31.37,0,0,0,3.07,2.77c1,.8,2.18,1.42,3.46,2.28,1.06.73,1.57,2.55,2.89,3.29,1.14.64,2.77.55,4.12,1.18,1.19.56,2.54.91,3.91,1.45s2.28,1.7,3.66,2.17,2.87,0,4.27.38,2.5,1.2,3.91,1.55,2.73.36,4.14.65,2.53,1.51,3.95,1.75,3-.86,4.39-.7,2.74,1.59,4.12,1.67,2.91.13,4.29.13,2.9-.32,4.27-.41,2.93,0,4.29-.18,2.77-1.05,4.11-1.32,2.64-1.31,4-1.67,3,.06,4.31-.39,2.86-.8,4.07-1.34c1.41-.62,2.28-2.07,3.41-2.69,1.43-.77,3.12-.72,4.12-1.38,2.24-1.49,3.14-.84,2.91-2.94s-1.27-1.57-2.1-3.41-.48-2-1.31-3.83-.73-1.89-1.56-3.72-.06-2.19-.89-4-1.51-1.54-2.34-3.37-.34-2.07-1.16-3.91-1.28-1.63-2.12-3.47-.28-2.08-1.11-3.92-1.44-1.57-2.27-3.41,0-2.19-.88-4-1.81-1.4-2.64-3.24,0-2.2-.84-4-1.49-1.55-2.32-3.39-.35-2.06-1.18-3.9-1.26-1.65-2.09-3.49"/><path class="cls-6" d="M435.55,290.86A21.94,21.94,0,0,1,439,288c1.05-.77,2-2.09,3.44-3,1.2-.74,2.69-1.19,4.12-1.9s2.72-1.11,4.18-1.68a43.36,43.36,0,0,1,4.18-1.68,36.87,36.87,0,0,1,4.41-1.08,33.91,33.91,0,0,1,4.54-.19,31.92,31.92,0,0,1,4.49.49"/><path class="cls-6" d="M527.3,307.27c-1.88.94-1.34.86-3.72,2-1.09.51-2.74.33-4.19,1-1.19.53-2.45,1.15-3.82,1.74s-2.53,1.07-3.89,1.61-2.26,1.86-3.6,2.37-2.82.45-4.15.92-2.74.67-4.08,1.1c-1.54.49-2.89,1.35-4.33,1.64a41.07,41.07,0,0,1-4.55,1,33.56,33.56,0,0,1-4.66-.15,26.8,26.8,0,0,1-4.54-.91,24.22,24.22,0,0,1-4.51-1.1,11.07,11.07,0,0,1-3.59-2.91"/><path class="cls-6" d="M537.76,364.82c.64,1.23,1.65,2.32,2.45,3.59s1.23,2.59,2.1,3.8,2,2,3,3.19,1.33,2.58,2.28,3.72,2.38,1.71,3.35,2.83,1.43,2.54,2.41,3.64a16.69,16.69,0,0,0,3.26,2.38,9.59,9.59,0,0,0,3.48,2,7.59,7.59,0,0,0,3.94-.7,34.57,34.57,0,0,0,3.67-1.56,29.7,29.7,0,0,0,3.7-2.11,41,41,0,0,0,3.52-2.42c1.06-.9,1.91-2.11,2.91-3.14s1.94-2.09,2.81-3.2a32.63,32.63,0,0,0,2.24-3.61,23.44,23.44,0,0,0,1.58-3.9c.53-1.37,1.37-2.6,1.51-3.95a10.81,10.81,0,0,0-.73-4.13,9.26,9.26,0,0,0-1.75-3.72,13.51,13.51,0,0,0-3.25-2.61c-1.39-.89-2.48-2-3.75-2.35a9.48,9.48,0,0,0-4.42.26,11.18,11.18,0,0,0-4.1,1.62,18.52,18.52,0,0,0-3.31,3c-.93,1.1-1.22,2.72-2,4s-1.47,2.56-2.08,3.82c-.68,1.44-1.41,2.74-1.87,3.95a34.23,34.23,0,0,1-1.87,4.09"/><path class="cls-6" d="M557.26,373.21c-1.28-1.86-1.22-1.9-2.5-3.76s-1.46-1.73-2.74-3.59-1.07-2-2.35-3.86-1.42-1.76-2.7-3.63-1.38-1.79-2.66-3.65"/><path class="cls-6" d="M584.79,355.5c-2.35.25-1.83.3-4.47,1.36a21.7,21.7,0,0,0-4.37,1.79c-1.22.78-2.13,2.16-3.35,3.33-1.06,1-2.51,1.84-3.49,3.2a27.71,27.71,0,0,0-2.43,4.07c-.67,1.36-1.19,2.74-1.75,4-.63,1.43-1.29,2.75-1.79,4-.6,1.53-.87,3-1.29,4.17-.9,2.56-.47,2.13-1.06,4.22"/><path class="cls-6" d="M504.42,334.43c-.6,2.13,0,1.77-1,4.33-.43,1.2-.55,2.78-1.19,4.31-.54,1.27-1,2.72-1.7,4.13s-1.88,2.33-2.62,3.66-1.58,2.48-2.41,3.73-1.41,2.65-2.33,3.8a38.41,38.41,0,0,1-2.81,3.5c-1.07,1.05-3,1.07-4.16,1.91a19.55,19.55,0,0,1-3.69,2.2,15.94,15.94,0,0,1-4.1,1.17c-1.45.21-2.79,1.58-4.18,1.58s-2.87-.92-4.25-1.12a30.55,30.55,0,0,1-4.07-1.23c-1.43-.4-3-.2-4.26-.71s-2.92-.82-4.09-1.44a40.5,40.5,0,0,1-3.54-2.51c-2.17-1.46-1.38-3.93-3.27-2.94s.55,1.84.45,4.44c0,1.26-.7,2.71-.85,4.29-.13,1.37-.37,2.81-.61,4.27s.08,3-.3,4.38a27.06,27.06,0,0,1-1.3,4.22,9.84,9.84,0,0,1-2.64,3.47c-1.11.89-2.8.62-4.17.79a9.47,9.47,0,0,1-4-.31,13.13,13.13,0,0,1-3.62-1.79c-1.12-.75-2.75-1.09-3.64-2.16a14.82,14.82,0,0,1-2-3.75,13.82,13.82,0,0,1-.88-8.38c.39-1.38,2.17-2.35,2.71-3.75s.29-3,.93-4.38,1.16-2.78,1.91-4,2.3-2.06,3.17-3.18,1.23-3,2.24-3.95a15.21,15.21,0,0,1,4-2.17,8.2,8.2,0,0,1,4.34-1.13c1.34.15,2.15,1.63,3.43,2.73"/><path class="cls-6" d="M450.42,347.9a23.07,23.07,0,0,0-3.08,2.68,38.37,38.37,0,0,0-3.31,2.48c-.88.91-1.29,2.38-2.21,3.51s-2.19,1.71-3,2.88a38.58,38.58,0,0,0-2.13,3.54,35.92,35.92,0,0,0-1.6,3.81,30.11,30.11,0,0,0-1.33,3.92c-.41,1.74-.43,3.39-.72,4.82-.38,1.86-.31,3.52-.53,4.84-.53,3.2-.94,2.32-1.13,4.74"/><path class="cls-6" d="M453.45,278.05c0,1.5-.32,2.89-.33,4.17,0,1.54.16,2.93.14,4.18,0,1.63,0,3,0,4.17-.05,2.82-.21,2.08-.27,4.16"/><path class="cls-6" d="M535.32,282.33a37,37,0,0,1-.14,4.8,31,31,0,0,1-.94,4.72,23,23,0,0,1-2.07,4.32c-1.4,2.65-.79,2.42-2.55,4"/><path class="cls-6" d="M466.4,270c-.11.9.21,1.81.17,2.68s-.31,1.77-.29,2.65-.27,1.82-.19,2.69.05,1.83.2,2.69.5,1.75.72,2.6.29,1.81.57,2.64.58,1.74.91,2.54,1.26,1.43,1.64,2.2.55,1.76,1,2.5.71,1.74,1.18,2.44,1.39,1.3,1.88,1.95c.62.81,1.05,1.63,1.55,2.2,1.1,1.26.74,1.18,1.73,2.07"/><path d="M1230.42,714.78a7.64,7.64,0,0,1-.68,3.72c-.61,1.06-2,1.6-3,2.21a6.48,6.48,0,0,1-3.43.46c-1.27,0-2.76.77-3.79.18s-1.37-2.17-2-3.23a6.29,6.29,0,0,1-.66-3.34c0-1.27-.56-2.67,0-3.7s2-1.4,3.1-2,2-1.75,3.3-1.75,2.36,1,3.38,1.61,2.39,1.12,3,2.18A7.48,7.48,0,0,1,1230.42,714.78Z"/></g></g></g></svg>