<svg xmlns="http://www.w3.org/2000/svg" viewBox="0 0 848.94 1549.22"><defs><style>.cls-1{fill:#e6b49d;}.cls-10,.cls-2,.cls-3,.cls-6,.cls-7,.cls-8,.cls-9{fill:none;}.cls-2{stroke:#e6b49d;}.cls-10,.cls-2,.cls-3,.cls-7,.cls-8,.cls-9{stroke-linecap:round;stroke-linejoin:round;}.cls-2,.cls-3,.cls-6,.cls-7,.cls-9{stroke-width:3.61px;}.cls-10,.cls-3,.cls-6,.cls-8{stroke:#000;}.cls-4{fill:#8e9b91;}.cls-5{fill:#fff;}.cls-6{stroke-miterlimit:10;}.cls-7{stroke:#1d1d1b;}.cls-8{stroke-width:4.33px;}.cls-9{stroke:#677d70;}.cls-10{stroke-width:5.48px;}</style></defs><g id="Layer_2" data-name="Layer 2"><g id="sect9"><g id="bg"><g id="left2"><path class="cls-1" d="M450.6,890.76c1.69,1.71,2.7.17,5.1.17s2.4-1,4.79-1,2.4.71,4.8.71,2.4-.81,4.8-.81,2.76,2.07,5,1.22.55-2.31,1.52-5c.48-1.32.56-3.05,1.4-4.63a29.25,29.25,0,0,1,2.64-4.07,26,26,0,0,1,3.26-3.61,23.71,23.71,0,0,1,4.16-3.24c1.58-.86,3.56-.72,5.13-1.23,1.81-.59,3.35-1.75,4.86-2,3-.52,4.74,2.53,5.83.18s-2-1.58-4-3.67c-1-1-2.77-1.67-3.74-3.2a25.37,25.37,0,0,1-1.92-4.5c-.55-1.4-.27-3.11-.57-4.8-.26-1.49-1.61-3-1.61-4.71,0-1.51,1.3-3,1.55-4.73a37.72,37.72,0,0,1,.86-4.69c.41-1.46.19-3.24.81-4.82.56-1.42,2.22-2.43,3-4s1.36-2.78,2.2-4.24.54-3.6.87-5.2a22.66,22.66,0,0,0,.7-5.05c0-1.74.31-3.5.19-5.19a35.23,35.23,0,0,1-.48-5.11c.14-1.72,1.11-3.06,1.94-4.61s1-3.33,2.38-4.44,3.29-1,4.81-1.78,3-1.53,4.46-2.26,2.47-2.69,3.85-3.45c1.65-.9,3.28-1.36,4.3-2.39,1.43-1.43,3.17-2.23,4.34-3.45s1.87-3.4,3.36-4.48,3.35-1,5.29-1.77a41.25,41.25,0,0,1,4.26-1.26c1.52-.4,2.76-1.78,4.18-2a36.46,36.46,0,0,1,4.56-.34c1.55,0,3,1,4.45,1.16a37.15,37.15,0,0,1,4.4.68c1.5.38,3.21,0,4.57.51s2.53,1.93,3.84,2.53,3,.81,4.29,1.44c1.45.71,2.6,1.8,3.86,2.34,1.74.74,3,2,4.42,2.8a32.94,32.94,0,0,1,4.47,2.63c1.4,1.16,3.3,1.74,4.4,3.06s1.06,3.51,2,5c.77,1.23,1.51,2.42,2.16,3.59.75,1.35,1.76,2.43,2.31,3.53,1.15,2.26,0,3.08,2.11,3.3,1.59.17,2.43.88,3.45-.35,1.59-1.93-2.05-1.35-2.57-5a25.21,25.21,0,0,1-.46-5c.06-1.45.93-3,1.21-4.93a44.33,44.33,0,0,1,1.21-4.71,38.3,38.3,0,0,1,1.24-4.7,29.84,29.84,0,0,1,2.46-4.18,27.44,27.44,0,0,1,2.45-4.19,24.1,24.1,0,0,1,3.38-3.59c1.32-1,3.11-1.09,4.62-1.74a23.78,23.78,0,0,1,4.3-1.36c1.38-.31,2.77-1.31,4.39-1.52,1.45-.2,3-.65,4.56-.78s3.1,1,4.66.91,3-.13,4.58-.14,3.08-.82,4.6-.78,3.1.31,4.6.39,3.15,0,4.61.15c1.62.16,3.22,0,4.62.21,1.66.25,3.21,1.27,4.77,1.86a28.13,28.13,0,0,1,4.71,1.86c1.43.86,2.42,2.39,3.72,3.45a37.41,37.41,0,0,1,3.87,3.18,42.12,42.12,0,0,1,3.59,3.61,36.7,36.7,0,0,1,2.57,4.4,30.24,30.24,0,0,1,1.79,4.76c.56,1.79,1.4,3.32,1.86,4.79.61,1.9.76,3.65,1.2,5,1,3.21-1.22,4.45,1.24,5.19s2.57-.58,5.08-.58h5c2.5,0,2.5.94,5,.94s2.51-.65,5-.65h5c2.51,0,2.51.34,5,.34s2.51-.65,5-.65,3.16,2.05,5,.32-.53-2.34-.53-4.74,1-2.4,1-4.8-.93-2.39-.93-4.79.91-2.4.91-4.8-.52-2.4-.52-4.79.55-2.4.55-4.8-.87-2.4-.87-4.8.3-2.4.3-4.8.7-2.4.7-4.8-.54-2.39-.54-4.79-.64-2.4-.64-4.81,1.36-2.4,1.36-4.8,1.14-3.25-.54-5-2.52-.06-4.87-.06-2.35-.35-4.71-.35-2.35.45-4.7.45-2.35.59-4.7.59-2.36-1-4.71-1-2.35.22-4.7.22-2.35.3-4.71.3-2.35.51-4.7.51-2.35-1-4.7-1-2.36.09-4.71.09-2.35.59-4.7.59-2.36.16-4.71.16-2.35.1-4.7.1-2.35,0-4.71,0-2.35-1-4.7-1-2.35,1.22-4.71,1.22-2.35-1-4.7-1-2.35.85-4.7.85-2.35-.45-4.7-.45-2.36,0-4.71,0-2.35.15-4.7.15-2.35.09-4.7.09-2.35-.76-4.7-.76-2.35,1.07-4.7,1.07-2.36-1.26-4.71-1.26-2.35.25-4.7.25-2.35-.06-4.7-.06-2.35.12-4.7.12-2.36.29-4.71.29-2.35.12-4.71.12-2.35,0-4.7,0-2.35.63-4.7.63-2.36-.72-4.71-.72-2.35-.23-4.7-.23-2.36.54-4.71.54-2.35-.66-4.7-.66-2.36.59-4.71.59-2.35.48-4.71.48-2.35.1-4.7.1-2.35-1-4.71-1-2.35.63-4.71.63-2.35-.59-4.7-.59-2.36.26-4.71.26-2.35.22-4.71.22-2.35-.59-4.71-.59-2.35.54-4.7.54-2.36-.73-4.71-.73-2.35,1-4.7,1S496,738,493.63,738s-2.35-.26-4.71-.26-2.35-.28-4.71-.28-2.35-.12-4.7-.12-2.36.72-4.71.72-2.36.18-4.71.18-2.36.47-4.71.47-2.36-1-4.71-1-2.36.42-4.72.42-3-1.77-4.5.05c-1.83,2.22-1.2,2.86-.51,5.65.55,2.25,2,.57,4.43,2,1.16.67,2.74,1.14,4.18,2.08,1.21.8,2.06,2.33,3.36,3.3s2.84,1.36,4,2.39,1.68,2.72,2.74,3.83a34.84,34.84,0,0,1,3.28,3.26c-.63,1.27-1.78,2.33-2.59,3.66s-1.6,2.46-2.46,3.71-1.59,2.52-2.49,3.72-1.15,2.92-2.07,4.07-2.64,1.77-3.57,2.88-1.52,2.77-2.44,3.82c-1.11,1.26-2.21,2.31-3.08,3.26-1.87,2-2.43,1.06-2.87,3.25-.47,2.37.17,2.37.16,4.78s.06,2.41.05,4.83-.84,2.41-.84,4.83.06,2.41.05,4.82.64,2.42.64,4.83.07,2.42.07,4.83-.11,2.42-.11,4.83.16,2.41.15,4.83-.14,2.41-.15,4.83-.2,2.41-.21,4.82-.52,2.41-.52,4.83.5,2.41.49,4.82.26,2.42.26,4.83.07,2.42.06,4.83-.41,2.42-.41,4.83.31,2.42.3,4.83.19,2.42.18,4.83.08,2.42.07,4.83-.64,2.42-.64,4.84.3,2.43-.28,4.78C450.06,888.25,448.9,889,450.6,890.76Z"/><path class="cls-1" d="M489.53,928.82c.13-2.25.83,1.23,2.6,3.42.81,1,1.41,2.47,2.48,3.79.88,1.09,2.42,1.79,3.43,3s2,2.2,2.95,3.42.9,3.09,1.87,4.29,2.24,2,3.19,3.23,1.58,2.6,2.52,3.78,2.09,2.21,3,3.37,2.33,2.06,3.24,3.21,1.88,2.43,2.77,3.56,1.75,2.6,2.6,3.7a28.64,28.64,0,0,0,3,3.88,19.82,19.82,0,0,0,4.19,2.65,14.44,14.44,0,0,0,4.74,1.43,12.66,12.66,0,0,0,4.88-.65,14.91,14.91,0,0,0,4.31-2.26c1.25-.89,2.4-2,3.62-2.9s2.54-1.89,3.69-2.81c1.32-1.06,2.88-1.66,3.92-2.53,2.14-1.78,1-2.61,3.28-3.05s2.39-.91,4.84-.91,2.46,1,4.91,1,2.45-.86,4.9-.86,2.46.86,4.91.86,2.45-.84,4.9-.84,2.46.22,4.91.22,2.45-.22,4.9-.22,2.46-.14,4.92-.14,3-1,4.48.91-.31,1.86-1.07,4.05-.17,2.39-.93,4.57-1.31,2-2.06,4.19-.91,2.13-1.66,4.32-1.07,2.07-1.82,4.26,0,2.47-.7,4.66-.44,2.3-1.2,4.49,0,3.28-1.87,4.6-2.73-.08-5.13-.08-2.41.29-4.81.29-2.41-.39-4.81-.39-2.41-1-4.81-1-2.41,1.22-4.82,1.22-2.4.12-4.81.12-2.41-.85-4.81-.85-2.41-.23-4.81-.23-2.41-.27-4.82-.27-2.4.6-4.81.6-2.41-.28-4.81-.28-2.41-.15-4.81-.15-2.41,1.2-4.81,1.2-2.41-1.36-4.81-1.36-2.41,1.27-4.82,1.27-2.41-.21-4.81-.21-2.41-.07-4.82-.07-2.4-.45-4.81-.45-2.41.62-4.81.62-2.41-1-4.82-1-2.41.34-4.82.34-2.6,1.1-4.85.25c-2-.76.66-1.67,1.37-4.17.35-1.21.75-2.6,1.3-4.09.47-1.28.14-3,.78-4.36s2.11-2.13,2.88-3.36a25.47,25.47,0,0,1,2.48-3.48c1.34-1.49,2.78-2.34,3.63-3.28,3.24-3.6,2.65-1.56,2.18-3.94s-.17-2.31-.61-4.56,0-2.34-.44-4.59-.55-2.24-1-4.49-.84-2.18-1.28-4.43-.1-2.32-.54-4.58-.18-2.3-.62-4.56-.8-2.19-1.24-4.44-.38-2.27-.9-4.51A10.62,10.62,0,0,1,489.53,928.82Z"/><path class="cls-2" d="M636.13,809.73a14.72,14.72,0,0,1,1.93.63c.54.24,1.19.52,1.84.86s1,.9,1.62,1.26a18.06,18.06,0,0,1,1.79,1,14.65,14.65,0,0,1,1.71,1.17"/><path class="cls-3" d="M459.5,992.43c0-2.08.89-2.08.89-4.16s0-2.07,0-4.15-.32-2.08-.32-4.16.66-2.08.66-4.16-.31-2.08-.31-4.15-.4-2.08-.4-4.16.19-2.08.19-4.16.19-2.07.19-4.15-.76-2.07-.76-4.15-.11-2.08-.11-4.15.46-2.08.46-4.16.67-2.08.67-4.16-.65-2.07-.65-4.15.65-2.08.65-4.15-.37-2.08-.37-4.16-.83-2.07-.83-4.15.51-2.08.51-4.16,0-2.08,0-4.16.16-2.07.16-4.15.48-2.08.48-4.16-.77-2.07-.77-4.15.52-2.08.52-4.16-.07-2.08-.07-4.16,0-2.08,0-4.15.2-2.08.2-4.16-.27-2.08-.27-4.16.2-2.08.2-4.16-.11-2.08-.11-4.16.44-2.08.44-4.15-1-2.08-1-4.16.4-2.08.4-4.16-.31-2.08-.31-4.16.65-2.08.65-4.16.13-2.08.13-4.16-1-2.08-1-4.16,1.19-2.08,1.19-4.16-.76-2.08-.76-4.16.48-2.08.48-4.16-.87-2.08-.87-4.16,1.07-2.08,1.07-4.16-.62-2.08-.62-4.16.63-2.08.63-4.15.11-2.08.11-4.16-1.18-2.09-1.18-4.17.44-2.08.44-4.16-.52-2.08-.52-4.16.07-2.08.07-4.16.87-2.08.87-4.16.05-2.08.05-4.16-.7-2.09-.7-4.17.78-2.08.78-4.17"/><path class="cls-1" d="M233.28,1261.29c-1.07-2.11-2,0-4.38,0s-2.37.28-4.74.28-2.37-.61-4.74-.61-2.37.56-4.74.56-2.37-.28-4.74-.28-2.38.48-4.75.48-2.37-.89-4.74-.89-2.37.37-4.74.37-2.37,0-4.74,0-2.37.38-4.74.38-2.37-.85-4.74-.85-2.37.69-4.74.69-2.37-.13-4.73-.13-2.37-.08-4.74-.08-2.38.29-4.75.29-2.37-.91-4.74-.91-2.37,1.17-4.74,1.17-2.37-.24-4.74-.24-2.37-.7-4.74-.7-2.37.26-4.74.26-2.37-.2-4.74-.2-2.37.47-4.74.47-2.38.28-4.75.28-2.37-.91-4.74-.91-2.37,1-4.74,1-2.37-.59-4.75-.59-2.37-.7-4.74-.7-2.37.43-4.74.43-2.37-.08-4.75-.08-2.37.15-4.74.15-2.37.09-4.74.09-2.38.68-4.75.68-2.37-.64-4.74-.64-2.37.38-4.75.38l-4.74,0c-2.37,0-2.37-.22-4.75-.22s-2.37-.82-4.74-.82-2.37.64-4.74.64-2.38-.52-4.75-.52-2.37.79-4.74.79-2.37-.43-4.75-.43-2.37-.08-4.74-.08-2.38-.15-4.75-.15-2.37.41-4.75.41-2.37.34-4.74.34-2.38.1-4.75.1-2.37.11-4.75.11-2.38,0-4.75,0-3.4-2.58-5.07-.89-.32,2.72-.32,5.12.33,2.41.33,4.82.14,2.4.14,4.81.37,2.41.37,4.81-.31,2.41-.31,4.81.61,2.41.61,4.81-1,2.41-1,4.82.48,2.4.48,4.81-.43,2.41-.43,4.82.83,2.4.83,4.81.1,2.4.1,4.81v4.81c0,2.41-.59,2.41-.59,4.81s-.35,2.41-.35,4.82.94,2.41.94,4.81.25,2.41.25,4.82-.91,2.41-.91,4.82-.13,2.4-.13,4.81-.15,2.41-.15,4.81-.16,2.41-.16,4.83-1.53,3.7.38,5.16,2.55-1.56,5-2.11,2.7.54,4.87-.7.73-1.43,1.38-4.28a42.63,42.63,0,0,1,.77-4.65c.44-1.38,1-2.84,1.68-4.4.56-1.38.76-3,1.5-4.51s1.48-2.75,2.34-4.13,1.84-2.53,2.82-3.81a46.72,46.72,0,0,1,3.17-3.51c1.05-1.12,1.8-2.67,3-3.73s2.65-1.75,4-2.67,3-.85,4.4-1.56A41.5,41.5,0,0,1,40,1320.7c1.42-.55,2.82-1,4.31-1.4s2.84-1,4.35-1.35,2.88-1.3,4.4-1.5,3.08-.19,4.6-.3,3.07-.47,4.59-.51,3.08,1,4.6,1,3.13-1.14,4.64-1.06,3,1.33,4.5,1.46,3.14-.1,4.61.07,3.12.34,4.56.56c1.63.24,3.18.29,4.56.52,1.74.3,3.25.63,4.51.87a27.55,27.55,0,0,1,4.82,1c1.51.58,2.75,1.83,4.15,2.66a30,30,0,0,1,3.66,3.16c1.23,1,3.22,1.31,4.32,2.54s1.36,3,2.28,4.42a40,40,0,0,1,2.26,4.26c.73,1.42,2.26,2.51,2.85,4.06s.32,3.28.76,4.87,1.63,2.94,1.92,4.58-.21,3.28-.06,4.93.9,3.24,1,4.77c.13,1.68.29,3.29.38,4.83s.32,3.28.36,4.83-.63,3.28-.64,4.85-.08,3.22-.15,4.82-.51,3.16-.64,4.79.32,3.21.14,4.86-1,3.06-1.16,4.72-.22,3.14-.46,4.81c-.21,1.52-.22,3.14-.46,4.81-.21,1.41-.65,3-.89,4.7-.23,1.55-.77,3.13-1,4.69s.19,3.41,0,4.83c-.4,2.78-3.06,3.91-.72,4.37,2.63.51,1.34-1.66,3.59-3.6,1.29-1.11,2.69-2.46,4.14-3.48a14.35,14.35,0,0,1,5-2.19,15.21,15.21,0,0,0,4.16-1.41c2.19-1.18,3.08-.25,4.16-2.19,1.19-2.16-.91-2.16-.5-5.24.18-1.38.38-3,.61-4.88.18-1.5.71-3.09.9-4.85.17-1.55,0-3.22.19-4.93s.88-3.16,1-4.85.62-3.21.75-4.88,0-3.27.1-4.93.9-3.24,1-4.89-1-3.33-.93-5,.71-3.28.76-4.91-.18-3.32-.11-4.94-.3-3.33-.21-5,.55-3.3.68-4.91.83-3.25,1-4.85-.45-3.43-.19-5,1.42-3.13,1.79-4.68.75-3.24,1.26-4.75a39.2,39.2,0,0,1,1.53-4.7,26.52,26.52,0,0,1,3-4,22.27,22.27,0,0,1,3.1-3.84,33.15,33.15,0,0,1,3.85-2.64c1.31-.78,3-.8,4.45-1.43a42.13,42.13,0,0,1,4.19-1.92c1.44-.47,2.86-1.1,4.39-1.46s3-.56,4.57-.82,3-.27,4.61-.45,3.07,0,4.63-.07,3-.53,4.6-.61,3.05-.5,4.61-.54,3.08-.72,4.64-.73,2.7.23,4.26.23c1.78-1.57,1.38-1.78,2.78-3.7s2.38-1.21,3.78-3.13.43-2.62,1.83-4.55,1.29-2,2.68-3.93,2.43-1.17,3.83-3.1.38-2.66,1.78-4.58,2-1.52,3.36-3.45,1.07-2.15,2.46-4.08,1.49-1.86,2.89-3.79.89-2.47,2.7-4S234.35,1263.42,233.28,1261.29Z"/><path class="cls-2" d="M269.66,1445.24c0,2.11.12,2.11.12,4.22s-.11,2.11-.11,4.22-.29,2.11-.29,4.22.49,2.11.49,4.22.52,2.11.52,4.22-.09,2.11-.09,4.22-.21,2.11-.21,4.21-.71,2.11-.71,4.23.56,2.11.56,4.22-.52,2.11-.52,4.22,0,2.11,0,4.22,0,2.11,0,4.22.17,2.11.17,4.22.88,2.11.88,4.22-.9,2.11-.9,4.22.59,2.12.59,4.23.11,2.11.11,4.22-.47,2.11-.47,4.23-.16,2.11-.16,4.22.47,2.11.47,4.22.26,2.11.26,4.22-1.11,2.11-1.11,4.22,1,2.12,1,4.23,1.29,2.93-.18,4.44-2.28-.06-4.34-.06-2.07.3-4.13.3-2.06.22-4.13.22-2.06-.63-4.12-.63-2.07,0-4.13,0-2.06-.24-4.13-.24-2.06-.14-4.12-.14-2.07.61-4.13.61-2.07-1-4.13-1-2.06,1.27-4.12,1.27-2.07-.69-4.13-.69-2.07.82-4.13.82-2.06-1.29-4.13-1.29-2.06.52-4.12.52-2.07-.17-4.13-.17-2.07.08-4.13.08-2.06-.34-4.13-.34-2.06.76-4.12.76-2.06-.28-4.12-.28h-4.13c-2.06,0-2.06.23-4.12.23s-2.06.13-4.12.13-2.07.32-4.13.32-2.06-.53-4.13-.53-2.06.25-4.12.25-2.07-.85-4.13-.85-2.06.57-4.12.57-2.07-.1-4.13-.1-2.06.38-4.13.38-2.06-.45-4.12-.45-2.07.58-4.13.58-2.06,0-4.13,0-2.06-1-4.12-1-2.07-.09-4.13-.09-2.07.51-4.13.51-2.07-.07-4.13-.07-2.06-.14-4.13-.14-2.06.92-4.13.92-2.06-.45-4.12-.45-2.07-.1-4.13-.1-2.07.29-4.13.29-2.07-.09-4.13-.09-2.07-.09-4.13-.09-2.07-.37-4.13-.37-2.07.61-4.13.61-2.07-1-4.13-1-2.07.49-4.13.49-2.07.48-4.13.48-2.07-.43-4.13-.43-2.07.49-4.13.49-2.06-.51-4.13-.51-2.06.41-4.13.41-2.06-.18-4.13-.18-2.06.28-4.13.28-2.06-.73-4.13-.73-2.06.44-4.13.44-2.07-.32-4.13-.32-2.07.65-4.14.65-2.06-.32-4.13-.32-2.06.5-4.13.5-2.07-.72-4.14-.72-2.07.48-4.14.48-2.29.71-3.76-.75-.38-1.69-.38-3.75.18-2.07.18-4.13.48-2.06.48-4.13-.69-2.06-.69-4.13.48-2.06.48-4.13-.9-2.06-.9-4.13.89-2.06.89-4.13-.23-2.06-.23-4.13-.56-2.06-.56-4.12.65-2.07.65-4.14.39-2.06.39-4.12-.39-2.07-.39-4.13-.78-2.07-.78-4.13-.11-2.07-.11-4.13.29-2.06.29-4.13-.35-2.06-.35-4.13.17-2.06.17-4.12.53-2.07.53-4.14-.63-2.06-.63-4.13,1.29-2.06,1.29-4.13-1.38-2.06-1.38-4.13,1.28-2.06,1.28-4.13-.4-2.06-.4-4.12-.07-2.07-.07-4.13.12-2.07.12-4.14.11-2.06.11-4.13.18-2.06.18-4.12.06-2.07.06-4.13-.22-2.07-.22-4.13.2-2.07.2-4.13-1.07-2.07-1.07-4.13,1-2.06,1-4.12-.67-2.07-.67-4.13-.49-2.06-.49-4.13,1.17-2.06,1.17-4.13-1.12-2.06-1.12-4.12.32-2.07.32-4.14-.29-2.06-.29-4.12.21-2.07.21-4.13.19-2.06.19-4.13-.34-2.06-.34-4.13.58-2.06.58-4.13.32-2.06.32-4.13S10,1367,10,1364.89s-.7-2.06-.7-4.13,1.13-2.06,1.13-4.13-1.37-2.06-1.37-4.13,0-2.07,0-4.13,1.31-2.07,1.31-4.13-.55-2.07-.55-4.13-.07-2.07-.07-4.14-.21-2.06-.21-4.13,0-2.06,0-4.13-.19-2.07-.19-4.13.65-2.07.65-4.13-.19-2.07-.19-4.14.24-2.06.24-4.13,0-2.06,0-4.13-.93-2.06-.93-4.13,1.14-2.07,1.14-4.13.25-2.07.25-4.13-1-2.07-1-4.14.94-2.06.94-4.13-.43-2.06-.43-4.13-.88-2.06-.88-4.13.47-2.07.47-4.13-.26-2.07-.26-4.14.2-2.07.2-4.13-.36-2.07-.36-4.14-.1-2.07-.1-4.14.44-2.07.44-4.13.38-2.07.38-4.14.32-2.07.32-4.13.07-2.07.07-4.14-.7-2.07-.7-4.14-.83-2.22.64-3.69,1.6.21,3.66.21,2.07-.56,4.13-.56,2.06.6,4.13.6,2.06-.48,4.12-.48,2.07-.34,4.13-.34,2.06-.21,4.13-.21,2.06,1,4.12,1,2.07-.06,4.13-.06,2.06-.49,4.13-.49S49,1232,51,1232s2.07,1.3,4.13,1.3,2.07-.52,4.13-.52,2.06-.43,4.13-.43,2.06.17,4.12.17,2.07.6,4.13.6,2.07-.27,4.13-.27,2.06.38,4.13.38,2.06-1,4.12-1,2.06.79,4.12.79,2.06.31,4.13.31,2.06-.06,4.12-.06,2.06-.38,4.12-.38,2.07-.27,4.13-.27,2.06.36,4.13.36,2.06.17,4.12.17,2.07-.05,4.13-.05,2.06-.65,4.12-.65,2.07-.09,4.13-.09,2.06-.27,4.13-.27,2.06.58,4.12.58,2.07-.13,4.13-.13,2.06.61,4.13.61,2.06-.5,4.12-.5,2.07-.7,4.13-.7,2.07.79,4.13.79,2.07-.62,4.13-.62,2.06.77,4.13.77,2.06-.73,4.13-.73,2.06-.24,4.12-.24,2.07.7,4.13.7,2.07.44,4.13.44,2.07-.52,4.13-.52,2.07.14,4.13.14,2.07.42,4.13.42,2.07-.6,4.13-.6,2.07.5,4.13.5,2.07-.58,4.13-.58,2.07.1,4.13.1,2.07-.13,4.13-.13,2.06.1,4.13.1,2.06-.37,4.13-.37,2.06.56,4.12.56,2.07.25,4.14.25,2.06.18,4.13.18,2.06-.9,4.13-.9,2.06.26,4.13.26,2.07-.54,4.13-.54,2.07,1,4.14,1,2.06-.75,4.13-.75,2.06.69,4.13.69,2.07-.76,4.14-.76,2.06.17,4.13.17,2.65-1.13,4.1.35.39,2.06.39,4.16-.4,2.1-.4,4.2-.34,2.1-.34,4.2.29,2.1.29,4.2-.31,2.1-.31,4.2-.29,2.11-.29,4.21.59,2.1.59,4.2.71,2.1.71,4.2-.55,2.1-.55,4.21-.4,2.1-.4,4.2-.1,2.1-.1,4.21,1.15,2.1,1.15,4.2-.65,2.1-.65,4.2.28,2.11.28,4.21-.16,2.1-.16,4.2-.5,2.1-.5,4.21-.2,2.1-.2,4.2,0,2.1,0,4.21-.13,2.1-.13,4.2,1.17,2.11,1.17,4.21,0,2.1,0,4.21-.11,2.1-.11,4.2-.51,2.11-.51,4.21-.31,2.11-.31,4.21-.26,2.1-.26,4.2.43,2.11.43,4.21.52,2.11.52,4.21.26,2.1.26,4.2-1.2,2.11-1.2,4.21,1,2.1,1,4.2-.66,2.11-.66,4.21.67,2.11.67,4.21-.54,2.11-.54,4.21.22,2.1.22,4.21-.14,2.1-.14,4.21.43,2.1.43,4.21-1,2.1-1,4.21.19,2.1.19,4.21.24,2.11.24,4.22"/><path class="cls-2" d="M470.6,317.42c-1.44,1.46-2.34-.32-4.39-.32s-2.06-.11-4.11-.11-2.06-.27-4.11-.27-2.06-.08-4.11-.08-2.06.49-4.11.49-2.06-.43-4.11-.43-2.05.45-4.11.45-2.05.63-4.11.63-2.05-.51-4.11-.51-2.06-.36-4.11-.36-2.06.88-4.11.88-2.06-.27-4.11-.27-2.06.13-4.11.13-2.06-1-4.12-1-2,.29-4.11.29-2.05.46-4.11.46-2.05,0-4.11,0-2.06.26-4.11.26-2.06-.89-4.11-.89-2.06.39-4.12.39-2.05-.62-4.11-.62-2.06.65-4.11.65-2.06.34-4.12.34-2.05-.4-4.11-.4-2.06-.05-4.11-.05-2.06.76-4.12.76-2.05-1-4.11-1-2.06.39-4.12.39-2.05-.06-4.11-.06H347c-2.06,0-2.06-.3-4.11-.3s-2.06.95-4.11.95-2.06-.73-4.12-.73-2.06.54-4.11.54-2.06-.18-4.12-.18-2.06.37-4.11.37-2.06-.51-4.12-.51-2.06-.64-4.12-.64-2.06,1-4.11,1-2.06.07-4.12.07-2.06-1.27-4.12-1.27-2.06,1.29-4.12,1.29-3.07,1.26-4.52-.2.8-2.46.8-4.53.06-2.07.06-4.13-.86-2.07-.86-4.14-.28-2.06-.28-4.13.59-2.07.59-4.13.71-2.07.71-4.14-1-2.06-1-4.13,0-2.07,0-4.13.13-2.07.13-4.14.88-2.06.88-4.13-1.33-2.07-1.33-4.13.18-2.07.18-4.14,1.11-2.06,1.11-4.13-.61-2.07-.61-4.14,0-2.07,0-4.13-.17-2.07-.17-4.14.09-2.06.09-4.13-.51-2.07-.51-4.13.41-2.07.41-4.14.75-2.07.75-4.13-.09-2.07-.09-4.14-.33-2.07-.33-4.13.46-2.07.46-4.14-.13-2.07-.13-4.13-.75-2.07-.75-4.14.87-2.06.87-4.13-.22-2.07-.22-4.14-.93-2.06-.93-4.13.38-2.07.38-4.14.2-2.06.2-4.13-.29-2.06-.29-4.13.43-2.06.43-4.13-.13-2.06-.13-4.13,0-2.06,0-4.13-.53-2.07-.53-4.13,0-2.07,0-4.14.84-2.06.84-4.13-.44-2.07-.44-4.14.39-2.06.39-4.13-.83-2.06-.83-4.13-.18-2.07-.18-4.13.57-2.07.57-4.14-.1-2.07-.1-4.14.38-2.06.38-4.13-.25-2.07-.25-4.13.58-2.07.58-4.14-.4-2.07-.4-4.14-.78-2.06-.78-4.13,1-2.07,1-4.14-1-2.07-1-4.13.68-2.07.68-4.14.28-2.07.28-4.14.14-2.06.14-4.13-.44-2.07-.44-4.14.66-2.07.66-4.14-.73-2.07-.73-4.14-.11-2.06-.11-4.13.39-2.07.39-4.14-.29-2.07-.29-4.14-.6-2.07-.6-4.14.31-2.07.31-4.13.73-2.07.73-4.14-.27-2.07-.27-4.14.27-2.07.27-4.14-.07-2.06-.07-4.13,0-2.07,0-4.14-1-2.07-1-4.14S293.88,38,293.88,36s-.23-2.08-.23-4.15-.34-2.07-.34-4.14.49-2.07.49-4.14-.11-2.07-.11-4.14-.66-2.07-.66-4.14.28-2.07.28-4.15S292.89,9,292.89,7s-1.23-3,.23-4.48,2.39-.12,4.44-.12,2.06.62,4.11.62,2.06-.67,4.11-.67,2.06.62,4.11.62S312,2.31,314,2.31s2.06,1,4.11,1S320.17,3,322.22,3s2-.49,4.11-.49,2.06.38,4.11.38,2.06,0,4.11,0,2.06,0,4.11,0,2.06-.09,4.11-.09,2.06.49,4.11.49,2.06-1,4.12-1,2.05.29,4.11.29,2.05,0,4.11,0,2.06.25,4.11.25,2.06-.76,4.12-.76,2.05.38,4.11.38,2.05-.31,4.11-.31,2.06.69,4.11.69,2.06.39,4.11.39,2.06.06,4.12.06,2.06-.62,4.11-.62,2.06.63,4.12.63h4.11c2.06,0,2.06-.32,4.11-.32s2.06-.55,4.12-.55,2.06.25,4.11.25,2.06.83,4.11.83S418.86,3,420.91,3,423,2.33,425,2.33s2.05.69,4.11.69,2.06-.37,4.11-.37,2.06-.27,4.12-.27,2.06,0,4.12,0,2.05.13,4.11.13,2.06.94,4.12.94,2.06-1.17,4.11-1.17,2.06.67,4.12.67,2.06-.72,4.12-.72,2.06.73,4.12.73,3.06-1.93,4.51-.47-.48,2.45-.48,4.51.54,2.07.54,4.14.1,2.06.1,4.13-.82,2.07-.82,4.13.56,2.07.56,4.14-.13,2.06-.13,4.13.46,2.07.46,4.14-1.26,2.06-1.26,4.13,1,2.07,1,4.13.31,2.07.31,4.14-.24,2.06-.24,4.13.05,2.07.05,4.13-.07,2.07-.07,4.14-.35,2.07-.35,4.14.3,2.06.3,4.13S470,66.89,470,69s.33,2.07.33,4.13.74,2.07.74,4.14-.26,2.07-.26,4.13-.71,2.07-.71,4.14.15,2.06.15,4.13,0,2.07,0,4.13.68,2.07.68,4.14S470,100,470,102s.92,2.07.92,4.13-.59,2.07-.59,4.14-.18,2.06-.18,4.13-.16,2.07-.16,4.14,1,2.07,1,4.14-.74,2.06-.74,4.13S470,128.92,470,131s1,2.07,1,4.13-.49,2.06-.49,4.13-.43,2.06-.43,4.13-.38,2.07-.38,4.13-.11,2.07-.11,4.14.41,2.07.41,4.13.62,2.07.62,4.14.19,2.06.19,4.13,0,2.06,0,4.13-.25,2.07-.25,4.13.29,2.07.29,4.14-.36,2.07-.36,4.14.14,2.06.14,4.13.1,2.07.1,4.13-1.11,2.07-1.11,4.14.45,2.07.45,4.14.1,2.07.1,4.13.34,2.07.34,4.14.28,2.07.28,4.13.24,2.07.24,4.14-1.17,2.07-1.17,4.14.93,2.06.93,4.13,0,2.07,0,4.14-.13,2.07-.13,4.14-.82,2.06-.82,4.13,0,2.07,0,4.14,1.07,2.07,1.07,4.14-.3,2.07-.3,4.14.47,2.07.47,4.14-1.37,2.07-1.37,4.14.58,2.06.58,4.13-.3,2.07-.3,4.14,0,2.07,0,4.13-.08,2.07-.08,4.14.72,2.07.72,4.14.41,2.07.41,4.13-.69,2.07-.69,4.14.54,2.07.54,4.14.21,2.08.21,4.15-1.32,2.07-1.32,4.14.52,2.07.52,4.14.3,2.07.3,4.14-.11,2.07-.11,4.14-.69,2.16-.2,4.17C470.78,315.32,472.06,316,470.6,317.42Z"/><path d="M395.81,1010.33a3.83,3.83,0,0,0-.9-2.9,4,4,0,0,0-2.9-1.13,4.48,4.48,0,0,0-4,4,4,4,0,0,0,1.08,2.93c.75.75,1.78,1.77,2.93,1.77a5,5,0,0,0,3.1-1.6C395.86,1012.68,395.81,1011.47,395.81,1010.33Z"/><path class="cls-3" d="M193.19,1307.76a27.41,27.41,0,0,1,5.9-.4c1.71,0,3.71.28,5.89.49,1.85.18,3.69,1,5.73,1.44a51.09,51.09,0,0,1,5.76,1.1c1.84.59,4.12.29,5.93,1.15s2.9,2.86,4.54,4,3.91,1.47,5.33,2.9,2.09,3.4,3.21,5.1a32.34,32.34,0,0,1,2.42,5.38,35.38,35.38,0,0,1,2.06,5.51c.43,1.79.11,3.73.41,5.6s1,3.6,1.16,5.47.83,3.69.9,5.56-.21,3.75-.23,5.62.61,3.79.5,5.64-.31,3.78-.49,5.62-1.81,3.58-2.06,5.4-.16,3.79-.48,5.57-.79,3.72-1.19,5.46c-.44,1.94,0,4-.46,5.68-.57,2-2.17,3.45-2.76,5-.84,2.24-.58,4.58-1.35,5.64-1.14,1.58-3.37,2-4.81,3.12s-2.57,3.13-4.34,3.74a21.49,21.49,0,0,1-5.66,1.17c-1.79.09-3.67-1-5.59-1.33-1.76-.3-3.37-1.25-5.2-1.88a40.39,40.39,0,0,1-5.18-1.92c-1.61-.81-3.66-1-5.29-2s-3.12-2-4.64-3.2-2.5-2.77-3.92-4-2.22-3-3.54-4.35-3.17-2.09-4.41-3.55"/><path class="cls-3" d="M222.48,1303.24c-2.77.48-1.86,1.34-5.11,2.46a45.4,45.4,0,0,0-5.3,1.7,49.88,49.88,0,0,0-5.08,2.34,47.3,47.3,0,0,0-4.77,3,46.47,46.47,0,0,0-4,4c-1.28,1.29-3.06,2.27-4.22,3.81a43,43,0,0,0-2.85,4.91,40.66,40.66,0,0,0-2.5,5.08c-.65,1.68-.13,3.79-.59,5.68s-2,3.39-2.39,5.24-.69,3.71-1,5.57-.51,3.75-.72,5.61.94,3.88.77,5.74-.35,3.75-.49,5.6-.76,3.74-.9,5.58,0,3.81-.16,5.64,0,3.83-.24,5.65-1.73,3.62-2,5.42-.83,3.69-1.24,5.45-.12,3.94-.75,5.62c-.69,1.84-2,3.26-3,4.78a18.91,18.91,0,0,1-3.26,4.54,23.88,23.88,0,0,1-5,3.58,28.25,28.25,0,0,1-5.74,2.43,32.94,32.94,0,0,1-6.21.27,37.54,37.54,0,0,1-6.18,0c-2.07-.29-3.88-1.77-5.76-2.34-2-.63-4.13-.94-5.81-1.83a18.07,18.07,0,0,1-4.57-4"/><path class="cls-3" d="M168.26,1311c-2.91,1-2.67.37-5.77,2.39-1.49,1-2.34,3.28-4,4.85-1.39,1.3-3.38,2.24-4.67,4-1.14,1.57-2.76,3.11-3.67,5.08a35.25,35.25,0,0,0-1.73,6,36.57,36.57,0,0,0-1,6.14c-.14,2,1,4,.82,5.91s-1.26,3.84-1.4,5.76.45,4,.32,5.88-.07,4-.2,5.85-1.85,3.83-2,5.71.85,4,.73,5.91c-.14,2-.73,4-.85,5.79-.14,2.1-.42,4-.53,5.82-.15,2.23-.18,4.19-.29,5.83-.24,3.71-.2,2.91-.39,5.83"/><path class="cls-3" d="M193.32,1349.55c2.74-.08,2.23.88,5.36,1.44,1.61.29,3.59.06,5.43.78a21.06,21.06,0,0,1,5,2.45c1.42,1,2.26,2.81,3.32,4.4"/><path class="cls-3" d="M237.69,1349.26c-2.49.67-1.88,1.5-4.5,2.8a23.32,23.32,0,0,0-4.39,2.62,12.54,12.54,0,0,0-3,3.89c-.65,3-1.23,2.77-.53,6a21.77,21.77,0,0,0,2.52,5.65,12.44,12.44,0,0,0,4.12,4.63"/><path class="cls-3" d="M203,1336.25c2.57.52,1.93,1.27,4.67,2.42a21.81,21.81,0,0,1,4.55,2.29,12.58,12.58,0,0,1,3.79,3.38"/><path class="cls-3" d="M225.32,1382.86c-2.8-1.41-2.36-2.28-5.15-3.69s-3.56.1-6.36-1.31-2.5-2-5.3-3.39-2.38-2.25-5.18-3.65c0,0,.25,3.1.7,6.24.25,1.73-.27,3.84.51,5.64a12.45,12.45,0,0,0,3.22,4.77,10.45,10.45,0,0,0,5.42,1.85c1.61.19,3.67.86,5.82.37"/><path class="cls-3" d="M157.92,1422c1.33,2.14.72,2,2.78,4.2a33.91,33.91,0,0,0,3.54,3.65,33.19,33.19,0,0,0,4.15,3,30,30,0,0,0,4.72,1.93,27.1,27.1,0,0,0,4.86,1.57,28.81,28.81,0,0,0,5.11.46,31.9,31.9,0,0,0,5.06-.8c1.49-.29,2.91-.87,4.34-1.17s3-.66,4.38-1,3-.75,4.35-1.1c1.55-.39,2.87-1.29,4.2-1.65,1.64-.44,3.12-.73,4.34-1.08a26.71,26.71,0,0,1,5.11-.93"/><path class="cls-3" d="M223.47,1412.65c2.29-.81,1.82-.37,4.68-1.39,1.31-.47,2.93-.84,4.66-1.46,1.43-.5,2.92-1.2,4.55-1.78,1.47-.52,3.29-.29,4.87-.86s2.9-1.48,4.46-2,3-1.18,4.57-1.73,3.29-.52,4.81-1.07,2.8-1.94,4.3-2.48,3.26-.77,4.72-1.3c1.65-.6,2.91-1.93,4.3-2.44,1.79-.66,3.8,0,5-.48,1.62-.61,2.44-2.46,3.68-3.42s2.84-1.62,3.81-3a25,25,0,0,0,2.13-4.4,42.33,42.33,0,0,0,1.74-4.56c.45-1.46,1-3,1.45-4.68.36-1.5.59-3.12.94-4.81.33-1.52,1.18-3,1.51-4.69s.34-3.2.66-4.87-.19-3.3.13-5,1.7-2.94,2-4.6-.2-3.18.09-4.64.26-3.1.55-4.54.79-3,1.08-4.45,1.61-2.84,1.9-4.27-.21-3.23.08-4.64c.32-1.6.4-3.13.68-4.52.33-1.63.94-3.06,1.21-4.4.35-1.74,1.37-3.09,1.63-4.32.6-3,.93-2.31.21-4.47-.65-1.95-.64-1.61-2-3.52-.72-1-1.89-2-2.48-3.27a12.27,12.27,0,0,1-1-4,8.9,8.9,0,0,1,.87-5,38.46,38.46,0,0,1,2.94-4.12c1-1.4,2.7-2.29,3.69-3.44a46.09,46.09,0,0,0,3-3.94"/><path class="cls-3" d="M305.18,1298.09c1.93-1.14,1.56-1.75,3.49-2.9s2.37-.39,4.3-1.53,1.61-1.68,3.54-2.82,2.08-.89,4-2,2-1.06,3.91-2.21,1.44-2,3.38-3.1"/><path class="cls-3" d="M338.6,1298.07c-1.86,1.27-1.42,1.93-3.28,3.19s-1.64,1.6-3.51,2.86-2.17.81-4,2.07-1.44,1.89-3.31,3.15-2.1.91-4,2.17-1.95,1-3.46,2.69-.16,1.39-.39,4.36c-.1,1.35-1,2.88-1.1,4.67-.11,1.46.41,3.09.28,4.78-.11,1.5-.9,3-1,4.67s.49,3.17.37,4.79-.21,3.13-.33,4.73-.28,3.14-.4,4.72-.29,3.16-.41,4.73.11,3.2,0,4.76-.81,3.14-.92,4.69-1,3.14-1.16,4.68.83,3.3.72,4.81c-.13,1.67,0,3.27-.11,4.75-.13,1.74-1.33,3.25-1.43,4.65-.15,2,0,3.65-.11,4.75-.1,1.5.3,3.22-.1,4.88-.36,1.49-1.41,2.87-2,4.45a44.69,44.69,0,0,1-1.6,4.58c-.71,1.4-2.22,2.38-3.1,3.77s-1.36,2.91-2.35,4.22-1.92,2.55-3,3.76-2,2.5-3.23,3.61-2.77,1.68-4.07,2.67-2.22,2.41-3.6,3.27-2.71,1.84-4.1,2.71-2.62,2-4,2.85-3,1.42-4.38,2.27-3.32.87-4.7,1.71-2.32,2.56-3.69,3.39-2.93,1.57-4.29,2.39-2.83,1.77-4.18,2.58-2.76,1.93-4.09,2.73c-1.52.9-3.44.89-4.73,1.66-1.6,1-3.11,1.64-4.31,2.35-2.67,1.58-1.71,1.91-3.83,3.15"/><path class="cls-3" d="M318.35,1303a6.09,6.09,0,0,0-4.3-1.08,5.48,5.48,0,0,0-4,2.09c-.64.86-.72,2.43-1,4.16"/><path class="cls-3" d="M291.14,1323.72c2.36.8,2.4.69,4.76,1.49s2.22,1.21,4.58,2,2.54.3,4.9,1.1,2.33.88,4.7,1.68,2.28,1,4.65,1.83,2.24,1.17,4.61,2"/><path class="cls-3" d="M223.93,1413.21c.29,2.38-.58,1.88-.64,4.81,0,1.38.85,3.06.64,4.84-.17,1.48-1.4,2.9-1.78,4.55a40.8,40.8,0,0,1-1.41,4.51,34.07,34.07,0,0,1-1.42,4.55,31.92,31.92,0,0,1-2.36,4.15,35,35,0,0,1-6.79,6.67,32.38,32.38,0,0,1-4.25,2.12,32.19,32.19,0,0,1-4.24,2.1c-1.44.52-2.8,1.49-4.43,1.87s-3.07,1-4.57,1.27-3.22.11-4.73.2-3.22.45-4.74.38-3.08-1.09-4.59-1.35a34,34,0,0,1-4.42-1.41,32.18,32.18,0,0,1-4.32-1.59c-1.42-.68-3.39-.41-4.69-1.28a37.68,37.68,0,0,1-3.62-3.11c-1.15-1-1.5-2.87-2.55-4.06a41.34,41.34,0,0,1-3.22-3.38c-.89-1.25-1.79-2.52-2.59-3.9s-1.66-2.62-2.34-4.07-.57-3.1-1.16-4.59-2.35-2.45-2.84-4-.76-3-1.18-4.58-.54-3.08-.88-4.64"/><path class="cls-3" d="M231.13,1428.46c1.37,2.15,1.17,1.42,2.91,4.21.76,1.21,1,3.09,2,4.76.82,1.32,1.52,2.89,2.49,4.48.83,1.36,1.79,2.78,2.72,4.32s2.07,2.65,3,4.18,2.31,2.53,3.21,4,.52,3.4,1.12,4.82a31.72,31.72,0,0,1,1.4,4.49,32.31,32.31,0,0,1,1.36,4.56c.18,1.6-.34,3.16-.39,4.75s.86,3.25.63,4.84-.61,3.14-1,4.71-1.07,3-1.54,4.56-.37,3.23-.9,4.76-1.25,2.94-1.81,4.45-1,3-1.59,4.52c-.49,1.35-2.11,2.38-2.66,3.88s.1,3.23-.43,4.7-2.19,2.42-2.71,3.87-.65,3-1.16,4.43-.69,3-1.2,4.42-1.19,2.85-1.69,4.25-1.37,2.81-1.85,4.18c-.55,1.53-.4,3.21-.87,4.54-.58,1.62-.71,3.2-1.15,4.43-.95,2.68-1.08,2-1.83,4.19"/><path class="cls-3" d="M145.17,1413.94c-2.32.33-1.82-.09-4.57.67-1.31.37-2.67,1.17-4.3,1.79-1.37.52-3.39-.16-4.87.57a46.61,46.61,0,0,0-3.87,2.78,34.91,34.91,0,0,0-3.61,3,30.28,30.28,0,0,0-3.48,3.15,26.19,26.19,0,0,0-2.53,4,25,25,0,0,0-2,4.23c-.5,1.42-.26,3-.51,4.65s-.91,2.94-.91,4.59"/><path class="cls-4" d="M128.55,1541.93c-2.33-.8-.86-2.49-1.21-5.36a24.24,24.24,0,0,1,.44-4.93,19,19,0,0,1,1.34-4.64,17.45,17.45,0,0,1,2.44-4.1c1-1.34,1.39-3,2.47-3.69a10.19,10.19,0,0,1,4.24-1.5,12.64,12.64,0,0,1,4.53.07c2.38.62,1.78,2.92,3.76,2,2.19-1,.19-1.86,1.13-4.5.48-1.37,1.69-2.64,2.56-4.15a17.94,17.94,0,0,1,2.6-4,13,13,0,0,1,4.12-2.37,13.37,13.37,0,0,1,4.69-1.27,9.32,9.32,0,0,1,4.67.93c1.54.67,3.16,1.15,4.34,2.35a21.49,21.49,0,0,1,3.07,4c.92,1.53,1.16,3.32,1.73,4.72,1.1,2.7-.5,4.38,2,4.36s1.25-1.49,2.68-4c.76-1.31.82-3.39,2.05-4.67s2.92-1.61,4.46-2.34,2.91-2.06,4.72-2c1.49,0,2.87,1.6,4.63,2.3a14.34,14.34,0,0,1,3.81,2.23c1.35,1,3,1.52,3.72,2.75a12.38,12.38,0,0,1,1.5,4.51,17,17,0,0,1-.35,4.72c-.51,2.56-3.9,3.12-1.72,3.85,2.52.85,1.85-.93,4.49-2.13a16.53,16.53,0,0,1,5.07-1.15c1.79-.2,3.77-.8,5.28.22a10.23,10.23,0,0,1,2.92,3.77,9.85,9.85,0,0,1,1.12,4.46,15.19,15.19,0,0,1-.44,4.61c-.66,2.54.61,3.53-1.63,4.23s-2.35.45-4.75.45-2.39.25-4.79.25-2.39-.95-4.79-.95-2.4.76-4.79.76-2.4.29-4.8.29-2.39-.36-4.79-.36-2.4-.38-4.79-.38-2.4-.4-4.79-.4-2.4.4-4.79.4-2.4.14-4.79.14-2.4.64-4.8.64-2.39-.82-4.79-.82-2.4.79-4.8.79-2.39-.38-4.79-.38H148c-2.4,0-2.4-.21-4.8-.21s-2.4-.35-4.8-.35a17.82,17.82,0,0,0-4.78.37C131,1541.86,130.82,1542.7,128.55,1541.93Z"/><path class="cls-3" d="M138.82,1424.43c1.45,2,.38,1.77,1.61,4.58.54,1.26,2.45,2.3,3,4.09.41,1.42.47,3.13.77,4.87a47.1,47.1,0,0,1,1,4.84c.11,1.53-1.25,3.19-1.29,4.9,0,1.55.39,3.16.22,4.85-.15,1.49-.07,3.12-.29,4.79s-.66,3.08-.9,4.71-.27,3.17-.53,4.78-.57,3.13-.84,4.72.09,3.27-.19,4.84-1.12,3.08-1.41,4.63-.87,3.13-1.16,4.66-.49,3.24-.78,4.74c-.33,1.67-.26,3.33-.55,4.79-.35,1.77-.45,3.4-.73,4.74-.6,2.93-1.25,2.19-1.75,4.53"/><path d="M181.48,1386.35c-1.89,1.27.69,1.72.87,4.47.09,1.32-.6,2.93-.44,4.59.14,1.44,1.09,2.87,1.31,4.42s.08,3.05.37,4.54.63,3,1,4.41a28,28,0,0,0,1.38,4.31,13.11,13.11,0,0,0,2.34,3.77,11.93,11.93,0,0,0,3.93,2.06c2.32,1,2.71,2.67,4.25,1.11,1.91-1.94,1.69-2.19,3-4.55s.94-2.6,2.29-5,1.74-2.15,3.08-4.51a38.4,38.4,0,0,0-4.37-2.12c-1.19-.48-2.86-.46-4.32-1.27-1.22-.67-2-2.16-3.3-3.09s-2.89-1-4-2.1a31.81,31.81,0,0,1-3.33-3.08c-.91-1.12-1.25-2.75-2-4.08A29.55,29.55,0,0,1,181.48,1386.35Z"/><path class="cls-3" d="M181.48,1386.35c-1.89,1.27.69,1.72.87,4.47.09,1.32-.6,2.93-.44,4.59.14,1.44,1.09,2.87,1.31,4.42s.08,3.05.37,4.54.63,3,1,4.41a28,28,0,0,0,1.38,4.31,13.11,13.11,0,0,0,2.34,3.77,11.93,11.93,0,0,0,3.93,2.06c2.32,1,2.71,2.67,4.25,1.11,1.91-1.94,1.69-2.19,3-4.55s.94-2.6,2.29-5,1.74-2.15,3.08-4.51a38.4,38.4,0,0,0-4.37-2.12c-1.19-.48-2.86-.46-4.32-1.27-1.22-.67-2-2.16-3.3-3.09s-2.89-1-4-2.1a31.81,31.81,0,0,1-3.33-3.08c-.91-1.12-1.25-2.75-2-4.08A29.55,29.55,0,0,1,181.48,1386.35Z"/><path d="M209.77,1308.47c.88-2.1,1.6-.7,4.39-.55,1.31.08,2.87.36,4.56.61,1.4.21,2.83,1,4.39,1.36a40.44,40.44,0,0,1,4.36,1.32,35.83,35.83,0,0,1,4.18,1.8,33.89,33.89,0,0,1,3.76,2.57c1.2.86,2.85,1.29,4,2.37a33.41,33.41,0,0,1,3.1,3.44c.9,1.16,1.26,2.78,2,4.15s1.3,2.86,2,4.2,1.56,2.73,2.14,4.1.7,3.08,1.18,4.49,1.67,2.77,2,4.21,1.3,3,1.56,4.44.09,3.19.25,4.68.06,3.15.13,4.65.33,3.14.33,4.65.21,3.13.18,4.65-.74,3.1-.74,4.62.82,3,.79,4.53-.46,3-.56,4.52-.74,3-.94,4.45a37.05,37.05,0,0,1-1.07,4.36,22.62,22.62,0,0,1-1.6,4.12c-.66,1.42-.67,3.18-1.66,4.26a11.93,11.93,0,0,1-3.76,2.66c-1.63.74-3.07,1.59-4.46,2.1a46.08,46.08,0,0,1-4.77,1.26,12.18,12.18,0,0,1-5,.43c1.94-1.08,1.73-.3,3.43-2.79a33.36,33.36,0,0,0,1.87-4.08,33.8,33.8,0,0,0,2-4c.42-1.28.82-2.74,1.2-4.31.33-1.34.78-2.79,1.07-4.35.24-1.38-.12-3,.08-4.5s.31-2.88.44-4.43.82-3.07,1-4.63-.41-3.18-.29-4.74,1.18-3.06,1.28-4.61-.93-3.21-.85-4.76.9-3.12.93-4.67-1-3.14-1-4.68,1.17-3.22,1-4.76-.23-3.2-.46-4.72-1.59-2.91-2-4.4a37.2,37.2,0,0,0-1.55-4.38,31.3,31.3,0,0,0-1.93-4.19,26.72,26.72,0,0,0-2.62-3.8c-1-1.19-1.66-2.68-2.88-3.71a28,28,0,0,0-3.65-3c-1.29-.77-3.1-.65-4.6-1.28a37,37,0,0,0-4.25-2,46.35,46.35,0,0,0-4.55-1.19C212.78,1308.63,211.39,1308.64,209.77,1308.47Z"/><path class="cls-3" d="M209.77,1308.47c.88-2.1,1.6-.7,4.39-.55,1.31.08,2.87.36,4.56.61,1.4.21,2.83,1,4.39,1.36a40.44,40.44,0,0,1,4.36,1.32,35.83,35.83,0,0,1,4.18,1.8,33.89,33.89,0,0,1,3.76,2.57c1.2.86,2.85,1.29,4,2.37a33.41,33.41,0,0,1,3.1,3.44c.9,1.16,1.26,2.78,2,4.15s1.3,2.86,2,4.2,1.56,2.73,2.14,4.1.7,3.08,1.18,4.49,1.67,2.77,2,4.21,1.3,3,1.56,4.44.09,3.19.25,4.68.06,3.15.13,4.65.33,3.14.33,4.65.21,3.13.18,4.65-.74,3.1-.74,4.62.82,3,.79,4.53-.46,3-.56,4.52-.74,3-.94,4.45a37.05,37.05,0,0,1-1.07,4.36,22.62,22.62,0,0,1-1.6,4.12c-.66,1.42-.67,3.18-1.66,4.26a11.93,11.93,0,0,1-3.76,2.66c-1.63.74-3.07,1.59-4.46,2.1a46.08,46.08,0,0,1-4.77,1.26,12.18,12.18,0,0,1-5,.43c1.94-1.08,1.73-.3,3.43-2.79a33.36,33.36,0,0,0,1.87-4.08,33.8,33.8,0,0,0,2-4c.42-1.28.82-2.74,1.2-4.31.33-1.34.78-2.79,1.07-4.35.24-1.38-.12-3,.08-4.5s.31-2.88.44-4.43.82-3.07,1-4.63-.41-3.18-.29-4.74,1.18-3.06,1.28-4.61-.93-3.21-.85-4.76.9-3.12.93-4.67-1-3.14-1-4.68,1.17-3.22,1-4.76-.23-3.2-.46-4.72-1.59-2.91-2-4.4a37.2,37.2,0,0,0-1.55-4.38,31.3,31.3,0,0,0-1.93-4.19,26.72,26.72,0,0,0-2.62-3.8c-1-1.19-1.66-2.68-2.88-3.71a28,28,0,0,0-3.65-3c-1.29-.77-3.1-.65-4.6-1.28a37,37,0,0,0-4.25-2,46.35,46.35,0,0,0-4.55-1.19C212.78,1308.63,211.39,1308.64,209.77,1308.47Z"/><path d="M197,1386.2a1.63,1.63,0,0,0-.43-1.34c-.37-.38-.77-.94-1.34-.94s-.95.58-1.32,1-1.06.75-1.06,1.32a2.44,2.44,0,0,0,.9,1.48,2.14,2.14,0,0,0,1.48.61,2.08,2.08,0,0,0,1.45-.64C197.05,1387.27,197,1386.77,197,1386.2Z"/><path class="cls-3" d="M38.17,1407.11c1.5,1.52,2.49,3.47,4,4.8s3.08,2.94,4.72,4.12,4.16,1.3,5.91,2.33,3.17,3,5,3.82a55,55,0,0,0,5.87,2.16c2,.65,4.2.5,6.19.85s4.09,1.36,6.1,1.4a36.53,36.53,0,0,0,6.35.06c2.1-.34,4-1.64,5.89-2.38a25.71,25.71,0,0,0,5.46-3,23.84,23.84,0,0,0,4.4-4.35,18.94,18.94,0,0,0,3.55-5,57.22,57.22,0,0,0,2.5-5.69c.59-1.83.62-4,1.15-6.11.48-1.91,1.67-3.79,2.08-5.88s-.9-4.27-.6-6.35,2.1-3.87,2.29-5.94-.16-4.15-.09-6.22-.32-4.12-.37-6.18-.93-4-1.12-6.08.09-4.13-.27-6.14-1.29-3.9-1.83-5.86c-.62-2.22-.71-4.47-1.67-6.34s-1.85-4.19-3.21-5.84-4-2.2-5.68-3.56-3-3.35-4.89-4.41a46.87,46.87,0,0,0-5.86-3.09,59.41,59.41,0,0,0-6.24-2.37c-2.18-.55-4.49-.62-6.59-.95-2.29-.36-4.58.11-6.64-.05-2.44-.18-4.65-1.35-6.56-1.35-4,0-3.31.49-6.6.66a29,29,0,0,0-6.27.19c-2,.43-3.63,2.27-5.49,3.13a30.45,30.45,0,0,0-5.25,3.06c-1.62,1.2-2.64,3-4.08,4.51a39.33,39.33,0,0,0-4.1,4.43c-1.17,1.65-3.53,2.63-4.51,4.47s-1.32,4-2.08,5.89a60.58,60.58,0,0,0-1.46,6c-.54,2-1.67,3.83-2,5.86s.26,4.17.11,6.22-.57,4.07-.52,6.13.78,4,1,6.06"/><path class="cls-3" d="M79.78,1321.48c-2.7.76-2.29.36-5.42,1.8-1.46.68-2.61,2.61-4.41,3.69-1.5.89-3.61,1.14-5.2,2.33-1.43,1.08-2.43,2.83-3.84,4.17a45.08,45.08,0,0,0-3.62,4.25c-1.14,1.41-2.76,2.55-3.76,4.2a41.17,41.17,0,0,0-2.26,5.16,40.1,40.1,0,0,0-2,5.24c-.48,1.74-1.42,3.5-1.68,5.43s.86,4,.69,5.9-1.13,3.78-1.22,5.72-.75,3.85-.8,5.78.3,3.89.28,5.81-.08,3.88-.09,5.8,1.23,3.9,1.21,5.81-1,3.88-1.12,5.77.55,4,.41,5.84-.15,4-.43,5.82-2.21,3.56-2.68,5.36-.05,4.1-.82,5.79a22.59,22.59,0,0,1-3.39,4.71,17.94,17.94,0,0,1-4.3,3.72"/><path class="cls-3" d="M94.21,1324.93c2.91,0,2.2-.4,5.34,1.49,1.37.82,2.48,2.32,4,4,1.15,1.25,3.07,2.16,4.22,4a45.63,45.63,0,0,1,2.56,5.27,51.93,51.93,0,0,1,2.33,5.38c.6,1.88,0,4.08.46,6s1.29,3.72,1.63,5.64.44,3.9.68,5.83.15,3.93.29,5.86,1.45,3.88,1.5,5.81-.89,4-.93,5.89.6,4,.49,5.9c-.12,2-.06,4-.24,5.89-.2,2.1-1.09,4-1.33,5.78-.31,2.21-.28,4.22-.57,5.86a46,46,0,0,1-1.36,5.74"/><path class="cls-3" d="M33.4,1376.36c-1.8-.88-2,.25-4.13.57-1.14.17-2.73-.09-3.79,1.13-.71.82-1,2.25-1.45,3.81s-1.37,3.18-1.23,4.42a7.94,7.94,0,0,0,2,4.26,10.45,10.45,0,0,0,3.94,2.32c2.22.94,2.09,1.35,4.3,1.54"/><path class="cls-3" d="M23.5,1378.13c1.56.25,3.39,2,5.34,3.36a14.76,14.76,0,0,1,3.92,4.51"/><path class="cls-5" d="M92.31,1367.71c0-1,.4-.86,1.18-1.63.36-.36.93-.4,1.7-.59a6.1,6.1,0,0,1,1.79-.21c.62,0,1.34,0,2.15,0s1.39-.09,2.15,0,1.43-.11,2.16,0,1.39.55,2.1.61,1.47-.11,2.17,0,1.47,0,2.15.06,1.49.24,2.14.3c.87.07,1.63-.16,2.15-.12a5.4,5.4,0,0,1,2.28.77,4,4,0,0,1,1.62,1.8,9.32,9.32,0,0,1,.09,2.37,20,20,0,0,1-.27,2.27c-.05.68-.05,1.35-.09,2s.39,1.39.34,2-.14,1.35-.18,2-.31,1.33-.35,2,.21,1.37.17,2-.31,1.34-.35,2a6.25,6.25,0,0,1-.43,2,3.44,3.44,0,0,1-1.32,1.57,5,5,0,0,1-1.93.87,15.13,15.13,0,0,1-2.08-.26c-.64,0-1.31-.22-2-.3l-2.1-.26c-.66-.07-1.35-.34-2.09-.43l-2.11-.24-2.12-.24c-.71-.08-1.44,0-2.13,0s-1.44-.25-2.11-.33-1.53.27-2.16.2a17.35,17.35,0,0,1-2-.7"/><path class="cls-3" d="M92.31,1367.71c0-1,.4-.86,1.18-1.63.36-.36.93-.4,1.7-.59a6.1,6.1,0,0,1,1.79-.21c.62,0,1.34,0,2.15,0s1.39-.09,2.15,0,1.43-.11,2.16,0,1.39.55,2.1.61,1.47-.11,2.17,0,1.47,0,2.15.06,1.49.24,2.14.3c.87.07,1.63-.16,2.15-.12a5.4,5.4,0,0,1,2.28.77,4,4,0,0,1,1.62,1.8,9.32,9.32,0,0,1,.09,2.37,20,20,0,0,1-.27,2.27c-.05.68-.05,1.35-.09,2s.39,1.39.34,2-.14,1.35-.18,2-.31,1.33-.35,2,.21,1.37.17,2-.31,1.34-.35,2a6.25,6.25,0,0,1-.43,2,3.44,3.44,0,0,1-1.32,1.57,5,5,0,0,1-1.93.87,15.13,15.13,0,0,1-2.08-.26c-.64,0-1.31-.22-2-.3l-2.1-.26c-.66-.07-1.35-.34-2.09-.43l-2.11-.24-2.12-.24c-.71-.08-1.44,0-2.13,0s-1.44-.25-2.11-.33-1.53.27-2.16.2a17.35,17.35,0,0,1-2-.7"/><path class="cls-5" d="M53.25,1380.9a2.94,2.94,0,0,0,.67,1.78c.42.54.61,1.38,1.24,1.77a10.14,10.14,0,0,0,2,.86,11.82,11.82,0,0,0,2.13.35c.44.06,1.14-.13,2-.05.58.06,1.19.63,1.9.7s1.31-.23,2-.17,1.27.38,1.94.44,1.34-.22,2-.15l2,.16c.67.07,1.27.7,1.9.77s1.37,0,2,0,1.38.33,1.92.42a9.89,9.89,0,0,0,2,.12c.73,0,1.2-.65,1.72-.91a2.53,2.53,0,0,0,1.25-1.19,5,5,0,0,0,.85-1.69,13.46,13.46,0,0,0,0-1.94c0-.78,0-1.49,0-2.18s.07-1.43.06-2.17.17-1.39.16-2.18-.18-1.38-.18-2.18-.28-1.39-.29-2.19a17.68,17.68,0,0,0,0-1.92,10.11,10.11,0,0,0-.43-1.87,6.67,6.67,0,0,0-.59-1.86,4.13,4.13,0,0,0-1.66-1c-.55-.26-1.09-.83-1.78-.9s-1.39.49-2.13.43-1.34-.34-2.06-.39-1.4.21-2.1.16-1.35-.57-2-.62l-2.09-.14c-.7,0-1.42.22-2.1.17s-1.41-.22-2.07-.27-1.43-.19-2.08-.25-1.49.05-2.09,0a18.2,18.2,0,0,0-2.09-.41,9.39,9.39,0,0,0-2.19.12,5.07,5.07,0,0,0-1.92,1.15,4.32,4.32,0,0,0-1.05,1.94,6.52,6.52,0,0,0-.17,2.16c.05.81.05,1.54.1,2.2s.5,1.5.55,2.16-.35,1.52-.29,2.23.08,1.41.14,2.19.74,1.33.79,2.15C53.13,1379.36,53.2,1380.08,53.25,1380.9Z"/><path class="cls-3" d="M53.25,1380.9a2.94,2.94,0,0,0,.67,1.78c.42.54.61,1.38,1.24,1.77a10.14,10.14,0,0,0,2,.86,11.82,11.82,0,0,0,2.13.35c.44.06,1.14-.13,2-.05.58.06,1.19.63,1.9.7s1.31-.23,2-.17,1.27.38,1.94.44,1.34-.22,2-.15l2,.16c.67.07,1.27.7,1.9.77s1.37,0,2,0,1.38.33,1.92.42a9.89,9.89,0,0,0,2,.12c.73,0,1.2-.65,1.72-.91a2.53,2.53,0,0,0,1.25-1.19,5,5,0,0,0,.85-1.69,13.46,13.46,0,0,0,0-1.94c0-.78,0-1.49,0-2.18s.07-1.43.06-2.17.17-1.39.16-2.18-.18-1.38-.18-2.18-.28-1.39-.29-2.19a17.68,17.68,0,0,0,0-1.92,10.11,10.11,0,0,0-.43-1.87,6.67,6.67,0,0,0-.59-1.86,4.13,4.13,0,0,0-1.66-1c-.55-.26-1.09-.83-1.78-.9s-1.39.49-2.13.43-1.34-.34-2.06-.39-1.4.21-2.1.16-1.35-.57-2-.62l-2.09-.14c-.7,0-1.42.22-2.1.17s-1.41-.22-2.07-.27-1.43-.19-2.08-.25-1.49.05-2.09,0a18.2,18.2,0,0,0-2.09-.41,9.39,9.39,0,0,0-2.19.12,5.07,5.07,0,0,0-1.92,1.15,4.32,4.32,0,0,0-1.05,1.94,6.52,6.52,0,0,0-.17,2.16c.05.81.05,1.54.1,2.2s.5,1.5.55,2.16-.35,1.52-.29,2.23.08,1.41.14,2.19.74,1.33.79,2.15C53.13,1379.36,53.2,1380.08,53.25,1380.9Z"/><path class="cls-3" d="M90,1401.93c-1.49,1.36-3.62,1.29-5.16,1.51a8.79,8.79,0,0,1-4.9-1,16.14,16.14,0,0,1-4.44-2.56c-1.45-1.32-1.92-3.17-2.64-4.39"/><path class="cls-3" d="M62.71,1353.57c1.13-1.11,3.61-1.54,5.89-2.27a14.51,14.51,0,0,1,6-.43"/><path d="M96.11,1408.51a2.08,2.08,0,0,0-.35-1.54,2.14,2.14,0,0,0-1.55-.46c-.57,0-.88.37-1.26.75s-1.08.68-1.08,1.25a2.44,2.44,0,0,0,.78,1.57,2.17,2.17,0,0,0,1.56.46,2.2,2.2,0,0,0,1.57-.46C96.16,1409.71,96.11,1409.09,96.11,1408.51Z"/><path class="cls-3" d="M98.63,1439.37c1.48,2.08.49,1.89,2.37,4.59.82,1.17,1.47,2.81,2.59,4.43.88,1.27,1.89,2.65,2.93,4.18.91,1.32,2.73,2.15,3.74,3.65.91,1.35,1.49,3,2.48,4.5s1.12,3.28,2.1,4.75,2.85,2.07,3.65,3.43,1.66,2.86,2.37,4.28,1,3.18,1.55,4.65.5,3.26,1,4.78,1,3.06,1.28,4.62a78.35,78.35,0,0,1,1.39,9.52c0,1.61.63,3.29.46,4.91s-1.58,3-1.92,4.61-.1,3.26-.59,4.84-1,2.89-1.5,4.38-1.12,2.89-1.57,4.37-1,2.93-1.48,4.39-.78,3-1.21,4.48-1.3,2.9-1.72,4.32c-.47,1.58.26,3.42-.15,4.79-.5,1.68-1.31,3.07-1.68,4.34-.82,2.77-.28,2.33-.93,4.55"/><path class="cls-3" d="M98.5,1440.11a36.08,36.08,0,0,1-3.65,3.45c-1.07,1-2.62,1.76-4.07,2.91-1.21,1-2.6,1.91-4,2.92s-3.06,1.24-4.52,2.13-2.24,2.76-3.74,3.52-3,1.5-4.57,2.1a41.55,41.55,0,0,1-4.8,1.6c-1.58.4-3.37-.2-4.94,0s-3.14,1-4.73,1.08-3.25-.15-4.84-.21a46.09,46.09,0,0,1-4.86-.08,44.74,44.74,0,0,1-4.84-.67c-1.57-.41-3-1.44-4.47-2a37.16,37.16,0,0,1-4.38-2,36.59,36.59,0,0,1-4.25-2.39,33.91,33.91,0,0,1-3.57-3.32,32.2,32.2,0,0,1-3-3.85,33.74,33.74,0,0,1-2.55-4.08,35.58,35.58,0,0,1-2.28-4.28c-.54-1.47-.16-3.25-.52-4.85s-1.43-3-1.6-4.61a46.81,46.81,0,0,1,.13-4.84"/><path class="cls-3" d="M35.35,1429.92a15.14,15.14,0,0,0,2.72,4.12,30.66,30.66,0,0,0,3.19,3.81,28.89,28.89,0,0,0,4,3c1.32.84,3.13,1,4.72,1.6s2.87,1.72,4.55,2,3.25-.19,5-.23c1.55,0,3.28.41,5,.08a43.24,43.24,0,0,0,4.92-1.1,30.86,30.86,0,0,0,4.7-1.92c1.76-.92,2.63-2.67,3.64-3.57,2.37-2.14,2.35-1.41,3.11-3.77"/><path class="cls-3" d="M18.36,1546.62c1.54-1,2.75-2.55,4.35-3.56s3.44-1.49,5-2.5,2.85-2.43,4.43-3.45l4.7-3c1.57-1,3.47-1.52,5-2.54s3.53-1.45,5.07-2.46,2.86-2.5,4.38-3.5,3.14-2.12,4.64-3.12,3.31-1.91,4.79-2.89c1.66-1.11,3-2.49,4.42-3.44,1.77-1.18,3.75-1.6,5.06-2.48,2.93-2,2.77-1.34,4.5-3.54s.86-2.61,2.22-4.87,1.17-2.37,2.54-4.63,2.41-1.62,3.78-3.88,1.17-2.37,2.54-4.63.5-2.64,2.76-4c3.12-1.91,3.11-1.47,6.69-2.24"/><path class="cls-3" d="M9.92,1511.71c2.74-.71,2.68-.94,5.43-1.65s2.66-1,5.41-1.71,2.8-.48,5.54-1.19,2.58-1.34,5.32-2.05,2.91-.1,5.65-.81,2.62-1.19,5.36-1.91,2.81-.23,5.21-1.73.95-1.64,1.78-4.91c.41-1.61,1.5-3.26,2.14-5.22.56-1.72.36-3.8,1.11-5.57s2.19-3.11,3.12-4.71,1.41-3.68,2.62-5c1.34-1.47,3.22-1.89,4.86-2.63"/><path class="cls-3" d="M60.65,1486.64c1.45-2.08,1.24-1.74,2.91-4.15.87-1.27,1.87-2.7,2.88-4.17s3.14-2.07,4-3.39c1.18-1.75,1.32-3.84,1.92-4.8.71-1.14,2.48-1.84,4.16-2.59a29.34,29.34,0,0,1,4.54-1.62c2.58-.67,2.44.09,4.83-.24"/><path class="cls-3" d="M75,1493.4c1.69-2.27.77-3,2.47-5.23s1.64-2.32,3.33-4.6,1.11-3.35,3.57-4.77c3.17-1.82,3.84-.55,7.42-1.32"/><path class="cls-3" d="M71.31,1485.34c1.63-2,1.15-2.39,2.77-4.39s1.83-1.83,3.47-3.82.64-3.5,2.91-4.7c3.24-1.72,3.87-.55,7.44-1.31"/><path d="M33.72,1248.08c0,1.9-.22,4.22-1.47,5.46a8.55,8.55,0,0,1-5.46,2.28,8.35,8.35,0,0,1-5.29-2.44c-1.24-1.25-1.36-3.4-1.36-5.3a6.11,6.11,0,0,1,2.19-4.46c1.24-1.25,2.57-3.27,4.46-3.27s3.39,1.86,4.63,3.1A6.61,6.61,0,0,1,33.72,1248.08Z"/><path class="cls-3" d="M33.72,1248.08c0,1.9-.22,4.22-1.47,5.46a8.55,8.55,0,0,1-5.46,2.28,8.35,8.35,0,0,1-5.29-2.44c-1.24-1.25-1.36-3.4-1.36-5.3a6.11,6.11,0,0,1,2.19-4.46c1.24-1.25,2.57-3.27,4.46-3.27s3.39,1.86,4.63,3.1A6.61,6.61,0,0,1,33.72,1248.08Z"/><path class="cls-1" d="M49.72,1255.17c-1.9,0-3.17-1.43-4.41-2.68a5.54,5.54,0,0,1-1.62-4.41c0-1.89-.81-4.35.43-5.59s3.7-.73,5.6-.73a5.62,5.62,0,0,1,4.32,2c1.25,1.24,3.3,2.43,3.3,4.32a8,8,0,0,1-2.51,5.11A7.41,7.41,0,0,1,49.72,1255.17Z"/><path class="cls-6" d="M49.72,1255.17c-1.9,0-3.17-1.43-4.41-2.68a5.54,5.54,0,0,1-1.62-4.41c0-1.89-.81-4.35.43-5.59s3.7-.73,5.6-.73a5.62,5.62,0,0,1,4.32,2c1.25,1.24,3.3,2.43,3.3,4.32a8,8,0,0,1-2.51,5.11A7.41,7.41,0,0,1,49.72,1255.17Z"/><path class="cls-4" d="M72.69,1254.12a5.59,5.59,0,0,1-4.43-1.6c-1.24-1.25-3.42-2.54-3.42-4.44s1.37-4,2.62-5.23a7.77,7.77,0,0,1,5.23-2c1.9,0,3.27,1.53,4.52,2.77a5.84,5.84,0,0,1,1.7,4.51c0,1.9.54,4.27-.71,5.51S74.59,1254.12,72.69,1254.12Z"/><path class="cls-7" d="M72.69,1254.12a5.59,5.59,0,0,1-4.43-1.6c-1.24-1.25-3.42-2.54-3.42-4.44s1.37-4,2.62-5.23a7.77,7.77,0,0,1,5.23-2c1.9,0,3.27,1.53,4.52,2.77a5.84,5.84,0,0,1,1.7,4.51c0,1.9.54,4.27-.71,5.51S74.59,1254.12,72.69,1254.12Z"/><path class="cls-8" d="M10.43,1540.79c0-2.08-.62-2.08-.62-4.15s.68-2.07.68-4.14-1.31-2.07-1.31-4.14.75-2.08.75-4.15.47-2.07.47-4.14-1.22-2.08-1.22-4.15.59-2.07.59-4.14-.11-2.07-.11-4.14.1-2.08.1-4.15-.57-2.07-.57-4.14,1.14-2.08,1.14-4.15-.85-2.07-.85-4.15.65-2.07.65-4.14-.21-2.07-.21-4.15-.8-2.07-.8-4.14,0-2.08,0-4.15.61-2.07.61-4.15-.21-2.07-.21-4.14.36-2.07.36-4.15.44-2.07.44-4.15-.45-2.07-.45-4.14.48-2.07.48-4.15-1-2.06-1-4.13.28-2.07.28-4.14.61-2.07.61-4.14.17-2.07.17-4.15,0-2.07,0-4.14-.15-2.08-.15-4.15-.18-2.07-.18-4.14.25-2.07.25-4.14-.23-2.07-.23-4.15-.8-2.07-.8-4.14.88-2.07.88-4.15-1-2.07-1-4.14.21-2.07.21-4.14,1.08-2.08,1.08-4.15-.35-2.07-.35-4.14-.16-2.08-.16-4.15-.37-2.08-.37-4.15.44-2.07.44-4.14.31-2.08.31-4.15-.93-2.08-.93-4.15.83-2.08.83-4.15-.27-2.07-.27-4.15.22-2.07.22-4.15.13-2.07.13-4.14-.15-2.08-.15-4.15-.54-2.07-.54-4.15-.56-2.07-.56-4.15.64-2.07.64-4.14.55-2.08.55-4.15-.85-2.08-.85-4.15,1-2.08,1-4.15-1.27-2.07-1.27-4.15.21-2.07.21-4.14-.2-2.08-.2-4.15.38-2.08.38-4.15.11-2.08.11-4.15,0-2.08,0-4.15-.26-2.08-.26-4.15.15-2.08.15-4.15.23-2.08.23-4.15-.42-2.08-.42-4.15-.27-2.08-.27-4.16.27-2.07.27-4.15.5-2.08.5-4.16-1.67-2.77-.2-4.24,2.17.25,4.25.25,2.08-.46,4.16-.46,2.09-.08,4.17-.08,2.08-.13,4.16-.13,2.08-.13,4.16-.13,2.08,1.31,4.17,1.31,2.08-.22,4.16-.22,2.08-1,4.16-1,2.09.24,4.17.24,2.08,1.05,4.16,1.05,2.08-.27,4.16-.27,2.09-.57,4.17-.57,2.08-.06,4.16-.06,2.08-.15,4.16-.15,2.08.16,4.16.16,2.08.45,4.16.45,2.08-.3,4.16-.3,2.08.22,4.16.22,2.08-.81,4.16-.81,2.09,1.3,4.17,1.3,2.08-.81,4.16-.81,2.08.78,4.16.78,2.08-.79,4.16-.79,2.08.79,4.16.79,2.09-1.24,4.17-1.24,2.08,1,4.16,1,2.08-.18,4.16-.18,2.09-.55,4.17-.55,2.08.32,4.16.32,2.08-.61,4.17-.61,2.08.54,4.16.54,2.08-.16,4.16-.16,2.09.35,4.17.35,2.08-.62,4.16-.62,2.09.42,4.17.42,2.08,0,4.16,0,2.09-.17,4.17-.17,2.08.12,4.16.12,2.09.66,4.17.66,2.08-.68,4.17-.68,2.08.91,4.16.91,2.09-.28,4.17-.28,2.08,0,4.17,0,2.08,0,4.16,0,2.09-.81,4.17-.81,2.08-.18,4.16-.18,2.09,1.07,4.17,1.07,2.08-.63,4.16-.63,2.09.55,4.17.55,2.08-.31,4.17-.31,2.08.49,4.16.49,2.09-.81,4.17-.81,2.09-.55,4.17-.55,2.09.73,4.17.73,2.09-.49,4.17-.49,2.08.09,4.17.09,2.08.84,4.17.84,2.09-.62,4.18-.62,2.08.56,4.17.56"/><path class="cls-3" d="M124.68,1385.66c2.93,1,2.53.43,6.22.74a32.66,32.66,0,0,0,6.24.5c1.9-.17,3.8-1.48,5.91-2.08a31.4,31.4,0,0,0,5.73-2.13,33.07,33.07,0,0,0,5-3.57c1.53-1.2,3.85-1.76,5.31-3.37,1.25-1.38,2.16-3.08,3.35-4.49s2.54-2.75,3.69-4.19,2.53-2.79,3.63-4.26,1.24-3.73,2.29-5.22,2.93-2.54,3.94-4,1.49-3.53,2.46-5,1.83-3.31,2.75-4.83c1-1.67,2.53-2.94,3.4-4.46,1-1.73,1.61-3.53,2.43-5,1-1.86,2-3.43,2.76-4.83,1.62-3.13,1.82-2.22,3-4.74"/><path class="cls-9" d="M665.11,904.8c0-2.66.64-2.66.64-5.32s-.46-2.66-.46-5.32,0-2.66,0-5.32.21-2.67.21-5.33-.36-2.66-.36-5.33-1.41-2.93.46-4.83,2.13-.15,4.77-.15,2.64-.56,5.29-.56,3.75-2,5.58-.08-1,3-1,5.78.2,2.74.2,5.48-.34,2.74-.34,5.48.75,2.75.75,5.49-.76,2.74-.76,5.48.7,2.75.7,5.49-.2,2.75-.2,5.49-.36,2.75-.36,5.5"/><path class="cls-9" d="M680.85,950.15c0,2.49-.65,2.49-.65,5s.47,2.5.47,5,1.91,3.13.09,4.85-2.5-.26-5.14-.26-2.64.36-5.28.36-2.89,1.36-4.79-.47-.15-2-.15-4.57-.56-2.55-.56-5.09-.2-2.55-.2-5.09,1.1-2.55,1.1-5.1-.21-2.54-.21-5.09"/><path class="cls-3" d="M605.43,980.22c2.35,0,2.35-.16,4.7-.16s2.36-.08,4.71-.08,2.36.28,4.71.28,2.36-.43,4.71-.43,2.36-.13,4.71-.13,2.36-.1,4.71-.1,2.36-.12,4.71-.12,2.36.16,4.71.16,2.36.5,4.71.5,2.35-.29,4.71-.29,2.35-.89,4.71-.89,2.35,1,4.71,1,2.35-1,4.71-1,2.36.57,4.71.57,2.36.32,4.71.32,2.36-.21,4.71-.21,2.36.55,4.72.55,2.36-.38,4.72-.38,2.57.79,4.6-.41,1.18-1.83,2.22-3.85.54-2.29,1.59-4.31,1.08-2,2.13-4,2.07-1.5,3.11-3.53-.75-4,1.54-4,.85,1.9,2,3.93,1.84,1.63,3,3.66.42,2.46,1.6,4.49,2.07,1.51,3.25,3.54-.22,5.54,2,4.79-.87-2.78-1-5.16-.23-2.37-.38-4.74.63-2.42.48-4.79.26-2.41.11-4.78-.36-2.36-.51-4.73-.86-2.33-1-4.7-.21-2.37-.36-4.75.32-2.4.16-4.77.38-2.41.23-4.79-.88-2.32-1-4.7-.31-2.36-.46-4.73.8-2.44.65-4.81-.54-2.35-.7-4.72-.14-2.38-.3-4.75-.2-2.37-.35-4.74-.69-2.34-.84-4.72.3-2.4.14-4.77.19-2.4,0-4.77-.54-2.35-.69-4.73-1-2.32-1.13-4.7.14-2.39,0-4.76.73-2.44.58-4.81-1.11-2.32-1.26-4.7,1-2.46.87-4.83c-.12-1.57-1.11-3-1.6-4.38a18.28,18.28,0,0,0-2-4.05,22.3,22.3,0,0,0-2.94-3.43,29.53,29.53,0,0,0-3.3-3.13c-1.23-.89-2.86-1.13-4.16-1.86s-2.62-1.51-4-2.1-2.72-1.59-4.06-2c-1.61-.53-3.11-.89-4.38-1.18"/><path class="cls-3" d="M617.18,827.17c1,2.68.78,1.88,3.31,4.7a35.93,35.93,0,0,0,4.14,3.93c1.3,1.06,3.28,1.53,5,2.68,1.46.95,2.59,2.73,4.41,3.71a39.46,39.46,0,0,0,5.24,1.93c1.78.66,3.39,1.92,5.16,2.32a43.06,43.06,0,0,0,5.62.39c1.9.17,3.76-.71,5.56-.77a44.79,44.79,0,0,0,5.5-.18,42.62,42.62,0,0,0,5.45-1,29.57,29.57,0,0,0,5.22-1.95,12.43,12.43,0,0,0,3.83-3.74c1-1.36,2.36-2.75,2.93-4.58a30.36,30.36,0,0,0,.78-5.39,49.64,49.64,0,0,0,.35-5.39c0-1.69-1.12-3.43-1.25-5.31-.13-1.7.83-3.58.61-5.44s-.38-3.5-.64-5.34-.5-3.49-.79-5.31-1.76-3.29-2.06-5.11-.56-3.48-.88-5.29a43.59,43.59,0,0,0-.92-5.58,29.37,29.37,0,0,0-2.44-5.09A23,23,0,0,0,668,777c-1.37-1.56-2-3.64-3.47-4.62a23.48,23.48,0,0,0-5.13-2.76c-3.19-1.12-7.13,2-5.93-.61,1-2.11,2.21-1.08,4-2.5s1.57-1.75,3.41-3.17"/><path class="cls-3" d="M638.33,809.53c1.58-.83,4.38-.48,7.07-.53a16.14,16.14,0,0,1,6.53,1.46"/><path class="cls-3" d="M667.51,809.37c1.25-1.26,4-1.77,6.58-2.61a16.15,16.15,0,0,1,6.67-.55"/><path class="cls-3" d="M665.17,800.34c-2.35,2.11-2.88,1.69-4.3,4.83-.79,1.75,0,4.11.17,6.42s.26,4.65,1.45,6.21c2.09,2.76,2.36,2.34,5.18,3.9"/><path class="cls-3" d="M641.72,794.24c1.33-1.18,4.13-1.52,6.73-2.21a16.4,16.4,0,0,1,6.69-.15"/><path class="cls-3" d="M632.63,759.16c-1.64,1.18-1.07,2-2.7,3.16s-2.1.56-3.74,1.74-1.2,1.83-3,2.84a26,26,0,0,0-4.14,1.61c-1.41.62-2.94.87-4.12,1.69a22.36,22.36,0,0,0-3.19,3.11,24.27,24.27,0,0,0-2.84,3.4,31.65,31.65,0,0,0-2.55,3.71c-.6,1.33-.11,3.1-.58,4.54s-1.5,2.61-1.85,4.07a32.7,32.7,0,0,0-1.24,4.66,24.9,24.9,0,0,0,.4,4.82,27.82,27.82,0,0,0,1,4.7c.44,1.43,1.94,2.53,2.61,4.07.59,1.36.55,3.11,1.32,4.6.68,1.33,2,2.43,2.77,3.89s1.65,2.59,2.49,4"/><path class="cls-3" d="M618.31,807.05c-1.15-2.33-.89-2.89-3.6-4-1.32-.53-3.16.36-5.28.76-1.42.27-3.32,0-5.14.94a9.33,9.33,0,0,0-3.08,3.47c-.82,1.27-2,2.61-2.23,4.15a14.23,14.23,0,0,0,.34,4.75,14.89,14.89,0,0,0,2,4.24,14.21,14.21,0,0,0,2.73,3.84c1.14.94,2.91,1.06,4.43,1.57a13.8,13.8,0,0,0,4.44.81,18.76,18.76,0,0,0,4.45-.85"/><path class="cls-3" d="M633.7,767c1.37-1,3.75-1.82,5.27-3.42,2.28-2.39,2.37-2.12,4.39-4.52"/><path class="cls-3" d="M642.69,768.22c1.42-1.34,3.76-2,5.19-3.28,2.46-2.23,2.38-1.84,4.64-3.84"/><path class="cls-3" d="M629.69,775.46c2.15,1.09,2.71.08,4.26,2.31.8,1.14.66,3,.92,4.79a11.66,11.66,0,0,1,.2,4.74c-.33,1.37-1.52,2.56-2.34,4.19s-1.64,3.33-2.54,4.77c-1.08,1.72-1.87,3.39-2.81,4.65-2,2.66-3.8,1.54-3.93,4.26s1.36,2.53,1.93,5.07.47,2.57,1,5.11"/><path class="cls-3" d="M663,827.52c-1.67.6-4.4-.13-7.07-.46a16.4,16.4,0,0,1-6.26-2.37"/><path class="cls-3" d="M652.18,819.66c-.88,1.86-2.74,2.79-3.55,3.9a11,11,0,0,1-3.94,3.6"/><path class="cls-3" d="M532.31,851.33a37.49,37.49,0,0,0,7.15,6.15c1.32.87,3.15.88,4.5,1.59a39.21,39.21,0,0,0,8.48,3.84c1.53.42,3.18.07,4.68.31s3,1.26,4.55,1.31,3.1-.92,4.6-1.08a27.46,27.46,0,0,0,4.49-.82,23.77,23.77,0,0,0,4.43-1.25,18.53,18.53,0,0,0,3.91-2.47c1.19-1,2.81-1.8,3.63-3.11.63-1,.15-3.08.8-5,.47-1.37.86-2.91,1.27-4.65.36-1.48.64-3,.94-4.74.26-1.53,1.45-3,1.65-4.67s-.24-3.25-.14-4.91.42-3.21.42-4.86-.4-3.21-.49-4.86-.53-3.17-.73-4.79.1-3.28-.21-4.88-.69-3.17-1.13-4.74a24,24,0,0,0-2.1-4.55,22.56,22.56,0,0,0-2.58-4.26,24.7,24.7,0,0,0-3.39-3.73,29.53,29.53,0,0,0-4.19-2.86,36.52,36.52,0,0,0-4.73-1.8c-1.6-.61-3-2-4.59-2.37s-3.54.07-5.16-.18-3.41-.85-5-1c-1.89-.14-3.62-.37-5.09-.37a31.92,31.92,0,0,0-5.63.51"/><path class="cls-3" d="M566.44,781.86a20.82,20.82,0,0,0-4.34,1.81c-1.17.65-2.23,2-3.67,3-1.2.8-2.85,1.24-4.12,2.28s-2,2.41-3.11,3.54a39.67,39.67,0,0,0-3.24,3.35,35.29,35.29,0,0,0-3,3.64,36.13,36.13,0,0,0-2.08,4.23,34.22,34.22,0,0,0-1.37,4.47,32.47,32.47,0,0,0-1,4.55c-.2,1.45-.73,2.87-1,4.39s-.52,2.93-.81,4.43.09,3.06-.2,4.55-1.25,2.81-1.54,4.29,0,3.07-.29,4.54-1.11,2.88-1.35,4.34-.6,3-.79,4.46-.37,3.06-.48,4.52.69,3.1.69,4.55a39.3,39.3,0,0,0,.06,4.5,24.25,24.25,0,0,0,.8,4.45c.49,1.49,1.69,2.52,2.53,3.71s1.34,2.83,2.63,3.69,2.85.62,4.42,1.06"/><path class="cls-3" d="M566.59,782.19c2.26.59,1.58.94,4.18,2.06,1.24.53,2.9.69,4.41,1.54,1.27.71,2.24,2.05,3.56,3s2.75,1.42,3.91,2.53a30.54,30.54,0,0,1,3.46,3.21c.92,1.2.92,3,1.66,4.44s2.38,2.32,2.86,3.85.26,3.1.61,4.56,1.17,2.86,1.44,4.34.08,3.07.27,4.56.7,3,.81,4.49.17,3.06.21,4.54-.4,3.07-.42,4.55-.61,3-.69,4.49.16,3.11,0,4.53c-.15,1.62-.3,3.13-.49,4.5-.23,1.71-.64,3.18-.87,4.44-.5,2.8-.63,4.48-.63,4.48"/><path class="cls-3" d="M529.18,827.27c-1.38-.68-1.49-.53-3.1-.29a4.32,4.32,0,0,0-2.74,1.39,8.88,8.88,0,0,0-1.08,2.89,9.7,9.7,0,0,0-.77,3.33,5.3,5.3,0,0,0,1.61,3,7.28,7.28,0,0,0,2.84,1.66c1.71.71,1.43,1.19,3.14,1.33"/><path class="cls-3" d="M521.6,829a10,10,0,0,1,4.57,1.44,12.48,12.48,0,0,1,3,3.78"/><path class="cls-5" d="M575.19,820.33c0-.73-.36-.83.24-1.42a3.24,3.24,0,0,1,1.42-.46,4.59,4.59,0,0,1,1.43-.31c.48,0,1,.12,1.65.16s1.09-.15,1.67-.11,1.08.17,1.64.22l1.65.12c.56.05,1.09.37,1.63.42s1.12.16,1.64.21,1.19-.23,1.68-.19c.67.06,1.24.09,1.65.12a4.27,4.27,0,0,1,1.77.49,3,3,0,0,1,1.1,1.47,6.25,6.25,0,0,1,.16,1.77,11.64,11.64,0,0,1,.13,1.77c0,.53.08,1,0,1.55s-.09,1-.12,1.53-.08,1-.11,1.53-.49,1-.52,1.5.23,1.06.2,1.55-.19,1-.22,1.52a5,5,0,0,1-.3,1.54,2.4,2.4,0,0,1-1.11,1,3.34,3.34,0,0,1-1.37.72,10.45,10.45,0,0,1-1.57-.19c-.5,0-1,0-1.56-.07s-1,0-1.63-.1-1-.2-1.62-.26-1.09.07-1.64,0-1.07-.3-1.61-.37-1.11,0-1.65,0-1.12,0-1.64-.07-1.11-.39-1.59-.45a15.41,15.41,0,0,1-1.59-.39"/><path class="cls-3" d="M575.19,820.33c0-.73-.36-.83.24-1.42a3.24,3.24,0,0,1,1.42-.46,4.59,4.59,0,0,1,1.43-.31c.48,0,1,.12,1.65.16s1.09-.15,1.67-.11,1.08.17,1.64.22l1.65.12c.56.05,1.09.37,1.63.42s1.12.16,1.64.21,1.19-.23,1.68-.19c.67.06,1.24.09,1.65.12a4.27,4.27,0,0,1,1.77.49,3,3,0,0,1,1.1,1.47,6.25,6.25,0,0,1,.16,1.77,11.64,11.64,0,0,1,.13,1.77c0,.53.08,1,0,1.55s-.09,1-.12,1.53-.08,1-.11,1.53-.49,1-.52,1.5.23,1.06.2,1.55-.19,1-.22,1.52a5,5,0,0,1-.3,1.54,2.4,2.4,0,0,1-1.11,1,3.34,3.34,0,0,1-1.37.72,10.45,10.45,0,0,1-1.57-.19c-.5,0-1,0-1.56-.07s-1,0-1.63-.1-1-.2-1.62-.26-1.09.07-1.64,0-1.07-.3-1.61-.37-1.11,0-1.65,0-1.12,0-1.64-.07-1.11-.39-1.59-.45a15.41,15.41,0,0,1-1.59-.39"/><path class="cls-5" d="M545.86,830.48a3,3,0,0,0,.35,1.64,5.19,5.19,0,0,0,1.42.92,6.91,6.91,0,0,0,1.5.64,9.12,9.12,0,0,0,1.57.41c.35,0,.88-.05,1.52,0,.45,0,.95.16,1.5.21s1,.23,1.49.28,1,0,1.51.1,1,.06,1.52.11l1.51.13c.52.06,1,.23,1.5.29s1,.26,1.48.32,1.13-.18,1.55-.11a7.52,7.52,0,0,0,1.45.1,3.1,3.1,0,0,0,1.36-.31c.44-.22.92-.36,1.17-.83a4.24,4.24,0,0,0,.41-1.43,8.46,8.46,0,0,0,.11-1.49c0-.6-.32-1.15-.33-1.68s.3-1.1.29-1.67.17-1.08.17-1.68-.29-1.06-.29-1.68.29-1.07.28-1.68a11.74,11.74,0,0,0-.33-1.49,8.49,8.49,0,0,0-.37-1.43,4,4,0,0,0-.77-1.2,2.75,2.75,0,0,0-1-1,3.74,3.74,0,0,0-1.36-.61c-.49,0-1,0-1.61,0s-1.06.17-1.61.14-1.05-.2-1.6-.23-1-.4-1.58-.44-1.08.16-1.62.13-1.06-.3-1.58-.34-1.11.16-1.62.12-1.12.1-1.62.06-1.08-.57-1.55-.63-1.15.3-1.65.31a6.87,6.87,0,0,0-1.59.15,3.32,3.32,0,0,0-1.39.76c-.4.37-1,.72-1.12,1.26a5.59,5.59,0,0,0-.05,1.7c0,.63.5,1.16.54,1.66s-.28,1.21-.24,1.72.37,1.12.42,1.67-.1,1.09-.06,1.69.35,1,.39,1.67S545.82,829.85,545.86,830.48Z"/><path class="cls-3" d="M545.86,830.48a3,3,0,0,0,.35,1.64,5.19,5.19,0,0,0,1.42.92,6.91,6.91,0,0,0,1.5.64,9.12,9.12,0,0,0,1.57.41c.35,0,.88-.05,1.52,0,.45,0,.95.16,1.5.21s1,.23,1.49.28,1,0,1.51.1,1,.06,1.52.11l1.51.13c.52.06,1,.23,1.5.29s1,.26,1.48.32,1.13-.18,1.55-.11a7.52,7.52,0,0,0,1.45.1,3.1,3.1,0,0,0,1.36-.31c.44-.22.92-.36,1.17-.83a4.24,4.24,0,0,0,.41-1.43,8.46,8.46,0,0,0,.11-1.49c0-.6-.32-1.15-.33-1.68s.3-1.1.29-1.67.17-1.08.17-1.68-.29-1.06-.29-1.68.29-1.07.28-1.68a11.74,11.74,0,0,0-.33-1.49,8.49,8.49,0,0,0-.37-1.43,4,4,0,0,0-.77-1.2,2.75,2.75,0,0,0-1-1,3.74,3.74,0,0,0-1.36-.61c-.49,0-1,0-1.61,0s-1.06.17-1.61.14-1.05-.2-1.6-.23-1-.4-1.58-.44-1.08.16-1.62.13-1.06-.3-1.58-.34-1.11.16-1.62.12-1.12.1-1.62.06-1.08-.57-1.55-.63-1.15.3-1.65.31a6.87,6.87,0,0,0-1.59.15,3.32,3.32,0,0,0-1.39.76c-.4.37-1,.72-1.12,1.26a5.59,5.59,0,0,0-.05,1.7c0,.63.5,1.16.54,1.66s-.28,1.21-.24,1.72.37,1.12.42,1.67-.1,1.09-.06,1.69.35,1,.39,1.67S545.82,829.85,545.86,830.48Z"/><path class="cls-3" d="M573.29,852.56a14.42,14.42,0,0,1-4.41.52,10.18,10.18,0,0,1-4.37-.75,8.18,8.18,0,0,1-3.52-2.89,7.17,7.17,0,0,1-.44-4.68c1.92-.48,2,.91,3.93,1.11s2-.36,4-.16,2,0,4,.25,2,.27,3.95.47"/><path class="cls-3" d="M552.4,810a9.93,9.93,0,0,1,3.84-2.83,12.53,12.53,0,0,1,4.85-.57"/><path class="cls-3" d="M553.77,777.69c-1.53-.22-3-.53-4.28-.59a31.23,31.23,0,0,0-4.31.33c-1.58.13-3.13-.15-4.38.2a17.32,17.32,0,0,0-3.95,2,17.86,17.86,0,0,0-3.17,2.94,42.16,42.16,0,0,0-2.81,3.23c-1,1.09-2.52,1.54-3.55,2.51a13.5,13.5,0,0,1-3.27,2.55c-1.38.68-2.93.94-4.45,1.61-1.32.59-2.46,1.86-3.87,2.9-1.13.83-2.76,1.49-3.93,2.85-.91,1.07-1.41,2.71-2.35,4.22a24.06,24.06,0,0,0-2.17,4,19,19,0,0,0-1.29,4.44,23.82,23.82,0,0,0,.25,4.61c.16,1.55.63,3,.69,4.46a11.79,11.79,0,0,1-.63,4.38,44.67,44.67,0,0,1-2,4.17c-.67,1.44-1.37,2.83-2,4.19s-.79,3.17-1.34,4.53c-.62,1.56-1.71,3-1.83,4.39-.13,1.66.43,3.32.53,4.89s-.2,3.39.19,4.93a22.54,22.54,0,0,0,1.64,4.7,19.34,19.34,0,0,0,2.87,4.11c1.07,1.16,2.9,1.56,4.33,2.46"/><path class="cls-3" d="M560.72,840.64c-.93,1.84-.43,4.13-1.27,5.21-2.14,2.75-2.16,1.5-4.54,2.41"/><path class="cls-3" d="M550.34,823.63c1.75-.3,4.31.89,6.89,1.67a16.38,16.38,0,0,1,5.76,3.41"/><path class="cls-3" d="M575.94,829.19c1.29-1.23,4.07-1.67,6.65-2.45a16.5,16.5,0,0,1,6.68-.39"/><path class="cls-3" d="M539.23,795.06c-.55,1.55-1.67,2.18-3.18,2.8a28.56,28.56,0,0,1-4.27,1.51c-1.41.34-3.11.22-4.58.81a16.27,16.27,0,0,0-3.91,2.59,15.39,15.39,0,0,0-2.7,3.71,18.66,18.66,0,0,0-1.71,3.8c-.51,1.37-1.7,2.52-1.93,3.86a38.94,38.94,0,0,0-.29,4.27c-.08,1.43-.4,2.82-.48,4.2s.38,2.86.09,4.21-1.26,2.38-1.94,3.66-.93,2.51-2,3.58a16,16,0,0,1-3.84,2.56,15.69,15.69,0,0,1-4.4,1.22,13.26,13.26,0,0,1-4.5.27,10.14,10.14,0,0,1-4.32-1.34,8.58,8.58,0,0,1-2.94-3.45"/><path class="cls-9" d="M637.5,930.52c0,2.89-.65,2.89-.65,5.77s.47,2.88.47,5.76,0,2.89,0,5.77-.21,2.88-.21,5.77.36,2.88.36,5.77,1.46,3.16-.49,5.29c-1.78,2-2.11.14-4.75.14s-2.64.55-5.28.55-3.81,2-5.59.08c-1.95-2.13,1-3.17,1-6.06s-.2-2.88-.2-5.76.34-2.89.34-5.77-.75-2.88-.75-5.77.76-2.88.76-5.76-.71-2.89-.71-5.78.21-2.88.21-5.77.36-2.89.36-5.78"/><path class="cls-9" d="M621.76,874.71c0-.93-.69-.89.18-1.2,2.49-.87,2.41-.43,5-.43s2.64,0,5.28,0,3.24-1.92,5,.07c2,2.27.26,2.76.26,5.78s-.67,3-.67,6,.37,3,.37,6.06.55,3,.55,6,.21,3,.21,6.05"/><path class="cls-3" d="M636.21,859.4c1.27,1.81,2.06,1.25,3.33,3.05s1.49,1.65,2.76,3.46-.16,4,2,4.08,1.54-1.58,2.74-3.26,1-1.84,2.19-3.52.32-2.64,2.37-2.94c2.34-.35,2,.7,4,1.91s2.25.86,4.29,2.07,1.61,3.44,4,3.12c2.19-.3,1.66-1.84,3.1-3.52s.88-2.16,2.32-3.84,1.22-1.86,2.66-3.54,2.35-.89,3.79-2.57,1.42-1.7,2.87-3.37.82-2.21,2.27-3.89,3.52-.94,3-3.1-2.09-.79-4.17-1.85-2.23-.75-4.31-1.81"/><path d="M638.41,846.49c-1.25,1.84,1.32,1.92,3.79,3.16,1.12.56,2.9.11,4.54.58a27.21,27.21,0,0,0,4.26.89c1.36.17,2.78,1.17,4.37,1.15a37.23,37.23,0,0,0,4.46-.49c1.39-.18,2.66-1.31,4.19-1.67,1.37-.33,3.19-.1,4.67-.59.3-2.3-.17-2.43-1.34-4.44-1.57.47-2.91.54-4.47.86s-3.28,0-4.85.21-3.22.71-4.77.79c-1.72.1-3.33,1.07-4.84,1.06-1.82,0-3.41-1.39-4.8-1.48C640.63,846.32,639.77,844.49,638.41,846.49Z"/><path class="cls-10" d="M638.41,846.49c-1.25,1.84,1.32,1.92,3.79,3.16,1.12.56,2.9.11,4.54.58a27.21,27.21,0,0,0,4.26.89c1.36.17,2.78,1.17,4.37,1.15a37.23,37.23,0,0,0,4.46-.49c1.39-.18,2.66-1.31,4.19-1.67,1.37-.33,3.19-.1,4.67-.59.3-2.3-.17-2.43-1.34-4.44-1.57.47-2.91.54-4.47.86s-3.28,0-4.85.21-3.22.71-4.77.79c-1.72.1-3.33,1.07-4.84,1.06-1.82,0-3.41-1.39-4.8-1.48C640.63,846.32,639.77,844.49,638.41,846.49Z"/><path class="cls-3" d="M608.55,925c.56,1.63,1.28,3.21,1.66,4.84a48,48,0,0,1,1.16,5c.21,1.69-.34,3.45-.32,5.16s.77,3.45.6,5.16a49.48,49.48,0,0,1-1.15,5c-.34,1.63-1.25,3.16-1.76,4.82-.45,1.45-1.13,2.87-1.59,4.36s-1,2.91-1.5,4.39,0,3.25-.44,4.71-1,3-1.4,4.42-.66,3.1-1.08,4.51c-.48,1.58-1.16,3-1.57,4.37-.49,1.68-1,3.17-1.34,4.44-.82,2.76-1.26,2-1.91,4.26"/><path class="cls-3" d="M577,873.33c1.35,1.85,1,1.95,1.93,4.31.51,1.34.05,3,.08,4.62s.6,3.23-.25,4.62c-.7,1.13-2.53,1.33-4.08,2.23-1.14.66-2.2,1.81-3.9,2.27a41.83,41.83,0,0,1-4.71,1,43.78,43.78,0,0,1-4.77.59,46.59,46.59,0,0,1-4.81-.23c-1.57-.08-3.26.42-4.88.16a41.21,41.21,0,0,1-4.72-1.18,39.26,39.26,0,0,1-4.4-2,37.35,37.35,0,0,1-4.33-2.09,35.6,35.6,0,0,1-4-2.63,38.49,38.49,0,0,1-3.46-3.33c-1.1-1.11-2.7-1.85-3.73-3.15a43.23,43.23,0,0,1-2.78-4c-.82-1.32-1.08-3-1.82-4.53s-1.09-2.94-1.7-4.5"/><path class="cls-3" d="M541.49,974.53c1-.92,2.25-1.73,3.41-2.78s2.07-2,3.21-3,1.88-2.23,3-3.23,1.7-2.46,2.82-3.45,3-1,4.13-2,2.3-1.8,3.42-2.77,1.85-2.33,3-3.29,2.61-1.47,3.72-2.43,1.49-2.77,2.59-3.73,2.28-1.88,3.38-2.83,2.43-1.71,3.52-2.65,1.81-2.45,2.9-3.38,2.39-1.8,3.46-2.72,2.23-2,3.28-2.93c1.2-1,3.12-1.06,4.14-1.93,1.27-1.09,1.57-3,2.52-3.81,2.11-1.81,3.29-.14,4.34-2.07s.4-2.22,1.15-4.2.4-2.13,1.15-4.11.91-1.92,1.66-3.91,1.1-1.86,1.85-3.85-.69-2.93.9-4.35c2.19-2,2.64-1.57,5.36-2.7"/><path class="cls-3" d="M583.46,897.22a10.72,10.72,0,0,0-3.34,2.94,21.28,21.28,0,0,0-2.07,4.07,37.41,37.41,0,0,0-1.17,4.4c-.34,1.52-.65,3-.85,4.49-.21,1.65.14,3.24.05,4.57-.18,2.71,1.49,3.22,0,4.91s-2.49.36-4.32,1.46-1.43,1.79-3.27,2.9-1.69,1.37-3.53,2.47-2,.78-3.88,1.88-2,.77-3.88,1.88-2.06.74-3.9,1.85-1.62,1.46-3.47,2.56-1.76,1.24-3.6,2.34-1.5,1.69-3.34,2.79a8.33,8.33,0,0,1-4.09,1.47c-2.08.38-1.25-1-2.31-3.48-.48-1.11-.68-2.58-1.32-4.06-.51-1.19-1-2.51-1.64-3.91-.52-1.23-.86-2.63-1.43-4s-.72-2.72-1.27-4.07-1.43-2.44-2-3.78-.91-2.66-1.44-4-.65-2.77-1.17-4.09-1.47-2.47-2-3.79-.55-2.82-1-4.14-.82-2.73-1.29-4-1.65-2.44-2.1-3.76,0-3-.45-4.31-1.88-2.42-2.44-3.68a31.62,31.62,0,0,0-2.26-3.58c-.77-1.27-1-2.8-1.88-3.86a26.19,26.19,0,0,0-2.91-3.17,24.57,24.57,0,0,0-3.27-2.93c-1.28-.72-2.92-.77-4.25-1.17a17.56,17.56,0,0,0-4.24-.55c-1.54-.07-3.24-.66-4.65-.22s-2.09,2.43-3.32,3.34a14.65,14.65,0,0,0-3.32,2.76,19.06,19.06,0,0,0-1.92,3.92c-.6,1.3-2.5,2.22-2.88,3.73s-.09,3-.24,4.58"/><path class="cls-3" d="M583.28,908.81c.84-1.86,2-1,2.91-3.16.51-1.13,1.17-2.39,1.75-3.69s.12-3,.63-4.19c.68-1.56,1.1-3,1.43-3.8a8.12,8.12,0,0,1,2.86-3,26.84,26.84,0,0,1,3.46-1.93c1.94-.9,2-.3,3.83-.91"/><path class="cls-3" d="M595.21,911.88c1-2,1-2.07,2-4.12s1.53-1.79,2.54-3.84-.31-3,1.43-4.51c2.24-1.91,3.16-.27,5.88-1.4"/><path class="cls-3" d="M591.12,906c1-1.82,1-1.8,2-3.62s1.57-1.5,2.57-3.32,0-2.53,1.68-3.82c2.3-1.84,2.89-.71,5.61-1.84"/><path class="cls-3" d="M680.94,950c-1.18-.76-2.24-1.55-3.28-2.24s-2.12-1.74-3.15-2.43l-3.31-2.18c-1.2-.8-2.68-1-3.68-1.64-1.21-.8-1.92-2.09-2.92-2.77-1.18-.8-2.58-1-3.61-1.74s-1.88-2-3-2.68-2.07-1.52-3.26-2.28c-1-.65-2.13-1.36-3.36-2.12-1-.64-2.6-.58-3.83-1.33-1-.63-2.06-1.49-3.29-2.23-1-.63-2.1-1.44-3.32-2.16s-2.53-.75-3.74-1.46-1.81-2-3-2.7-2.66-.56-3.85-1.26l-3.43-2c-1.09-.64-2-1.63-3.24-2.32s-2.2-1.37-3.39-2.06-1.91-1.88-3.1-2.57-3-.42-4.2-1.1a20.28,20.28,0,0,1-2-3.35c-1-1.65-1-1.63-2-3.28s-.19-2.11-1.16-3.76-1.42-1.39-2.39-3-.47-2-1.72-3.43-1.58-.81-3-1.88-1.55-.86-2.92-1.94"/><path class="cls-3" d="M621.91,881.17a9.76,9.76,0,0,1,3.3,2.3,20.59,20.59,0,0,1,2.18,3.44,34.17,34.17,0,0,1,2.19,3.5c.53,1.3.55,2.77.94,4,.44,1.43,1.15,2.69,1.43,3.86.57,2.38-.79,2.51.91,3.66a8.68,8.68,0,0,0,3.58,1.71c1.94.58,1.82,1,3.76,1.59s2.13,0,4.08.54,1.79,1.08,3.74,1.66,2.11,0,4.06.61,1.76,1.18,3.71,1.76,2.11,0,4.05.63,2.07.17,4,.75,1.66,1.55,3.61,2.13,2.28-.54,4.22,0,1.77,1.2,3.72,1.78,2.09.09,4,.67,1.83,1,3.78,1.57,2,2.09,3.64.88-.16-1.71-.16-3.75.45-2,.45-4.07.52-2,.52-4.07-.38-2-.38-4.07,0-2,0-4.08.17-2,.17-4.07-.29-2-.29-4.07.54-2,.54-4.08-.29-2-.29-4.07-.45-2-.45-4.08-.17-2-.17-4.08"/><path class="cls-3" d="M622.73,892.3c-1-1.53-.85-1.3-2-3.07l-2-3.06c-.69-1-.53-2.68-1.17-3.65-.83-1.28-2.19-2-2.61-2.69a8.25,8.25,0,0,0-2.54-2.66,30.58,30.58,0,0,0-3.31-1.8c-1.87-.94-1.48-1.35-3.23-2"/><path class="cls-3" d="M613.92,895.93c-1.21-1.67-1.89-1.18-3.1-2.85s-1.25-1.63-2.46-3.3-.91-1.82-2.39-3.25a8.8,8.8,0,0,0-2.5-1.75c-1.35-.82-1.09-1.24-2.44-2.06"/><path class="cls-3" d="M616.31,890.33c-1.16-1.47-1.52-1.18-2.68-2.64s-1-1.58-2.18-3.05-1.32-1.24-2.71-2.5a10.34,10.34,0,0,0-2.48-1.76c-1.35-.82-1.36-.8-2.71-1.62"/><path class="cls-3" d="M639.2,904.21c0,1.79.27,1.44.15,3.57-.06,1.05-.05,2.28-.17,3.57s.2,2.42,0,3.62-1,2.29-1.26,3.42-.14,2.62-.57,3.61a6.1,6.1,0,0,1-2.47,2.78"/><path class="cls-3" d="M631.43,918.63c1.54-.21,1.57.67,2.92,1.45a4.71,4.71,0,0,1,2.25,2.09c.84,1.22-.35,1.25-1.41,2.34a6.23,6.23,0,0,1-2.57,1.87c-1,.19-1.59-1.92-1.62-3.68S629.51,918.9,631.43,918.63Z"/><path class="cls-3" d="M650.37,908.41c0,1.79,0,1.46-.14,3.59-.06,1-.55,2.24-.68,3.53s-.51,2.31-.69,3.51.25,2.52,0,3.64A19.61,19.61,0,0,1,647.4,926a5.5,5.5,0,0,1-2.17,2.7"/><path class="cls-3" d="M494.89,925.15c.39,2.27,1,2.16,1.41,4.43s-.24,2.39.15,4.66,1,2.16,1.38,4.44.22,2.3.61,4.57.09,2.32.48,4.59.55,2.25.94,4.52.65,2.23,1,4.5.31,2.28.7,4.56.08,2.33.47,4.6,1,2.1.79,4.4-.65.94-2.77,3.1c-.87.89-2.42,1.57-3.53,3-.84,1.06-1.25,2.65-2.19,4-.77,1.16-2.1,2.13-2.93,3.55-.71,1.22-1.58,2.51-2.32,3.94s-1.35,2.66-2,4.11"/><path class="cls-3" d="M515.76,843.8c-.78,2.19-.77,1.67-2.18,4.05a27.85,27.85,0,0,1-2.4,3.95c-.93,1.14-2.36,1.85-3.6,2.9a20.08,20.08,0,0,1-3.6,2.79,18.39,18.39,0,0,1-4.17,2,19.51,19.51,0,0,1-4.65.71"/><path class="cls-1" d="M476.72,727.05c0-1.15.34-2.6-.41-3.35a5.1,5.1,0,0,0-3.35-1.1,4.53,4.53,0,0,0-3,1.46,4.83,4.83,0,0,0-1.72,3,5,5,0,0,0,1.57,3.14,4.52,4.52,0,0,0,3.14,1c1.15,0,1.87-.81,2.62-1.57A3.36,3.36,0,0,0,476.72,727.05Z"/><path class="cls-2" d="M474.89,992.74c2.1,0,2.1-1,4.19-1s2.09.74,4.19.74,2.09.31,4.18.31,2.1-1,4.19-1,2.1.48,4.19.48,2.09.43,4.19.43,2.09.39,4.18.39,2.1.1,4.19.1,2.09-.41,4.19-.41,2.09-.61,4.19-.61,2.09-.19,4.18-.19h4.19c2.1,0,2.1.26,4.19.26s2.09-.29,4.19-.29,2.09.35,4.18.35,2.1-.14,4.19-.14,2.09-.1,4.18-.1,2.09,1.12,4.18,1.12,2.1-.45,4.19-.45,2.09-.1,4.18-.1,2.1-.34,4.19-.34S564.9,992,567,992s2.09-.24,4.18-.24,2.1,1.17,4.19,1.17,2.09-.93,4.18-.93h4.19c2.09,0,2.09.13,4.19.13s2.09.83,4.19.83,2.09,0,4.18,0,2.1-1.07,4.19-1.07,2.09.31,4.19.31,2.09-.47,4.19-.47,2.09,1.37,4.19,1.37,2.09-.58,4.18-.58,2.1.3,4.19.3,2.1,0,4.19,0,2.1.09,4.19.09,2.09-.73,4.19-.73,2.09-.4,4.19-.4,2.09.69,4.19.69,2.09-.55,4.19-.55,2.09-.21,4.19-.21S652.85,993,655,993s2.09-.51,4.19-.51,2.09-.3,4.19-.3,2.1.11,4.19.11,2.1.2,4.19.2,2.09.41,4.19.41,2.09.14,4.19.14,2.09-1.22,4.19-1.22,2.09.48,4.19.48,2.09.44,4.19.44,2.09.15,4.19.15,2.1.13,4.19.13,2.1-.79,4.19-.79,2.1-.5,4.2-.5,2.09.48,4.19.48,2.1.75,4.19.75,2.1-.19,4.2-.19,2.1,0,4.2,0,2.48.83,4-.64-.08-1.84-.08-3.91.14-2.06.14-4.13-.52-2.06-.52-4.12.54-2.07.54-4.13-.42-2.07-.42-4.13,1-2.07,1-4.13-1.14-2.07-1.14-4.13.27-2.06.27-4.13,0-2.06,0-4.13,1.1-2.06,1.1-4.13S730,949.08,730,947s1.15-2.06,1.15-4.12-.34-2.07-.34-4.13-.26-2.07-.26-4.13.56-2.07.56-4.13-.31-2.07-.31-4.13-.3-2.07-.3-4.13-.57-2.07-.57-4.13.26-2.07.26-4.13.78-2.06.78-4.13.2-2.06.2-4.13-.69-2.06-.69-4.13.48-2.06.48-4.12-.81-2.06-.81-4.13-.11-2.06-.11-4.12.11-2.06.11-4.13-.36-2.06-.36-4.13.49-2.06.49-4.12.3-2.07.3-4.13-.81-2.07-.81-4.13,1.24-2.06,1.24-4.13-.8-2.06-.8-4.13.92-2.06.92-4.13-1.26-2.06-1.26-4.13.55-2.06.55-4.13-.56-2.06-.56-4.13.59-2.06.59-4.12.08-2.07.08-4.14-.09-2.06-.09-4.13.59-2.06.59-4.13-1.13-2.06-1.13-4.13,0-2.06,0-4.13.37-2.06.37-4.13-.27-2.07-.27-4.13,1.15-2.07,1.15-4.13-.41-2.07-.41-4.14-.77-2.06-.77-4.13-.17-2.06-.17-4.13,1.08-2.07,1.08-4.13-.65-2.07-.65-4.13.39-2.07.39-4.14.53-2.06.53-4.13-1.29-2.07-1.29-4.13.22-2.06.22-4.13.62-2.06.62-4.13-.71-2.07-.71-4.13.74-2.07.74-4.13-.17-2.07-.17-4.14-.81-2.06-.81-4.13.06-2.07.06-4.14.51-2.06.51-4.13.69-2.07.69-4.14-.52-2.06-.52-4.13-.5-2.07-.5-4.14,1.12-2.06,1.12-4.13-.38-2.07-.38-4.14,1.27-2.78-.19-4.24-2.17.19-4.25.19-2.08.14-4.16.14-2.07.4-4.15.4-2.08-1.3-4.16-1.3-2.08.65-4.15.65-2.08-.2-4.16-.2-2.08-.3-4.16-.3-2.08,1-4.15,1-2.08-.57-4.16-.57-2.08-.06-4.16-.06-2.08.22-4.15.22-2.08.37-4.16.37-2.08.09-4.16.09-2.08-.53-4.16-.53-2.07,0-4.15,0-2.08.21-4.16.21-2.08.24-4.16.24-2.07-.1-4.15-.1-2.08-.37-4.16-.37-2.08.58-4.15.58-2.08-.3-4.16-.3-2.07-1-4.15-1-2.07,1.19-4.15,1.19-2.08-1-4.15-1-2.08,1.13-4.16,1.13-2.08-1.26-4.16-1.26-2.08.3-4.15.3-2.08.67-4.16.67S612,716,609.89,716s-2.08-.93-4.16-.93-2.08.68-4.15.68-2.08.3-4.16.3-2.08-.55-4.16-.55h-4.15c-2.08,0-2.08-.43-4.16-.43s-2.08.82-4.16.82-2.08-.8-4.16-.8-2.08.82-4.15.82-2.08-.29-4.16-.29-2.08.54-4.16.54-2.08-.54-4.16-.54-2.08-.31-4.16-.31-2.08.59-4.16.59-2.08.43-4.15.43-2.08-1.33-4.16-1.33-2.08.43-4.16.43-2.08-.07-4.16-.07-2.08.17-4.16.17-2.08-.43-4.16-.43-2.08.5-4.16.5l-4.16,0c-2.08,0-2.08.76-4.16.76s-2.08-.78-4.16-.78-2.08.13-4.15.13-2.08-.54-4.17-.54-2.07-.07-4.15-.07-2.08.37-4.16.37-2.09-.43-4.17-.43-2.08,1-4.16,1-2.08-.48-4.16-.48-2.08.5-4.16.5-2.08-.17-4.17-.17-2.08-.26-4.16-.26-2.09-.48-4.17-.48-2.75-1-4.19.51-.2,2.18-.2,4.34.7,2.16.7,4.32-.67,2.17-.67,4.33.72,2.16.72,4.33"/><path class="cls-3" d="M730.41,737.74c-2.07,0-2.07,1-4.14,1s-2.07-.73-4.14-.73-2.07-.31-4.14-.31-2.06,1-4.13,1-2.07-.48-4.14-.48-2.07-.43-4.14-.43-2.07-.39-4.14-.39-2.06-.1-4.13-.1-2.07.41-4.14.41-2.07.61-4.14.61-2.07.19-4.14.19h-4.14c-2.07,0-2.07-.25-4.13-.25s-2.07.28-4.14.28-2.07-.35-4.14-.35-2.07.14-4.14.14-2.07.1-4.14.1-2.07-1.11-4.14-1.11-2.07.44-4.13.44-2.07.1-4.14.1-2.07.34-4.13.34-2.07.28-4.13.28-2.07.24-4.14.24-2.07-1.17-4.13-1.17-2.07.94-4.14.94h-4.14c-2.07,0-2.07-.13-4.14-.13s-2.07-.83-4.13-.83-2.07,0-4.14,0-2.07,1.07-4.14,1.07-2.07-.31-4.14-.31-2.06.48-4.13.48-2.07-1.38-4.14-1.38-2.07.58-4.14.58-2.07-.3-4.14-.3l-4.14,0c-2.07,0-2.07-.08-4.14-.08s-2.06.72-4.13.72-2.07.4-4.14.4S567,738,564.91,738s-2.07.55-4.14.55-2.07.21-4.14.21-2.07-1.32-4.14-1.32-2.07.51-4.14.51-2.07.3-4.14.3-2.07-.11-4.14-.11-2.07-.2-4.14-.2-2.07-.41-4.15-.41-2.07-.14-4.14-.14-2.07,1.23-4.14,1.23-2.07-.49-4.14-.49-2.07-.43-4.14-.43-2.07-.16-4.14-.16-2.07-.13-4.14-.13-2.07.8-4.14.8-2.07.49-4.14.49-2.07-.48-4.14-.48-2.07-.75-4.14-.75-2.08.19-4.15.19-2.07,0-4.14,0-2.07.73-4.14.73H473.8c-2.07,0-2.07-.14-4.14-.14s-2.08.51-4.15.51-2.08-.53-4.15-.53"/><path class="cls-3" d="M599.19,865.66a18,18,0,0,1,.47-4.48c.51-1.44,1.81-2.41,2.63-3.66A21.63,21.63,0,0,1,605,854a29.54,29.54,0,0,1,3.2-3.13,38.82,38.82,0,0,1,4-2c1.35-.75,2.36-2.11,3.7-2.69s2.94-1.07,4.28-1.51c1.61-.54,3-1.19,4.3-1.48"/><path class="cls-2" d="M564.57,924.11c2-.35,4.46,1.16,6.78,2.26a17.91,17.91,0,0,1,5.28,4.23,18.22,18.22,0,0,1,3.94,5.54c.81,2,.37,4.29.37,6.74"/><path d="M846.78,975.12a4.21,4.21,0,0,0-1-3c-.75-.75-1.87-.69-3-.69s-2.21,0-3,.75-.7,1.81-.7,3-.24,2.4.51,3.15a4.47,4.47,0,0,0,3.15.9,3.29,3.29,0,0,0,4.07-4Z"/><path class="cls-8" d="M846.78,975.12a4.21,4.21,0,0,0-1-3c-.75-.75-1.87-.69-3-.69s-2.21,0-3,.75-.7,1.81-.7,3-.24,2.4.51,3.15a4.47,4.47,0,0,0,3.15.9,3.29,3.29,0,0,0,4.07-4Z"/><path class="cls-1" d="M155.19,943.13c-1.7,1.69-2.34.12-4.73.12s-2.39-.54-4.78-.54-2.38-.07-4.77-.07-2.39.37-4.78.37-2.39-.43-4.78-.43-2.39,1-4.77,1-2.39-.48-4.78-.48-2.39.5-4.78.5-2.39-.17-4.78-.17-2.39-.26-4.78-.26-2.39-.48-4.78-.48-2.38.5-4.77.5-2.39-.19-4.78-.19-2.39.7-4.78.7S86,943,83.58,943s-2.39.72-4.78.72-2.39-.52-4.78-.52-2.39,0-4.78,0-2.39-.17-4.78-.17-2.39.41-4.78.41-2.39-1-4.79-1-2.39.79-4.78.79-2.71,1.2-4.41-.48.08-2,.08-4.34-.81-2.37-.81-4.73V929c0-2.37-.13-2.37-.13-4.73s.38-2.36.38-4.72.15-2.37.15-4.73-.51-2.36-.51-4.73.46-2.36.46-4.72-.52-2.36-.52-4.73.38-2.36.38-4.72,0-2.37,0-4.73-.3-2.36-.3-4.73,1-2.36,1-4.72-.31-2.37-.31-4.73.25-2.36.25-4.73-.81-2.36-.81-4.73.94-2.36.94-4.72-.45-2.37-.45-4.73-.67-2.37-.67-4.73.56-2.37.56-4.73.31-2.36.31-4.73-.9-2.37-.9-4.73.3-2.36.3-4.73.85-2.36.85-4.72-.61-2.37-.61-4.73-.26-2.37-.26-4.73.95-2.36.95-4.73-1-2.36-1-4.73.73-2.36.73-4.73-.87-2.37-.87-4.73.07-2.37.07-4.73,1-2.37,1-4.73-1.1-2.37-1.1-4.74-.19-2.37-.19-4.73-1.22-3.3.46-5,2.61.07,5,.07,2.39.49,4.77.49,2.39-1,4.78-1,2.39.89,4.78.89,2.39,0,4.78,0,2.38-.33,4.77-.33,2.39.66,4.78.66,2.39-.31,4.78-.31,2.39-.39,4.78-.39,2.39.18,4.78.18,2.39.19,4.78.19,2.38-.76,4.77-.76,2.39-.11,4.78-.11,2.39.46,4.77.46,2.39.67,4.78.67,2.39-.65,4.78-.65,2.39.65,4.78.65,2.39-.37,4.78-.37,2.39-.83,4.78-.83,2.39.51,4.78.51h4.78c2.4,0,2.4.16,4.79.16s2.75-1.34,4.45.34.63,2,.63,4.39-.52,2.37-.52,4.73.07,2.36.07,4.72,0,2.37,0,4.73-.2,2.36-.2,4.72.27,2.37.27,4.73-.2,2.36-.2,4.73.11,2.36.11,4.72-.44,2.36-.44,4.73,1,2.36,1,4.73-.4,2.36-.4,4.72.31,2.37.31,4.73-.65,2.36-.65,4.73-.13,2.36-.13,4.72,1,2.37,1,4.73-1.19,2.37-1.19,4.73.76,2.36.76,4.73-.48,2.36-.48,4.72.87,2.37.87,4.73-1.07,2.37-1.07,4.73.62,2.36.62,4.73-.63,2.36-.63,4.73-.11,2.36-.11,4.73,1.18,2.36,1.18,4.72-.44,2.37-.44,4.73.52,2.37.52,4.73-.07,2.36-.07,4.73-.87,2.37-.87,4.73-.05,2.37-.05,4.73.7,2.37.7,4.73-.78,2.37-.78,4.73-.06,2.37-.06,4.73.33,2.37.33,4.74-.54,2.48-.06,4.8S156.87,941.47,155.19,943.13Z"/></g></g></g></g></svg>