<svg xmlns="http://www.w3.org/2000/svg" viewBox="0 0 5.77 1708.54"><defs><style>.cls-1{fill:none;stroke:#000;stroke-linecap:round;stroke-linejoin:round;stroke-width:4.33px;}</style></defs><g id="Layer_2" data-name="Layer 2"><g id="sect8"><g id="connline"><path class="cls-1" d="M3.32,1706.37c0-2.07-.09-2.07-.09-4.15s-.15-2.07-.15-4.15.26-2.08.26-4.16-.95-2.07-.95-4.15.39-2.08.39-4.15.12-2.08.12-4.16.13-2.08.13-4.15-.83-2.08-.83-4.16,1.33-2.08,1.33-4.15-.82-2.08-.82-4.16-.32-2.08-.32-4.16.2-2.08.2-4.15.17-2.08.17-4.16.66-2.08.66-4.16-.47-2.08-.47-4.15S3,1642,3,1639.89s-.55-2.08-.55-4.16-.27-2.08-.27-4.15,1.15-2.08,1.15-4.16-.7-2.08-.7-4.15,0-2.08,0-4.16.22-2.08.22-4.15.2-2.08.2-4.16,0-2.07,0-4.15-.29-2.08-.29-4.15-.07-2.08-.07-4.16-.25-2.07-.25-4.15.8-2.08.8-4.15.21-2.08.21-4.16-.45-2.08-.45-4.15.43-2.08.43-4.15-.19-2.08-.19-4.16.26-2.07.26-4.15-1.16-2.08-1.16-4.15S3,1563,3,1561s.41-2.08.41-4.16-1.1-2.07-1.1-4.15,1.05-2.08,1.05-4.15.27-2.08.27-4.15-.49-2.08-.49-4.16.48-2.07.48-4.15-.93-2.08-.93-4.15-.17-2.08-.17-4.15-.19-2.08-.19-4.16.56-2.07.56-4.15.53-2.08.53-4.15-.27-2.08-.27-4.16S3,1509.06,3,1507s.16-2.08.16-4.16.38-2.07.38-4.15-.36-2.07-.36-4.15-1-2.08-1-4.15,1.25-2.08,1.25-4.16,0-2.08,0-4.15-.81-2.08-.81-4.16-.15-2.08-.15-4.15.69-2.08.69-4.16-.1-2.08-.1-4.15-.23-2.08-.23-4.16-.55-2.08-.55-4.15.28-2.08.28-4.16.83-2.08.83-4.15-1-2.08-1-4.16-.23-2.08-.23-4.16,1.35-2.08,1.35-4.15-1.37-2.08-1.37-4.16,1.44-2.08,1.44-4.16S3,1426,3,1423.88s-.23-2.08-.23-4.15-.63-2.08-.63-4.16.07-2.08.07-4.16.12-2.07.12-4.15.61-2.08.61-4.15.15-2.08.15-4.16-.48-2.08-.48-4.15,0-2.08,0-4.16.43-2.07.43-4.15.21-2.08.21-4.16.25-2.07.25-4.15-.81-2.07-.81-4.15-.46-2.08-.46-4.15-.06-2.08-.06-4.16,1.28-2.07,1.28-4.15-1.23-2.08-1.23-4.16,1.11-2.07,1.11-4.15.15-2.08.15-4.15-.57-2.08-.57-4.16.25-2.08.25-4.15.21-2.08.21-4.16-.16-2.07-.16-4.15-.18-2.08-.18-4.16.47-2.07.47-4.15-1-2.08-1-4.15.2-2.08.2-4.16.47-2.08.47-4.15-.84-2.08-.84-4.16.53-2.07.53-4.15.33-2.08.33-4.16-.09-2.07-.09-4.15.45-2.08.45-4.16-.89-2.08-.89-4.16-.41-2.08-.41-4.16.92-2.07.92-4.15.24-2.08.24-4.16-.19-2.08-.19-4.16-.88-2.08-.88-4.15.12-2.08.12-4.16,1-2.08,1-4.16-1.19-2.07-1.19-4.15.48-2.08.48-4.16,0-2.07,0-4.15-.41-2.08-.41-4.15S3,1239,3,1236.91s-.75-2.07-.75-4.15,0-2.08,0-4.16.57-2.07.57-4.15.07-2.08.07-4.15.66-2.08.66-4.16-1.23-2.07-1.23-4.15.87-2.08.87-4.16-.64-2.07-.64-4.15.48-2.08.48-4.15-.78-2.08-.78-4.15.27-2.08.27-4.16-.28-2.08-.28-4.15,1.07-2.08,1.07-4.16.07-2.07.07-4.15.11-2.08.11-4.16-.36-2.08-.36-4.15.21-2.08.21-4.16-.55-2.08-.55-4.16.15-2.07.15-4.15.39-2.08.39-4.16-.14-2.08-.14-4.16,0-2.08,0-4.16.08-2.07.08-4.15-.77-2.08-.77-4.16.76-2.08.76-4.16-1.09-2.08-1.09-4.15,1.07-2.08,1.07-4.16-.79-2.08-.79-4.16.11-2.07.11-4.15.88-2.08.88-4.16-.66-2.08-.66-4.15,0-2.08,0-4.16.08-2.08.08-4.15-.2-2.08-.2-4.16,0-2.08,0-4.15.27-2.08.27-4.16-.6-2.07-.6-4.15,1-2.08,1-4.15-.54-2.08-.54-4.16-.6-2.08-.6-4.15.57-2.08.57-4.16.36-2.08.36-4.15-.94-2.08-.94-4.16.36-2.08.36-4.15.45-2.08.45-4.16-.8-2.08-.8-4.15-.13-2.08-.13-4.16.67-2.08.67-4.16-.22-2.08-.22-4.16.68-2.07.68-4.15-1.08-2.08-1.08-4.16.07-2.08.07-4.16.74-2.08.74-4.15-.81-2.08-.81-4.16.69-2.08.69-4.16.22-2.08.22-4.15-.79-2.08-.79-4.16.53-2.08.53-4.16-.46-2.08-.46-4.15,1-2.08,1-4.16-1.25-2.07-1.25-4.15.76-2.08.76-4.16.45-2.08.45-4.15S2.86,973,2.86,971s-.66-2.07-.66-4.15.81-2.08.81-4.16-.46-2.07-.46-4.15-.33-2.08-.33-4.16,1-2.08,1-4.15,0-2.08,0-4.16-1-2.08-1-4.15.29-2.08.29-4.16-.25-2.08-.25-4.16,0-2.08,0-4.16.83-2.08.83-4.16.36-2.07.36-4.15S2.7,919,2.7,916.93s.8-2.08.8-4.16S3,910.7,3,908.62s.07-2.08.07-4.16,0-2.08,0-4.15.08-2.08.08-4.16-.45-2.08-.45-4.16.54-2.07.54-4.15-.69-2.08-.69-4.16.27-2.07.27-4.15-.27-2.08-.27-4.16,0-2.07,0-4.15,1.06-2.08,1.06-4.16-.31-2.07-.31-4.15-.66-2.08-.66-4.16.94-2.08.94-4.16-.14-2.07-.14-4.15-.91-2.08-.91-4.16.09-2.08.09-4.16S2.37,840,2.37,838s.59-2.08.59-4.15.29-2.08.29-4.16-.64-2.08-.64-4.16.77-2.08.77-4.16-.72-2.07-.72-4.15.08-2.08.08-4.16.43-2.08.43-4.16-.66-2.07-.66-4.15,0-2.08,0-4.16,1-2.08,1-4.16-1.08-2.08-1.08-4.15.83-2.08.83-4.16-.92-2.08-.92-4.15.78-2.08.78-4.16-.6-2.08-.6-4.16.23-2.08.23-4.16-.21-2.08-.21-4.15.1-2.08.1-4.16-.06-2.08-.06-4.16.07-2.08.07-4.16.78-2.07.78-4.15-.4-2.08-.4-4.16.09-2.08.09-4.15.21-2.08.21-4.16-.62-2.08-.62-4.15,0-2.08,0-4.16,0-2.08,0-4.15.13-2.08.13-4.16.59-2.08.59-4.16-.22-2.07-.22-4.15-.8-2.08-.8-4.16S3.2,707,3.2,705s-.38-2.08-.38-4.15.06-2.08.06-4.16-.71-2.07-.71-4.15.49-2.08.49-4.16.76-2.07.76-4.15-.35-2.07-.35-4.15S3,678,3,675.87s-.23-2.08-.23-4.15-.07-2.08-.07-4.16.45-2.08.45-4.15-.89-2.08-.89-4.16.15-2.08.15-4.16-.17-2.07-.17-4.15,1-2.08,1-4.16-.4-2.08-.4-4.16-.63-2.08-.63-4.16.5-2.07.5-4.15.46-2.08.46-4.16.33-2.08.33-4.15,0-2.08,0-4.16-.27-2.07-.27-4.15-.53-2.08-.53-4.15-.22-2.08-.22-4.15-.1-2.08-.1-4.16,1.12-2.07,1.12-4.15-.67-2.08-.67-4.16.67-2.07.67-4.15-.06-2.08-.06-4.15-1-2.08-1-4.16-.25-2.07-.25-4.15,1.07-2.08,1.07-4.16-.87-2.07-.87-4.15.41-2.08.41-4.16.64-2.08.64-4.16.05-2.08.05-4.16-1.22-2.08-1.22-4.15,1.12-2.08,1.12-4.16-1-2.08-1-4.16.25-2.08.25-4.16.69-2.07.69-4.15-1.05-2.08-1.05-4.16,0-2.07,0-4.15.88-2.08.88-4.15-.21-2.08-.21-4.16S3.6,520,3.6,518s-.72-2.08-.72-4.16-.5-2.08-.5-4.15.22-2.08.22-4.16,0-2.07,0-4.15-.37-2.08-.37-4.16.42-2.08.42-4.15S3,491,3,488.88s.31-2.08.31-4.16-.55-2.08-.55-4.16.58-2.08.58-4.16S3,474.32,3,472.24s-.31-2.07-.31-4.15S3,466,3,463.93s-.28-2.08-.28-4.16.52-2.08.52-4.15S3,453.54,3,451.46s.43-2.08.43-4.16-.21-2.07-.21-4.15-.77-2.08-.77-4.16.54-2.08.54-4.15-.14-2.08-.14-4.16.35-2.08.35-4.16.12-2.08.12-4.16-.1-2.08-.1-4.15-.09-2.08-.09-4.16-.67-2.08-.67-4.16-.09-2.08-.09-4.16.34-2.07.34-4.15.1-2.08.1-4.16.3-2.08.3-4.15S3,391.19,3,389.11s.27-2.08.27-4.16-.81-2.08-.81-4.15.83-2.08.83-4.16,0-2.08,0-4.16,0-2.08,0-4.16-.86-2.08-.86-4.16.81-2.08.81-4.16-.15-2.08-.15-4.16.31-2.08.31-4.16-.7-2.07-.7-4.15.89-2.08.89-4.16-1.08-2.08-1.08-4.16,1-2.08,1-4.16S3.1,333,3.1,330.9s-.54-2.09-.54-4.17.66-2.08.66-4.16-.1-2.08-.1-4.16-.91-2.08-.91-4.15.45-2.08.45-4.16-.28-2.08-.28-4.16,0-2.08,0-4.16.09-2.08.09-4.16-.22-2.08-.22-4.16.51-2.08.51-4.16.45-2.08.45-4.16.1-2.08.1-4.16-1.12-2.08-1.12-4.16,1.2-2.07,1.2-4.15-.4-2.08-.4-4.16-.13-2.08-.13-4.16.06-2.08.06-4.16-.52-2.08-.52-4.16,1.1-2.08,1.1-4.16-1.14-2.08-1.14-4.16.49-2.08.49-4.16.21-2.08.21-4.16.21-2.08.21-4.16-.72-2.08-.72-4.16.13-2.08.13-4.16.49-2.08.49-4.16-.08-2.08-.08-4.17.37-2.08.37-4.16,0-2.08,0-4.16,0-2.08,0-4.16S2.18,204,2.18,201.94s.35-2.08.35-4.16.16-2.08.16-4.16.86-2.08.86-4.16-1.32-2.08-1.32-4.15.41-2.08.41-4.16S3,179.07,3,177s-.53-2.08-.53-4.16,1-2.08,1-4.17-.48-2.08-.48-4.16.31-2.08.31-4.16-1-2.07-1-4.15,1.19-2.08,1.19-4.16S2.42,150,2.42,147.88s.06-2.08.06-4.16-.11-2.08-.11-4.16.33-2.08.33-4.16.08-2.08.08-4.16-.51-2.08-.51-4.16.47-2.08.47-4.16.76-2.08.76-4.16-.57-2.08-.57-4.16.6-2.08.6-4.17-.06-2.08-.06-4.16-.29-2.08-.29-4.16-1-2.08-1-4.16S3,95.87,3,93.79s-.08-2.08-.08-4.16.19-2.09.19-4.17-.07-2.08-.07-4.16-.56-2.08-.56-4.16S2.33,75.06,2.33,73,3,70.89,3,68.81s-.41-2.08-.41-4.16.16-2.08.16-4.17.31-2.08.31-4.16-.79-2.08-.79-4.16.55-2.08.55-4.16.69-2.08.69-4.16-1-2.09-1-4.17-.29-2.08-.29-4.16.87-2.09.87-4.17.46-2.08.46-4.17S2.77,25.09,2.77,23s0-2.08,0-4.17,0-2.08,0-4.16.62-2.08.62-4.17.08-2.08.08-4.17-.15-2.09-.15-4.17"/></g></g></g></svg>