<svg xmlns="http://www.w3.org/2000/svg" viewBox="0 0 652.03 153.57"><defs><style>.cls-1{fill:#e6b49d;}.cls-2{font-size:37.54px;fill:#62272d;font-family:PTSerif-Italic, PT Serif;font-style:italic;}.cls-2,.cls-8{letter-spacing:0.04em;}.cls-3{letter-spacing:0.03em;}.cls-4{letter-spacing:0.04em;}.cls-5{letter-spacing:0.06em;}.cls-6{letter-spacing:0.03em;}.cls-7{letter-spacing:0.03em;}</style></defs><g id="Layer_2" data-name="Layer 2"><g id="sect8"><g id="bubbles"><path class="cls-1" d="M32.3,134.2c1.06-1.78.43-2,.43-4s-.81-2.08-.81-4.16-.12-2.07-.12-4.15.67-2.07.67-4.15-.22-2.07-.22-4.15.68-2.07.68-4.15-1.08-2.08-1.08-4.15.07-2.08.07-4.15.73-2.08.73-4.15-.8-2.08-.8-4.15.69-2.08.69-4.16.22-2.07.22-4.15S32,82.43,32,80.35s.52-2.08.52-4.15S32,74.12,32,72.05s1-2.08,1-4.15-1.25-2.08-1.25-4.15.77-2.08.77-4.16.45-2.07.45-4.15-.56-2.08-.56-4.15-.66-2.08-.66-4.16.81-2.07.81-4.15-.46-2.08-.46-4.16-.34-2.07-.34-4.15,1-2.08,1-4.16.06-2.07.06-4.15-1-2.08-1-4.16.29-2.08.29-4.16a18.87,18.87,0,0,1,.19-4,19.58,19.58,0,0,1,1.37-3.78c.57-1.17,2-1.86,2.79-2.87A16.75,16.75,0,0,1,39.39,5c1-.8,1.65-2.14,2.83-2.7s2.59-.23,3.87-.52,2.4-.95,3.73-.95C51.9.79,51.9.87,54,.87s2.09,0,4.17,0,2.09.08,4.17.08S64.41.49,66.49.49,68.58,1,70.66,1s2.09-.7,4.17-.7S76.92.6,79,.6,81.09.34,83.18.34s2.08,0,4.17,0,2.08,1.06,4.17,1.06,2.08-.32,4.17-.32S97.77.4,99.86.4s2.08.94,4.16.94,2.09-.13,4.17-.13,2.09-.92,4.17-.92,2.08.09,4.17.09S118.61.2,120.7.2s2.08.58,4.16.58,2.09.3,4.17.3,2.09-.65,4.17-.65,2.08.78,4.17.78,2.08-.72,4.17-.72,2.08.07,4.17.07,2.09.44,4.17.44S152,.33,154.05.33h4.18c2.08,0,2.08,1,4.17,1S164.48.28,166.57.28s2.08.84,4.17.84S172.82.2,174.91.2,177,1,179.08,1s2.08-.6,4.17-.6,2.08.23,4.17.23,2.08-.22,4.17-.22,2.08.1,4.16.1,2.09-.06,4.17-.06S202,.5,204.1.5s2.08.78,4.17.78,2.08-.4,4.17-.4,2.09.09,4.17.09,2.09.21,4.18.21S222.87.56,225,.56s2.08,0,4.17,0,2.08,0,4.17,0,2.08.12,4.17.12,2.08.6,4.17.6,2.08-.23,4.17-.23S247.89.27,250,.27s2.08.75,4.17.75,2.09-.37,4.17-.37,2.09,0,4.17,0,2.09-.7,4.18-.7,2.08.49,4.17.49,2.09.75,4.17.75,2.09-.35,4.17-.35,2.09-.07,4.17-.07,2.09-.23,4.18-.23,2.08-.08,4.17-.08,2.08.46,4.17.46S298,.08,300,.08s2.09.15,4.17.15,2.09-.17,4.18-.17,2.08,1,4.17,1,2.09-.4,4.17-.4,2.09-.63,4.17-.63,2.09.51,4.17.51,2.09.46,4.18.46,2.08.32,4.17.32,2.08,0,4.17,0,2.09-.26,4.17-.26,2.09-.53,4.18-.53S348,.3,350.11.3s2.09-.09,4.17-.09,2.09,1.11,4.17,1.11,2.09-.67,4.18-.67,2.08.67,4.17.67,2.09-.05,4.17-.05,2.09-1,4.18-1S377.23,0,379.32,0s2.09,1.08,4.17,1.08,2.09-.87,4.18-.87,2.08.41,4.17.41,2.09.63,4.17.63,2.09.06,4.18.06S402.27.1,404.36.1s2.09,1.11,4.17,1.11,2.09-1,4.18-1,2.08.25,4.17.25,2.09.69,4.18.69S423.14.08,425.23.08s2.09,0,4.17,0,2.09.88,4.17.88,2.09-.22,4.18-.22,2.09.67,4.17.67S444,.71,446.09.71,448.18.2,450.26.2s2.09.23,4.17.23,2.09,0,4.17,0,2.09-.38,4.17-.38S464.86.5,467,.5s2.08.3,4.17.3,2.08.3,4.17.3,2.09-.54,4.17-.54,2.09.58,4.17.58,2.09-.31,4.17-.31S489.89.52,492,.52s2.09.26,4.17.26S498.24.5,500.33.5s2.08.51,4.17.51,2.09-.23,4.17-.23,2.09.43,4.18.43S514.94,1,517,1s2.09-.77,4.18-.77,2.08.54,4.17.54,2.09-.13,4.18-.13,2.08.34,4.17.34,2.09.12,4.18.12S540,1,542.07,1s2.09-.09,4.18-.09,2.09-.67,4.17-.67,2.09-.1,4.18-.1,2.09.35,4.18.35,2.08.1,4.17.1,2.09.29,4.18.29,2.09-.08,4.18-.08,2.08.26,4.17.26,2.09-.8,4.17-.8,2.09.83,4.18.83,2.09-.05,4.17-.05,2.09,0,4.18,0,2.09-.85,4.18-.85,2.09.81,4.18.81,2.09-.16,4.18-.16,2.08.32,4.17.32S611,.49,613.07.49s2.09.89,4.18.89S619.34.31,621.43.31s2.09,1,4.18,1,2.1-.35,4.19-.35S631.89.38,634,.38c1.33,0,2.55.8,3.79,1.09a16.91,16.91,0,0,1,3.63,1.16c1.18.57,2.8.53,3.81,1.33a19.08,19.08,0,0,1,2.5,3.13,18,18,0,0,1,2.35,3.21,18.43,18.43,0,0,1,1.33,3.76,18.6,18.6,0,0,1,.35,4c0,2.09.23,2.09.23,4.19s-.52,2.09-.52,4.19-.45,2.09-.45,4.19-.09,2.1-.09,4.19S652,36.9,652,39s-1.21,2.1-1.21,4.19.4,2.1.4,4.19.14,2.1.14,4.2-.06,2.09-.06,4.19.52,2.09.52,4.19-1.11,2.1-1.11,4.19,1.15,2.1,1.15,4.2-.5,2.09-.5,4.19-.2,2.1-.2,4.19-.21,2.1-.21,4.2.71,2.09.71,4.19-.13,2.09-.13,4.19-.48,2.09-.48,4.19.08,2.1.08,4.19-.38,2.1-.38,4.2,0,2.09,0,4.19,0,2.1,0,4.2,1.25,2.09,1.25,4.19-.34,2.1-.34,4.2-.17,2.09-.17,4.19-.86,2.1-.86,4.2,1.32,2.1,1.32,4.2-.4,2.1-.4,4.2a17.5,17.5,0,0,1-.8,3.83c-.29,1.28-.24,2.71-.8,3.87s-2.13,1.7-2.93,2.7a16.62,16.62,0,0,1-2.35,3,17.51,17.51,0,0,1-3.38,1.77c-1.16.55-2.07,1.9-3.35,2.19s-2.64-.74-4-.74c-2.07,0-2.07,1.15-4.14,1.15s-2.08-.06-4.15-.06-2.07.12-4.15.12-2.07-.34-4.15-.34-2.07-.08-4.15-.08-2.07.51-4.15.51-2.07-.47-4.15-.47-2.07-.76-4.15-.76-2.07.57-4.15.57-2.07-.6-4.15-.6-2.07.06-4.15.06-2.07.29-4.14.29-2.08,1-4.15,1-2.07-.79-4.15-.79-2.07.08-4.14.08-2.08-.19-4.15-.19-2.07.07-4.15.07-2.07.56-4.14.56-2.08.16-4.15.16-2.08-.68-4.15-.68-2.07.41-4.15.41-2.07-.16-4.15-.16-2.07-.3-4.15-.3-2.07.78-4.15.78-2.07-.55-4.15-.55-2.07-.69-4.15-.69-2.08,1-4.15,1-2.08.29-4.15.29-2.08-.87-4.15-.87-2.07-.46-4.15-.46-2.07.77-4.15.77-2.07,0-4.14,0h-4.15c-2.08,0-2.08-.62-4.15-.62s-2.07-.08-4.15-.08-2.07.15-4.15.15-2.07-.24-4.15-.24-2.07,1.24-4.15,1.24-2.07-.74-4.15-.74-2.07.8-4.15.8-2.08-.78-4.15-.78-2.08.16-4.15.16-2.08.27-4.15.27-2.08,0-4.15,0-2.08-.51-4.15-.51-2.08-.31-4.15-.31-2.07,1.06-4.15,1.06-2.07-.21-4.15-.21-2.07.31-4.15.31-2.07-.37-4.15-.37-2.08.29-4.15.29-2.08-.93-4.15-.93-2.08.85-4.16.85-2.07-.08-4.15-.08-2.07.18-4.15.18-2.07-1.16-4.15-1.16-2.07,1.19-4.15,1.19-2.07-.54-4.15-.54-2.07-.33-4.15-.33-2.07-.12-4.15-.12-2.07.22-4.15.22-2.08.32-4.15.32-2.08-.55-4.15-.55-2.08-.15-4.16-.15-2.07,1.16-4.15,1.16-2.07-.63-4.15-.63-2.07-.34-4.15-.34-2.07.75-4.15.75-2.07,0-4.15,0-2.08-.44-4.15-.44-2.08.24-4.16.24-2.07-.12-4.15-.12-2.07-.11-4.15-.11-2.07.76-4.15.76-2.07-.34-4.15-.34-2.08-.67-4.15-.67-2.08-.17-4.16-.17-2.07,0-4.15,0-2.07.06-4.15.06-2.08,0-4.15,0-2.08-.12-4.15-.12-2.08,1-4.15,1-2.08.31-4.16.31-2.07-.33-4.15-.33-2.08-.95-4.15-.95-2.08,0-4.16,0-2.07,1-4.15,1-2.07-.77-4.15-.77-2.08,1.07-4.15,1.07-2.08-1.41-4.16-1.41-2.07,1.38-4.15,1.38-2.07,0-4.15,0-2.08-.78-4.15-.78-2.08.24-4.16.24-2.07.3-4.15.3-2.07.23-4.14.23-2.08-1-4.15-1-2.07.36-4.15.36-2.07.59-4.15.59-2.08-.5-4.15-.5-2.08-.77-4.16-.77-2.07.7-4.15.7-2.07-.06-4.15-.06-2.07.49-4.15.49-2.07-.55-4.15-.55-2.07.7-4.15.7-2.08-1.25-4.15-1.25-2.08.82-4.16.82-2.07-.45-4.15-.45-2.07.71-4.15.71-2.08.27-4.15.27-2.08-.35-4.16-.35-2.07-.44-4.15-.44-2.08.39-4.15.39-2.08-.08-4.16-.08-2.08-.55-4.15-.55-2.08.08-4.16.08-2.07.39-4.15.39-2.08-.38-4.15-.38-2.08.48-4.16.48-2.08-.52-4.16-.52-2.07.08-4.15.08-2.08.8-4.16.8-2.07-1.05-4.15-1.05-2.08.09-4.16.09-2.08,1-4.15,1-2.08-.82-4.15-.82-2.08.46-4.16.46-2.08-.78-4.15-.78-2.08.43-4.16.43-2.08-.5-4.15-.5-2.08.72-4.16.72-2.08.38-4.16.38-2.08-1.14-4.16-1.14-2.08,0-4.15,0H69.41c-2.08,0-2.08.35-4.16.35s-2.08,0-4.16,0-2.08.73-4.17.73-2.08.27-4.16.27c-1.47,0-1.47-1.08-2.94-1.08-2.09,0-2.09.21-4.18.21s-2.1.37-4.19.37-2.09-.24-4.18-.24-2.09-.06-4.19-.06-2.09-.24-4.18-.24-2.1.15-4.19.15-2.09.07-4.18.07-2.1.22-4.19.22-2.09-.7-4.19-.7-2.09.34-4.19.34-2.09.23-4.19.23S.63,154.67.1,152.64s1.25-1,3.08-2,2-.7,3.84-1.72,1.77-1.11,3.6-2.14S12,145,13.85,144s2.33-.14,4.16-1.16,1.6-1.44,3.42-2.47,1.6-1.44,3.42-2.47,2.24-.18,4.2-1S31.24,136,32.3,134.2Z"/><text class="cls-2" transform="translate(103.81 64.64)">O<tspan class="cls-3" x="28.9" y="0">k</tspan><tspan class="cls-4" x="48.01" y="0">ay! </tspan><tspan class="cls-5"><tspan x="0" y="55.44">O</tspan><tspan class="cls-4" x="29.54" y="55.44">nline </tspan><tspan class="cls-6" x="126.95" y="55.44">w</tspan><tspan class="cls-4" x="154.01" y="55.44">edding here </tspan><tspan class="cls-7" x="365.87" y="55.44">w</tspan><tspan class="cls-8" x="392.94" y="55.44">e go!</tspan></tspan></text></g></g></g></svg>