<svg xmlns="http://www.w3.org/2000/svg" viewBox="0 0 5.74 556.7"><defs><style>.cls-1{fill:none;stroke:#000;stroke-linecap:round;stroke-linejoin:round;stroke-width:4.33px;}</style></defs><g id="Layer_2" data-name="Layer 2"><g id="sect9"><g id="innerconn"><path class="cls-1" d="M2.47,554.53c0-2.07-.08-2.07-.08-4.15s.56-2.07.56-4.15.62-2.07.62-4.15-1-2.07-1-4.15.07-2.07.07-4.15.87-2.07.87-4.15-1-2.07-1-4.14.64-2.08.64-4.16.21-2.07.21-4.14-.21-2.08-.21-4.15.35-2.08.35-4.15,0-2.07,0-4.15-1.14-2.07-1.14-4.15.07-2.07.07-4.15.2-2.08.2-4.15-.07-2.08-.07-4.15.8-2.07.8-4.15-.86-2.08-.86-4.15.87-2.08.87-4.16-.52-2.07-.52-4.15-.19-2.07-.19-4.15v-4.15c0-2.07.64-2.07.64-4.15S3.1,457,3.1,454.93s-.05-2.08-.05-4.15-.44-2.08-.44-4.15.21-2.08.21-4.15.12-2.08.12-4.15-.19-2.08-.19-4.16.75-2.07.75-4.15-.42-2.07-.42-4.15.16-2.07.16-4.15-.46-2.08-.46-4.15-.35-2.08-.35-4.16.48-2.07.48-4.15.13-2.07.13-4.15.19-2.08.19-4.15-.35-2.08-.35-4.15-.21-2.07-.21-4.15.15-2.08.15-4.15.29-2.08.29-4.15-.54-2.08-.54-4.16.4-2.07.4-4.15S2.3,374,2.3,371.9s.82-2.08.82-4.16S3,365.67,3,363.59s.39-2.07.39-4.15-1.22-2.08-1.22-4.15.65-2.08.65-4.15.72-2.08.72-4.15-1.35-2.08-1.35-4.15.28-2.08.28-4.16.77-2.07.77-4.15-.57-2.08-.57-4.15.67-2.08.67-4.16-.67-2.08-.67-4.15.69-2.08.69-4.16-1-2.07-1-4.15.89-2.08.89-4.15,0-2.08,0-4.16S3,303.38,3,301.3s-.44-2.08-.44-4.15.13-2.08.13-4.15,0-2.08,0-4.16-.5-2.08-.5-4.15.11-2.08.11-4.15,0-2.08,0-4.15,1.06-2.08,1.06-4.15.05-2.08.05-4.16-.32-2.07-.32-4.15-.67-2.07-.67-4.15,1.13-2.08,1.13-4.16-.93-2.07-.93-4.15.25-2.07.25-4.15.21-2.08.21-4.15-.76-2.08-.76-4.15,1-2.08,1-4.16,0-2.08,0-4.15,0-2.08,0-4.16.2-2.07.2-4.15-1.11-2.08-1.11-4.15,1.18-2.08,1.18-4.16-.8-2.08-.8-4.15.26-2.08.26-4.16.57-2.08.57-4.15-.68-2.08-.68-4.16.21-2.08.21-4.15.48-2.08.48-4.16-.26-2.07-.26-4.14-.65-2.08-.65-4.15.44-2.08.44-4.15.05-2.08.05-4.15.28-2.08.28-4.16-1-2.08-1-4.15,0-2.08,0-4.15.23-2.08.23-4.16-.28-2.07-.28-4.15.61-2.07.61-4.15-.56-2.08-.56-4.15.28-2.08.28-4.16-.48-2.07-.48-4.15.89-2.08.89-4.15-.37-2.08-.37-4.16,0-2.08,0-4.16-.38-2.07-.38-4.15.85-2.08.85-4.15-.69-2.08-.69-4.16.13-2.07.13-4.15.08-2.08.08-4.16-.29-2.07-.29-4.15.91-2.08.91-4.16-1.17-2.07-1.17-4.15.24-2.08.24-4.16.7-2.08.7-4.15S2.85,79.1,2.85,77s.2-2.08.2-4.16-.47-2.08-.47-4.16-.28-2.08-.28-4.16.91-2.07.91-4.15-1-2.08-1-4.15.59-2.08.59-4.16.7-2.08.7-4.15-.43-2.08-.43-4.16.08-2.08.08-4.16S3,37.53,3,35.45s-.09-2.08-.09-4.16-.68-2.08-.68-4.16.64-2.08.64-4.16-.38-2.08-.38-4.15,0-2.08,0-4.16.22-2.08.22-4.16.82-2.09.82-4.17-.64-2.08-.64-4.16"/></g></g></g></svg>