<svg xmlns="http://www.w3.org/2000/svg" viewBox="0 0 812.18 545.52"><defs><style>.cls-1{fill:none;stroke:#000;stroke-linecap:round;stroke-linejoin:round;stroke-width:4.33px;}</style></defs><g id="Layer_2" data-name="Layer 2"><g id="sect5"><g id="connline"><path class="cls-1" d="M2.26,543.36c0-2.08.45-2.08.45-4.15s.06-2.07.06-4.14-.49-2.07-.49-4.14,1.14-2.07,1.14-4.14-.85-2.07-.85-4.14-.33-2.07-.33-4.14,1.06-2.07,1.06-4.14.3-2.07.3-4.14-.07-2.08-.07-4.15-1-2.07-1-4.14,0-2.07,0-4.14.35-2.07.35-4.14-.08-2.07-.08-4.15-.2-2.07-.2-4.14.17-2.07.17-4.14.16-2.07.16-4.14.65-2.07.65-4.14-.36-2.07-.36-4.14.11-2.07.11-4.14.28-2.08.28-4.15-.74-2.07-.74-4.14-.44-2.07-.44-4.14.43-2.07.43-4.14S2.3,446,2.3,444s.22-2.08.22-4.15.22-2.07.22-4.14-.13-2.07-.13-4.14,0-2.07,0-4.14.35-2.07.35-4.15S3,421.17,3,419.1,2.46,417,2.46,415s.36-2.07.36-4.14.6-2.07.6-4.15-.23-2.07-.23-4.14-.86-2.07-.86-4.14.62-2.07.62-4.14.12-2.07.12-4.14.14-2.08.14-4.15-.83-2.07-.83-4.14,1-2.07,1-4.14.13-2.07.13-4.15-.22-2.07-.22-4.14-.36-2.07-.36-4.14.19-2.07.19-4.15S2.17,359,2.17,357s1-2.06,1-4.13-.55-2.07-.55-4.14.89-2.07.89-4.14-.65-2.07-.65-4.14-.48-2.07-.48-4.14-.06-2.08-.06-4.15.46-2.07.46-4.14.12-2.07.12-4.14.64-2.07.64-4.14-.83-2.07-.83-4.14-.49-2.07-.49-4.14.3-2.08.3-4.15.57-2.07.57-4.14.1-2.07.1-4.14.25-2.07.25-4.14-.28-2.08-.28-4.15.23-2.07.23-4.14-.28-2.07-.28-4.14,0-2.08,0-4.15-.69-2.07-.69-4.14.71-2.08.71-4.15-.42-2.07-.42-4.14-.48-2.07-.48-4.15,1.15-2.07,1.15-4.14S3,255.48,3,253.4s.54-2.07.54-4.14-.73-2.07-.73-4.15S3.6,243,3.6,241s-.09-2.08-.09-4.15-1-2.07-1-4.15-.22-2.07-.22-4.14,1.22-2.07,1.22-4.14-.44-2.08-.44-4.15-.31-2.07-.31-4.14S3,214,3,212s-.25-2.07-.25-4.14,0-2.08,0-4.15-.37-2.07-.37-4.15,1.07-2.07,1.07-4.15-.71-2.07-.71-4.15.06-2.07.06-4.14-.57-2.08-.57-4.15.34-2.08.34-4.15.19-2.08.19-4.16.44-2.07.44-4.15c0-1.45-.86-2.9-.77-4.29s1.1-2.78,1.29-4.15.31-2.84.61-4.19.39-2.87.81-4.19.56-2.89,1.11-4.17a39.75,39.75,0,0,1,1.91-3.87,36.72,36.72,0,0,1,2.67-3.38,34.9,34.9,0,0,1,2.48-3.54c1-1,2.81-1.14,3.91-2A31.72,31.72,0,0,1,20.45,134a32.37,32.37,0,0,1,3.71-2,35,35,0,0,1,3.92-1.61,39.41,39.41,0,0,1,4.17-.73c1.37-.26,2.68-1.15,4.12-1.28s2.83.8,4.28.8c.74,0,2.14-.77,4.16-.77,1.18,0,2.57-.08,4.17-.08,1.26,0,2.65.15,4.17.15,1.29,0,2.68.16,4.16.16,1.32,0,2.71-.38,4.16-.38s2.73-.37,4.17-.37,2.73.67,4.17.67,2.73.68,4.16.68,2.74-.37,4.16-.37,2.75-.4,4.17-.4,2.75.82,4.16.82,2.76-.38,4.17-.38,2.75,0,4.17,0,2.75-.7,4.16-.7,2.76.11,4.17.11,2.76-.15,4.17-.15,2.76.11,4.16.11,2.77.21,4.17.21,2.77-.32,4.17-.32,2.77,1.12,4.17,1.12,2.76-1.29,4.17-1.29,2.76.8,4.16.8,2.77-.33,4.17-.33,2.77.57,4.17.57,2.77-.11,4.17-.11l4.16,0c1.38,0,2.77-.35,4.17-.35s2.77,0,4.17,0,2.77.55,4.17.55,2.77-.5,4.16-.5,2.77.36,4.17.36,2.77.12,4.17.12,2.77-.09,4.16-.09l4.17,0c1.38,0,2.77-1.09,4.16-1.09s2.77,1.35,4.17,1.35,2.77-1.06,4.16-1.06,2.78-.3,4.17-.3h4.17c1.38,0,2.77,1.15,4.16,1.15s2.78-.56,4.17-.56,2.77.44,4.17.44,2.77-.66,4.16-.66,2.78-.22,4.17-.22,2.77.52,4.17.52,2.77,0,4.16,0,2.78.69,4.17.69,2.77-.58,4.17-.58,2.77-.67,4.16-.67,2.78,1.21,4.17,1.21,2.78-.2,4.17-.2,2.77-.31,4.17-.31,2.77-.17,4.16-.17,2.78-.51,4.17-.51,2.78.85,4.17.85,2.77-.32,4.17-.32,2.77.07,4.16.07,2.78-.23,4.17-.23,2.78.14,4.17.14,2.78-.43,4.17-.43,2.77.89,4.17.89,2.77-.58,4.16-.58,2.78-.26,4.17-.26,2.78.55,4.17.55,2.77-.72,4.16-.72,2.77,0,4.16,0,2.77.3,4.16.3,2.78.35,4.17.35,2.77.56,4.16.56,2.78-1,4.17-1,2.77-.28,4.16-.28,2.78.35,4.17.35,2.77-.15,4.16-.15l4.17,0c1.39,0,2.78.06,4.17.06s2.77,0,4.16,0,2.78-.07,4.17-.06,2.78-.15,4.17-.15,2.77.59,4.16.59,2.78.65,4.17.65,2.78-1.25,4.17-1.25,2.77,0,4.16,0,2.78.88,4.17.88,2.78-.85,4.17-.85,2.78.75,4.17.75,2.78-.76,4.17-.76,2.78.42,4.17.42,2.78.6,4.17.6,2.79-.42,4.18-.41,2.78-.18,4.17-.18h4.17c1.4,0,2.79-.4,4.18-.4s2.78,1,4.17,1l4.17,0,4.17,0c1.4,0,2.79-.9,4.18-.9s2.78-.14,4.17-.14,2.78.76,4.17.76,2.78-.58,4.17-.58,2.78.12,4.17.12,2.78-.28,4.17-.28,2.79,1.2,4.18,1.2,2.78-.69,4.17-.69,2.78.53,4.17.53,2.78-.73,4.17-.73,2.79.81,4.17.81,2.79,0,4.18,0,2.78-.54,4.17-.54,2.78.17,4.17.17,2.78-.93,4.17-.93,2.79.61,4.17.61,2.79-.3,4.18-.3,2.78-.07,4.17-.07,2.78.56,4.17.56,2.78.62,4.17.62,2.79-1.06,4.17-1.06,2.79.08,4.18.08,2.78.87,4.17.87,2.78-1,4.17-1,2.78.64,4.17.64,2.78.21,4.17.21,2.78-.21,4.17-.21,2.79.35,4.17.35h4.17c1.4,0,2.79-1.13,4.17-1.13s2.79.07,4.17.07,2.79.2,4.17.2,2.79-.07,4.17-.07,2.79.8,4.17.8,2.79-.86,4.17-.86,2.78.87,4.17.87,2.78-.52,4.17-.52,2.78-.19,4.16-.19h4.17c1.4,0,2.79.63,4.17.63s2.79-.2,4.17-.2,2.79,0,4.17,0,2.79-.44,4.17-.44,2.79.21,4.17.21,2.79.12,4.17.12,2.79-.19,4.17-.19,2.79.75,4.17.75,2.79-.42,4.17-.42,2.79.16,4.17.16,2.79-.46,4.17-.46,2.79-.35,4.17-.35,2.79.48,4.17.48,2.79.13,4.17.13,2.79.19,4.17.19,2.79-.35,4.17-.35,2.79-.21,4.17-.21,2.79.15,4.16.15,2.8.29,4.17.29,2.8-.54,4.17-.54,2.8.4,4.17.4,2.79-.67,4.17-.67,2.79.82,4.16.82,2.8-.11,4.17-.11,2.81.39,4.17.39,2.81-1.22,4.17-1.22,2.81.65,4.17.65,2.81.72,4.17.72,2.81-1.35,4.16-1.35,2.82.28,4.17.28,2.82.77,4.17.77,2.83-.57,4.16-.57,2.85.67,4.17.67c1.47,0,2.86-.67,4.16-.67,1.5,0,2.89.69,4.16.69,1.58,0,3-1,4.17-1,1.83,0,3.23.89,4.15.89l4.2,0c1.42,0,2.82-.27,4.19-.27s2.82-.46,4.19-.48,2.83.09,4.2.05,2.82-.1,4.19-.18,2.77-.68,4.13-.8,2.8-.18,4.15-.38,2.75-.49,4.07-.79,3,.34,4.32-.09a32.32,32.32,0,0,0,4-1.57,25,25,0,0,0,3.46-2.48c1.12-.82,1.7-2.22,2.66-3.26s2.67-1.43,3.44-2.65.56-2.81,1.14-4.16a33.06,33.06,0,0,0,1.62-3.84c.36-1.28.88-2.6,1.15-4s-.31-2.79-.15-4.24,1.19-2.65,1.26-4.11.11-2.75.11-4.21,0-2.84,0-4.26.2-2.84.2-4.25-1.1-2.85-1.1-4.26S810,75.89,810,74.49s-.8-2.85-.8-4.26.26-2.85.26-4.25.58-2.86.58-4.26-.69-2.85-.69-4.26.21-2.86.21-4.26.48-2.86.48-4.26-.26-2.86-.26-4.26-.64-2.86-.64-4.25.44-2.87.44-4.25,0-2.88,0-4.26.28-2.88.28-4.25-1-2.89-1-4.25,0-2.91,0-4.26.23-2.92.23-4.25c0-1.54-.27-3-.27-4.25,0-1.64.61-3.06.61-4.25a13,13,0,0,0-.57-4.24"/></g></g></g></svg>