<svg xmlns="http://www.w3.org/2000/svg" viewBox="0 0 587.8 139.83"><defs><style>.cls-1{fill:#e6b49d;}.cls-2{font-size:30.53px;fill:#62272d;font-family:PTSerif-Regular, PT Serif;}.cls-3{letter-spacing:0.02em;}.cls-4{letter-spacing:-0.04em;}.cls-5{letter-spacing:0em;}.cls-6,.cls-7,.cls-8,.cls-9{font-family:PTSerif-Italic, PT Serif;font-style:italic;}.cls-6{letter-spacing:-0.02em;}.cls-7{letter-spacing:0em;}.cls-9{letter-spacing:-0.09em;}.cls-10{font-family:PTSerif-Bold, PT Serif;font-weight:700;}.cls-11{fill:none;stroke:#e6b49d;stroke-linecap:round;stroke-linejoin:round;stroke-width:3.61px;}</style></defs><g id="Layer_2" data-name="Layer 2"><g id="sect4"><g id="art"><path class="cls-1" d="M33.09,120.1c1-1.75.17-1.86.17-3.9s-.32-2-.32-4.09,1.12-2,1.12-4.08-1.29-2-1.29-4.09.8-2,.8-4.09-.33-2-.33-4.09.57-2,.57-4.09-.11-2-.11-4.09,0-2,0-4.08-.35-2-.35-4.09,0-2,0-4.09.55-2,.55-4.09-.5-2-.5-4.09.36-2,.36-4.08.12-2.05.12-4.09-.09-2-.09-4.09,0-2,0-4.09-1.09-2-1.09-4.09,1.35-2.05,1.35-4.09S33,40.56,33,38.52s-.3-2.05-.3-4.09,0-2,0-4.1,1.15-2,1.15-4.09-.56-2-.56-4.1.44-2.05.44-4.09c0-1.33-.5-2.69-.22-3.93a18.66,18.66,0,0,1,1.1-3.82,18.43,18.43,0,0,1,2.54-3.06,17.38,17.38,0,0,1,2.72-2.77c1-.81,2.41-.88,3.59-1.45s2.11-1.51,3.39-1.8S49.41.12,50.73.12c2.09,0,2.09,1.22,4.17,1.22s2.09-.2,4.17-.2S61.16.82,63.24.82,65.32.65,67.41.65,69.49.14,71.58.14,73.66,1,75.74,1,77.83.67,79.91.67,82,.75,84.08.75,86.16.51,88.25.51s2.08.14,4.17.14S94.5.22,96.59.22s2.08.89,4.17.89,2.09-.58,4.17-.58S107,.27,109.1.27s2.09.56,4.18.56S115.36.1,117.44.1s2.09,0,4.17,0,2.09.31,4.17.31,2.09.35,4.17.35,2.09.55,4.17.55,2.09-1,4.17-1S140.38,0,142.46,0s2.09.35,4.17.35,2.09-.16,4.17-.16,2.09,0,4.18,0,2.08.05,4.17.05,2.08,0,4.17,0,2.08-.07,4.17-.07,2.08-.15,4.17-.15,2.08.59,4.17.59,2.08.65,4.17.65S182.08.1,184.17.1s2.08,0,4.17,0,2.09.89,4.17.89,2.09-.85,4.17-.85,2.09.75,4.18.75S202.94.15,205,.15s2.08.42,4.17.42,2.08.6,4.17.6,2.08-.41,4.17-.41,2.08-.18,4.17-.18h4.17c2.09,0,2.09-.39,4.17-.39s2.09,1,4.18,1,2.08,0,4.17,0h4.17c2.09,0,2.09-.91,4.17-.91s2.09-.13,4.17-.13,2.09.75,4.17.75,2.09-.58,4.18-.58,2.08.13,4.17.13,2.09-.29,4.17-.29,2.09,1.2,4.17,1.2,2.09-.69,4.17-.69,2.09.53,4.18.53,2.08-.73,4.17-.73,2.09.81,4.17.81,2.09.05,4.18.05,2.08-.54,4.17-.54,2.08.17,4.17.17S303.07,0,305.15,0s2.09.61,4.18.61,2.08-.29,4.17-.29,2.08-.08,4.17-.08,2.09.56,4.17.56,2.09.62,4.18.62,2.08-1,4.17-1,2.08.07,4.17.07,2.08.87,4.17.87,2.08-.95,4.16-.95,2.09.64,4.17.64,2.09.21,4.17.21S353.12,1,355.2,1s2.09.35,4.18.35h4.17c2.08,0,2.08-1.14,4.17-1.14s2.08.07,4.17.07,2.08.2,4.17.2,2.09-.07,4.17-.07,2.09.8,4.18.8,2.08-.86,4.17-.86,2.08.87,4.17.87,2.08-.52,4.17-.52S399,.52,401.1.52h4.17c2.09,0,2.09.64,4.17.64S411.53,1,413.62,1s2.08,0,4.17,0S419.88.46,422,.46s2.09.21,4.18.21,2.09.12,4.17.12S432.4.6,434.49.6s2.08.75,4.17.75,2.09-.42,4.18-.42,2.08.16,4.17.16,2.09-.46,4.18-.46,2.09-.35,4.17-.35,2.09.48,4.18.48,2.09.13,4.18.13,2.08.19,4.17.19S470,.73,472.06.73s2.09-.21,4.17-.21,2.09.15,4.18.15,2.09.29,4.18.29,2.08-.54,4.17-.54,2.09.4,4.18.4S495,.15,497.12.15s2.09.82,4.18.82,2.09-.11,4.17-.11,2.09.39,4.18.39S511.74,0,513.83,0s2.1.65,4.19.65,2.09.72,4.18.72c1.33,0,2.77-1.18,4-.9a18.73,18.73,0,0,1,3.68,1.58c1.17.57,1.87,1.91,2.88,2.72s2.32,1.31,3.13,2.32.91,2.44,1.48,3.62,1.61,2.13,1.91,3.41-.26,2.57-.26,3.9c0,2.06.94,2.06.94,4.13s-.89,2.06-.89,4.13,0,2.07,0,4.13.27,2.07.27,4.14.44,2.06.44,4.13-.12,2.07-.12,4.13V47c0,2.07.51,2.07.51,4.13s-.11,2.07-.11,4.14,0,2.06,0,4.13-1.07,2.07-1.07,4.14,0,2.06,0,4.13.32,2.06.32,4.13.67,2.07.67,4.13-1.13,2.07-1.13,4.14.92,2.06.92,4.13-.24,2.07-.24,4.14-.21,2.06-.21,4.13.75,2.07.75,4.14-1,2.07-1,4.14,0,2.07,0,4.13,0,2.07,0,4.14-.2,2.07-.2,4.14,1.1,2.07,1.1,4.14-1.17,2.07-1.17,4.15c0,1.32.64,2.64.36,3.88a17.12,17.12,0,0,1-1.52,3.58c-.57,1.17-1.7,1.89-2.5,2.9S534,134.15,533,135a17.81,17.81,0,0,1-3.37,1.87,16.62,16.62,0,0,1-3.72.8,16.22,16.22,0,0,1-3.7.67c-2.07,0-2.07.65-4.14.65s-2.07-.44-4.14-.44-2.08,0-4.15,0-2.07-.29-4.14-.29-2.07,1-4.14,1h-4.14c-2.07,0-2.07-.22-4.14-.22s-2.08.27-4.15.27-2.07-.61-4.14-.61-2.07.56-4.14.56-2.08-.28-4.15-.28-2.07.48-4.14.48-2.08-.89-4.15-.89-2.07.37-4.14.37-2.08,0-4.15,0-2.07.38-4.14.38-2.07-.85-4.15-.85-2.07.69-4.14.69-2.07-.13-4.14-.13-2.07-.08-4.15-.08-2.07.29-4.14.29-2.07-.91-4.14-.91-2.07,1.17-4.15,1.17-2.07-.24-4.14-.24-2.08-.7-4.15-.7-2.07.26-4.15.26-2.07-.2-4.14-.2-2.07.47-4.14.47-2.08.28-4.15.28-2.07-.91-4.14-.91-2.07,1-4.15,1-2.07-.59-4.14-.59-2.07-.7-4.14-.7-2.08.43-4.15.43-2.07-.07-4.15-.07-2.07.14-4.14.14-2.08.1-4.15.1-2.07.67-4.14.67-2.08-.64-4.15-.64-2.07.38-4.14.38-2.07,0-4.15,0-2.07-.22-4.14-.22-2.08-.82-4.15-.82-2.07.64-4.15.64-2.07-.52-4.14-.52-2.07.79-4.15.79-2.07-.43-4.14-.43-2.07-.08-4.15-.08-2.07-.15-4.14-.15-2.08.41-4.15.41-2.07.35-4.15.35-2.07.09-4.14.09-2.08.11-4.15.11-2.07,0-4.14,0-2.08-1-4.15-1-2.07-.2-4.15-.2-2.07.33-4.14.33-2.08.14-4.15.14-2.07.37-4.15.37-2.07-.31-4.14-.31-2.07.62-4.15.62-2.07-1-4.15-1-2.07.48-4.14.48-2.08-.44-4.15-.44-2.07.84-4.14.84-2.08.1-4.15.1h-4.15c-2.07,0-2.07-.59-4.14-.59s-2.07-.35-4.14-.35-2.07.94-4.14.94-2.08.25-4.15.25-2.07-.92-4.14-.92-2.07-.12-4.15-.12-2.07-.16-4.15-.16-2.07-.15-4.14-.15-2.07.21-4.14.21-2.08,1.12-4.15,1.12-2.07-.39-4.14-.39-2.08-.73-4.15-.73-2.07.46-4.15.46-2.07-.1-4.14-.1-2.08.5-4.15.5h-4.14c-2.08,0-2.08-.17-4.15-.17s-2.08-.16-4.15-.16-2.07.59-4.15.59-2.07-.33-4.14-.33-2.08-.95-4.15-.95-2.08-.08-4.15-.08-2.07,0-4.15,0-2.07.29-4.15.29-2.07.76-4.15.76-2.07-.17-4.15-.17-2.07.28-4.14.28-2.08-1-4.15-1-2.08,1.23-4.15,1.23-2.08-1.14-4.15-1.14-2.08.42-4.15.42-2.08,0-4.15,0-2.07.2-4.15.2-2.07,0-4.15,0-2.07.32-4.14.32-2.08-.59-4.15-.59-2.08-.45-4.15-.45-2.08,1.19-4.15,1.19-2.08-.92-4.15-.92-2.08-.22-4.16-.22-2.07.95-4.15.95-2.07-.79-4.15-.79-2.08.87-4.15.87-2.08-.71-4.16-.71-2.08.6-4.16.6-2.07.05-4.15.05c-1.48,0-1.48.17-3,.17-2.09,0-2.09-.7-4.18-.7s-2.09,0-4.18,0-2.09-.33-4.19-.33-2.09.6-4.18.6-2.09-.6-4.19-.6-2.09.19-4.18.19-2.1.22-4.19.22-2.09-.2-4.18-.2-2.1-.31-4.19-.31-2.09.67-4.19.67-2.1.23-4.19.23-4.08,1.79-4.62-.24,2-1.66,3.78-2.69,2-.7,3.84-1.72,1.91-.88,3.74-1.91,2.13-.48,4-1.51,1.21-2.11,3-3.14,1.82-1,3.65-2.06,2-.73,3.82-1.76,1.64-1.56,3.57-2.37S32,121.9,33.09,120.1Z"/><text class="cls-2" transform="translate(152.67 42.57)">I cried<tspan class="cls-3" x="85.6" y="0">..</tspan><tspan class="cls-4" x="104.1" y="0">.</tspan><tspan class="cls-5" x="111.39" y="0"> </tspan><tspan class="cls-6" x="118.81" y="0">‘</tspan><tspan class="cls-7" x="126.66" y="0">c</tspan><tspan class="cls-8" x="139.69" y="0">ause FINAL</tspan><tspan class="cls-9" x="292.48" y="0">L</tspan><tspan class="cls-8" x="306.07" y="0">Y</tspan><tspan class="cls-4" x="325.45" y="0">.</tspan><tspan x="325.33" y="37.99"> </tspan><tspan x="121.77" y="75.98">And I said </tspan><tspan class="cls-10" x="265.46" y="75.98">YES!</tspan></text><path class="cls-11" d="M559.73,130.57a7.77,7.77,0,0,1,.72-3.56,9.89,9.89,0,0,1,2.25-2.9,15.26,15.26,0,0,1,3-2.1,18.77,18.77,0,0,1,3.55-.88,18.06,18.06,0,0,1,3.52-1,15.31,15.31,0,0,1,3.59.73,18.36,18.36,0,0,1,3.45,1.19,15.16,15.16,0,0,1,3,2.12,9.37,9.37,0,0,1,1.89,3,7.29,7.29,0,0,1,1.29,3.34"/><path class="cls-1" d="M579.36,132a6.36,6.36,0,0,1-.28,1.69,6.71,6.71,0,0,1-.66,1.56,5.23,5.23,0,0,1-2.4,2.34,6.62,6.62,0,0,1-6.52.1,6.47,6.47,0,0,1-1.27-1.13,6.52,6.52,0,0,1-1.77-2.86,7,7,0,0,1,0-3.4,7,7,0,0,1,.49-1.67c.29-.5.88-.79,1.28-1.19a6.12,6.12,0,0,1,1.33-1,6.5,6.5,0,0,1,1.54-.7,6.8,6.8,0,0,1,1.69-.29,6.31,6.31,0,0,1,1.66.41,7.3,7.3,0,0,1,1.71.34,6.87,6.87,0,0,1,1.24,1.23,6.68,6.68,0,0,1,1.13,1.3,6.44,6.44,0,0,1,.36,1.67A6.28,6.28,0,0,1,579.36,132Z"/></g></g></g></svg>