<svg xmlns="http://www.w3.org/2000/svg" viewBox="0 0 1149.36 303.41"><defs><style>.cls-1,.cls-11{fill:none;stroke-linecap:round;stroke-linejoin:round;stroke-width:3.61px;}.cls-1{stroke:#8e9b91;}.cls-2{fill:#e6b49d;}.cls-3{font-size:34.66px;fill:#62272d;font-family:PTSerif-Italic, PT Serif;font-style:italic;}.cls-4{letter-spacing:0.02em;}.cls-5{letter-spacing:-0.04em;}.cls-6{letter-spacing:0em;}.cls-7{letter-spacing:-0.01em;}.cls-8{letter-spacing:-0.01em;}.cls-9{fill:#fff;}.cls-10{fill:#8e9b91;}.cls-11{stroke:#000;}</style></defs><g id="Layer_2" data-name="Layer 2"><g id="sect5"><g id="art"><path class="cls-1" d="M323.17,124.65c4.08,0,4.08-1.3,8.17-1.3h8.17c4.08,0,4.08-.18,8.17-.18s4.08.49,8.17.49,4.08-1.3,8.17-1.3,4.08.27,8.17.27,4.08.9,8.17.9,4.08-.1,8.17-.1,4.08-.14,8.17-.14,4.08.44,8.17.44,4.08-1.4,8.17-1.4h8.17c4.08,0,4.08,1.19,8.17,1.19s4.08.49,8.16.49,4.09-.44,8.17-.44,4.08,1,8.17,1,4.08-1.43,8.16-1.43,4.08-1.11,8.17-1.11,4.08.82,8.16.82,4.09.41,8.17.41,4.09-.49,8.17-.49,4.09-.49,8.17-.49,4.09,1.32,8.17,1.32,4.09-1.62,8.17-1.62,4.08.72,8.17.72,4.08,1,8.16,1,4.09.47,8.17.47,4.08.3,8.17.3,4.08-1.88,8.17-1.88,4.08.13,8.17.13,4.09-.49,8.17-.49,4.09.48,8.17.48,4.08.06,8.17.06,4.08,1.21,8.17,1.21,4.08-.69,8.16-.69,4.09.86,8.17.86,4.09-.05,8.18-.05,4.08.27,8.17.27,4.08-1.19,8.17-1.19,4.08-.06,8.16-.06,4.09,1.08,8.17,1.08,4.09-1.36,8.17-1.36,4.09,1.81,8.18,1.81,4.08-2.23,8.17-2.23,4.08,1.53,8.17,1.53,4.08-2,8.17-2,4.08,2.54,8.17,2.54,4.08.17,8.17.17,4.08-2.06,8.17-2.06,4.09-.29,8.17-.29,4.09.11,8.17.11H748c4.09,0,4.09,1.11,8.18,1.11s4.08.68,8.17.68,4.08-1.8,8.17-1.8,4.08.94,8.17.94,4.09.27,8.17.27,4.09-.12,8.18-.12,4.08.12,8.17.12,4.08-.91,8.17-.91,4.09-.48,8.17-.48,4.09,1.85,8.17,1.85,4.09-1.49,8.18-1.49S842,122,846,122s4.09.71,8.17.71,4.09.74,8.18.74,4.08.78,8.17.78,4.08-.77,8.17-.77,4.09-.27,8.18-.27,4.08-1.26,8.17-1.26,4.09,1.6,8.17,1.6,4.09-1.54,8.18-1.54,4.08.73,8.17.73,4.09,0,8.17,0,4.09.4,8.18.4,4.08.7,8.16.7,4.09-.75,8.17-.75,4.09.26,8.18.26,4.08.74,8.17.74,4.08-.93,8.17-.93,4.09.88,8.17.88,4.09.28,8.18.28,4.08-1.41,8.17-1.41,4.09,1.68,8.17,1.68,4.09-1.83,8.18-1.83,4.08-.65,8.17-.65,4.09,1.3,8.18,1.3,4.09.24,8.17.24,4.09,1,8.18,1,4.09-1.12,8.17-1.12,4.09-.34,8.18-.34,4.09,1.5,8.18,1.5,4.09-2.78,8.17-2.78,4.09.68,8.18.68,4.09-.71,8.17-.71,4.09,2.78,8.18,2.78,4.09-1,8.18-1,4.09-.54,8.18-.54,4.09.48,8.18.48,4.09-.41,8.19-.41"/><path class="cls-1" d="M1.8,124.25c4.26,0,4.26-.77,8.52-.77s4.25-1.62,8.51-1.62,4.26.59,8.51.59,4.26,1.74,8.52,1.74"/><path class="cls-2" d="M373.86,164c1.07-1.82.05-2.14.05-4.25s-.25-2.1-.25-4.21.1-2.1.1-4.21.3-2.11.3-4.21-.8-2.11-.8-4.22.9-2.1.9-4.21-.06-2.11-.06-4.21-.44-2.11-.44-4.22.11-2.1.11-4.21-.28-2.11-.28-4.21.05-2.11.05-4.22-.2-2.11-.2-4.21.34-2.11.34-4.22-.35-2.1-.35-4.21.79-2.1.79-4.21,0-2.11,0-4.21-1-2.11-1-4.22.67-2.11.67-4.21.39-2.11.39-4.22,0-2.11,0-4.21-1-2.11-1-4.22.71-2.11.71-4.22-.81-2.1-.81-4.21,1.25-2.11,1.25-4.22-.08-2.11-.08-4.22-.6-2.11-.6-4.22,0-2.11,0-4.22a17.86,17.86,0,0,1,.35-3.9,18.69,18.69,0,0,1,1-3.84c.57-1.17,2-1.82,2.81-2.83s1.18-2.49,2.19-3.3,2.66-.58,3.83-1.14a16,16,0,0,1,3.47-1.45c1.24-.28,2.43-1.39,3.76-1.39,2.08,0,2.08.32,4.15.32s2.08.74,4.16.74,2.08-1.2,4.16-1.2,2.08,1.18,4.15,1.18,2.08-.15,4.16-.15,2.08-.78,4.16-.78,2.08,1.12,4.15,1.12,2.08-.07,4.15-.07,2.08-1.05,4.15-1.05,2.08.32,4.15.32,2.08.5,4.16.5,2.07-.39,4.15-.39,2.07.67,4.15.67,2.08-1.16,4.15-1.16,2.08,1.12,4.16,1.12h4.15c2.08,0,2.08-1.35,4.15-1.35s2.08.5,4.16.5,2.08.76,4.16.76,2.07-1.08,4.15-1.08,2.08.94,4.16.94,2.08.13,4.16.13,2.08-1.11,4.16-1.11,2.08,0,4.15,0,2.08.92,4.16.92,2.08-.14,4.16-.14,2.07-.87,4.15-.87,2.08.87,4.16.87,2.07-.56,4.15-.56,2.08.47,4.16.47,2.07.56,4.15.56,2.08-.37,4.15-.37,2.08-.94,4.16-.94,2.07,1.29,4.15,1.29,2.08,0,4.15,0,2.08-.39,4.16-.39,2.07-.64,4.15-.64,2.08,1,4.15,1,2.08-1,4.16-1,2.08-.28,4.15-.28,2.08.72,4.16.72,2.08.28,4.15.28,2.08-.27,4.16-.27,2.08.38,4.16.38,2.08-.49,4.16-.49,2.08-.4,4.16-.4,2.08.77,4.16.77,2.08,0,4.15,0,2.08-.75,4.16-.75,2.08-.3,4.16-.3,2.07,1.19,4.15,1.19,2.08,0,4.16,0,2.07-.82,4.15-.82,2.08.21,4.16.21,2.07-.18,4.15-.18,2.08-.34,4.16-.34,2.07.59,4.15.59,2.08-.38,4.16-.38,2.07.68,4.15.68,2.08-.36,4.16-.36,2.08-.51,4.16-.51,2.08.1,4.16.1,2.08.18,4.16.18,2.08-.35,4.16-.35,2.07.39,4.15.39,2.08.55,4.16.55,2.08-.59,4.16-.59h4.15c2.08,0,2.08.94,4.16.94s2.08-.65,4.16-.65h4.15c2.08,0,2.08.34,4.16.34s2.08-.65,4.16-.65,2.07.3,4.15.3,2.08-.51,4.16-.51,2.08,1,4.16,1,2.08-.93,4.16-.93,2.08.91,4.16.91,2.08-.52,4.16-.52,2.08.55,4.16.55,2.08-.87,4.15-.87,2.08.3,4.16.3,2.08.7,4.16.7,2.08-.54,4.16-.54,2.07-.64,4.15-.64,2.08,1.36,4.16,1.36,2.08-.48,4.16-.48h4.16c2.08,0,2.08.34,4.16.34s2.08-.44,4.16-.44,2.08-.6,4.16-.6,2.08,1,4.15,1,2.08-.21,4.16-.21,2.08-.31,4.16-.31,2.08-.5,4.16-.5,2.08,1,4.16,1,2.08-.1,4.15-.1,2.08-.59,4.16-.59,2.08-.16,4.16-.16,2.08-.1,4.16-.1,2.08,0,4.16,0,2.08,1,4.16,1,2.08-1.22,4.16-1.22,2.08,1,4.16,1,2.08-.85,4.16-.85,2.08.45,4.16.45,2.08,0,4.16,0,2.08-.14,4.16-.14,2.08-.1,4.16-.1,2.08.76,4.16.76,2.08-1.06,4.16-1.06,2.08,1.25,4.16,1.25,2.08-.25,4.15-.25,2.08.07,4.16.07,2.09-.13,4.17-.13,2.08-.28,4.16-.28,2.08-.12,4.16-.12,2.08,0,4.16,0,2.08-.63,4.16-.63,2.08.73,4.16.73,2.08.23,4.16.23,2.08-.54,4.16-.54,2.08.65,4.16.65,2.08-.59,4.16-.59,2.08-.48,4.16-.48,2.08-.1,4.16-.1,2.08,1,4.16,1,2.08-.62,4.16-.62,2.08.58,4.16.58,2.08-.26,4.16-.26,2.08-.21,4.16-.21,2.08.58,4.16.58,2.08-.54,4.16-.54,2.08.73,4.16.73,2.07-1,4.15-1,2.08.52,4.16.52,2.08.27,4.16.27,2.08.27,4.16.27,2.08.13,4.16.13,2.08-.73,4.16-.73,2.08-.18,4.15-.18,2.08-.47,4.16-.47,2.08,1,4.16,1,2.08-.42,4.16-.42,2.08-.15,4.16-.15,2.08.56,4.16.56,2.08-.46,4.16-.46,2.08-.43,4.16-.43,2.09.78,4.17.78,2.08-.64,4.16-.64,2.08.89,4.16.89,2.08-.43,4.16-.43,2.08.49,4.16.49,2.08,0,4.16,0,2.08-.15,4.17-.15,2.08-.85,4.16-.85,2.08.93,4.16.93,2.08-.65,4.16-.65,2.09.11,4.17.11,2.08-.19,4.16-.19,2.08-.16,4.16-.16,2.08-.07,4.17-.07,2.08.84,4.16.84,2.08-.07,4.17-.07,2.08-.64,4.15-.64,2.09-.08,4.17-.08,2.08.1,4.16.1,2.08-.17,4.16-.17,2.08.14,4.17.14,2.08.2,4.16.2,2.08.52,4.17.52,2.08-.51,4.16-.51,2.09-.27,4.17-.27,2.08-.07,4.16-.07,2.09.41,4.17.41,2.08-.32,4.17-.32,2.09-.19,4.17-.19,2.09-.08,4.17-.08c1.33,0,2.63.78,3.87,1.07a17.27,17.27,0,0,1,3.56,1.52c1.18.57,2.62.76,3.63,1.57a18.48,18.48,0,0,1,2.46,3.08,17.29,17.29,0,0,1,2,3.29,17.75,17.75,0,0,1,1.77,3.54,17.71,17.71,0,0,1,.34,4v4.1c0,2,.18,2,.18,4.1s-.87,2.05-.87,4.1.76,2.05.76,4.11-.52,2-.52,4.1.32,2,.32,4.1.24,2.05.24,4.1-1,2.06-1,4.11.69,2,.69,4.1-.46,2.05-.46,4.11.39,2.05.39,4.1,0,2,0,4.11.56,2,.56,4.1-.29,2-.29,4.11-1,2-1,4.1.72,2,.72,4.1-.12,2-.12,4.1-.44,2.06-.44,4.11,1.19,2.05,1.19,4.1-.69,2.05-.69,4.11.2,2.05.2,4.1-.89,2.06-.89,4.11.58,2,.58,4.11-.19,2.05-.19,4.1-.07,2.06-.07,4.11,0,2.05,0,4.11.42,2.06.42,4.11-.44,2.06-.44,4.12a17.18,17.18,0,0,1,0,3.86,20.64,20.64,0,0,1-3.46,6.88,18.14,18.14,0,0,1-2.52,3,17.7,17.7,0,0,1-3.53,1.7c-1.15.55-2.16,1.74-3.44,2a19,19,0,0,1-4,0c-2.07,0-2.07.07-4.14.07s-2.08.5-4.15.5-2.08-1.31-4.15-1.31-2.08,1-4.15,1-2.08-.42-4.15-.42-2.08.51-4.15.51-2.08-.62-4.15-.62-2.07.69-4.15.69-2.07-.51-4.14-.51-2.07.38-4.14.38-2.08-.83-4.15-.83-2.07.49-4.14.49-2.08.18-4.15.18-2.07-.84-4.14-.84-2.08.61-4.15.61-2.07-.71-4.14-.71-2.08.36-4.15.36-2.07.67-4.15.67-2.07-.49-4.14-.49-2.08-.43-4.15-.43-2.08,1.17-4.15,1.17-2.08-.94-4.15-.94-2.08-.4-4.15-.4-2.08.92-4.15.92-2.08-.16-4.16-.16-2.07.33-4.14.33-2.08-.39-4.15-.39-2.08-.08-4.15-.08-2.07.05-4.15.05-2.07-.43-4.15-.43-2.07.21-4.14.21-2.07-.37-4.15-.37l-4.14,0c-2.08,0-2.08.88-4.15.88s-2.07.46-4.14.46-2.08-1-4.15-1-2.07-.32-4.15-.32-2.07,1.26-4.14,1.26-2.08-.57-4.15-.57-2.07.41-4.15.41-2.07,0-4.14,0-2.08-.25-4.15-.25-2.08-.26-4.15-.26-2.08.72-4.15.72-2.08-1.18-4.15-1.18-2.08.28-4.16.28-2.07.09-4.15.09-2.07.47-4.15.47-2.07-.88-4.15-.88-2.07.39-4.15.39-2.07-.34-4.15-.34-2.07.51-4.14.51-2.08.47-4.15.47-2.07-.5-4.15-.5-2.07-.47-4.15-.47-2.07.2-4.14.2-2.08.67-4.15.67-2.07-.25-4.15-.25-2.07-.16-4.15-.16-2.07.39-4.15.39-2.07-.49-4.15-.49-2.07.06-4.14.06-2.08-.58-4.16-.58-2.07.24-4.15.24-2.08.43-4.15.43-2.08-.21-4.15-.21-2.08.83-4.15.83-2.08-.11-4.15-.11-2.08-.29-4.15-.29-2.08-.49-4.15-.49-2.07.27-4.15.27-2.07-.52-4.15-.52-2.07.56-4.15.56-2.07-.54-4.15-.54-2.07-.24-4.14-.24-2.08.86-4.15.86-2.08-.09-4.16-.09-2.07.63-4.15.63-2.07-.4-4.15-.4-2.08-.57-4.15-.57-2.08-.27-4.15-.27-2.08.26-4.15.26-2.08-.3-4.15-.3-2.08,0-4.15,0-2.08.94-4.15.94-2.08-.49-4.15-.49-2.08-.44-4.15-.44-2.08.64-4.15.64-2.08-.31-4.15-.31-2.08-.3-4.16-.3-2.07,1-4.15,1-2.08-.83-4.15-.83-2.08.47-4.15.47-2.08.14-4.15.14-2.08-.78-4.16-.78-2.07-.05-4.15-.05S731,183,728.91,183s-2.07-.13-4.15-.13-2.07-.9-4.15-.9-2.07,1.17-4.15,1.17-2.08-.06-4.15-.06-2.08-.45-4.16-.45S706.08,182,704,182s-2.07-.13-4.15-.13-2.07.24-4.15.24-2.08.79-4.15.79-2.08-1.12-4.15-1.12-2.08,1.12-4.16,1.12-2.07-.67-4.15-.67-2.08-.39-4.15-.39-2.08.56-4.15.56-2.08,0-4.16,0-2.07.41-4.15.41-2.07.26-4.15.26-2.08-.42-4.15-.42S652.1,182,650,182s-2.07-.13-4.15-.13-2.08.78-4.15.78-2.08-.78-4.15-.78-2.08.87-4.16.87-2.07.1-4.15.1-2.08.33-4.15.33-2.08-1-4.16-1-2.07.36-4.15.36-2.07.18-4.15.18-2.08-.56-4.15-.56-2.08.21-4.16.21-2.07.75-4.15.75-2.08-1.23-4.15-1.23-2.08-.07-4.16-.07-2.07.19-4.15.19-2.08.95-4.15.95-2.08-1-4.16-1-2.07.44-4.15.44-2.07-.18-4.15-.18S569.05,182,567,182s-2.08.69-4.15.69-2.08-.2-4.15-.2-2.08-.54-4.16-.54-2.07.79-4.15.79h-4.15c-2.08,0-2.08,0-4.15,0s-2.08-.13-4.15-.13-2.08-.49-4.15-.49-2.08.63-4.16.63-2.08-.52-4.15-.52-2.08.53-4.15.53-2.08-.81-4.16-.81-2.07.12-4.15.12-2.08-.24-4.16-.24-2.07.83-4.15.83h-4.15c-2.08,0-2.08-.84-4.16-.84s-2.07.86-4.15.86-2.08-.19-4.16-.19-2.07-.08-4.15-.08h-4.16c-2.07,0-2.07-.37-4.15-.37s-2.08-.08-4.16-.08-2.07.85-4.15.85-2.08-.06-4.16-.06-2.08-.68-4.15-.68-2.08.17-4.16.17-2.08.75-4.16.75-2.08-.33-4.15-.33-2.08.37-4.15.37-2.08-1.23-4.16-1.23-2.08.61-4.15.61-2.08.52-4.16.52-2.08-1.11-4.16-1.11-2.08.76-4.15.76-2.08-.28-4.16-.28-2.08.37-4.16.37-2.08-.55-4.16-.55-2.08,0-4.16,0-2.08-.09-4.16-.09-2.08-.34-4.16-.34-2.08.47-4.16.47-2.09.68-4.17.68c-1.47,0-1.47-.89-2.94-.89-2,0-2,.05-4,.05s-2,.67-4,.67-2-.75-4-.75-2,.66-4,.66-2-.29-4-.29-2-.39-4-.39-2,.34-4,.34-2,.13-4,.13-2-.29-4-.29-2,0-4.05,0-3.4,2.27-3.78.28,1.49-1.1,3.31-2.13,2.07-.6,3.9-1.62,1.41-1.77,3.24-2.8,2.19-.38,4-1.4,2-.8,3.79-1.83,1.71-1.22,3.54-2.25,1.38-1.82,3.21-2.84,2.14-.39,4.12-1.1S372.8,165.85,373.86,164Z"/><text class="cls-3" transform="translate(560.82 75.92)">Oh 2020<tspan class="cls-4" x="125.18" y="0">..</tspan><tspan class="cls-5" x="145.63" y="0">.</tspan><tspan x="153.63" y="0" xml:space="preserve"> Instead of the free food </tspan><tspan x="-33.58" y="43.13">tasting buffets</tspan><tspan class="cls-5" x="176.4" y="43.13">,</tspan><tspan class="cls-6" x="184.82" y="43.13"> </tspan><tspan class="cls-7" x="193.24" y="43.13">w</tspan><tspan x="216.85" y="43.13">e got stuck at home </tspan><tspan x="125.11" y="86.26">with food deli</tspan><tspan class="cls-8" x="323.45" y="86.26">v</tspan><tspan x="338.56" y="86.26">ery instead</tspan><tspan class="cls-5" x="499.54" y="86.26">.</tspan></text><path class="cls-9" d="M45.88,220.92V20.66H255.22V191.52l18.21-55.13s-15.69-17.93-2.77-24.68,42.63-19.34,42.63-19.34l-4.9,26.37s-4,13-11.93,17.48-6.67,6.26-8.08,12.91-10.47,66.21-13.07,71.79-4.62,12.49-22.42,8.14-43.77-7.64-43.77-7.64Z"/><path class="cls-2" d="M240.66,11.85c-.75,0-2.16.1-4.15.1-1.18,0-2.57-.91-4.15-.91-1.26,0-2.65-.06-4.14-.06-1.31,0-2.69,1-4.15,1s-2.71-.08-4.15-.08-2.72-.3-4.15-.3-2.73.4-4.15.4-2.73-.79-4.14-.79-2.74-.13-4.15-.13-2.74.83-4.15.83-2.75-.17-4.15-.17-2.75.5-4.14.5-2.76-.84-4.15-.84-2.76.87-4.15.87h-4.15c-1.38,0-2.76,0-4.15,0s-2.76-.76-4.15-.76-2.77-.12-4.15-.12-2.76.18-4.15.18-2.76.46-4.15.46-2.77-.4-4.15-.4-2.77-.35-4.16-.35-2.77.18-4.15.19-2.77,0-4.15,0-2.78.38-4.15.38-2.78.38-4.16.38-2.78-1-4.15-1-2.78.41-4.15.41-2.79.6-4.15.6-2.79-.4-4.15-.4-2.79,0-4.15,0-2.8-.35-4.15-.35-2.8-.12-4.16-.12-2.8.49-4.14.49-2.82-.16-4.15-.16-2.83-.4-4.15-.4-2.85-.1-4.15-.1c-1.5,0-2.88.21-4.15.21-1.57,0-3-.17-4.14-.17-2,0-3.38.23-4.15.23-1.27,0-2.65.12-4.07,0s-2.71.22-4.09.14-2.71-.1-4.06-.11-2.74-.31-4.06-.2a21.55,21.55,0,0,0-3.88,1.13A11.87,11.87,0,0,0,51,14.08a8.44,8.44,0,0,0-2.86,2.53,10.66,10.66,0,0,0-2,3.51,19.45,19.45,0,0,0-.34,4.07c0,.93.72,2.34.72,4.17,0,1.21-.37,2.61-.37,4.17,0,1.28-.61,2.67-.61,4.17,0,1.31.5,2.7.5,4.17s-.31,2.72-.31,4.16.6,2.74.6,4.17,0,2.74,0,4.17-1.1,2.75-1.1,4.17.51,2.76.51,4.17-.16,2.76-.16,4.17.27,2.75.27,4.16.32,2.76.32,4.17-.19,2.76-.19,4.17-.76,2.76-.76,4.16.61,2.77.61,4.17.16,2.77.16,4.17S46,93.66,46,95.05s.41,2.78.41,4.18-.17,2.77-.17,4.16-.37,2.78-.37,4.17.13,2.78.13,4.17.09,2.78.09,4.17,0,2.78,0,4.17-.32,2.79-.32,4.18-.38,2.78-.38,4.17.88,2.79.88,4.18.06,2.78.06,4.17,0,2.79,0,4.17-.65,2.79-.65,4.17.09,2.8.09,4.18-.05,2.79-.05,4.18.79,2.79.79,4.17-.82,2.8-.82,4.18-.48,2.8-.48,4.18.74,2.8.74,4.17-.77,2.81-.77,4.18.69,2.81.69,4.18.21,2.8.21,4.17.42,2.81.42,4.17-.29,2.82-.29,4.17-.66,2.83-.66,4.18.28,2.83.28,4.17.66,2.84.66,4.17-.31,2.87-.31,4.17c0,1.51-.86,2.9-.86,4.17,0,1.6.62,3,.62,4.17a23.43,23.43,0,0,0,.35,4.36c.82-1.84.05-1.64,1.13-3.92.5-1,.64-2.48,1.31-3.85.55-1.12,2.25-1.78,2.9-3.07s.29-2.81.93-4.05,1.45-2.25,2.1-3.46,1.34-2.33,2-3.51,2.07-1.91,2.76-3.07,1.16-2.45,1.87-3.58.55-2.89,1.29-4,2.34-1.7,3.11-2.75,1-2.29,1.83-3.26c-.35-1.79-.76-1.2-1.77-3-.55-1-1.75-2-1.92-3.31-.14-1.11,1.27-2.17,1.75-3.43.38-1,.21-2.4,1.16-3.44s2.2-1.45,3.13-2.33,1.89-1.73,2.8-2.7a30.51,30.51,0,0,0,2.14-3.28c.68-1,1.87-1.82,2.48-3.07.52-1.07.24-2.6.69-3.92a12.44,12.44,0,0,0,.93-4.07,30.71,30.71,0,0,0,.3-4.26c-.14-1.3-1.17-2.58-1.4-4.05-.21-1.32-.23-2.73-.48-4.18s-.47-2.7-.71-4.13.09-2.8-.14-4.23-1.52-2.56-1.72-4,.33-2.84.16-4.25-.77-2.71-.89-4.13,0-2.79-.1-4.21-.72-2.77-.74-4.19.17-2.72.14-4.06-.1-2.7-.12-4.06.69-2.68.72-4.06.24-2.64.33-4-.65-2.73-.47-4.12.33-2.65.59-4,.49-2.63.82-4,.88-2.53,1.28-3.88,1.27-2.38,1.72-3.71.49-2.65,1-4,.58-2.64,1.12-3.94S81.41,61.5,82,60.22s1.11-2.44,1.71-3.7,2.13-1.94,2.75-3.19.62-2.89,1.34-4.07S89.57,47,90.4,45.91s1.67-2.28,2.59-3.33,2.31-1.68,3.31-2.65,1.62-2.41,2.7-3.29,2.58-1.26,3.72-2.06,2.23-1.72,3.43-2.44,2.33-1.6,3.57-2.24,2.61-1.08,3.89-1.65,2.42-1.56,3.72-2.06,2.83-.5,4.15-.92,2.61-1.21,4-1.57,2.69-1,4-1.32,2.94.05,4.28-.2,2.9,0,4.23-.24,2.77-1.07,4.09-1.23c1.52-.18,3,.23,4.24.11,1.58-.14,3-.81,4.39-.82,1.61,0,3,.74,4.38.89,1.62.18,3.14-.13,4.44.21a26.8,26.8,0,0,1,4.37,1.13c1.56.77,2.17,2.49,3.1,3.31a18.5,18.5,0,0,0,3.14,2.4c2.37.08,2,.74,4.69,1.2,1.44.25,3.22.11,4.78.64,1.3.45,2.45,1.38,3.73,1.95s2.7.85,3.92,1.53,2.43,1.41,3.59,2.19,2,2,3.1,2.84,1.76,2.17,2.77,3.13,2.24,1.65,3.16,2.69,1.8,2.1,2.61,3.22a36.7,36.7,0,0,1,2.09,3.58,35.06,35.06,0,0,1,2.12,3.58c.54,1.28.44,2.74.81,4.08a28.38,28.38,0,0,1,1.12,4c.16,1.28.81,2.6,1,4.07.17,1.31.52,2.67.7,4.11s-.59,2.83-.41,4.24.51,2.71.68,4.12,0,2.77.21,4.16,1,2.68,1.12,4.07-.33,2.83-.18,4.21.9,2.7,1.05,4.08.12,2.79.26,4.16,0,2.82.09,4.18.42,2.78.53,4.14.49,2.79.58,4.13.11,2.84.18,4.16c.08,1.48-.17,2.87-.13,4.16,0,1.49,0,2.88,0,4.26s.55,3,.39,4.32-1.09,2.76-1.38,4.11-.08,3-.51,4.28-1.53,2.49-2.12,3.76a36.17,36.17,0,0,1-2.11,3.65,36.65,36.65,0,0,1-2.43,3.44c-.89,1.13-1.13,2.78-2.12,3.81a12.62,12.62,0,0,1-3.69,2.54,6.05,6.05,0,0,1-4.26.51,10.64,10.64,0,0,1-4.24-2.12c0-1.85.24-.27-2.53,2.21-.72.64-1,2.13-2.17,3.15a23.77,23.77,0,0,1-3.15,2.32c-1.06.67-2.41,1-3.56,1.55s-2.39,1.05-3.52,1.52c-1.29.55-2.75.37-3.81.75a5.47,5.47,0,0,0-2.78,1.82c0,2.7-.77,2.63,0,5.22.62,2,.94-.65,3.6-.76,1.22-.05,2.7.85,4.31.84,1.32,0,2.76-.57,4.28-.54,1.37,0,2.79.34,4.27.42s2.85-.19,4.3-.06,2.88,0,4.31.17,2.77.94,4.17,1.19,2.83.54,4.2.88,2.89.46,4.23.91a39.28,39.28,0,0,1,4,1.74,28.92,28.92,0,0,1,3.65,2.29c1.2.78,2.37,1.59,3.55,2.36s2.58,1.29,3.75,2.06,1.92,2.3,3.08,3.07,2.86.89,4,1.65,2.21,1.91,3.35,2.67,2.33,1.76,3.45,2.5,2.32,1.86,3.4,2.58c1.35.9,2.61,1.59,3.61,2.26,2.24,1.5,1.89,3.17,3.32,1.6s.9-1.55,1.57-3.43.71-1.87,1.38-3.75.25-2,.92-3.91,1.33-1.65,2-3.53,1.23-1.73,1.73-3.67,0-1.62,0-4.33c0-1.18-1-2.59-1-4.21,0-1.28.45-2.68.45-4.21,0-1.32.9-2.72.9-4.21,0-1.34-1.28-2.75-1.28-4.21s0-2.76,0-4.21.51-2.77.51-4.22.71-2.77.71-4.21-.08-2.78-.08-4.21-.11-2.79-.11-4.21-.32-2.8-.32-4.22-.74-2.79-.74-4.21,1.16-2.8,1.16-4.21-.67-2.8-.67-4.22.15-2.8.15-4.21.23-2.8.23-4.21.14-2.81.14-4.21-.14-2.81-.14-4.21.41-2.81.41-4.22-1.23-2.81-1.23-4.22.38-2.81.38-4.21-.4-2.82-.4-4.22.76-2.82.76-4.21-.76-2.82-.76-4.22.77-2.82.77-4.22-.61-2.82-.61-4.21,1-2.83,1-4.21-.65-2.83-.65-4.22-.27-2.83-.27-4.21,0-2.84,0-4.22.68-2.84.68-4.21-.42-2.86-.42-4.21-.54-2.87-.54-4.21,1.31-2.89,1.31-4.22c0-1.52-.29-2.92-.29-4.21,0-1.6-.44-3-.44-4.21a36.58,36.58,0,0,1,.45-4.2c0-1.64-.86-3.05-1.09-4.4a11.29,11.29,0,0,0-1.52-4c-.75-1.3-.95-3.2-2.31-4-1.15-.66-2.85-.75-4.52-1A30.34,30.34,0,0,0,240.66,11.85Z"/><polygon class="cls-10" points="276.25 104.91 277.3 101.98 278.09 99.04 278.09 95.93 278.96 93 279.97 90.11 280.43 87.1 280.81 84.07 281.21 81.04 282.44 78.18 282.66 74.89 285.74 75.03 288.59 75.59 291.44 75.22 294.29 75.02 297.14 75.47 299.99 75.04 302.84 75.57 305.69 74.89 308.55 75.31 311.14 75.36 311.16 78.1 309.63 80.72 308.87 83.53 308.97 86.56 307.63 89.23 307.27 92.14 306.43 94.94 305.49 97.71 304.6 100.5 304.6 103.5 303.52 106.24 302.76 109.05 302.29 111.94 301.61 114.78 300.85 117.6 299.94 120.38 299.45 123.27 298.87 126.23 295.89 126.06 293 125.89 290.12 126.1 287.23 125.81 284.34 126.36 281.31 126.4 279.94 123.85 278.71 121.39 277.01 119.25 275.76 116.96 277.84 115.16 279.61 112.45 281.9 110.24 283.4 108.03 284.27 105.3 281.77 103.73 278.97 103.85 276.25 104.91"/><path class="cls-11" d="M92.06,220.68c-1.31,1.44-1.23,1.53-2.54,3s-1.48,1.29-2.79,2.73-1.06,1.68-2.37,3.13-1.7,1.09-3,2.54-1.07,1.67-2.38,3.11-1.06,1.68-2.38,3.13-1.88.93-3.2,2.38"/><path class="cls-11" d="M58.5,11.81a21.16,21.16,0,0,0-4.08.19,11.91,11.91,0,0,0-3.85,1.37,8.8,8.8,0,0,0-2.89,2.9A11.69,11.69,0,0,0,45.86,20a21.11,21.11,0,0,0-.46,4.17c0,2.06.85,2.06.85,4.13s-.06,2.06-.06,4.12-.67,2.06-.67,4.13.16,2.06.16,4.13.75,2.06.75,4.13S46.1,46.89,46.1,49s.37,2.06.37,4.12-1.23,2.07-1.23,4.13.61,2.06.61,4.13.52,2.06.52,4.13-1.11,2.06-1.11,4.13.76,2.06.76,4.13-.28,2.06-.28,4.13.37,2.06.37,4.12-.55,2.07-.55,4.13,0,2.07,0,4.14-.09,2.06-.09,4.13-.33,2.06-.33,4.13.46,2.06.46,4.13.68,2.06.68,4.13-.89,2.06-.89,4.13.06,2.07.06,4.13.66,2.07.66,4.13-.75,2.07-.75,4.13.66,2.07.66,4.14-.28,2.06-.28,4.13-.4,2.06-.4,4.13.34,2.07.34,4.13.13,2.07.13,4.14-.29,2.06-.29,4.13,0,2.07,0,4.13.06,2.07.06,4.13.42,2.07.42,4.13-.49,2.07-.49,4.13.85,2.07.85,4.14-.74,2.06-.74,4.13-.26,2.07-.26,4.13.23,2.07.23,4.14.91,2.07.91,4.14-1.06,2.06-1.06,4.13.35,2.07.35,4.14-.41,2.06-.41,4.13,1,2.07,1,4.14-1,2.07-1,4.14,1.19,2.07,1.19,4.14"/><path class="cls-11" d="M179.43,12c-2.06,0-2.06.33-4.12.33s-2.06-.95-4.12-.95-2.06.35-4.12.35-2.07.18-4.13.18-2.06-.56-4.12-.56-2.06.21-4.12.21-2.06.75-4.12.75S148.52,11,146.46,11,144.4,11,142.34,11s-2.07.18-4.13.18-2.06.95-4.12.95-2.06-1-4.12-1-2.06.45-4.12.45-2.06-.19-4.12-.19-2.06-.28-4.12-.28-2.06.7-4.12.7-2.06-.21-4.13-.21S107.3,11,105.24,11s-2.06.78-4.12.78-2.07,0-4.13,0l-4.12,0c-2.06,0-2.06-.12-4.13-.12s-2.06-.5-4.12-.5-2.06.63-4.13.63-2.06-.52-4.13-.52-2.07.54-4.13.54"/><path class="cls-11" d="M255.23,166.4c0-2.09-.38-2.09-.38-4.18s.49-2.09.49-4.18-.06-2.09-.06-4.18.57-2.09.57-4.18-.23-2.09-.23-4.18-.43-2.09-.43-4.18.2-2.09.2-4.18-.83-2.09-.83-4.18.11-2.09.11-4.18.29-2.09.29-4.18.49-2.09.49-4.18-.26-2.09-.26-4.18.51-2.09.51-4.18-.56-2.1-.56-4.19.54-2.09.54-4.18.25-2.09.25-4.18-.87-2.09-.87-4.18.1-2.1.1-4.19-.64-2.09-.64-4.18.4-2.09.4-4.18.57-2.09.57-4.18.27-2.09.27-4.19-.25-2.09-.25-4.18.3-2.09.3-4.18,0-2.09,0-4.18-.94-2.09-.94-4.18.49-2.1.49-4.19.45-2.09.45-4.19-.65-2.09-.65-4.18.32-2.09.32-4.18.29-2.1.29-4.19-1-2.09-1-4.19.83-2.09.83-4.19-.48-2.09-.48-4.19a19.76,19.76,0,0,0-.5-4.05c-.31-1.46-.1-3.08-.77-4.16a9.81,9.81,0,0,0-3-3.11c-1.08-.67-2.78-.12-4.25-.42a19,19,0,0,0-4-.49c-2.13,0-2.13-.9-4.26-.9s-2.13,1.17-4.26,1.17-2.13-.06-4.26-.06-2.13-.46-4.26-.46-2.13-.63-4.26-.63-2.13-.14-4.26-.14-2.13.25-4.25.25-2.14.78-4.27.78-2.13-1.11-4.26-1.11S202.13,12,200,12"/><path class="cls-11" d="M117,132.66c.49.68,1.12,1.29,1.71,2s.72,1.67,1.35,2.35,1.54.93,2.19,1.58,1,1.45,1.69,2.06,1.43,1,2.12,1.62,1.43,1,2.13,1.59,1,1.59,1.71,2.14,1.67.7,2.4,1.23,1.28,1.25,2,1.75,1.6.78,2.36,1.27,1.48,1,2.25,1.41,1.69.61,2.47,1.05,1.45,1,2.23,1.44,1.29,1.35,2.09,1.76,1.79.38,2.6.77,1.57.81,2.39,1.17,1.52,1,2.34,1.3,1.92,0,2.75.29,1.51,1,2.35,1.32,1.71.42,2.55.62,1.65.9,2.5,1a19.75,19.75,0,0,0,2.67-.21,18.14,18.14,0,0,0,7.77-1.38,22.2,22.2,0,0,0,2.26-1.36,24.93,24.93,0,0,0,2.39-1.15c.7-.49,1.24-1.24,1.92-1.82s1.36-1.09,2-1.72,1.2-1.26,1.78-1.94.92-1.47,1.45-2.19,1.23-1.25,1.71-2,.49-1.71.93-2.49,1.07-1.38,1.47-2.17.72-1.57,1.08-2.39.4-1.7.73-2.53,1.39-1.32,1.68-2.16,0-1.85.23-2.7.75-1.57,1-2.43.15-1.75.36-2.61.79-1.59,1-2.46-.06-1.78.1-2.65.64-1.65.78-2.52.05-1.75.18-2.63.75-1.65.86-2.53-.09-1.76,0-2.64.06-1.74.13-2.62.67-1.7.73-2.58-.27-1.77-.22-2.65.52-1.73.55-2.61-.17-1.75-.15-2.64-.39-1.75-.39-2.63.31-1.74.3-2.59.24-1.75.22-2.6-.79-1.71-.83-2.56.5-1.76.44-2.61.12-1.76,0-2.61-.74-1.67-.84-2.52-.1-1.73-.22-2.57-.46-1.68-.61-2.52-.06-1.75-.23-2.58-.31-1.71-.5-2.54-.45-1.67-.67-2.5-.23-1.74-.49-2.55-.67-1.62-1-2.42-.41-1.71-.73-2.5-.69-1.61-1.06-2.38-1.25-1.31-1.66-2.06-1.08-1.35-1.53-2.08-.4-1.79-.88-2.49-.84-1.54-1.37-2.22-1.67-.85-2.24-1.5-.86-1.52-1.46-2.14-1.38-1-2-1.63"/><path class="cls-11" d="M174.53,40.3a8.8,8.8,0,0,0-.61-3.8,22.36,22.36,0,0,0-1.47-3.72,17.1,17.1,0,0,0-2.23-3.41,12,12,0,0,0-3.33-2.51c-1.13-.52-2.7-.16-4.13-.17a12.61,12.61,0,0,0-3.84.78,13.05,13.05,0,0,0-3.48,2.22c-1.13.79-2.77,1-3.7,2.16a25.48,25.48,0,0,0-2,3.8,38.84,38.84,0,0,0-1.63,3.9c-.49,1.24-1.5,2.39-2,3.81s-.37,2.78-.76,4.21-.3,2.78-.65,4.21-1.41,2.51-1.74,3.94,0,2.86-.31,4.28-1.47,2.54-1.78,4-.19,2.82-.5,4.24-1.09,2.63-1.4,4-.66,2.72-1,4.13-.49,2.77-.83,4.17.18,2.94-.17,4.34-1.59,2.54-1.92,3.87,0,2.92-.38,4.25-.79,2.75-1.13,4.07-.52,2.82-.86,4.14-.56,2.81-.91,4.12-.68,2.79-1,4.09-1.59,2.53-2,3.83-.76,2.75-1.18,4-.3,2.93-.76,4.19-1,2.75-1.48,4-1.28,2.61-1.9,3.8a40.22,40.22,0,0,1-2,3.76,30.59,30.59,0,0,1-2.7,3.31,28.35,28.35,0,0,1-3.17,2.83c-1,.9-2.48,1.3-3.69,2.07a37.51,37.51,0,0,1-3.42,2.48c-1.21.6-2.4,1.41-3.77,2s-2.56,1.06-4,1.54-2.75.47-4.15.9"/><path class="cls-11" d="M179.09,35.08c2,.36,1.23,1.26,3.55,2.29a25.63,25.63,0,0,1,3.57,1.78c1.06.66,2.5,1,3.64,1.9A33.12,33.12,0,0,1,193,43.72a36.61,36.61,0,0,1,2.73,3.08A40.61,40.61,0,0,1,198,50.22c.67,1.11.43,2.77,1.05,4s2.23,1.93,2.74,3.26-.07,2.84.33,4.19,1.55,2.34,1.86,3.72.13,2.7.36,4.09.44,2.64.6,4,.47,2.8.63,4.17.42,2.8.58,4.17-.43,2.9-.27,4.27,1.38,2.7,1.53,4.07-.93,3-.79,4.32.56,2.79.7,4.16.21,2.82.33,4.19.38,2.82.49,4.18.5,2.81.59,4.18.28,2.84.33,4.2.05,2.85.06,4.21.63,2.88.58,4.23-.86,2.83-1,4.17-.55,2.8-.79,4.12-.05,2.92-.43,4.21-1.53,2.45-2.12,3.66-.85,2.77-1.69,3.85a19.51,19.51,0,0,1-2.65,3.4,21.42,21.42,0,0,1-3.57,2.45"/><path class="cls-11" d="M146.26,24.58c-2.08,0-1.53.94-4.14,1.16-1.18.1-2.52.52-4.08.74-1.27.18-2.75-.31-4.22,0-1.29.25-2.72.29-4.14.65s-2.58,1-4,1.39-2.74.5-4.08,1-2.39,1.47-3.68,2-2.32,1.51-3.57,2.16-2.8.65-4,1.38-2.33,1.53-3.48,2.35-1.77,2.22-2.86,3.12-1.87,2-2.89,3-2.81,1.1-3.76,2.14-1.81,2.13-2.68,3.24-1,2.68-1.78,3.86-1.66,2.19-2.36,3.42-1.15,2.49-1.76,3.77-.83,2.6-1.36,3.92-1.57,2.4-2,3.69-.58,2.77-1,4.08-1.48,2.5-1.85,3.83-.37,2.81-.68,4.15-.1,2.84-.36,4.19-.59,2.74-.79,4.1-.56,2.75-.7,4.12.07,2.81,0,4.18-.55,2.78-.58,4.16-.59,2.8-.58,4.18.65,2.8.71,4.18.13,2.81.24,4.18-.71,2.89-.58,4.26.94,2.74,1.1,4.11.34,2.79.52,4.16,0,2.84.2,4.2,1,2.72,1.17,4.08,0,2.84.17,4.2.76,2.79.84,4.15-.85,2.85-.86,4.22.85,2.87.72,4.24-1.24,2.66-1.53,4-.19,2.83-.68,4.14-1.54,2.32-2.24,3.56-.71,2.83-1.59,4a35.57,35.57,0,0,1-3,3c-1,.94-2.44,1.34-3.58,2.25"/><path class="cls-11" d="M174.74,40.8a20.72,20.72,0,0,0-3.86-1.74c-1.14-.44-2.19-1.8-3.75-2.29-1.26-.39-2.7-.66-4.2-1-1.32-.33-2.9.22-4.38-.06s-2.63-1.34-4.11-1.52-2.86.26-4.33.17-2.82-.6-4.29-.59-2.88-.51-4.35-.41-2.83.62-4.28.82-2.64,1.35-4.08,1.65-3.08-.65-4.49-.26"/><path class="cls-11" d="M122.2,79.8c-.56,2.08-.42,1.53-1.1,4.17-.31,1.18-.58,2.61-1,4.2-.32,1.28-.36,2.75-.73,4.25-.32,1.33-1.51,2.53-1.86,4s.13,2.93-.21,4.38-1.68,2.53-2,4-.4,2.84-.71,4.26.35,3,0,4.42-.88,2.75-1.16,4.17-1.28,2.69-1.55,4.1.67,3.05.43,4.46-1.6,2.57-1.74,3.89-.1,2.8-.14,4.13.74,2.76.8,4.09-.91,2.87-.73,4.19.53,2.77.85,4.08,1.71,2.36,2.16,3.64.67,2.65,1.23,3.89.76,2.69,1.44,3.88,1.74,2.14,2.51,3.28,1,2.63,1.88,3.72,2.6,1.39,3.5,2.43,1,2.78,1.91,3.8,1.88,2,2.86,3"/><path d="M129.21,145.74c-.81,2.06.67,1.59,2.13,3.84.7,1.09,2.19,1.91,3.08,3.28.77,1.18.84,2.92,1.69,4.2s1.68,2.43,2.51,3.66,2,2.25,2.86,3.42,1.68,2.6,2.47,3.68a4.46,4.46,0,0,0,3.7,2.22c1.42,0,2.54-.77,3.69-2.1a20.23,20.23,0,0,0,2.33-3.94c1.17-2.25,3-1.83,2.16-4s-1.62.17-4.27-.64c-1.19-.37-2.33-1.59-3.88-2.21-1.24-.5-2.55-1.11-4-1.81-1.23-.61-3-.46-4.33-1.25s-2.09-2.07-3.35-2.94-2.09-2-3.27-2.92S130.32,146.76,129.21,145.74Z"/><path class="cls-11" d="M129.21,145.74c-.81,2.06.67,1.59,2.13,3.84.7,1.09,2.19,1.91,3.08,3.28.77,1.18.84,2.92,1.69,4.2s1.68,2.43,2.51,3.66,2,2.25,2.86,3.42,1.68,2.6,2.47,3.68a4.46,4.46,0,0,0,3.7,2.22c1.42,0,2.54-.77,3.69-2.1a20.23,20.23,0,0,0,2.33-3.94c1.17-2.25,3-1.83,2.16-4s-1.62.17-4.27-.64c-1.19-.37-2.33-1.59-3.88-2.21-1.24-.5-2.55-1.11-4-1.81-1.23-.61-3-.46-4.33-1.25s-2.09-2.07-3.35-2.94-2.09-2-3.27-2.92S130.32,146.76,129.21,145.74Z"/><path d="M174.87,40.63a14,14,0,0,0-1.28-4.33c-.57-1.16-2.09-2-2.87-3.22s-.86-2.94-1.77-3.91a7.64,7.64,0,0,0-3.61-2.31,8.18,8.18,0,0,0-4.37,0c-1.25.43-2.05,2.19-3.29,2.9s-2.6,1.26-3.65,2c-2,1.38-3.63.21-3.63,2.3a35.31,35.31,0,0,1,4.36.37c1.37.18,2.85,0,4.24.34s2.71,1,4,1.36,2.7,1.06,4,1.48c1.49.48,3,.63,4.11,1C173.52,39.54,172.93,39.79,174.87,40.63Z"/><path class="cls-11" d="M174.87,40.63a14,14,0,0,0-1.28-4.33c-.57-1.16-2.09-2-2.87-3.22s-.86-2.94-1.77-3.91a7.64,7.64,0,0,0-3.61-2.31,8.18,8.18,0,0,0-4.37,0c-1.25.43-2.05,2.19-3.29,2.9s-2.6,1.26-3.65,2c-2,1.38-3.63.21-3.63,2.3a35.31,35.31,0,0,1,4.36.37c1.37.18,2.85,0,4.24.34s2.71,1,4,1.36,2.7,1.06,4,1.48c1.49.48,3,.63,4.11,1C173.52,39.54,172.93,39.79,174.87,40.63Z"/><path d="M157.51,95.63a1.55,1.55,0,0,0-1.84,1,6.12,6.12,0,0,0-1.12,2.29c-.07.55.44,1.3.36,2.06s-.08,1.31-.15,2-.54,1.31-.6,2-.23,1.39-.28,2c-.06.86-.23,1.58-.23,2a2.24,2.24,0,0,0,1.67,1.84,1.63,1.63,0,0,0,1.87-1.34c.15-.53.42-1.21.62-2,.17-.63-.23-1.46-.06-2.16s1-1.22,1.14-1.88-.28-1.56-.15-2.18c.19-.87.43-1.56.49-2a5.71,5.71,0,0,0,.07-2.42C159.1,96,158.67,95.78,157.51,95.63Z"/><path class="cls-11" d="M157.51,95.63a1.55,1.55,0,0,0-1.84,1,6.12,6.12,0,0,0-1.12,2.29c-.07.55.44,1.3.36,2.06s-.08,1.31-.15,2-.54,1.31-.6,2-.23,1.39-.28,2c-.06.86-.23,1.58-.23,2a2.24,2.24,0,0,0,1.67,1.84,1.63,1.63,0,0,0,1.87-1.34c.15-.53.42-1.21.62-2,.17-.63-.23-1.46-.06-2.16s1-1.22,1.14-1.88-.28-1.56-.15-2.18c.19-.87.43-1.56.49-2a5.71,5.71,0,0,0,.07-2.42C159.1,96,158.67,95.78,157.51,95.63Z"/><path d="M185,106.42a2.06,2.06,0,0,0,2.2-1.06,7.77,7.77,0,0,0,.62-2.49c.07-.54-.3-1.28-.22-2s.64-1.26.7-2-.29-1.39-.23-2,.54-1.37.58-2a10.16,10.16,0,0,0-.3-2,1.58,1.58,0,0,0-1.15-1.69c-.64-.15-1.11.14-1.45,1.3-.16.53-.28,1.24-.48,2-.17.63-.87,1.19-1,1.89s-.07,1.43-.23,2.1,0,1.48-.16,2.1c-.19.87-.61,1.53-.68,2a6.58,6.58,0,0,0-.11,2.51C183.29,105.79,183.88,106.28,185,106.42Z"/><path class="cls-11" d="M185,106.42a2.06,2.06,0,0,0,2.2-1.06,7.77,7.77,0,0,0,.62-2.49c.07-.54-.3-1.28-.22-2s.64-1.26.7-2-.29-1.39-.23-2,.54-1.37.58-2a10.16,10.16,0,0,0-.3-2,1.58,1.58,0,0,0-1.15-1.69c-.64-.15-1.11.14-1.45,1.3-.16.53-.28,1.24-.48,2-.17.63-.87,1.19-1,1.89s-.07,1.43-.23,2.1,0,1.48-.16,2.1c-.19.87-.61,1.53-.68,2a6.58,6.58,0,0,0-.11,2.51C183.29,105.79,183.88,106.28,185,106.42Z"/><path class="cls-11" d="M179.79,123.52c1.38-1.09,1.05-1.39,2.06-2.9.65-1,1.59-2.07,1.52-3.24-.1-1.58-1.51-2.08-2.6-2.95a22.37,22.37,0,0,1-3.2-2.51c-.77-.84-.49-2.56-1.14-4a15.47,15.47,0,0,1-1.62-3.57,36.34,36.34,0,0,1-.16-4c-.11-1.2-.41-2.48-.42-3.94,0-1.23-.51-2.58-.43-4s.18-2.7.28-3.93a34.74,34.74,0,0,1,.74-3.88,15.47,15.47,0,0,1,1.59-3.53,11,11,0,0,1,2-3.21,14.57,14.57,0,0,1,3-2.34,22.76,22.76,0,0,1,3.4-1.89"/><path class="cls-11" d="M161.63,73.85c-.63,1.93-1.35,1.14-2.85,3-.73.91-1.2,2.32-2.45,3.21a15.08,15.08,0,0,1-3.5,2.16,18.53,18.53,0,0,1-4,1c-1.24.17-2.63-.44-4.1-.49a27.6,27.6,0,0,1-4.06,0c-1.25-.21-2.73,0-4.12-.38"/><path class="cls-11" d="M164.56,99.68c-1.63.67-1.7-.12-3.53.68-1,.43-1.81,1.62-2.91,2.12s-2.6.35-3.51.81"/><path class="cls-11" d="M192.8,95.47c-2.31.78-2.31.34-4.74,1.29-1.53.6-2.67,2.41-4,3.07"/><path class="cls-11" d="M121.56,151.6c1.26,1.55,1,1.8,2.22,3.35s1.3,1.51,2.56,3.05,2.07.89,3.33,2.43.91,1.84,2.18,3.38.57,2.11,1.83,3.66,2.25.73,3.52,2.28,1.29,1.52,2.55,3.06.87,1.87,2.13,3.42.72,2,2,3.54,1.33,1.5,2.6,3,1,3.23,3,3.19,1.32-2,2.56-3.56.64-2.06,1.87-3.66,2.15-.9,3.39-2.51.71-2,1.94-3.61"/><path class="cls-11" d="M153.21,190a3.81,3.81,0,0,1-1.49,2.66,3.44,3.44,0,0,1-2.81.7,3.26,3.26,0,0,1-2.58-1.14c-.71-.8-2.06-1.63-2-2.78a5,5,0,0,1,1.87-3,4.59,4.59,0,0,1,3.21-1.06,5.14,5.14,0,0,1,3.35,1.19C153.49,187.36,153.28,188.85,153.21,190Z"/><path d="M203.52,213.2c-.5-1.37-.81-2.76-1.28-4s-1.56-2.49-2-3.76-.77-2.79-1.23-4.06-1-2.71-1.47-4c-.51-1.41-.32-3-.76-4.22-.52-1.44-.85-2.81-1.28-4-.53-1.49-1.83-2.52-2.25-3.69-.56-1.59-1.07-2.9-1.44-4-1-2.84,1-3.12-1-3.65s-2-.24-4.2-.28-2.15-.55-4.32-.59-2.17.38-4.34.34-2.08-.4-4.12.31.22,1.18-.31,3.65c-.25,1.18-.61,2.59-1.06,4.07-.38,1.25-1.87,2.21-2.42,3.56s-.39,2.84-1.08,4.08a29.33,29.33,0,0,1-2.53,3.34,23.18,23.18,0,0,1-2.76,3.11c-1,.92-2.42,1.26-3.65,2s-2.15,1.82-3.53,2.21-2.71,0-4.17.1a22.26,22.26,0,0,1-4.1,0,32,32,0,0,1-4.25-.56,31.39,31.39,0,0,1-4-1.51,35.77,35.77,0,0,1-4.09-1.4,38.16,38.16,0,0,1-3.37-2.72,42.93,42.93,0,0,1-3.59-2.38c-1.08-1-2.34-1.76-3.32-2.8s-1.42-2.59-2.31-3.7-1.36-2.54-2.17-3.7-2.16-2-2.89-3.23-1-2.76-1.63-4-1.88-2.33-2.46-3.57-.6-3-1.11-4.19c-.61-1.5-1.66-2.64-2.07-3.79-.89-2.52.86-3.67-1.28-3.63s-2.12-.18-4,.65-1.38,1.94-3.25,2.77-2.14.21-4,1-1.66,1.32-3.54,2.15-3-.58-3.91,1.22.71,2,1,4.13.31,2.11.63,4.21-.15,2.18.17,4.28-.22,2.19.09,4.29.71,2.05,1,4.16.35,2.1.67,4.2.14,2.14.46,4.24.63,2.06.95,4.17-.25,2.19.06,4.3.63,2.06,1,4.17.79,2,1.11,4.14-.91,2.57.69,4,1.84.85,3.91.85,2.07-.17,4.14-.17,2.07.29,4.14.29,2.08-.64,4.15-.64,2.07.65,4.14.65,2.07-.6,4.14-.6,2.07.17,4.14.17,2.07.31,4.15.31,2.07-.16,4.14-.16,2.07-.26,4.14-.26,2.08.08,4.15.08,2.07.32,4.14.32h4.14c2.07,0,2.07-.73,4.14-.73s2.07.71,4.14.71,2.07-.61,4.15-.61,2.07.61,4.14.61,2.07.14,4.14.14,2.08,0,4.15,0,2.07-.91,4.15-.91,2.07.23,4.14.23,2.07.18,4.15.18,2.07-.68,4.14-.68,2.08.85,4.15.85,2.08-.91,4.15-.91,2,.72,4,0c-.37-1.32-.73-2.08-1.15-3.37S204,214.48,203.52,213.2Z"/><path class="cls-11" d="M203.52,213.2c-.5-1.37-.81-2.76-1.28-4s-1.56-2.49-2-3.76-.77-2.79-1.23-4.06-1-2.71-1.47-4c-.51-1.41-.32-3-.76-4.22-.52-1.44-.85-2.81-1.28-4-.53-1.49-1.83-2.52-2.25-3.69-.56-1.59-1.07-2.9-1.44-4-1-2.84,1-3.12-1-3.65s-2-.24-4.2-.28-2.15-.55-4.32-.59-2.17.38-4.34.34-2.08-.4-4.12.31.22,1.18-.31,3.65c-.25,1.18-.61,2.59-1.06,4.07-.38,1.25-1.87,2.21-2.42,3.56s-.39,2.84-1.08,4.08a29.33,29.33,0,0,1-2.53,3.34,23.18,23.18,0,0,1-2.76,3.11c-1,.92-2.42,1.26-3.65,2s-2.15,1.82-3.53,2.21-2.71,0-4.17.1a22.26,22.26,0,0,1-4.1,0,32,32,0,0,1-4.25-.56,31.39,31.39,0,0,1-4-1.51,35.77,35.77,0,0,1-4.09-1.4,38.16,38.16,0,0,1-3.37-2.72,42.93,42.93,0,0,1-3.59-2.38c-1.08-1-2.34-1.76-3.32-2.8s-1.42-2.59-2.31-3.7-1.36-2.54-2.17-3.7-2.16-2-2.89-3.23-1-2.76-1.63-4-1.88-2.33-2.46-3.57-.6-3-1.11-4.19c-.61-1.5-1.66-2.64-2.07-3.79-.89-2.52.86-3.67-1.28-3.63s-2.12-.18-4,.65-1.38,1.94-3.25,2.77-2.14.21-4,1-1.66,1.32-3.54,2.15-3-.58-3.91,1.22.71,2,1,4.13.31,2.11.63,4.21-.15,2.18.17,4.28-.22,2.19.09,4.29.71,2.05,1,4.16.35,2.1.67,4.2.14,2.14.46,4.24.63,2.06.95,4.17-.25,2.19.06,4.3.63,2.06,1,4.17.79,2,1.11,4.14-.91,2.57.69,4,1.84.85,3.91.85,2.07-.17,4.14-.17,2.07.29,4.14.29,2.08-.64,4.15-.64,2.07.65,4.14.65,2.07-.6,4.14-.6,2.07.17,4.14.17,2.07.31,4.15.31,2.07-.16,4.14-.16,2.07-.26,4.14-.26,2.08.08,4.15.08,2.07.32,4.14.32h4.14c2.07,0,2.07-.73,4.14-.73s2.07.71,4.14.71,2.07-.61,4.15-.61,2.07.61,4.14.61,2.07.14,4.14.14,2.08,0,4.15,0,2.07-.91,4.15-.91,2.07.23,4.14.23,2.07.18,4.15.18,2.07-.68,4.14-.68,2.08.85,4.15.85,2.08-.91,4.15-.91,2,.72,4,0c-.37-1.32-.73-2.08-1.15-3.37S204,214.48,203.52,213.2Z"/><path class="cls-11" d="M182.38,136.59s-1.31-1.58-3.12-3.55c-.87-.95-2.4-1.44-3.7-2.46-1.09-.85-1.59-2.83-3-3.57s-3-.43-4.49-.88-2.72-1.24-4.28-1.38a18.69,18.69,0,0,0-4.39,0A5.71,5.71,0,0,0,155.7,127a3.88,3.88,0,0,0-.33,4.36c.65,1,2.35,1.49,3.79,2.35a15.23,15.23,0,0,0,3.79,2c1.5.44,2.65,1.36,3.81,1.71,1.62.48,3.16.07,4.21.4a18.4,18.4,0,0,1,3.8,1.43"/><polyline class="cls-11" points="190.99 177.32 193.81 177.02 196.57 178.06 199.28 179.02 202.18 179.25 204.7 180.72 207.54 181.33 210.2 182.43 212.87 183.58 215.19 185.33 217.41 187.47 220.04 189.03 222.83 190.35 225.2 192.28 227.34 194.53 230.11 195.88 232.38 197.97 235.15 199.3 237.87 200.72 239.86 203.19 242.81 204.27 245.3 206.23"/><polyline class="cls-11" points="247.03 199.65 248.56 197.05 249.14 194.07 250.11 191.25 251.54 188.62 253.31 186.13 254.36 183.34 254.63 180.24 256.19 177.66 258.04 175.19 258.57 172.2 260.06 169.59 260.48 166.54 261.54 163.75 263.97 161.52 264.49 158.52 265.8 155.83 266.61 152.94 267.36 150.03 268.71 147.36 270.73 144.96 271.14 141.91 272.08 139.06 273.28 136.37 271.26 133.86 269.88 130.9 268.72 127.82 267.01 125.03 265.34 122.23 264.38 119.38 265.36 116.59 267.45 114.7 269.04 112.05 271.53 110.48 274.14 109.17 277.12 108.69 279.68 107.33"/><polyline class="cls-11" points="310.99 99.13 311.66 102.24 311.16 105.05 309.62 107.61 308.06 110.18 307.95 113.09 306.63 115.72 306.44 118.6 307.46 121.74 306.55 124.46 306.1 127.27 303.8 129.68 302.8 132.18 300.23 133.95 297.94 136.51 295.21 138.25 291.58 138.28 291.11 141.52 288.77 143.85 288.17 146.74 287.98 149.71 288.27 152.77 285.78 155.25 285.7 158.22 286.46 161.34 284.23 163.91 285.48 167.1 284.86 169.97 284.55 172.88 282.44 175.49 281.84 178.36 283.19 181.56 282.58 184.42 281.58 187.23 281.83 190.24 279.96 192.91 279.26 195.76 280.28 198.89 279.52 201.74 279.95 204.77 277.98 207.42 279.04 210.56 278.54 213.46 277.96 216.34 275.96 219.07 274.9 221.93 273.93 224.81 272.54 227.79 269.44 228.84 266.37 229.02 263.4 229.62 260.35 229.65 257.24 230.11 254.09 230.44 251.29 228.2 248.15 228.45 244.93 228.98 242.07 227.73 239.1 227.12 236.22 225.96 233.27 225.22 230.13 225.56 227.18 224.75 224.31 223.5 221.35 222.8 218.29 222.65 215.36 221.81 212.29 221.71 209.25 221.51 205.54 220.92"/><polyline class="cls-11" points="281.45 124.53 284.33 124.94 287.22 125.08 290.1 124.42 292.99 124.64 295.88 125.01 298.86 124.78 299.35 121.81 299.8 118.92 301.07 116.24 301.23 113.27 302.15 110.5 303.4 107.81 303.74 104.89 304.24 102.01 305.38 99.29 305.67 96.35 306.89 93.65 306.93 90.66 308.03 87.93 308.92 85.14 308.84 82.11 310.37 79.48 311.13 76.66 311.1 73.95 308.56 73.44 305.71 73.79 302.86 73.64 300 73.4 297.16 73.21 294.31 73.92 291.45 73.54 288.6 73.48 285.75 73.72 282.9 73.74 282.21 76.68 281.34 79.6 280.91 82.63 280.44 85.64 279.59 88.56 278.77 91.5 278.32 94.52 277.39 97.43 277.28 100.52 276.7 103.52"/><path class="cls-2" d="M294.08,1.8l-5.54.4-5,2.32-5,2.16-4.17,3.59L269.9,13.9l-1.81,5.39-2.38,5.12.31,5.65.38,7.1,2.46,6.72,3.36,4.82L274,54.27l2.72,5.14L279,64.77l2.88,5.07,3.1,5,1.23,5.85,3.25,4.9,1.77,5.59,2.83,5.17,1.71-5.68L299.54,86l1.91-5.52,1.66-5.64,4-4.55,1.12-5.89,2.54-5.23,2.3-5.34,2.74-5.15,2.62-5.21,2.14-6.59,1.95-6.79-1.68-5.33-.32-5.62-3.46-4.4-2.64-5-4.75-3-4.7-3-5.55-.53Zm0,39.22-5.41-1.59L284,35.85,283,30.06l1.38-5.62L289,21.27,294.08,19l5.15,2.18,4.51,3.35,1,5.58-1.59,5.23L299.8,40Z"/><path class="cls-11" d="M294.08,1.8l-5.54.4-5,2.32-5,2.16-4.17,3.59L269.9,13.9l-1.81,5.39-2.38,5.12.31,5.65.38,7.1,2.46,6.72,3.36,4.82L274,54.27l2.72,5.14L279,64.77l2.88,5.07,3.1,5,1.23,5.85,3.25,4.9,1.77,5.59,2.83,5.17,1.71-5.68L299.54,86l1.91-5.52,1.66-5.64,4-4.55,1.12-5.89,2.54-5.23,2.3-5.34,2.74-5.15,2.62-5.21,2.14-6.59,1.95-6.79-1.68-5.33-.32-5.62-3.46-4.4-2.64-5-4.75-3-4.7-3-5.55-.53Zm0,39.22-5.41-1.59L284,35.85,283,30.06l1.38-5.62L289,21.27,294.08,19l5.15,2.18,4.51,3.35,1,5.58-1.59,5.23L299.8,40Z"/><polyline class="cls-11" points="272.39 118.89 274.86 120 277.17 121.44 279.35 123.06 281.43 124.83 282.99 127.08 284.01 129.61"/><path class="cls-11" d="M90.79,170.37s-1.44.42-3.9,1.17c-1.15.35-2.55.61-4,1.17-1.22.47-2.53,1-3.87,1.6s-2.33,1.44-3.57,2.16a40.33,40.33,0,0,0-3.55,2.18,33.73,33.73,0,0,0-3.44,2.41c-1,.93-1.39,2.47-2.27,3.56s-2.4,1.69-3.11,2.91-1.35,2.47-2,3.69-1,2.67-1.69,3.89-1.47,2.41-2.14,3.63-1.12,2.61-1.78,3.83-1.39,2.46-2,3.69-1.14,2.59-1.79,3.82-1.6,2.35-2.24,3.58-1,2.67-1.61,3.91-2,2.18-2.59,3.41-1.27,2.54-1.87,3.78-.37,3-1,4.21-1.82,2.29-2.39,3.53-1.55,2.43-2.11,3.68-1.19,2.6-1.73,3.84-.17,3-.68,4.29-1.75,2.4-2.22,3.64c-.55,1.41-.27,3-.7,4.22-.51,1.49-2.13,2.45-2.46,3.62a17.9,17.9,0,0,0-.61,4.4c0,1.5.76,2.91,1.18,4.23a11.74,11.74,0,0,0,2,3.78A13.55,13.55,0,0,0,35.73,271a17.67,17.67,0,0,0,3.89,1.67c1.27.48,2.41,1.7,3.91,2,1.34.24,2.85-.38,4.36-.32s2.84,1.12,4.34,1c1.11-.08,2.46-.38,4.05-.47,1.22-.08,2.53-1.12,4-1.2,1.27-.06,2.65.18,4.08.11s2.69.61,4.1.54,2.61-1.33,4-1.4,2.74,1.06,4.12,1,2.68-.28,4.06-.34,2.66-.91,4-1,2.76,1,4.12.93,2.7-.2,4.06-.26,2.67-1.16,4-1.22,2.74.19,4.08.13,2.75.39,4.1.33,2.71-.52,4-.58,2.77.56,4.09.5,2.7-1.28,4-1.34,2.81,1,4.12.94l4.07-.17c1.46-.06,2.76-1.47,4-1.52,1.55-.07,2.93.38,4.08.33a8.53,8.53,0,0,1,3.67.41c1.48,1.56,2,.55,3.85,2.22,1,.86,1.49,2.55,2.71,3.47a32.67,32.67,0,0,0,3.55,2.55c1.37.78,3.1.34,4.35.58a18.44,18.44,0,0,1,4.16,1.55c1.2.59,2.06,2.12,3.34,2.88s2.54,1.4,3.71,2.18,3,1,4.05,1.72c2.07,1.47,1.25,1.94,2.95,3.24"/><path class="cls-11" d="M183.58,278.86c-1.64-1.28-1.44-.77-3.45-2.34-.95-.74-1.82-1.91-3-2.86-1-.8-1.52-2.43-2.67-3.34s-2.91-.73-4-1.61-2.26-1.62-3.35-2.48-1.67-2.41-2.73-3.26-2.08-2-3.11-2.77c-1.19-1-2.11-2.05-3.07-2.83-1.41-1.15-2.9-1.61-3.56-2.2a19,19,0,0,0-3.49-2.75,25.12,25.12,0,0,0-4.08-1.83c-1.29-.41-3,.41-4.55.1-1.33-.27-2.53-1.87-4.09-2.1-1.35-.2-3,.88-4.53.69-1.37-.16-2.71-.54-4.06-.7s-2.74-.39-4.09-.55-2.69-.77-4-.93-2.82.29-4.16.14-2.64-1.3-4-1.45-2.8,0-4.14-.14-2.79-.06-4.12-.22-2.73-.75-4-.9-2.79-.28-4.09-.43c-1.45-.16-2.92.64-4.2.5-1.48-.17-2.75-1.23-4-1.37-1.56-.17-3-.21-4.1-.34-2.62-.29-2-.73-4-.95"/><path class="cls-11" d="M180.55,284.84c-1.87-1.38-1.21-1.63-3.37-3.26-1.12-.85-2.29-1.95-3.6-3s-2.27-2.2-3.45-3.14c-1.36-1.1-3.16-1.48-4.12-2.34"/><path class="cls-11" d="M175.38,286.91c-1.87-1.39-2.06-.49-4.23-2.12-1.11-.85-2.26-2-3.56-3s-2.63-1.78-3.8-2.73c-1.36-1.09-2.72-2-3.68-2.89"/><path class="cls-11" d="M152.27,253.73a17.51,17.51,0,0,1,3.78.76c1.07.32,2.29.79,3.63,1.32,1.12.44,2.08,1.43,3.3,2a37.76,37.76,0,0,1,3.41,1.73c1.06.67,2.66.67,3.69,1.49s1.28,2.4,2.19,3.34"/><path class="cls-11" d="M170.08,267.85c1.73-1.32,1.36-1.8,3.09-3.12s2.31-.55,4-1.87,1.34-1.84,3.07-3.16,1.85-1.11,3.24-2.79c1.23-1.48,0-1.46.41-3.64.23-1.14,1.21-2.25,1.67-3.53a16.66,16.66,0,0,1,1.29-3.63c.71-1.09,1.32-2.55,2.38-3.25s2.9-.09,4.11-.34a9.32,9.32,0,0,1,7.35,1,7.73,7.73,0,0,1,1.94,3.33c.47,1.16,1.39,2.39,1.22,3.79a11.13,11.13,0,0,1-1.18,3.93c-.58,1-2.34,1.34-3.35,2.39a12.84,12.84,0,0,1-3,2.82,15.18,15.18,0,0,1-4.05,1c-2.39.55-2.3-.16-4.23.74-2.31,1.09-1.85,1.93-3.95,3.38s-2.13,1.41-4.23,2.87"/><path class="cls-11" d="M153.39,281.1c-1.6,1.17-2,.6-3.62,1.77s-1.55,1.24-3.15,2.41-1.53,1.27-3.13,2.44-1.41,1.43-3,2.6-1.16,1.78-2.77,2.95-2.28.25-3.88,1.42a8.3,8.3,0,0,0-2.79,2.86c-1,1.47-.12,2.13,1.08,3.25a3.16,3.16,0,0,0,3.49.52,12.77,12.77,0,0,0,3.26-1.75c1.57-1.19,1.49-1.31,3-2.51s1.82-.88,3.39-2.08.82-2.18,2.39-3.38,1.8-.91,3.37-2.11,1.33-1.52,2.9-2.73"/><path d="M74.32,241.62c-1.38,1.18-2,.4-3.71,1.06s-1.72.62-3.42,1.27-1.54,1.07-3.25,1.72-1.81.81-3.63.65.83-1.3,1.82-3.25a17.24,17.24,0,0,1,1.95-3.14c.78-1,1-2.63,2.13-3.34a10.66,10.66,0,0,1,3.82-1c2.49-.41,3.14.67,3.68,1.54C74.72,238.72,76.08,240.11,74.32,241.62Z"/><path class="cls-11" d="M74.32,241.62c-1.38,1.18-2,.4-3.71,1.06s-1.72.62-3.42,1.27-1.54,1.07-3.25,1.72-1.81.81-3.63.65.83-1.3,1.82-3.25a17.24,17.24,0,0,1,1.95-3.14c.78-1,1-2.63,2.13-3.34a10.66,10.66,0,0,1,3.82-1c2.49-.41,3.14.67,3.68,1.54C74.72,238.72,76.08,240.11,74.32,241.62Z"/><path class="cls-11" d="M96.37,95.26c-.21,1.46.12,3-.11,4.34s-.76,2.82-1,4.19-.23,2.93-.54,4.28-.38,2.93-.72,4.27-1.29,2.68-1.68,4-.85,2.8-1.3,4.1-.7,2.88-1.2,4.15-1.29,2.67-1.85,3.91-1.51,2.56-2.14,3.75c-.72,1.36-1.47,2.58-2.17,3.71-.83,1.35-1.37,2.72-2.13,3.75-1,1.35-2.59,1.87-3.4,2.74a15.79,15.79,0,0,0-2.5,3.26"/><path class="cls-1" d="M296.71,152.14c-2-.91-2.27-.3-4.26-1.21s-1.64-1.68-3.63-2.6-2.37-.09-4.36-1l-4-1.83c-2-.91-1.83-1.27-3.82-2.18s-2-1-3.95-1.9S271,139.87,269,139s-2.52.22-4.51-.69"/></g></g></g></svg>