<svg xmlns="http://www.w3.org/2000/svg" viewBox="0 0 216.41 238.25"><defs><style>.cls-1{fill:#e6b49d;}.cls-2,.cls-3,.cls-4{fill:none;stroke-linecap:round;stroke-linejoin:round;stroke-width:3.61px;}.cls-2{stroke:#000;}.cls-3{stroke:#e6b49d;}.cls-4{stroke:#8e9b91;}.cls-5{fill:#fff;}</style></defs><g id="Layer_2" data-name="Layer 2"><g id="sect4"><g id="art"><path class="cls-1" d="M2.4,184.31c-1.86-.92.19-1.58.19-4.27,0-1.16.12-2.56.12-4.16,0-1.26.36-2.65.36-4.16,0-1.31-.45-2.7-.45-4.17s0-2.71,0-4.16-.32-2.73-.32-4.17-.47-2.73-.47-4.16.76-2.74.76-4.16-.67-2.75-.67-4.16.31-2.76.31-4.17S2,139.82,2,138.41s1-2.76,1-4.16-.5-2.77-.5-4.17.42-2.76.42-4.16.17-2.77.17-4.17S2,119,2,117.59s0-2.77,0-4.17.26-2.77.26-4.16-.43-2.78-.43-4.17.58-2.78.58-4.17,0-2.77,0-4.16.5-2.79.5-4.17.14-2.79.14-4.17-.3-2.79-.3-4.17.11-2.79.11-4.17-.43-2.79-.43-4.17.24-2.79.24-4.17S2.48,69,2.48,67.57s.65-2.79.65-4.17,0-2.79,0-4.16-1.23-2.8-1.23-4.17.92-2.8.92-4.17-.11-2.8-.11-4.16-.6-2.81-.6-4.17.72-2.82.72-4.16-.13-2.83-.13-4.17-.73-2.84-.73-4.16,1.19-2.86,1.19-4.17c0-1.5-1.38-2.9-1.38-4.17,0-1.58,1-3,1-4.16a27.28,27.28,0,0,0-.58-4.15,13.15,13.15,0,0,1,.45-4.18A7.59,7.59,0,0,1,5.3,6,13.23,13.23,0,0,1,9.13,4.45a28.94,28.94,0,0,1,4-.92c1.22-.19,2.51-1,4-1.18,1.26-.11,2.66.29,4.13.21,1.28-.06,2.66.18,4.11.15,1.29,0,2.65-.43,4.09-.44s2.67.79,4.1.79c1.16,0,2.55-.7,4.14-.7,1.26,0,2.64.5,4.14.5,1.29,0,2.68.21,4.14.21s2.69-.6,4.14-.6,2.71.72,4.14.72S57,1.91,58.39,1.91s2.72,1.17,4.13,1.17,2.74-.63,4.14-.63,2.74.71,4.14.71,2.74-.36,4.14-.36,2.74.05,4.14.05,2.74-.22,4.14-.22S86,1.8,87.36,1.8s2.75.42,4.14.42,2.75-.43,4.14-.43,2.76.77,4.14.77,2.76.11,4.14.11,2.76-.28,4.14-.28,2.76.74,4.14.74,2.77-1,4.15-1,2.76.82,4.14.82,2.77-.13,4.15-.13,2.76.12,4.14.12,2.77-.16,4.14-.16,2.77-.3,4.15-.3,2.77-.38,4.14-.38,2.78,1,4.15,1,2.77-.8,4.14-.8,2.78.71,4.14.71,2.78-.69,4.14-.69,2.79-.07,4.14-.07,2.79.76,4.15.76,2.79-.7,4.14-.7S173,2,174.35,2,177.16,3,178.49,3s2.82-1,4.14-1S185.47,2,186.77,2c1.49,0,2.87.8,4.14.8,1.56,0,3,0,4.14,0,1.92,0,3.33-.13,4.13-.13a23.74,23.74,0,0,1,4.16,0,12,12,0,0,1,3.86,1.58,9.25,9.25,0,0,1,3.29,2.68c.72,1.17.13,2.86.38,4.22s1.07,2.64,1.07,4a25.47,25.47,0,0,0-.48,4.16c0,1.17-.09,2.56-.09,4.15,0,1.26.41,2.64.41,4.15,0,1.3.57,2.68.57,4.15,0,1.32-1.2,2.71-1.2,4.15s-.08,2.72-.08,4.16.94,2.72.94,4.15-.65,2.73-.65,4.15.59,2.74.59,4.15.47,2.74.47,4.15-.06,2.75-.06,4.15-1.27,2.75-1.27,4.15v4.15c0,1.38,1,2.76,1,4.16s.3,2.76.3,4.15-1,2.76-1,4.16.74,2.76.74,4.15-.71,2.76-.71,4.15.11,2.77.11,4.16-.17,2.76-.17,4.15.29,2.77.29,4.16-.18,2.77-.18,4.16.3,2.77.3,4.15-.67,2.78-.67,4.16,1.25,2.78,1.25,4.16-.84,2.77-.84,4.15.58,2.79.58,4.16.25,2.79.25,4.16-.36,2.79-.36,4.16-.65,2.79-.65,4.16.73,2.79.73,4.16-.32,2.79-.32,4.16.61,2.79.61,4.15-.21,2.8-.21,4.16-.1,2.8-.1,4.16-.45,2.81-.45,4.15.63,2.82.63,4.15-1.08,2.84-1.08,4.16c0,1.47,1,2.85,1,4.15,0,1.51-.73,2.89-.73,4.15,0,1.6.94,3,.94,4.16,0,2.67,1.44,4.95-.23,3.73s-2-.95-3.35-2.64-1.28-1.71-2.6-3.4-1.47-1.57-2.78-3.26-1-1.95-2.3-3.64-.88-2-2.19-3.72-1.76-1.35-3.07-3-.76-2.12-2.07-3.81-1.5-1.55-2.81-3.24-1.62-1.46-2.94-3.15-.86-2-2.18-3.73-1.94-1.21-3.25-2.91-1.78-1.56-2.44-3.61c-.61-1.9,1.79-.47,3.35-2.53a23.55,23.55,0,0,0,1.65-3.71,26.69,26.69,0,0,0,1.37-3.75,32,32,0,0,0,1.27-3.84c.2-1.22-.15-2.61,0-4.05.09-1.25.33-2.58.33-4,0-1.27-.62-2.62-.62-4.06,0-1.29,1.22-2.65,1.22-4.06s-.08-2.66-.08-4.05-1.17-2.68-1.17-4.06-.07-2.69-.07-4.06,1.13-2.7,1.13-4.06-.56-2.7-.56-4.06S188,96,188,94.69s-.42-2.73-.42-4.07-.24-2.73-.24-4.06.9-2.74.9-4.07.24-2.74.24-4.06-.12-2.76-.12-4.06.22-2.79.22-4.06c0-1.48-.46-2.84-.46-4.06,0-1.61-.72-3-.72-4.06a41.56,41.56,0,0,0,.21-4.35c-.14-1.44.25-3,0-4.42s-.38-3-.79-4.37a40.91,40.91,0,0,0-1.93-4,33.68,33.68,0,0,0-1.9-4,26.65,26.65,0,0,0-2.37-3.73,19.17,19.17,0,0,0-3.14-3.16,29.81,29.81,0,0,0-3.8-2.44,37.62,37.62,0,0,0-4.08-2c-1.52-.6-3.2-.42-4.46-.77-2.57-.73-2.24-.15-3.91-1.62s-.6-1.45-2-3.73c-.67-1.09-2.16-1.82-3.31-3a20.77,20.77,0,0,0-3-3.26,23.24,23.24,0,0,0-3.73-2.48,28.46,28.46,0,0,0-4.32-1.17c-1.35-.36-2.85-.13-4.42-.32a34.57,34.57,0,0,0-4.37-.4c-1.55,0-3-.19-4.38-.21-1.56,0-3-.83-4.36-.87-1.58,0-3,.59-4.39.54-1.61-.06-3-.65-4.34-.72-1.64-.08-3.11.54-4.41.47-1.62-.07-3-.65-4.35-.65a37.91,37.91,0,0,0-4.4.12,38.61,38.61,0,0,0-4.4.52c-1.14.26-2.45.91-3.94,1.4-1.2.4-2.25,1.53-3.63,2.09-1.2.49-2.51.89-3.82,1.51s-2.8.49-4,1.17-2,2-3.17,2.78-2.46,1.21-3.62,2S77.08,25.44,76,26.3s-2.36,1.39-3.41,2.31-2.31,1.52-3.3,2.5-1.68,2.17-2.61,3.21-1.45,2.32-2.32,3.42S62.69,39.86,61.89,41s-1.64,2.15-2.35,3.35-1.7,2.16-2.34,3.4S56,50.25,55.43,51.43s-1.56,2.32-2.09,3.51-1,2.58-1.51,3.8-.75,2.67-1.19,3.91-.77,2.64-1.16,3.89-1.68,2.4-2,3.68.06,2.84-.18,4.14S46.24,77,46.07,78.3s1,2.83.85,4.17-.26,2.67-.29,4-.34,2.68-.33,4.05-.08,2.68,0,4.07-.66,2.69-.62,4.08.19,2.71.27,4,.08,2.71.19,4,1.24,2.6,1.35,3.87-.72,2.77-.63,4S48,117.22,48,118.47c0,1.4-.88,2.67-1,3.92A15.39,15.39,0,0,1,45.66,126a11.92,11.92,0,0,1-1.8,3.29c-.77,1-.84,2.77-2,3.64-1.45,1.11-3.47,1.19-4.43,2.16a17.08,17.08,0,0,0-2.64,4.09c-1.69,2.87.65,2.77-.46,4.87-1,1.85-1.87.65-4.22,1.71-1.08.5-2.95,0-4.28.85-1.09.69-1.89,2-3,3a29.76,29.76,0,0,0-3.31,2.63A33.25,33.25,0,0,0,17,155.64a30.79,30.79,0,0,0-2.51,3.44c-.64,1.22-.08,3-.66,4.14s-2.18,1.93-2.75,3.06-.35,2.89-.92,4c-.64,1.27-1.59,2.27-2.15,3.37-.66,1.3-1.38,2.41-1.92,3.48-.7,1.38-1.11,2.66-1.61,3.64C3.26,183.13,4.18,185.19,2.4,184.31Z"/><path class="cls-2" d="M85.2,212.13c2,0,2,.31,4,.31s2-.16,4.06-.16,2-.26,4-.26,2,.08,4.06.08,2,.32,4,.32h4c2,0,2-.72,4-.72s2,.7,4.06.7,2-.61,4.05-.61,2,.61,4,.61,2,.14,4.06.14,2,0,4.06,0,2-.91,4.05-.91,2,.23,4.06.23,2,.18,4,.18,2-.68,4.06-.68,2,.85,4.06.85,2-.91,4.06-.91h4.07"/><path class="cls-2" d="M15.07,2.94c-1.5,0-2.92-.59-4.15-.33A12.59,12.59,0,0,0,6.93,4c-1.19.73-1.54,2.3-2.28,3.49a10.75,10.75,0,0,0-1.34,3.69,19.63,19.63,0,0,0-.33,4c0,2.06-.22,2.06-.22,4.12s-.52,2.06-.52,4.12.41,2.06.41,4.12.42,2.06.42,4.12,0,2.06,0,4.12,0,2.06,0,4.12S1.94,41.91,1.94,44s.8,2.06.8,4.12-.31,2.06-.31,4.12.06,2.06.06,4.12-.56,2.06-.56,4.12.68,2.07.68,4.13S2,66.64,2,68.7s.18,2.06.18,4.12.23,2.06.23,4.12S2.24,79,2.24,81.07s.5,2.06.5,4.12-.49,2.06-.49,4.12.39,2.07.39,4.13S3,95.5,3,97.56s-.68,2.06-.68,4.13-.47,2.06-.47,4.12.69,2.06.69,4.12-.55,2.07-.55,4.13.6,2.06.6,4.12-.66,2.07-.66,4.13.59,2.06.59,4.12.44,2.06.44,4.12-1.06,2.06-1.06,4.13,1.23,2.06,1.23,4.12-.67,2.06-.67,4.12.53,2.07.53,4.13-.45,2.06-.45,4.12.39,2.07.39,4.13v4.13c0,2.06-.47,2.06-.47,4.13s-.55,2.06-.55,4.12.39,2.07.39,4.13,0,2.06,0,4.13-.18,2.07-.18,4.13.31,2.07.31,4.14"/><path class="cls-2" d="M150.45,2c-2.06,0-2.06.62-4.12.62s-2.06.49-4.12.49-2.06-1.22-4.12-1.22-2.06,1-4.12,1-2.07-.22-4.13-.22-2.06,0-4.12,0-2.06-.85-4.12-.85-2.06.27-4.12.27-2.06,1.08-4.12,1.08-2.06-1-4.13-1-2.06.74-4.12.74-2.06-.48-4.12-.48-2.06.72-4.12.72-2.06-1.37-4.12-1.37-2.06.89-4.12.89-2.06-.55-4.12-.55-2.06-.06-4.12-.06-2.07.4-4.13.4-2.06-.6-4.12-.6-2.06.84-4.13.84S66,2.36,63.89,2.36s-2.06-.56-4.13-.56-2.06.85-4.12.85-2.06-.22-4.13-.22H47.38c-2.06,0-2.06-.56-4.13-.56"/><path class="cls-2" d="M211.13,172c0-2.06.4-2.06.4-4.12s0-2.06,0-4.13.35-2.06.35-4.12.12-2.07.12-4.13-.49-2.06-.49-4.13.16-2.06.16-4.12.4-2.07.4-4.13.1-2.06.1-4.13S212,137,212,134.9s.17-2.06.17-4.12-.23-2.07-.23-4.13-.18-2.06-.18-4.13-.38-2.06-.38-4.13,0-2.06,0-4.12.33-2.07.33-4.13-.45-2.07-.45-4.13-.13-2.07-.13-4.13.26-2.06.26-4.13.54-2.06.54-4.13-.06-2.06-.06-4.13-.72-2.06-.72-4.13.36-2.06.36-4.13.62-2.06.62-4.13-.5-2.06-.5-4.13.3-2.06.3-4.12-.59-2.07-.59-4.13,0-2.07,0-4.13,1.09-2.07,1.09-4.13-.51-2.07-.51-4.13.16-2.07.16-4.13-.27-2.07-.27-4.13-.32-2.07-.32-4.14.19-2.06.19-4.13.76-2.06.76-4.13-.6-2.07-.6-4.13-.16-2.07-.16-4.14.07-2.07.07-4.14-.41-2.07-.41-4.13a20.44,20.44,0,0,0-.2-4,11.9,11.9,0,0,0-1.1-3.9A8.61,8.61,0,0,0,207,4.43a11.43,11.43,0,0,0-3.81-1.34,20.18,20.18,0,0,0-4-.32c-2.13,0-2.13-.32-4.26-.32s-2.13-.38-4.25-.38-2.13.87-4.26.87-2.13.06-4.26.06h-4.26c-2.13,0-2.13-.65-4.26-.65s-2.13.08-4.26.08-2.13,0-4.27,0-2.13.79-4.26.79-2.13-.82-4.27-.82"/><path class="cls-2" d="M82.79,118.42c.37.73,1,1.38,1.5,2.17s1.12,1.3,1.66,2,.62,1.69,1.18,2.4,1.48,1,2.07,1.69,1,1.43,1.61,2.09.83,1.61,1.45,2.25,1.47,1,2.1,1.62,1.38,1.09,2,1.69,1,1.48,1.67,2.07,1.57.88,2.24,1.45,1,1.5,1.71,2.06,1.75.64,2.43,1.18,1.17,1.38,1.86,1.9,1.33,1.2,2,1.71,1.85.44,2.56.93,1.06,1.61,1.79,2.07,1.49,1,2.22,1.42,1.91.25,2.66.64,1.31,1.29,2.11,1.62,1.73.33,2.56.58,1.64.58,2.49.74a21.35,21.35,0,0,0,5.2.8c.86,0,1.69-.72,2.55-.84a25.57,25.57,0,0,0,2.62-.15c.83-.21,1.69-.42,2.51-.71s1.54-.82,2.34-1.19,1.52-.78,2.28-1.23,1.49-.85,2.22-1.36,1.51-.86,2.19-1.42,1.18-1.27,1.83-1.87,1.11-1.31,1.71-2,1.29-1.15,1.85-1.83,1.21-1.24,1.74-2,.86-1.5,1.36-2.23,1.16-1.29,1.63-2.05.46-1.71.9-2.48.76-1.53,1.17-2.31,1.05-1.39,1.43-2.19,1-1.43,1.37-2.23.51-1.66.84-2.48.87-1.51,1.17-2.34.46-1.67.74-2.51,0-1.81.28-2.64.61-1.61.86-2.45.43-1.66.66-2.51,1-1.51,1.25-2.36.19-1.74.39-2.59.38-1.69.56-2.55-.06-1.77.11-2.63.19-1.72.35-2.59.87-1.6,1-2.45-.14-1.77,0-2.62.76-1.65.87-2.49.16-1.74.24-2.59,0-1.74.08-2.59-.19-1.75-.14-2.6.76-1.71.78-2.56-.13-1.74-.12-2.6-.47-1.72-.49-2.57.53-1.77.48-2.62-.74-1.68-.83-2.53-.14-1.72-.26-2.56-.32-1.7-.47-2.54.22-1.81,0-2.64-.37-1.71-.6-2.53-1.1-1.47-1.37-2.29-.52-1.63-.84-2.43-.48-1.66-.83-2.44-1-1.44-1.36-2.2-.4-1.75-.84-2.49-.84-1.52-1.32-2.23-1.4-1.11-1.92-1.81"/><path class="cls-2" d="M155.55,37.17c0-2,.34-1.67-.09-3.93a24.7,24.7,0,0,0-1.14-3.77c-.46-1.2-.34-2.85-1.11-3.95s-2.24-1.61-3.36-2.37-2.1-1.82-3.51-2.07c-1.17-.22-2.57.39-4,.59a14,14,0,0,0-4.2.82,15.56,15.56,0,0,0-3.7,2.27c-1,.88-1.43,2.44-2.36,3.63-.82,1-2.07,1.89-2.86,3.17s-1.22,2.49-1.91,3.81-1.4,2.4-2,3.74-.85,2.67-1.44,4-.61,2.75-1.18,4.1-2,2.17-2.59,3.52-.46,2.83-1,4.18-1.6,2.37-2.15,3.71-.84,2.69-1.39,4-.43,2.86-1,4.2-2.09,2.16-2.66,3.49-.69,2.76-1.27,4.09-.51,2.88-1.06,4.14-2.32,2.09-2.88,3.34-.11,3.07-.66,4.32-1.22,2.59-1.78,3.83-1.06,2.67-1.62,3.9-1.41,2.51-2,3.73-1.35,2.54-1.95,3.75-1,2.73-1.62,3.92-2.1,2.14-2.77,3.3-.71,3-1.44,4.08-2.45,1.81-3.26,2.88-1.23,2.72-2.15,3.7-2.61,1.37-3.68,2.23-1.92,2.12-3.13,2.83a32.46,32.46,0,0,1-3.9,1.6c-1.25.52-2.31,1.78-3.71,2.19s-3-.52-4.4-.22-2.62.78-4.07,1-2.75.07-4.21.25"/><path class="cls-2" d="M163.4,34.13A9.41,9.41,0,0,1,167,35.81a25.45,25.45,0,0,1,3.34,2.31,30.19,30.19,0,0,1,3,2.8c.83,1,1,2.52,1.79,3.72a31.78,31.78,0,0,1,2.32,3.29c.59,1.15,1.77,2.1,2.29,3.43s.3,2.7.69,4.06,1,2.49,1.25,3.87.31,2.64.48,4,.21,2.65.29,4S183,70,183,71.44s.29,2.71.21,4.11-.38,2.73-.44,4.06-.39,2.75-.43,4.08.49,2.77.47,4.1-1,2.76-1,4.08.29,2.77.31,4.09.21,2.77.25,4.09-.66,2.8-.6,4.12,1.46,2.71,1.53,4-1,2.85-.91,4.15.86,2.74.94,4-.31,2.82-.24,4.11c.07,1.44-.21,2.79-.18,4.08,0,1.45.23,2.77.18,4.06s.59,2.85.39,4.14-1.44,2.46-1.86,3.73-.35,2.73-1,3.94a26.32,26.32,0,0,1-2.66,3.1"/><path class="cls-2" d="M130.17,17.61c-2-.39-1.43-1-4-1.2-1.17-.11-2.6-.29-4.18-.34-1.28,0-2.68,1.1-4.17,1.13-1.32,0-2.77-1.11-4.22-1s-2.64,1.09-4.07,1.28-2.8-.15-4.2.12-2.52,1.32-3.9,1.67-2.71.45-4.06.88-2.64.77-3.95,1.28-2.3,1.57-3.58,2.18-2.88.4-4.11,1.1-2,2-3.15,2.81-2.92.67-4,1.54-2.11,1.84-3.16,2.78-1.5,2.43-2.48,3.45-1.7,2.14-2.6,3.24-2,1.94-2.78,3.1-2,2-2.8,3.17-1.26,2.51-1.93,3.68-.62,2.83-1.24,4-2,2.12-2.59,3.34-.55,2.8-1.06,4-1,2.57-1.49,3.84S55,66.2,54.58,67.5s-.09,2.85-.42,4.16-1.58,2.5-1.84,3.83-.63,2.74-.83,4.07-.35,2.79-.49,4.13.51,2.84.43,4.19-.08,2.77-.1,4.13-.55,2.78-.53,4.13.47,2.77.53,4.12-.67,2.84-.59,4.18.63,2.76.72,4.1.21,2.78.28,4.12,0,2.79,0,4.13.52,2.8.44,4.13a33.87,33.87,0,0,1-1,4,25.49,25.49,0,0,1-.6,4.09,22.22,22.22,0,0,1-1.41,4,22.42,22.42,0,0,1-2.78,3.15,25.5,25.5,0,0,1-3.22,2.6c-1,.79-2.42,1.09-3.69,1.83"/><path class="cls-2" d="M155.7,37.52c-1.7-1.32-.75-1.72-3.07-3.13-1-.63-2.57-.89-4-1.64-1.17-.6-2.31-1.56-3.73-2.19-1.24-.54-2.9-.25-4.32-.77s-2.39-1.66-3.82-2.09-2.63-1.19-4.07-1.53-2.82-.49-4.27-.74-3,.71-4.42.56-2.74-1.35-4.2-1.4-2.85.73-4.31.78-2.8.31-4.26.45"/><path class="cls-2" d="M77.68,109.13c-.62,1.31-1.46,2.51-1.92,3.79a40,40,0,0,0-.82,4.18,38.64,38.64,0,0,0-1.16,4.08,37.83,37.83,0,0,0-.2,4.24c0,1.41.69,2.78.79,4.19s-.66,2.88-.44,4.28,1,2.66,1.3,4.05.67,2.69,1.06,4.06,1.1,2.56,1.54,3.92,1.09,2.55,1.57,3.9-.19,3,.32,4.36,1.66,2.34,2.18,3.68,1.5,2.4,2,3.73.84,2.66,1.35,4,1.11,2.56,1.62,3.9"/><path class="cls-2" d="M108.41,43.5c-.87,1.89-1.45,1-2.54,3.41-.49,1.07.07,2.88-.59,4.31-.54,1.16-1.87,2.08-2.49,3.42s-1.07,2.5-1.68,3.81-1.29,2.42-1.88,3.71-1.42,2.38-2,3.66-.53,2.8-1.11,4.07-1.9,2.19-2.47,3.45-.54,2.82-1.11,4.07-1.22,2.53-1.79,3.76-1.75,2.31-2.3,3.52-.51,2.91-1.06,4.09"/><path d="M92.2,132.89c-1,2,1,2.05,2.09,4.52.5,1.18,1.92,2.21,2.57,3.71.56,1.29,1.22,2.63,1.84,4s.13,3.18.74,4.53,1.44,2.66,2,3.95c.66,1.44.93,3,1.52,4.2.8,1.62,2.5,1.6,3.48,1.92,1.19.39,2.63,1,3.89.17a17.22,17.22,0,0,0,3-2.83c.9-1.05.72-2.94,1.4-4,1.27-1.88,1.6-1.32,2.54-3.08a28,28,0,0,0-3.53-2.25c-1.07-.6-2.16-1.58-3.53-2.4-1.14-.68-2.81-.7-4.08-1.52s-1.86-2.24-3.06-3.09-3-.75-4.1-1.63-1.5-2.66-2.58-3.59S93.19,133.88,92.2,132.89Z"/><path class="cls-2" d="M92.2,132.89c-1,2,1,2.05,2.09,4.52.5,1.18,1.92,2.21,2.57,3.71.56,1.29,1.22,2.63,1.84,4s.13,3.18.74,4.53,1.44,2.66,2,3.95c.66,1.44.93,3,1.52,4.2.8,1.62,2.5,1.6,3.48,1.92,1.19.39,2.63,1,3.89.17a17.22,17.22,0,0,0,3-2.83c.9-1.05.72-2.94,1.4-4,1.27-1.88,1.6-1.32,2.54-3.08a28,28,0,0,0-3.53-2.25c-1.07-.6-2.16-1.58-3.53-2.4-1.14-.68-2.81-.7-4.08-1.52s-1.86-2.24-3.06-3.09-3-.75-4.1-1.63-1.5-2.66-2.58-3.59S93.19,133.88,92.2,132.89Z"/><path d="M156.38,37.16s-.42-1.87-1.1-4.19c-.36-1.24-.74-2.7-1.29-4.07s-2-2.2-2.74-3.31a6.31,6.31,0,0,0-2.78-2.69,6.79,6.79,0,0,0-3.92-.74c-1.31.21-2.92,0-4.27.46s-2.44,1.81-3.59,2.36A22.3,22.3,0,0,1,133,26.39a35,35,0,0,1,4.14,1.11c1.32.42,2.47,1.45,3.79,2s3,.4,4.2,1,2.38,1.75,3.56,2.38c1.38.73,2.82,1.12,3.88,1.74A32.36,32.36,0,0,1,156.38,37.16Z"/><path class="cls-2" d="M156.38,37.16s-.42-1.87-1.1-4.19c-.36-1.24-.74-2.7-1.29-4.07s-2-2.2-2.74-3.31a6.31,6.31,0,0,0-2.78-2.69,6.79,6.79,0,0,0-3.92-.74c-1.31.21-2.92,0-4.27.46s-2.44,1.81-3.59,2.36A22.3,22.3,0,0,1,133,26.39a35,35,0,0,1,4.14,1.11c1.32.42,2.47,1.45,3.79,2s3,.4,4.2,1,2.38,1.75,3.56,2.38c1.38.73,2.82,1.12,3.88,1.74A32.36,32.36,0,0,1,156.38,37.16Z"/><path class="cls-2" d="M139.89,114.23a15.61,15.61,0,0,0,4.2-.84c1.7-.87,2.63-1.86,2.76-3.11a5.66,5.66,0,0,0-1.64-3.94,16.77,16.77,0,0,1-2.51-3.69,12.52,12.52,0,0,1-.57-4.4,15.22,15.22,0,0,1,0-4.42A7.88,7.88,0,0,1,144.37,90c1-1.92.28-2.08,1.83-4a20.15,20.15,0,0,1,3.35-2.79c1.14-.87,2.26-2.22,3.67-2.59s2.93.24,4.45.67a11.24,11.24,0,0,1,3.67,2.18"/><path class="cls-2" d="M111.57,73.74c2.08.05,1.48.4,4.19.24,1.16-.07,2.57-.22,4.18-.37,1.25-.13,2.51-1.36,4-1.56,1.28-.17,2.7,0,4.16-.24,1.31-.21,2.81.27,4.24,0s2.62-.85,4-1.15"/><path class="cls-2" d="M124,119.42a8.74,8.74,0,0,0-.52,5.87c.49,2.13,1.67,3.38,3.36,4.79s2.92,3.44,5.08,3.94a15.19,15.19,0,0,0,6.64.18,12.94,12.94,0,0,0,6-3.08c1.4-1.38,1.53-3.59,2.25-5.92-1.1.31-3.12,2.36-5.88,1.87-1.63-.28-3.26-1.88-4.8-4.82-2.25,2.35-4.82,1.31-6.86-.65C127.07,119.47,125.89,117.06,124,119.42Z"/><path class="cls-2" d="M79.08,132.64c1.11,1.81,1.84,1.36,3,3.17s.37,2.26,1.48,4.07,1.82,1.38,2.92,3.19.93,1.92,2,3.73,1.29,1.71,2.4,3.52,1.23,1.74,2.33,3.55.16,2.39,1.27,4.2,1.57,1.53,2.68,3.34,1.62,1.5,2.73,3.31.61,2.12,1.71,3.93,1,1.9,2.08,3.72.15,3.66,2.25,4,1.3-2.12,2.78-3.49,1.27-1.6,2.76-3,1.6-1.25,3.09-2.63,1.61-1.24,3.1-2.61"/><path class="cls-2" d="M108.74,180.9a3.72,3.72,0,0,1-1.62,2.55A4,4,0,0,1,104,184a4.26,4.26,0,0,1-2.71-1.77,4.32,4.32,0,0,1-.46-3.25c.27-1.13,1.27-1.63,2.19-2.19a3.48,3.48,0,0,1,2.86-.6c1.12.27,2.63.35,3.19,1.27S109,179.78,108.74,180.9Z"/><path d="M160.65,203.93c-.51-1.37-1.29-2.58-1.76-3.86s-.45-2.9-.92-4.17-1.29-2.59-1.75-3.86-1.43-2.55-1.89-3.81-1.16-2.67-1.6-3.91c-.52-1.44-.11-3.08-.55-4.3-.53-1.48-1.16-2.75-1.58-3.92-.56-1.59-.74-3-1.12-4.08a10.28,10.28,0,0,0-2-3.83c-2.16,0-2.15-.68-4.32-.72s-2.17.57-4.34.53-2.16-.21-4.33-.24-2.48-1.07-4.53-.35-.37,2.1-.9,4.57a40.78,40.78,0,0,1-.78,4.07c-.38,1.25-.91,2.52-1.47,3.87a35.22,35.22,0,0,1-2.06,3.57,27.37,27.37,0,0,1-2.21,3.43c-.84,1.09-1.22,2.59-2.26,3.53s-2.51,1.15-3.73,1.84-2.17,1.75-3.55,2.14-2.69,0-4.15.09a22.14,22.14,0,0,1-4-.28,24,24,0,0,1-4-.82c-1.34-.38-2.93,0-4.2-.56A32.23,32.23,0,0,1,93,190.7a37.68,37.68,0,0,1-3.33-2.51c-1.1-.84-2.61-1.24-3.64-2.19s-1.4-2.53-2.35-3.56-2.54-1.49-3.42-2.57-1.74-2.22-2.56-3.35-1.29-2.51-2-3.68-1.43-2.41-2.14-3.59-.8-2.77-1.45-4-2.44-1.91-3-3.13-1.29-2.54-1.86-3.76-1.22-2.61-1.74-3.82c-.58-1.38-.23-3-.7-4.24-.58-1.47-1.58-2.6-2-3.72-.89-2.47,1-3.78-1-4-1.89-.21-1.73.85-3.56,1.36s-1.75.8-3.59,1.31-2,0-3.81.5-1.83.53-3.67,1-2.28-.48-3.32,1.12.08,1.72.27,3.72-.08,2,.1,4,.14,2,.33,4,.51,2,.7,4-.69,2.08-.5,4.09,1,1.92,1.2,3.93-.2,2,0,4.05,0,2,.2,4-.08,2,.11,4,.31,2,.5,4,1.23,1.91,1.42,3.92-.19,2,0,4,.15,2,.33,4,.63,2,.82,4-.51,2.08-.33,4.09-1.38,3,.14,4.36,2.4.06,4.5.06,2.1-1,4.21-1,2.1.46,4.2.46,2.1.89,4.2.89,2.1-1.27,4.2-1.27,2.1,0,4.21,0,2.1.51,4.2.51,2.1.71,4.2.71,2.1-.08,4.21-.08,2.1-.11,4.2-.11,2.1-.31,4.2-.31,2.11-.75,4.21-.75,2.1,1.16,4.2,1.16,2.1-.66,4.2-.66,2.1.14,4.21.14,2.1.23,4.2.23,2.1.14,4.2.14,2.1-.14,4.21-.14,2.1.41,4.2.41,2.1-1.22,4.21-1.22,2.1.37,4.2.37,2.11-.4,4.21-.4,2.1.76,4.21.76,2.1-.76,4.2-.76,2.11.77,4.21.77,2.11-.61,4.21-.61,2.4,1.62,4.39.94c-.37-1.33-1.05-3.11-1.47-4.4S161.12,205.2,160.65,203.93Z"/><path class="cls-2" d="M160.65,203.93c-.51-1.37-1.29-2.58-1.76-3.86s-.45-2.9-.92-4.17-1.29-2.59-1.75-3.86-1.43-2.55-1.89-3.81-1.16-2.67-1.6-3.91c-.52-1.44-.11-3.08-.55-4.3-.53-1.48-1.16-2.75-1.58-3.92-.56-1.59-.74-3-1.12-4.08a10.28,10.28,0,0,0-2-3.83c-2.16,0-2.15-.68-4.32-.72s-2.17.57-4.34.53-2.16-.21-4.33-.24-2.48-1.07-4.53-.35-.37,2.1-.9,4.57a40.78,40.78,0,0,1-.78,4.07c-.38,1.25-.91,2.52-1.47,3.87a35.22,35.22,0,0,1-2.06,3.57,27.37,27.37,0,0,1-2.21,3.43c-.84,1.09-1.22,2.59-2.26,3.53s-2.51,1.15-3.73,1.84-2.17,1.75-3.55,2.14-2.69,0-4.15.09a22.14,22.14,0,0,1-4-.28,24,24,0,0,1-4-.82c-1.34-.38-2.93,0-4.2-.56A32.23,32.23,0,0,1,93,190.7a37.68,37.68,0,0,1-3.33-2.51c-1.1-.84-2.61-1.24-3.64-2.19s-1.4-2.53-2.35-3.56-2.54-1.49-3.42-2.57-1.74-2.22-2.56-3.35-1.29-2.51-2-3.68-1.43-2.41-2.14-3.59-.8-2.77-1.45-4-2.44-1.91-3-3.13-1.29-2.54-1.86-3.76-1.22-2.61-1.74-3.82c-.58-1.38-.23-3-.7-4.24-.58-1.47-1.58-2.6-2-3.72-.89-2.47,1-3.78-1-4-1.89-.21-1.73.85-3.56,1.36s-1.75.8-3.59,1.31-2,0-3.81.5-1.83.53-3.67,1-2.28-.48-3.32,1.12.08,1.72.27,3.72-.08,2,.1,4,.14,2,.33,4,.51,2,.7,4-.69,2.08-.5,4.09,1,1.92,1.2,3.93-.2,2,0,4.05,0,2,.2,4-.08,2,.11,4,.31,2,.5,4,1.23,1.91,1.42,3.92-.19,2,0,4,.15,2,.33,4,.63,2,.82,4-.51,2.08-.33,4.09-1.38,3,.14,4.36,2.4.06,4.5.06,2.1-1,4.21-1,2.1.46,4.2.46,2.1.89,4.2.89,2.1-1.27,4.2-1.27,2.1,0,4.21,0,2.1.51,4.2.51,2.1.71,4.2.71,2.1-.08,4.21-.08,2.1-.11,4.2-.11,2.1-.31,4.2-.31,2.11-.75,4.21-.75,2.1,1.16,4.2,1.16,2.1-.66,4.2-.66,2.1.14,4.21.14,2.1.23,4.2.23,2.1.14,4.2.14,2.1-.14,4.21-.14,2.1.41,4.2.41,2.1-1.22,4.21-1.22,2.1.37,4.2.37,2.11-.4,4.21-.4,2.1.76,4.21.76,2.1-.76,4.2-.76,2.11.77,4.21.77,2.11-.61,4.21-.61,2.4,1.62,4.39.94c-.37-1.33-1.05-3.11-1.47-4.4S161.12,205.2,160.65,203.93Z"/><path class="cls-2" d="M112.31,91.09c2.08.2,2.12-.18,4.21,0l4.17.41c2.09.21,2,.67,4.13.88s2,.75,4.13.95,2.13-.19,4.22,0"/><path class="cls-2" d="M151.07,99.24c1.82.43,2-.15,3.77.28s1.93,0,3.75.42,1.58,1.46,3.4,1.89,2.1-.77,3.93-.34,1.67,1.09,3.49,1.52"/><path class="cls-3" d="M128.15,99.66c.19,1.32-.11,1.36.09,2.68s.43,1.28.63,2.6.39,1.3.58,2.62-.22,1.38,0,2.7-.09,1.37.1,2.69.62,1.26.81,2.58"/><path class="cls-3" d="M121.75,114.29c-.2-1.32,0-1.35-.2-2.67s-.24-1.31-.43-2.63.15-1.37-.05-2.69-.61-1.26-.81-2.58.17-1.38,0-2.7-.31-1.31-.51-2.63"/><path class="cls-3" d="M109.86,97.67c.2,1.32.22,1.31.41,2.63s.06,1.34.26,2.66-.13,1.37.07,2.69.45,1.28.64,2.6.46,1.29.65,2.61.18,1.32.38,2.65"/><path class="cls-2" d="M172.26,113.91c.9,1.69.18,1.33.79,3.69.27,1,1.24,2.12,1.43,3.59.15,1.14-.52,2.44-.49,3.84,0,1.19.69,2.45.59,3.82-.11,1.52-.05,3-.24,4.42-.2,1.56,0,3.11-.3,4.46-.31,1.63-.92,3.05-1.23,4.28-.65,2.65-2.14,2-1.84,4.2.28,2,1.2,1.15,2.81,3.21.72.92,2.09,1.61,3.05,2.84.78,1,1.38,2.28,2.29,3.44s1,2.64,1.86,3.77,2.14,1.76,3,2.88,1.21,2.49,2.07,3.6,2.16,1.77,3,2.87,2.07,1.85,2.92,2.94.72,2.91,1.57,4,2.5,1.53,3.35,2.62,1.51,2.31,2.36,3.39,1.65,2.21,2.49,3.29,1,2.7,1.87,3.77,1.91,2,2.74,3.08,2.57,1.52,3.39,2.58,1,2.79,1.78,3.84,2.15,2,2.57,3.33a15.16,15.16,0,0,1,.14,4.22c0,1.34.55,2.87.23,4.26s-2,2.19-2.61,3.49-.41,2.84-1.18,4-2,1.89-3,2.93a26.33,26.33,0,0,1-3,2.77,25.8,25.8,0,0,1-3.17,2.64c-1.19.67-2.65.69-4,1.15s-2.39,1.61-3.77,1.82a22.45,22.45,0,0,1-4.16-.13c-1.34-.05-2.57-.76-4-1.07s-2.82.13-4.15-.4a30.86,30.86,0,0,1-3.64-2,36.43,36.43,0,0,1-3.45-2.27c-1.06-.79-1.74-2.08-2.81-3.05"/><path class="cls-2" d="M167.62,132.82c-2,1-1.22,1.57-3.4,3a41.6,41.6,0,0,0-3.51,2.61,26.08,26.08,0,0,0-3.16,3c-1,1.14-2.39,2-3,3.26a8.77,8.77,0,0,0-.8,4.36"/><path class="cls-2" d="M146.51,150.38c.62,2.18.35,2.29,2.29,3.83,1,.8,2.78,1,4.61,1.07,1.48,1.37,1.15,1.83,2.17,3.57s.08,2.3,1.1,4.05,1.46,1.49,2.48,3.23.89,1.83,1.91,3.58,1.25,1.61,2.27,3.36,1.3,1.58,2.32,3.33.86,1.85,1.88,3.59.37,2.14,1.39,3.88,1.55,1.45,2.57,3.19,1.16,1.67,2.18,3.42,1,1.78,2,3.53,1.37,1.54,2.4,3.29.87,1.84,1.9,3.59.71,1.94,1.73,3.69"/><path class="cls-4" d="M175.71,148.93c-1.06.76-1,.85-2.05,1.61s-.92,1-2,1.72-1.05.78-2.11,1.54-1.18.59-2.24,1.36-.89,1-1.94,1.75-1,.83-2.07,1.6-1.16.63-2.22,1.4-1.25.49-2.31,1.25-1,.8-2.1,1.56-.8,1.13-1.86,1.9"/><path class="cls-2" d="M43.37,147.74c-2.06.32-1.49.65-3.91,1.39-1.15.35-2.38.93-3.81,1.52-1.2.5-2.84.29-4.12,1s-2,1.94-3.15,2.78A27.49,27.49,0,0,0,25.16,157c-1,.95-2.47,1.52-3.3,2.68s-1.11,2.67-1.87,3.87-1,2.65-1.69,3.9-2,2.1-2.66,3.39-.59,2.8-1.17,4.13-1.71,2.31-2.24,3.66-.84,2.67-1.34,4-1.34,2.49-1.82,3.86,0,3-.43,4.35-1,2.6-1.46,4-1.56,2.44-2,3.82"/><path class="cls-5" d="M95.66,97.87c-1,1.69-1.47.79-2.71,2.94-.54,1-.25,2.63-1,3.92-.59,1-1.17,2.21-1.88,3.42l-2,3.37c-.64,1.08-1.79,1.91-2.49,3.07a9.4,9.4,0,0,0-1.08,3.88,30.72,30.72,0,0,0,.26,4c0,1.32-1.14,2.72-1.11,4.13a38.83,38.83,0,0,1,0,4c-.11,1.33.87,2.87.51,4.23s-1.75,2.19-2.4,3.47a18.31,18.31,0,0,1-2.07,3.43A21.16,21.16,0,0,1,77.16,145c-1.16,1.72-.11,1.53-1,4-.38,1.1-.84,2.42-1.34,3.92-.41,1.2-.68,2.57-1.16,4-.41,1.24-1.83,2.23-2.28,3.61s-1,2.52-1.48,3.88-.45,2.72-.89,4.08-.57,2.69-1,4-1.28,2.47-1.7,3.81-.68,2.67-1.1,4-1.2,2.51-1.61,3.85-.09,2.86-.5,4.19-1.41,2.46-1.81,3.79,0,2.89-.41,4.22-.57,2.72-1,4-.9,2.63-1.28,4-1.11,2.57-1.48,3.89-1.32,2.53-1.68,3.85-.81,2.67-1.16,4-.24,2.82-.58,4.14a33.55,33.55,0,0,1-1.24,3.91,18.86,18.86,0,0,1-2,3.55,10.09,10.09,0,0,1-2.68,2.95c-1.21.83-2.34,1.91-3.68,2s-2.61-.87-4-1.37c-1.22-.45-2.85-.36-4.07-1.13s-1.76-2.22-2.84-3.12-2.06-1.78-3-2.74-2.35-1.59-3.26-2.58-1.89-2.12-2.72-3.12c-1-1.17-1.88-2.25-2.6-3.21-1.51-2-2-1.43-1.6-3.44s0-2.24,1-4.11,1.5-1.59,2.5-3.45,1.11-1.81,2.12-3.67,1.45-1.62,2.46-3.48,0-2.42,1-4.28,2-1.31,3-3.17.22-2.28,1.23-4.14.83-2,1.83-3.82,1.82-1.42,2.83-3.28.61-2.08,1.62-3.94.51-2.12,1.52-4,1.16-1.78,2.16-3.64,1.39-1.66,2.4-3.52,1.47-1.61,2.47-3.47.27-2.27,1.27-4.13,1.08-1.82,2.09-3.69.86-1.94,1.86-3.8.78-2,1.79-3.86,1.56-1.56,2.57-3.43c0,0-.42-1.69-.94-4.32-.26-1.28-.93-2.71-1.18-4.32-.21-1.4.69-3,.55-4.55s-.89-2.89-.91-4.38.62-3,.75-4.38a21.81,21.81,0,0,1,.79-4.25,9.58,9.58,0,0,1,1.91-3.69c.88-1,1.5-2.2,2.33-3.16s1.11-2.56,1.94-3.5,2.06-1.76,2.88-2.68,2.16-1.72,3-2.61c1-1.12,1.44-2.48,2.17-3.3,1.64-1.86,1.37-1.4,2.66-2.86"/><path class="cls-2" d="M77.1,114.72c.69-2-.31-1.58,1.21-4.18.59-1,1.2-2.35,2.17-3.77.72-1.06,1.57-2.25,2.54-3.54.8-1,2.42-1.62,3.4-2.83.86-1.05,1.82-2.11,2.82-3.28"/><path class="cls-2" d="M68.36,112.74c.81-1.75-.25-1.62,1.15-3.79.58-.9,1.63-1.76,2.53-3,.68-.93,1.07-2.28,2-3.39.75-.94,2.5-1.17,3.4-2.22S79,98.48,80,97.47s1.74-1.8,2.68-2.77"/><path class="cls-2" d="M112.32,85.16c2.09.21,2.13-.28,4.22-.07s2,.84,4.11,1,2.13-.23,4.22,0,2,.86,4.12,1.06l4.18.42"/><path class="cls-2" d="M152.78,92.32c1.82.43,1.76.67,3.58,1.1s1.76.69,3.58,1.12,1.93,0,3.75.43,1.61,1.34,3.43,1.77,2-.23,3.8.2"/><path class="cls-2" d="M19.45,211.78c1-1.86,1-1.87,2-3.73s.69-2,1.7-3.9,1.94-1.35,2.95-3.22.38-2.19,1.39-4.05,1.06-1.84,2.06-3.7.5-2.13,1.51-4,1.31-1.7,2.31-3.56,1.18-1.76,2.19-3.62,1.39-1.66,2.4-3.52.21-2.29,1.21-4.15,1.77-1.45,2.78-3.31.88-1.93,1.89-3.79.74-2,1.75-3.87.64-2.06,1.65-3.92,1-1.87,2-3.73,1.35-1.68,2.36-3.54.67-2.05,1.67-3.91,2-1.32,3-3.18.75-2,1.76-3.87c0,0-.52-1.85-1-4.48-.26-1.27-.66-2.74-.9-4.36-.21-1.39-.11-2.91-.26-4.44s-.93-2.93-1-4.41,1-3,1.14-4.4-.35-3.14.06-4.48a11.16,11.16,0,0,1,2-4c.88-1,1.85-1.89,2.69-2.85s1.86-1.9,2.69-2.84,1.48-2.27,2.29-3.19,1.52-2.28,2.31-3.18c1-1.12,2.35-1.67,3.08-2.49,1.64-1.86,1.81-1,3.1-2.47"/><path class="cls-2" d="M95.45,97.75c-1,1.7-.25,1.49-1.49,3.64-.54,1-1.39,2-2.14,3.26-.59,1-1.44,2-2.15,3.27-.62,1.06-1.17,2.25-1.86,3.42s-1.29,2.21-2,3.37a9.45,9.45,0,0,0-1.51,3.73,29.87,29.87,0,0,0-.2,4.1c0,1.31.69,2.67.72,4.09s-.35,2.72-.46,4.11-.89,2.54-1.24,3.9a18.2,18.2,0,0,1-1.2,3.83c-.59,1.15-.62,2.78-1.54,3.91s-2.24,1.59-3.35,2.55c-1.15,1.72-.61,1.39-1.46,3.9-.37,1.11-1,2.38-1.45,3.89-.41,1.2-.06,2.78-.53,4.2-.41,1.23-1.79,2.24-2.24,3.62s-1,2.54-1.42,3.91-.64,2.65-1.07,4-.5,2.71-.93,4.06-1,2.56-1.44,3.9.07,2.9-.35,4.24S64.39,183,64,184.32s-.3,2.8-.71,4.13-1.65,2.38-2.06,3.71-.17,2.84-.57,4.17-.32,2.79-.71,4.12-.73,2.68-1.11,4-1.21,2.55-1.58,3.87-.86,2.65-1.22,4-1.36,2.52-1.71,3.84.1,2.91-.24,4.22a31.38,31.38,0,0,1-.92,4.27,23.14,23.14,0,0,1-2.33,3.71c-.83,1.23-2.19,2-3.18,2.93a17.25,17.25,0,0,1-3.41,2.48,18,18,0,0,1-3.9,1.49,20.25,20.25,0,0,1-4,1.15,23.87,23.87,0,0,1-4.21-.16,25,25,0,0,1-4.21-.37,27.43,27.43,0,0,1-4-1.31c-1.31-.52-2.91-.54-4.16-1.26s-2-2.1-3.16-3a30.68,30.68,0,0,1-3.44-2.56,29.87,29.87,0,0,1-3.14-3"/><path d="M167,222a6.23,6.23,0,0,0,.76,3.31c.61,1.06,1,2.46,2,3.08a8.1,8.1,0,0,0,3.69,1.27c1.27,0,2.25-1.38,3.28-2s2.34-1,2.95-2.08.25-2.33.25-3.6a6.47,6.47,0,0,0-.59-3.4,5.2,5.2,0,0,0-5.89-3.37c-1.27,0-2.62-.15-3.65.45a7.68,7.68,0,0,0-2.74,2.63C166.54,219.35,167,220.74,167,222Z"/></g></g></g></svg>