<svg xmlns="http://www.w3.org/2000/svg" viewBox="0 0 890.43 577.61"><defs><style>.cls-1{fill:#8e9b91;}.cls-2{fill:#e6b49d;}.cls-3{fill:none;stroke:#000;stroke-linecap:round;stroke-linejoin:round;stroke-width:4.33px;}</style></defs><g id="Layer_2" data-name="Layer 2"><g id="sect1"><g id="hands"><path class="cls-1" d="M637.51,495.44c-1.47-1.54,1.2.73,4.08.54l4.25-.26c1.27-.08,2.62-1.3,4.19-1.4,1.31-.08,2.73-.09,4.25-.18,1.34-.08,2.77,0,4.27,0s2.76-.24,4.25-.32,2.82.64,4.3.56,2.74-1,4.21-1.09,2.84.71,4.3.63,2.77-.67,4.22-.75,2.79-.34,4.25-.42l4.26-.22c1.39-.07,2.84.49,4.29.41s2.8-.35,4.25-.43,2.81-.19,4.26-.26,2.79-.58,4.24-.65,2.83.07,4.27,0,2.65,0,4-.14,2.64-.38,4-.46,2.68.59,4,.54,2.64-.47,4-.45,2.64.27,4,.39,2.69-.16,4,.09,2.7.2,4,.58,2.39,1.25,3.66,1.76a35,35,0,0,1,6.92,4c1.08.71,2.35,1.21,3.44,2.07s2.17,1.53,3.19,2.47,1.87,2,2.88,2.91,1.78,2.06,2.79,3,2.35,1.46,3.36,2.39,1.72,2.14,2.72,3.07,2.45,1.36,3.45,2.29,1.44,2.45,2.44,3.37,2.08,1.77,3.08,2.7,1.74,2.14,2.74,3.06,2.84,1,3.84,1.88,1.57,2.33,2.57,3.25,1.52,2.39,2.52,3.3,2.93.86,3.92,1.78,1.83,2.06,2.82,3,1.5,2.42,2.49,3.33,2.42,1.44,3.4,2.34,1.58,2.36,2.56,3.26,2.5,1.37,3.47,2.27,1.58,2.38,2.55,3.26,2.69,1.19,3.66,2.07,1.47,2.55,2.41,3.41,2.12,1.9,3,2.74c1.16,1.05,2.35,1.77,3.2,2.55,1.94,1.76,5.08,2,3.24,2.9s-2.17.13-4.23.37l-4.11.47c-2.06.23-2,.73-4.06,1s-2.07.12-4.13.35-2.06.28-4.12.51-2.18-.83-4.23-.6-2.07.19-4.13.42-2,.55-4.08.78-2,.9-4,1.13-2.19-.89-4.25-.65-2,1.14-4,1.37-2.09,0-4.15.22-2.09,0-4.15.26-2,1-4,1.21-2.09,0-4.12-.47-1.66-1.07-3.44-2.18-1.77-1.13-3.56-2.24-1.67-1.27-3.46-2.38-2.36-.17-4.14-1.27-1.16-2.11-3-3.22-2.2-.42-4-1.53-1.64-1.33-3.42-2.44-1.48-1.59-3.27-2.7-2.14-.53-3.92-1.63-1.67-1.29-3.46-2.4-1.53-1.51-3.31-2.62-1.92-.88-3.7-2-2.13-.56-3.91-1.67-1.55-1.48-3.33-2.59-1.77-1.14-3.55-2.25-1.63-1.35-3.42-2.46-2.3-.26-4.08-1.37-1.78-1.12-3.56-2.23-1.67-1.3-3.45-2.41-1.93-.87-3.71-2-1.46-1.62-3.25-2.73-2.07-.63-3.86-1.74-1.63-1.34-3.42-2.45-2-.7-3.82-1.81-1.31-1.86-3.1-3-2-.79-3.76-1.9-1.8-1.07-3.59-2.18-2-.79-3.77-1.9-1.34-1.82-3.12-2.93-2.15-.53-3.93-1.64-1.72-1.21-3.51-2.32-1.74-1.17-3.53-2.28-1.93-.87-3.71-2-1.29-2-3.12-3S639,497,637.51,495.44Z"/><path class="cls-2" d="M.16,344.09c2.06-.15,2-.81,4.08-.95s2.09.13,4.15,0,2.09.25,4.16.11,2-.49,4.11-.63,2.05-.27,4.12-.41,2.08.14,4.15,0,2.07-.12,4.13-.27,2.06-.2,4.13-.34,2-.56,4.11-.71,2.1.35,4.16.2,2-1,4.08-1.13,2.12.59,4.18.44,2.09.12,4.15,0,2.06-.37,4.12-.51,2-1.06,4.07-1.2,2.14.92,4.2.77,2-.49,4.11-.63,2.09.26,4.16.11,2-1.12,4.06-1.27,2.14.86,4.2.71,2-1.33,4-1.47S89,338.1,91.07,338s2.05-.48,4.11-.63,2-.66,4.1-.81,2.1.31,4.17.17,2-1.11,4.07-1.25,2.13.82,4.2.67,2-1,4.07-1.19,2.11.6,4.18.45,2-.9,4.08-1,2.09.27,4.16.13,2.12.58,4.18.44,2.06-.3,4.12-.44,2.06-.27,4.13-.41,2.08.08,4.15-.06,2-.5,4.11-.64,2.1.37,4.17.23,2.05-.48,4.11-.62,2-.49,4.11-.63,2.12.62,4.19.47,2.05-.33,4.12-.48,2-1,4.07-1.11,2.13.68,4.19.54,2-.55,4.11-.7,2-.66,4.1-.8,2.05-.36,4.12-.5,2.07,0,4.14-.17,2.07-.12,4.14-.27,2.06-.29,4.12-.43,2.13.79,4.2.64,2-1,4.07-1.16,2.15,1,4.22.85,2-.51,4.11-.65,2.06-.16,4.13-.3,2.07-.05,4.14-.19,2-.69,4.1-.83,2.06-.28,4.13-.43,2.12.74,4.19.6,2.05-.38,4.12-.53,2-.56,4.1-.7,2.05-.51,4.11-.65,2.06-.36,4.12-.51,2.15.94,4.22.8,2.08.09,4.15-.05,2-.85,4.08-1,2.07-.12,4.14-.26,2.11.53,4.18.39,2-1,4.08-1.12,2.07-.05,4.14-.2,2.08,0,4.15-.1,2.09.21,4.16.06,2.05-.36,4.12-.51l4.14-.28c2.06-.14,2.08,0,4.14-.12s2-1.2,4.07-1.34,2.12.72,4.19.58,2-.59,4.11-.74,2-.56,4.1-.7,2.07-.1,4.14-.24,2.07-.08,4.14-.23,2.14,1,4.21.83,2.07,0,4.14-.17,2-1.29,4.05-1.44,2.13.77,4.19.63,2.06-.27,4.13-.42,2-1.13,4.07-1.28,2.15,1.05,4.21.91,2-.77,4.09-.92,2.1.26,4.16.11,2.07-.24,4.13-.38,2.1.29,4.17.15,2-1.31,4.06-1.45,2.11.54,4.18.39,2-.73,4.09-.88,2.06-.31,4.12-.45,2.12.47,4.19.32,2.11.57,4.18.43,2.06-.29,4.13-.43,2-1.23,4.06-1.37,2.09.14,4.16,0,2.1.32,4.16.18,2-.42,4.12-.56,2.05-.4,4.12-.54,2.08,0,4.15-.14,2.06-.32,4.13-.47,2.1.33,4.17.18,2-.94,4.08-1.08,2.11.4,4.18.25,2-.46,4.11-.6l4.14-.31,4.14-.3c2.07-.14,2.1.3,4.16.15s2-.45,4.12-.6,2.07-.07,4.14-.22,2.13.74,4.2.6,2-1.25,4.06-1.4,2.1.22,4.17.08,2.12.61,4.19.46,2-1.25,4.06-1.4,2.1.19,4.17.05,2.12.55,4.19.4,2-1.15,4.07-1.3,2.05-.39,4.13-.53,2.13.72,4.2.58,2,0,3.84-1,1.42-1.17,2.67-2.8,1.55-1.4,2.79-3,.49-2.2,1.74-3.84,1.87-1.15,3.12-2.78,1.35-1.55,2.6-3.19,1.42-1.5,2.67-3.13.85-1.94,2.09-3.58,1.32-1.58,2.56-3.21,1.8-1.21,3-2.85.67-2.07,1.92-3.7.83-1.95,2.08-3.58,2.21-.9,3.46-2.54.24-2.4,1.48-4,2-1,3.27-2.68.55-2.16,1.8-3.79,1.22-1.65,2.47-3.29,1.68-1.3,2.93-2.94,1.65-1.33,2.9-3,.57-2.15,1.82-3.78,1.2-1.67,2.45-3.3,1.39-1.53,2.64-3.16,1.35-1.56,2.6-3.19.91-1.9,2.15-3.53,1.27-1.63,2.51-3.26,1.66-1.33,2.9-3,1.34-1.57,2.59-3.21.67-2.07,1.92-3.7,1.49-1.45,2.74-3.09,1-1.79,2.29-3.43,2.16-.93,3.4-2.56,1.07-1.77,2.32-3.41,1.31-1.59,2.56-3.22,1-1.79,2.29-3.43,1.37-1.54,2.62-3.17,1.34-1.57,2.59-3.2,1.26-1.62,2.51-3.26.38-2.3,1.62-3.94,1.79-1.22,3-2.86.63-2.1,1.88-3.74,2.18-.93,3.43-2.56,1.17-1.7,2.42-3.33,1.1-1.75,2.35-3.39,1.15-1.71,2.4-3.35,1.14-1.72,2.39-3.35.88-1.93,2.13-3.57,3.3-.93,2.61-2.87-1.75-.47-3.76-1-2-.5-4-1-2.11-.09-4.12-.59-2-.69-4-1.19-2-.65-4-1.16-2-.45-4-1-2-.55-4-1-2.1-.11-4.11-.62-1.9-.93-3.91-1.43-2-.57-4-1.07-2.13,0-4.14-.52-1.73-1.61-3.74-2.11-2.22.32-4.23-.18-2.08-.18-4.09-.68-1.76-1.53-3.76-2-1.94-.79-4-1.29-2-.44-4-.95-2.25.47-4.26,0-2-.45-4-1-1.92-.84-3.93-1.34-2-.42-4-.93-2.06-.31-4.07-.81-2-.67-4-1.17-2-.66-4-1.16-1.85-1.13-3.86-1.63-2.1-.15-4.11-.65-2-.62-4-1.12-1.94-.77-4-1.28-2.19.22-4.2-.28-2.12-.07-4.13-.58-1.9-.92-3.91-1.42-2.13,0-4.14-.51-2-.71-4-1.21-1.95-.72-4-1.22-2-.37-4.05-.87-2-.49-4-1-1.93-.84-3.94-1.34-2-.59-4-1.09-2.15.05-4.16-.45-1.93-.85-3.94-1.36-1.86-1.08-3.87-1.58-2.07-.28-4.08-.78-2.22.33-4.24-.17-1.86-1.1-3.87-1.6-2-.62-4-1.13-2-.63-4-1.14-2.21.31-4.22-.19-1.77-1.47-3.78-2-2-.63-4-1.13-2.06-.29-4.07-.79-2.1-.15-4.11-.65-2-.69-4-1.19-2.23.41-4.24-.09-1.77-1.46-3.79-2-2.14,0-4.15-.47-1.8-1.36-3.81-1.86-2.17.12-4.18-.38-2.13,0-4.14-.53-2-.45-4-1-1.9-.94-3.91-1.45-2-.61-4-1.11-1.86-1.13-3.87-1.63-2.21.31-4.22-.2-2.13,0-4.14-.52-1.94-.8-3.95-1.3-1.87-1-3.88-1.56-2-.59-4-1.09-1.95-.75-4-1.25-2.09-.23-4.1-.73-1.95-.73-4-1.23-2.09-.23-4.1-.73-2-.52-4-1-2.18.16-4.19-.34-1.84-1.18-3.85-1.69-2.11-.09-4.12-.6S328,82,326,81.5s-1.74-1.61-3.75-2.12-2.1-.15-4.11-.65-1.88-1-3.9-1.52-2.18.2-4.2-.31-1.82-1.24-3.83-1.74-2-.42-4.05-.92-2.25.44-4.26-.06-2.06-.29-4.07-.79-1.72-1.68-3.73-2.19-2.12-.07-4.13-.58-2.09-.2-4.1-.7-2-.69-4-1.19-2.07-.26-4.08-.77-2-.47-4-1-2.1-.15-4.11-.65-1.76-1.54-3.77-2-2.18.18-4.19-.32-2-.56-4-1.06-2.16,0-4.17-.45-1.93-.83-3.94-1.34-2-.69-4-1.19-1.91-.92-3.92-1.43-2.23.38-4.25-.12-1.8-1.35-3.81-1.85-2-.36-4.06-.87-2.09-.21-4.1-.71-2.11-.1-4.12-.6-2-.49-4-1-1.92-.88-3.93-1.39-2.11-.12-4.12-.63-1.73-1.61-3.74-2.12-2.09-.21-4.1-.71-2-.42-4.05-.92-2-.38-4-.88-2-.78-4-1.28-2.18.17-4.19-.33-1.77-1.46-3.78-2-2.2.25-4.21-.25-2-.43-4-.93-2-.65-4-1.15-2-.66-4-1.16-2.1-.13-4.12-.63-2.1-.15-4.11-.65-1.85-1.15-3.86-1.65-1.84-1.17-3.85-1.67-2.11-.14-4.12-.64S139,34.31,137,33.8s-1.82-1.29-3.83-1.8-2.1-.13-4.11-.64-2-.46-4-1-2.18.18-4.19-.33-2-.6-4-1.1-2-.37-4.06-.87-2-.6-4-1.1-2-.72-4-1.22-2.09-.19-4.11-.69S99,23.49,97,23s-2.33.75-4.34.25S90.81,22,88.79,21.46s-2.09-.18-4.1-.68-1.88-1.06-3.89-1.56-2-.4-4-.9-2-.52-4-1-2.1-.17-4.12-.67-2-.54-4-1-1.87-1-3.89-1.55-2.13,0-4.15-.52-1.92-.84-3.93-1.35-2-.61-4-1.12-2-.41-4-.91-2-.49-4-1-2.28.56-4.29.06-1.69-1.81-3.7-2.31-2.28.52-4.29,0-2.09-.21-4.1-.72l-4-1c-2-.5-1.74-1.62-3.75-2.12s-2.15,0-4.17-.47S10.3,1.67,8.29,1.16,6.11,1.3,4.09.79,2,.5,0,0"/><path class="cls-3" d="M697.33,381c.32,2,.71,1.27,1.15,3.9.19,1.1.61,2.4.87,3.94.21,1.2.32,2.55.57,4,.21,1.24.42,2.57.67,4,.22,1.25.59,2.55.83,3.95s-.43,2.75-.18,4.13,1.29,2.45,1.53,3.82-.61,2.8-.36,4.17.8,2.55,1.05,3.91.48,2.62.73,4,.39,2.64.64,4,1,2.53,1.24,3.88.61,2.6.86,3.95-.35,2.78-.1,4.12.72,2.59,1,3.93.89,2.56,1.14,3.9.84,2.57,1.09,3.91.71,2.59,1,3.93-.52,2.83-.27,4.16.28,2.68.54,4,1.17,2.5,1.43,3.84.48,2.64.74,4-.13,2.76.13,4.1,1.3,2.48,1.56,3.82.43,2.65.7,4,.35,2.64.61,3.85.24,2.68.54,3.88.87,2.54,1.22,3.72.8,2.55,1.23,3.71.85,2.54,1.4,3.66,2.09,1.79,2.8,2.86.8,2.58,1.65,3.59,2,1.59,3,2.52,2.1,1.39,3.15,2.26,1.92,1.59,3,2.41,2,1.53,3.1,2.32,1.48,2.32,2.61,3.08,2.05,1.51,3.19,2.26,2.86.56,4,1.29,1.77,2.22,2.89,3,2.33,1.37,3.45,2.1,2.78.67,3.9,1.4,1.64,2.43,2.75,3.16,2.6,1,3.71,1.68,2.07,1.8,3.18,2.52,2.33,1.39,3.44,2.11,2,1.82,3.17,2.53,2.89.52,4,1.24,1.93,2,3.05,2.73,2.6,1,3.71,1.69,2.38,1.32,3.49,2,2,2,3.08,2.67,1.94,2,3,2.73,2.38,1.35,3.48,2,2.88.58,4,1.26,2.18,1.7,3.26,2.38,2.12,1.85,3.18,2.51c1.25.78,2.53,1.26,3.56,1.9,1.33.83,2.6,1.33,3.55,1.92,2.24,1.38,1.31,2.78,3.24,2.22s.53-1.28,1.39-3.64a27.68,27.68,0,0,0,1.59-3.69c.29-1.19-.21-2.62,0-4.05.16-1.25.8-2.51.85-3.92s-.27-2.58-.36-4-.23-2.57-.45-3.95-.46-2.54-.8-3.89-.27-2.63-.72-4-1.17-2.35-1.71-3.62-1-2.41-1.65-3.64-.51-2.74-1.23-3.92-2.29-1.66-3.08-2.79-1.23-2.35-2.08-3.44-1.09-2.53-2-3.58S805.59,514,804.7,513s-1.53-2.27-2.42-3.29-1.28-2.5-2.17-3.52-2.52-1.41-3.41-2.43-2-1.89-2.86-2.9-1.17-2.61-2.06-3.62-2.39-1.54-3.27-2.54-1.48-2.35-2.37-3.35-1.54-2.29-2.42-3.29-2.5-1.44-3.39-2.43-1.26-2.55-2.15-3.54-1.74-2.14-2.62-3.12-1.69-2.19-2.56-3.16-2.22-1.74-3.09-2.7S768.1,471,767.24,470c-1-1.09-1.41-2.55-2.24-3.46-1.06-1.16-2.49-1.7-3.26-2.54-1.76-1.93-2.85-.91-3.23-2.91s1.17-2.08,1.18-4.07-1.22-2-1.21-4,.95-2,1-4-.84-2-.82-4,0-2,0-4,.54-2,.55-4,.49-2,.5-4-.8-2-.79-4,0-2,0-4,.19-2,.2-4,.13-2,.14-4-.4-2-.39-4,0-2,0-4,.5-2,.51-4,.12-2,.13-4-.68-2-.67-4,.3-2,.31-4-.24-2-.23-4,1.12-2,1.13-4-.21-2-.2-4,.09-2,.1-4-.24-2-.23-4,.16-2,.17-4,.12-2,.13-4,0-2,0-4-1-2-1-4,.67-2,.68-4-.74-2-.73-4,1.13-2,1.14-4-.08-2-.07-4-.16-2-.15-4-.11-2-.1-4-.12-2-.11-4-.44-2-.43-4,.19-2,.2-4,.18-2,.19-4l0-4c0-2-.41-2-.4-4s.2-2,.21-4,.16-2,.17-4,0-2,0-4,.06-2,.07-4-.38-2-.37-4,.44-2,.45-4"/><path class="cls-3" d="M769.1,295.85c1.38,1.37,1.08.19,3.11,2.39.7.76,1.72,1.56,2.78,2.73.76.84,1.25,2.13,2.23,3.22.79.88,1.67,1.82,2.61,2.88.8.9,1.16,2.31,2.08,3.34s2.08,1.52,3,2.55,2.16,1.47,3.05,2.49.8,2.68,1.69,3.7,1.82,1.78,2.7,2.79,1.9,1.73,2.78,2.74,1.8,1.82,2.68,2.83,2.05,1.61,2.92,2.62,1.15,2.53,2,3.49,2,1.71,3,2.63,1.84,1.91,2.8,2.8,2.1,1.63,3.09,2.49,1.93,1.81,2.94,2.63,2.33,1.32,3.37,2.1,1.63,2.26,2.71,3,2.5,1,3.6,1.73,2.37,1.19,3.49,1.86,2,1.79,3.17,2.41,2.66.62,3.83,1.2,2.38,1.12,3.56,1.66,2.3,1.35,3.5,1.84,2.33,1.31,3.55,1.77,2.33,1.41,3.56,1.83,2.82-.09,4.06.28,2.61.48,3.86.81,2.5,1,3.75,1.26,2.63.42,3.89.66,2.61.52,3.87.72,2.64.45,3.89.6,2.68.35,3.91.46c1.43.13,2.74.15,3.94.21,1.51.08,2.82,0,3.93,0,2.53,0,3,2.23,3.92.49s-.14-1.53-1.38-3.76c-.54-1-2.24-1.56-3-2.89-.59-1.06-1.2-2.24-1.9-3.5-.6-1.09-.5-2.66-1.18-3.88s-2-1.87-2.64-3.08-.63-2.63-1.29-3.82-1.91-1.93-2.57-3.12-.92-2.49-1.57-3.67-.77-2.58-1.42-3.76-1.63-2.11-2.28-3.28-1.42-2.22-2.07-3.39-1.29-2.3-1.94-3.47-1.61-2.13-2.25-3.29-.47-2.76-1.12-3.93-1.26-2.33-1.9-3.49l-1.94-3.47c-.64-1.16-2-1.89-2.69-3.05s-1.4-2.26-2-3.42-.65-2.67-1.3-3.83-1.78-2.05-2.42-3.21-1.18-2.38-1.82-3.54-1.53-2.19-2.17-3.34-.29-2.89-.93-4-1.87-2-2.51-3.16-.86-2.58-1.5-3.72-1.91-2-2.55-3.14-.62-2.72-1.25-3.86-1.26-2.37-1.9-3.5-1.76-2.09-2.39-3.22-1.16-2.44-1.79-3.56-2.1-1.92-2.72-3-.81-2.66-1.43-3.75-1.58-2.26-2.19-3.33c-.71-1.28-1.42-2.4-2-3.42-.67-1.18-.88-2.61-1.57-3.77s-.9-2.63-1.62-3.77-2.32-1.71-3.07-2.83-1.47-2.26-2.26-3.35-.92-2.68-1.74-3.75-2.38-1.56-3.24-2.6-1.26-2.47-2.15-3.48-1.67-2.16-2.6-3.13-2-1.82-3-2.76-1.73-2.12-2.74-3-2-1.81-3.08-2.67-2.77-.84-3.85-1.66-2.11-1.65-3.22-2.42-2.11-1.66-3.26-2.38-2.32-1.34-3.5-2-2-2-3.21-2.59-2.77-.44-4-1-2.15-1.84-3.41-2.34-2.7-.48-4-.92-2.61-.66-3.92-1l-3.79-1.11c-1.24-.35-2.33-1.3-3.63-1.67s-2.56-.53-3.85-.9-2.52-.67-3.81-1-2.63-.31-3.91-.67-2.46-.92-3.74-1.28-2.49-.83-3.77-1.19-2.57-.54-3.85-.9-2.33-1.4-3.6-1.76-2.64-.32-3.91-.68-2.48-.87-3.75-1.23-2.66-.28-3.92-.64-2.63-.39-3.9-.74-2.42-1.16-3.68-1.52-2.51-.83-3.77-1.18-2.5-.89-3.76-1.24-2.63-.4-3.89-.75-2.61-.51-3.86-.86-2.51-.86-3.77-1.21-2.48-1-3.73-1.33-2.69-.22-3.94-.56-2.46-1.08-3.7-1.43-2.74-.1-4-.44-2.36-1.47-3.59-1.82-2.61-.61-3.83-.95-2.49-1.09-3.7-1.42-2.93.4-4.12.07c-1.38-.38-2.48-1.33-3.64-1.65-1.46-.41-2.55-1.43-3.61-1.73-2.44-.68-2.25.72-4.14.2"/><path class="cls-3" d="M648.46,386.87c.45,2,.11,1.47.68,4,.25,1.11.81,2.38,1.15,3.88.28,1.2.55,2.53.87,3.95.28,1.24,1.22,2.41,1.54,3.8s-.08,2.72.22,4.09,1,2.5,1.28,3.86,1,2.5,1.35,3.84-.5,2.85-.2,4.19.93,2.53,1.23,3.86.08,2.73.38,4.06,1.27,2.47,1.57,3.8-.14,2.78.16,4.11.67,2.61,1,3.93,1.5,2.43,1.79,3.75.79,2.59,1.09,3.9-.56,2.9-.27,4.21,1,2.55,1.29,3.86.88,2.59,1.16,3.89.41,2.7.7,4,.81,2.61,1.1,3.9.6,2.66.89,3.95.92,2.6,1.2,3.88-.42,2.9-.14,4.17,1.24,2.55,1.51,3.81.52,2.74.78,4c.3,1.44,1.12,2.65,1.37,3.85.27,1.35.23,2.69.52,3.91s.47,2.67.8,3.86c.38,1.35.37,2.73.78,3.9.46,1.33,1.74,2.22,2.24,3.34.57,1.29.41,2.81,1,3.88a27.54,27.54,0,0,0,2.35,3.2,26.16,26.16,0,0,0,2.89,2.69,35.43,35.43,0,0,0,3.25,2.19c1,.76,2.07,1.47,3.22,2.22s1.94,1.7,3.11,2.43,2.38,1,3.55,1.78,1.57,2.3,2.73,3.06c1,.64,2.27,1.13,3.49,1.91,1,.66,2.21,1.3,3.4,2s2.26,1.27,3.43,2,2.06,1.62,3.22,2.34,2.58.81,3.73,1.53,1.73,2.19,2.87,2.9,2.63.75,3.77,1.45,2.28,1.32,3.42,2,2.16,1.51,3.3,2.21,2.17,1.51,3.31,2.21,2.44,1.07,3.58,1.77,2.44,1.08,3.57,1.77,1.93,1.94,3,2.63,1.93,2,3,2.63,2.46,1.09,3.58,1.77,2.48,1.06,3.6,1.74,1.87,2.06,3,2.74,2.48,1.09,3.59,1.76,2.32,1.37,3.41,2,2.66.84,3.75,1.5,2.27,1.5,3.34,2.14c1.23.75,2.43,1.32,3.47,1.95,1.3.78,2.39,1.56,3.35,2.14,2.16,1.32,1.32,3,3.15,2.23s-.08-1.3.13-3.57c.1-1.06,1.25-2.26,1.27-3.65,0-1.14-1.26-2.34-1.36-3.65s.53-2.48.32-3.75-.75-2.32-1.08-3.55-.18-2.52-.63-3.7"/><path class="cls-3" d="M612.79,392.86c.68,1.9.83,1.27,1.69,3.68.38,1.08.73,2.4,1.25,3.85.42,1.16.62,2.53,1.11,3.89.43,1.2,1.56,2.24,2,3.57s1.29,2.34,1.77,3.65.5,2.65,1,3.95,1.37,2.34,1.84,3.63.71,2.59,1.17,3.87.72,2.6,1.18,3.87,1,2.49,1.51,3.76.94,2.53,1.41,3.8.61,2.65,1.08,3.91.85,2.58,1.31,3.83,1.46,2.36,1.92,3.61.62,2.67,1.08,3.91.42,2.76.88,4,1.19,2.5,1.65,3.71,1.76,2.29,2.22,3.48c.52,1.35.46,2.83.91,4s.86,2.5,1.31,3.65.83,2.52,1.28,3.67,1.69,2.19,2.13,3.34.08,2.83.53,4,.9,2.53,1.38,3.64,1.3,2.36,1.87,3.44a31.13,31.13,0,0,0,2.28,3.18,25.56,25.56,0,0,0,2.27,3.16c.85.92,2.38,1.1,3.43,2s1.41,2.27,2.57,3,2.48,1,3.55,1.7,1.71,2.17,2.76,2.89,2.55,1,3.57,1.72,2.48,1.17,3.47,1.87c1.19.86,2.29,1.59,3.2,2.25,2,1.42,1.32,1.5,2.88,2.67"/><path class="cls-3" d="M579.66,278.55c.06,2-.09,1.47,0,4.07,0,1.14-.15,2.52-.11,4.07,0,1.24.54,2.59.58,4.06,0,1.27,0,2.63,0,4.06s-.61,2.68-.58,4.09.76,2.65.79,4.05.56,2.67.59,4.06-1.11,2.71-1.08,4.09,1.28,2.66,1.31,4-.87,2.72-.84,4.09.89,2.68.92,4,.08,2.71.11,4.07-.48,2.72-.45,4.08-.44,2.73-.41,4.09.86,2.7.88,4.06.1,2.72.12,4.07-.13,2.73-.11,4.08-.08,2.73-.06,4.08.45,2.73.47,4.07,0,2.74,0,4.07-.46,2.75-.45,4.08-.08,2.75-.07,4.07.7,2.77.71,4.07-.29,2.79-.29,4.07c0,1.45.24,2.82.23,4.08,0,1.5-1.13,2.84-1.16,4,0,1.38.17,2.72.16,4s-.07,2.72,0,4,.32,2.71.39,4,0,2.72.12,4,.16,2.72.33,4,.39,2.7.65,4,1.59,2.38,1.94,3.64.13,2.75.58,4,1.64,2.18,2.2,3.38.16,2.89.82,4.06,1.44,2.25,2.19,3.38,1.65,2.07,2.48,3.16,1.72,2,2.61,3,1.86,2,2.78,3.05,2.14,1.76,3.06,2.81,1.69,2.17,2.61,3.21,1.72,2.15,2.65,3.17l2.79,3.05c.94,1,2.18,1.76,3.11,2.76s1.76,2.16,2.69,3.16,1.79,2.13,2.72,3.11,2,2,2.87,3,1.92,2.08,2.82,3,2.26,1.8,3.14,2.72c1.08,1.13,1.74,2.42,2.55,3.26,1.81,1.87,1.39,1.53,2.83,3"/><path d="M652.18,167.4c0-1.14.22-2.4-.53-3.15a4.45,4.45,0,0,0-3.15-.87,4.51,4.51,0,0,0-3.18.85c-.75.75-.57,2-.57,3.17a3.66,3.66,0,0,0,.92,2.84c.75.75,1.68,1.76,2.83,1.76a4.62,4.62,0,0,0,2.92-1.67A3.84,3.84,0,0,0,652.18,167.4Z"/><path class="cls-3" d="M652.18,167.4c0-1.14.22-2.4-.53-3.15a4.45,4.45,0,0,0-3.15-.87,4.51,4.51,0,0,0-3.18.85c-.75.75-.57,2-.57,3.17a3.66,3.66,0,0,0,.92,2.84c.75.75,1.68,1.76,2.83,1.76a4.62,4.62,0,0,0,2.92-1.67A3.84,3.84,0,0,0,652.18,167.4Z"/><path class="cls-3" d="M564.4,142.74c-1.19,1.68-.77,2-2,3.66s-1.64,1.36-2.83,3-.49,2.18-1.69,3.86-1.44,1.5-2.63,3.18-1.76,1.28-3,3-.75,2-2,3.66-.67,2.05-1.86,3.73-2.31.88-3.5,2.56-.81,2-2,3.64l-2.39,3.36c-1.19,1.68-1.47,1.48-2.67,3.16s-.84,1.94-2,3.62-.71,2-1.91,3.7-2,1.12-3.17,2.8-1,1.8-2.21,3.48-1,1.86-2.14,3.54-.79,2-2,3.65-2,1.08-3.24,2.76-1.12,1.73-2.32,3.41-.71,2-1.91,3.7-1.06,1.78-2.26,3.46-1.11,1.73-2.31,3.41-1.22,1.66-2.42,3.34-2,1.1-3.21,2.78-.2,2.39-1.4,4.07-2,1.08-3.24,2.76-.5,2.17-1.7,3.85-1.56,1.42-2.75,3.1-1.18,1.7-2.38,3.38-1.07,1.76-2.27,3.44-1.12,1.74-2.31,3.42-1.82,1.24-3,2.92-.33,2.3-1.52,4-2.22.95-3.42,2.63-1,1.83-2.18,3.51-1.26,1.64-2.45,3.32-1.1,1.76-2.3,3.44-1,1.85-2.16,3.53-1.1,1.75-2.29,3.43-1.23,1.66-2.43,3.34-.68,2.05-1.88,3.73-1.78,1.26-3,2.94-1.38,1.54-2.58,3.22-.75,2-1.95,3.68-1.73,1.3-2.93,3-.71,2-1.91,3.7-.81,2-2,3.64-1.11,1.75-2.31,3.43-2,1.11-3.2,2.79-.68,2.05-1.88,3.73-1.68,1.34-2.88,3-1,1.84-2.18,3.52-1,1.81-2.22,3.49-1.67,1.34-2.87,3-.76,2-2,3.68-1.79,1.26-3,2.94-.38,2.27-1.58,4-1.62,1.38-2.82,3.07"/><path d="M764,285.43a4,4,0,0,0-1.2-2.89,4.33,4.33,0,0,0-2.9-1.49c-1.14,0-1.95.93-2.7,1.68a3.78,3.78,0,0,0-1.38,2.7,3.67,3.67,0,0,0,1.51,2.58c.75.75,1.43,1.91,2.57,1.91s1.86-1.13,2.61-1.88A3.7,3.7,0,0,0,764,285.43Z"/><path class="cls-3" d="M764,285.43a4,4,0,0,0-1.2-2.89,4.33,4.33,0,0,0-2.9-1.49c-1.14,0-1.95.93-2.7,1.68a3.78,3.78,0,0,0-1.38,2.7,3.67,3.67,0,0,0,1.51,2.58c.75.75,1.43,1.91,2.57,1.91s1.86-1.13,2.61-1.88A3.7,3.7,0,0,0,764,285.43Z"/></g></g></g></svg>