<svg xmlns="http://www.w3.org/2000/svg" viewBox="0 0 529.73 162.21"><defs><style>.cls-1{fill:#677d70;}.cls-2{font-size:32.5px;fill:#fff;font-family:PTSerif-Regular, PT Serif;}.cls-3{letter-spacing:-0.02em;}.cls-4{letter-spacing:-0.04em;}.cls-5{letter-spacing:0em;}</style></defs><g id="Layer_2" data-name="Layer 2"><g id="sect4"><g id="art"><path class="cls-1" d="M496.59,142.73c-1-1.79.71-2.14.71-4.22s-.22-2.08-.22-4.17-.32-2.08-.32-4.16-.69-2.08-.69-4.17.55-2.08.55-4.16.54-2.08.54-4.17S496,115.6,496,113.52s.62-2.09.62-4.17-.29-2.08-.29-4.17-.16-2.08-.16-4.16-.15-2.09-.15-4.17.49-2.08.49-4.17.59-2.08.59-4.16-.8-2.09-.8-4.17.25-2.08.25-4.16.23-2.09.23-4.17-.23-2.08-.23-4.16.47-2.09.47-4.17-.68-2.09-.68-4.17-.18-2.08-.18-4.17-.15-2.08-.15-4.17.49-2.08.49-4.17-.43-2.08-.43-4.17.22-2.08.22-4.16.16-2.09.16-4.17.88-2.09.88-4.18-.67-2.08-.67-4.17.7-2.09.7-4.18a18.87,18.87,0,0,0-.49-4c-.29-1.28-1.38-2.35-1.94-3.5a17,17,0,0,0-2.31-3.08c-.81-1-1.11-2.6-2.12-3.41A19.11,19.11,0,0,0,487,10.16c-1.16-.56-2.58-.33-3.86-.63a16.7,16.7,0,0,0-3.76-.16c-2.07,0-2.07-1.22-4.15-1.22s-2.08,1-4.15,1-2.08-.3-4.15-.3S464.83,8,462.75,8s-2.07.56-4.15.56S456.52,8,454.45,8s-2.08.55-4.15.55-2.08.29-4.16.29-2.08-.73-4.15-.73-2.08.06-4.16.06-2.08,0-4.15,0-2.08,1.05-4.16,1.05-2.08-1-4.15-1-2.08.86-4.16.86-2.08-.23-4.15-.23-2.08-.31-4.15-.31h-4.16c-2.07,0-2.07-.33-4.15-.33s-2.08,1.11-4.15,1.11S398.37,8,396.29,8s-2.08.64-4.15.64-2.08.69-4.16.69-2.08-.85-4.16-.85-2.07.61-4.15.61-2.08-.66-4.16-.66S373.44,8,371.36,8s-2.08.81-4.15.81-2.08.19-4.16.19-2.07-.68-4.15-.68-2.08,1-4.16,1-2.07-.69-4.15-.69-2.08,0-4.16,0-2.08.63-4.15.63h-4.16C336,9.22,336,8.06,334,8.06s-2.07.08-4.15.08-2.08.06-4.15.06-2.08.14-4.16.14-2.08,0-4.15,0-2.08.36-4.16.36-2.08-.39-4.16-.39-2.07.41-4.15.41-2.08.43-4.16.43-2.08.14-4.15.14-2.08-.6-4.16-.6-2.08-.11-4.15-.11-2.08.31-4.16.31-2.08.23-4.16.23S277.86,8,275.79,8s-2.08.09-4.16.09h-4.16c-2.07,0-2.07,1.2-4.15,1.2s-2.08-.75-4.16-.75-2.08-.35-4.15-.35-2.08.65-4.16.65-2.08.41-4.16.41S244.61,9,242.54,9s-2.08-.39-4.16-.39-2.08.51-4.16.51-2.07-.54-4.15-.54-2.08-.06-4.16-.06-2.08.58-4.16.58-2.07.15-4.15.15h-4.16c-2.08,0-2.08-.83-4.16-.83s-2.07.08-4.15.08-2.08,0-4.15,0-2.08.78-4.15.78-2.08-.25-4.16-.25-2.07.12-4.15.12-2.08.25-4.16.25S182.28,8,180.21,8s-2.08.83-4.16.83-2.08.22-4.15.22-2.08-.76-4.16-.76-2.07.9-4.15.9-2.08-.49-4.16-.49-2.08.27-4.16.27-2.07-1-4.15-1S149,9.3,147,9.3,144.88,8,142.81,8h-4.16c-2.08,0-2.08.26-4.16.26S132.41,8,130.33,8s-2.08.62-4.15.62-2.08.72-4.16.72-2.08-.93-4.16-.93-2.08-.26-4.16-.26-2.08.92-4.16.92-2.08-.92-4.16-.92-2.08.7-4.15.7-2.08.5-4.16.5S95,9,92.91,9s-2.08-.11-4.16-.11S86.67,8,84.59,8s-2.08.75-4.16.75-2.08-.55-4.16-.55-2.08.49-4.16.49S70,8.13,68,8.13s-2.07.66-4.15.66-2.08-.85-4.16-.85S57.56,9,55.48,9s-2.08-.89-4.16-.89-2.08.72-4.17.72S45.07,8.3,43,8.3s-2.08.48-4.16.48-2.08-.26-4.16-.26-2.08-.12-4.16-.12S28.42,8,26.34,8s-2.08.45-4.17.45L18,8.47a17.44,17.44,0,0,0-3.83.75,16.32,16.32,0,0,0-3.43,1.69c-1.18.57-2.64.6-3.64,1.41S5.67,14.49,4.86,15.5a16.38,16.38,0,0,0-2.28,3.05,16.65,16.65,0,0,0-1,3.67C1.25,23.46.16,24.66.16,26c0,2.11.5,2.11.5,4.21s-.42,2.1-.42,4.2S.06,36.5.06,38.6s1,2.1,1,4.2,0,2.11,0,4.21-.26,2.1-.26,4.21.44,2.1.44,4.2S.68,57.53.68,59.63s0,2.1,0,4.21S.2,65.94.2,68.05s-.14,2.1-.14,4.2.31,2.11.31,4.21-.12,2.1-.12,4.21.43,2.1.43,4.21S.44,87,.44,89.08s.21,2.1.21,4.21S0,95.39,0,97.49s0,2.11,0,4.21,1.23,2.1,1.23,4.21-.92,2.1-.92,4.21.11,2.1.11,4.21.6,2.1.6,4.21-.71,2.1-.71,4.21.12,2.1.12,4.21.73,2.1.73,4.21S0,133.27,0,135.38s1.39,2.11,1.39,4.22-1,2.1-1,4.21c0,1.33.72,2.56,1,3.8a17,17,0,0,0,1.41,3.54,16.84,16.84,0,0,0,1.88,3.31,17.31,17.31,0,0,0,2.52,2.93,17.31,17.31,0,0,0,3.31,2.06c1.15.55,2.54.31,3.82.6A16.62,16.62,0,0,0,18,161c2.08,0,2.08.29,4.16.29s2.08-.36,4.16-.36,2.08.81,4.16.81,2.09-.71,4.17-.71,2.08.51,4.16.51,2.08.2,4.16.2,2.09-.59,4.17-.59,2.08.72,4.16.72,2.09-1.28,4.17-1.28,2.08,1.17,4.17,1.17,2.08-.63,4.16-.63,2.09.71,4.17.71,2.08-.36,4.17-.36,2.08,0,4.16,0,2.08-.21,4.16-.21,2.09-.83,4.17-.83,2.08.42,4.16.42,2.08-.43,4.17-.43,2.08.77,4.16.77,2.08.11,4.17.11,2.08-.28,4.16-.28,2.09.74,4.17.74,2.08-1,4.17-1,2.08.82,4.16.82,2.09-.13,4.17-.13,2.08.11,4.16.11,2.09-.15,4.17-.15,2.08-.3,4.16-.3,2.09-.38,4.17-.38,2.08,1,4.16,1,2.09-.8,4.17-.8,2.09.71,4.17.71,2.08-.69,4.17-.69,2.08-.07,4.16-.07,2.09.76,4.17.76,2.08-.71,4.16-.71,2.09-.27,4.17-.27,2.08,1.09,4.16,1.09,2.09-1,4.17-1,2.09-.07,4.17-.07,2.08.8,4.17.8,2.08,0,4.16,0,2.09-.14,4.17-.14,2.08-.33,4.17-.33,2.08.16,4.16.16,2.09-.41,4.17-.41,2.08,1.1,4.17,1.1,2.08-.76,4.17-.76,2.08.48,4.16.48,2.09.09,4.17.09,2.08-.4,4.16-.4,2.09-.58,4.17-.58,2.09,1.2,4.17,1.2,2.08.08,4.17.08,2.08-.94,4.17-.94,2.08.65,4.16.65,2.09-.59,4.17-.59,2.08-.47,4.17-.47,2.08.06,4.17.06,2.08,1.27,4.16,1.27h4.17c2.08,0,2.08-1,4.17-1s2.08-.31,4.17-.31,2.08,1,4.16,1,2.09-.74,4.17-.74,2.08.72,4.16.72,2.08-.11,4.16-.11,2.08.17,4.17.17,2.08-.3,4.16-.3,2.09.19,4.17.19,2.08-.3,4.17-.3,2.08.67,4.16.67,2.09-1.26,4.17-1.26,2.08.85,4.16.85,2.09-.59,4.17-.59,2.08-.25,4.17-.25,2.08.36,4.17.36,2.08.66,4.16.66,2.09-.73,4.17-.73,2.08.31,4.17.31,2.08-.61,4.17-.61,2.08.22,4.16.22,2.09.1,4.17.1,2.09.44,4.17.44,2.09-.63,4.17-.63,2.08,1.08,4.17,1.08,2.08-1,4.17-1,2.08.72,4.17.72,2.08-.93,4.17-.93,2.08,1,4.17,1,2.08-1.05,4.17-1.05,2.08,0,4.17,0,2.08-.2,4.17-.2,2.08.42,4.17.42,2.08.55,4.17.55,2.08-.57,4.17-.57,2.08.71,4.17.71,2.08-.23,4.17-.23,2.08-.39,4.16-.39,2.09.57,4.18.57,2.08-.8,4.17-.8,2.08.29,4.17.29,2.08.53,4.17.53,2.09-.48,4.17-.48h4.18c2.08,0,2.08.41,4.17.41s2.09-.5,4.17-.5,2.09.18,4.18.18,2.09-.61,4.18-.61,2.09,1.22,4.18,1.22c1.47,0,1.47-.08,2.94-.08,2.09,0,2.09-1.17,4.18-1.17s2.1-.07,4.19-.07,2.09,1.13,4.18,1.13,2.09-.56,4.18-.56,2.1.09,4.19.09,2.09-.42,4.19-.42,2.09-.24,4.18-.24,2.1.9,4.19.9,2.09.24,4.18.24,2.1-.12,4.19-.12,2.1.22,4.2.22,3.72,1.51,4.26-.52-2.22-.47-4-1.5-1.62-1.4-3.45-2.43-1.53-1.56-3.35-2.58-1.7-1.26-3.53-2.28-2.07-.59-3.9-1.62-1.82-1-3.64-2.07-1.76-1.15-3.59-2.18-1.71-1.44-3.69-2.14S497.66,144.54,496.59,142.73Z"/><text class="cls-2" transform="translate(54.17 67.52)">H<tspan class="cls-3" x="23.66" y="0">e</tspan><tspan x="39.42" y="0">y Didi</tspan><tspan class="cls-4" x="124.35" y="0">,</tspan><tspan x="132.24" y="0" xml:space="preserve"> remeber last </tspan><tspan class="cls-3" x="328.02" y="0">y</tspan><tspan class="cls-5" x="343.85" y="0">ear</tspan><tspan x="0" y="47.67">when I proposed to </tspan><tspan class="cls-3" x="285.12" y="47.67">y</tspan><tspan x="300.95" y="47.67">ou?</tspan></text><path d="M280.63,7.68c0,1.27.56,2.59,0,3.62a8,8,0,0,1-2.48,2.94c-1,.59-2.51.34-3.78.34a6.62,6.62,0,0,1-3.39-1c-1.06-.61-1.44-1.67-2.05-2.73S267.48,9,267.48,7.68a6.84,6.84,0,0,1,.76-3.51c.61-1.06,1.9-1.3,3-1.91S273.06,0,274.33,0A8,8,0,0,1,278,1.33a8.2,8.2,0,0,1,3,2.5C281.59,4.86,280.63,6.41,280.63,7.68Z"/></g></g></g></svg>