<svg xmlns="http://www.w3.org/2000/svg" viewBox="0 0 1100.43 779.68"><defs><style>.cls-1,.cls-11,.cls-12,.cls-13,.cls-14,.cls-15,.cls-16,.cls-4,.cls-5,.cls-6,.cls-8,.cls-9{fill:none;}.cls-1{stroke:#677d70;}.cls-1,.cls-12,.cls-14,.cls-15,.cls-16,.cls-4,.cls-5,.cls-6,.cls-9{stroke-linecap:round;stroke-linejoin:round;}.cls-1,.cls-4,.cls-5,.cls-8,.cls-9{stroke-width:3.61px;}.cls-2{fill:#8e9b91;}.cls-3{fill:#677d70;}.cls-12,.cls-4{stroke:#62272d;}.cls-5,.cls-6,.cls-8{stroke:#000;}.cls-11,.cls-12,.cls-13,.cls-6{stroke-width:4.33px;}.cls-7{fill:#e6b49d;}.cls-11,.cls-13,.cls-8{stroke-miterlimit:10;}.cls-9{stroke:#1d1d1b;}.cls-10{fill:#fff;}.cls-11{stroke:#e6b49d;}.cls-13{stroke:#8e9b91;}.cls-14,.cls-15,.cls-16{stroke:#fff;}.cls-14{stroke-width:1.44px;}.cls-15{stroke-width:1px;}.cls-16{stroke-width:2.89px;}</style></defs><g id="Layer_2" data-name="Layer 2"><g id="sect9"><g id="screen"><path class="cls-1" d="M260.42,631.44c-1.82,1-1.84,1-3.67,2s-1.31,1.92-3.14,2.95-2.2.35-4,1.37-1.29,2-3.11,3-2.52-.21-4.34.81-1.15,2.23-3,3.26-1.83,1-3.66,2-2.2.34-4,1.37-1.7,1.24-3.53,2.26-1.67,1.28-3.5,2.31-1.71,1.22-3.53,2.24-2.32.14-4.14,1.16-1.65,1.33-3.48,2.36-1.53,1.54-3.35,2.56-2.06.6-3.89,1.62-2.2.35-4,1.38-1.48,1.63-3.3,2.65-1.85,1-3.68,2-1.57,1.45-3.39,2.48-2.09.53-3.91,1.56-1.48,1.64-3.3,2.66-2.43-.07-4.25.95-1.42,1.74-3.24,2.77-2,.63-3.87,1.66-1.47,1.64-3.3,2.66-1.69,1.26-3.51,2.28-2,.73-3.81,1.75-2,.64-3.85,1.66-1.63,1.36-3.45,2.39-1.86.95-3.69,2-2.09.54-3.91,1.56-1.78,1.1-3.61,2.13-1.63,1.36-3.45,2.39-2,.68-3.83,1.71-1.59,1.44-3.41,2.47-2.07.57-3.9,1.59-1.78,1.09-3.6,2.12-1.43,1.73-3.25,2.75-2.34.11-4.17,1.13-1.77,1.11-3.59,2.13-1.34,1.9-3.16,2.92-2.22.31-4.05,1.34-1.59,1.43-3.42,2.45-2.21.34-4,1.36S98.51,723,96.69,724s-2.07.59-3.89,1.62-1.47,1.65-3.3,2.67-1.63,1.36-3.45,2.39-2.39,0-4.21,1-1.84,1-3.67,2l-3.65,2.05c-1.82,1-1.65,1.32-3.47,2.35s-1.8,1.06-3.63,2.09S66,741.94,64.13,743s-1.69,1.26-3.51,2.28-2.36.09-4.18,1.11-1.72,1.21-3.54,2.24-1.65,1.34-3.47,2.36-1.94.82-3.76,1.85-1.85,1-3.68,2-1.94.82-3.76,1.85-1.75,1.15-3.58,2.18-1.79,1.08-3.61,2.11-1.72,1.22-3.54,2.24-2.17.42-4,1.44S21.85,766,20,767s-1.71,1.23-3.53,2.25-2.08.58-3.91,1.61-1.5,1.59-3.33,2.62-2,.69-3.84,1.72-1.78,1.12-3.61,2.15"/><path class="cls-1" d="M779.52,597.33c1.81,1,1.27,2,3.09,3s2.37,0,4.19,1,1.57,1.45,3.39,2.47,1.71,1.2,3.52,2.22,1.72,1.2,3.53,2.22,2.17.4,4,1.42,1.75,1.13,3.57,2.15,1.57,1.44,3.39,2.46,1.85.95,3.67,2,1.63,1.34,3.45,2.37,1.83,1,3.64,2,1.8,1.05,3.62,2.07,2.43-.08,4.24.94,1.65,1.32,3.46,2.34,1.74,1.17,3.55,2.19S835.2,630,837,631s2.46-.13,4.28.89,1.61,1.37,3.43,2.4,1.63,1.34,3.45,2.36,2.07.56,3.89,1.58,1.3,1.93,3.12,3,2,.61,3.86,1.63,1.66,1.29,3.48,2.31,2.29.17,4.11,1.19,1.23,2.06,3.05,3.08,2.38,0,4.19,1,1.79,1.07,3.6,2.09,1.88.92,3.69,1.94,1.65,1.31,3.47,2.34,1.77,1.08,3.59,2.1,2.07.58,3.88,1.6,1.59,1.43,3.4,2.45,1.44,1.69,3.26,2.71,2.1.52,3.91,1.54,1.52,1.54,3.34,2.56,1.84,1,3.65,2,2,.77,3.77,1.79,2.28.18,4.09,1.2,1.43,1.71,3.25,2.73,1.85.95,3.66,2,1.73,1.19,3.54,2.21,1.86,1,3.67,2,2.09.53,3.9,1.55,1.9.88,3.71,1.9,1.48,1.62,3.29,2.64,2,.66,3.83,1.68,1.74,1.16,3.55,2.18,1.67,1.28,3.49,2.3,2.2.34,4,1.36,1.55,1.51,3.36,2.53,1.48,1.62,3.29,2.64,2.32.12,4.14,1.14,1.95.78,3.76,1.8,1.4,1.77,3.21,2.79,1.59,1.43,3.41,2.45,2.19.35,4,1.37,1.79,1.06,3.61,2.08l3.63,2c1.82,1,1.52,1.56,3.34,2.58s1.77,1.09,3.59,2.11,1.89.9,3.7,1.92,1.7,1.22,3.52,2.24,2.42,0,4.24,1,1.45,1.67,3.27,2.69,2.21.32,4,1.34,1.43,1.7,3.25,2.73,1.89.87,3.71,1.9,2,.78,3.77,1.81,1.8,1,3.61,2.06,1.57,1.47,3.39,2.49,1.66,1.3,3.48,2.32,2.34.1,4.15,1.12,1.72,1.21,3.53,2.23,2,.74,3.79,1.76,1.63,1.35,3.45,2.37,2,.76,3.78,1.79,1.35,1.84,3.17,2.86,2.24.27,4.06,1.29,1.77,1.1,3.59,2.12,1.91.86,3.72,1.89,1.25,2,3.07,3.05,2.4,0,4.22,1,1.55,1.5,3.37,2.52,1.66,1.31,3.48,2.33,1.76,1.12,3.58,2.15,1.92.82,3.74,1.85,2,.75,3.8,1.77,1.55,1.5,3.37,2.53"/><path class="cls-2" d="M779.34,533.75c1.74,1.12,2-.47,4.06-.48s2.07.84,4.13.84,2.06-.2,4.13-.21,2.06.35,4.13.34,2.06-.75,4.12-.75,2.06-.14,4.12-.14,2.07.26,4.13.25h4.13c2.06,0,2.06-.3,4.12-.3s2.07.9,4.14.9,2.06-.94,4.12-1,2.07.47,4.13.46,2.06.58,4.13.57,2.06.16,4.13.16,2.06-.85,4.13-.85,2.06-.58,4.12-.58,2.07,1,4.13,1,2.07-.31,4.13-.32,2.07.27,4.13.26,2.07.44,4.14.44,2.06-1.22,4.12-1.22,2.07.26,4.13.25,2.07.07,4.13.06,2.07,0,4.13,0,2.07-.49,4.13-.49,2.07.6,4.14.6,2.06-.07,4.13-.08h4.13c2.06,0,2.06-.59,4.13-.59s2.07,1.05,4.13,1,2.07-.53,4.13-.54,2.07-.32,4.14-.33,2.06.22,4.13.22,2.07.9,4.13.89,2.07-1.19,4.13-1.2,2.07.89,4.13.89,2.07-.26,4.13-.26,2.07.55,4.14.55,2.06-1.21,4.13-1.22,2.06.24,4.13.24,2.07.22,4.13.22,2.07.63,4.14.62,2.06-.85,4.13-.85,2.07.27,4.14.26h4.13c2.07,0,2.07.39,4.14.39s2.06-.79,4.13-.8,2.07-.2,4.14-.2,2.53,1.91,4,.46.75-1.89.75-3.93-.1-2-.1-4.08-1-2-1-4.08.82-2,.82-4.08,0-2,0-4.08V509c0-2-.05-2-.05-4.08s.43-2,.43-4.08-.67-2-.67-4.08-.24-2-.24-4.08.68-2,.68-4.08.13-2,.13-4.08-.11-2-.11-4.08-.84-2-.84-4.08.88-2,.88-4.07.1-2,.1-4.08-.76-2-.76-4.08-.43-2-.43-4.08S981,458,981,456s.61-2.05.61-4.09.64-2,.64-4.08-1-2-1-4.08,0-2,0-4.08.27-2,.27-4.08.33-2.05.33-4.09,1.12-2.51-.34-3.94-1.95-.11-4-.11-2.09.62-4.18.62-2.1-.18-4.19-.18S967,427,964.94,427s-2.09-.16-4.18-.16-2.09.21-4.18.21-2.09-.21-4.18-.21-2.09.95-4.18.95-2.09-.26-4.19-.26-2.09.17-4.18.17-2.09.26-4.19.26-2.09-.7-4.18-.7-2.09.65-4.18.65-2.1-.72-4.19-.72-2.09-.31-4.18-.31-2.1.83-4.19.83-2.09-.91-4.19-.91-2.09.22-4.18.22-2.09-.16-4.18-.16-2.1.1-4.19.1-2.09,1-4.19,1-2.09-1.1-4.18-1.1-2.1.29-4.19.29-2.09.21-4.19.21-2.09,0-4.18,0-2.1-.52-4.19-.52-2.09,1.16-4.19,1.16-2.09-.49-4.19-.49-2.09.19-4.18.19-2.1,0-4.19,0-2.1.24-4.19.24-2.09-1-4.19-1-2.09,1.08-4.19,1.08-2.09-.72-4.19-.72-2.09-.6-4.18-.6S833.09,428,831,428s-2.1-.83-4.19-.83-2.09-.38-4.19-.38-2.09.67-4.18.67-2.1.18-4.19.18-2.1-.71-4.19-.71-2.1.37-4.19.37-2.1-.25-4.19-.25-2.1.94-4.19.94-2.1-1.31-4.19-1.31-2.1.08-4.19.08-2.1.58-4.2.58-2.09-.31-4.19-.31-2.1.82-4.2.82-3.35-2.53-4.7-.93,1.1,2.47,1.44,4.56-.46,2.23-.12,4.32.36,2.08.7,4.17.85,2,1.19,4.1.49,2.07.84,4.16.09,2.13.43,4.22.17,2.12.51,4.21.57,2.05.91,4.14-.22,2.19.12,4.28,1.39,1.91,1.74,4-.61,2.25-.27,4.34.67,2,1,4.12.78,2,1.12,4.11.4,2.08.75,4.17-.17,2.18.18,4.26,0,2.15.33,4.24,1,2,1.3,4.09-.33,2.2,0,4.29,1.64,1.88,2,4-.4,2.21,0,4.3-.12,2.17.22,4.26,1.55,1.9,1.9,4-.24,2.19.1,4.29,2,2.51.79,4.25c-1,1.48-1.9,0-3.7,0s-1.81.58-3.61.59-2.74-2.25-4-1c-1.09,1.11,1.3,1.88,1.3,3.44S778,532.91,779.34,533.75Z"/><path class="cls-2" d="M873.48,178.3c0,1.39,0,2.79.09,4.16s-.21,2.83-.07,4.2.34,2.8.55,4.16.47,2.77.76,4.13,1,2.64,1.36,4,.6,2.74,1,4.05,1.75,2.32,2.25,3.61.24,2.9.8,4.16,1.89,2.17,2.51,3.41,1.24,2.46,1.93,3.65,1.62,2.23,2.37,3.39,1,2.67,1.81,3.79,1.12,2.66,2,3.73,2.64,1.41,3.56,2.44,2,1.87,3,2.85,1.23,2.72,2.26,3.65,2.46,1.41,3.53,2.28,2.55,1.2,3.67,2,2.23,1.58,3.39,2.34,2,2,3.21,2.67,2.39,1.4,3.62,2,2.19,1.89,3.45,2.46,2.76.64,4.05,1.14,2.67.77,4,1.2,2.71.57,4,.93,2.64.83,4,1.12,2.58,1.35,4,1.56,2.78.36,4.16.51,2.86-1,4.25-.92,2.73,1.3,4.12,1.3,2.65-.84,4-.9,2.63-.23,3.94-.36,2.67,0,4-.18,2.54-.79,3.83-1.05,2.8.33,4.08,0,2.41-1.27,3.67-1.66,2.67-.39,3.91-.84,2.55-1.28,3.76-1.79c.53-2,.21-2.14.22-4.22s-.58-2.08-.57-4.16-.37-2.08-.37-4.16,0-2.07,0-4.15-.08-2.08-.08-4.16,1.27-2.08,1.27-4.16-1.32-2.08-1.31-4.16.15-2.08.16-4.16-.2-2.08-.2-4.16,1.23-2.08,1.23-4.16-.4-2.08-.4-4.15.29-2.08.3-4.16.07-2.08.08-4.17,0-2.08,0-4.15-.29-2.09-.29-4.17.38-2.08.38-4.16-1.05-2.08-1.05-4.16-.14-2.08-.14-4.16,1.18-2.08,1.18-4.16-.09-2.08-.09-4.16,0-2.08,0-4.16-.77-2.08-.76-4.16-.23-2.08-.23-4.16.31-2.08.32-4.16.72-2.08.72-4.16.19-2.08.2-4.16-.6-2.08-.59-4.16.68-2.08.69-4.17-1-2.08-1-4.16.61-2.08.62-4.16-.82-2.09-.82-4.17.76-2.08.77-4.16-.7-2.08-.69-4.17,1-2.08,1-4.17-.21-2.07-.73-4.09c-1.24-.56-2.08-1.4-3.32-1.89s-2.6-.77-3.87-1.2-2.74-.2-4-.57-2.28-1.93-3.6-2.22-2.81.4-4.15.18-2.62-.43-4-.57-2.6-1.12-4-1.19-2.7.82-4.07.82-2.74.37-4.12.44-2.86-1-4.23-.84-2.63,1.31-4,1.52-2.82,0-4.17.26-2.64.87-4,1.23-2.59,1-3.91,1.38-2.75.5-4,1-2.87.35-4.14.91-2.47,1.32-3.71,1.95-2,2.1-3.21,2.79-2.27,1.56-3.43,2.31-2.39,1.38-3.51,2.2-2.36,1.45-3.43,2.32-2,1.93-3,2.86-2.7,1.18-3.69,2.16-1,2.82-2,3.85-2.32,1.64-3.2,2.72-1.58,2.27-2.39,3.39-2,2-2.79,3.14-.72,2.8-1.42,4-1.41,2.35-2,3.59-1.57,2.3-2.14,3.57-.81,2.65-1.31,4-1.62,2.36-2,3.68.13,2.92-.23,4.26-1.35,2.51-1.63,3.87-.13,2.78-.34,4.15-1,2.66-1.18,4,.45,2.81.38,4.2S873.48,176.9,873.48,178.3Z"/><path class="cls-2" d="M739.27,204.77c0,1.41-.17,2.82-.09,4.22s.59,2.76.77,4.15.08,2.83.34,4.2.38,2.81.73,4.17.94,2.66,1.38,4,.32,2.9.84,4.2,1.72,2.34,2.32,3.61.64,2.85,1.32,4.07,1.7,2.3,2.45,3.48,2.11,2,2.93,3.1.89,2.88,1.79,4,2.26,1.78,3.22,2.81,1.82,2.16,2.84,3.13,2.38,1.55,3.47,2.44,1.89,2.15,3,3,2.06,2,3.25,2.77,3.06.35,4.3,1,2.48,1.22,3.75,1.82,2.19,2,3.5,2.49,2.85.37,4.19.81,2.7.64,4.07,1,2.56,1.32,4,1.59,2.81.11,4.21.29,2.76.44,4.17.53,2.79-.17,4.21-.17,2.81.22,4.2.14,2.84.09,4.23-.08,2.88,0,4.25-.25,2.79-.61,4.15-.95,2.57-1.29,3.9-1.73,2.83-.48,4.14-1,2.55-1.22,3.82-1.82,2.6-1.16,3.82-1.83,2.48-1.38,3.67-2.14,2.21-1.78,3.35-2.6,2.61-1.27,3.69-2.17,2.16-1.86,3.18-2.82,1.08-2.91,2-3.93,1.93-2,2.83-3.08,2.6-1.53,3.43-2.66,1.51-2.41,2.27-3.59,1.19-2.58,1.87-3.81.82-2.71,1.42-4,2.09-2.15,2.61-3.46.33-2.88.76-4.22,1.31-2.54,1.66-3.91,0-2.87.24-4.26.41-2.75.58-4.15,1.43-2.69,1.52-4.1-.27-2.84-.27-4.25.24-2.86.15-4.25-.3-2.84-.48-4.22-1.44-2.62-1.7-4-.49-2.74-.84-4.1-.12-2.88-.56-4.21-1-2.62-1.55-3.92-1-2.63-1.61-3.9-1.09-2.61-1.77-3.84-1.08-2.66-1.83-3.84-1.85-2.18-2.68-3.32-2.12-1.9-3-3-1.66-2.28-2.62-3.3S853,157,852,156s-1.68-2.36-2.76-3.26-2.56-1.3-3.7-2.13-1.82-2.33-3-3.09-3-.43-4.25-1.11-2.24-1.74-3.51-2.34-2.79-.58-4.1-1.1-2.28-1.9-3.63-2.33-2.7-.83-4.07-1.18-2.86,0-4.24-.31-2.72-.69-4.12-.87-2.77-.47-4.18-.55-2.8.26-4.22.26-2.84-.6-4.23-.51-2.89-.2-4.27,0-2.81.54-4.19.8-2.75.76-4.1,1.11-2.73.78-4.06,1.22-2.73.81-4,1.33-2.29,1.8-3.56,2.4-3,.41-4.19,1.09-2.51,1.36-3.69,2.12-1.63,2.6-2.77,3.43-2.3,1.57-3.38,2.46-2.58,1.32-3.6,2.28-1.7,2.27-2.66,3.3-2.52,1.54-3.42,2.62-.79,2.94-1.62,4.08-2.05,2-2.81,3.15-1.9,2.15-2.58,3.39-1.42,2.46-2,3.73-.71,2.77-1.23,4.08-.49,2.79-.93,4.13-1.48,2.48-1.83,3.84.05,2.88-.21,4.26-.37,2.74-.55,4.15-1.09,2.69-1.18,4.1S739.27,203.35,739.27,204.77Z"/><path class="cls-3" d="M815.16,225.91c0,1.42.26,2.83.35,4.22s.25,2.82.43,4.2-.12,2.9.14,4.27.63,2.78,1,4.14,1.72,2.43,2.15,3.76.89,2.64,1.41,3.95.81,2.69,1.41,4,.91,2.69,1.59,3.92,1,2.7,1.76,3.88,2.53,1.69,3.35,2.82.78,3,1.67,4.05,2.13,1.9,3.1,2.92,2.45,1.51,3.48,2.48,1.49,2.54,2.57,3.44,2.43,1.48,3.57,2.3,2,2,3.21,2.81,2.59,1.19,3.82,1.87,2.44,1.44,3.71,2,2.5,1.36,3.81,1.88,2.94.14,4.28.58,2.63.9,4,1.25,2.59,1.28,4,1.55,2.82.22,4.22.4,2.82-.15,4.23-.06,2.78,0,4.2,0,2.8.24,4.2.15,2.88.44,4.27.26,2.72-.93,4.09-1.19,2.7-.8,4.05-1.15,2.87-.21,4.2-.64,2.73-.79,4-1.31,2.52-1.3,3.79-1.9,2.42-1.44,3.65-2.11,2.41-1.44,3.6-2.19,2.32-1.57,3.46-2.39,2.17-1.77,3.25-2.66,2.34-1.6,3.36-2.56,1.57-2.39,2.53-3.41,2.88-1.21,3.78-2.3,1.11-2.71,1.94-3.85,2.19-1.93,2.94-3.12,1.59-2.36,2.27-3.6.37-3,1-4.25,2.13-2.15,2.65-3.46.86-2.71,1.3-4.05.66-2.76,1-4.12.2-2.84.46-4.23,0-2.81.21-4.21,1.13-2.7,1.21-4.12.31-2.81.31-4.23-.37-2.82-.46-4.22.25-2.88.08-4.26-1.62-2.6-1.88-4,.69-3,.34-4.4-1.11-2.64-1.54-4-1.53-2.44-2-3.74-.64-2.78-1.24-4-1.55-2.36-2.23-3.59-1.24-2.52-2-3.7-1.33-2.5-2.16-3.63-2.23-1.81-3.13-2.89-1.46-2.44-2.43-3.46-2.13-1.83-3.15-2.79-1.87-2.11-2.95-3-2-2.08-3.09-2.91-2.71-1-3.9-1.77-2-2.19-3.21-2.87-2.66-1-3.94-1.58-2.46-1.42-3.77-1.94-2.65-1-4-1.42-2.76-.61-4.13-1-2.67-1-4.06-1.24-2.81-.35-4.21-.52-2.82,0-4.24-.13-2.8-.62-4.21-.62-2.84.34-4.23.42-2.78.66-4.16.83-2.85.06-4.22.32-2.91,0-4.26.39-2.35,2-3.68,2.45-2.94.1-4.25.62-2.57,1.17-3.84,1.77-2.58,1.14-3.81,1.82-2.69,1-3.87,1.79-1.68,2.54-2.82,3.37-2.16,1.74-3.24,2.64-2.62,1.25-3.65,2.22-2.28,1.72-3.24,2.74-2.11,1.93-3,3-1.77,2.24-2.6,3.38-.57,3-1.32,4.2-2.3,1.9-3,3.14-1.52,2.41-2.12,3.68-1.06,2.64-1.58,4,.06,3-.38,4.34-1.93,2.36-2.28,3.73-.61,2.77-.88,4.16-.07,2.84-.25,4.24-.42,2.78-.51,4.2S815.16,224.5,815.16,225.91Z"/><path class="cls-4" d="M962,177.28c0,2.09-.86,2.09-.86,4.18s0,2.09,0,4.17.77,2.09.77,4.18-.49,2.09-.49,4.17-.18,2.09-.18,4.18.23,2.08.23,4.17-.5,2.09-.5,4.18.39,2.08.39,4.17.54,2.09.54,4.18-1,2.09-1,4.17,1,2.09,1,4.18-.1,2.09-.1,4.17.29,2.09.29,4.18-.71,2.09-.71,4.17.27,2.09.27,4.18.49,2.09.49,4.17,0,2.09,0,4.18-.13,2.09-.13,4.18-.07,2.08-.07,4.17-.51,2.09-.51,4.17-.65,2.09-.65,4.18,1.13,2.08,1.13,4.17.29,2.08.29,4.17-.7,2.08-.7,4.17-.05,2.09-.05,4.17-.28,2.09-.28,4.18,0,2.09,0,4.17-.09,2.09-.09,4.17,1,2.09,1,4.17-1.13,2.09-1.13,4.18,1.23,2.08,1.23,4.17-1.36,2.09-1.36,4.18.74,2.09.74,4.17.55,2.09.55,4.18-.41,2.09-.41,4.17-.73,2.09-.73,4.18,1.15,2.09,1.15,4.18-.42,2.09-.42,4.17-.79,2.09-.79,4.18.52,2.09.52,4.18-.35,2.08-.35,4.17-.19,2.09-.19,4.18.56,2.09.56,4.18-.58,2.09-.58,4.17-.07,2.09-.07,4.18.16,2.09.16,4.18,1,2.09,1,4.18-.43,2.09-.43,4.18-.28,2.09-.28,4.18.72,2.08.72,4.17-.12,2.09-.12,4.18-.61,2.09-.61,4.17-.36,2.09-.36,4.18.2,2.09.2,4.18.3,2.09.3,4.18.68,2.09.68,4.18-1,2.09-1,4.18.09,2.09.09,4.18.15,2.09.15,4.18-.26,2.09-.26,4.18,1,2.09,1,4.18-.39,2.09-.39,4.18-.12,2.09-.12,4.18-.14,2.1-.14,4.19.84,2.09.84,4.19"/><path class="cls-4" d="M961.56,226c1.5-1.55,1.05-2,2.56-3.55s1.59-1.47,3.1-3,2-1,3.55-2.59,1.72-1.35,3.22-2.91.72-2.32,2.22-3.88,2-1.12,3.47-2.67,1-2.06,2.5-3.62,1.73-1.33,3.24-2.89,1.75-1.33,3.26-2.89,1.24-1.82,2.75-3.38"/><path class="cls-4" d="M882.56,448.75c0-2.09.4-2.09.4-4.18s-.49-2.09-.49-4.18.44-2.09.44-4.18-.29-2.09-.29-4.17.24-2.09.24-4.18-.13-2.09-.13-4.18.16-2.09.16-4.18-.18-2.09-.18-4.18.2-2.09.2-4.18-.34-2.08-.34-4.17-.42-2.09-.42-4.18,1.06-2.08,1.06-4.17-1.31-2.09-1.31-4.17,1-2.09,1-4.18-.6-2.08-.6-4.17.39-2.09.39-4.18-.08-2.09-.08-4.18.2-2.09.2-4.17-.86-2.09-.86-4.18.06-2.09.06-4.18,1.07-2.09,1.07-4.17.21-2.09.21-4.18-.38-2.09-.38-4.18.25-2.09.25-4.18.11-2.09.11-4.18-.25-2.09-.25-4.17-.87-2.09-.87-4.18.21-2.09.21-4.18-.06-2.09-.06-4.18.66-2.09.66-4.18-.57-2.09-.57-4.18.33-2.09.33-4.18.28-2.09.28-4.18-.51-2.09-.51-4.18,0-2.09,0-4.18.24-2.09.24-4.18-.65-2.09-.65-4.18.55-2.09.55-4.18-.61-2.09-.61-4.18.92-2.09.92-4.19-.46-2.09-.46-4.18.58-2.09.58-4.18,0-2.09,0-4.18-1-2.08-1-4.18,0-2.09,0-4.18,1-2.09,1-4.18-.39-2.09-.39-4.18-.35-2.09-.35-4.18,1-2.09,1-4.18-.6-2.09-.6-4.19.29-2.09.29-4.18-.64-2.09-.64-4.19-.31-2.09-.31-4.18.22-2.09.22-4.19-.33-2.09-.33-4.19.23-2.09.23-4.19"/><path class="cls-2" d="M346.13,181.27c0,1.41-.36,2.82-.44,4.22s-.34,2.8-.51,4.19-.27,2.81-.53,4.18-1.13,2.63-1.47,4,.31,3-.12,4.37-1.48,2.48-2,3.78-1.45,2.43-2,3.69-1,2.64-1.67,3.87-.87,2.77-1.62,3.95-1.67,2.31-2.49,3.44-2.29,1.79-3.19,2.87-2,1.92-3,2.95-1.18,2.79-2.2,3.75-2.51,1.42-3.59,2.32-1.76,2.33-2.9,3.15-2.49,1.37-3.68,2.13-2.57,1.18-3.8,1.86-2.32,1.65-3.59,2.25-2.77.67-4.08,1.19-2.63.91-4,1.34-2.63,1-4,1.31-2.76.42-4.15.68-2.64,1.23-4,1.41-2.78.69-4.19.78-2.85.06-4.26.06-2.86-.09-4.25-.18-2.74-1.08-4.13-1.25-2.77-.4-4.14-.66-2.93.18-4.29-.17-2.6-1.22-3.93-1.65-2.6-1.07-3.9-1.59-2.69-.87-4-1.46-2.29-1.68-3.52-2.36-2.63-1-3.81-1.8-2.67-1.11-3.8-1.94-1.66-2.44-2.74-3.34-2.78-1.1-3.8-2.06-2-2.05-2.93-3.07-2.13-1.91-3-3-1.21-2.64-2-3.78-1.84-2.15-2.6-3.34-1.9-2.17-2.58-3.4-1.3-2.54-1.9-3.81-1-2.64-1.57-4-.93-2.67-1.37-4-.35-2.83-.7-4.2,0-2.85-.27-4.23-1.59-2.58-1.76-4-.61-2.8-.7-4.21.57-2.85.57-4.26.1-2.82.19-4.22.5-2.77.67-4.16.35-2.78.61-4.15.65-2.72,1-4.08-.19-3,.25-4.32,2-2.29,2.49-3.59,0-3.1.54-4.37,2.46-1.91,3.14-3.13.74-2.81,1.5-4,1.1-2.68,1.93-3.81,2-2,2.93-3.1,2.37-1.65,3.33-2.67,1.15-2.84,2.17-3.8,2.38-1.6,3.47-2.49,2.66-1.13,3.8-2,2-2,3.18-2.79,2.56-1.16,3.79-1.84,2.54-1.14,3.81-1.74,2.32-1.67,3.63-2.19,2.81-.43,4.15-.87,2.66-.74,4-1.09,2.66-.8,4-1.06,2.6-1.45,4-1.62,2.84.12,4.25,0,2.8.15,4.22.15,2.85-.67,4.24-.58,2.83.33,4.22.51,2.7,1,4.07,1.26,2.66.92,4,1.26,2.74.54,4.08,1,2.74.63,4.05,1.14,2.88.47,4.15,1.06,2.09,2.11,3.32,2.79,2.46,1.31,3.65,2.06,2.42,1.42,3.56,2.24,2.07,1.89,3.15,2.78,2.77,1.12,3.79,2.08,1.76,2.24,2.73,3.27,1.8,2.16,2.7,3.24,1.65,2.28,2.48,3.41,2.31,1.85,3.07,3,.33,3.07,1,4.3,2,2.1,2.64,3.37,1.45,2.46,2,3.77.82,2.71,1.25,4,.67,2.75,1,4.12,0,2.86.26,4.25.95,2.67,1.12,4.07.24,2.79.33,4.2S346.13,179.85,346.13,181.27Z"/><path class="cls-4" d="M278.61,376.92c0-2.08.4-2.08.4-4.16s-.49-2.08-.49-4.16.44-2.08.44-4.15-.29-2.08-.29-4.16.24-2.08.24-4.16-.13-2.08-.13-4.16.16-2.08.16-4.16-.18-2.08-.18-4.16.2-2.08.2-4.16-.33-2.08-.33-4.16-.43-2.08-.43-4.16,1.06-2.08,1.06-4.16-1.3-2.08-1.3-4.16,1-2.08,1-4.16-.6-2.08-.6-4.16.38-2.08.38-4.16-.08-2.08-.08-4.16.2-2.08.2-4.17S278,300,278,297.88s.07-2.08.07-4.16,1.06-2.08,1.06-4.16.21-2.08.21-4.17-.38-2.08-.38-4.16.25-2.08.25-4.16.12-2.08.12-4.16-.26-2.08-.26-4.16-.87-2.09-.87-4.17.21-2.08.21-4.16-.06-2.08-.06-4.16.66-2.09.66-4.17-.57-2.08-.57-4.16.33-2.09.33-4.17.28-2.08.28-4.16-.51-2.08-.51-4.16,0-2.08,0-4.16.24-2.09.24-4.17-.65-2.08-.65-4.16.55-2.09.55-4.17-.61-2.08-.61-4.16.92-2.08.92-4.17-.46-2.08-.46-4.16.58-2.09.58-4.17,0-2.09,0-4.17-1-2.08-1-4.16,0-2.09,0-4.17,1-2.09,1-4.18-.39-2.08-.39-4.17"/><path class="cls-3" d="M268.86,225.91c0,1.42,1.13,2.86,1,4.26s-.15,2.86-.33,4.25-1.5,2.62-1.76,4,0,2.87-.37,4.23-.84,2.7-1.27,4-.53,2.82-1,4.12-.87,2.73-1.47,4-2.05,2.14-2.73,3.37-1.59,2.3-2.35,3.48-1.43,2.4-2.25,3.54-1.85,2.09-2.75,3.17-1.47,2.43-2.43,3.46-1.47,2.54-2.49,3.5-2.39,1.59-3.47,2.48-2.56,1.28-3.7,2.11-2.42,1.38-3.61,2.13-2.12,1.89-3.35,2.57-2.48,1.3-3.76,1.9-2.6,1-3.91,1.53-2.63.92-4,1.35-2.66.81-4,1.16-2.71.59-4.1.85-2.65,1.16-4,1.34-2.85-.47-4.27-.38-2.76.39-4.18.39-2.85.73-4.24.65-2.79-.72-4.17-.9-2.74-.68-4.11-.94-2.83-.22-4.19-.57-2.88-.25-4.21-.69-2.65-1.06-4-1.58-2.55-1.25-3.82-1.85-2.15-1.94-3.38-2.62-2.78-.81-4-1.56-2-2-3.19-2.8-2.67-1.13-3.75-2-1.8-2.22-2.82-3.18-1.91-2-2.87-3.07-1.67-2.24-2.57-3.32-1.95-2-2.78-3.14-2.18-1.91-2.94-3.1-1.34-2.49-2-3.72-.59-2.84-1.19-4.11-1.89-2.23-2.41-3.54-.71-2.72-1.14-4.07-1.64-2.46-2-3.83-.28-2.84-.54-4.23-.07-2.83-.25-4.24-.63-2.76-.71-4.17-.57-2.81-.57-4.23.06-2.86.15-4.25.38-2.83.55-4.22.77-2.75,1-4.13.52-2.78.87-4.13,1.13-2.6,1.57-3.93.8-2.7,1.32-4,.8-2.72,1.4-4,1.12-2.6,1.8-3.83,2.19-2,2.94-3.14.95-2.74,1.78-3.88,2.15-1.87,3-2.95.89-3,1.85-4,2.06-2,3.09-2.93,2.29-1.7,3.37-2.6,2.28-1.68,3.42-2.5,2.7-1,3.89-1.77,2.32-1.53,3.56-2.21,2.5-1.21,3.77-1.81,2.16-2.07,3.47-2.59,3-.08,4.3-.51,2.41-1.78,3.77-2.13,2.92.16,4.31-.1,2.78-.12,4.18-.3,2.74-.4,4.15-.49,2.77-1.38,4.18-1.38,2.79,1.32,4.18,1.4,2.84-.27,4.22-.1,2.93-.36,4.31-.1,2.8.54,4.16.89,2.36,2,3.69,2.42,2.86.33,4.16.84,2.43,1.45,3.69,2,2.56,1.14,3.79,1.81,2.22,1.72,3.4,2.47,3.09.46,4.23,1.28,1.61,2.52,2.69,3.42,2.81,1.07,3.84,2,1.76,2.25,2.72,3.28,1.8,2.17,2.7,3.26,1.92,2.08,2.75,3.21,2,2.08,2.74,3.27.3,3.1,1,4.33,2,2.1,2.62,3.37,1.4,2.47,1.92,3.78.71,2.75,1.14,4.09.21,2.85.56,4.21,1.79,2.48,2.05,3.87.23,2.83.41,4.24,0,2.82.12,4.23S268.86,224.5,268.86,225.91Z"/><path class="cls-2" d="M601.67,427.09c-1.54-1.38-2.3.38-4.37.38s-2.06-.25-4.13-.25-2.06-.12-4.13-.12-2.06-.36-4.13-.36-2.06.45-4.13.45-2.06,0-4.13,0-2.06.32-4.13.32-2.06.47-4.13.47-2.06-.76-4.13-.76-2.07.67-4.13.67-2.07-.31-4.13-.31-2.07.22-4.13.22-2.07-.95-4.14-.95-2.06.5-4.13.5-2.06-.42-4.13-.42-2.06-.17-4.13-.17-2.06,1-4.13,1h-4.13c-2.07,0-2.07-.26-4.13-.26s-2.07.43-4.13.43-2.07-.58-4.14-.58-2.06,0-4.13,0-2.07-.5-4.13-.5-2.07-.14-4.14-.14-2.07.3-4.13.3-2.07-.12-4.14-.12-2.07.44-4.13.44-2.07-.24-4.14-.24-3-1.46-4.17.22.21,2.07,1,3.84.82,1.75,1.63,3.52,1.92,1.26,2.72,3,0,2.15.77,3.92.9,1.72,1.71,3.49,1.35,1.53,2.16,3.3-.23,2.41,1,3.92,1.8,1.22,3.47,2.49,2.1.69,3.77,2,.95,2.21,2.61,3.47,2.5.17,4.17,1.43,1,2.09,2.72,3.35,2,.81,3.68,2.08,1.76,1.14,3.43,2.41,1.56,1.4,3.22,2.67,1.5,1.5,3.16,2.77,1.69,1.25,3.35,2.52,2.09.71,3.76,2,1.37,1.66,3,2.93,1.49,1.5,3.16,2.76,1.89,1,3.56,2.25,1.17,1.91,2.84,3.18,2.1.71,3.77,2,1.36,1.67,3,2.94,1.55,1.43,3.22,2.71,1.59,2.28,3.68,2.06,1.87-1.11,3.21-2.69.37-2.41,1.72-4,2.23-.84,3.58-2.42.87-2,2.21-3.58,1.89-1.12,3.23-2.71,1.07-1.82,2.42-3.41,1.38-1.55,2.73-3.14,1.18-1.72,2.53-3.31.71-2.12,2.06-3.71,1.67-1.32,3-2.9,1-1.86,2.38-3.45,1.93-1.09,3.27-2.68,1.43-1.51,2.78-3.1,1.14-1.77,2.48-3.35,1.92-1.11,3.26-2.7.57-2.26,1.92-3.85,2.67-.82,3.4-2.77c.66-1.79-.17-2.06-.23-4s.06-1.9,0-3.81-.21-1.9-.27-3.8-.82-2-.42-3.81C602,429,603.09,428.37,601.67,427.09Z"/><path class="cls-2" d="M101.13,427.24c1.47-1.47,2.2-.49,4.28-.49s2.08.35,4.16.35,2.09.54,4.17.54,2.09-.87,4.17-.87,2.08.84,4.17.84,2.08-.09,4.16-.09,2.09-.41,4.17-.41,2.08.41,4.17.41,2.08-.41,4.17-.41,2.08.06,4.17.06,2.08.76,4.16.76,2.09-.33,4.17-.33,2.09-.23,4.17-.23,2.09.08,4.17.08,2.09.19,4.17.19,2.09.36,4.17.36,2.09-.32,4.17-.32,2.09-.37,4.17-.37,2.09-.66,4.17-.66,2.09.12,4.17.12,2.09.08,4.17.08,2.09,1.23,4.17,1.23,2.09-1.19,4.17-1.19,2.09-.13,4.17-.13,2.09,1.28,4.17,1.28,2.09-1.25,4.17-1.25,2.08.7,4.17.7,2.09-.4,4.17-.4,2.09.11,4.17.11,2.09-.18,4.17-.18,2.09.17,4.18.17,2.08.78,4.17.78,2.09-.51,4.17-.51,2.09-.17,4.17-.17,2.09.42,4.18.42,2.09.12,4.17.12,2.09-.65,4.18-.65,2.14-.29,4.11.38c2.13.72.61,1.44,1.6,4,.47,1.2.5,2.82,1.13,4.38.52,1.29,1.94,2.34,2.55,3.8s1.12,2.72,1.73,4.13,1.17,2.74,1.8,4.1.49,3.11,1.14,4.44,2.13,1.86,2.86,2.87,1.14,2.55,2.05,3.41,2.38,1.28,3.45,2a21.66,21.66,0,0,0,3.42,1.81c1.25.52,2.26,1.75,3.49,2a31.54,31.54,0,0,0,3.94.67c1.43.15,2.82-.44,4-.44,1.41,0,3,.38,4.46-.07s2.22-2.05,3.54-2.78,2.87-.8,4.06-1.69,1.72-2.43,2.82-3.41,2.34-1.71,3.35-2.75,2.33-1.82,3.27-2.9,2-2.18,2.89-3.27,1.53-2.62,2.32-3.72c.95-1.33,1.41-2.79,2.07-3.82.76-1.2,2-2.06,2.68-3.2s1.29-2.51,1.94-3.66,1.48-2.43,2.08-3.58c.69-1.32.68-2.87,1.23-4,.69-1.42,1.71-2.47,2.18-3.53,1.07-2.4,1.18-5.86,2.1-4s.26,2.35.73,4.53.64,2.14,1.11,4.31.17,2.24.64,4.41-.23,2.33.24,4.51.69,2.12,1.16,4.3.79,2.11,1.26,4.29,1.89,2.19,1.63,4.41-2.08.42-4.57,1.5a39.41,39.41,0,0,0-4.09,1.35c-1.15.6-1.83,2.29-3.15,3.08-1.14.7-2.66.94-3.9,1.79s-2.08,1.84-3.25,2.75-2.07,1.85-3.18,2.82-2,2-3,3-2.31,1.63-3.3,2.71-2.31,1.72-3.24,2.84-1.13,2.69-2,3.87-1.84,2.13-2.64,3.35-1.72,2.22-2.45,3.36-1.31,2.48-2,3.63-1.87,2.14-2.56,3.3-.85,2.75-1.52,3.92-1.22,2.51-1.87,3.7-1.19,2.51-1.81,3.71-1.72,2.26-2.31,3.47-.83,2.69-1.4,3.92-1.35,2.43-1.89,3.68-1.23,2.49-1.75,3.76-1.84,2.25-2.33,3.54-.34,2.82-.81,4.12-1.58,2.37-2,3.68-.85,2.63-1.28,3.95-.22,2.84-.64,4.17c-2,.59-2.11.33-4.21.33s-2.11-.91-4.21-.91-2.1.34-4.19.35-2.1.69-4.21.69-2.09.25-4.19.26-2.11-1.22-4.21-1.21-2.1,1-4.2,1-2.1-.3-4.2-.3-2.11-.88-4.21-.88-2.1.56-4.2.57-2.11-.61-4.21-.61-2.1.56-4.2.56-2.1.29-4.21.29-2.1-.72-4.2-.72-2.11.06-4.22.06-2.1,0-4.21,0-2.09,1.07-4.18,1.09-2.11-1-4.2-1-2.09.87-4.19.89-2.09-.21-4.19-.19-2.1-.29-4.19-.27h-4.2c-2.09,0-2.1-.3-4.19-.28s-2.09,1.12-4.18,1.14-2.11-1.12-4.21-1.11-2.09.66-4.18.68-2.09.7-4.19.72-2.1-.83-4.2-.81-2.09.63-4.18.65-2.11-.64-4.2-.63-2.1-.41-4.2-.39-2.09.82-4.18.84-2.1.21-4.19.23-2.1-.67-4.2-.65-2.09,1-4.19,1-2.1-.67-4.2-.65-2.1,0-4.2,0-2.09.64-4.18.66l-4.2,0c-2.1,0-2.11-1.14-4.21-1.13s-2.1.1-4.2.12-2.37,1.69-3.88.23,0-1.75,0-3.82,0-2.07,0-4.14-.36-2.07-.36-4.14.39-2.07.39-4.14-.41-2.07-.41-4.14-.43-2.07-.43-4.14-.13-2.07-.13-4.14.59-2.07.59-4.14.12-2.07.12-4.14-.32-2.07-.32-4.14-.23-2.07-.23-4.14,1.14-2.08,1.14-4.15-.09-2.07-.09-4.13,0-2.07,0-4.14S100.6,475,100.6,473s.75-2.07.75-4.15.35-2.07.35-4.14-.66-2.07-.66-4.14-.4-2.07-.4-4.14.31-2.07.31-4.15.39-2.07.39-4.14-.5-2.07-.5-4.14.53-2.07.53-4.15.07-2.07.07-4.14a12.26,12.26,0,0,0-.57-4.07C100.36,429.37,99.66,428.7,101.13,427.24Z"/><path class="cls-2" d="M210.35,178.3c0,1.39,0,2.8-.12,4.17s-.4,2.77-.55,4.14-.05,2.81-.27,4.18-1.06,2.63-1.35,4-.07,2.84-.42,4.18-1,2.6-1.45,3.92-.45,2.8-.94,4.09-1.85,2.25-2.42,3.51-.83,2.68-1.46,3.91-1.25,2.48-2,3.68-1.1,2.59-1.86,3.75-2.24,1.83-3.05,3-1.12,2.64-2,3.72-1.88,2.06-2.81,3.09-2,2-2.93,3-1.8,2.15-2.83,3.08-2.67,1.14-3.74,2-1.47,2.65-2.59,3.46-2.42,1.42-3.59,2.18-2.71.88-3.91,1.58-2.29,1.58-3.52,2.21-2.57,1-3.84,1.61-2.36,1.53-3.66,2-2.52,1.24-3.84,1.67-2.91-.06-4.26.3-2.45,1.65-3.82,1.94-2.84-.05-4.21.17-2.81-.3-4.2-.15-2.69.67-4.09.74-2.75,0-4.14,0-2.65.12-4,.06-2.65-.08-4-.21-2.73.38-4,.18-2.52-1.06-3.82-1.32-2.68-.19-4-.51-2.58-.67-3.84-1.06-2.46-1-3.7-1.48-1.79-1.26-3-1.78a10.49,10.49,0,0,1-.66-4c0-2.08.5-2.08.48-4.16s-.81-2.07-.83-4.15.4-2.09.38-4.17.06-2.07,0-4.15.12-2.09.1-4.17-.42-2.07-.45-4.15-.37-2.07-.39-4.15-.11-2.08-.14-4.16-.13-2.08-.15-4.16,0-2.08-.07-4.16,1-2.09,1-4.17.18-2.08.15-4.17-.35-2.07-.37-4.15-.16-2.08-.18-4.16-.39-2.08-.42-4.15.29-2.09.27-4.17-.64-2.07-.66-4.15,1-2.1,1-4.18-.5-2.07-.52-4.15.41-2.09.39-4.17-.86-2.07-.88-4.15-.13-2.07-.15-4.15l0-4.16c0-2.09.57-2.09.55-4.17s.32-2.09.3-4.17-1-2.07-1-4.15-.27-2.08-.29-4.16.89-2.09.86-4.17.11-2.09.09-4.17.13-2.08.11-4.16.13-2.09.11-4.17-.24-2.08-.26-4.16-1.14-2.07-1.16-4.16a11.23,11.23,0,0,1,.35-4.25c1.27-.57,3-.63,4.3-1.13s2.45-1.4,3.77-1.83,2.68-.74,4-1.1,2.59-1.17,4-1.46,2.74-.53,4.13-.75,2.78-.24,4.17-.38,2.79-.1,4.19-.17,2.78-.69,4.18-.69,2.79.36,4.17.44,2.69,1.12,4.07,1.26,2.71.4,4.08.62,2.69.49,4,.77,2.75.32,4.08.68,2.89,0,4.21.44,2.58,1.06,3.87,1.56,2.7.77,4,1.34,2.08,2.09,3.31,2.72,3,.22,4.24.91,1.79,2.39,3,3.14,2.52,1.2,3.64,2,2.26,1.62,3.33,2.49,2.27,1.62,3.3,2.55,2,1.92,3,2.9,2.17,1.78,3.1,2.81,1.39,2.47,2.26,3.55,1.34,2.43,2.16,3.55,2.58,1.59,3.34,2.75.71,2.83,1.4,4,1.15,2.5,1.78,3.74,2.08,2.07,2.65,3.34.36,2.85.86,4.14,1.78,2.31,2.21,3.63.14,2.86.5,4.2,1.26,2.55,1.55,3.91.59,2.72.81,4.1.56,2.74.7,4.12-.44,2.82-.36,4.21S210.35,176.9,210.35,178.3Z"/><path class="cls-5" d="M444.06,31.79c2.07,0,2.07.79,4.14.79s2.07-.44,4.14-.44,2.07.5,4.14.5,2.07-.71,4.14-.71,2.07-.39,4.14-.39,2.07,1.15,4.14,1.15,2.06,0,4.13,0h4.14c2.07,0,2.07-.35,4.14-.35s2.07-.05,4.14-.05,2.07-.73,4.13-.73,2.07-.26,4.14-.26,2.07,1.08,4.14,1.08,2.07-.21,4.14-.21,2.07-.37,4.14-.37,2.07.24,4.14.24,2.07.06,4.14.06,2.07.24,4.14.24,2.08-.16,4.15-.16,2.07-.06,4.14-.06,2.07-.22,4.14-.22,2.07.7,4.14.7,2.07-.35,4.14-.35,2.07-.23,4.14-.23,2.07.51,4.14.51,2.07-.65,4.13-.65,2.07.38,4.14.38,2.07-.1,4.14-.1,2.07-.86,4.14-.86,2.07,1,4.14,1,2.07-.48,4.14-.48,2.08-.48,4.15-.48,2.07,1.23,4.14,1.23,2.07-1.17,4.14-1.17,2.07,1.27,4.14,1.27,2.07-.59,4.15-.59,2.07-.32,4.14-.32,2.07-.34,4.14-.34,2.06,1.15,4.13,1.15,2.07-.62,4.14-.62,2.07-.54,4.14-.54,2.07.63,4.15.63h4.14c2.07,0,2.07.24,4.14.24s2.07-.91,4.14-.91,2.08,1.21,4.15,1.21,2.07-.29,4.14-.29,2.07-.54,4.14-.54,2.07,0,4.14,0,2.07-.21,4.14-.21,2.07,1.08,4.14,1.08,2.07-.91,4.14-.91,2.07.14,4.14.14,2.08.35,4.15.35,2.07-.23,4.14-.23,2.07.48,4.14.48,2.07-1.13,4.15-1.13,2.07,1,4.14,1,2.07-.77,4.14-.77,2.07-.05,4.14-.05,2.07.65,4.14.65,2.07.19,4.14.19,2.08.3,4.15.3,2.07-.75,4.14-.75,2.07-.17,4.14-.17,2.08-.29,4.15-.29,2.07,1,4.14,1,2.07-.21,4.14-.21,2.07-.07,4.14-.07,2.07-.44,4.15-.44,2.07.7,4.14.7,2.07-.78,4.14-.78,2.07.75,4.15.75,2.07.2,4.14.2,2.07-.84,4.14-.84,2.07.92,4.14.92,2.08-1.09,4.15-1.09,2.07-.17,4.14-.17,2.07.19,4.14.19,2.08.16,4.15.16,2.07-.05,4.14-.05,2.07,1,4.15,1,2.07-1.22,4.14-1.22,2.07,1,4.14,1,2.07-.66,4.14-.66,2.08.84,4.15.84,2.07-.44,4.14-.44,2.07,0,4.14,0,2.07.11,4.14.11,2.07-.15,4.14-.15,2.07.21,4.14.21,2.07-.26,4.14-.26,2.07-.45,4.14-.45,2.08.45,4.15.45,2.07-.84,4.14-.84,2.07.59,4.14.59,2.07.07,4.14.07,2.07-.42,4.14-.42,2.08.53,4.15.53,2.07.26,4.14.26,2.07-.5,4.14-.5,2.07.7,4.15.7,2.07-.94,4.14-.94,2.07.52,4.15.52,2.07.19,4.14.19,2.07-.14,4.14-.14,2.08-.14,4.15-.14,2.07,0,4.14,0,2.07-.65,4.15-.65,2.07.06,4.14.06,2.07.06,4.15.06,2.07,1,4.14,1,2.08-.1,4.15-.1,2.07.19,4.15.19,2.07-.28,4.14-.28,2.07-.51,4.15-.51,2.07.2,4.14.2,2.08-.44,4.15-.44,2.07,1,4.15,1,2.07-.78,4.14-.78,2.07.21,4.14.21,2.08.49,4.15.49,2.07-.72,4.15-.72,2.07.11,4.14.11,2.07-.16,4.15-.16,2.07.88,4.15.88,2.07-.53,4.15-.53,2.07.58,4.15.58,2.07-.22,4.14-.22,2.08-.4,4.15-.4,2.08-.45,4.16-.45,2.07.1,4.15.1,2.08.61,4.16.61"/><path class="cls-5" d="M93.4,32.7c2.09,0,2.09-.77,4.18-.77s2.09,0,4.18,0h4.18c2.09,0,2.09.61,4.18.61s2.08.08,4.17.08,2.09-.14,4.18-.14,2.09.23,4.18.23,2.09-1.23,4.18-1.23,2.09.74,4.18.74,2.09-.81,4.18-.81,2.09.79,4.18.79,2.09-.17,4.18-.17,2.09-.27,4.18-.27,2.08,0,4.17,0,2.1.52,4.19.52,2.09.31,4.18.31,2.08-1.06,4.17-1.06,2.09.21,4.18.21,2.09-.32,4.18-.32,2.09.38,4.18.38,2.09-.3,4.18-.3,2.09.94,4.18.94,2.09-.86,4.18-.86,2.09.08,4.18.08,2.09-.17,4.18-.17,2.09,1.16,4.18,1.16,2.09-1.19,4.18-1.19,2.09.54,4.18.54,2.09.33,4.18.33,2.09.11,4.18.11,2.09-.22,4.18-.22,2.09-.31,4.18-.31,2.09.55,4.18.55,2.09.14,4.17.14,2.09-1.16,4.18-1.16,2.09.63,4.17.63,2.09.35,4.18.35,2.09-.76,4.18-.76,2.09,0,4.18,0,2.09.45,4.18.45,2.09-.25,4.18-.25,2.09.12,4.17.12,2.09.12,4.18.12,2.09-.77,4.18-.77,2.1.34,4.19.34,2.08.68,4.17.68,2.09.17,4.18.17,2.09,0,4.18,0,2.09-.06,4.19-.06,2.09,0,4.18,0,2.09.11,4.18.11,2.09-1,4.18-1,2.09-.31,4.18-.31,2.09.32,4.18.32,2.09.95,4.18.95,2.09.05,4.18.05,2.09-1,4.18-1,2.1.77,4.19.77,2.09-1.08,4.18-1.08,2.09,1.42,4.18,1.42,2.09-1.38,4.18-1.38,2.1,0,4.19,0,2.09.78,4.18.78,2.09-.25,4.18-.25,2.09-.29,4.18-.29,2.09-.23,4.19-.23,2.09,1,4.18,1,2.09-.35,4.18-.35,2.09-.59,4.18-.59S383.9,32,386,32s2.09.77,4.18.77,2.09-.69,4.19-.69,2.09.06,4.18.06,2.1-.5,4.19-.5,2.09.56,4.18.56,2.1-.71,4.19-.71,2.1,1.26,4.19,1.26,2.1-.82,4.19-.82"/><path class="cls-6" d="M88.7,242.66c0-2.08-.46-2.08-.46-4.17s1-2.08,1-4.17S88,232.24,88,230.16s.77-2.09.77-4.17.45-2.08.45-4.17-.56-2.08-.56-4.17-.66-2.08-.66-4.16.81-2.09.81-4.17-.46-2.09-.46-4.17S88,203.07,88,201s1-2.08,1-4.17,0-2.08,0-4.16-1-2.08-1-4.16.29-2.08.29-4.17-.25-2.08-.25-4.16.05-2.08.05-4.16.83-2.09.83-4.17.36-2.08.36-4.17-.79-2.08-.79-4.17.79-2.08.79-4.16-.53-2.08-.53-4.17.08-2.08.08-4.16,0-2.09,0-4.17.09-2.09.09-4.17-.45-2.08-.45-4.17.54-2.08.54-4.16-.69-2.09-.69-4.17.27-2.09.27-4.17-.27-2.08-.27-4.17,0-2.08,0-4.16,1.06-2.09,1.06-4.17-.31-2.09-.31-4.17-.66-2.09-.66-4.17.94-2.09.94-4.17-.14-2.09-.14-4.17-.92-2.08-.92-4.17.1-2.09.1-4.17-.19-2.09-.19-4.17.58-2.09.58-4.17.3-2.09.3-4.17-.64-2.09-.64-4.18.77-2.08.77-4.17-.72-2.08-.72-4.17.08-2.08.08-4.17S89,57.18,89,55.1s-.67-2.08-.67-4.17,0-2.08,0-4.17,1-2.08,1-4.17-1.08-2.08-1.08-4.17.83-2.09.83-4.17-.92-2.09-.92-4.18S89,28,89,25.9s-.6-2.09-.6-4.17.23-2.09.23-4.18-.21-2.08-.21-4.17.09-2.09.09-4.18-1.44-2.89,0-4.38,2.27,0,4.34,0,2.08.78,4.15.78,2.08-.4,4.15-.4,2.07.09,4.15.09,2.07.21,4.14.21,2.08-.62,4.15-.62,2.07,0,4.15,0,2.07,0,4.15,0S124,5,126,5s2.08.6,4.15.6,2.08-.23,4.15-.23,2.07-.8,4.15-.8,2.07.76,4.15.76S144.71,5,146.78,5s2.08,0,4.15,0,2.08-.7,4.15-.7,2.08.49,4.16.49,2.07.75,4.15.75,2.07-.35,4.15-.35,2.07-.08,4.14-.08,2.08-.22,4.15-.22,2.08-.08,4.15-.08,2.08.46,4.15.46,2.07-.9,4.15-.9,2.07.16,4.15.16,2.07-.18,4.15-.18,2.07,1,4.15,1,2.07-.4,4.15-.4S207,4.37,209,4.37s2.08.5,4.15.5,2.08.46,4.15.46,2.08.33,4.16.33,2.07,0,4.15,0,2.07-.27,4.15-.27,2.07-.52,4.14-.52,2.08-.23,4.15-.23,2.08-.09,4.15-.09,2.08,1.11,4.15,1.11S248.46,5,250.53,5s2.08.67,4.15.67,2.08,0,4.16,0,2.07-1,4.15-1,2.08-.25,4.15-.25,2.08,1.07,4.15,1.07,2.08-.86,4.15-.86,2.08.41,4.15.41,2.08.63,4.15.63,2.08,0,4.16,0S290,4.4,292.05,4.4s2.07,1.12,4.15,1.12,2.07-1,4.15-1,2.08.25,4.15.25,2.08.69,4.16.69,2.07-1.05,4.15-1.05H317c2.07,0,2.07.89,4.15.89s2.08-.22,4.15-.22,2.08.66,4.15.66S331.49,5,333.56,5s2.08-.51,4.16-.51,2.07.23,4.15.23,2.08,0,4.15,0,2.08-.37,4.15-.37,2.08.42,4.16.42,2.07.29,4.15.29,2.07.31,4.15.31,2.08-.55,4.15-.55,2.08.59,4.16.59,2.07-.31,4.15-.31,2.08-.32,4.15-.32,2.08.26,4.15.26,2.08-.28,4.16-.28,2.07.52,4.15.52,2.08-.23,4.15-.23,2.08.43,4.16.43,2.07-.21,4.15-.21,2.07-.77,4.15-.77,2.08.54,4.15.54,2.08-.14,4.16-.14,2.07.35,4.15.35,2.08.12,4.15.12,2.08-.09,4.16-.09,2.07-.1,4.15-.1,2.08-.66,4.15-.66,2.08-.1,4.15-.1,2.08.34,4.15.34,2.07.1,4.15.1,2.07.3,4.15.3,2.07-.09,4.15-.09,2.07.27,4.15.27,2.08-.8,4.16-.8,2.07.82,4.15.82,2.07-.05,4.15-.05,2.07,0,4.15,0S481,4.54,483,4.54s2.08.81,4.15.81,2.08-.16,4.16-.16,2.07.32,4.15.32,2.07-.71,4.15-.71,2.08.89,4.15.89,2.08-1.08,4.16-1.08,2.08,1,4.15,1,2.08-.34,4.16-.34,2.07-.55,4.15-.55,2.08.66,4.16.66,2.07-.1,4.15-.1,2.08-.91,4.15-.91,2.08.45,4.16.45,2.08-.28,4.15-.28l4.16,0c2.08,0,2.08.1,4.15.1s2.08-.23,4.16-.23,2.08.52,4.16.52,2.07.45,4.15.45,2.08.09,4.16.09,2.08-1.12,4.15-1.12,2.08,1.2,4.16,1.2,2.07-.4,4.15-.4S580.67,5,582.75,5s2.07.06,4.15.06,2.08-.52,4.16-.52,2.08,1.1,4.15,1.1,2.08-1.14,4.16-1.14,2.08.49,4.16.49,2.08.21,4.16.21,2.08.21,4.16.21,2.08-.72,4.16-.72,2.08.13,4.16.13,2.08.49,4.16.49,2.08-.08,4.17-.08"/><path class="cls-6" d="M263.16,572.57c-2.07,0-2.07-.2-4.15-.2s-2.07.44-4.15.44-2.07-.43-4.15-.43-2.07.19-4.15.19-2.07-.25-4.15-.25-2.07,1.15-4.15,1.15-2.07-.68-4.15-.68-2.07-.42-4.15-.42-2.08,1.11-4.15,1.11-2.08-1.05-4.15-1.05-2.08-.27-4.15-.27-2.08.49-4.15.49-2.08-.49-4.16-.49-2.08.94-4.15.94-2.08.17-4.15.17-2.08.18-4.15.18-2.08-.56-4.16-.56-2.08-.52-4.15-.52-2.08.27-4.15.27-2.08.09-4.16.09-2.07-.16-4.15-.16-2.08-.38-4.16-.38-2.07.36-4.15.36-2.08,1-4.15,1-2.08-1.25-4.16-1.25-2.08,0-4.15,0-2.08.8-4.16.8-2.08.15-4.15.15-2.08-.68-4.15-.68-2.08.1-4.16.1-2.07.22-4.15.22-2.08.56-4.16.56-2.07-.29-4.15-.29-2.08-.82-4.15-.82-2.08,1-4.16,1-2.08.24-4.16.24-2.08-1.35-4.16-1.35-2.07,1.37-4.15,1.37-2.08-1.44-4.16-1.44-2.08.58-4.16.58S95,573,92.87,573s-3.2,1.89-4.67.42-.14-2.58-.14-4.65.12-2.08.12-4.15.61-2.07.61-4.15.15-2.07.15-4.14-.49-2.08-.49-4.15,0-2.07,0-4.15.44-2.07.44-4.14.21-2.07.21-4.15.25-2.07.25-4.14-.81-2.07-.81-4.15-.46-2.07-.46-4.15-.07-2.07-.07-4.14,1.29-2.07,1.29-4.15S88,516.9,88,514.83s1.12-2.07,1.12-4.15.15-2.07.15-4.15-.57-2.07-.57-4.14.25-2.08.25-4.15.21-2.07.21-4.14S89,492,89,490s-.18-2.07-.18-4.15.46-2.07.46-4.14-1-2.08-1-4.15.21-2.07.21-4.15.47-2.07.47-4.14-.85-2.08-.85-4.15.54-2.07.54-4.15.33-2.07.33-4.14-.09-2.07-.09-4.14.45-2.07.45-4.14-.89-2.08-.89-4.15-.42-2.07-.42-4.14.93-2.07.93-4.15.24-2.07.24-4.14-.19-2.08-.19-4.15-.88-2.07-.88-4.14.12-2.08.12-4.15,1-2.07,1-4.14-1.2-2.08-1.2-4.15.49-2.07.49-4.15,0-2.07,0-4.14-.41-2.08-.41-4.15.78-2.07.78-4.14-.76-2.08-.76-4.15,0-2.08,0-4.15.57-2.07.57-4.15.07-2.07.07-4.14.66-2.08.66-4.15-1.24-2.08-1.24-4.15.88-2.08.88-4.15-.64-2.07-.64-4.15.48-2.07.48-4.15-.78-2.07-.78-4.15.27-2.07.27-4.14-.28-2.08-.28-4.15,1.07-2.08,1.07-4.15.07-2.08.07-4.15.11-2.08.11-4.15-.37-2.08-.37-4.15.22-2.08.22-4.15-.55-2.07-.55-4.15.14-2.07.14-4.14.39-2.08.39-4.15-.13-2.08-.13-4.15,0-2.08,0-4.15.08-2.08.08-4.16-.78-2.07-.78-4.15.77-2.07.77-4.15S88,288.8,88,286.73s1.08-2.08,1.08-4.15-.79-2.08-.79-4.16.11-2.08.11-4.16.88-2.08.88-4.16"/><path class="cls-6" d="M995,572.87c-2.07,0-2.07-.41-4.13-.41s-2.07.27-4.14.27-2.06.63-4.13.63-2.06-.13-4.13-.13-2.06-.75-4.13-.75-2.06-.29-4.13-.29-2.06,1.1-4.12,1.1-2.06-.64-4.13-.64-2.06.71-4.12.71-2.07-.31-4.13-.31-2.07-.34-4.13-.34-2.07.37-4.13.37-2.07-.53-4.13-.53-2.07-.08-4.13-.08-2.07.15-4.13.15-2.06-.24-4.13-.24-2.07.76-4.13.76-2.07.39-4.13.39-2.07-.07-4.13-.07-2.07-.05-4.13-.05-2.07-.86-4.13-.86h-4.14c-2.06,0-2.06.77-4.13.77s-2.06-.49-4.13-.49-2.06-.18-4.13-.18-2.07.23-4.13.23-2.07-.5-4.13-.5-2.07.39-4.14.39-2.06.54-4.13.54-2.07-1-4.13-1-2.07,1-4.14,1-2.06-.1-4.13-.1-2.07.29-4.13.29-2.07-.71-4.14-.71-2.06.27-4.13.27-2.07.49-4.13.49-2.07,0-4.14,0-2.06-.13-4.13-.13-2.06-.07-4.13-.07-2.07-.5-4.13-.5-2.07-.65-4.14-.65-2.06,1.12-4.13,1.12-2.07.3-4.13.3-2.07-.71-4.14-.71-2.07,0-4.14,0-2.07-.28-4.13-.28-2.07,0-4.14,0-2.07-.09-4.14-.09-2.07,1-4.14,1-2.07-1.13-4.14-1.13-2.07,1.23-4.14,1.23"/><path class="cls-6" d="M995,405.43c0,2.05-.2,2.05-.2,4.1s.86,2.05.86,4.1-.06,2.05-.06,4.1-1.07,2-1.07,4.1-.21,2.06-.21,4.11.38,2.05.38,4.1-.25,2-.25,4.1-.11,2.05-.11,4.1.25,2.05.25,4.11.87,2,.87,4.1-.21,2.05-.21,4.1.06,2.05.06,4.1-.65,2.05-.65,4.11.56,2.05.56,4.1-.33,2.05-.33,4.1-.28,2.05-.28,4.11.51,2.05.51,4.1,0,2.05,0,4.1-.24,2.06-.24,4.11.65,2.05.65,4.1-.55,2-.55,4.1.61,2.06.61,4.11-.92,2.05-.92,4.1.47,2.06.47,4.11-.59,2.05-.59,4.1.05,2.06.05,4.11,1,2,1,4.1v4.11c0,2-1,2-1,4.1s.38,2.05.38,4.1.35,2.06.35,4.11-1,2-1,4.11.6,2,.6,4.11-.29,2-.29,4.1.65,2.06.65,4.11.31,2.06.31,4.11-.22,2.06-.22,4.12.33,2.05.33,4.11"/><path class="cls-6" d="M836.52,5.37c2.08,0,2.08-.73,4.17-.73s2.08,0,4.16,0,2.09,0,4.17,0,2.08,0,4.17,0,2.08-.35,4.17-.35,2.08.57,4.17.57,2.08.8,4.16.8,2.09-1.07,4.17-1.07S872,4.4,874,4.4s2.09,1.09,4.17,1.09,2.09-.23,4.17-.23,2.09-.67,4.17-.67,2.09.59,4.17.59,2.09-.39,4.17-.39,2.09.84,4.17.84,2.09-.47,4.17-.47,2.09-.09,4.17-.09,2.09-.25,4.17-.25,2.09.57,4.18.57,2.08-.64,4.17-.64,2.08-.12,4.17-.12,2.08-.31,4.17-.31,2.09.35,4.17.35,2.09,1,4.17,1,2.09-1,4.17-1,2.09.18,4.17.18,2.09-.07,4.17-.07,2.09-.23,4.17-.23,2.09,1,4.17,1,2.09.18,4.18.18S963.7,5,965.79,5s2.09-.12,4.18-.12,2.08.58,4.17.58,2.09-.94,4.17-.94,2.09.63,4.18.63,2.09.12,4.18.12h4.18c2.09,0,2.82-1.82,4.3-.34s.33,2.22.33,4.3-.58,2.09-.58,4.18.07,2.08.07,4.17-.62,2.09-.62,4.17,0,2.09,0,4.18,0,2.08,0,4.17.54,2.09.54,4.18.5,2.08.5,4.17S995,40.5,995,42.59s.19,2.09.19,4.18-.09,2.08-.09,4.17-.51,2.09-.51,4.18-.2,2.08-.2,4.17.38,2.08.38,4.17-.13,2.09-.13,4.18-.24,2.08-.24,4.17.32,2.09.32,4.18.72,2.09.72,4.18-.86,2.08-.86,4.17.63,2.09.63,4.17-.3,2.09-.3,4.18-.09,2.08-.09,4.17,1,2.09,1,4.18-.57,2.08-.57,4.17.48,2.09.48,4.18-.25,2.09-.25,4.17-.2,2.09-.2,4.18.15,2.09.15,4.17-.83,2.09-.83,4.18.42,2.08.42,4.17.09,2.09.09,4.18-.63,2.08-.63,4.17.89,2.09.89,4.18-.4,2.09-.4,4.17.82,2.09.82,4.18-1.31,2.09-1.31,4.18,1.25,2.09,1.25,4.17-.7,2.09-.7,4.18.26,2.09.26,4.17-.07,2.09-.07,4.18-.16,2.09-.16,4.18.13,2.08.13,4.17-.54,2.09-.54,4.17.28,2.09.28,4.17.82,2.09.82,4.17-1.11,2.09-1.11,4.18.82,2.09.82,4.17.35,2.09.35,4.18-.18,2.09-.18,4.18-1,2.08-1,4.17.84,2.09.84,4.17.24,2.09.24,4.18-.31,2.08-.31,4.17-.73,2.09-.73,4.18.73,2.09.73,4.18-.7,2.08-.7,4.17.5,2.09.5,4.18-.11,2.09-.11,4.18.63,2.08.63,4.17-.24,2.09-.24,4.17-.74,2.09-.74,4.18.36,2.09.36,4.18-.22,2.09-.22,4.18.41,2.08.41,4.17-.26,2.09-.26,4.18,0,2.09,0,4.18.28,2.09.28,4.18-.38,2.09-.38,4.18-.31,2.09-.31,4.18.48,2.09.48,4.17.42,2.09.42,4.18-.22,2.09-.22,4.18-.43,2.09-.43,4.18-.24,2.09-.24,4.18-.08,2.09-.08,4.17.27,2.09.27,4.18-.26,2.09-.26,4.18-.08,2.09-.08,4.18.26,2.09.26,4.18.28,2.09.28,4.18v4.18c0,2.09,0,2.09,0,4.19s.54,2.09.54,4.17-.13,2.1-.13,4.19.34,2.09.34,4.18-.52,2.09-.52,4.19-.3,2.09-.3,4.19"/><path class="cls-5" d="M646,4.76c2.07,0,2.07.81,4.14.81s2.07-1,4.13-1,2.07,1,4.14,1,2.07.11,4.14.11,2.07-.49,4.14-.49,2.07-.14,4.14-.14,2.07.13,4.14.13,2.07,0,4.14,0,2.07.43,4.14.43,2.07-.23,4.14-.23,2.06-.54,4.14-.54,2.07-.38,4.14-.38,2.07.3,4.14.3,2.07-.35,4.14-.35,2.07.86,4.14.86,2.07.34,4.14.34,2.07-.1,4.14-.1,2.08-1.22,4.15-1.22,2.07.25,4.14.25,2.07,1.06,4.14,1.06,2.07-.44,4.14-.44S735,5.12,737,5.12s2.08-.2,4.15-.2,2.07.76,4.14.76,2.07-1.35,4.14-1.35,2.08.18,4.15.18,2.07.24,4.14.24,2.07.49,4.15.49S764,5.12,766,5.12s2.07-.24,4.14-.24,2.08.38,4.15.38,2.07-.93,4.14-.93,2.07.52,4.14.52,2.07-.22,4.15-.22,2.07.24,4.14.24S793,4.75,795,4.75s2.07.44,4.15.44,2.07-.54,4.14-.54,2.07.09,4.15.09,2.07.25,4.15.25,2.07.38,4.14.38,2.08.07,4.15.07,2.07-.82,4.14-.82,2.08,1.08,4.16,1.08,2.07,0,4.15,0,2.07-.07,4.15-.07"/><path d="M114.3,18.91c0,1.9-1.44,3-2.68,4.28s-2.39,3.61-4.29,3.61a8.92,8.92,0,0,1-5.59-2.3c-1.25-1.24-1.83-3.69-1.83-5.59s.59-4.34,1.84-5.59,3.68-1.48,5.58-1.48S110.72,13,112,14.27A6.66,6.66,0,0,1,114.3,18.91Z"/><path class="cls-5" d="M114.3,18.91c0,1.9-1.44,3-2.68,4.28s-2.39,3.61-4.29,3.61a8.92,8.92,0,0,1-5.59-2.3c-1.25-1.24-1.83-3.69-1.83-5.59s.59-4.34,1.84-5.59,3.68-1.48,5.58-1.48S110.72,13,112,14.27A6.66,6.66,0,0,1,114.3,18.91Z"/><path class="cls-7" d="M130.26,25.73a6.45,6.45,0,0,1-4.62-2.21c-1.24-1.24-1.45-2.71-1.45-4.61s-.16-3.74,1.09-5a7.49,7.49,0,0,1,5-2.41,8,8,0,0,1,5.31,2.07A8.39,8.39,0,0,1,138,18.91c0,1.9-1.42,3.85-2.66,5.1A7.24,7.24,0,0,1,130.26,25.73Z"/><path class="cls-8" d="M130.26,25.73a6.45,6.45,0,0,1-4.62-2.21c-1.24-1.24-1.45-2.71-1.45-4.61s-.16-3.74,1.09-5a7.49,7.49,0,0,1,5-2.41,8,8,0,0,1,5.31,2.07A8.39,8.39,0,0,1,138,18.91c0,1.9-1.42,3.85-2.66,5.1A7.24,7.24,0,0,1,130.26,25.73Z"/><path class="cls-2" d="M153.23,26.43a8.46,8.46,0,0,1-5.49-2c-1.24-1.25-1.26-3.59-1.26-5.49a6.54,6.54,0,0,1,2-4.74c1.24-1.25,2.84-1.48,4.74-1.48s3.77,0,5,1.2,1.2,3.12,1.2,5a5.92,5.92,0,0,1-1.62,4.59C156.58,24.74,155.13,26.43,153.23,26.43Z"/><path class="cls-9" d="M153.23,26.43a8.46,8.46,0,0,1-5.49-2c-1.24-1.25-1.26-3.59-1.26-5.49a6.54,6.54,0,0,1,2-4.74c1.24-1.25,2.84-1.48,4.74-1.48s3.77,0,5,1.2,1.2,3.12,1.2,5a5.92,5.92,0,0,1-1.62,4.59C156.58,24.74,155.13,26.43,153.23,26.43Z"/><path class="cls-4" d="M123.92,177.28c0,2.09-.86,2.09-.86,4.18s0,2.09,0,4.17.76,2.09.76,4.18-.48,2.09-.48,4.17-.18,2.09-.18,4.18.23,2.08.23,4.17-.5,2.09-.5,4.18.39,2.08.39,4.17.54,2.09.54,4.18-1,2.09-1,4.17,1,2.09,1,4.18-.1,2.09-.1,4.17.29,2.09.29,4.18-.71,2.09-.71,4.17.27,2.09.27,4.18.49,2.09.49,4.17,0,2.09,0,4.18-.13,2.09-.13,4.18-.08,2.08-.08,4.17-.5,2.09-.5,4.17-.65,2.09-.65,4.18,1.13,2.08,1.13,4.17.29,2.08.29,4.17-.7,2.08-.7,4.17,0,2.09,0,4.17-.28,2.09-.28,4.18,0,2.09,0,4.17-.09,2.09-.09,4.17,1,2.09,1,4.17-1.13,2.09-1.13,4.18,1.23,2.08,1.23,4.17-1.36,2.09-1.36,4.18.74,2.09.74,4.17.55,2.09.55,4.18-.41,2.09-.41,4.17-.73,2.09-.73,4.18,1.15,2.09,1.15,4.18-.42,2.09-.42,4.17-.79,2.09-.79,4.18.52,2.09.52,4.18-.35,2.08-.35,4.17-.19,2.09-.19,4.18.56,2.09.56,4.18-.58,2.09-.58,4.17-.07,2.09-.07,4.18.16,2.09.16,4.18,1,2.09,1,4.18-.43,2.09-.43,4.18-.28,2.09-.28,4.18.72,2.08.72,4.17-.12,2.09-.12,4.18-.61,2.09-.61,4.17-.36,2.09-.36,4.18.2,2.09.2,4.18.3,2.09.3,4.18.68,2.09.68,4.18-1,2.09-1,4.18.09,2.09.09,4.18.15,2.09.15,4.18-.26,2.09-.26,4.18,1,2.09,1,4.18-.39,2.09-.39,4.18-.12,2.09-.12,4.18-.14,2.1-.14,4.19.84,2.09.84,4.19"/><path class="cls-4" d="M123.49,237.71c1.3-1.53.82-1.94,2.12-3.47s1.4-1.45,2.71-3,1.88-1,3.18-2.58,1.52-1.34,2.83-2.88.47-2.24,1.77-3.77,1.79-1.12,3.1-2.66.76-2,2.06-3.52,1.55-1.33,2.86-2.86,1.56-1.32,2.86-2.85,1-1.77,2.33-3.31,1.71-1.18,3-2.72,1.36-1.48,2.67-3,1.19-1.64,2.5-3.17,1.49-1.38,2.8-2.92"/><path class="cls-4" d="M202.24,448.75c0-2.1.4-2.1.4-4.2s-.49-2.09-.49-4.19.44-2.1.44-4.19-.29-2.1-.29-4.2.24-2.1.24-4.19-.13-2.1-.13-4.2.17-2.09.17-4.19-.19-2.09-.19-4.19.21-2.09.21-4.19-.34-2.09-.34-4.18-.42-2.1-.42-4.19,1.06-2.1,1.06-4.19-1.31-2.1-1.31-4.2,1-2.09,1-4.19-.6-2.1-.6-4.19.38-2.1.38-4.19-.08-2.1-.08-4.19.2-2.1.2-4.19-.85-2.1-.85-4.19.06-2.1.06-4.2,1.07-2.09,1.07-4.19.2-2.1.2-4.19-.38-2.1-.38-4.19.25-2.1.25-4.2S203,346,203,344s-.25-2.1-.25-4.19-.87-2.1-.87-4.2.2-2.1.2-4.19-.06-2.1-.06-4.2.66-2.09.66-4.19-.56-2.1-.56-4.19.33-2.1.33-4.2.28-2.1.28-4.2-.51-2.1-.51-4.19,0-2.1,0-4.2.23-2.09.23-4.19-.65-2.1-.65-4.2.55-2.1.55-4.2-.61-2.09-.61-4.19.93-2.1.93-4.19-.47-2.1-.47-4.2.59-2.1.59-4.19-.05-2.1-.05-4.2-1-2.1-1-4.2v-4.19c0-2.1,1-2.1,1-4.2s-.39-2.1-.39-4.2-.35-2.1-.35-4.2,1-2.1,1-4.2-.59-2.1-.59-4.2.29-2.1.29-4.2-.65-2.1-.65-4.2-.31-2.11-.31-4.21"/><path class="cls-10" d="M821.91,568.32c-2.1-.16,1.45-.28,4.05-.79,1.18-.22,2.52-.66,4.07-1,1.26-.29,2.94.58,4.39.19s2.54-1.19,3.94-1.61,2.78-.45,4.15-.92,2.56-1.17,3.89-1.69,2.4-1.53,3.7-2.1,2.56-1.12,3.83-1.75,2.61-1.08,3.84-1.77,2.67-1.05,3.85-1.82,2.26-1.74,3.38-2.59,2.24-1.75,3.29-2.69a40.48,40.48,0,0,0,2.86-3.14c1-1,1.77-2.21,2.61-3.33s1.5-2.38,2.26-3.58,1.51-2.36,2.19-3.6,1.8-2.25,2.41-3.52,1.06-2.62,1.63-3.91.26-2.95.79-4.25,2-2.25,2.49-3.56.21-2.94.71-4.25,1.8-2.34,2.3-3.65.25-2.94.77-4.24,1.28-2.54,1.84-3.82,1-2.69,1.59-3.93,1.18-2.63,1.87-3.83,2.41-1.83,3.2-3,1.24-2.59,2.16-3.63,1.46-2.46,2.46-3.39,2.46-1.4,3.54-2.25,2.28-1.52,3.42-2.29,2.45-1.22,3.64-1.93,1.94-2.12,3.15-2.78,2.28-1.58,3.51-2.21,2.53-1.08,3.77-1.68,2.56-1,3.8-1.62,2.35-1.44,3.59-2,2.64-.85,3.87-1.46,2.9-.37,4.12-1,1.83-2.37,3-3.05,2.29-1.48,3.45-2.21,2.77-.78,3.89-1.58,2.37-1.44,3.44-2.31,2.27-1.54,3.28-2.46,1.56-2.29,2.51-3.26,2.08-1.76,3-2.77,1.91-1.95,2.76-3,.75-2.86,1.56-3.93,2.72-1.37,3.49-2.48.49-2.94,1.22-4.07,1.64-2.15,2.34-3.3,1.46-2.28,2.12-3.44,1.74-2.15,2.37-3.32.74-2.69,1.34-3.88,2.1-2,2.68-3.19.88-2.63,1.42-3.82.89-2.62,1.4-3.82,1.49-2.39,2-3.57c.54-1.35,1-2.64,1.45-3.79.55-1.45.1-3,.48-4.13.86-2.43,1.31-5.58,1.62-3.59a18,18,0,0,1,.1,4.15c0,2.09-.5,2.09-.5,4.19s1.24,2.09,1.24,4.18-.28,2.1-.28,4.19-.45,2.09-.45,4.18.12,2.09.12,4.19.4,2.09.4,4.19-.34,2.09-.34,4.18-.27,2.1-.27,4.19.36,2.09.36,4.18,0,2.1,0,4.19-.19,2.1-.19,4.19,0,2.1,0,4.19.25,2.09.25,4.19-.09,2.09-.09,4.18-.31,2.1-.31,4.19.8,2.1.8,4.19-.89,2.09-.89,4.19.06,2.09.06,4.19.43,2.09.43,4.19-.11,2.09-.11,4.19.28,2.09.28,4.19-.05,2.09-.05,4.19.2,2.09.2,4.19-.33,2.09-.33,4.19.34,2.09.34,4.19-.78,2.09-.78,4.19,0,2.09,0,4.18,1,2.1,1,4.19-.68,2.1-.68,4.19-.39,2.09-.39,4.19,0,2.09,0,4.19,1,2.09,1,4.19-.71,2.1-.71,4.19.81,2.1.81,4.2-1.25,2.09-1.25,4.19.08,2.09.08,4.19.6,2.1.6,4.19,0,2.1,0,4.2.09,2.1.09,4.2,1.65,3.06.17,4.54-2.45-.73-4.55-.73-2.1.79-4.2.79-2.09-1.07-4.19-1.07-2.1.22-4.2.22-2.1,1-4.19,1-2.1-.32-4.2-.32-2.1-.75-4.2-.75-2.1,1.21-4.2,1.21-2.1-1.19-4.2-1.19-2.09.16-4.19.16-2.1.78-4.21.78-2.09-1.12-4.19-1.12-2.1.07-4.2.07-2.1,1-4.2,1-2.1-.31-4.2-.31-2.1-.51-4.2-.51-2.1.4-4.2.4-2.1-.68-4.2-.68-2.1,1.17-4.2,1.17S908,568,905.94,568h-4.2c-2.1,0-2.1,1.35-4.2,1.35s-2.1-.5-4.2-.5-2.1-.76-4.21-.76-2.1,1.08-4.2,1.08-2.1-.94-4.2-.94-2.1-.13-4.19-.13-2.1,1.1-4.21,1.1-2.09,0-4.19,0-2.11-.92-4.21-.92-2.1.14-4.2.14-2.1.87-4.2.87-2.1-.87-4.2-.87-2.1.56-4.21.56-2.1-.48-4.2-.48-2.1-.56-4.2-.56-2.11.38-4.21.38-2.1.94-4.2.94-2.09-1.24-4.19-1.3S824,568.48,821.91,568.32Z"/><path class="cls-10" d="M263.39,37.75l-4.07.79c-1.18.22-2.52.66-4.07,1-1.27.29-2.94-.58-4.4-.19-1.29.34-2.53,1.19-3.94,1.61s-2.77.45-4.14.92-2.56,1.17-3.9,1.68-2.39,1.54-3.69,2.11-2.56,1.12-3.83,1.75-2.61,1.07-3.84,1.77-2.67,1-3.85,1.82-2.26,1.74-3.38,2.59S218,55.37,217,56.3a42.54,42.54,0,0,0-2.86,3.15,42,42,0,0,0-2.61,3.33c-.85,1.12-1.5,2.38-2.26,3.58s-1.51,2.36-2.2,3.6-1.79,2.25-2.4,3.52-1.07,2.62-1.63,3.91-.26,2.94-.79,4.25-2,2.24-2.5,3.56-.2,2.94-.7,4.25-1.8,2.34-2.31,3.64-.24,3-.76,4.24-1.28,2.55-1.84,3.82-1,2.69-1.59,3.94-1.18,2.62-1.87,3.82-2.41,1.84-3.2,3-1.24,2.6-2.16,3.64-1.46,2.46-2.47,3.39-2.45,1.4-3.53,2.25-2.28,1.52-3.42,2.29-2.46,1.22-3.64,1.93-1.94,2.12-3.15,2.78-2.28,1.58-3.51,2.21-2.54,1.08-3.78,1.68-2.55,1-3.79,1.62-2.35,1.44-3.6,2-2.63.85-3.86,1.46-2.9.37-4.12,1-1.83,2.37-3,3-2.29,1.48-3.45,2.21-2.77.78-3.89,1.58-2.37,1.44-3.44,2.31-2.27,1.54-3.28,2.46-1.56,2.29-2.51,3.26-2.08,1.76-3,2.77-1.91,2-2.77,3-.74,2.86-1.55,3.93-2.72,1.37-3.49,2.48-.49,2.94-1.22,4.07-1.64,2.15-2.34,3.3-1.46,2.28-2.13,3.44-1.73,2.15-2.36,3.32-.74,2.7-1.34,3.88-2.11,2-2.68,3.2-.88,2.62-1.42,3.82-.89,2.62-1.4,3.81-1.49,2.39-2,3.58c-.54,1.35-1,2.63-1.45,3.78-.55,1.45-.11,3.06-.49,4.13-.85,2.43-1.31,5.58-1.61,3.59a18,18,0,0,1-.11-4.15c0-2.09.51-2.09.51-4.19s-1.25-2.09-1.25-4.18.28-2.09.28-4.18.45-2.1.45-4.19-.11-2.09-.11-4.18S95,182,95,179.88s.34-2.09.34-4.19.27-2.09.27-4.18-.36-2.09-.36-4.19,0-2.09,0-4.19.19-2.09.19-4.19,0-2.09,0-4.19-.25-2.09-.25-4.18.09-2.1.09-4.19.31-2.09.31-4.19-.81-2.09-.81-4.19.9-2.09.9-4.19-.06-2.09-.06-4.18-.43-2.1-.43-4.19.11-2.1.11-4.19-.28-2.1-.28-4.19,0-2.1,0-4.19-.2-2.09-.2-4.19.33-2.09.33-4.19-.34-2.09-.34-4.19.78-2.1.78-4.19,0-2.1,0-4.19-1-2.1-1-4.19.68-2.1.68-4.19.39-2.1.39-4.19,0-2.1,0-4.19-1-2.1-1-4.19.71-2.1.71-4.2-.81-2.09-.81-4.19S96,60.49,96,58.39s-.08-2.09-.08-4.19-.6-2.1-.6-4.19,0-2.1,0-4.2-.09-2.1-.09-4.2-1.65-3.06-.17-4.54,2.45.73,4.55.73,2.1-.79,4.19-.79,2.1,1.07,4.2,1.07,2.1-.22,4.19-.22,2.1-1,4.2-1,2.1.32,4.2.32,2.1.75,4.2.75,2.1-1.21,4.2-1.21,2.1,1.19,4.19,1.19,2.1-.16,4.2-.16,2.1-.78,4.2-.78,2.1,1.12,4.2,1.12,2.1-.07,4.2-.07,2.1-1,4.2-1,2.1.31,4.2.31,2.1.51,4.2.51,2.1-.4,4.2-.4,2.1.68,4.2.68,2.1-1.17,4.2-1.17,2.1,1.12,4.2,1.12h4.2c2.1,0,2.1-1.35,4.2-1.35s2.1.5,4.2.5,2.1.76,4.2.76,2.1-1.08,4.2-1.08,2.11.94,4.21.94,2.1.13,4.19.13,2.1-1.1,4.2-1.1,2.1,0,4.2,0,2.1.92,4.21.92,2.1-.14,4.2-.14,2.1-.87,4.2-.87,2.1.88,4.2.88,2.1-.57,4.21-.57,2.1.48,4.2.48,2.1.56,4.2.56,2.1-.38,4.21-.38,2.1-.94,4.2-.94,2.07,1.18,4.18,1.3S261.29,37.75,263.39,37.75Z"/><path class="cls-1" d="M185,115.27c-.92,1-1.55,2.31-2.55,3.25s-1.81,2.15-2.89,3-2.4,1.4-3.54,2.18-2.42,1.3-3.61,2-2.61.92-3.82,1.58-2.33,1.42-3.56,2.05-2.56,1-3.8,1.58-2.38,1.36-3.63,2-2.36,1.42-3.6,2-2.66.84-3.89,1.45-1.88,2.35-3.1,3-2.38,1.32-3.58,2-2.71.79-3.88,1.52-1.86,2.12-3,2.92-2.24,1.52-3.31,2.38-2.75.94-3.75,1.85-1.81,2-2.77,3-1.71,2.1-2.61,3.11-1.66,2.13-2.52,3.17-2.34,1.61-3.16,2.69-1.36,2.37-2.13,3.48-1,2.61-1.72,3.73-2,1.94-2.71,3.08-1.14,2.49-1.81,3.65-1.48,2.29-2.11,3.46-1.35,2.39-2,3.57-.84,2.63-1.42,3.82-.86,2.62-1.4,3.81-1.35,2.41-1.86,3.6-1.34,2.45-1.81,3.63c-.55,1.35-.52,2.82-1,4-.54,1.45-1.91,2.39-2.29,3.47-.85,2.43-.42,2-1,3.94"/><path class="cls-4" d="M905.42,227.52c-1.64,1.48-1.53,1.6-3.16,3.08s-1.61,1.51-3.25,3-1.55,1.58-3.19,3.06l-3.28,3c-1.64,1.48-2,1.11-3.61,2.59l-3.28,3c-1.64,1.48-1.57,1.55-3.21,3"/><path class="cls-4" d="M882.68,271.75c-1.64-1.48-1.76-1.35-3.4-2.83s-1.67-1.45-3.31-2.93-1.73-1.39-3.37-2.87l-3.29-3c-1.64-1.48-1.31-1.85-3-3.33l-3.3-3c-1.64-1.48-1.71-1.41-3.36-2.89"/><path class="cls-4" d="M179.21,251.25c1.64,1.48,1.75,1.35,3.39,2.83s1.66,1.45,3.3,2.93,1.72,1.39,3.36,2.87l3.28,3c1.63,1.48,1.3,1.85,2.94,3.33l3.29,3c1.64,1.48,1.71,1.41,3.35,2.89"/><path class="cls-4" d="M202.37,272c1.64-1.48,1.53-1.61,3.17-3.09s1.62-1.51,3.26-3,1.56-1.57,3.2-3.05l3.29-3c1.64-1.48,2-1.12,3.62-2.6l3.29-3c1.64-1.49,1.58-1.56,3.22-3"/><path class="cls-1" d="M879.39,533.57c.59-1.19,1.66-2.16,2.21-3.37s.36-2.75.87-4,1.26-2.36,1.75-3.6,1.08-2.43,1.55-3.67.42-2.7.89-3.94,1.8-2.16,2.28-3.39.29-2.77.79-4,2.06-2,2.6-3.22,1-2.45,1.62-3.62.59-2.71,1.26-3.84,1.25-2.41,2-3.48a34.77,34.77,0,0,1,2.74-2.94c.91-1,2.27-1.6,3.27-2.53s1.88-2,3-2.82,1.7-2.32,2.84-3.1,2.75-.79,3.94-1.5,2-1.94,3.25-2.6,2.43-1.29,3.66-1.91,2.67-.79,3.91-1.39,2.16-1.83,3.41-2.42,2.89-.32,4.13-.91,2.53-1.1,3.76-1.71,2.44-1.27,3.66-1.92,2.06-2,3.25-2.64,2.34-1.42,3.51-2.15,2.6-1.05,3.72-1.84,2-1.94,3-2.8"/><path d="M690.19,120.05a3.93,3.93,0,0,0-4.4-4.37,3.92,3.92,0,0,0-4.33,4.37,4.52,4.52,0,0,0,1.26,3.08c.75.75,1.93.69,3.07.69s2.34.07,3.09-.68A4.59,4.59,0,0,0,690.19,120.05Z"/><path class="cls-6" d="M690.19,120.05a3.93,3.93,0,0,0-4.4-4.37,3.92,3.92,0,0,0-4.33,4.37,4.52,4.52,0,0,0,1.26,3.08c.75.75,1.93.69,3.07.69s2.34.07,3.09-.68A4.59,4.59,0,0,0,690.19,120.05Z"/><path class="cls-7" d="M928.57,72.63a3.71,3.71,0,0,0-.8-2.87,4,4,0,0,0-2.87-1.28c-1.14,0-2.57.07-3.32.83s-.66,2.18-.66,3.32.71,1.77,1.46,2.53a3.33,3.33,0,0,0,2.52,1.3,4.17,4.17,0,0,0,3.06-.78C928.71,74.93,928.57,73.77,928.57,72.63Z"/><path class="cls-11" d="M928.57,72.63a3.71,3.71,0,0,0-.8-2.87,4,4,0,0,0-2.87-1.28c-1.14,0-2.57.07-3.32.83s-.66,2.18-.66,3.32.71,1.77,1.46,2.53a3.33,3.33,0,0,0,2.52,1.3,4.17,4.17,0,0,0,3.06-.78C928.71,74.93,928.57,73.77,928.57,72.63Z"/><path class="cls-2" d="M903.35,98.9a4.38,4.38,0,0,0-1.12-3.06c-.75-.76-1.92-.47-3.07-.47s-2.35-.32-3.1.43a4.3,4.3,0,0,0-.81,3.1c0,1.15-.14,2.56.61,3.31s2.16.82,3.3.82a3.71,3.71,0,0,0,2.62-1.51C902.54,100.77,903.35,100.05,903.35,98.9Z"/><path class="cls-12" d="M496.51,444.38a6.94,6.94,0,0,0,1.24-4.21c0-1.18-.62-2.59-.62-4.21,0-1.28-.52-2.68-.52-4.21,0-1.31,1.11-2.72,1.11-4.21,0-1.33-.76-2.74-.76-4.2s.28-2.76.28-4.21-.37-2.76-.37-4.2.56-2.78.56-4.21-.06-2.78-.06-4.21.09-2.78.09-4.21.34-2.79.34-4.21-.47-2.79-.47-4.21-.68-2.79-.68-4.2.89-2.8.89-4.21-.05-2.8-.05-4.21-.67-2.8-.67-4.21.76-2.81.76-4.21-.67-2.81-.67-4.21.29-2.81.29-4.22.39-2.81.39-4.21-.34-2.82-.34-4.22-.12-2.81-.12-4.21.28-2.82.28-4.21,0-2.82,0-4.22-.06-2.82-.06-4.22-.42-2.82-.42-4.21.49-2.83.49-4.22-.85-2.83-.85-4.22.74-2.83.74-4.21.26-2.84.26-4.21-.23-2.84-.23-4.21-.91-2.85-.91-4.21,1.07-2.87,1.07-4.22-.35-2.87-.35-4.2c0-1.5.4-2.9.4-4.21s-.94-2.8-.87-4.13,1.2-2.68,1.36-4-.79-2.93-.54-4.25,1.93-2.39,2.28-3.68.46-2.72.91-4,.52-2.77,1.08-4,1.63-2.26,2.3-3.42.66-2.89,1.45-4,2.43-1.61,3.32-2.62,1.25-2.66,2.24-3.58,2.55-1.27,3.63-2.09,1.82-2.25,3-3,2.61-1.05,3.82-1.65,2.78-.49,4-1,2.51-1.07,3.81-1.44,2.61-.8,3.94-1.06,2.72-.22,4.06-.35,2.71-.54,4-.54"/><path class="cls-12" d="M587.56,444.38a7.21,7.21,0,0,1-1.17-4.21c0-1.18.06-2.59.06-4.21,0-1.28.46-2.68.46-4.21,0-1.31.63-2.72.63-4.21,0-1.33.14-2.74.14-4.2s-.25-2.76-.25-4.21-.78-2.76-.78-4.2,1.11-2.78,1.11-4.21-1.11-2.78-1.11-4.21.66-2.78.66-4.21.39-2.79.39-4.21-.56-2.79-.56-4.21,0-2.79,0-4.2-.42-2.8-.42-4.21-.25-2.8-.25-4.21.41-2.8.41-4.21.65-2.81.65-4.21.14-2.81.14-4.21-.79-2.81-.79-4.22.78-2.81.78-4.21-.87-2.82-.87-4.22-.09-2.81-.09-4.21-.33-2.82-.33-4.21.95-2.82.95-4.22-.36-2.82-.36-4.22-.17-2.82-.17-4.21.56-2.83.56-4.22-.21-2.83-.21-4.22-.75-2.83-.75-4.21,1.23-2.84,1.23-4.21.06-2.84.06-4.21-.18-2.85-.18-4.21-1-2.87-1-4.22,1-2.87,1-4.2c0-1.5-.45-2.9-.45-4.21s.14-2.78.07-4.12.07-2.81-.09-4.14-1.07-2.64-1.32-3.95-.38-2.75-.73-4-.28-2.84-.73-4.1-1.73-2.29-2.3-3.51-1.23-2.45-1.91-3.61-1.45-2.32-2.24-3.41a40.77,40.77,0,0,0-2.45-3.26c-.92-1-1.53-2.38-2.52-3.3s-2.47-1.34-3.54-2.16-1.94-2-3.09-2.75-2.63-.92-3.84-1.52-2.18-1.91-3.44-2.4-2.67-.83-4-1.21-2.66-.93-4-1.18-2.86.36-4.2.23-2.74-.18-4.08-.18"/><path class="cls-12" d="M509,444.22c0-2.08-.4-1.49-.4-4.16,0-1.17,0-2.56,0-4.16,0-1.27.24-2.66.24-4.16,0-1.31.27-2.69.27-4.16,0-1.32-.73-2.71-.73-4.16s1.19-2.72,1.19-4.15-.28-2.74-.28-4.16-.09-2.74-.09-4.16-.48-2.74-.48-4.16.89-2.75.89-4.16-.39-2.75-.39-4.16.34-2.75.34-4.15-.51-2.76-.51-4.16-.48-2.77-.48-4.16.51-2.77.51-4.16.46-2.77.46-4.16-.19-2.77-.19-4.16-.68-2.78-.68-4.16.26-2.78.26-4.17.16-2.78.16-4.16-.39-2.79-.39-4.17.49-2.78.49-4.17-.06-2.78-.06-4.16.57-2.78.57-4.16-.23-2.79-.23-4.16-.43-2.8-.43-4.17.2-2.8.2-4.16-.83-2.8-.83-4.16.12-2.81.12-4.17.28-2.81.28-4.16.5-2.83.5-4.17-.27-2.83-.27-4.16.52-2.85.52-4.16c0-1.5-.57-2.89-.57-4.17,0-1.56.55-3,.55-4.15,0-1.43.29-2.77.4-4.11s-.56-2.89-.33-4.22a39.92,39.92,0,0,1,1-4.05c.39-1.38.27-2.94.78-4.19a31.85,31.85,0,0,1,2.23-3.62c.71-1.24,2-2.08,2.78-3.15a22.82,22.82,0,0,1,9.48-7.77,31.06,31.06,0,0,1,3.71-1.73c1.31-.53,2.32-1.85,3.64-2.2a33.14,33.14,0,0,1,4.19-.33,31.27,31.27,0,0,1,4.13.17"/><path class="cls-12" d="M575.43,444.22c0-2.08,0-1.49,0-4.16,0-1.17-.42-2.56-.42-4.16,0-1.27.43-2.66.43-4.16,0-1.31-.43-2.69-.43-4.16,0-1.32.14-2.71.14-4.16v-4.15c0-1.35-.34-2.74-.34-4.16s.45-2.74.45-4.16-.78-2.74-.78-4.16.43-2.75.43-4.16-.07-2.75-.07-4.16-.49-2.75-.49-4.15,1.31-2.76,1.31-4.16-1-2.77-1-4.16.42-2.77.42-4.16-.51-2.77-.51-4.16.62-2.77.62-4.16-.69-2.78-.69-4.16.51-2.78.51-4.17-.38-2.78-.38-4.16.82-2.79.82-4.17-.48-2.78-.48-4.17-.18-2.78-.18-4.16.84-2.78.84-4.16-.61-2.79-.61-4.16.71-2.8.71-4.17-.36-2.8-.36-4.16-.67-2.8-.67-4.16.49-2.81.49-4.17.43-2.81.43-4.16-1.18-2.83-1.18-4.17,1-2.83,1-4.16.4-2.85.4-4.16c0-1.5-.92-2.89-.92-4.17,0-1.56.16-3,.16-4.15,0-1.43-.39-2.79-.5-4.13s.1-2.84-.14-4.17a38.17,38.17,0,0,0-.85-4.08,34.29,34.29,0,0,0-1.42-3.93,36.91,36.91,0,0,0-1.47-4,32,32,0,0,0-2.51-3.39,30.69,30.69,0,0,0-2.52-3.41,30,30,0,0,0-3.21-2.79c-1.13-.84-2.79-.88-4-1.55a31,31,0,0,0-3.9-1.35c-1.31-.53-2.3-1.88-3.63-2.23a35.56,35.56,0,0,0-4.08-1.13c-1.41-.19-2.88,1-4.23,1"/><path class="cls-7" d="M489.61,376a4.47,4.47,0,0,0-1.26-3.05,4.3,4.3,0,0,0-3.06-1,4.47,4.47,0,0,0-3.15.91c-.75.75-.52,2-.52,3.15a3.67,3.67,0,0,0,.84,2.84c.75.75,1.69.74,2.83.74s2.5.43,3.25-.33A4.81,4.81,0,0,0,489.61,376Z"/><path class="cls-2" d="M522.92,399.24c0-1.14.23-2.44-.52-3.19s-2-.74-3.19-.74a4.21,4.21,0,0,0-3.06.87,4.25,4.25,0,0,0-.93,3.06c0,1.15.72,1.78,1.47,2.53s1.37,1.6,2.52,1.6a3.78,3.78,0,0,0,2.65-1.47A3.39,3.39,0,0,0,522.92,399.24Z"/><path class="cls-7" d="M565.27,270.33c0-1.14-1.12-2.1-1.87-2.86a3.77,3.77,0,0,0-2.86-1,3.84,3.84,0,0,0-2.89.93c-.75.75-1.74,1.75-1.74,2.89s1.31,1.83,2.06,2.58a3.41,3.41,0,0,0,2.57,1.28,3.85,3.85,0,0,0,2.89-1C564.18,272.47,565.27,271.48,565.27,270.33Z"/><path class="cls-11" d="M565.27,270.33c0-1.14-1.12-2.1-1.87-2.86a3.77,3.77,0,0,0-2.86-1,3.84,3.84,0,0,0-2.89.93c-.75.75-1.74,1.75-1.74,2.89s1.31,1.83,2.06,2.58a3.41,3.41,0,0,0,2.57,1.28,3.85,3.85,0,0,0,2.89-1C564.18,272.47,565.27,271.48,565.27,270.33Z"/><path class="cls-2" d="M600.16,327.87c0-1.15-1.44-1.81-2.19-2.56s-1.42-1.95-2.56-1.95-1.83,1.18-2.58,1.93a3.54,3.54,0,0,0-1.4,2.58,3.65,3.65,0,0,0,4,3.93,3.43,3.43,0,0,0,2.51-1.41C598.67,329.64,600.16,329,600.16,327.87Z"/><path class="cls-13" d="M600.16,327.87c0-1.15-1.44-1.81-2.19-2.56s-1.42-1.95-2.56-1.95-1.83,1.18-2.58,1.93a3.54,3.54,0,0,0-1.4,2.58,3.65,3.65,0,0,0,4,3.93,3.43,3.43,0,0,0,2.51-1.41C598.67,329.64,600.16,329,600.16,327.87Z"/><path class="cls-2" d="M571.73,344.77a4.85,4.85,0,0,0,3.32,1c1.06,0,1.74-.91,2.55-1.72a3.14,3.14,0,0,0,1-2.55c0-1.06.55-2.51-.26-3.32s-2.26-.84-3.32-.84a4.53,4.53,0,0,0-3.19,1,4.77,4.77,0,0,0-1.23,3.19A5,5,0,0,0,571.73,344.77Z"/><path class="cls-7" d="M489.9,318.16c0-1.15-1.2-1.91-1.95-2.66s-1.51-1.93-2.66-1.93-1.89,1.19-2.64,1.95-1.81,1.49-1.81,2.64a5.14,5.14,0,0,0,1.09,3.36,5.31,5.31,0,0,0,3.36,1.31c1.15,0,1.79-1.38,2.55-2.13S489.9,319.3,489.9,318.16Z"/><path class="cls-11" d="M489.9,318.16c0-1.15-1.2-1.91-1.95-2.66s-1.51-1.93-2.66-1.93-1.89,1.19-2.64,1.95-1.81,1.49-1.81,2.64a5.14,5.14,0,0,0,1.09,3.36,5.31,5.31,0,0,0,3.36,1.31c1.15,0,1.79-1.38,2.55-2.13S489.9,319.3,489.9,318.16Z"/><path class="cls-2" d="M501.2,303.33c0-1.15-.09-2.51-.84-3.26s-2.11-.28-3.26-.28a3.13,3.13,0,0,0-2.56,1,3.42,3.42,0,0,0-1.31,2.57,3.71,3.71,0,0,0,1.06,2.8c.75.75,1.66,1.79,2.81,1.79a5,5,0,0,0,3.2-1.4A4.57,4.57,0,0,0,501.2,303.33Z"/><path class="cls-7" d="M570.62,382.88a3.77,3.77,0,0,0-.87-2.88,4,4,0,0,0-2.88-1.15,4.34,4.34,0,0,0-3.1.93,4.51,4.51,0,0,0-1.18,3.1,4.17,4.17,0,0,0,1.43,2.85,3.83,3.83,0,0,0,2.85,1.06c1.15,0,2.58.17,3.33-.58S570.62,384,570.62,382.88Z"/><path class="cls-2" d="M505.27,255.55a4.2,4.2,0,0,0-1-3c-.75-.75-1.89-.54-3-.54a3.46,3.46,0,0,0-2.76.81,4,4,0,0,0-1.49,2.76,4.07,4.07,0,0,0,1.44,2.81,3.57,3.57,0,0,0,2.81.79,3.14,3.14,0,0,0,2.55-1A3.56,3.56,0,0,0,505.27,255.55Z"/><path class="cls-13" d="M505.27,255.55a4.2,4.2,0,0,0-1-3c-.75-.75-1.89-.54-3-.54a3.46,3.46,0,0,0-2.76.81,4,4,0,0,0-1.49,2.76,4.07,4.07,0,0,0,1.44,2.81,3.57,3.57,0,0,0,2.81.79,3.14,3.14,0,0,0,2.55-1A3.56,3.56,0,0,0,505.27,255.55Z"/><path class="cls-7" d="M517.52,246.33c0-1.14-.9-1.87-1.65-2.62a3.31,3.31,0,0,0-5.3-.05c-.75.75-1.92,1.53-1.92,2.67a6,6,0,0,0,4.59,4.53,5.08,5.08,0,0,0,3.31-1.22A4.91,4.91,0,0,0,517.52,246.33Z"/><path class="cls-2" d="M583.25,251.41a4.21,4.21,0,0,0-1-3,4.46,4.46,0,0,0-3-1.35,3.7,3.7,0,0,0-4.29,4.37,4.43,4.43,0,0,0,1.24,3,4.2,4.2,0,0,0,3.05,1,5.63,5.63,0,0,0,4-4Z"/><path d="M536.6,5a2.64,2.64,0,0,0-3-2.85c-1.86,0-3.5,1-3.5,2.85s1.64,3,3.5,3A2.75,2.75,0,0,0,536.6,5Z"/><path class="cls-6" d="M536.6,5a2.64,2.64,0,0,0-3-2.85c-1.86,0-3.5,1-3.5,2.85s1.64,3,3.5,3A2.75,2.75,0,0,0,536.6,5Z"/><path class="cls-7" d="M271.3,83.24a4,4,0,0,0-2.72,1.56c-.75.75-1.64,1.58-1.64,2.72a4.94,4.94,0,0,0,1.06,3.3,4.84,4.84,0,0,0,3.3.88,4.19,4.19,0,0,0,2.93-1.25,4,4,0,0,0,1-2.93,4.32,4.32,0,0,0-.88-3.1A4.52,4.52,0,0,0,271.3,83.24Z"/><path class="cls-11" d="M271.3,83.24a4,4,0,0,0-2.72,1.56c-.75.75-1.64,1.58-1.64,2.72a4.94,4.94,0,0,0,1.06,3.3,4.84,4.84,0,0,0,3.3.88,4.19,4.19,0,0,0,2.93-1.25,4,4,0,0,0,1-2.93,4.32,4.32,0,0,0-.88-3.1A4.52,4.52,0,0,0,271.3,83.24Z"/><path d="M291.94,63.19c-1.14,0-1.83.79-2.58,1.54a3.25,3.25,0,0,0-1.07,2.59,3.39,3.39,0,0,0,1,2.68,4,4,0,0,0,2.68,1.59,4.63,4.63,0,0,0,3.17-1.11c.75-.75.48-2,.48-3.16s.17-2.32-.58-3.08A4.34,4.34,0,0,0,291.94,63.19Z"/><path class="cls-2" d="M214.49,51.46a4.55,4.55,0,0,0-3.2.83,5,5,0,0,0-1.44,3.2c0,1.14,1.38,1.75,2.13,2.5s1.36,2,2.51,2a4.92,4.92,0,0,0,3.24-1.22c.76-.75.47-2.11.47-3.25a3.59,3.59,0,0,0-.92-2.79A3.84,3.84,0,0,0,214.49,51.46Z"/><path class="cls-5" d="M67.75,257.69c2.26-1.33,2.31-1.26,4.57-2.59s2.52-.9,4.78-2.24,2.37-1.17,4.63-2.51,2.07-1.67,4.33-3"/><path class="cls-5" d="M72.54,264.13l3.8-2.67,3.79-2.69c1.9-1.34,1.59-1.77,3.5-3.11s1.61-1.75,3.51-3.09"/><path d="M266.46,573.83c-1.83,1.51-2.79-1.16-5.16-1.16s-2.38.08-4.76.08-2.39.58-4.77.58S249.39,573,247,573s-2.38.83-4.76.83-2.38-1.16-4.76-1.16-2.38.91-4.76.91-2.38-.83-4.77-.83l-4.76,0c-2.38,0-2.38.51-4.76.51s-2.38.14-4.76.14-2.38-.25-4.77-.25-2.38-.19-4.76-.19-2.38.23-4.76.23-2.38-.58-4.77-.58-2.38,1.06-4.76,1.06-2.38-1-4.76-1-2.39.33-4.77.33-2.38.45-4.76.45-2.39,0-4.77,0-2.38-.51-4.76-.51-2.39-.37-4.77-.37-2.38.62-4.76.62-2.39-.67-4.77-.67-2.38,1.3-4.77,1.3-2.38-.75-4.76-.75-2.38-.47-4.76-.47-2.39,1.22-4.77,1.22-2.38-.59-4.76-.59-2.39.11-4.77.11-2.38-.1-4.77-.1-2.38.57-4.76.57-2.39-1.14-4.77-1.14-2.38.85-4.77.85-2.38-.65-4.77-.65-2.39.21-4.77.21-3.53,2.29-5.24.62-.18-2.82-.18-5.16.61-2.34.61-4.68-.21-2.34-.21-4.68.35-2.34.35-4.68.44-2.34.44-4.69-.44-2.34-.44-4.69-1.35-2.61.31-4.27,1.93-.84,4.27-.84,2.34.28,4.68.28,2.34.61,4.68.61,2.34.17,4.68.17,2.35,0,4.69,0,2.34-.15,4.68-.15,2.35-.18,4.69-.18,2.34.25,4.68.25,2.34-.23,4.68-.23,2.35-.8,4.69-.8,2.35.88,4.69.88,2.34-1,4.68-1,2.35.21,4.69.21,2.34,1.08,4.69,1.08,2.34-.35,4.68-.35,2.34-.16,4.69-.16,2.34-.37,4.68-.37,2.35.44,4.69.44,2.34.31,4.69.31,2.34-.93,4.69-.93,2.34.83,4.68.83,2.35-.27,4.69-.27,2.35.22,4.69.22,2.34.13,4.69.13,2.34-.15,4.69-.15,2.34-.54,4.69-.54,2.34-.56,4.69-.56,2.34.64,4.68.64,2.34.55,4.69.55,2.34-.85,4.68-.85,2.35,1,4.69,1,2.35-1.28,4.69-1.28,2.35.22,4.69.22,2.35-.2,4.69-.2,2.35.38,4.69.38,2.35.11,4.69.11h4.7c2.35,0,2.35-.26,4.69-.26s3.38-1.61,4.85.22-.65,2.46-1.12,4.8-.05,2.42-.51,4.77-.21,2.39-.67,4.73-.73,2.29-1.2,4.63-1,2.24-1.41,4.59-.82,2.31-.71,4.7C267.23,571.4,268.31,572.31,266.46,573.83Z"/><path class="cls-5" d="M266.46,573.83c-1.83,1.51-2.79-1.16-5.16-1.16s-2.38.08-4.76.08-2.39.58-4.77.58S249.39,573,247,573s-2.38.83-4.76.83-2.38-1.16-4.76-1.16-2.38.91-4.76.91-2.38-.83-4.77-.83l-4.76,0c-2.38,0-2.38.51-4.76.51s-2.38.14-4.76.14-2.38-.25-4.77-.25-2.38-.19-4.76-.19-2.38.23-4.76.23-2.38-.58-4.77-.58-2.38,1.06-4.76,1.06-2.38-1-4.76-1-2.39.33-4.77.33-2.38.45-4.76.45-2.39,0-4.77,0-2.38-.51-4.76-.51-2.39-.37-4.77-.37-2.38.62-4.76.62-2.39-.67-4.77-.67-2.38,1.3-4.77,1.3-2.38-.75-4.76-.75-2.38-.47-4.76-.47-2.39,1.22-4.77,1.22-2.38-.59-4.76-.59-2.39.11-4.77.11-2.38-.1-4.77-.1-2.38.57-4.76.57-2.39-1.14-4.77-1.14-2.38.85-4.77.85-2.38-.65-4.77-.65-2.39.21-4.77.21-3.53,2.29-5.24.62-.18-2.82-.18-5.16.61-2.34.61-4.68-.21-2.34-.21-4.68.35-2.34.35-4.68.44-2.34.44-4.69-.44-2.34-.44-4.69-1.35-2.61.31-4.27,1.93-.84,4.27-.84,2.34.28,4.68.28,2.34.61,4.68.61,2.34.17,4.68.17,2.35,0,4.69,0,2.34-.15,4.68-.15,2.35-.18,4.69-.18,2.34.25,4.68.25,2.34-.23,4.68-.23,2.35-.8,4.69-.8,2.35.88,4.69.88,2.34-1,4.68-1,2.35.21,4.69.21,2.34,1.08,4.69,1.08,2.34-.35,4.68-.35,2.34-.16,4.69-.16,2.34-.37,4.68-.37,2.35.44,4.69.44,2.34.31,4.69.31,2.34-.93,4.69-.93,2.34.83,4.68.83,2.35-.27,4.69-.27,2.35.22,4.69.22,2.34.13,4.69.13,2.34-.15,4.69-.15,2.34-.54,4.69-.54,2.34-.56,4.69-.56,2.34.64,4.68.64,2.34.55,4.69.55,2.34-.85,4.68-.85,2.35,1,4.69,1,2.35-1.28,4.69-1.28,2.35.22,4.69.22,2.35-.2,4.69-.2,2.35.38,4.69.38,2.35.11,4.69.11h4.7c2.35,0,2.35-.26,4.69-.26s3.38-1.61,4.85.22-.65,2.46-1.12,4.8-.05,2.42-.51,4.77-.21,2.39-.67,4.73-.73,2.29-1.2,4.63-1,2.24-1.41,4.59-.82,2.31-.71,4.7C267.23,571.4,268.31,572.31,266.46,573.83Z"/><path class="cls-10" d="M102.55,551.19c-.94.58.44,1.32.44,2.43s-.24,1.11-.24,2.21.09,1.11.09,2.21,0,1.11,0,2.22-1,1.38,0,2,.84-.13,1.72-.68.59-1,1.47-1.55,1.06-.26,1.94-.81,1-.31,1.92-.86,1.26-.35,1.26-1.39-.51-.62-1.39-1.18-.78-.71-1.65-1.26-1.06-.27-1.93-.83-1.13-.29-1.84-1.06C103.47,551.68,103.43,550.64,102.55,551.19Z"/><path class="cls-10" d="M126.22,551.6c-.93.59,0,.91,0,2s.09,1.11.09,2.21.12,1.11.12,2.21-.34,1.11-.34,2.22-.75,1.38.19,2,.76-.25,1.63-.81,1-.42,1.84-1,.66-.9,1.54-1.45,1.11-.18,2-.73S135,558,135,556.94s-.9-.74-1.78-1.3-.9-.51-1.78-1.06-1.13-.15-2-.71-.71-.78-1.43-1.52S127.11,551.05,126.22,551.6Z"/><path class="cls-10" d="M139.9,562.52c-.55.94-1.59.82-2.14-.12-.94-1.58-.27-1.77-.27-3.61s.12-1.85.12-3.69-1.3-2.33-.36-3.92a1.8,1.8,0,0,1,2.86.06c.93,1.58-.52,2-.52,3.85s-.42,1.93-.11,3.75S140.84,560.93,139.9,562.52Z"/><path class="cls-10" d="M164.33,562.47c.94-.59-.12-1.1-.12-2.21s.34-1.1.34-2.21.06-1.1.06-2.21-.06-1.11-.06-2.22.62-1.46-.32-2-.9.19-1.78.74-.9.51-1.78,1.06-.68.87-1.56,1.42-.77.73-1.65,1.29-1.59-.18-1.59.86.57.54,1.44,1.09.72.82,1.59,1.37,1.15.12,2,.68,1.07.4,1.79,1.15S163.45,563,164.33,562.47Z"/><path class="cls-10" d="M154.08,553.67c-.56.35-.08.62-.08,1.28s.12.66.12,1.32-.05.67-.05,1.33.18.66.18,1.32-.68.85-.12,1.21.5-.13,1-.46.55-.29,1.08-.62.49-.38,1-.71.56-.28,1.09-.62.84-.16.84-.78-.41-.28-.94-.61-.55-.29-1.07-.62-.57-.26-1.09-.6a3.39,3.39,0,0,1-.94-.83C154.66,553.79,154.61,553.34,154.08,553.67Z"/><path class="cls-14" d="M167.28,551.41a7.73,7.73,0,0,1,3.17,2.21c.66.83,1.78,1.8,1.78,3.32s-1.17,2.42-1.8,3.25c-1.21,1.58-1,1.65-2.74,2.15"/><path class="cls-10" d="M167.61,555.21c.28-.52.56.15.95.64a1.73,1.73,0,0,1,.25,1.09c0,.47.07.91-.13,1.17-.37.49-.78,1.08-1.06.58s-.05-.59-.06-1.17a4.83,4.83,0,0,0,0-1.14C167.45,555.79,167.33,555.71,167.61,555.21Z"/><path class="cls-15" d="M167.61,555.21c.28-.52.56.15.95.64a1.73,1.73,0,0,1,.25,1.09c0,.47.07.91-.13,1.17-.37.49-.78,1.08-1.06.58s-.05-.59-.06-1.17a4.83,4.83,0,0,0,0-1.14C167.45,555.79,167.33,555.71,167.61,555.21Z"/><path d="M550.59,573.46c-2.27.43-2.33-.53-4.65-.53s-2.31.9-4.63.9-2.31-.08-4.62-.08-2.31-.39-4.63-.39-2.31.3-4.62.3-2.31-.7-4.63-.7-2.31,1-4.63,1-2.31-.68-4.63-.68-2.31.41-4.63.41-2.31-.63-4.62-.63-2.32.7-4.63.7-2.32-1-4.64-1-2.31.23-4.63.23-2.51,1.37-4.3-.1-1-1.91-1.5-4.25-.26-2.42-.81-4.76l-1.12-4.68c-.56-2.34-1.18-2.19-1.74-4.53s.1-2.5-.46-4.84-.21-2.43-.77-4.77-2.95-2.45-1.53-4.39,2.07.54,4.35.54,2.28-.76,4.55-.76,2.28-.38,4.56-.38,2.28.39,4.56.39,2.27.2,4.55.2,2.28-.51,4.56-.51,2.28-.19,4.56-.19,2.27.32,4.55.32,2.28.13,4.56.13,2.28.52,4.56.52,2.29-.88,4.57-.88a41.82,41.82,0,0,1,1.25,4.95c.25,1.32-.23,3,.27,4.7a41.54,41.54,0,0,0,1.51,4.43,36.6,36.6,0,0,0,1.69,4.42c.74,1.31,2.28,2.2,3.24,3.49a34,34,0,0,0,3.34,3.2c1.05,1.08,1.64,2.73,2.91,3.7a35.62,35.62,0,0,0,4,2.41A37.45,37.45,0,0,0,550.59,573.46Z"/><path class="cls-5" d="M550.59,573.46c-2.27.43-2.33-.53-4.65-.53s-2.31.9-4.63.9-2.31-.08-4.62-.08-2.31-.39-4.63-.39-2.31.3-4.62.3-2.31-.7-4.63-.7-2.31,1-4.63,1-2.31-.68-4.63-.68-2.31.41-4.63.41-2.31-.63-4.62-.63-2.32.7-4.63.7-2.32-1-4.64-1-2.31.23-4.63.23-2.51,1.37-4.3-.1-1-1.91-1.5-4.25-.26-2.42-.81-4.76l-1.12-4.68c-.56-2.34-1.18-2.19-1.74-4.53s.1-2.5-.46-4.84-.21-2.43-.77-4.77-2.95-2.45-1.53-4.39,2.07.54,4.35.54,2.28-.76,4.55-.76,2.28-.38,4.56-.38,2.28.39,4.56.39,2.27.2,4.55.2,2.28-.51,4.56-.51,2.28-.19,4.56-.19,2.27.32,4.55.32,2.28.13,4.56.13,2.28.52,4.56.52,2.29-.88,4.57-.88a41.82,41.82,0,0,1,1.25,4.95c.25,1.32-.23,3,.27,4.7a41.54,41.54,0,0,0,1.51,4.43,36.6,36.6,0,0,0,1.69,4.42c.74,1.31,2.28,2.2,3.24,3.49a34,34,0,0,0,3.34,3.2c1.05,1.08,1.64,2.73,2.91,3.7a35.62,35.62,0,0,0,4,2.41A37.45,37.45,0,0,0,550.59,573.46Z"/><path class="cls-7" d="M212.2,540.55c-.7.77-1,0-2.09,0s-1-.23-2.08-.23-1,.51-2.08.51-1-.22-2.09-.22-1,.09-2.08.09H199.7c-1,0-1,.1-2.08.1s-1.05-.45-2.09-.45-1,.48-2.08.48-1-.32-2.08-.32-1.05-.26-2.09-.26-1,.58-2.09.58-1-.36-2.08-.36-1-.17-2.08-.17-1.05.3-2.09.3-1,.07-2.08.07-1-.31-2.09-.31-1,.16-2.08.16-1-.1-2.09-.1-1,.41-2.08.41-1-.58-2.09-.58-1,0-2.08,0-1,.25-2.09.25-1-.14-2.08-.14-1.05.37-2.09.37-1-.52-2.08-.52-1,.41-2.09.41-1-.37-2.09-.37h-2.08c-1.05,0-1.05.22-2.09.22s-1,.07-2.08.07-1.05-.11-2.09-.11-1-.09-2.09-.09-1,.1-2.08.1-1-.25-2.08-.25-1.05.47-2.09.47-1-.43-2.08-.43-1,.15-2.09.15-1,.19-2.08.19-1,0-2.09,0-1-.23-2.08-.23-1-.16-2.09-.16-1,.27-2.09.27-1-.3-2.08-.3-1,.58-2.09.58-1-.33-2.09-.33-1-.21-2.09-.21-1,.54-2.09.54-1-.26-2.08-.26-1,.05-2.09.05-1-.05-2.09-.05-1,.26-2.09.26-1-.51-2.09-.51-1,.38-2.09.38-1-.29-2.09-.29-1,.09-2.09.09-1.05.36-2.1.36-1.56.65-2.3-.09.19-1.27.19-2.34-.09-1.07-.09-2.14-.6-1.33.14-2.1,1,.21,2.05.21,1-.2,2.07-.2,1,.21,2.08.21,1-.44,2.07-.44,1,.12,2.08.12,1,.27,2.07.27,1,.08,2.07.08h2.08c1,0,1-.07,2.07-.07s1-.08,2.08-.08,1,.11,2.08.11,1-.1,2.08-.1,1-.35,2.07-.35,1,.38,2.08.38,1-.43,2.07-.43,1,.1,2.08.1,1,.47,2.07.47,1-.15,2.08-.15,1-.07,2.08-.07,1-.17,2.08-.17,1,.2,2.07.2,1,.14,2.08.14,1-.42,2.07-.42,1,.37,2.08.37,1-.12,2.08-.12,1,.1,2.08.1,1,.06,2.07.06,1-.07,2.08-.07,1-.24,2.08-.24,1-.25,2.08-.25,1,.29,2.08.29,1,.24,2.07.24,1-.37,2.08-.37,1,.45,2.08.45,1-.56,2.07-.56,1,.09,2.08.09,1-.08,2.08-.08,1,.16,2.07.16,1,.06,2.08.06h2.07c1,0,1-.12,2.08-.12s1,.07,2.08.07,1,.1,2.08.1,1-.19,2.08-.19,1-.11,2.08-.11,1,.12,2.08.12,1,.21,2.08.21,1-.1,2.08-.1,1,.13,2.08.13,1-.21,2.08-.21,1,0,2.08,0,1-.06,2.08-.06,1,0,2.08,0,1,.57,2.08.57,1-.09,2.08-.09,1-.46,2.08-.46,1.05.1,2.09.1,1.12-.34,1.88.38.1.86.18,1.93a6.64,6.64,0,0,0,.41,2.1C212.43,539.49,212.92,539.75,212.2,540.55Z"/><path d="M569,573.21a18.38,18.38,0,0,0,4.84.53c2.43,0,2.43-.9,4.86-.9s2.43.08,4.85.08,2.44.39,4.87.39,2.43-.3,4.86-.3,2.43.7,4.86.7,2.43-1,4.86-1,2.43.68,4.86.68,2.43-.41,4.86-.41,2.44.63,4.87.63,2.76,1,4.61-.6,1.1-2,1.41-4.31.08-2.37.39-4.71.52-2.31.83-4.65-.27-2.42,0-4.76.61-2.3.92-4.64.3-2.35.61-4.69,1.71-2.74.08-4.46-2.23-.55-4.76-.55-2.52-.35-5-.35-2.52.38-5,.38-2.52-.44-5-.44-2.53.76-5.05.76-2.52.38-5,.38-2.65-1.23-5-.39c-2.2.78-.22,1.73-.75,4.53a36.27,36.27,0,0,1-.61,4.66,44,44,0,0,1-1.41,4.49,43.43,43.43,0,0,1-2.35,4.09,38,38,0,0,1-2.67,3.84c-.9,1.21-2.29,2-3.41,3.18s-1.64,2.77-2.91,3.74a35.1,35.1,0,0,1-3.85,2.78C572.22,572.64,570.51,572.61,569,573.21Z"/><path class="cls-5" d="M569,573.21a18.38,18.38,0,0,0,4.84.53c2.43,0,2.43-.9,4.86-.9s2.43.08,4.85.08,2.44.39,4.87.39,2.43-.3,4.86-.3,2.43.7,4.86.7,2.43-1,4.86-1,2.43.68,4.86.68,2.43-.41,4.86-.41,2.44.63,4.87.63,2.76,1,4.61-.6,1.1-2,1.41-4.31.08-2.37.39-4.71.52-2.31.83-4.65-.27-2.42,0-4.76.61-2.3.92-4.64.3-2.35.61-4.69,1.71-2.74.08-4.46-2.23-.55-4.76-.55-2.52-.35-5-.35-2.52.38-5,.38-2.52-.44-5-.44-2.53.76-5.05.76-2.52.38-5,.38-2.65-1.23-5-.39c-2.2.78-.22,1.73-.75,4.53a36.27,36.27,0,0,1-.61,4.66,44,44,0,0,1-1.41,4.49,43.43,43.43,0,0,1-2.35,4.09,38,38,0,0,1-2.67,3.84c-.9,1.21-2.29,2-3.41,3.18s-1.64,2.77-2.91,3.74a35.1,35.1,0,0,1-3.85,2.78C572.22,572.64,570.51,572.61,569,573.21Z"/><path d="M787,573.24c1.79,1.54,2.28.5,4.65.5s2.36-.9,4.73-.9,2.36.08,4.72.08,2.36.39,4.73.39,2.36-.3,4.72-.3,2.37.7,4.73.7,2.36-1,4.72-1,2.36.68,4.72.68,2.37-.41,4.73-.41,2.36.63,4.73.63,2.36-.7,4.72-.7,2.37,1,4.73,1,2.36-.23,4.72-.23,2.37.22,4.73.22,2.37-.59,4.73-.59,2.37.31,4.73.31h4.72c2.37,0,2.37-.65,4.73-.65s2.37.68,4.73.68,2.37.36,4.73.36,2.36-.39,4.73-.39,2.36.44,4.73.44,2.36-.76,4.72-.76,2.37-.38,4.73-.38,2.37.39,4.73.39,2.37.2,4.73.2,2.37-.51,4.73-.51,2.37-.19,4.73-.19,2.37.32,4.73.32,2.37.13,4.73.13,2.37.52,4.74.52,2.36-.88,4.73-.88,2.36-.21,4.72-.21,2.37.85,4.73.85,2.37.08,4.73.08,2.37.43,4.73.43,2.37-.82,4.73-.82,2.37-.44,4.74-.44,2.36.84,4.73.84,2.36-.2,4.73-.2,2.37.35,4.73.35,2.37-.75,4.74-.75,2.37-.13,4.74-.13,2.91,2,4.6.32,0-2.2,0-4.54-.29-2.34-.29-4.68.91-2.34.91-4.68-.94-2.34-.94-4.68.47-2.34.47-4.69.58-2.34.58-4.69,1.62-3.53-.05-5.18-2.86.63-5.23.63-2.37.57-4.74.57-2.36-1-4.73-1-2.37.31-4.73.31-2.37-.27-4.74-.27-2.36-.44-4.73-.44-2.37,1.21-4.73,1.21-2.37-.26-4.74-.26-2.36-.07-4.73-.07-2.36,0-4.73,0-2.37.48-4.73.48-2.37-.61-4.74-.61-2.37.06-4.73.06h-4.73c-2.37,0-2.37.58-4.74.58s-2.37-1.05-4.74-1.05-2.36.53-4.73.53-2.37.32-4.74.32-2.36-.22-4.73-.22-2.37-.9-4.74-.9-2.37,1.19-4.73,1.19-2.37-.9-4.74-.9-2.37.26-4.74.26-2.36-.56-4.73-.56-2.37,1.2-4.74,1.2-2.37-.24-4.74-.24-2.36-.23-4.73-.23-2.37-.63-4.74-.63-2.37.85-4.74.85-2.37-.28-4.74-.28h-4.73c-2.37,0-2.37-.4-4.74-.4s-2.37.79-4.74.79-2.37.19-4.74.19-2.37-.41-4.74-.41-2.36-.81-4.73-.81-2.37.1-4.74.1-2.37,1-4.74,1-2.37-.82-4.74-.82-2.37,0-4.74,0h-4.74c-2.37,0-2.37,0-4.74,0s-2.37-.42-4.74-.42-2.37.67-4.75.67-3-1.66-4.56.15-.26,2.24.11,4.58.24,2.36.6,4.71.47,2.32.83,4.66,1.19,2.21,1.55,4.55-.5,2.48-.14,4.82.7,2.22.62,4.6S785.23,571.7,787,573.24Z"/><path class="cls-5" d="M787,573.24c1.79,1.54,2.28.5,4.65.5s2.36-.9,4.73-.9,2.36.08,4.72.08,2.36.39,4.73.39,2.36-.3,4.72-.3,2.37.7,4.73.7,2.36-1,4.72-1,2.36.68,4.72.68,2.37-.41,4.73-.41,2.36.63,4.73.63,2.36-.7,4.72-.7,2.37,1,4.73,1,2.36-.23,4.72-.23,2.37.22,4.73.22,2.37-.59,4.73-.59,2.37.31,4.73.31h4.72c2.37,0,2.37-.65,4.73-.65s2.37.68,4.73.68,2.37.36,4.73.36,2.36-.39,4.73-.39,2.36.44,4.73.44,2.36-.76,4.72-.76,2.37-.38,4.73-.38,2.37.39,4.73.39,2.37.2,4.73.2,2.37-.51,4.73-.51,2.37-.19,4.73-.19,2.37.32,4.73.32,2.37.13,4.73.13,2.37.52,4.74.52,2.36-.88,4.73-.88,2.36-.21,4.72-.21,2.37.85,4.73.85,2.37.08,4.73.08,2.37.43,4.73.43,2.37-.82,4.73-.82,2.37-.44,4.74-.44,2.36.84,4.73.84,2.36-.2,4.73-.2,2.37.35,4.73.35,2.37-.75,4.74-.75,2.37-.13,4.74-.13,2.91,2,4.6.32,0-2.2,0-4.54-.29-2.34-.29-4.68.91-2.34.91-4.68-.94-2.34-.94-4.68.47-2.34.47-4.69.58-2.34.58-4.69,1.62-3.53-.05-5.18-2.86.63-5.23.63-2.37.57-4.74.57-2.36-1-4.73-1-2.37.31-4.73.31-2.37-.27-4.74-.27-2.36-.44-4.73-.44-2.37,1.21-4.73,1.21-2.37-.26-4.74-.26-2.36-.07-4.73-.07-2.36,0-4.73,0-2.37.48-4.73.48-2.37-.61-4.74-.61-2.37.06-4.73.06h-4.73c-2.37,0-2.37.58-4.74.58s-2.37-1.05-4.74-1.05-2.36.53-4.73.53-2.37.32-4.74.32-2.36-.22-4.73-.22-2.37-.9-4.74-.9-2.37,1.19-4.73,1.19-2.37-.9-4.74-.9-2.37.26-4.74.26-2.36-.56-4.73-.56-2.37,1.2-4.74,1.2-2.37-.24-4.74-.24-2.36-.23-4.73-.23-2.37-.63-4.74-.63-2.37.85-4.74.85-2.37-.28-4.74-.28h-4.73c-2.37,0-2.37-.4-4.74-.4s-2.37.79-4.74.79-2.37.19-4.74.19-2.37-.41-4.74-.41-2.36-.81-4.73-.81-2.37.1-4.74.1-2.37,1-4.74,1-2.37-.82-4.74-.82-2.37,0-4.74,0h-4.74c-2.37,0-2.37,0-4.74,0s-2.37-.42-4.74-.42-2.37.67-4.75.67-3-1.66-4.56.15-.26,2.24.11,4.58.24,2.36.6,4.71.47,2.32.83,4.66,1.19,2.21,1.55,4.55-.5,2.48-.14,4.82.7,2.22.62,4.6S785.23,571.7,787,573.24Z"/><path class="cls-16" d="M981.11,559.68c0,1.92,1.72,2.86.34,4.21s-2.33-.33-4.31-.33"/><path class="cls-16" d="M976.66,551.4c2.22,0,3.25-1.93,4.8-.34s-.33,2.62-.33,4.89"/><path class="cls-16" d="M969,555.65c0-2.12-1.81-3-.36-4.58s2.37.31,4.37.31"/><path class="cls-16" d="M973,563.54c-2,0-3,1.8-4.37.32s.34-2.53.34-4.72"/><path class="cls-7" d="M527.32,279.68c-3.45,2.17-.7,4.27-.7,8.34s1.53,4.08,1.53,8.15.59,4.07.59,8.15-.29,4.07-.29,8.15-4.09,5.4-.64,7.57c3.23,2,2.23-2.46,5.47-4.5s3.6-1.45,6.83-3.49,4.16-.55,7.4-2.59,2.06-3.89,5.3-5.93,5.81.54,5.82-3.28-1.88-2.35-5.11-4.38-3-2.39-6.24-4.43-3-2.44-6.22-4.48-4.38-.35-7-3.13C531,280.65,530.56,277.64,527.32,279.68Z"/><path class="cls-7" d="M609.39,60.54a3.66,3.66,0,0,0-1-2.8,3.77,3.77,0,0,0-2.81-1.11c-1.14,0-2.41,0-3.16.75a4.46,4.46,0,0,0-.83,3.16,4.16,4.16,0,0,0,1,3,4.6,4.6,0,0,0,3,1.5,4.45,4.45,0,0,0,2.89-1.64A3.79,3.79,0,0,0,609.39,60.54Z"/><path class="cls-11" d="M609.39,60.54a3.66,3.66,0,0,0-1-2.8,3.77,3.77,0,0,0-2.81-1.11c-1.14,0-2.41,0-3.16.75a4.46,4.46,0,0,0-.83,3.16,4.16,4.16,0,0,0,1,3,4.6,4.6,0,0,0,3,1.5,4.45,4.45,0,0,0,2.89-1.64A3.79,3.79,0,0,0,609.39,60.54Z"/><path d="M629.42,81.19a3.25,3.25,0,0,0-1-2.6c-.75-.75-1.44-2-2.59-2a5.22,5.22,0,0,0-3.36,1.22,5.08,5.08,0,0,0-1.07,3.37,5,5,0,0,0,1.14,3.28,5.26,5.26,0,0,0,3.29,1.47A5.17,5.17,0,0,0,629,84.39C629.77,83.64,629.42,82.33,629.42,81.19Z"/><path class="cls-2" d="M641.42,3.73c0-1.14.28-2.56-.47-3.31s-2.17-.26-3.31-.26-2.38-.31-3.13.44a4.37,4.37,0,0,0-.79,3.13,4.08,4.08,0,0,0,.92,3,4.22,4.22,0,0,0,3,1.18,4.39,4.39,0,0,0,3.07-1.1C641.46,6.06,641.42,4.88,641.42,3.73Z"/><path class="cls-7" d="M446.89,53.38a4.31,4.31,0,0,0,7.45,3,4.46,4.46,0,0,0-3-7.47,5.38,5.38,0,0,0-4.43,4.44Z"/><path class="cls-11" d="M446.89,53.38a4.31,4.31,0,0,0,7.45,3,4.46,4.46,0,0,0-3-7.47,5.38,5.38,0,0,0-4.43,4.44Z"/><path d="M427.29,32.74c0,1.14-.26,2.58.49,3.33a5.05,5.05,0,0,0,3.34,1.07,5,5,0,0,0,3.3-1.1,4.94,4.94,0,0,0,1-3.3A4.33,4.33,0,0,0,434,29.81a4.47,4.47,0,0,0-2.92-1.55,4.41,4.41,0,0,0-2.87,1.61A3.8,3.8,0,0,0,427.29,32.74Z"/><path class="cls-2" d="M414.94,110.19c0,1.15,1,1.84,1.76,2.59a3.18,3.18,0,0,0,2.59,1c1.14,0,2.17.11,2.92-.64a4,4,0,0,0,1-2.92c0-1.14,0-2.45-.74-3.2s-2.06-.4-3.2-.4a3.22,3.22,0,0,0-2.59,1C416,108.36,414.94,109.05,414.94,110.19Z"/><path class="cls-7" d="M160.12,366.93c0-1.15.25-2.53-.5-3.28a4.81,4.81,0,0,0-3.28-.9c-1.15,0-1.84.84-2.59,1.59s-1.56,1.44-1.56,2.59a4.52,4.52,0,0,0,1,3.15c.75.75,2,.51,3.15.51a3.55,3.55,0,0,0,2.8-.86A3.66,3.66,0,0,0,160.12,366.93Z"/><path class="cls-11" d="M160.12,366.93c0-1.15.25-2.53-.5-3.28a4.81,4.81,0,0,0-3.28-.9c-1.15,0-1.84.84-2.59,1.59s-1.56,1.44-1.56,2.59a4.52,4.52,0,0,0,1,3.15c.75.75,2,.51,3.15.51a3.55,3.55,0,0,0,2.8-.86A3.66,3.66,0,0,0,160.12,366.93Z"/><path d="M180.45,387.58c0-1.15.14-2.55-.61-3.3s-2.15-.79-3.3-.79a4.05,4.05,0,0,0-2.91,1.17,4.16,4.16,0,0,0-1.28,2.92,4.06,4.06,0,0,0,1.35,2.84,3.94,3.94,0,0,0,2.84,1.23,4.25,4.25,0,0,0,3-1A4.15,4.15,0,0,0,180.45,387.58Z"/><path class="cls-2" d="M192.77,310.12a4.68,4.68,0,0,0-1.25-3.14,4.82,4.82,0,0,0-3.15-1.37c-1.14,0-2,1-2.72,1.79s-1.78,1.57-1.78,2.72,1.23,1.77,2,2.52,1.38,2,2.52,2,1.95-1,2.7-1.79S192.77,311.26,192.77,310.12Z"/><path class="cls-7" d="M931.56,338a4.92,4.92,0,0,0,3.19,1.37,5.09,5.09,0,0,0,3.3-1.26,4.92,4.92,0,0,0,1-3.3,4.7,4.7,0,0,0-1.14-3.2,4.48,4.48,0,0,0-3.2-.86,4.07,4.07,0,0,0-3,1.1,4.63,4.63,0,0,0-1.56,3A4.88,4.88,0,0,0,931.56,338Z"/><path class="cls-11" d="M931.56,338a4.92,4.92,0,0,0,3.19,1.37,5.09,5.09,0,0,0,3.3-1.26,4.92,4.92,0,0,0,1-3.3,4.7,4.7,0,0,0-1.14-3.2,4.48,4.48,0,0,0-3.2-.86,4.07,4.07,0,0,0-3,1.1,4.63,4.63,0,0,0-1.56,3A4.88,4.88,0,0,0,931.56,338Z"/><path d="M902.53,337.85c.81.81,2.27.32,3.33.32s2.3.27,3.11-.54.74-2.05.74-3.11a4,4,0,0,0-.83-3c-.81-.81-2-.58-3-.58a3.15,3.15,0,0,0-3.59,3.6C902.27,335.58,901.72,337,902.53,337.85Z"/><path class="cls-2" d="M949.19,400.73c.81.81,2,.58,3.08.58a3.18,3.18,0,0,0,2.51-1.15c.81-.81,1.62-1.45,1.62-2.51a4,4,0,0,0-1.35-2.78c-.81-.81-1.72-1.74-2.78-1.74s-1.74,1.17-2.55,2a3.2,3.2,0,0,0-1.11,2.54C948.61,398.71,948.38,399.92,949.19,400.73Z"/><path class="cls-7" d="M482.06,154.69c1.15,0,2.53.26,3.28-.5a4.76,4.76,0,0,0,.9-3.28c0-1.15-.84-1.84-1.59-2.59s-1.44-1.56-2.59-1.56a4.52,4.52,0,0,0-3.15,1c-.75.75-.51,2-.51,3.15a3.59,3.59,0,0,0,.86,2.8A3.66,3.66,0,0,0,482.06,154.69Z"/><path class="cls-11" d="M482.06,154.69c1.15,0,2.53.26,3.28-.5a4.76,4.76,0,0,0,.9-3.28c0-1.15-.84-1.84-1.59-2.59s-1.44-1.56-2.59-1.56a4.52,4.52,0,0,0-3.15,1c-.75.75-.51,2-.51,3.15a3.59,3.59,0,0,0,.86,2.8A3.66,3.66,0,0,0,482.06,154.69Z"/><path d="M461.42,175c1.14,0,2.54.14,3.29-.61s.79-2.15.79-3.3a4.05,4.05,0,0,0-1.17-2.91,4.15,4.15,0,0,0-2.91-1.28,4.06,4.06,0,0,0-2.85,1.35,3.94,3.94,0,0,0-1.23,2.84,4.25,4.25,0,0,0,1,3A4.16,4.16,0,0,0,461.42,175Z"/><path class="cls-2" d="M538.87,187.34a4.63,4.63,0,0,0,3.14-1.26c.75-.75.43-2,.43-3.14a3.15,3.15,0,0,0-3.57-3.6,3.17,3.17,0,0,0-2.58,1c-.75.75-1.78,1.43-1.78,2.57a3.84,3.84,0,0,0,4.36,4.4Z"/><path class="cls-7" d="M105.32,97.87c-1.15,0-2.13-1.1-2.88-1.86a3.74,3.74,0,0,1-.81-2.88c0-1.14,0-2.19.74-2.94s1.8-1.79,2.95-1.79,2.1,1.13,2.85,1.88a4.35,4.35,0,0,1,1.58,2.85,5.11,5.11,0,0,1-1.09,3.35A5.36,5.36,0,0,1,105.32,97.87Z"/><path class="cls-11" d="M105.32,97.87c-1.15,0-2.13-1.1-2.88-1.86a3.74,3.74,0,0,1-.81-2.88c0-1.14,0-2.19.74-2.94s1.8-1.79,2.95-1.79,2.1,1.13,2.85,1.88a4.35,4.35,0,0,1,1.58,2.85,5.11,5.11,0,0,1-1.09,3.35A5.36,5.36,0,0,1,105.32,97.87Z"/><path d="M126,117.35c-1.14,0-2.57.06-3.32-.69s-.79-2.18-.79-3.32a3.88,3.88,0,0,1,1.34-2.77c.75-.75,1.63-1.82,2.77-1.82a4.66,4.66,0,0,1,2.94,1.66,4.54,4.54,0,0,1,1.61,2.93c0,1.14-1.21,1.84-2,2.59A3.58,3.58,0,0,1,126,117.35Z"/></g></g></g></svg>