<svg xmlns="http://www.w3.org/2000/svg" viewBox="0 0 650.02 65.79"><defs><style>.cls-1{fill:#e6b49d;}.cls-2{font-size:37.54px;font-family:PTSerif-Regular, PT Serif;}.cls-3{letter-spacing:0em;}</style></defs><g id="Layer_2" data-name="Layer 2"><g id="sect2"><g id="copy"><path class="cls-1" d="M648.76,43.11c-1.27,1.14-1.39.36-3.09.36s-1.71.37-3.42.37-1.7-.87-3.41-.87-1.7,1-3.41,1-1.71-.55-3.41-.55-1.71.44-3.42.44-1.7-.37-3.41-.37-1.7.32-3.41.32h-3.41c-1.71,0-1.71-.38-3.42-.38s-1.7-.46-3.41-.46-1.71.33-3.41.33-1.71,0-3.42,0-1.71-.15-3.41-.15-1.71.26-3.42.26-1.71-.48-3.41-.48-1.71.26-3.42.26-1.7.39-3.41.39-1.7.15-3.41.15-1.71-.77-3.41-.77-1.71.14-3.42.14-1.7-.24-3.41-.24-1.71.53-3.42.53-1.7-.54-3.41-.54-1.71.5-3.42.5-1.7-.15-3.41-.15-1.71-.25-3.42-.25-1.7.13-3.41.13-1.71.22-3.41.22-1.71-.07-3.42-.07S545,43,543.26,43h-3.41c-1.71,0-1.71.6-3.42.6S534.72,43,533,43s-1.71.5-3.42.5-1.71-.5-3.42-.5-1.7-.12-3.41-.12h-3.41c-1.71,0-1.71.75-3.42.75s-1.71-.19-3.41-.19-1.71-.15-3.42-.15-1.7.56-3.41.56-1.71-.7-3.42-.7-1.71.75-3.41.75h-3.42c-1.71,0-1.71-.33-3.41-.33s-1.71-.07-3.42-.07-1.71-.57-3.41-.57-1.71,1-3.42,1-1.71,0-3.41,0-1.71,0-3.42,0-1.71-.78-3.41-.78-1.71.45-3.42.45-1.71-.22-3.41-.22-1.71.3-3.42.3-1.71.24-3.42.24-1.7-.44-3.41-.44l-3.42,0c-1.7,0-1.7.24-3.41.24s-1.7-.14-3.41-.14-1.7-.23-3.41-.23-1.7,0-3.41,0-1.7.27-3.41.27-1.71-.72-3.41-.72-1.71.68-3.42.68-1.71-.31-3.42-.31-1.7-.15-3.41-.15-1.71-.21-3.42-.21-1.7.1-3.41.1-1.7.87-3.41.87-1.71-.31-3.41-.31-1.71,0-3.42,0-1.71.36-3.41.36-1.71-.58-3.42-.58-1.71-.32-3.42-.32-1.7,0-3.41,0-1.71.85-3.41.85-1.71-.37-3.42-.37-1.71-.74-3.42-.74-1.71,1.05-3.41,1.05-1.71,0-3.42,0-1.71-.42-3.41-.42S367.41,43,365.7,43,364,43,362.28,43s-1.71.09-3.42.09-1.7.26-3.41.26S353.74,44,352,44s-1.71-1-3.42-1-1.71.55-3.42.55-1.7-.12-3.41-.12-1.71-.19-3.42-.19-1.71-.12-3.42-.12-1.71.12-3.42.12-1.71-.34-3.42-.34-1.7,1-3.41,1-1.71-.31-3.42-.31-1.71.33-3.42.33-1.71-.62-3.42-.62S312.72,44,311,44s-1.7-.63-3.41-.63-1.71.5-3.42.5-1.71-.8-3.42-.8-1.71.54-3.42.54-1.71.22-3.42.22-1.71,0-3.42,0-1.71-.57-3.42-.57-1.71.35-3.42.35S282,44,280.24,44,278.53,43,276.82,43s-1.71.23-3.42.23-1.71.37-3.42.37-1.72-.38-3.43-.38-2.38,1.68-3.66.55-.25-1.78-.25-3.3,1-1.52,1-3-.39-1.52-.39-3-1-1.67.17-2.69,1.39-.08,3.09-.08,1.71-.45,3.42-.45,1.7,0,3.41,0,1.7.19,3.41.19,1.71.37,3.41.37,1.71-.15,3.42-.15,1.7,0,3.41,0,1.7-.16,3.41-.16,1.71-.09,3.41-.09,1.71-.15,3.42-.15,1.7.05,3.41.05,1.71.44,3.41.44,1.71-.13,3.42-.13,1.71-.76,3.41-.76,1.71.84,3.42.84,1.71-.71,3.41-.71,1.71.7,3.42.7,1.7-.69,3.41-.69,1.71.18,3.41.18,1.71-.18,3.41-.18,1.71-.11,3.42-.11,1.7.92,3.41.92,1.71-.46,3.42-.46,1.7-.5,3.41-.5,1.71.48,3.42.48,1.7.14,3.41.14,1.71.27,3.42.27,1.7-.7,3.41-.7,1.71-.27,3.41-.27,1.71.13,3.42.13,1.7.15,3.41.15,1.71-.23,3.41-.23,1.71.31,3.42.31,1.71.81,3.41.81,1.71-1,3.42-1,1.71-.1,3.42-.1,1.7.7,3.41.7,1.71.19,3.41.19,1.71.23,3.42.23,1.71-.5,3.41-.5,1.71.23,3.42.23,1.7.13,3.41.13,1.71-1,3.42-1,1.71,1.13,3.41,1.13,1.71-1.05,3.42-1.05,1.71.17,3.41.17,1.71.06,3.42.06,1.71.37,3.41.37,1.71-.51,3.42-.51,1.71.8,3.41.8,1.71-.27,3.42-.27,1.71-.21,3.42-.21,1.7.36,3.41.36,1.71,0,3.42,0,1.7-.79,3.41-.79,1.71.75,3.42.75,1.7-.09,3.41-.09,1.71.42,3.42.42,1.7-1,3.41-1,1.7.23,3.41.23,1.7.37,3.41.37,1.7-.09,3.41-.09,1.7-.33,3.41-.33,1.71.28,3.41.28,1.71.22,3.42.22,1.71-.29,3.42-.29,1.7,0,3.41,0,1.71.15,3.41.15,1.71,0,3.42,0,1.7-.21,3.41-.21,1.71.08,3.41.08,1.71.25,3.42.25,1.71-.66,3.41-.66,1.71.74,3.42.74,1.71-.05,3.42-.05,1.7-.36,3.41-.36,1.71.09,3.41.09,1.71-.23,3.42-.23,1.71,0,3.42,0,1.71-.17,3.41-.17,1.71.28,3.42.28,1.71-.28,3.42-.28,1.7.64,3.41.64,1.71,0,3.42,0,1.71-.79,3.42-.79,1.71.56,3.41.56,1.71.32,3.42.32,1.71,0,3.42,0,1.71-.86,3.42-.86,1.71.59,3.41.59,1.71-.67,3.42-.67,1.71,1,3.42,1,1.71-.06,3.42-.06,1.71-.5,3.42-.5h3.42c1.71,0,1.71-.07,3.41-.07s1.71-.26,3.42-.26,1.71.72,3.42.72,1.71-.65,3.42-.65,1.71.89,3.41.89,1.71-.19,3.42-.19,1.71-.8,3.42-.8,1.71.26,3.42.26,1.71.62,3.42.62,1.71-1,3.42-1,1.71,1,3.42,1,1.71-.12,3.42-.12S630.25,31,632,31s1.71.91,3.42.91,1.71-.05,3.42-.05,1.71-.86,3.42-.86,1.72.26,3.43.26,1.92-.81,3.2.33.21,1.26.21,2.78-.55,1.52-.55,3,.69,1.48,1,3S649.9,42.1,648.76,43.11Z"/><text class="cls-2" transform="translate(0 31.91)">Didi &amp; Josh are finally ge<tspan class="cls-3" x="416.28" y="0">t</tspan><tspan x="430.17" y="0">ting married!</tspan></text></g></g></g></svg>