<svg xmlns="http://www.w3.org/2000/svg" viewBox="0 0 1394.48 154.1"><defs><style>.cls-1{fill:#e6b49d;}.cls-2{fill:#677d70;}.cls-3{font-size:29.25px;font-family:PTSerif-Regular, PT Serif;}.cls-10,.cls-11,.cls-3{fill:#fff;}.cls-4{letter-spacing:-0.02em;}.cls-5{letter-spacing:0em;}.cls-6{letter-spacing:-0.02em;}.cls-7{letter-spacing:-0.03em;}.cls-8{letter-spacing:-0.01em;}.cls-9{letter-spacing:-0.04em;}.cls-10{font-size:25.99px;font-family:PTSerif-Bold, PT Serif;font-weight:700;}.cls-12{fill:none;stroke:#e6b49d;stroke-linecap:round;stroke-linejoin:round;stroke-width:3.61px;}</style></defs><g id="Layer_2" data-name="Layer 2"><g id="sect7"><g id="bubbles"><path class="cls-1" d="M1012.87,134.41c1.06-1.81,0-1.79,0-3.89s0-2.1,0-4.21-.15-2.1-.15-4.2.94-2.1.94-4.21-.88-2.1-.88-4.2,1.14-2.1,1.14-4.21-.36-2.1-.36-4.2,0-2.11,0-4.21.09-2.1.09-4.21-.54-2.1-.54-4.2-.14-2.11-.14-4.21.89-2.11.89-4.21-.24-2.11-.24-4.21-.42-2.11-.42-4.22a18.05,18.05,0,0,1,.09-4,18.27,18.27,0,0,1,1.12-3.86c.56-1.18,2.19-1.73,3-2.74a16.46,16.46,0,0,1,2.83-2.5c1-.81,1.69-2.06,2.87-2.63a17.09,17.09,0,0,1,3.69-1.26c1.24-.29,2.54.25,3.87.25,2.08,0,2.08-.83,4.16-.83s2.08.09,4.16.09,2.09.18,4.17.18,2.08.35,4.16.35,2.09-.22,4.17-.22h4.16c2.09,0,2.09.16,4.17.16S1062,57.8,1064,57.8s2.08.87,4.16.87,2.08-.45,4.17-.45,2.08-.41,4.16-.41,2.08,0,4.17,0,2.08.06,4.16.06S1086.93,59,1089,59s2.08.12,4.16.12,2.08-1.15,4.16-1.15,2.09.92,4.17.92,2.08-.13,4.16-.13,2.08-1,4.17-1,2.08,1.2,4.16,1.2,2.08-.63,4.17-.63,2.08.4,4.16.4,2.08-.09,4.17-.09,2.08.44,4.16.44,2.08-1.17,4.16-1.17,2.09.69,4.17.69,2.08-.6,4.17-.6,2.08-.17,4.16-.17,2.08.62,4.17.62,2.08.72,4.16.72,2.08-.15,4.17-.15S1161.9,58,1164,58s2.08.29,4.17.29,2.08.47,4.16.47,2.08-.28,4.17-.28,2.08-.24,4.16-.24,2.09.15,4.17.15,2.08-.18,4.16-.18,2.08.47,4.16.47,2.08-.8,4.16-.8,2.08.54,4.16.54,2.08-.31,4.16-.31,2.09,0,4.17,0h4.16c2.09,0,2.09.44,4.17.44s2.08-.31,4.16-.31,2.08.06,4.16.06,2.09.89,4.17.89,2.08-1.11,4.16-1.11,2.09.37,4.17.37,2.08.75,4.16.75,2.09-1.11,4.17-1.11,2.08.33,4.16.33,2.09.7,4.17.7,2.08-1,4.17-1,2.08-.24,4.16-.24,2.08.87,4.17.87,2.08-.8,4.17-.8,2.08.47,4.16.47,2.08.38,4.17.38,2.08-.94,4.17-.94,2.08.79,4.16.79,2.09.13,4.17.13,2.08.22,4.17.22,2.08-.5,4.17-.5,2.08.08,4.16.08,2.09.7,4.17.7,2.09-.72,4.17-.72S1316,58,1318.1,58s2.08,1.22,4.16,1.22,2.09-1.28,4.17-1.28,2.08,1,4.17,1,2.08-.87,4.17-.87,2.08,0,4.16,0,2.09.55,4.17.55,2.09.51,4.17.51,2.09-.85,4.17-.85,2.09,0,4.18,0,2.08.18,4.17.18,2.08.13,4.17.13,2.08-.43,4.17-.43,2.09,0,4.18,0,2.09.51,4.17.51a17.26,17.26,0,0,1,3.83.54c1.28.29,2.78.07,3.94.62a18,18,0,0,1,3.19,2.38,17.9,17.9,0,0,1,3,2.62c.8,1,.52,2.7,1.09,3.88a15.69,15.69,0,0,1,1.45,3.48,16.66,16.66,0,0,1,.34,3.76c0,2.14.26,2.14.26,4.28s-.16,2.14-.16,4.29-.11,2.14-.11,4.28,0,2.14,0,4.29,1.1,2.14,1.1,4.28-.68,2.15-.68,4.29.78,2.14.78,4.29-1.17,2.14-1.17,4.29.09,2.14.09,4.28.18,2.15.18,4.29.13,2.15.13,4.29.14,2.15.14,4.29.46,2.15.46,4.3-.19,2.15-.19,4.29a17.26,17.26,0,0,1-.61,3.89,18,18,0,0,1-1.28,3.7,18.78,18.78,0,0,1-1.75,3.57,18,18,0,0,1-3,2.69,18.65,18.65,0,0,1-3.42,2,17.6,17.6,0,0,1-3.7,1.35,18,18,0,0,1-3.92.39c-2.08,0-2.08.39-4.17.39s-2.09-.44-4.18-.44-2.09-.07-4.18-.07-2.09.5-4.18.5-2.09-1.15-4.18-1.15-2.09.86-4.18.86-2.09.33-4.18.33-2.09-1.07-4.18-1.07-2.09-.29-4.18-.29-2.08.06-4.17.06-2.09,1-4.18,1-2.09.06-4.18.06-2.09-.35-4.18-.35-2.09.08-4.18.08-2.09.19-4.18.19-2.09-.17-4.18-.17-2.09-.16-4.18-.16-2.09-.65-4.18-.65-2.09.37-4.18.37-2.09-.12-4.18-.12-2.09-.28-4.18-.28-2.09.74-4.18.74-2.09.44-4.18.44-2.09-.43-4.17-.43-2.09.51-4.19.51-2.09-.22-4.18-.22-2.09-.22-4.18-.22-2.09.13-4.18.13-2.09,0-4.18,0-2.09-.34-4.18-.34-2.09-.09-4.18-.09-2.09.57-4.18.57-2.09-.37-4.18-.37-2.09-.6-4.18-.6-2.09.24-4.18.24-2.09.85-4.18.85-2.08-.61-4.17-.61-2.09-.12-4.18-.12-2.09-.15-4.17-.15-2.09.84-4.18.84-2.09-1-4.18-1-2.09-.13-4.18-.13-2.09.22-4.18.22-2.09.36-4.18.36-2.08-.19-4.17-.19-2.09,1-4.18,1-2.09-1-4.18-1-2.09.55-4.18.55-2.09-.89-4.18-.89-2.09.65-4.18.65-2.09.49-4.18.49-2.09.05-4.18.05-2.09-.46-4.18-.46-2.09-.11-4.18-.11-2.09-.65-4.18-.65-2.09.83-4.18.83-2.09.5-4.19.5-2.09-.31-4.18-.31-2.09-.57-4.18-.57-2.09-.09-4.18-.09-2.09-.26-4.18-.26-2.09.29-4.19.29-2.09-.24-4.18-.24-2.09.29-4.18.29-2.09,0-4.18,0-2.1.68-4.19.68-2.09-.71-4.18-.71-2.09.42-4.18.42-2.09.49-4.18.49-2.09-1.15-4.19-1.15-2.09.36-4.18.36-2.09-.54-4.18-.54-2.09.73-4.18.73-2.09-.77-4.19-.77-2.09.09-4.18.09-2.09,1-4.19,1-2.09.22-4.18.22-2.1-1.22-4.19-1.22-2.09.43-4.18.43-2.1.32-4.19.32-2.1-.2-4.19-.2-2.1.25-4.2.25c-1.47,0-1.47,0-2.94,0-2.09,0-2.09.36-4.18.36s-2.09-1.06-4.19-1.06-2.09.7-4.18.7-2.09-.06-4.18-.06-2.1.58-4.19.58-2.09-.34-4.19-.34-2.09-.2-4.18-.2-2.09-.44-4.19-.44-2.09.91-4.18.91-2.1-.87-4.19-.87-2.1.14-4.19.14-3.86,2.18-4.39.15,1.72-1.61,3.55-2.64,1.82-1,3.64-2.06,2-.69,3.85-1.71,1.64-1.37,3.47-2.39,2.39,0,4.21-1.05,1.69-1.28,3.51-2.31,1.79-1.1,3.62-2.12,1.68-1.31,3.59-2.17S1011.81,136.22,1012.87,134.41Z"/><path class="cls-2" d="M396,134.45c-1.06-1.79-.05-1.82-.05-3.9s-.29-2.08-.29-4.16-.12-2.09-.12-4.17,0-2.08,0-4.16S395,116,395,113.89s.72-2.08.72-4.17.23-2.08.23-4.16-.54-2.09-.54-4.17.66-2.08.66-4.16-.59-2.09-.59-4.17S395,91,395,88.89s-.11-2.08-.11-4.17,1-2.08,1-4.16-.63-2.09-.63-4.17.59-2.08.59-4.16-.26-2.09-.26-4.17-.22-2.08-.22-4.17.58-2.08.58-4.16-.54-2.09-.54-4.17.73-2.08.73-4.17-1-2.08-1-4.16.51-2.09.51-4.17.27-2.09.27-4.17.27-2.09.27-4.17.13-2.09.13-4.17-.73-2.09-.73-4.17-.17-2.09-.17-4.18-.48-2.09-.48-4.17c0-1.33.82-2.69.54-3.93a17.66,17.66,0,0,0-1.68-3.54,16.83,16.83,0,0,0-2.18-3.17c-.81-1-1.33-2.33-2.35-3.14a18,18,0,0,0-3.54-1.68A16.66,16.66,0,0,0,382,1.72c-1.24-.29-2.39-1.2-3.72-1.2-2.07,0-2.07.65-4.14.65S372,.27,370,.27s-2.07.43-4.13.43-2.07-.49-4.14-.49-2.07,0-4.14,0-2.07.15-4.14.15-2.06.86-4.13.86-2.07-.94-4.14-.94-2.07.65-4.14.65-2.07-.1-4.14-.1-2.07.18-4.14.18-2.07.17-4.14.17-2.07.06-4.14.06-2.07-.84-4.13-.84-2.07.07-4.14.07-2.07.64-4.14.64-2.07.08-4.14.08-2.07-.09-4.14-.09-2.07.16-4.14.16-2.07-.14-4.14-.14-2.07-.2-4.14-.2-2.07-.51-4.14-.51-2.07.5-4.14.5-2.07.27-4.14.27-2.07.07-4.14.07-2.07-.4-4.14-.4-2.07.31-4.13.31-2.07.19-4.14.19-2.07.08-4.14.08-2.07-.63-4.14-.63S252,.49,249.94.49s-2.07.61-4.14.61-2.07-.44-4.14-.44-2.07,0-4.14,0-2.07.51-4.14.51-2.07-.1-4.14-.1H225.1C223,1,223,1.2,221,1.2s-2.07-.87-4.14-.87-2.07.76-4.14.76-2.07-.51-4.14-.51-2.07.31-4.14.31-2.07.24-4.13.24-2.07-1-4.14-1-2.07.7-4.14.7-2.06-.46-4.13-.46-2.07.38-4.14.38-2.07,0-4.14,0-2.07.55-4.14.55S173.37,1,171.3,1,169.23,0,167.16,0,165.1.75,163,.75,161,.63,158.88.63s-2.07-.44-4.14-.44-2.07,1.2-4.14,1.2-2.06-.7-4.13-.7-2.07.2-4.14.2S140.26,0,138.18,0s-2.07.58-4.14.58S132,.39,129.9.39s-2.07-.07-4.14-.07h-4.14c-2.07,0-2.07.42-4.14.42s-2.07-.43-4.14-.43-2.07.43-4.14.43-2.07-.14-4.15-.14h-4.14c-2.07,0-2.07.34-4.14.34S94.7.5,92.63.5s-2.07.78-4.15.78S86.41.85,84.34.85,82.27.92,80.2.92s-2.07.49-4.15.49S74,.1,71.92.1s-2.07,1-4.15,1S65.7.71,63.63.71s-2.07.51-4.14.51S57.42.6,55.35.6s-2.07.69-4.15.69S49.13.78,47.06.78s-2.07.38-4.15.38S40.84.34,38.77.34s-2.08.48-4.15.48S32.55,1,30.48,1,28.4.16,26.33.16s-2.08.61-4.15.61S20.1.06,18,.06a18.3,18.3,0,0,0-3.92.8c-1.28.29-2.28,1.35-3.43,1.91A16.87,16.87,0,0,0,7.16,4.4a18.8,18.8,0,0,0-3.1,2.49c-.8,1-.5,2.72-1.07,3.9s-1.86,2-2.15,3.31A17.86,17.86,0,0,0,0,18c0,2.1.92,2.1.92,4.2s-.16,2.1-.16,4.21.33,2.1.33,4.2S.7,32.74.7,34.85.62,37,.62,39.05s.05,2.1.05,4.21-.43,2.1-.43,4.2.21,2.11.21,4.21S.08,53.78.08,55.88s0,2.1,0,4.21.88,2.1.88,4.2.47,2.11.47,4.21-1,2.11-1,4.21-.32,2.1-.32,4.21,1.26,2.1,1.26,4.2S.81,83.23.81,85.33s.4,2.1.4,4.21,0,2.1,0,4.2S.94,95.85.94,98s-.27,2.1-.27,4.21.72,2.1.72,4.21-1.18,2.1-1.18,4.21.28,2.1.28,4.21.09,2.1.09,4.21.47,2.1.47,4.21-.88,2.1-.88,4.21.39,2.11.39,4.22-.34,2.11-.34,4.21a17.9,17.9,0,0,0,.94,3.85,16.63,16.63,0,0,0,1.71,3.46,16.88,16.88,0,0,0,1.61,3.5,18.65,18.65,0,0,0,2.45,3.11,18.54,18.54,0,0,0,3.46,1.94c1.15.56,2.59.36,3.87.65A16.82,16.82,0,0,0,18,153c2.07,0,2.07.16,4.15.16s2.07-.39,4.15-.39,2.07.49,4.15.49,2.07-.06,4.15-.06,2.08.58,4.15.58,2.08-.24,4.15-.24,2.08-.43,4.16-.43,2.07.21,4.15.21,2.08-.83,4.15-.83,2.08.11,4.16.11,2.07.29,4.15.29,2.07.49,4.15.49,2.08-.27,4.15-.27,2.08.52,4.15.52,2.08-.56,4.16-.56,2.07.54,4.15.54,2.08.24,4.16.24,2.07-.86,4.15-.86,2.07.09,4.15.09,2.08-.63,4.15-.63,2.08.4,4.16.4,2.07.57,4.15.57,2.08.27,4.15.27,2.08-.26,4.16-.26,2.07.3,4.15.3,2.08,0,4.15,0,2.08-1,4.15-1,2.08.5,4.16.5,2.08.44,4.15.44,2.08-.64,4.16-.64,2.07.31,4.15.31,2.08.3,4.15.3,2.08-1,4.16-1,2.07.83,4.15.83,2.08-.47,4.16-.47,2.07-.14,4.15-.14,2.08.78,4.15.78,2.08.05,4.16.05,2.07-1.13,4.15-1.13,2.08.13,4.15.13,2.08.9,4.16.9,2.07-1.17,4.14-1.17,2.08.06,4.15.06,2.08.45,4.15.45,2.08.64,4.15.64,2.08.13,4.16.13,2.08-.25,4.15-.25,2.08-.78,4.15-.78,2.08,1.12,4.16,1.12,2.07-1.12,4.15-1.12,2.07.67,4.15.67,2.08.39,4.15.39,2.08-.56,4.16-.56,2.08,0,4.15,0,2.08-.41,4.15-.41,2.08-.26,4.16-.26,2.08.42,4.15.42,2.08.65,4.16.65,2.08.13,4.15.13,2.08-.78,4.16-.78,2.07.78,4.15.78,2.08-.87,4.16-.87,2.07-.1,4.15-.1,2.08-.33,4.16-.33,2.08,1,4.15,1,2.08-.36,4.16-.36,2.08-.18,4.16-.18,2.08.56,4.15.56,2.08-.21,4.16-.21,2.08-.75,4.16-.75,2.08,1.23,4.15,1.23,2.08.07,4.16.07,2.08-.19,4.15-.19,2.08-.95,4.16-.95,2.08,1,4.15,1,2.08-.44,4.16-.44,2.08.18,4.16.18,2.08.28,4.16.28,2.08-.69,4.16-.69,2.08.2,4.16.2,2.07.54,4.15.54,2.08-.79,4.16-.79h4.16c2.08,0,2.08,0,4.16,0s2.09.13,4.17.13,2.08.49,4.17.49c1.47,0,1.47-.63,2.94-.63,2.09,0,2.09.52,4.18.52s2.09-.53,4.19-.53,2.09.81,4.18.81,2.09-.12,4.18-.12,2.1.24,4.19.24,2.09-.83,4.19-.83,2.09,0,4.18,0,2.09.85,4.19.85,2.09-.86,4.18-.86,2.1.19,4.19.19,2.1.08,4.19.08,3.7,2,4.23,0-1.66-1.39-3.49-2.41-1.79-1.09-3.62-2.12-2.24-.29-4.07-1.31-1.8-1.08-3.62-2.11-1.5-1.61-3.33-2.63-1.91-.88-3.74-1.91-2.19-.37-4-1.39-1.56-1.49-3.48-2.34S397.07,136.26,396,134.45Z"/><text class="cls-3" transform="translate(55.57 43.89)">But distan<tspan class="cls-4" x="133.46" y="0">c</tspan><tspan class="cls-5" x="146.56" y="0">e </tspan><tspan class="cls-6" x="168.38" y="0">c</tspan><tspan x="181.49" y="0">ould</tspan><tspan class="cls-7" x="239.5" y="0">’</tspan><tspan x="247.19" y="0">nt</tspan><tspan x="0" y="42.91">stop us from gr</tspan><tspan class="cls-8" x="196.32" y="42.91">o</tspan><tspan x="212.15" y="42.91">wing </tspan><tspan x="0" y="85.81">closer togethe</tspan><tspan class="cls-9" x="184.21" y="85.81">r.</tspan></text><text class="cls-10" transform="translate(1076.14 115.65)">CHEESE!!</text><path class="cls-11" d="M1206.23,113.54c.21-1.67.53-1.62,1.61-2.91s1.76-.73,2.84-2,.74-1.57,1.81-2.86,1.46-1,2.53-2.28,1.1-1.27,2.18-2.56,1-1.39,2-2.69.42-1.84,1.49-3.13,1.8-.7,2.87-2,.58-1.71,1.65-3,1.16-1.23,2.23-2.52.93-1.41,2-2.71,1-1.4,2-2.69,1-1.34,2.1-2.64,1.72-.76,2.8-2.06,1-1.34,2.1-2.64.25-3.1,1.94-3.14,1.55,1.3,2.76,2.54,1.14,1.31,2.35,2.55,1.33,1.12,2.55,2.37,1.1,1.34,2.32,2.58,1.07,1.38,2.28,2.62.84,1.6,2.06,2.84,1.57.89,2.78,2.13,1.4,1.05,2.61,2.29,1.27,1.19,2.48,2.44.93,1.52,2.14,2.77,1.44,1,2.66,2.26,1.35,1.11,2.56,2.36,2.29,1.07,2.67,2.76-1.19,1.8-1.76,3.42-.83,1.53-1.4,3.15,0,1.82-.56,3.44-1,1.47-1.56,3.09-.61,1.61-1.18,3.23-.09,1.79-.66,3.41-.67,1.59-1.25,3.22.09,2.3-1.25,3.38-1.81.44-3.49.63-1.77-.67-3.44-.48-1.59.94-3.27,1.13-1.73-.32-3.41-.14-1.64.51-3.31.7-1.65.42-3.32.61-1.79-.81-3.47-.62-1.6.88-3.27,1.07-1.73-.27-3.41-.09-1.63.58-3.3.77-1.68.16-3.36.35-1.61.74-3.29.93-1.71-.09-3.39.1-1.6.37-3.06-.48-1.09-1-1.79-2.56-.59-1.62-1.29-3.2-.31-1.76-1-3.33-1.8-1.09-2.5-2.67-.07-1.86-.78-3.43a16.12,16.12,0,0,0-1.58-3.06C1206.38,115.3,1206,115.25,1206.23,113.54Z"/><path class="cls-12" d="M1213.66,114.76c-.93-1.39,2-1.2,3-2.53s.82-1.47,1.84-2.79,1.07-1.28,2.09-2.6.92-1.4,1.94-2.72.79-1.5,1.81-2.82.93-1.39,1.95-2.71,1.05-1.3,2.07-2.62.52-1.71,1.53-3,1.6-.88,2.62-2.2,1.2-1.18,2.22-2.5.59-1.66,1.61-3,1.54-.92,2.57-2.25,0-2.94,1.67-3.05,1.6.88,2.76,2.06,1.24,1.1,2.4,2.29.46,1.87,1.62,3,1.61.74,2.77,1.92.75,1.59,1.91,2.77,1.34,1,2.51,2.18,1.31,1,2.48,2.21.74,1.59,1.91,2.77,1.55.8,2.71,2,2.19.76,1.69,2.35-1.06,1-2.72,1.34-1.76-.15-3.42.21-1.71.1-3.37.45-1.71.1-3.37.45-1.69.24-3.35.6-1.5,1.07-3.16,1.42-1.62.53-3.28.89-1.56.82-3.22,1.18-1.86-.59-3.52-.23-1.57.76-3.23,1.12-1.62.51-3.28.87-1.78-.19-3.44.16-1.56.82-3.22,1.17a8.11,8.11,0,0,0-3.09,1.09C1215.79,115.25,1214.6,116.17,1213.66,114.76Z"/><path class="cls-12" d="M1214.68,114.26c.5,1.48-.42,1.8.08,3.28s1.39,1.18,1.89,2.66-.35,1.78.15,3.26,1,1.32,1.5,2.81-.69,2.58.68,3.36,1.89-1,3.63-1.19,1.78.11,3.52-.08,1.82.5,3.56.31,1.69-.72,3.43-.9,1.68-.83,3.42-1,1.89,1.17,3.63,1,1.69-.67,3.44-.85l3.49-.39c1.74-.19,1.78.15,3.52,0s1.7-.62,3.45-.81,1.85.29,3.18-.86,1.3-1.29,1.83-3.08.32-1.84.85-3.63.23-1.87.76-3.65,0-1.93.57-3.72,1.53-1.49,2.06-3.27.43-1.82,1-3.61"/><path class="cls-1" d="M1221.92,104.25c1.43.76,1.2,1.51,3.17.91.82-.25,1.57-1.33,2.62-2.15,1.31-1,1.55-1.93,1.35-2.77-.34-1.48-.44-1.92-1.87-2.78"/><path class="cls-12" d="M1221.92,104.25c1.43.76,1.2,1.51,3.17.91.82-.25,1.57-1.33,2.62-2.15,1.31-1,1.55-1.93,1.35-2.77-.34-1.48-.44-1.92-1.87-2.78"/><path class="cls-1" d="M1239.42,108.9c.06-1.47.41-1.52,1.29-2.79a4.54,4.54,0,0,1,2.35-1.94,4.76,4.76,0,0,1,3.36.22,3.3,3.3,0,0,1,1.89,2.68c.48,1.78.37,2.07-.37,3.79a4.7,4.7,0,0,1-3,2.16c-1.65.56-2.94.53-3.82-.31A6,6,0,0,1,1239.42,108.9Z"/><path class="cls-12" d="M1239.42,108.9c.06-1.47.41-1.52,1.29-2.79a4.54,4.54,0,0,1,2.35-1.94,4.76,4.76,0,0,1,3.36.22,3.3,3.3,0,0,1,1.89,2.68c.48,1.78.37,2.07-.37,3.79a4.7,4.7,0,0,1-3,2.16c-1.65.56-2.94.53-3.82-.31A6,6,0,0,1,1239.42,108.9Z"/><path class="cls-1" d="M1247.36,87.12a5.56,5.56,0,0,0-.67,3.67c0,1.11,1,1.95,2.11,2.8.74.59,1.64.66,3.16.85,1,.12,2.13,1.32,3.54,1.19"/><path class="cls-12" d="M1247.36,87.12a5.56,5.56,0,0,0-.67,3.67c0,1.11,1,1.95,2.11,2.8.74.59,1.64.66,3.16.85,1,.12,2.13,1.32,3.54,1.19"/><path class="cls-1" d="M1227.14,128.35c0-1.49.71-1.4,1.69-2.68a4.19,4.19,0,0,1,2.47-1.31,3.1,3.1,0,0,1,3,.44c1.36,1,1,1.23,1.69,2.82"/><path class="cls-12" d="M1227.14,128.35c0-1.49.71-1.4,1.69-2.68a4.19,4.19,0,0,1,2.47-1.31,3.1,3.1,0,0,1,3,.44c1.36,1,1,1.23,1.69,2.82"/><path class="cls-11" d="M1275.58,113.54c.22-1.67.54-1.62,1.61-2.91s1.76-.73,2.84-2,.74-1.57,1.82-2.86,1.45-1,2.52-2.28,1.11-1.27,2.18-2.56,1-1.39,2-2.69.41-1.84,1.49-3.13,1.79-.7,2.87-2,.57-1.71,1.65-3,1.15-1.23,2.22-2.52.93-1.41,2-2.71,1-1.4,2-2.69,1-1.34,2.1-2.63,1.72-.77,2.79-2.06,1-1.35,2.11-2.64.25-3.1,1.93-3.15,1.55,1.3,2.76,2.54,1.14,1.31,2.35,2.55,1.34,1.12,2.55,2.37,1.11,1.33,2.32,2.58,1.07,1.38,2.28,2.62.85,1.6,2.06,2.84,1.57.89,2.78,2.13,1.41,1.05,2.62,2.29,1.26,1.19,2.48,2.44.92,1.52,2.13,2.77,1.44,1,2.66,2.26,1.35,1.11,2.57,2.36,2.28,1.07,2.66,2.76-1.19,1.8-1.76,3.42-.82,1.53-1.39,3.15,0,1.82-.57,3.44-1,1.47-1.56,3.09-.61,1.61-1.18,3.23-.09,1.79-.66,3.41-.67,1.59-1.24,3.22.09,2.3-1.25,3.38-1.82.44-3.49.63-1.78-.67-3.45-.48-1.59.94-3.26,1.13-1.74-.32-3.41-.13-1.64.5-3.32.69-1.65.42-3.32.61-1.79-.81-3.47-.62-1.59.88-3.27,1.07-1.73-.27-3.4-.08-1.63.57-3.31.76-1.68.16-3.35.35-1.62.74-3.3.93-1.71-.09-3.39.1-1.59.37-3.05-.48-1.09-1-1.8-2.56-.59-1.62-1.29-3.2-.3-1.76-1-3.33-1.79-1.09-2.5-2.67-.07-1.86-.77-3.43a16.77,16.77,0,0,0-1.59-3.06C1275.73,115.3,1275.36,115.25,1275.58,113.54Z"/><path class="cls-12" d="M1283,114.76c-.93-1.39,2-1.2,3.06-2.53s.81-1.47,1.83-2.79,1.08-1.28,2.1-2.6.92-1.4,1.94-2.72.79-1.5,1.81-2.82.92-1.39,1.94-2.71,1-1.3,2.07-2.62.52-1.7,1.54-3,1.59-.88,2.61-2.21,1.2-1.18,2.22-2.5.6-1.65,1.62-3,1.54-.92,2.56-2.25,0-2.94,1.67-3.05,1.6.88,2.76,2.06,1.24,1.1,2.4,2.28.46,1.88,1.63,3.06,1.6.74,2.76,1.91.75,1.6,1.91,2.77,1.35,1,2.51,2.19,1.32,1,2.48,2.21.75,1.59,1.91,2.77,1.55.8,2.72,2,2.19.76,1.68,2.35-1,1-2.71,1.34-1.77-.15-3.42.21-1.72.1-3.38.45-1.71.1-3.37.45-1.68.24-3.34.6-1.5,1.07-3.16,1.42-1.63.53-3.28.89-1.56.82-3.22,1.18-1.87-.59-3.53-.24-1.56.77-3.22,1.13-1.63.51-3.29.87-1.78-.2-3.44.16-1.56.82-3.22,1.17a8.17,8.17,0,0,0-3.09,1.09C1285.14,115.25,1284,116.17,1283,114.76Z"/><path class="cls-12" d="M1284,114.26c.5,1.48-.42,1.8.09,3.28s1.38,1.18,1.89,2.66-.36,1.78.15,3.26,1,1.32,1.49,2.81-.68,2.58.68,3.36c1.52.87,1.89-1,3.63-1.19s1.78.11,3.52-.08,1.82.5,3.56.31,1.69-.72,3.43-.9,1.68-.83,3.42-1,1.89,1.17,3.63,1,1.7-.67,3.44-.85l3.49-.39c1.74-.19,1.78.15,3.53,0s1.7-.62,3.44-.81,1.85.29,3.18-.86,1.31-1.29,1.83-3.08.32-1.84.85-3.63.24-1.87.76-3.65,0-1.93.57-3.72,1.53-1.49,2.06-3.27.44-1.82,1-3.61"/><path class="cls-1" d="M1291.27,104.25c1.43.76,1.21,1.51,3.17.91.82-.25,1.57-1.33,2.63-2.15,1.3-1,1.54-1.93,1.34-2.77-.34-1.48-.43-1.92-1.86-2.78"/><path class="cls-12" d="M1291.27,104.25c1.43.76,1.21,1.51,3.17.91.82-.25,1.57-1.33,2.63-2.15,1.3-1,1.54-1.93,1.34-2.77-.34-1.48-.43-1.92-1.86-2.78"/><path class="cls-1" d="M1308.8,108.9c0-1.47,0-1.81.83-3.08.5-.74,1.77-1.11,2.85-1.41a4.29,4.29,0,0,1,3.18.17c1.33.81,1.32,1.09,1.71,2.57.48,1.78.37,1.87-.37,3.58-.47,1.1-1.15,2.68-2.43,3.12a4.6,4.6,0,0,1-4.38-.84A6.5,6.5,0,0,1,1308.8,108.9Z"/><path class="cls-12" d="M1308.8,108.9c0-1.47,0-1.81.83-3.08.5-.74,1.77-1.11,2.85-1.41a4.29,4.29,0,0,1,3.18.17c1.33.81,1.32,1.09,1.71,2.57.48,1.78.37,1.87-.37,3.58-.47,1.1-1.15,2.68-2.43,3.12a4.6,4.6,0,0,1-4.38-.84A6.5,6.5,0,0,1,1308.8,108.9Z"/><path class="cls-1" d="M1316.72,87.12a5.57,5.57,0,0,0-.68,3.67c.06,1.11,1,1.95,2.11,2.8.74.59,1.65.66,3.16.85,1,.12,2.14,1.32,3.54,1.19"/><path class="cls-12" d="M1316.72,87.12a5.57,5.57,0,0,0-.68,3.67c.06,1.11,1,1.95,2.11,2.8.74.59,1.65.66,3.16.85,1,.12,2.14,1.32,3.54,1.19"/><path class="cls-1" d="M1296.49,128.35c0-1.49.71-1.4,1.69-2.68a4.22,4.22,0,0,1,2.47-1.31,3.13,3.13,0,0,1,3.06.44c1.35,1.06,1,1.23,1.68,2.82"/><path class="cls-12" d="M1296.49,128.35c0-1.49.71-1.4,1.69-2.68a4.22,4.22,0,0,1,2.47-1.31,3.13,3.13,0,0,1,3.06.44c1.35,1.06,1,1.23,1.68,2.82"/></g></g></g></svg>