<svg xmlns="http://www.w3.org/2000/svg" viewBox="0 0 395.91 638.12"><defs><style>.cls-1{fill:none;stroke:#000;stroke-linecap:round;stroke-linejoin:round;stroke-width:4.33px;}</style></defs><g id="Layer_2" data-name="Layer 2"><g id="sect3"><g id="connline"><path class="cls-1" d="M393.74,2.17c-2,0-1.51.51-4,.51-1.15,0-2.51.27-4,.27-1.25,0-2.61-.24-4.05-.24-1.28,0-2.64.2-4,.2s-2.67-.06-4.05-.06-2.68.64-4,.64-2.7-.56-4.05-.56-2.71-.29-4.05-.29-2.72.13-4.05.13-2.74.39-4.05.39-2.76.23-4,.23c-1.45,0-2.81-.79-4.05-.79-1.54,0-2.9-.22-4-.22a31,31,0,0,0-4.39.37,18.09,18.09,0,0,0-4.15,1.46c-1.43.55-2.21,1.81-3.27,2.73s-2.84,1.32-3.55,2.65a18.31,18.31,0,0,0-1.71,4.14c-.32,1.31-.06,2.88-.21,4.43-.12,1.35-.76,2.81-.76,4.36,0,.72,1.06,2.12,1.06,4.13,0,1.17-.06,2.55-.06,4.13,0,1.26-.28,2.63-.28,4.13,0,1.29.64,2.67.64,4.13s-.19,2.69-.19,4.13.08,2.7.08,4.12-1.16,2.71-1.16,4.13,1.19,2.71,1.19,4.13-1.23,2.72-1.23,4.12.39,2.73.39,4.13.37,2.73.37,4.13-.17,2.73-.17,4.13-.35,2.73-.35,4.13.7,2.74.7,4.13.4,2.74.4,4.13-.34,2.74-.34,4.13.33,2.74.33,4.13-.44,2.75-.44,4.13.3,2.75.3,4.14-.21,2.74-.21,4.13-.4,2.74-.4,4.13.17,2.74.17,4.13-.28,2.74-.28,4.13.46,2.74.46,4.13-.81,2.75-.81,4.13,1,2.75,1,4.13-1,2.75-1,4.13-.11,2.75-.11,4.13.49,2.75.49,4.13.13,2.75.13,4.13-.13,2.75-.13,4.13,0,2.75,0,4.13-.44,2.75-.44,4.12.24,2.76.24,4.13.54,2.76.54,4.13.38,2.76.38,4.13-.31,2.76-.31,4.14.35,2.75.35,4.13-.85,2.76-.85,4.14-.34,2.75-.34,4.13.1,2.76.1,4.14,1.21,2.75,1.21,4.13-.25,2.76-.25,4.14-1.06,2.76-1.06,4.13.44,2.76.44,4.14.08,2.76.08,4.13.2,2.76.2,4.14-.75,2.76-.75,4.13,1.34,2.76,1.34,4.13-.17,2.77-.17,4.14-.24,2.76-.24,4.13-.5,2.76-.5,4.13.12,2.76.12,4.13.25,2.77.25,4.14-.38,2.76-.38,4.13.92,2.77.92,4.13S324,256.63,324,258s.21,2.77.21,4.14-.23,2.77-.23,4.13.11,2.78.11,4.14-.43,2.77-.43,4.13.53,2.78.53,4.13-.09,2.78-.09,4.13-.25,2.78-.25,4.13-.38,2.79-.38,4.14-.06,2.78-.06,4.12.81,2.8.81,4.13-1.08,2.8-1.08,4.13.05,2.82.05,4.13.08,2.83.08,4.13c0,1.48.54,2.86.54,4.12,0,1.54-.69,2.92-.69,4.13,0,1.74.79,3.12.79,4.12,0,1.4.36,2.81.26,4.15s-.82,2.7-1,4,.22,2.91-.12,4.21-1.19,2.57-1.66,3.84-.75,2.73-1.34,3.95a41,41,0,0,1-2.19,3.54c-.74,1.17-2.14,1.85-3,2.92s-1.29,2.52-2.26,3.49-2.44,1.37-3.51,2.23-1.76,2.24-2.93,3a39.79,39.79,0,0,1-3.6,2c-1.22.6-2.54,1.11-3.83,1.59s-2.63.85-4,1.2-2.62,1-4,1.22-2.79-.17-4.18-.06-2.72-.64-4.11-.64c-1.09,0-2.49,1.07-4.18,1.07-1.24,0-2.64.25-4.18.25-1.29,0-2.68-1.09-4.17-1.09-1.32,0-2.72.23-4.18.23s-2.73.67-4.18.67-2.74-.59-4.18-.59-2.75.39-4.18.39-2.76-.84-4.19-.84-2.75.47-4.18.47-2.76.09-4.18.09-2.76.25-4.18.25-2.76-.57-4.17-.57-2.77.64-4.18.64-2.77.12-4.18.12-2.77.31-4.18.31-2.77-.35-4.17-.35-2.78-1-4.18-1-2.78,1-4.18,1-2.78-.18-4.18-.18-2.78.07-4.18.07-2.78.23-4.19.23-2.78-1-4.18-1-2.78-.18-4.18-.18-2.78.77-4.18.77-2.78.12-4.18.12-2.78-.58-4.18-.58-2.78.94-4.18.94-2.79-.63-4.18-.63-2.79-.12-4.18-.12H157c-1.39,0-2.79.39-4.19.39s-2.79.28-4.19.28-2.79-.58-4.18-.58-2.79.07-4.18.07-2.8-.63-4.19-.63h-4.18l-4.19,0c-1.4,0-2.79.54-4.18.54s-2.8.5-4.19.5-2.8-.44-4.18-.44-2.8.18-4.19.18-2.8-.09-4.19-.09-2.8-.51-4.18-.51-2.81-.19-4.19-.19-2.8.38-4.19.38-2.8-.14-4.18-.14-2.8-.24-4.18-.24-2.81.33-4.18.33-2.82.72-4.19.72S74.7,365,73.33,365s-2.82.62-4.18.62-2.83-.3-4.19-.3-2.82-.08-4.18-.08-2.84.95-4.19.95-2.84-.56-4.18-.56-2.86.48-4.18.48c-1.49,0-2.88-.26-4.18-.26-1.53,0-2.93-.19-4.17-.2-1.44,0-2.8.18-4.13.24s-2.87-.66-4.19-.54-2.77.73-4.07,1-2.76.59-4,.91-2.94.15-4.17.6-2.3,1.86-3.45,2.46a27.16,27.16,0,0,0-3.7,1.86c-1.15.87-1.57,2.37-2.46,3.36S6.88,376.87,6.19,378s-.16,3-.64,4.26S4,384.69,3.75,386s-.23,2.74-.38,4.12-.31,2.73-.37,4.11-.23,2.76-.23,4.12.14,2.79.14,4.14a41.08,41.08,0,0,0-.54,4.16c0,1.2.28,2.59.28,4.16,0,1.28.82,2.67.82,4.17,0,1.3-1.11,2.69-1.11,4.16s.81,2.72.81,4.17.36,2.73.36,4.17-.18,2.73-.18,4.16-1,2.75-1,4.17.84,2.75.84,4.17.23,2.75.23,4.16-.31,2.76-.31,4.17-.73,2.76-.73,4.16.73,2.76.73,4.17-.69,2.76-.69,4.16.5,2.77.5,4.17-.11,2.76-.11,4.16.62,2.77.62,4.17-.24,2.77-.24,4.17-.73,2.77-.73,4.16.36,2.77.36,4.17-.22,2.77-.22,4.17.41,2.77.41,4.17-.27,2.77-.27,4.16,0,2.77,0,4.17.28,2.77.28,4.16-.38,2.78-.38,4.17-.32,2.78-.32,4.17.48,2.78.48,4.17.42,2.78.42,4.17S3,526.13,3,527.52s-.44,2.79-.44,4.17-.23,2.79-.23,4.18-.08,2.78-.08,4.17.27,2.78.27,4.17-.26,2.79-.26,4.17-.08,2.79-.08,4.17.25,2.79.25,4.17.28,2.79.28,4.18v4.17c0,1.4,0,2.79,0,4.17s.53,2.8.53,4.17-.12,2.8-.12,4.18.34,2.8.34,4.17S3,584.57,3,585.94s-.3,2.8-.3,4.17.46,2.81.46,4.18-.76,2.8-.76,4.17.61,2.8.61,4.16-.28,2.82-.28,4.17S3,609.62,3,611s.1,2.83.1,4.17-.26,2.84-.26,4.17.23,2.86.23,4.17c0,1.51.17,2.9.17,4.16,0,1.61-1,3-1,4.17,0,2.69.35,2.07.35,4.15"/></g></g></g></svg>