<svg xmlns="http://www.w3.org/2000/svg" viewBox="0 0 144.68 107.24"><defs><style>.cls-1,.cls-2{fill:none;stroke:#000;stroke-linecap:round;stroke-linejoin:round;}.cls-1{stroke-width:3.09px;}.cls-2{stroke-width:4.33px;}</style></defs><g id="Layer_2" data-name="Layer 2"><g id="sect1"><g id="hands"><path d="M85,93.1a12.44,12.44,0,0,1-1.08,4.71c-.61,1.48-2,2.44-3.1,3.55s-2.11,2.4-3.6,3a12.39,12.39,0,0,1-4.66,1.32c-1.65,0-3.18-.88-4.61-1.47a12,12,0,0,1-4-2.55,12,12,0,0,1-2.31-4.07c-.59-1.43-1.73-2.86-1.73-4.5S61,90,61.56,88.57A11.72,11.72,0,0,1,64,84.64a12.36,12.36,0,0,1,3.71-3c1.43-.6,3.11-.32,4.76-.32a11.48,11.48,0,0,1,4.51.89,11,11,0,0,1,6.74,6.25A12.25,12.25,0,0,1,85,93.1Z"/><path class="cls-1" d="M85,93.1a12.44,12.44,0,0,1-1.08,4.71c-.61,1.48-2,2.44-3.1,3.55s-2.11,2.4-3.6,3a12.39,12.39,0,0,1-4.66,1.32c-1.65,0-3.18-.88-4.61-1.47a12,12,0,0,1-4-2.55,12,12,0,0,1-2.31-4.07c-.59-1.43-1.73-2.86-1.73-4.5S61,90,61.56,88.57A11.72,11.72,0,0,1,64,84.64a12.36,12.36,0,0,1,3.71-3c1.43-.6,3.11-.32,4.76-.32a11.48,11.48,0,0,1,4.51.89,11,11,0,0,1,6.74,6.25A12.25,12.25,0,0,1,85,93.1Z"/><path d="M72.5,15c2.25,0,4.44.86,6.64,1s4.39.67,6.57,1,4.32.9,6.47,1.42,4.32.92,6.43,1.6S102.94,21.12,105,22s3.8,2.32,5.78,3.33,4,1.8,5.94,3,4.36,1.51,6.16,2.82,3.34,3,5,4.46,3,3.08,4.61,4.65c3-1.54,2.42-2.32,4.83-4.72s3.69-1.54,5.18-4.6c-1.66-1.66-3.77-3.33-5.55-4.87s-3.29-3.41-5.16-4.82-3.93-2.6-5.91-3.87-3.92-2.61-6-3.74-4.18-2.19-6.32-3.16S109.13,9,106.92,8.13,102.5,6.63,100.23,6,95.68,5,93.37,4.5,88.9,3,86.57,2.64s-4.68-.22-7-.39-4.66,0-7,0-4.69.07-7,.23-4.81-.58-7.12-.25-4.55,1.4-6.83,1.9S47,5.3,44.75,6,40.15,7.06,38,7.88s-4.3,1.92-6.43,2.89-4,2.49-6,3.62-4.19,2.09-6.16,3.36S15.65,20.62,13.77,22s-4,2.51-5.75,4-4.2,3.32-5.85,5C3.65,34.11,5,33.35,7.39,35.75s2,3.1,5,4.64c1.58-1.58,2.79-3.61,4.48-5.06s3.78-2.45,5.58-3.76,3.93-2.12,5.83-3.29,3.94-2,5.93-3,3.93-2,6-2.83,3.78-2.57,5.91-3.26,4.52-.28,6.7-.81,4.19-1.59,6.4-1.93,4.42-.38,6.65-.56S70.26,15,72.5,15Z"/><path class="cls-2" d="M72.5,15c2.25,0,4.44.86,6.64,1s4.39.67,6.57,1,4.32.9,6.47,1.42,4.32.92,6.43,1.6S102.94,21.12,105,22s3.8,2.32,5.78,3.33,4,1.8,5.94,3,4.36,1.51,6.16,2.82,3.34,3,5,4.46,3,3.08,4.61,4.65c3-1.54,2.42-2.32,4.83-4.72s3.69-1.54,5.18-4.6c-1.66-1.66-3.77-3.33-5.55-4.87s-3.29-3.41-5.16-4.82-3.93-2.6-5.91-3.87-3.92-2.61-6-3.74-4.18-2.19-6.32-3.16S109.13,9,106.92,8.13,102.5,6.63,100.23,6,95.68,5,93.37,4.5,88.9,3,86.57,2.64s-4.68-.22-7-.39-4.66,0-7,0-4.69.07-7,.23-4.81-.58-7.12-.25-4.55,1.4-6.83,1.9S47,5.3,44.75,6,40.15,7.06,38,7.88s-4.3,1.92-6.43,2.89-4,2.49-6,3.62-4.19,2.09-6.16,3.36S15.65,20.62,13.77,22s-4,2.51-5.75,4-4.2,3.32-5.85,5C3.65,34.11,5,33.35,7.39,35.75s2,3.1,5,4.64c1.58-1.58,2.79-3.61,4.48-5.06s3.78-2.45,5.58-3.76,3.93-2.12,5.83-3.29,3.94-2,5.93-3,3.93-2,6-2.83,3.78-2.57,5.91-3.26,4.52-.28,6.7-.81,4.19-1.59,6.4-1.93,4.42-.38,6.65-.56S70.26,15,72.5,15Z"/><path d="M72.51,43.26c2.18,0,4.4-1,6.53-.81s4.22,1.2,6.31,1.68,4.41.47,6.43,1.18a55.33,55.33,0,0,1,6,2.5c2,.94,3.49,2.67,5.32,3.82a61,61,0,0,1,5.23,3.78,67.72,67.72,0,0,1,5.28,4.73c3-1.56,2-3.09,4.41-5.49s3.67-1.53,5.16-4.58c-1.65-1.65-3.19-3.91-5-5.39s-4.2-2.24-6.14-3.54-3.75-2.84-5.81-4-4.47-1.44-6.64-2.34-4.31-1.65-6.55-2.33-4.46-1.21-6.76-1.66S81.88,29.25,79.53,29s-4.67-.29-7-.29-4.65.89-7,1.12-4.7.13-7,.58-4.66.74-6.89,1.42a69.64,69.64,0,0,0-6.5,2.65c-2.17.9-4.64,1.24-6.69,2.34s-3.8,2.84-5.74,4.14-3.86,2.67-5.67,4.16A70,70,0,0,0,22,50c1.49,3.05,2.7,2.1,5.1,4.5s1.32,3.85,4.34,5.41a66.14,66.14,0,0,1,5.35-4.18,56.81,56.81,0,0,1,5.3-3.61,59.06,59.06,0,0,1,5.52-3.29A56.72,56.72,0,0,1,53.42,46c2-.72,4.24-.72,6.36-1.21a56.73,56.73,0,0,1,6.29-1.39A57.39,57.39,0,0,1,72.51,43.26Z"/><path class="cls-2" d="M72.51,43.26c2.18,0,4.4-1,6.53-.81s4.22,1.2,6.31,1.68,4.41.47,6.43,1.18a55.33,55.33,0,0,1,6,2.5c2,.94,3.49,2.67,5.32,3.82a61,61,0,0,1,5.23,3.78,67.72,67.72,0,0,1,5.28,4.73c3-1.56,2-3.09,4.41-5.49s3.67-1.53,5.16-4.58c-1.65-1.65-3.19-3.91-5-5.39s-4.2-2.24-6.14-3.54-3.75-2.84-5.81-4-4.47-1.44-6.64-2.34-4.31-1.65-6.55-2.33-4.46-1.21-6.76-1.66S81.88,29.25,79.53,29s-4.67-.29-7-.29-4.65.89-7,1.12-4.7.13-7,.58-4.66.74-6.89,1.42a69.64,69.64,0,0,0-6.5,2.65c-2.17.9-4.64,1.24-6.69,2.34s-3.8,2.84-5.74,4.14-3.86,2.67-5.67,4.16A70,70,0,0,0,22,50c1.49,3.05,2.7,2.1,5.1,4.5s1.32,3.85,4.34,5.41a66.14,66.14,0,0,1,5.35-4.18,56.81,56.81,0,0,1,5.3-3.61,59.06,59.06,0,0,1,5.52-3.29A56.72,56.72,0,0,1,53.42,46c2-.72,4.24-.72,6.36-1.21a56.73,56.73,0,0,1,6.29-1.39A57.39,57.39,0,0,1,72.51,43.26Z"/><path d="M72.51,70.05a29.37,29.37,0,0,1,7.74,1.45c2.61.69,5.33,1,7.62,2.29a32.85,32.85,0,0,1,6.38,5.26c3.12-1.36,2.79-2.17,5.2-4.57s2.7-2.32,4.2-5.37a43.54,43.54,0,0,0-5-4.69c-1.86-1.36-4.2-2-6.27-3A43.64,43.64,0,0,0,86,58.8a42.18,42.18,0,0,0-6.68-1.57c-2.25-.36-4.48-1.36-6.83-1.36a44.62,44.62,0,0,0-7,.6c-2.31.36-4.37,1.66-6.56,2.37a44.62,44.62,0,0,0-6.54,2.25,44.11,44.11,0,0,0-6.09,3.4,43.3,43.3,0,0,0-5.07,4.7c1.5,3,1.86,2.92,4.26,5.32s2.14,3,5.26,4.41a31.38,31.38,0,0,1,6.46-4.85,30.3,30.3,0,0,1,7.31-3.23A30.59,30.59,0,0,1,72.51,70.05Z"/><path class="cls-2" d="M72.51,70.05a29.37,29.37,0,0,1,7.74,1.45c2.61.69,5.33,1,7.62,2.29a32.85,32.85,0,0,1,6.38,5.26c3.12-1.36,2.79-2.17,5.2-4.57s2.7-2.32,4.2-5.37a43.54,43.54,0,0,0-5-4.69c-1.86-1.36-4.2-2-6.27-3A43.64,43.64,0,0,0,86,58.8a42.18,42.18,0,0,0-6.68-1.57c-2.25-.36-4.48-1.36-6.83-1.36a44.62,44.62,0,0,0-7,.6c-2.31.36-4.37,1.66-6.56,2.37a44.62,44.62,0,0,0-6.54,2.25,44.11,44.11,0,0,0-6.09,3.4,43.3,43.3,0,0,0-5.07,4.7c1.5,3,1.86,2.92,4.26,5.32s2.14,3,5.26,4.41a31.38,31.38,0,0,1,6.46-4.85,30.3,30.3,0,0,1,7.31-3.23A30.59,30.59,0,0,1,72.51,70.05Z"/></g></g></g></svg>