<svg xmlns="http://www.w3.org/2000/svg" viewBox="0 0 546.53 563.13"><defs><style>.cls-1{fill:#e6b49d;}.cls-2{fill:#fff;}.cls-11,.cls-12,.cls-13,.cls-3,.cls-5,.cls-6,.cls-7,.cls-8,.cls-9{fill:none;}.cls-3,.cls-8{stroke:#1d1d1b;}.cls-11,.cls-12,.cls-13,.cls-3,.cls-5,.cls-7,.cls-8,.cls-9{stroke-linecap:round;stroke-linejoin:round;}.cls-3,.cls-5,.cls-6,.cls-7{stroke-width:3.61px;}.cls-4{fill:#8e9b91;}.cls-11,.cls-5,.cls-6,.cls-9{stroke:#000;}.cls-6{stroke-miterlimit:10;}.cls-13,.cls-7{stroke:#e6b49d;}.cls-8,.cls-9{stroke-width:2.89px;}.cls-10{fill:#1d1d1b;}.cls-11,.cls-12,.cls-13{stroke-width:4.33px;}.cls-12{stroke:#fff;}</style></defs><g id="Layer_2" data-name="Layer 2"><g id="sect2"><g id="art"><path class="cls-1" d="M247.77,392.35c-1.52.63.24,1.54.7,3.55.21.91.13,2.06.41,3.27.22,1,1.42,1.84,1.68,3s-.44,2.29-.19,3.4l.71,3.2c.24,1.05,1.42,1.91,1.66,3s0,2.22.28,3.3.15,2.21.38,3.28.23,2.2.46,3.27,1.1,2,1.32,3.07-.18,2.31,0,3.35,1.28,2,1.48,3.05-.44,2.4-.25,3.39a27.63,27.63,0,0,0,1,3.25,25.68,25.68,0,0,0,1.19,3.18,25.21,25.21,0,0,0,1.57,3c.62,1,1.76,1.53,2.45,2.38s1.13,2,1.89,2.79,2,1.23,2.71,2,1,2.06,1.73,2.92,2.15,1.13,2.79,2.07.63,2.19,1.14,3.22,1,2,1.36,2.91a22.1,22.1,0,0,1,.85,3.08,15.32,15.32,0,0,1,.21,3.15c.06,1.09.54,2.1.51,3.19s-.69,2-.63,3.22c0,1,.66,2,.85,3.18a21.73,21.73,0,0,0,.67,3.08,22.84,22.84,0,0,0,.73,3.16c.47,1,1.52,1.6,2.1,2.47a27.46,27.46,0,0,0,2,2.43c.68.8,1.42,1.53,2.18,2.27s1.41,1.55,2.2,2.26,1.46,1.52,2.26,2.22,1.4,1.58,2.18,2.29,1.76,1.19,2.5,1.95,1.22,1.71,1.9,2.53,1.37,1.55,2,2.44,1.57,1.5,2.06,2.46.22,2.16.59,3.19a26.39,26.39,0,0,1,1.26,2.9c.25,1,.51,2.07.77,3s.81,2,1.09,3,.8,2,1.11,2.95c.38,1.13-.14,2.43.17,3.27.69,1.85.1,2.29,1.62,2.68,1.71.45,1.75-.42,3.52-.44s1.76.12,3.53.11,1.77-.12,3.54-.13,1.95,1.2,3.64.67c-.25-1-.73-2.28-1-3.32s-.61-2-.86-3,.18-2.2-.07-3.24-1.21-1.87-1.46-2.9.19-2.21-.06-3.24-.87-2-1.12-3-.21-2.11-.45-3.14-1.16-1.89-1.4-2.93.08-2.18-.16-3.21-.17-2.12-.41-3.15-.57-2-.81-3.06-1.34-1.85-1.58-2.88.34-2.24.1-3.27-1.07-1.92-1.31-2.95-.61-2-.85-3.05.08-2.19-.16-3.22-1.06-1.92-1.3-3,.29-2.24.05-3.27-.95-1.95-1.19-3,0-2.18-.2-3.2-.41-2.08-.65-3.11-1.33-1.86-1.57-2.89.43-2.27.19-3.29-1.11-1.92-1.35-2.94-.07-2.16-.3-3.18-1.07-1.93-1.3-3-.28-2.11-.51-3.13-.39-2.09-.62-3.11-.9-2-1.14-3,.21-2.23,0-3.25-1-2-1.26-3,.35-2.26.12-3.28-.54-2.06-.78-3.07-1-2-1.25-3-.62-2-.85-3.05-.24-2.14-.47-3.14,0-2.19-.27-3.19-.65-2.05-.87-3.05-1.1-2-1.32-2.94.15-2.26-.08-3.24-1-2-1.18-3c-.26-1.12-.49-2.15-.7-3.09-.27-1.19-.14-2.3-.33-3.17a10.69,10.69,0,0,0-.85-2.65c-1.54,0-1.54-.73-3.08-.74s-1.54-.09-3.09-.1l-3.08,0c-1.55,0-1.55.57-3.09.56s-1.55,0-3.09,0-1.54-.41-3.09-.42-1.54.29-3.09.29-1.54-.63-3.08-.64-1.54.34-3.09.33-1.54,0-3.09,0-1.54-.12-3.09-.12-1.6.68-3.12.39S249.2,391.75,247.77,392.35Z"/><path class="cls-2" d="M397.9,189c1.4,1.53,2.28-.8,4.35-.8s2.08,1,4.15,1,2.08-1,4.15-1,2.08.58,4.16.58,2.07.32,4.15.32,2.08-.22,4.16-.22,3.19,1.9,4.6.36-.23-2.67-.23-4.93S427,182,427,179.73s1.77-2.87.24-4.54-2.09.56-4.17.56-2.07,0-4.15,0-2.07-1.15-4.15-1.15-2.07.33-4.15.33-2.08-.06-4.15-.06-2.08.77-4.16.77-3.09-2.25-4.5-.71.92,2.57.92,4.84-.54,2.21-1,4.42C397.08,186.6,396.37,187.3,397.9,189Z"/><path class="cls-3" d="M397.9,189c1.4,1.53,2.28-.8,4.35-.8s2.08,1,4.15,1,2.08-1,4.15-1,2.08.58,4.16.58,2.07.32,4.15.32,2.08-.22,4.16-.22,3.19,1.9,4.6.36-.23-2.67-.23-4.93S427,182,427,179.73s1.77-2.87.24-4.54-2.09.56-4.17.56-2.07,0-4.15,0-2.07-1.15-4.15-1.15-2.07.33-4.15.33-2.08-.06-4.15-.06-2.08.77-4.16.77-3.09-2.25-4.5-.71.92,2.57.92,4.84-.54,2.21-1,4.42C397.08,186.6,396.37,187.3,397.9,189Z"/><path class="cls-1" d="M505.87,184.39c-1.45,1.45-2.11-.69-4.17-.69s-2.05.14-4.1.14-2.05.32-4.11.32-2.05-.42-4.1-.42-2.05.78-4.11.78-2-.1-4.1-.1-2.06.25-4.11.25-2.05-.95-4.11-.95-2,.35-4.11.35-2.05-.16-4.11-.16-2.05-.23-4.1-.23-2.06,1-4.11,1-2.06-.77-4.11-.77-2.06.57-4.11.57-2.06.18-4.12.18-2.5,1-4-.47-.22-1.9-.22-3.95.14-2.05.14-4.11.45-2.05.45-4.1-1.09-2-1.09-4.11.68-2.05.68-4.1.49-2.05.49-4.11-.29-2.05-.29-4.1.06-2.06.06-4.11-1-2.06-1-4.11.81-2.06.81-4.11-.59-2-.59-4.11-.17-2.05-.17-4.11,1.28-2,1.28-4.11-.91-2.05-.91-4.11.36-2.06.36-4.11-1.41-2.48.05-3.94,1.87,0,3.92,0h4.11c2,0,2-.71,4.1-.71s2.05.84,4.11.84,2.05-.35,4.1-.35,2.06.67,4.11.67,2.05-.42,4.1-.42,2.06-.82,4.11-.82,2.06.33,4.11.33,2.06.27,4.11.27,2.06.19,4.11.19,2.05-.27,4.11-.27,2.05.57,4.11.57,2-.23,4.11-.23,2.06.11,4.11.11,3.06-2.21,4.51-.75-.84,2.44-.84,4.5,0,2,0,4.1,0,2.06,0,4.11,1.08,2.05,1.08,4.1,0,2.05,0,4.11-.38,2-.38,4.11.22,2.05.22,4.1.25,2,.25,4.11-1,2.05-1,4.11-.16,2-.16,4.11.73,2.05.73,4.11-.46,2-.46,4.1.38,2.06.38,4.11.22,2.06.22,4.12a11.72,11.72,0,0,0,.35,4C507,182.24,507.32,182.93,505.87,184.39Z"/><path class="cls-4" d="M74.12,282.75c0-2,1.31-2,1.31-3.92s-1.1-1.95-1.1-3.91,1-1.95,1-3.91-.4-2-.4-3.91,1-2,1-3.92-.54-2-.54-3.91-.82-2-.82-3.92-.39-1.95-.39-3.9,1.47-2,1.47-3.92-.85-1.95-.85-3.91-.62-2-.62-3.91,1.12-2,1.12-3.92-1.08-1.95-1.08-3.91.41-2,.41-3.92-.27-2-.27-3.91.54-2,.54-3.92.41-2,.41-3.91-1.16-2-1.16-3.92,1.12-2,1.12-3.92-.87-2-.87-3.92-.41-2.06,1-3.44,1.48-.42,3.45-.42,2,.51,3.94.51,2-.56,3.94-.56,2,0,3.93,0,2-.32,3.94-.32,2,0,3.93,0,2,.68,3.94.68,2,.23,3.93.23,2,.15,3.94.15,2,.31,3.94.31,2-.44,3.93-.44,2-.74,3.94-.74,2-.49,3.94-.49,2-.44,3.93-.44,2,1.59,3.94,1.59,2-.58,3.94-.58h3.93c2,0,2-.68,3.94-.68s2,1.74,3.94,1.74,2-1.5,3.93-1.5,2,.31,3.94.31,2,.15,3.94.15,2-.44,3.93-.44,2-.09,3.94-.09,2-.11,3.94-.11,2,.77,3.93.77,2,.5,3.94.5,2-1.15,3.93-1.15,2,1.44,3.93,1.44h3.93c2,0,2-.69,3.94-.69s2-.26,3.93-.26,2-.4,3.94-.4,2,.07,3.94.07,2,.78,3.93.78,2,.8,3.94.8,2-.42,3.93-.42,2-1.43,3.94-1.43,2,1.3,3.94,1.3,2-.24,3.93-.24,2-.2,3.94-.2,2,0,3.94,0,2,.46,3.94.46,2-1.45,3.93-1.45,2,.9,3.94.9,2-1.17,3.94-1.17,2,1.29,3.94,1.29h3.93c2,0,2-.07,3.94-.07s2-.29,3.94-.29,2,.28,3.94.28,2,.16,3.94.16,2-.72,3.94-.72,2-.21,3.94-.21,2,.93,3.94.93,2-1.13,3.94-1.13,2,1.56,3.94,1.56,2-.65,3.94-.65,2,0,3.93,0,2,.17,3.94.17,2-.61,3.94-.61,2,1.52,3.94,1.52,2-2.24,3.94-2.24,2,1.62,3.94,1.62,2-.48,3.94-.48,2,1.15,3.94,1.15,2-1.45,3.95-1.45,2,1.14,3.94,1.14,2-1,3.94-1,2-1,3.94-1,2,1.26,3.95,1.26,3.05-2,4.45-.61,0,2.46,0,4.42-.27,2-.27,3.93-.14,2-.14,3.93-1.19,2-1.19,3.92,1.76,2,1.76,3.93-.84,2-.84,3.93.28,2,.28,3.92.14,2,.14,3.93-.44,2-.44,3.92.24,2,.24,3.92.74,2,.74,3.92-1.93,2-1.93,3.93,1.37,2,1.37,3.92-1.23,2-1.23,3.93.66,2,.66,3.93.08,2,.08,3.92-.42,2-.42,3.92,1.48,2,1.48,3.93-.12,2-.12,3.93-1.5,2-1.5,3.92,1.45,2,1.45,3.93,0,2,0,3.92-.75,2-.75,3.93-.31,2-.31,3.93-.18,2-.18,3.93.4,2,.4,3.92.7,2,.7,3.93.27,2,.27,3.93-1.54,2-1.54,3.93.61,2,.61,3.93,0,2,0,3.93-.41,2-.41,3.92,1.08,2,1.08,3.93.65,2,.65,3.93-2.36,2-2.36,3.93.65,2,.65,3.93.08,2,.08,3.93-.49,2-.49,3.93,1.13,2,1.13,3.93.23,2,.23,3.92.27,2,.27,3.93-1.26,2-1.26,3.93.39,2,.39,3.93,1,2,1,3.93-.55,2-.55,3.93-.28,2-.28,3.93.56,2,.56,3.93-1.38,2-1.38,3.94.67,2,.67,3.93.32,2,.32,3.93-.49,2-.49,3.93.44,2,.44,3.94,1.1,2.38-.29,3.78-1.81-.53-3.78-.53-2,.79-3.93.79-2,.15-3.94.15-2,.42-3.94.42-2-.44-3.93-.44-2,.25-3.94.25-2-.36-3.93-.36-2,.13-3.94.13-2-.06-3.94-.06-2,.86-3.93.86-2-.92-3.94-.92h-3.93c-2,0-2-.46-3.94-.46s-2,.35-3.94.35-2-1.19-3.93-1.19-2,.94-3.94.94-2-.45-3.94-.45-2,.93-3.93.93-2-.19-3.94-.19-2,.31-3.94.31-2-.22-3.94-.22-2,.74-3.93.74-2-1-3.94-1-2-.11-3.93-.11-2,.8-3.94.8-2-1.45-3.94-1.45-2,.11-3.93.11-2,.58-3.93.58-2,.23-3.94.23-2-.23-3.93-.23-2-.32-3.93-.32-2-.48-3.94-.48-2,.83-3.94.83-2-.12-3.93-.12-2,.18-3.94.18-2,.53-3.93.53-2-.19-3.94-.19-2-.35-3.94-.35-2-1.07-3.93-1.07-2,.31-3.94.31-2,1.62-3.93,1.62-2-.23-3.94-.23-2-.58-3.94-.58-2-.32-3.94-.32-2,.31-3.93.31-2,.82-3.94.82-2,.45-3.94.45-2-2-3.94-2-2,1-3.94,1-2-.29-3.94-.29-2,.12-3.93.12-2-.54-3.94-.54-2,.87-3.94.87-2,.2-3.94.2-2-1.17-3.94-1.17-2-.2-3.94-.2-2,.1-3.94.1-2,.15-3.94.15-2,.11-3.94.11-2-.14-3.94-.14-2,.54-3.93.54-2-.91-3.94-.91-2,1.52-3.94,1.52-2-1-3.94-1-2-.4-4-.4-2,.81-3.94.81-2,.5-3.94.5-2-1.25-3.94-1.25-2,.88-3.94.88-2,.18-4,.18-2,.45-3.95.45-2.31.45-3.73-.94.94-1.7.94-3.63S75,402.93,75,401s.25-1.93.25-3.86-.82-1.93-.82-3.86,1-1.93,1-3.86-.4-1.93-.4-3.86.53-1.93.53-3.86-.07-1.93-.07-3.86-.56-1.94-.56-3.87-.54-1.93-.54-3.86,1.32-1.92,1.32-3.85-.58-1.93-.58-3.86.11-1.93.11-3.86-1.52-1.93-1.52-3.86.36-1.93.36-3.86.65-1.94.65-3.87-.11-1.93-.11-3.86-.39-1.93-.39-3.86.06-1.94.06-3.87.6-1.93.6-3.86.48-1.93.48-3.86S75,325.7,75,323.77s.66-1.93.66-3.87-.29-1.93-.29-3.87"/><path class="cls-2" d="M120.2,195.23,94.6,265.05l-10.18-7C82.68,262.52,87.88,274,87.88,274S69.6,261.57,53,262.43l4.51,22.3L84,289.17,76,297.89s6.15,1.91,11-2.6,4.75-6.38,4.75-6.38,2.76,5.59,5.84,3.61,6.44-8.47,6.44-8.47,4.87,3.3,7.92.68a64,64,0,0,1,6.07-4.58l-12.65-6.27,49.54-78.65Z"/><path class="cls-2" d="M176.13,195.25c-1.46,1.56.68,2.07.81,4.21s-.05,2.13.08,4.26-.31,2.16-.19,4.29-.4,2.16-.27,4.29,1,2.09,1.09,4.22,0,2.13.17,4.27.29,2.12.42,4.25.38,2.12.5,4.25-.5,2.17-.38,4.3.09,2.13.21,4.27.53,2.11.66,4.24-1,2.2-.85,4.33-.62,2.77.91,4.26,2.09.62,4.15.62,2.06,0,4.12,0l4.12,0c2.06,0,2.06-.31,4.13-.31s2.06-.86,4.12-.86,2.06.4,4.12.4,2.06.5,4.13.5,2.06-.56,4.12-.56,2.06.11,4.13.11h4.12c2.06,0,2.06.38,4.13.38s2.06.33,4.12.33,2.07-.09,4.13-.09,2.07-.9,4.13-.9,2.05.57,4.07.13,1.32-.7,3.06-2.6c.8-.87,1.83-1.83,2.88-3,.85-1,1.39-2.34,2.37-3.44s2.06-1.79,3-2.87,1.23-2.55,2.15-3.62,1.71-2.16,2.61-3.22,2.78-1.29,3.66-2.35,1.18-2.64,2-3.71,2.42-1.69,3.23-2.75a33.15,33.15,0,0,0,2.23-3.55c.72-1.22.81-2.75,1.35-4a40.72,40.72,0,0,0,1.66-3.78,40,40,0,0,0,.71-4.07c.29-1.44.56-2.78.7-4.05a36.14,36.14,0,0,0-.17-4.1c0-2.53,2-2.8.09-3.49s-1.89-.85-4-.85-2.11.67-4.21.67-2.1-.14-4.21-.14-2.1-.75-4.2-.75-2.11.6-4.21.6-2.1.51-4.21.51-2.1-.81-4.21-.81-2.1.65-4.2.65S237.14,195,235,195s-2.1.18-4.2.18-2.11-.42-4.21-.42-2.1,1-4.21,1-2.1-.13-4.21-.13-2.1-.72-4.2-.72-2.11.62-4.21.62-2.11.27-4.21.27-2.11-.58-4.21-.58-2.11.25-4.21.25-2.11.29-4.21.29-2.11-.76-4.21-.76-2.11.11-4.22.11-2.13.41-4.18,0S177.56,193.71,176.13,195.25Z"/><path class="cls-2" d="M67.75,373.84c.27-2,1.88-.8,3.28-3.07.6-1,1.33-2.12,2.19-3.46.66-1.05.6-2.72,1.42-4,.7-1.07,1.21-2.38,2-3.59s2.29-1.67,3.11-2.85.92-2.62,1.73-3.78,2.13-1.79,3-2.94,1.48-2.25,2.31-3.39,1.74-2.07,2.58-3.19,1.39-2.35,2.23-3.46,1.8-2,2.65-3.14,1.43-2.32,2.3-3.41,2.21-1.71,3.08-2.79.74-2.9,1.62-4,2.39-1.56,3.28-2.62,1.31-2.45,2.21-3.5,1.6-2.24,2.51-3.28,2.07-1.81,3-2.84,2.31-1.59,3.24-2.61,1.31-2.5,2.25-3.51,2.1-1.78,3.05-2.77,1.46-2.41,2.42-3.39,2.07-1.8,3-2.78,2-1.86,3-2.82,2.28-1.59,3.27-2.54,1.65-2.44,2.68-3.4,2.83-1.18,3.86-2.14,1.45-2.68,2.49-3.62,2.62-1.4,3.67-2.34,1.53-2.62,2.58-3.54,2.85-1.12,3.9-2,1.51-2.69,2.57-3.59,2.24-1.85,3.3-2.74,2.11-2,3.17-2.88,2.53-1.53,3.58-2.38,2.64-1.41,3.69-2.24c1.22-1,2-2.28,3-3.07,1.31-1,2.88-1.3,3.83-2,2.24-1.66,1.12-2.34,3.23-2.66a18.52,18.52,0,0,1,4.26-.39c2.15,0,2.15.57,4.3.57s2.14-.79,4.29-.79,2.15.28,4.29.28,2.15.53,4.3.53,2.14-.48,4.29-.48h4.3c2.15,0,2.15.42,4.3.42s2.14-.51,4.29-.51,2.15.19,4.3.19,2.15-.62,4.29-.62,2.15,1.23,4.3,1.23,2.16-.09,4.31-.09,2.25-1.44,4.38-1.17,1.55.74,3.81,2c1,.57,1.6,2.23,3,3,1.07.62,2.52.83,3.79,1.58,1.09.65,2.21,1.43,3.44,2.17s2.48,1,3.69,1.75,2.4,1.19,3.59,1.92,1.8,2.18,3,2.91,2.13,1.64,3.3,2.38,2.33,1.34,3.49,2.08,2.13,1.65,3.28,2.4,2.5,1.1,3.64,1.86,2.65.9,3.78,1.67,2,1.87,3.13,2.65,1.88,2,3,2.82,2.06,1.77,3.17,2.56,2.5,1.17,3.59,2,2.18,1.62,3.27,2.43,2.08,1.75,3.16,2.57,2.11,1.71,3.17,2.54,2.13,1.69,3.18,2.54,2.07,1.75,3.11,2.62,2.54,1.23,3.59,2.14,1.55,2.38,2.57,3.3,2.21,1.65,3.21,2.59,2.54,1.32,3.54,2.27,1.62,2.27,2.6,3.24,1.75,2.15,2.71,3.12,2.18,1.73,3.13,2.71,2.27,1.65,3.21,2.65,1.77,2.13,2.69,3.13,1.74,2.17,2.64,3.18,1.25,2.59,2.15,3.61,2.33,1.64,3.21,2.67,1.41,2.45,2.28,3.47,2.33,1.69,3.19,2.72,1.37,2.48,2.21,3.51,1.66,2.27,2.48,3.3,1.55,2.38,2.34,3.39c.92,1.17,2,2.1,2.74,3.09,1,1.25,2.35,1.94,3,2.86a32.79,32.79,0,0,1,2.34,3.5c0,2.14-.81,2.14-.81,4.29s.81,2.14.81,4.29-.3,2.15-.3,4.29.84,2.15.84,4.3-.39,2.14-.39,4.29-.41,2.15-.41,4.3.32,2.14.32,4.29.44,2.15.44,4.3,0,2.15,0,4.29-.16,2.15-.16,4.3-.38,2.15-.38,4.3,1.52,2.86,0,4.4-2.19-.37-4.27-.37-2.09.12-4.17.12-2.09.3-4.17.3-2.09.14-4.17.14-2.09-.94-4.17-.94-2.09.72-4.17.72-2.09-.6-4.17-.6-2.09,1.25-4.17,1.25-2.09-.1-4.17-.1-2.09-.29-4.17-.29-2.09-.12-4.17-.12-2.09-.72-4.17-.72-2.09.08-4.17.08-2.09-.1-4.17-.1-2.09,1-4.18,1-2.08-1-4.17-1-2.08,1-4.17,1-2.08-.83-4.17-.83-2.08-.36-4.17-.36-2.08.11-4.17.11-2.08,1.25-4.17,1.25-2.08-1.28-4.17-1.28-2.08.49-4.17.49-2.09.78-4.17.78-2.09,0-4.17,0-2.08-1.3-4.17-1.3-2.08.62-4.16.62-2.09-.41-4.17-.41-2.08.11-4.17.11-2.08-.39-4.16-.39-2.09,1.32-4.18,1.32-2.08-1-4.17-1-2.08,1-4.17,1-2.08-.39-4.16-.39-2.09-.14-4.17-.14-2.09.2-4.17.2-2.09.43-4.17.43-2.09-1.36-4.17-1.36-2.09.8-4.17.8-2.09.25-4.17.25-2.09-.31-4.17-.31-2.09-.63-4.18-.63-2.08,1.16-4.17,1.16-2.08-.25-4.17-.25-2.08-.27-4.17-.27-2.09.44-4.17.44-2.09-.94-4.17-.94-2.09.68-4.18.68-2.08-.47-4.17-.47-2.09.4-4.17.4-2.09.49-4.18.49-2.08-.65-4.17-.65-2.09.44-4.17.44-2.09-.66-4.18-.66h-4.17c-2.09,0-2.09.3-4.17.3s-2.09-.47-4.18-.47-2.08.92-4.17.92-2.08-.39-4.17-.39-2.09.51-4.17.51-2.09-1.2-4.18-1.2h-4.17c-2.09,0-2.09,0-4.17,0s-2.09,0-4.18,0H93.38c-2.08,0-2.08.8-4.17.8s-2.09.2-4.18.2H80.86c-2.09,0-2.09-.93-4.18-.93s-2.09-.06-4.19-.06-2.55,1.82-4,.35-.45-1.92-.45-4,.9-2.07.9-4.13-1.1-2.06-1.1-4.12-.09-2.06-.09-4.12,0-2.07,0-4.13.57-2.06.57-4.12-.11-2.06-.11-4.12-.37-2.07-.37-4.13S69.3,380,69,378,67.48,375.89,67.75,373.84Z"/><path class="cls-5" d="M206.5,86.86c.23.8.42,1.69.74,2.57s.8,1.56,1.16,2.41.63,1.63,1,2.46,1,1.44,1.44,2.25.71,1.61,1.16,2.39,1,1.44,1.48,2.21.6,1.7,1.1,2.45,1,1.45,1.53,2.19,1.65,1,2.19,1.68.62,1.75,1.19,2.45,1.16,1.32,1.74,2,1.44,1.09,2,1.75.87,1.61,1.48,2.25,1.29,1.22,1.93,1.84,1.57.91,2.22,1.52.8,1.75,1.47,2.33,1.9.5,2.59,1.07,1,1.58,1.68,2a21.09,21.09,0,0,0,2.43,1,18.48,18.48,0,0,0,2.4.85,17.44,17.44,0,0,0,2.44.71,18,18,0,0,0,2.54.45,22.26,22.26,0,0,0,2.57-.1,24.49,24.49,0,0,0,2.45-.84,20.44,20.44,0,0,0,2.53-.4c.8-.27,1.66-.42,2.46-.78s1.42-.94,2.19-1.37,1.73-.44,2.46-.93,1.14-1.32,1.84-1.86,1.53-.82,2.19-1.39,1.36-1.05,2-1.66,1-1.47,1.55-2.11,1.49-1,2.06-1.62.48-1.81,1-2.5,1.63-.9,2.14-1.61.69-1.6,1.18-2.32,1.33-1.17,1.8-1.91.72-1.56,1.17-2.31.9-1.46,1.34-2.22.72-1.55,1.13-2.32.34-1.74.73-2.52,1-1.4,1.38-2.18.49-1.65.85-2.44,1.14-1.36,1.49-2.16.74-1.54,1.07-2.35.49-1.65.81-2.46,1.06-1.43,1.36-2.24,0-1.83.28-2.61,1-1.45,1.31-2.24.46-1.65.7-2.45.57-1.61.8-2.42.37-1.67.58-2.48.23-1.7.42-2.51.14-1.71.3-2.53.9-1.56,1-2.39-.23-1.76-.13-2.58.64-1.65.71-2.48-.31-1.73-.27-2.57,0-1.69,0-2.53.44-1.71.39-2.55-.56-1.66-.65-2.49-.38-1.65-.51-2.48.36-1.8.17-2.62-1-1.49-1.23-2.3-.53-1.58-.82-2.38-.13-1.76-.46-2.54-.71-1.53-1.09-2.29"/><path class="cls-5" d="M284.57,27.47a13.13,13.13,0,0,0,.46-4.32c0-1.29-.83-2.74-1.22-4.18s-1.51-2.26-2.35-3.42-1.19-2.65-2.57-3.3A11,11,0,0,0,274.71,11c-1.4-.08-2.64,1-3.93,1.35s-2.87.09-4.07.85-1.72,2.09-2.78,3.08-1.46,2.16-2.4,3.26-2,1.76-2.82,2.9-1.66,2-2.47,3.21-2.2,1.72-3,2.89-.84,2.63-1.61,3.81-1.91,1.94-2.66,3.12-1,2.51-1.79,3.68-1.94,1.93-2.7,3.09-.9,2.61-1.66,3.77-2.19,1.77-3,2.92-.6,2.83-1.38,4-2.34,1.85-3.11,3-1,2.76-1.78,3.89-2.05,2-2.82,3.17-1.23,2.62-2,3.73-1.85,2.19-2.63,3.29-1.77,2.24-2.57,3.32-2,2.07-2.83,3.13-1.43,2.52-2.29,3.53-1.9,2.15-2.82,3.11-1.8,2.27-2.8,3.15a36.92,36.92,0,0,1-3.08,3c-1.19.81-2.8.86-4,1.44s-2.37,1.7-3.74,2.08a34.43,34.43,0,0,1-4.22.55c-1.33.18-2.73.52-4.2.58s-2.73-.89-4.21-.92-2.74.41-4.21.33"/><path class="cls-5" d="M291.63,25.18c1.88,1.1.73,1.73,2.61,3.67A25.31,25.31,0,0,1,297,32.08a28.54,28.54,0,0,1,2.16,3.69c.59,1.22,2.25,2.12,2.74,3.6.42,1.3.07,2.93.36,4.44a42.11,42.11,0,0,1,.23,4.33c.11,1.38.8,2.8.78,4.33s.29,2.9.13,4.41-.66,2.81-.93,4.31-.92,2.72-1.29,4.2-.18,2.86-.5,4.2-1.19,2.62-1.52,4-.73,2.74-1.06,4.07-.12,2.89-.45,4.22-.54,2.79-.88,4.11-.71,2.75-1.06,4.07-1.54,2.53-1.91,3.84-.7,2.75-1.09,4.05-.88,2.71-1.3,4-.18,3-.64,4.22-1.26,2.6-1.79,3.84-1.08,2.68-1.69,3.87a41.8,41.8,0,0,1-1.94,3.79c-.81,1.23-2.68,1.54-3.58,2.52s-1.45,2.58-2.57,3.36a17.21,17.21,0,0,1-3.67,2.17c-1.27.47-2.81.06-4.26.24"/><path class="cls-5" d="M265,5.22A24.32,24.32,0,0,0,261,4c-1.15-.32-2.7,0-4.26-.33-1.26-.26-2.68-.2-4.16-.42C251.21,3,249.92,2,248.46,1.83s-2.78.15-4.23.11-2.74.67-4.17.74-2.7.41-4.12.58-2.92-.84-4.32-.57-2.48,1.59-3.85,2-2.72.49-4.05,1-2.94.19-4.23.79S217.23,8.16,216,8.87s-2.73.93-3.9,1.74-1.94,2.09-3,3-1.91,2-2.94,3-2.48,1.47-3.44,2.54-1.79,2.14-2.65,3.19-1.78,2.16-2.59,3.24-.79,2.86-1.55,4-2.42,1.74-3.13,2.89-.71,2.82-1.37,4-1.52,2.32-2.12,3.54-1.49,2.36-2,3.61-1.11,2.55-1.6,3.82-1.28,2.5-1.71,3.79.21,3-.17,4.27-1.84,2.38-2.17,3.7,0,2.84-.28,4.18.15,2.83-.08,4.17-1.28,2.6-1.47,3.94.24,2.82.08,4.17-1,2.68-1.11,4-.7,2.72-.83,4.07.55,2.84.42,4.19-.07,2.79-.21,4.13-1,2.68-1.16,4,.55,2.91.31,4.23-1.2,2.61-1.53,3.92a40,40,0,0,1-1.22,3.93c-.47,1.32-.44,2.86-1.06,4.07a26.68,26.68,0,0,1-2.21,3.58c-.81,1.09-2.57,1.35-3.59,2.32a24.75,24.75,0,0,1-3.1,2.57,27.3,27.3,0,0,1-3.5,2"/><path class="cls-5" d="M283.88,27.65A17.87,17.87,0,0,0,281,24.56c-.9-.79-1.85-1.87-3.13-2.84-1-.78-2.32-1.41-3.59-2.24-1.11-.73-2.08-1.88-3.37-2.61s-2.74-.72-4.06-1.35-2.57-1-3.92-1.52-2.62-.82-4-1.25-2.51-1.26-3.91-1.6-2.78-.16-4.21-.39-2.7-.61-4.13-.73"/><path class="cls-5" d="M229.68,43.49c-1.3,1.7-.91,1.24-2.54,3.46-.71,1-1,2.51-2,3.85-.76,1.05-2.13,1.84-3,3.11-.77,1.1-.66,2.91-1.52,4.16s-2.23,1.85-3.06,3.08-.86,2.8-1.67,4-1.83,2.16-2.63,3.4-1.9,2.13-2.68,3.36-1.64,2.32-2.4,3.56-1.17,2.61-1.92,3.85-1.09,2.65-1.82,3.9-1.86,2.13-2.44,3.43-.92,2.62-1.37,4-1,2.61-1.31,4,.06,2.83-.19,4.22-.92,2.65-1.08,4,.21,2.79.13,4.18-.37,2.76-.36,4.15.22,2.77.32,4.15-.09,2.81.09,4.18-.29,2.91,0,4.26.83,2.73,1.21,4,1.16,2.61,1.65,3.87,1.72,2.29,2.36,3.48,1,2.69,1.76,3.77,1.45,2.57,2.47,3.46"/><path class="cls-5" d="M189.42,119.1a14.87,14.87,0,0,1-1.2-4c-.24-1.17.1-2.6-.06-4.18-.13-1.28-1.14-2.61-1.16-4.11,0-1.31.06-2.73.17-4.2s.3-2.73.54-4.16,1.34-2.5,1.7-3.9-.2-2.92.27-4.28,1.61-2.32,2.19-3.63"/><path d="M212.85,101.25c-1.36,1.67.09,1.78,1,4.47.4,1.14,1.18,2.39,1.74,4,.43,1.23,1.26,2.47,1.79,4,.45,1.26,1.55,2.4,2.06,3.86.46,1.28.84,2.68,1.35,4.11s.88,2.69,1.38,4.1c.61,1.7.65,3.52,1.64,4.06,1.22.66,2.84-.5,4.25-.95a13.55,13.55,0,0,0,3.49-1.94c1.87-1.28,4.2,0,4.24-2.12s-2.32-.35-4.36-1.85c-.93-.68-1.59-2.08-2.77-3.05-1-.8-2.26-1.39-3.32-2.37s-1.86-1.91-2.84-2.92-2-1.84-2.88-2.89-1.59-2.19-2.41-3.29-.9-2.62-1.63-3.78S213.48,102.46,212.85,101.25Z"/><path class="cls-5" d="M212.85,101.25c-1.36,1.67.09,1.78,1,4.47.4,1.14,1.18,2.39,1.74,4,.43,1.23,1.26,2.47,1.79,4,.45,1.26,1.55,2.4,2.06,3.86.46,1.28.84,2.68,1.35,4.11s.88,2.69,1.38,4.1c.61,1.7.65,3.52,1.64,4.06,1.22.66,2.84-.5,4.25-.95a13.55,13.55,0,0,0,3.49-1.94c1.87-1.28,4.2,0,4.24-2.12s-2.32-.35-4.36-1.85c-.93-.68-1.59-2.08-2.77-3.05-1-.8-2.26-1.39-3.32-2.37s-1.86-1.91-2.84-2.92-2-1.84-2.88-2.89-1.59-2.19-2.41-3.29-.9-2.62-1.63-3.78S213.48,102.46,212.85,101.25Z"/><path d="M284.19,27.53c1.82-.51-.21-1.72-.43-3.87-.11-1.15-.71-2.34-1-3.63a21.15,21.15,0,0,0-.7-3.64c-.55-1.32-.86-2.75-1.78-3.35S278,13,276.56,13c-1.18,0-2.49-.74-3.75-.54s-2.56.6-3.66.89c-2.07.55-3.44,1-3.44,1a32.5,32.5,0,0,1,3.93,2.32c1.3.72,2.82,1.18,4.07,2s2.51,1.83,3.66,2.71c1.31,1,2,2.57,3,3.43C282.48,26.59,282,28.13,284.19,27.53Z"/><path class="cls-5" d="M284.19,27.53c1.82-.51-.21-1.72-.43-3.87-.11-1.15-.71-2.34-1-3.63a21.15,21.15,0,0,0-.7-3.64c-.55-1.32-.86-2.75-1.78-3.35S278,13,276.56,13c-1.18,0-2.49-.74-3.75-.54s-2.56.6-3.66.89c-2.07.55-3.44,1-3.44,1a32.5,32.5,0,0,1,3.93,2.32c1.3.72,2.82,1.18,4.07,2s2.51,1.83,3.66,2.71c1.31,1,2,2.57,3,3.43C282.48,26.59,282,28.13,284.19,27.53Z"/><path d="M252.54,67.92a1.87,1.87,0,0,0-2.11.49,5.91,5.91,0,0,0-1.4,1.76c-.28.53-.77,1.16-1.15,1.93s-.37,1.48-.69,2.17-.57,1.45-.86,2.08c-.41.88-.69,1.62-.85,2.05A1.22,1.22,0,0,0,246,80c.49.33.92.45,1.57-.42.29-.4.73-.87,1.15-1.46s.94-.83,1.3-1.37.19-1.38.53-1.89.71-1.09,1-1.57c.43-.66.9-1.13,1.1-1.49a4.8,4.8,0,0,0,.62-2C253.34,69.1,253.46,68.4,252.54,67.92Z"/><path class="cls-5" d="M252.54,67.92a1.87,1.87,0,0,0-2.11.49,5.91,5.91,0,0,0-1.4,1.76c-.28.53-.77,1.16-1.15,1.93s-.37,1.48-.69,2.17-.57,1.45-.86,2.08c-.41.88-.69,1.62-.85,2.05A1.22,1.22,0,0,0,246,80c.49.33.92.45,1.57-.42.29-.4.73-.87,1.15-1.46s.94-.83,1.3-1.37.19-1.38.53-1.89.71-1.09,1-1.57c.43-.66.9-1.13,1.1-1.49a4.8,4.8,0,0,0,.62-2C253.34,69.1,253.46,68.4,252.54,67.92Z"/><path d="M269.83,91.86a1.59,1.59,0,0,0,2-.36,6.58,6.58,0,0,0,1.15-1.85c.28-.53.89-1.1,1.27-1.87s.85-1.24,1.18-1.92.15-1.65.44-2.28c.4-.88,1.14-1.44,1.3-1.87a2.1,2.1,0,0,0-.56-2.19c-.49-.32-1.16.08-1.8,1-.3.39-1,.69-1.4,1.28s-.34,1.24-.7,1.78-1,.84-1.33,1.35-.47,1.25-.77,1.73c-.43.67-.74,1.23-.94,1.59a4.93,4.93,0,0,0-.69,2A1.41,1.41,0,0,0,269.83,91.86Z"/><path class="cls-5" d="M269.83,91.86a1.59,1.59,0,0,0,2-.36,6.58,6.58,0,0,0,1.15-1.85c.28-.53.89-1.1,1.27-1.87s.85-1.24,1.18-1.92.15-1.65.44-2.28c.4-.88,1.14-1.44,1.3-1.87a2.1,2.1,0,0,0-.56-2.19c-.49-.32-1.16.08-1.8,1-.3.39-1,.69-1.4,1.28s-.34,1.24-.7,1.78-1,.84-1.33,1.35-.47,1.25-.77,1.73c-.43.67-.74,1.23-.94,1.59a4.93,4.93,0,0,0-.69,2A1.41,1.41,0,0,0,269.83,91.86Z"/><path class="cls-5" d="M255.27,98.66c2.38-.82,2.7-.07,4.79-1.48-.38-1.31-1.17-2.59-1.17-3.94a21,21,0,0,1,.78-4.11c.28-1.34,1.58-2.37,2.05-3.62a34.84,34.84,0,0,1,1.67-3.63c.68-1.34,1.37-2.47,2-3.48,1.29-2.06.79-1.85,2-3.44s.46-1.86,2.2-3.5A29.64,29.64,0,0,1,272.93,69a22.12,22.12,0,0,1,3.46-2.3c1.23-.55,2.81,0,4.17-.17s2.73-1.38,4.12-1.08"/><path class="cls-5" d="M238.82,51.6c1.65-1.36,1.67-.87,3.83-2.1,1.11-.63,2.73-.62,4.16-1.15a18.33,18.33,0,0,1,4-1.5,12.64,12.64,0,0,1,4.24.23,10.7,10.7,0,0,1,4.13,1.33"/><path class="cls-5" d="M257,73c-2.36.09-2.24-.07-4.73.08-1.63.1-3.42.08-4.74.23"/><path class="cls-5" d="M279.7,84.9c-2.17-.07-2,.87-4.35.91-1.47,0-3,.34-4.27.49"/><path class="cls-5" d="M255.81,112.35c-2.08-.56-2,.09-4.2-1.21-1.08-.63-1.67-2.29-2.86-3.37a18.06,18.06,0,0,1-3.19-2.83,21.51,21.51,0,0,1-1.74-3.89c-.54-1.23-1.78-2.32-2.11-3.82a25.18,25.18,0,0,1-.69-4.32"/><path class="cls-5" d="M194.79,114.36c1.55,1.4,1,2,2.55,3.41s2,.93,3.54,2.33,1.21,1.78,2.76,3.18,2.08.82,3.64,2.22,1.27,1.72,2.82,3.11,1.5,1.47,3.05,2.87,1.46,1.5,3,2.9,1.83,1.11,3.38,2.51,1.79,1.14,3.35,2.55.79,2.56,2.89,2.62,1.15-1.3,2.68-2.63,1.51-1.34,3-2.67,2.2-.55,3.73-1.88,1.66-1.18,3.19-2.51"/><path class="cls-5" d="M229.5,146.05a3.33,3.33,0,0,1-3.34,3.65,3.39,3.39,0,0,1-3.79-3.26,3.6,3.6,0,0,1,3.4-3.89A3.53,3.53,0,0,1,229.5,146.05Z"/><path class="cls-5" d="M76,266.83c0-2.1-.32-2.1-.32-4.21s0-2.1,0-4.21-.07-2.1-.07-4.2S75,252.1,75,250s-.74-2.1-.74-4.21,1.53-2.1,1.53-4.21-1.33-2.1-1.33-4.2.87-2.11.87-4.21-.68-2.1-.68-4.21-.36-2.1-.36-4.2.45-2.11.45-4.21-.17-2.1-.17-4.21.63-2.1.63-4.21.11-2.1.11-4.2,0-2.11,0-4.21-.61-2.11-.61-4.22.54-2.1.54-4.21-.26-2.1-.26-4.21.08-2.1.08-4.21,1.1-2.1,1.1-4.21S75,180.55,75,178.44s-1.19-2.4.29-3.9,1.77-.07,3.85-.07,2.08,0,4.17,0,2.08-.31,4.17-.31,2.08.78,4.16.78,2.09-1.26,4.17-1.26,2.09-.43,4.17-.43,2.08,1.82,4.17,1.82,2.08-.53,4.17-.53,2.08-.21,4.16-.21,2.09-.4,4.17-.4,2.08.4,4.17.4,2.08,1.15,4.17,1.15,2.08-1.59,4.17-1.59,2.08-.74,4.16-.74,2.09,2.33,4.17,2.33,2.09-1.2,4.17-1.2,2.08,0,4.17,0,2.08-.18,4.17-.18,2.08.31,4.17.31,2.08-.08,4.16-.08,2.09-.27,4.17-.27,2.09,1.39,4.17,1.39,2.08-1.16,4.17-1.16,2.08-.63,4.16-.63,2.08.32,4.16.32,2.08.29,4.17.29,2.08-.48,4.16-.48,2.09,1.2,4.17,1.2,2.09-1.57,4.17-1.57,2.08,1.15,4.17,1.15,2.08.25,4.16.25,2.08-.64,4.17-.64,2.08-.54,4.16-.54,2.09.28,4.17.28,2.09.4,4.17.4,2.09-.44,4.17-.44,2.08.73,4.17.73,2.08.2,4.17.2,2.08-.94,4.17-.94,2.08.6,4.17.6,2.08.55,4.16.55,2.09-.93,4.17-.93,2.09.08,4.17.08,2.09.29,4.17.29,2.09-.43,4.17-.43,2.09.56,4.17.56,2.09-.83,4.17-.83,2.09.62,4.17.62,2.09-1.56,4.18-1.56,2.08,2.06,4.17,2.06,2.08.35,4.17.35,2.08-.9,4.17-.9,2.08.05,4.17.05,2.09-.14,4.17-.14,2.09.59,4.17.59,2.08-.95,4.17-.95,2.08,0,4.17,0,2.09-.66,4.17-.66,2.09.28,4.17.28,2.09.83,4.17.83,2.09.06,4.18.06,2.09-.44,4.17-.44,2.09,1.35,4.18,1.35,2.08-1.64,4.17-1.64S343.88,175,346,175s2.09-.65,4.18-.65,2.09.22,4.18.22,2-1.12,3.46.36-.12,1.38-.12,3.47,1.18,2.09,1.18,4.19-.87,2.09-.87,4.18-.15,2.1-.15,4.19,1,2.09,1,4.19-.15,2.09-.15,4.18-.23,2.09-.23,4.19.06,2.09.06,4.18.17,2.1.17,4.19.15,2.09.15,4.19-.46,2.09-.46,4.18-.09,2.09-.09,4.18.66,2.09.66,4.18,0,2.09,0,4.18-1.25,2.09-1.25,4.19,1.1,2.09,1.1,4.18-.3,2.1-.3,4.19-.23,2.09-.23,4.18.46,2.1.46,4.19-.1,2.09-.1,4.18.4,2.09.4,4.18-.47,2.1-.47,4.19-.51,2.1-.51,4.19.44,2.09.44,4.18-.52,2.1-.52,4.19.18,2.09.18,4.18-.37,2.1-.37,4.19,1,2.1,1,4.19.42,2.09.42,4.18-1,2.1-1,4.19,0,2.1,0,4.19.15,2.09.15,4.19.22,2.09.22,4.18-.3,2.1-.3,4.19,1.48,2.1,1.48,4.19-1.76,2.1-1.76,4.19,1,2.09,1,4.19.68,2.09.68,4.19-.6,2.09-.6,4.19.66,2.09.66,4.19-1.08,2.09-1.08,4.18-.42,2.1-.42,4.19.79,2.1.79,4.19-1.47,2.09-1.47,4.19,1.13,2.09,1.13,4.18,1.27,2.1,1.27,4.19-1.54,2.1-1.54,4.19.78,2.1.78,4.19-.43,2.1-.43,4.19,0,2.1,0,4.2-.48,2.09-.48,4.19,1.24,2.09,1.24,4.19S359,394,359,396.13s0,2.1,0,4.19-.48,2.1-.48,4.2,1.93,3.16.45,4.65-2.53-.56-4.62-.56-2.08-.75-4.16-.75-2.09,1.94-4.17,1.94-2.08-1-4.17-1-2.08.29-4.17.29-2.08-.14-4.17-.14-2.08-.35-4.16-.35-2.09.26-4.17.26-2.08.36-4.17.36-2.08-.46-4.17-.46-2.08,1.19-4.16,1.19-2.09-1.51-4.17-1.51-2.09.29-4.17.29-2.08,0-4.17,0-2.08.92-4.17.92-2.08-.31-4.17-.31-2.08-.45-4.16-.45-2.09.52-4.17.52-2.09-1-4.17-1-2.08,1.39-4.17,1.39-2.08-1.57-4.17-1.57-2.08-.06-4.17-.06-2.08.59-4.16.59-2.08.4-4.16.4-2.09-1.51-4.17-1.51-2.08,1-4.16,1-2.08.79-4.17.79-2.08-1.05-4.17-1.05-2.08,1.73-4.17,1.73-2.08-1.07-4.16-1.07-2.08-.09-4.17-.09-2.08,1-4.16,1-2.09-1.35-4.17-1.35-2.08-.76-4.17-.76-2.08.84-4.17.84-2.08.43-4.17.43-2.08-1-4.16-1-2.09.26-4.17.26-2.09.07-4.17.07-2.09.31-4.17.31-2.08-1-4.17-1-2.08.92-4.17.92-2.08-1-4.17-1-2.08,2-4.17,2-2.08,0-4.17,0-2.08-.76-4.17-.76-2.08-.43-4.17-.43-2.08.05-4.17.05-2.09.9-4.17.9-2.09-1.05-4.17-1.05-2.09.4-4.17.4-2.09.62-4.17.62-2.09,0-4.18,0-2.08-1.14-4.17-1.14-2.08.1-4.16.1-2.09.76-4.18.76-2.08.13-4.16.13-2.09,0-4.18,0-2.08-1.27-4.17-1.27-2.08.42-4.17.42-2.09-.83-4.17-.83-2.09.68-4.18.68S98,408,95.87,408s-2.09.34-4.17.34-2.09.33-4.18.33-2.09.62-4.18.62-2.09-.81-4.18-.81-2.91,2-4.39.5.73-2.31.73-4.39-.31-2.09-.31-4.18,0-2.08,0-4.17.16-2.09.16-4.18-.67-2.08-.67-4.17-.07-2.09-.07-4.17-.48-2.09-.48-4.18,1-2.09,1-4.17-.11-2.09-.11-4.18,0-2.09,0-4.18-1-2.08-1-4.17.81-2.09.81-4.17.67-2.09.67-4.18-1.3-2.08-1.3-4.17S74,348.19,74,346.1s1.22-2.08,1.22-4.17-.51-2.09-.51-4.18.18-2.08.18-4.17.47-2.09.47-4.18-.17-2.09-.17-4.18-1.27-2.09-1.27-4.18,2-2.09,2-4.17.28-2.09.28-4.19-.34-2.09-.34-4.18-1.44-2.09-1.44-4.18"/><path class="cls-5" d="M358.5,195.77c-2.09,0-2.09-.83-4.18-.83s-2.08.79-4.17.79-2.09-.31-4.18-.31-2.09-.8-4.18-.8-2.09.53-4.17.53-2.09.29-4.18.29-2.09-.64-4.18-.64-2.09.6-4.17.6-2.09-.75-4.18-.75-2.09,1-4.18,1-2.09-.59-4.18-.59-2.08-.26-4.17-.26-2.09,1.13-4.18,1.13-2.09-1.21-4.18-1.21-2.09-.08-4.18-.08-2.08,1.17-4.17,1.17-2.09-.93-4.18-.93-2.09.49-4.18.49-2.09-.21-4.18-.21-2.08-.34-4.17-.34-2.09-.27-4.18-.27-2.08,1-4.17,1-2.08-.55-4.17-.55-2.09-.07-4.17-.07-2.09.33-4.18.33-2.09,0-4.18,0-2.09-.07-4.17-.07-2.09-.32-4.18-.32-2.09.32-4.17.32-2.09.25-4.18.25-2.09-.29-4.17-.29-2.09-.24-4.18-.24-2.09.29-4.18.29-2.09-.4-4.18-.4-2.09.78-4.17.78-2.09.1-4.18.1-2.09-.5-4.18-.5-2.09-.52-4.18-.52-2.09.29-4.18.29-2.08-.4-4.17-.4-2.09.24-4.18.24-2.09.91-4.18.91-2.09-.18-4.18-.18-2.09.07-4.18.07-2.09-1-4.18-1-2.09.37-4.18.37h-4.18c-2.09,0-2.09.67-4.18.67s-2.09.21-4.18.21-2.09-.94-4.18-.94-2.09.67-4.18.67-2.09-.85-4.18-.85-2.09.08-4.18.08-2.09.27-4.18.27-2.09.52-4.17.52-2.1-1.08-4.19-1.08-2.09.28-4.18.28-2.09.73-4.18.73-2.09-1-4.18-1-2.09,1-4.18,1-2.09-.07-4.19-.07-2.09.11-4.18.11-2.09-.91-4.18-.91-2.09-.07-4.19-.07-2.09,1-4.19,1-2.09-.08-4.18-.08"/><path d="M91.89,185.29a3.77,3.77,0,0,1-1.48,2.53,3.21,3.21,0,0,1-2.53.89c-1.06,0-2.21.19-2.91-.5a4.18,4.18,0,0,1-1-2.92,3.61,3.61,0,0,1,1.41-2.47,3.37,3.37,0,0,1,2.47-1.23,3.92,3.92,0,0,1,2.82.88A4.13,4.13,0,0,1,91.89,185.29Z"/><path class="cls-5" d="M91.89,185.29a3.77,3.77,0,0,1-1.48,2.53,3.21,3.21,0,0,1-2.53.89c-1.06,0-2.21.19-2.91-.5a4.18,4.18,0,0,1-1-2.92,3.61,3.61,0,0,1,1.41-2.47,3.37,3.37,0,0,1,2.47-1.23,3.92,3.92,0,0,1,2.82.88A4.13,4.13,0,0,1,91.89,185.29Z"/><path class="cls-1" d="M103.36,189.55c-1.06,0-1.87-1-2.57-1.68s-1.65-1.51-1.65-2.58a4.35,4.35,0,0,1,1.4-2.82c.7-.7,1.76-.57,2.82-.57a3.48,3.48,0,0,1,2.69.71,4,4,0,0,1,1.32,2.68,3.74,3.74,0,0,1-1.51,2.5C105.16,188.49,104.43,189.55,103.36,189.55Z"/><path class="cls-6" d="M103.36,189.55c-1.06,0-1.87-1-2.57-1.68s-1.65-1.51-1.65-2.58a4.35,4.35,0,0,1,1.4-2.82c.7-.7,1.76-.57,2.82-.57a3.48,3.48,0,0,1,2.69.71,4,4,0,0,1,1.32,2.68,3.74,3.74,0,0,1-1.51,2.5C105.16,188.49,104.43,189.55,103.36,189.55Z"/><path class="cls-4" d="M117.56,189.29a3.76,3.76,0,0,1-2.53-1.47,3.21,3.21,0,0,1-.89-2.53c0-1.06-.2-2.21.5-2.91a4.18,4.18,0,0,1,2.92-1,3.58,3.58,0,0,1,2.47,1.41,3.41,3.41,0,0,1,1.23,2.47,3.92,3.92,0,0,1-.88,2.82A4.12,4.12,0,0,1,117.56,189.29Z"/><path class="cls-3" d="M117.56,189.29a3.76,3.76,0,0,1-2.53-1.47,3.21,3.21,0,0,1-.89-2.53c0-1.06-.2-2.21.5-2.91a4.18,4.18,0,0,1,2.92-1,3.58,3.58,0,0,1,2.47,1.41,3.41,3.41,0,0,1,1.23,2.47,3.92,3.92,0,0,1-.88,2.82A4.12,4.12,0,0,1,117.56,189.29Z"/><path class="cls-5" d="M174.34,251.25c-1.7,1.22-1.26.76-3.42,2.38-.93.71-2.34,1.16-3.62,2.14-1,.78-1.7,2.13-2.89,3.07-1,.8-2.43,1.27-3.58,2.19s-1.78,2.12-2.91,3-2.62,1.11-3.73,2-2,1.85-3.12,2.77-2.25,1.6-3.33,2.53-1.54,2.42-2.61,3.35-2.06,1.83-3.12,2.77-2.63,1.2-3.68,2.15-1.47,2.48-2.51,3.43-2.16,1.73-3.19,2.69-2.08,1.82-3.1,2.79-2,1.9-3,2.88-2.26,1.65-3.26,2.63-2,1.89-3,2.88-1.36,2.55-2.34,3.55-2,1.93-3,2.94-2.42,1.52-3.38,2.54-1.79,2.13-2.75,3.15-1.34,2.54-2.28,3.57-2.12,1.83-3,2.87S101.9,317.9,101,319s-2.76,1.28-3.67,2.34-1.34,2.51-2.24,3.57-1.38,2.47-2.27,3.54-2.62,1.46-3.49,2.55-1.14,2.65-2,3.74-1.93,2-2.77,3.14-1.38,2.44-2.21,3.56-2.1,1.92-2.91,3.05-1.58,2.3-2.37,3.44-1.66,2.24-2.44,3.4-1.83,2.14-2.58,3.3-1.13,2.6-1.87,3.78-.88,2.72-1.6,3.91-2.19,1.94-2.89,3.15-1.33,2.45-2,3.67"/><path class="cls-5" d="M241,251.54c1.89.9,1.77-.28,4.19,1,1,.53,1.9,1.92,3.33,2.69,1.12.6,2.57.85,3.91,1.59,1.14.64,2.43,1.21,3.72,1.94s2,2,3.25,2.78,2.33,1.43,3.58,2.18,2.94.46,4.17,1.22,2.29,1.56,3.51,2.32,1.85,2.24,3.05,3,3,.53,4.16,1.32,2.29,1.58,3.47,2.37,2,1.93,3.23,2.74,1.92,2.1,3.08,2.91,2.19,1.71,3.34,2.53,2.4,1.42,3.54,2.26,2.71,1,3.85,1.86,1.55,2.56,2.68,3.42,2.89.8,4,1.67,1.79,2.24,2.89,3.12,1.94,2,3,2.93,2.51,1.32,3.6,2.22,2.17,1.76,3.24,2.67,2.4,1.5,3.47,2.42,2.28,1.65,3.33,2.58,1.82,2.17,2.87,3.11,1.62,2.36,2.66,3.32,1.95,2,3,3,2.56,1.36,3.57,2.33,1.46,2.5,2.47,3.49,2.59,1.36,3.58,2.36,2,1.93,3,3,2.18,1.79,3.14,2.82,1.21,2.69,2.16,3.73,2.15,1.83,3.09,2.87,2,2,2.92,3,1.41,2.48,2.32,3.55,2,2,2.86,3.09,2.36,1.69,3.24,2.78.79,3,1.65,4.06,1.66,2.25,2.51,3.37,1.83,2.12,2.67,3.25"/><path class="cls-5" d="M120.72,195.41c-.69,1.92-1,1.83-1.65,3.75s-1.15,1.75-1.83,3.67-.44,2-1.13,3.92-1.17,1.75-1.86,3.66-.16,2.11-.84,4-1.2,1.73-1.89,3.65-.91,1.84-1.6,3.76.12,2.21-.57,4.13-.77,1.88-1.46,3.8-.09,2.14-.78,4.06-1.06,1.78-1.75,3.7-1.22,1.73-1.91,3.65-.94,1.83-1.63,3.75-.45,2-1.14,3.92-1,1.82-1.66,3.74-.72,1.91-1.41,3.84.2,2.24-.49,4.16"/><path class="cls-5" d="M166,129.15s-21.32.9-35.67,39"/><path class="cls-5" d="M85.92,272.74s-1.27-.62-3.67-2c-1.09-.61-2.27-1.53-3.77-2.24-1.23-.59-2.51-1.33-4-1.91-1.29-.52-2.8-.65-4.26-1.12s-2.63-1.31-4.1-1.67-2.85-.57-4.34-.81-2.84-1-4.34-1.09-3,.08-4.46.11"/><path class="cls-5" d="M52.39,284.76c2.06.25,1.71-.52,4.21-.23,1.2.13,2.47,1.47,4,1.65,1.3.15,2.73,0,4.17.19s2.76.22,4.15.38,2.85-.17,4.19,0,2.78,1.19,4,1.32c2,.21,3.28.26,4,.9,1.14,1,.65,2-.32,3.56A13.66,13.66,0,0,1,78.4,296a32.6,32.6,0,0,1-3.17,3"/><path class="cls-5" d="M105.23,272c1.12-1.74,1.72-1.36,2.84-3.1s.82-1.94,2-3.69.56-2.11,1.69-3.86,1.54-1.47,2.66-3.22,1.49-1.51,2.62-3.26.14-2.38,1.26-4.13,1.92-1.23,3-3,1.46-1.53,2.58-3.28.35-2.24,1.48-4,1.26-1.66,2.38-3.4.85-1.93,2-3.67,1.46-1.54,2.58-3.29,1.2-1.7,2.32-3.45,1.09-1.77,2.22-3.51,1.48-1.52,2.61-3.27.95-1.86,2.08-3.6,1.43-1.55,2.56-3.29,1.14-1.74,2.26-3.49.4-2.22,1.52-4,.74-2,1.86-3.75,2-1.22,3.08-3,1.4-1.58,2.53-3.33"/><path class="cls-5" d="M94.89,264.63c-1.7-1.16-2.37-.17-4.07-1.33s-1.3-1.74-3-2.91-1.37-1.91-3.42-2.12c-2.28-.25-2,1.58-2.14,4.06-.1,1.34.73,3,1.67,4.51.72,1.18,1.48,2.61,2.11,3.9.8,1.63,1.16,2.72-.07,3.63a6.44,6.44,0,0,0-2.23,3.36,4.91,4.91,0,0,0,.93,3.77,4.59,4.59,0,0,0,3.16,2.25c1.68.22,2.83.74,3.4,2.44a15.69,15.69,0,0,1,.42,4.59A3,3,0,0,0,93.88,294c1.15.27,2.48-.35,3.77-1.23a7.27,7.27,0,0,0,2.91-2.84c.84-1.86.9-3.78,1.63-4.83a3.09,3.09,0,0,1,4.71-.85c.89.63,2.21.32,3.81-.26,1.24-.45,2.26-1.54,3.42-2.2,1.94-1.13,5.3-.08,4.34-1.89s-2.34-.37-3.92-1.38-1.36-1.35-2.94-2.36-1.85-.58-3.44-1.59-1.25-1.53-2.83-2.54"/><path class="cls-5" d="M75.14,273.72c-2-1.05-1.72-.46-4.35-1.44-1.23-.45-2.67-1-4.32-1.43-1.35-.38-2.94-.2-4.53-.51-1.42-.28-2.85-.78-4.42-.94s-3-1.19-4.51-1.19"/><path class="cls-5" d="M75,281.42c-2.09-.9-1.31-1.5-4-2.29-1.26-.36-2.93,0-4.6-.35-1.38-.28-2.8-1-4.4-1.23-1.44-.18-3,0-4.56,0s-3,.22-4.51.33"/><path class="cls-5" d="M105.26,272.05c-1.81,1.46-1.84,1.45-4.23,1.71-1.36.15-3.15.31-4.6-.85A11.24,11.24,0,0,1,93.64,269"/><path class="cls-1" d="M103.32,265c0,.61-1.18,1.16-1.79,1.16s-.88-.55-.88-1.16.28-1.49.88-1.49S103.32,264.41,103.32,265Z"/><path class="cls-1" d="M110.12,258.08c0,.6-1,1.2-1.61,1.2s-1.52-.6-1.52-1.2.91-1.71,1.52-1.71A2.31,2.31,0,0,1,110.12,258.08Z"/><path class="cls-1" d="M102.81,250.66c0,.61-.67.77-1.28.77s-1.26-.16-1.26-.77.66-1.53,1.26-1.53S102.81,250.06,102.81,250.66Z"/><path class="cls-1" d="M117,251.14a1.92,1.92,0,0,1-1.55,1.45c-.6,0-1.61-.85-1.61-1.45s1-1.47,1.61-1.47A1.93,1.93,0,0,1,117,251.14Z"/><path class="cls-1" d="M110.1,243.73c0,.6-1,.76-1.59.76s-.83-.16-.83-.76.22-1.47.83-1.47A2,2,0,0,1,110.1,243.73Z"/><path class="cls-1" d="M116.77,236.79a1.34,1.34,0,0,1-1.29,1.18,1.44,1.44,0,0,1-1.37-1.18c0-.6.77-1.53,1.37-1.53S116.77,236.19,116.77,236.79Z"/><path class="cls-1" d="M123,229.85c0,.61,0,.72-.56.72s-1.58-.11-1.58-.72,1-.63,1.58-.63S123,229.25,123,229.85Z"/><path class="cls-1" d="M117.05,222.44c0,.61-1,.67-1.57.67s-1.09-.06-1.09-.67.49-.6,1.09-.6S117.05,221.84,117.05,222.44Z"/><path class="cls-1" d="M130.24,222.92c0,.6-.2,1.27-.81,1.27s-1.69-.67-1.69-1.27,1.09-.92,1.69-.92S130.24,222.31,130.24,222.92Z"/><path class="cls-1" d="M124.22,215.51c0,.6-1.16.79-1.76.79s-1.22-.19-1.22-.79a1.46,1.46,0,0,1,1.22-1.37C123.06,214.14,124.22,214.9,124.22,215.51Z"/><path class="cls-1" d="M136.92,216c0,.61.09.39-.51.39s-1.12.22-1.12-.39a1.3,1.3,0,0,1,1.12-1.29C137,214.69,136.92,215.38,136.92,216Z"/><path class="cls-1" d="M130,208.57c0,.61,0,1.57-.57,1.57s-1.06-1-1.06-1.57.46-.79,1.06-.79S130,208,130,208.57Z"/><path class="cls-1" d="M144.5,209c0,.61-.51,1.35-1.12,1.35s-.76-.74-.76-1.35.16-1.29.76-1.29A1.3,1.3,0,0,1,144.5,209Z"/><path class="cls-1" d="M138.22,201.63c0,.61-1.21.83-1.81.83s-1.46-.22-1.46-.83.85-.86,1.46-.86S138.22,201,138.22,201.63Z"/><path class="cls-1" d="M123.75,201.16c0,.6-.69.63-1.29.63s-1.23,0-1.23-.63.62-1.71,1.23-1.71S123.75,200.55,123.75,201.16Z"/><path class="cls-5" d="M59.49,393.57a30.72,30.72,0,0,1,3.68-2.23c1.1-.58,2-2,3.51-2.72,1.21-.56,2.91-.35,4.33-.94s2.44-1.57,3.86-2.06,2.86-.46,4.28-.86,2.89-.19,4.32-.49,2.74-.9,4.18-1.08,2.83-1.23,4.27-1.26,2.84,1.32,4.28,1.46a28,28,0,0,1,4.18.69,24.47,24.47,0,0,1,4.15,1c1.27.57,2.77.55,4,1.1s2.06,2.1,3.25,2.66,2.9.3,4.09.85,2.6.89,3.81,1.41,2.25,1.72,3.48,2.18,2.51,1.18,3.8,1.54a37,37,0,0,0,4,.66,33.46,33.46,0,0,0,4,.83,38.22,38.22,0,0,0,4.08-.55c1.3-.09,2.57-.64,4-.88s2.75.24,4.13-.12,2.55-.77,3.9-1.22,2.42-1.62,3.73-2.11,2.53-1.26,3.84-1.77,3.05.07,4.36-.45,2.6-1.07,3.9-1.58,2.33-1.78,3.65-2.27,2.72-.77,4-1.22,2.63-1.05,4-1.45,2.65-1.08,4-1.4,2.88,0,4.28-.25,2.74-.78,4.15-.91,2.83.46,4.26.44,2.79-.36,4.22-.28,2.85-.31,4.28-.12,2.77.52,4.18.8,2.7.78,4.1,1.16,2.88.43,4.24.8,2.68,1.14,4,1.51,2.64,1.29,4,1.66,2.94.18,4.3.53,2.79.73,4.16,1.07,2.6,1.58,4,1.88,3,0,4.34.21,2.84.5,4.24.69,2.82.71,4.23.84,2.9-.44,4.32-.4,2.85.33,4.28.27,2.78-.68,4.22-.84,2.95.58,4.38.31,2.56-1.49,4-1.86,3,.09,4.37-.38,2.52-1.41,3.86-1.89,2.86-.45,4.2-.93,2.39-1.79,3.72-2.26,2.8-.65,4.14-1.1,2.92-.23,4.27-.63,2.59-1.31,3.95-1.66,2.66-1.3,4-1.57,3,.85,4.42.69,2.76-.75,4.18-.79,2.81,0,4.23.09a38.3,38.3,0,0,1,4.14.9,36,36,0,0,1,4.2.6c1.32.42,2.88.37,4.21,1s2.1,2.06,3.37,2.78,2.49,1.24,3.69,2.09,2.63,1.38,3.83,2.08a39.07,39.07,0,0,0,4.06,1.52c1.38.62,2.36,2.11,3.67,2.52a30.17,30.17,0,0,0,4.3.92c1.51.24,3-.25,4.37-.28a18.77,18.77,0,0,0,4.21-.72,14.21,14.21,0,0,0,3.85-1.69,10.51,10.51,0,0,0,3.12-2.72"/><path class="cls-5" d="M169.48,194.76c-1.43,1.61.59,2.62.75,4.76s-.12,2.17,0,4.31,0,2.16.16,4.3,1.37,2.06,1.53,4.2-1.21,2.25-1.05,4.39,1.44,2.05,1.6,4.2-.06,2.16.1,4.31.1,2.15.26,4.29-.29,2.18-.13,4.33.78,2.1.94,4.24-.82,2.22-.66,4.37.49,2.12.65,4.27-1,2.74.56,4.23,2,.41,4.13.41,2.09,0,4.18,0,2.1-1,4.19-1,2.09.91,4.18.91,2.1-.11,4.19-.11,2.09.51,4.19.51,2.09-1.25,4.18-1.25,2.1.28,4.19.28,2.1.45,4.19.45,2.1-.11,4.19-.11,2.1-.4,4.19-.4,2.09.34,4.19.34,2.09.27,4.19.27,2.1-.36,4.19-.36,2.1,0,4.2,0,2.15.62,4.21.18,1.09-1.11,2.85-3.08c.79-.88,1.54-2.09,2.59-3.28.85-1,1.84-2,2.82-3.08s2-1.85,3-3,1.17-2.6,2.1-3.7,2.46-1.53,3.37-2.62,1.72-2.16,2.62-3.26,1.42-2.42,2.3-3.52,1.83-2.09,2.7-3.19a27.36,27.36,0,0,0,2.06-3.52,30,30,0,0,0,1.83-3.62,36.69,36.69,0,0,0,1.12-3.9c.36-1.33,1-2.56,1.22-3.9s.08-2.73.22-4.08,1-2.67,1.09-4-.08-3.08-.05-4.42c-2-.64-2.16,1-4.22,1s-2.05-.68-4.11-.68-2.06-.39-4.12-.39-2.05,0-4.11,0-2.06,1-4.11,1-2.06-.71-4.12-.71-2.06.81-4.11.81-2.06-1.25-4.12-1.25-2.05.08-4.11.08-2.06.6-4.12.6h-4.11c-2.06,0-2.06.09-4.11.09s-2.06.31-4.12.31-2-.87-4.11-.87-2.06.79-4.12.79-2.05-1.08-4.11-1.08-2.06.22-4.12.22-2.06,1-4.11,1-2.06-.32-4.12-.32-2.06-.74-4.12-.74-2.06,1.2-4.12,1.2-2.05-1.18-4.11-1.18-2.06.15-4.12.15-2.25,1.3-4.24.76C171.6,195,170.85,193.22,169.48,194.76Z"/><path d="M268.37,167.06c-.51-1.38-1.78-2.42-2.25-3.7s-.64-2.85-1.11-4.11-.83-2.79-1.29-4.05c-.51-1.42-.75-2.84-1.2-4.08-.52-1.44-1.12-2.73-1.56-4-.53-1.49-2-2.47-2.42-3.65-.56-1.6-.67-3.05-1.05-4.13-1-2.86.84-3.31-1.19-3.9-1.86-.54-1.89.42-3.82.38s-1.92-.73-3.85-.76-1.93-.43-3.87-.46-2.22-.69-4,0,.61,2.16.07,4.59c-.27,1.17-1.07,2.45-1.54,3.89-.4,1.24-1.72,2.19-2.31,3.5s-.08,3.05-.83,4.23a23.69,23.69,0,0,1-2.54,3.38,19.27,19.27,0,0,1-3.52,2.35c-1.11.75-2.59.71-3.94,1.17a15,15,0,0,1-3.87.88,19.28,19.28,0,0,1-4,0,31.26,31.26,0,0,1-4.22-.49c-1.41-.37-3-.15-4.32-.69s-2.09-2.25-3.3-3-2.76-1-3.88-1.87a39.53,39.53,0,0,1-3.12-2.94c-1-1-1.81-2.21-2.72-3.29s-1.66-2.32-2.46-3.47-1.71-2.32-2.41-3.51-1.06-2.71-1.68-3.93-2.39-2.15-2.91-3.37c-.63-1.48-.8-3-1.21-4.14-.88-2.5,1-3.29-1.16-3.56a6.26,6.26,0,0,0-3.75.31c-1.89.53-1.69,1.26-3.58,1.79s-2.09-.22-4,.31-1.73,1.12-3.62,1.64-3.23-1.28-4.35.34.68,2.35.81,4.4.39,2,.51,4.07.16,2.05.28,4.1-.56,2.09-.43,4.14.54,2,.67,4.07.66,2,.79,4.06-1.18,2.13-1.06,4.18.41,2,.53,4.08.57,2,.69,4.07-.32,2.08-.2,4.13-.64,2.38.87,3.77,1.83-.26,3.94-.26,2.11,1.24,4.22,1.24,2.11-.48,4.22-.48,2.11.4,4.22.4,2.11-.25,4.22-.25,2.11-.54,4.22-.54,2.12,0,4.23,0,2.11.23,4.22.23,2.11.45,4.22.45,2.11-.17,4.22-.17,2.11,0,4.22,0,2.11-.2,4.22-.2,2.11-.11,4.22-.11,2.11-.18,4.22-.18,2.11.06,4.23.06,2.11.53,4.22.53,2.11-.16,4.22-.16,2.12-.92,4.23-.92,2.11,1,4.22,1,2.11-.86,4.23-.86,2.11.86,4.22.86,2.11-.84,4.23-.84,2.11.21,4.23.21,2.08.42,4.1-.19c-.33-1.18-1.1-1.76-1.48-2.91S268.79,168.2,268.37,167.06Z"/><path class="cls-5" d="M268.37,167.06c-.51-1.38-1.78-2.42-2.25-3.7s-.64-2.85-1.11-4.11-.83-2.79-1.29-4.05c-.51-1.42-.75-2.84-1.2-4.08-.52-1.44-1.12-2.73-1.56-4-.53-1.49-2-2.47-2.42-3.65-.56-1.6-.67-3.05-1.05-4.13-1-2.86.84-3.31-1.19-3.9-1.86-.54-1.89.42-3.82.38s-1.92-.73-3.85-.76-1.93-.43-3.87-.46-2.22-.69-4,0,.61,2.16.07,4.59c-.27,1.17-1.07,2.45-1.54,3.89-.4,1.24-1.72,2.19-2.31,3.5s-.08,3.05-.83,4.23a23.69,23.69,0,0,1-2.54,3.38,19.27,19.27,0,0,1-3.52,2.35c-1.11.75-2.59.71-3.94,1.17a15,15,0,0,1-3.87.88,19.28,19.28,0,0,1-4,0,31.26,31.26,0,0,1-4.22-.49c-1.41-.37-3-.15-4.32-.69s-2.09-2.25-3.3-3-2.76-1-3.88-1.87a39.53,39.53,0,0,1-3.12-2.94c-1-1-1.81-2.21-2.72-3.29s-1.66-2.32-2.46-3.47-1.71-2.32-2.41-3.51-1.06-2.71-1.68-3.93-2.39-2.15-2.91-3.37c-.63-1.48-.8-3-1.21-4.14-.88-2.5,1-3.29-1.16-3.56a6.26,6.26,0,0,0-3.75.31c-1.89.53-1.69,1.26-3.58,1.79s-2.09-.22-4,.31-1.73,1.12-3.62,1.64-3.23-1.28-4.35.34.68,2.35.81,4.4.39,2,.51,4.07.16,2.05.28,4.1-.56,2.09-.43,4.14.54,2,.67,4.07.66,2,.79,4.06-1.18,2.13-1.06,4.18.41,2,.53,4.08.57,2,.69,4.07-.32,2.08-.2,4.13-.64,2.38.87,3.77,1.83-.26,3.94-.26,2.11,1.24,4.22,1.24,2.11-.48,4.22-.48,2.11.4,4.22.4,2.11-.25,4.22-.25,2.11-.54,4.22-.54,2.12,0,4.23,0,2.11.23,4.22.23,2.11.45,4.22.45,2.11-.17,4.22-.17,2.11,0,4.22,0,2.11-.2,4.22-.2,2.11-.11,4.22-.11,2.11-.18,4.22-.18,2.11.06,4.23.06,2.11.53,4.22.53,2.11-.16,4.22-.16,2.12-.92,4.23-.92,2.11,1,4.22,1,2.11-.86,4.23-.86,2.11.86,4.22.86,2.11-.84,4.23-.84,2.11.21,4.23.21,2.08.42,4.1-.19c-.33-1.18-1.1-1.76-1.48-2.91S268.79,168.2,268.37,167.06Z"/><path class="cls-7" d="M242.35,208.7c-1.58,1.44-1.12,1.94-2.7,3.38s-2.14.82-3.72,2.26-1,2.11-2.55,3.55l-3.16,2.88c-1.58,1.44-1.84,1.15-3.42,2.6s-1.63,1.37-3.21,2.82-2.05.92-3.63,2.36-.74,2.37-2.31,3.81-1.55,1.48-3.13,2.92-1.56,1.47-3.14,2.92-2.22.74-3.8,2.18-1.21,1.85-2.79,3.29-1.76,1.25-3.34,2.69-1.34,1.71-2.92,3.15-1.38,1.66-3,3.11-1.94,1-3.53,2.49L188.89,258"/><path class="cls-7" d="M173.68,279c-.63,1.94-.06,2.13-.69,4.08s-1.26,1.74-1.89,3.69-.07,2.13-.7,4.08-.2,2.08-.83,4-1.64,1.63-2.27,3.58.53,2.32-.1,4.27-1.27,1.74-1.9,3.69-.12,2.11-.75,4.06-1.06,1.81-1.69,3.76-.26,2.07-.89,4l-1.26,3.9c-.64,1.95-1.08,1.8-1.71,3.75s-1.16,1.78-1.79,3.73-.25,2.07-.88,4-.6,2-1.23,3.91-.8,1.9-1.43,3.85-.34,2-1,4-1.18,1.78-1.81,3.73-.33,2-1,4-.18,2.1-.81,4.05-.46,2-1.09,3.95-1.52,1.66-2.15,3.61-.47,2-1.1,3.95-.91,1.86-1.54,3.81,0,2.15-.65,4.1-1.25,1.75-1.88,3.7-.06,2.13-.69,4.08-.8,1.9-1.43,3.85-.92,1.86-1.55,3.81-.48,2-1.11,4-.39,2-1,4-.71,1.93-1.34,3.88-.93,1.86-1.56,3.81-.63,2-1.26,3.91"/><path class="cls-7" d="M228.8,278.33l1.06,4c.53,2,0,2.16.52,4.17s1.61,1.72,2.14,3.73-.15,2.19.38,4.21,1,1.89,1.53,3.9.34,2.06.88,4.07,1.11,1.86,1.64,3.87.3,2.07.83,4.09.55,2,1.08,4-.16,2.2.37,4.21.38,2.05.91,4.07,1.39,1.78,1.92,3.8.58,2,1.12,4,.56,2,1.09,4,.32,2.07.85,4.08,0,2.15.56,4.16.93,1.91,1.46,3.92.93,1.9,1.47,3.92.5,2,1,4,.52,2,1,4-.52,2.29,0,4.3,1.3,1.81,1.83,3.82.23,2.09.76,4.11.6,2,1.13,4,0,2.16.52,4.17,1.19,1.84,1.72,3.85,0,2.17.49,4.18.71,2,1.24,4,.76,2,1.29,4,.35,2.06.88,4.08"/><path class="cls-2" d="M270.23,174c1.72,1,1.26.81,3.42,2.1,1,.59,2,1.59,3.27,2.37,1.06.64,2.15,1.43,3.38,2.17s2.49.94,3.69,1.66,2.19,1.5,3.36,2.21,2.07,1.72,3.24,2.42,2.24,1.46,3.39,2.16,2.41,1.21,3.55,1.9,2.22,1.55,3.35,2.24,2.45,1.21,3.57,1.89,2.43,1.27,3.53,1.94,2.56,1.12,3.62,1.78c1.28.78,2.44,1.47,3.44,2.09,1.54,1,2.54,2,3.22,2.44a21.69,21.69,0,0,0,3.83,1.5,22.57,22.57,0,0,0,3.91,1.06,21.43,21.43,0,0,0,4,.73c1.34,0,2.74.5,4.15.27a21.44,21.44,0,0,0,4-1.12c1.25-.46,2.14-1.68,3.38-2.42a22.69,22.69,0,0,0,3.52-2.1c1.06-.9,2.51-1.34,3.55-2.23s1.8-2.18,2.83-3.07,2.31-1.59,3.35-2.48,1.72-2.27,2.75-3.16,2.08-1.86,3.11-2.74,2.82-1,3.85-1.88,1.78-2.22,2.8-3.1,2.22-1.72,3.23-2.6,1.95-2.05,2.95-2.92,1.92-2.1,2.91-3,2.27-1.73,3.25-2.58c1.13-1,2.67-1.33,3.61-2.16,1.2-1.05,1.84-2.42,2.71-3.18,2-1.77,4.1-.89,3-2.62s-1.53-1.13-3.14-2.26-1.84-.79-3.45-1.91-1.51-1.27-3.13-2.4-1.05-2.59-3-2.56-1.6,1.29-3.28,2.47-1.61,1.27-3.28,2.45-1.65,1.22-3.32,2.4-1.85.93-3.53,2.12-1.89.87-3.56,2.05-1.17,1.9-2.84,3.09-1.64,1.23-3.31,2.42l-3.35,2.36c-1.67,1.19-2.05.65-3.72,1.84s-1.63,1.25-3.3,2.44-1.7,1.15-3.37,2.33-1.22,1.84-2.9,3-1.86,1-3.79,1.68-.36-1.15-2.4-3.11c-.78-.75-2.25-1.14-3.41-2.24-.86-.82-1.3-2.3-2.38-3.32-.89-.85-2.34-1.27-3.39-2.27s-2-1.63-3.07-2.61-2.18-1.48-3.2-2.44-1.71-2-2.73-3-1.47-2.28-2.48-3.24-2.12-1.59-3.13-2.54-2.38-1.32-3.39-2.26-1.72-2-2.73-3-1.35-2.43-2.36-3.37-2.36-1.36-3.37-2.29-1.88-2.45-3-3.34-2.78-1.29-4-2.07-2.78-1.13-4.06-1.8-2.17-2.45-3.49-3-3.18-.17-4.53-.62-2.82-1.12-4.18-1.46c-1.55-.39-3-.74-4.32-1"/><path class="cls-5" d="M256.36,135.56a23.94,23.94,0,0,1,4.13.19c1.19.1,2.67-.41,4.23-.18,1.27.19,2.72.24,4.18.54,1.29.28,2.43,1.51,3.83,1.9s2.83.14,4.19.61,2.26,1.75,3.57,2.31,2.52,1,3.77,1.71,2.54,1.09,3.73,1.85,2.6,1.12,3.72,2,1.45,2.54,2.49,3.51,2.17,1.64,3.13,2.53,2.49,1.32,3.44,2.21,1.34,2.55,2.29,3.44,2.67,1.13,3.62,2,1.94,1.91,2.89,2.8,2.06,1.79,3,2.67,1.38,2.54,2.31,3.42,2,1.93,2.88,2.8,2.72,1.15,3.63,2,2,2,2.86,2.82c1.09,1,1.85,2.17,2.71,3,1.16,1.1,2.39,1.74,3.18,2.49,2,1.95.8,4.11,2.68,3.42s1.82-1.11,3.49-2.3,1.2-1.86,2.87-3,1.77-1,3.44-2.23,1.38-1.6,3.05-2.78,2.16-.5,3.83-1.68,1.18-1.89,2.85-3.08l3.35-2.36c1.67-1.19,1.69-1.17,3.36-2.35s2.11-.56,3.78-1.75,1.75-1.09,3.42-2.27,1.57-1.33,3.24-2.52,1.42-1.56,3.09-2.75,1.91-.86,3.59-2.05"/><path class="cls-5" d="M279,181.26c1.8,1,1.06,1.3,3.29,2.51,1,.56,2.53.7,3.88,1.43,1.12.61,2,1.93,3.23,2.63s2.82.44,4.06,1.12,2.09,1.82,3.3,2.49,2.27,1.56,3.46,2.22,3,.35,4.13,1,1.84,2.4,3,3.05,2.4,1.46,3.52,2.1c1.31.74,3.09.42,4.13,1,1.54.9,2.26,2.42,3,2.92a22.87,22.87,0,0,0,3.93,1.51,22.85,22.85,0,0,0,3.91,1.42,24.1,24.1,0,0,0,4.14.84,23.45,23.45,0,0,0,4.27,0c1.33-.22,2.46-1.55,3.81-2.05s2.73-.56,4-1.3a26.21,26.21,0,0,0,3.45-2.4c1.07-.91,1.9-2.07,2.94-3s2.09-1.83,3.13-2.72,2.16-1.76,3.2-2.65,2.32-1.57,3.35-2.46,1.9-2.06,2.93-3,2-2,3-2.9,2.3-1.62,3.32-2.5,2.28-1.65,3.29-2.53,1.93-2.07,2.93-2.94,2.4-1.55,3.39-2.42,1.63-2.46,2.61-3.32,2.1-2,3-2.8c1.2-1,2.57-1.59,3.44-2.36,2-1.76,1.9-1,3.45-2.34"/><path class="cls-5" d="M335.11,181.73c-1,1.92-1.7,1.54-2.67,3.45s-.26,2.27-1.23,4.19-1.25,1.77-2.22,3.69-1.68,1.55-2.65,3.47"/><path d="M277.1,268.88a3.77,3.77,0,0,1-1.48,2.52,3.21,3.21,0,0,1-2.53.89c-1.06,0-2.21.2-2.91-.5a4.17,4.17,0,0,1-1-2.91,3.57,3.57,0,0,1,1.41-2.47,3.38,3.38,0,0,1,2.47-1.24,3.87,3.87,0,0,1,2.82.89A4.11,4.11,0,0,1,277.1,268.88Z"/><path class="cls-5" d="M277.1,268.88a3.77,3.77,0,0,1-1.48,2.52,3.21,3.21,0,0,1-2.53.89c-1.06,0-2.21.2-2.91-.5a4.17,4.17,0,0,1-1-2.91,3.57,3.57,0,0,1,1.41-2.47,3.38,3.38,0,0,1,2.47-1.24,3.87,3.87,0,0,1,2.82.89A4.11,4.11,0,0,1,277.1,268.88Z"/><path class="cls-2" d="M274.56,257.68c-1.82.59.12-2.11.12-4.41,0-1.12.23-2.43.23-3.83,0-1.23-1-2.53-1-3.84s.79-2.59.79-3.85-.87-2.67-.87-3.84c0-1.6.71-2.95.71-3.84,0-2.41-.15-4,.72-4.77s2.57-1,4.86-1c.56,0,2.13-.16,4.32-.16,1.26,0,2.73.69,4.32.69,1.36,0,2.82,0,4.32,0s2.87.34,4.33.34,2.91-.6,4.33-.6,2.95.6,4.32.6c1.58,0,3.05-.19,4.33-.19,1.92,0,3.44-.23,4.32-.23a7.64,7.64,0,0,1,4,.81c1.15.66.75,1.65.75,3.56,0,.84.67,2.36.67,4.06,0,1.32.24,2.75.24,4.06,0,1.72.09,3.25.09,4.07,0,1.66-.12,3.27-.84,4s-2.15.82-4,.82c-.7,0-2.19-.17-4.17-.17-1.23,0-2.64-.62-4.17-.62-1.32,0-2.73,1.25-4.18,1.25h-4.17c-1.41,0-2.82-.33-4.18-.33s-2.87.33-4.19.33c-1.54,0-3-.57-4.17-.57-2.54,0-2.46-1.34-4.28-.32-1.54.86-1.17,1.4-2.47,2.59s-2.18.53-3.19,2C275.31,256,276.25,257.14,274.56,257.68Z"/><path class="cls-3" d="M274.56,257.68c-1.82.59.12-2.11.12-4.41,0-1.12.23-2.43.23-3.83,0-1.23-1-2.53-1-3.84s.79-2.59.79-3.85-.87-2.67-.87-3.84c0-1.6.71-2.95.71-3.84,0-2.41-.15-4,.72-4.77s2.57-1,4.86-1c.56,0,2.13-.16,4.32-.16,1.26,0,2.73.69,4.32.69,1.36,0,2.82,0,4.32,0s2.87.34,4.33.34,2.91-.6,4.33-.6,2.95.6,4.32.6c1.58,0,3.05-.19,4.33-.19,1.92,0,3.44-.23,4.32-.23a7.64,7.64,0,0,1,4,.81c1.15.66.75,1.65.75,3.56,0,.84.67,2.36.67,4.06,0,1.32.24,2.75.24,4.06,0,1.72.09,3.25.09,4.07,0,1.66-.12,3.27-.84,4s-2.15.82-4,.82c-.7,0-2.19-.17-4.17-.17-1.23,0-2.64-.62-4.17-.62-1.32,0-2.73,1.25-4.18,1.25h-4.17c-1.41,0-2.82-.33-4.18-.33s-2.87.33-4.19.33c-1.54,0-3-.57-4.17-.57-2.54,0-2.46-1.34-4.28-.32-1.54.86-1.17,1.4-2.47,2.59s-2.18.53-3.19,2C275.31,256,276.25,257.14,274.56,257.68Z"/><path class="cls-2" d="M282.22,245.27c0-1.89.11-1.89.11-3.79s.08-1.89.08-3.78.14-1.8,1.12-3.42c1.22-2,2.06-1.26,4.18-.68,1.51.42,3.27,1.8,3.27,3.77s-2.07,2.51-3.51,3.12c-2.15.9-2.15,2.07-4.6,1.88"/><path class="cls-3" d="M282.22,245.27c0-1.89.11-1.89.11-3.79s.08-1.89.08-3.78.14-1.8,1.12-3.42c1.22-2,2.06-1.26,4.18-.68,1.51.42,3.27,1.8,3.27,3.77s-2.07,2.51-3.51,3.12c-2.15.9-2.15,2.07-4.6,1.88"/><path class="cls-2" d="M297.58,238.93c1.91,0,1.91.09,3.81.09s1.9.19,3.81.19,1.91.36,3.82.36,1.9-.32,3.81-.32"/><path class="cls-3" d="M297.58,238.93c1.91,0,1.91.09,3.81.09s1.9.19,3.81.19,1.91.36,3.82.36,1.9-.32,3.81-.32"/><path class="cls-2" d="M291.94,236.78c-1.79.43-1.81.37-3.6.8s-2-.31-3.78.12-1.73.75-3.53,1.18"/><path class="cls-8" d="M291.94,236.78c-1.79.43-1.81.37-3.6.8s-2-.31-3.78.12-1.73.75-3.53,1.18"/><path class="cls-5" d="M379.44,152c1.57-1.24,1.27-1,3.16-2.44.95-.72,1.51-2.27,2.68-3.11s2.1-1.68,3.21-2.43,2.71-.92,3.77-1.57c1.35-.83,2.33-2,3.28-2.42a22.23,22.23,0,0,1,4.27-1,36.5,36.5,0,0,1,4.31-.78c1.55-.09,3.06,1.1,4.35,1.14,2.53.05,2.18-.68,4.32-.43"/><path class="cls-5" d="M398.88,144.79c2.33,1,1.88,1.42,4.41,2.5,1.5.64,2.89,2,4.34,2.61s3.11.32,3.86,1.07a6.76,6.76,0,0,1,1.84,3.7c.15,1.29-1,2.49-1.61,3.6s-1,2.82-1.91,3.44-2.53.88-4.11,1.77c-1.18.66-2.27,2-3.78,2.48a16.17,16.17,0,0,1-4.51.29c-1.38,0-2.7-.77-4.21-1.26a15.65,15.65,0,0,1-4.09-1.52"/><path class="cls-5" d="M383.83,157.09c1.86,2.27,2.25,1.58,5.69.72,1.38-.34,2.17-1.49,3.16-2.72,1.48-1.82.86-2.45,2.76-3.73,2.1-1.42,2.4-1.07,4.78-2s2.39-.85,4.77-1.74"/><path class="cls-5" d="M401.34,155c-1,1.88-1.32,1.32-2.58,3.44-.65,1.1-.81,2.74-1.64,4s-1.65,2.45-2.5,3.52a16.73,16.73,0,0,1-3.28,2.89"/><path class="cls-5" d="M406.07,154.78a22.42,22.42,0,0,1-.59,3.79c-.29,1.11-.8,2.35-1.26,3.61a24.29,24.29,0,0,1-1.21,3.7c-.69,1.21-2.16,1.68-3.08,2.35"/><path class="cls-5" d="M124.48,408.7c-.47,2-.23,2.09-.7,4.12s-.44,2.05-.91,4.08-.12,2.12-.59,4.16-1.51,1.79-2,3.83.22,2.2-.25,4.23-.53,2-1,4.06.08,2.17-.39,4.2-.8,2-1.27,4-.66,2-1.13,4-.9,1.94-1.37,4,.41,2.24-.06,4.27-1.32,1.84-1.79,3.88-.33,2.07-.8,4.11-.18,2.1-.65,4.14-.07,2.13-.54,4.17-.46,2-.93,4.07-.85,2-1.32,4-.1,2.12-.57,4.16-1.59,1.78-2.06,3.81-.18,2.11-.65,4.14-.39,2.06-.86,4.1-.34,2.07-.81,4.1-.76,2-1.23,4,.21,2.19-.26,4.23-1.43,1.82-1.91,3.85.29,2.22-.18,4.26-.4,2-.87,4.09-.62,2-1.09,4.05-2.33,2.39-1.09,4.08,2-.37,4-.37,2-.36,3.93-.36,2,.67,3.93.67,2,.68,3.92.68,2-.37,3.93-.37,2-.4,3.93-.4,2.76,1.85,4.34.68.6-2.42,1.31-4.39.67-2,1.37-3.95.06-2.2.76-4.17.81-1.93,1.52-3.9.57-2,1.28-4,.81-1.93,1.52-3.9.91-1.89,1.62-3.86.41-2.08,1.12-4,1.76-1.58,2.47-3.55-.51-2.41.2-4.38,1.46-1.7,2.17-3.67.4-2.08,1.11-4.05,1.24-1.77,2-3.74.61-2,1.32-4,.72-2,1.43-3.93.38-2.09,1.09-4.06.74-1.95,1.45-3.92,1.24-1.78,1.95-3.75.23-2.13.94-4.1,1.05-1.85,1.76-3.82.82-1.93,1.53-3.9.62-2,1.33-4,.69-2,1.4-4-.31-2.34.4-4.31,2-1.51,2.68-3.48-.28-2.33.43-4.3.42-2.07,1.13-4,.72-2,1.43-3.94,1.79-1.58,2.5-3.56.19-2.16.9-4.14"/><path class="cls-5" d="M239,408.64c.77,2,.82,1.95,1.59,3.92s.72,2,1.48,3.95,1.14,1.82,1.91,3.79.35,2.13,1.11,4.1.71,2,1.47,4,1.23,1.79,2,3.76-.3,2.38.47,4.35,1.56,1.66,2.33,3.63,1.07,1.85,1.84,3.82-.23,2.35.54,4.32.49,2.08,1.26,4.05.82,1.94,1.59,3.91,1.7,1.61,2.47,3.58.82,2,1.58,3.92.44,2.09,1.21,4.06.84,1.94,1.61,3.91.95,1.9,1.71,3.86.61,2,1.38,4,.61,2,1.38,4,.16,2.2.93,4.17,1.11,1.84,1.87,3.81.66,2,1.43,4,.51,2.07,1.27,4,1.46,1.71,2.23,3.68,1.18,1.81,2,3.78.36,2.12,1.13,4.09,1.24,1.79,2,3.76.56,2,1.32,4,.57,2,1.34,4-.15,2.54,1.56,3.78,1.81-.08,3.77-.08,2,.35,3.93.35,2,.09,3.92.09,2-.57,3.93-.57,2,.36,3.93.36,2,.6,3.93.6,3,1.24,4.18-.36-1.28-2.08-1.78-4.11.1-2.18-.4-4.22-.38-2.06-.87-4.1-.36-2.07-.86-4.11-1.31-1.84-1.8-3.87.46-2.27,0-4.31-.37-2.07-.87-4.11-.7-2-1.2-4-.85-1.95-1.35-4-.31-2.08-.81-4.11-1.42-1.82-1.91-3.85.46-2.28,0-4.31-1-1.91-1.53-3.95.36-2.25-.14-4.28-1.12-1.89-1.62-3.92-1-1.92-1.46-4-.55-2-1.05-4.06-.05-2.15-.55-4.18-.39-2.07-.89-4.1.13-2.19-.37-4.23-1.3-1.84-1.8-3.88-1-1.92-1.47-4-.21-2.11-.7-4.15.05-2.17-.45-4.21-.4-2.06-.9-4.1-.25-2.1-.75-4.13-.77-2-1.27-4-.27-2.1-.77-4.14-.78-2-1.28-4"/><path d="M108.39,535.27a37.55,37.55,0,0,0-2.93,2.51c-.86.74-2.19,1.21-3.27,2.14s-2,1.58-3,2.45-1.51,2.24-2.5,3.07-2.22,1.49-3.16,2.29c-1.09.92-1.93,2-2.8,2.7-1.26,1.05-3.2,1.32-4.2,2.39a24.89,24.89,0,0,0-2.8,3.88c-1.43,2.21-1.43,4.53-.13,4.62a21.08,21.08,0,0,0,4.46-.56,35.73,35.73,0,0,0,4.36-.92c1.4-.44,2.88-.87,4.22-1.44s2.81-1.27,4-1.94c1.46-.81,2.11-2.54,3.07-3.32,1.13-.92,2.31-1.37,2.92-2.31s.66-2.61,1.53-3.59c.71-.8,2.34-.66,3.71-1.32a16.2,16.2,0,0,1,3.42-1.29,4.57,4.57,0,0,0,3-2.94,6.71,6.71,0,0,0-.16-4.12,6.63,6.63,0,0,0-2.43-3.22c-1-.74-2.25-.66-3.78-.47A7.82,7.82,0,0,0,108.39,535.27Z"/><path class="cls-5" d="M108.39,535.27a37.55,37.55,0,0,0-2.93,2.51c-.86.74-2.19,1.21-3.27,2.14s-2,1.58-3,2.45-1.51,2.24-2.5,3.07-2.22,1.49-3.16,2.29c-1.09.92-1.93,2-2.8,2.7-1.26,1.05-3.2,1.32-4.2,2.39a24.89,24.89,0,0,0-2.8,3.88c-1.43,2.21-1.43,4.53-.13,4.62a21.08,21.08,0,0,0,4.46-.56,35.73,35.73,0,0,0,4.36-.92c1.4-.44,2.88-.87,4.22-1.44s2.81-1.27,4-1.94c1.46-.81,2.11-2.54,3.07-3.32,1.13-.92,2.31-1.37,2.92-2.31s.66-2.61,1.53-3.59c.71-.8,2.34-.66,3.71-1.32a16.2,16.2,0,0,1,3.42-1.29,4.57,4.57,0,0,0,3-2.94,6.71,6.71,0,0,0-.16-4.12,6.63,6.63,0,0,0-2.43-3.22c-1-.74-2.25-.66-3.78-.47A7.82,7.82,0,0,0,108.39,535.27Z"/><path d="M307.47,534.78c1.55,1.16.72,1.54,2.49,3.07.86.74,2.52.83,3.61,1.76.93.81,2.09,1.48,3.1,2.35s1.42,2.35,2.4,3.19,2.53,1.11,3.48,1.91,1.79,2.13,2.67,2.85a38.32,38.32,0,0,1,3.14,3.49c1.2,1.3,3,2,3.69,3.13,1.42,2.21,1.13,4.14-.17,4.23a19,19,0,0,1-4.36-.43,32.49,32.49,0,0,1-4.18-1.27A42.85,42.85,0,0,1,319,558a42.35,42.35,0,0,1-3.93-2c-1.46-.81-2.28-2.18-3.25-3-1.13-.91-2.31-1.31-2.92-2.25a25.77,25.77,0,0,0-2.51-2.75c-.7-.8-.92-2.51-2.29-3.18-.94-.45-2.54.32-4,0s-2-2.08-2.39-3.33-1.22-2.69-.79-4a7.62,7.62,0,0,1,2.48-3.55c1-.74,2.64-.69,4.17-.5A8.85,8.85,0,0,1,307.47,534.78Z"/><path class="cls-5" d="M307.47,534.78c1.55,1.16.72,1.54,2.49,3.07.86.74,2.52.83,3.61,1.76.93.81,2.09,1.48,3.1,2.35s1.42,2.35,2.4,3.19,2.53,1.11,3.48,1.91,1.79,2.13,2.67,2.85a38.32,38.32,0,0,1,3.14,3.49c1.2,1.3,3,2,3.69,3.13,1.42,2.21,1.13,4.14-.17,4.23a19,19,0,0,1-4.36-.43,32.49,32.49,0,0,1-4.18-1.27A42.85,42.85,0,0,1,319,558a42.35,42.35,0,0,1-3.93-2c-1.46-.81-2.28-2.18-3.25-3-1.13-.91-2.31-1.31-2.92-2.25a25.77,25.77,0,0,0-2.51-2.75c-.7-.8-.92-2.51-2.29-3.18-.94-.45-2.54.32-4,0s-2-2.08-2.39-3.33-1.22-2.69-.79-4a7.62,7.62,0,0,1,2.48-3.55c1-.74,2.64-.69,4.17-.5A8.85,8.85,0,0,1,307.47,534.78Z"/><path class="cls-5" d="M521.65,107.05c-2.09,0-2.09-.12-4.19-.12s-2.09,1.14-4.19,1.14-2.09-.91-4.19-.91-2.09.13-4.19.13-2.1,1-4.19,1-2.1-1.19-4.19-1.19-2.1.62-4.19.62-2.1-.4-4.2-.4-2.09.1-4.19.1-2.09-.44-4.19-.44-2.1,1.16-4.19,1.16-2.1-.68-4.19-.68-2.1.59-4.2.59-2.09.17-4.19.17-2.1-.62-4.19-.62-2.1-.71-4.2-.71-2.09.14-4.18.14-2.1,1.09-4.2,1.09-2.09-.3-4.19-.3-2.09-.46-4.19-.46-2.1.27-4.19.27-2.1.25-4.2.25-2.09-.15-4.19-.15-2.1.18-4.2.18-2.1-.47-4.19-.47-2.1.8-4.2.8-2.1-.55-4.19-.55-2.1.32-4.2.32-2.1,0-4.2,0h-4.2"/><path d="M398.4,99.08a2.18,2.18,0,0,1-.75,1.62c-.44.45-.94,1.17-1.61,1.17s-1.24-.66-1.69-1.1a2.57,2.57,0,0,1-.91-1.69,3,3,0,0,1,.62-2,3.16,3.16,0,0,1,2-.79,3,3,0,0,1,1.93.83A2.74,2.74,0,0,1,398.4,99.08Z"/><path class="cls-5" d="M398.4,99.08a2.18,2.18,0,0,1-.75,1.62c-.44.45-.94,1.17-1.61,1.17s-1.24-.66-1.69-1.1a2.57,2.57,0,0,1-.91-1.69,3,3,0,0,1,.62-2,3.16,3.16,0,0,1,2-.79,3,3,0,0,1,1.93.83A2.74,2.74,0,0,1,398.4,99.08Z"/><path class="cls-5" d="M208,195.18c.35-2.12.84-1.82.71-4.24a19.69,19.69,0,0,0-1.08-4.18c-.41-1.34-.38-3.14-1.32-4.26a9.59,9.59,0,0,0-3.9-2.24,11.94,11.94,0,0,0-4.29-.7c-2.08,0-1.55-.15-4.17-.15-1.18,0-2.58.52-4.16.52-1.28,0-2.68-.52-4.17-.52-1.32,0-2.71.44-4.16.44s-2.74.41-4.17.41-2.75-.34-4.16-.34-2.77-.23-4.17-.23-2.78-.53-4.17-.53-2.79.17-4.17.17-2.8-.27-4.17-.27-2.82.19-4.17.19-2.85.27-4.16.27c-1.5,0-2.9-.41-4.17-.41-1.61,0-3,1.25-4.16,1.25a10.44,10.44,0,0,0-4,.7c-1.47.57-2.87.8-3.73,1.84s-.85,2.68-1.26,4a16.71,16.71,0,0,0-.76,4c-.13,2.43-1.21,2.2-.86,4.32"/><path class="cls-5" d="M195,185.41c1.17,1.16,1.19,1.14,2.36,2.31s1.7.64,2.87,1.8"/><path class="cls-5" d="M199.92,184.88c-1.17,1.17-.67,1.68-1.84,2.85s-1.84.49-3,1.66"/><path class="cls-1" d="M140.05,183.5a2.2,2.2,0,0,0-1,.07c-.29,0-.55.37-.89.49s-.7,0-1,.21-.4.52-.64.78a4.56,4.56,0,0,0-.54.81c-.15.27-.45.48-.57.82a9.87,9.87,0,0,0-.08,1c-.07.38-.35.7-.36,1a4.23,4.23,0,0,0,.23,1.06,3.75,3.75,0,0,0,.24,1.06,3.4,3.4,0,0,0,.71.84c.28.22.73.17,1,.3s.6.52.94.58a6.17,6.17,0,0,0,1.08-.06,4.57,4.57,0,0,0,1,.08,4.89,4.89,0,0,0,.89-.44,3.76,3.76,0,0,0,.86-.41,3.94,3.94,0,0,0,.71-.65,5.19,5.19,0,0,0,.39-.89c.12-.28.43-.51.52-.85a8.42,8.42,0,0,0,0-1c0-.41.3-.78.28-1.12a4.61,4.61,0,0,0-.23-1.13,3.12,3.12,0,0,0-.67-.92,3.31,3.31,0,0,0-.85-.68,5.28,5.28,0,0,0-1-.54C140.75,183.83,140.42,183.59,140.05,183.5Z"/><path class="cls-5" d="M435.78,188.79c0-2-.51-2-.51-4.1s.15-2.06.15-4.11.18-2.05.18-4.1.79-2.06.79-4.11-.67-2.05-.67-4.1.52-2.05.52-4.1-.7-2-.7-4.1.53-2.06.53-4.11.13-2.05.13-4.1.28-2.06.28-4.11-.27-2.05-.27-4.11-.69-2-.69-4.1.16-2.06.16-4.11.81-2.05.81-4.11-.81-2-.81-4.1.3-2.06.3-4.11-.83-2.06-.83-4.12-1-2.86.47-4.32,2.25.33,4.29.33,2-.32,4.08-.32,2-.44,4.07-.44,2,0,4.08,0,2,.16,4.08.16,2,.38,4.08.38,2-.06,4.08-.06,2,.41,4.08.41,2-.11,4.08-.11,2-.3,4.08-.3,2-.14,4.08-.14,2,.93,4.08.93,2.05-.71,4.09-.71,2,.6,4.08.6,2-1.26,4.09-1.26,2,.11,4.09.11"/><path class="cls-5" d="M509.55,114.88c0,2.05.39,2.05.39,4.1s-.57,2.06-.57,4.11.8,2,.8,4.1-.29,2.06-.29,4.11-.53,2-.53,4.1.48,2,.48,4.1,0,2.05,0,4.1-.41,2.06-.41,4.11.5,2,.5,4.1-.18,2.06-.18,4.11.61,2.05.61,4.11-1.22,2.05-1.22,4.1.08,2.06.08,4.11,1.17,2,1.17,4.11.07,2.05.07,4.1-1.12,2.06-1.12,4.11.56,2.06.56,4.12,1.33,2.68-.11,4.14-2.06.43-4.09.43-2,.25-4.05.25-2-.9-4.05-.9-2-.25-4.06-.25-2,.13-4,.13-2-.22-4.05-.22-2,.46-4.06.46-2,.72-4.05.72-2-.44-4.06-.44-2-.61-4.05-.61-2-.26-4.06-.26-2,.5-4.06.5-2,0-4.05,0-2-.15-4.06-.15-2-.08-4.06-.08h-4.07"/><path class="cls-5" d="M387.62,145c0-2,1.14-2,1.14-4.1s-.09-2.05-.09-4.09,0-2,0-4.1-1.2-2.05-1.2-4.1.75-2.05.75-4.1.36-2,.36-4.1-.66-2-.66-4.1-.4-2-.4-4.1.31-2,.31-4.1.39-2.05.39-4.1-.5-2-.5-4.1.53-2.06.53-4.11-1.45-2.53,0-4,1.95-.52,4-.52,2.09-.16,4.17-.16h4.18c2.08,0,2.08.83,4.17.83S406.88,92,409,92s2.08,0,4.17,0,2.08-.78,4.17-.78,2.08.25,4.17.25,2.08-.12,4.17-.12,2.09-.25,4.17-.25,2.09,1.28,4.17,1.28,2.09-.83,4.18-.83,2.08-.22,4.17-.22,2.09.77,4.17.77,2.09-.91,4.17-.91,2.09.49,4.18.49,2.08-.27,4.17-.27,2.09,1,4.17,1,2.09-1.31,4.17-1.31,2.09,1.31,4.18,1.31h4.17c2.08,0,2.08-.26,4.17-.26s2.09.24,4.17.24,2.09-.63,4.18-.63,2.08-.72,4.17-.72,2.09.93,4.18.93,2.08.26,4.17.26,2.09-.92,4.18-.92,2.08.93,4.17.93,2.09-.71,4.18-.71,2.09-.5,4.18-.5,2.93-1,4.41.48,0,2.3,0,4.38S521,98,521,100.05s.75,2.07.75,4.15-.54,2.08-.54,4.16.49,2.07.49,4.15-.59,2.08-.59,4.16.66,2.08.66,4.15-.85,2.08-.85,4.15,1.07,2.08,1.07,4.15-.9,2.08-.9,4.15.72,2.08.72,4.16-.53,2.07-.53,4.15.47,2.08.47,4.15-.25,2.08-.25,4.16-.12,2.08-.12,4.15-.36,2.08-.36,4.16.45,2.07.45,4.15,0,2.07,0,4.15.33,2.08.33,4.16.46,2.08.46,4.15-.75,2.08-.75,4.16.67,2.07.67,4.15-.31,2.08-.31,4.16.22,2.08.22,4.15-1,2.08-1,4.16.5,2.08.5,4.15-.42,2.08-.42,4.16S521,206,521,208.06s1,2.08,1,4.15,0,2.08,0,4.16-.26,2.08-.26,4.16.44,2.08.44,4.16-.58,2.07-.58,4.15,0,2.08,0,4.16-.5,2.08-.5,4.16-.15,2.08-.15,4.16.31,2.08.31,4.16-.12,2.07-.12,4.15.44,2.08.44,4.16-.25,2.08-.25,4.16.22,2.07.22,4.15-.65,2.08-.65,4.16,0,2.08,0,4.16,1.22,2.08,1.22,4.16-.91,2.08-.91,4.15.1,2.09.1,4.17.61,2.08.61,4.16-.72,2.08-.72,4.16.13,2.08.13,4.16.72,2.08.72,4.16S521,301.62,521,303.7s1.39,2.08,1.39,4.17.54,2.47-.93,3.94-1.86.48-3.94.48-2.09.16-4.17.16-2.09-.17-4.18-.17S507.06,312,505,312s-2.08,0-4.17,0-2.08.7-4.17.7-2.08-.49-4.17-.49-2.09-.29-4.17-.29-2.09.36-4.17.36-2.09-.81-4.17-.81-2.09.71-4.18.71-2.08-.51-4.17-.51-2.08-.2-4.17-.2-2.09.59-4.17.59-2.09-.72-4.18-.72-2.08,1.28-4.17,1.28-2.09-1.16-4.17-1.16-2.09.62-4.18.62-2.08-.71-4.16-.71-2.09.37-4.18.37-2.08-.05-4.17-.05-2.08.21-4.17.21-2.09.83-4.17.83-2.09-.42-4.18-.42-2.08.43-4.17.43-2.09-.77-4.18-.77-2.09-.11-4.17-.11-2.09.28-4.18.28-2.09-.74-4.17-.74-2.09,1-4.18,1-2.09-.82-4.18-.82-2.49,1.68-4,.21.2-1.84.2-3.89-.16-2.05-.16-4.1-.29-2-.29-4.09-.38-2.06-.38-4.11.95-2,.95-4.09-.8-2.05-.8-4.1.71-2.05.71-4.1-.7-2.05-.7-4.1-.06-2.05-.06-4.1.76-2,.76-4.1-.71-2.05-.71-4.1-.27-2.05-.27-4.1,1.08-2.05,1.08-4.1-1-2.05-1-4.1-.08-2.05-.08-4.1.8-2.05.8-4.1,0-2,0-4.1-.14-2-.14-4.1-.34-2.05-.34-4.1.17-2.05.17-4.09-.42-2.05-.42-4.1,1.11-2.05,1.11-4.1-.76-2.05-.76-4.1.48-2,.48-4.1.09-2,.09-4.11-.4-2.05-.4-4.1-.58-2-.58-4.1,1.2-2,1.2-4.11.08-2.05.08-4.1-.94-2-.94-4.1.65-2,.65-4.11-.59-2.05-.59-4.11-.47-2-.47-4.1"/><path class="cls-2" d="M485.83,182.46c2.4,0,2.4-.48,4.8-.48s2.4.26,4.8.26,2.37.53,4.68-.15c2-.57-.32-.86-1.25-3.46-.38-1.06-.19-2.6-.79-4.09-.46-1.14-1.19-2.32-1.8-3.71-.51-1.16-1.37-2.28-2-3.61-.53-1.13-1.72-2-2.34-3.16s-.72-2.53-1.36-3.67-.81-2.54-1.46-3.65-2.31-1.68-3-2.75-.88-2.6-1.52-3.63c-.77-1.23-1.72-2.17-2.33-3.11-1.3-2-2.72-1.62-2.33-3.52.46-2.26.86-2.27,1.83-4.36s.27-3.37,2.47-4.08c1.83-.59,1.15,1.79,2.54,3.12s1.95.76,3.34,2.09,1.22,1.52,2.62,2.85,1.24,1.5,2.64,2.83.94,2.62,2.86,2.47c3-.22,3.21-.71,5.21-2.88,1.4-1.52-1.34-1.28-2.85-3.45-.66-.95-1.59-2-2.5-3.27-.72-1-1.64-2.06-2.51-3.28-.75-1.05-1.15-2.45-2-3.63s-1.93-1.93-2.77-3.09a25.7,25.7,0,0,0-2.52-3.24,20.25,20.25,0,0,0-3.15-2.66c-1.36-.85-2.32-2.23-3.44-2.61-2.42-.81-2.22-.13-4.31-.11-2.25,0-2.25-.7-4.51-.7s-2.25.06-4.5,0c-2.09,0-1.68.62-4.1,1.43a19.41,19.41,0,0,0-3.59,2.06c-1.07.67-2.76.81-3.87,1.87a27.51,27.51,0,0,0-2.53,3.43c-.84,1.16-1.09,2.68-1.86,3.75s-1.45,2.44-2.19,3.49c-.87,1.22-2.66,1.64-3.38,2.66-.91,1.3-.84,3-1.5,4a11.26,11.26,0,0,1-2.64,2.9c2.47,1.62,1.82,3.87,4.77,4.09,1.92.14,1.51-1.92,2.9-3.25s1.82-.89,3.21-2.22,1-1.74,2.41-3.07,1.2-1.54,2.6-2.88.87-2.6,2.71-2c2.19.71.65,1.76,1.62,3.86s1.4,1.82,1.86,4.08c.38,1.9.13,1.38-1.17,3.38-.61.94-2.2,1.49-3,2.72-.64,1-.6,2.59-1.31,3.75s-1.51,2.07-2.18,3.22-1.57,2.08-2.2,3.22-1.28,2.29-1.86,3.42-1.5,2.22-2,3.35c-.62,1.33-.17,3-.68,4.2-.61,1.38-2.19,2.2-2.65,3.34-.61,1.49-.49,3-.87,4.07-.93,2.59-3,2.53-1,3.22s1.75.81,3.73.81,2-.62,4-.62,2,.66,4,.66,2,.43,4,.43,2-.8,4-.8,2-.2,4-.2,2,.69,4,.69,2-1,4-1"/><path class="cls-3" d="M485.83,182.46c2.4,0,2.4-.48,4.8-.48s2.4.26,4.8.26,2.37.53,4.68-.15c2-.57-.32-.86-1.25-3.46-.38-1.06-.19-2.6-.79-4.09-.46-1.14-1.19-2.32-1.8-3.71-.51-1.16-1.37-2.28-2-3.61-.53-1.13-1.72-2-2.34-3.16s-.72-2.53-1.36-3.67-.81-2.54-1.46-3.65-2.31-1.68-3-2.75-.88-2.6-1.52-3.63c-.77-1.23-1.72-2.17-2.33-3.11-1.3-2-2.72-1.62-2.33-3.52.46-2.26.86-2.27,1.83-4.36s.27-3.37,2.47-4.08c1.83-.59,1.15,1.79,2.54,3.12s1.95.76,3.34,2.09,1.22,1.52,2.62,2.85,1.24,1.5,2.64,2.83.94,2.62,2.86,2.47c3-.22,3.21-.71,5.21-2.88,1.4-1.52-1.34-1.28-2.85-3.45-.66-.95-1.59-2-2.5-3.27-.72-1-1.64-2.06-2.51-3.28-.75-1.05-1.15-2.45-2-3.63s-1.93-1.93-2.77-3.09a25.7,25.7,0,0,0-2.52-3.24,20.25,20.25,0,0,0-3.15-2.66c-1.36-.85-2.32-2.23-3.44-2.61-2.42-.81-2.22-.13-4.31-.11-2.25,0-2.25-.7-4.51-.7s-2.25.06-4.5,0c-2.09,0-1.68.62-4.1,1.43a19.41,19.41,0,0,0-3.59,2.06c-1.07.67-2.76.81-3.87,1.87a27.51,27.51,0,0,0-2.53,3.43c-.84,1.16-1.09,2.68-1.86,3.75s-1.45,2.44-2.19,3.49c-.87,1.22-2.66,1.64-3.38,2.66-.91,1.3-.84,3-1.5,4a11.26,11.26,0,0,1-2.64,2.9c2.47,1.62,1.82,3.87,4.77,4.09,1.92.14,1.51-1.92,2.9-3.25s1.82-.89,3.21-2.22,1-1.74,2.41-3.07,1.2-1.54,2.6-2.88.87-2.6,2.71-2c2.19.71.65,1.76,1.62,3.86s1.4,1.82,1.86,4.08c.38,1.9.13,1.38-1.17,3.38-.61.94-2.2,1.49-3,2.72-.64,1-.6,2.59-1.31,3.75s-1.51,2.07-2.18,3.22-1.57,2.08-2.2,3.22-1.28,2.29-1.86,3.42-1.5,2.22-2,3.35c-.62,1.33-.17,3-.68,4.2-.61,1.38-2.19,2.2-2.65,3.34-.61,1.49-.49,3-.87,4.07-.93,2.59-3,2.53-1,3.22s1.75.81,3.73.81,2-.62,4-.62,2,.66,4,.66,2,.43,4,.43,2-.8,4-.8,2-.2,4-.2,2,.69,4,.69,2-1,4-1"/><path class="cls-5" d="M466.67,120.53c.06,1.88.43,1.78,1,3.69a8.05,8.05,0,0,0,2.13,3c.82.83,1.65,1.89,3.1,1.89a4.81,4.81,0,0,0,3.42-1.58,8.53,8.53,0,0,0,1.95-3.24c.6-1.91-.1-1.88,0-3.76"/><path class="cls-5" d="M470.47,143.51c2.18,0,2.18.8,4.35.8s2.18-.84,4.35-.84,2.18.35,4.35.35"/><path class="cls-5" d="M504.57,202.19c-2.07,0-2.07-1.22-4.14-1.22s-2.07,1.18-4.14,1.18-2.07.13-4.14.13S490.08,201,488,201s-2.07,1.24-4.14,1.24-2.07-.69-4.15-.69-2.07.39-4.14.39-2.07-.11-4.14-.11-2.07.18-4.14.18-2.08-.16-4.15-.16-2.07-.79-4.14-.79-2.07.52-4.14.52-2.07.16-4.14.16-2.07-.41-4.14-.41-2.07-.12-4.14-.12-2.08.64-4.15.64-2.07-.39-4.14-.39-2.07.16-4.14.16-2.08-.56-4.15-.56-2.07.93-4.15.93-2.07,0-4.14,0-2.07,0-4.15,0-2.07-.86-4.14-.86-2.08,1-4.15,1-2.08-.7-4.16-.7"/><path class="cls-2" d="M416.22,239.69c-1.83.59.12-2.11.12-4.41,0-1.13.22-2.44.22-3.84,0-1.23-.95-2.53-.95-3.84s.8-2.59.8-3.84-.88-2.68-.88-3.85c0-1.6.71-2.94.71-3.84,0-2.41-.15-4,.73-4.77s2.57-1,4.85-1c.4,0,1.83-.16,4-.16,1.15,0,2.5.69,4,.69,1.24,0,2.59,0,4,0,1.28,0,2.62.34,4,.34s2.65-.6,4-.6,2.67.6,4,.6,2.68-.19,4-.19,2.69-.23,4-.23,2.7.2,4,.2,2.71.32,4,.32,2.73-.67,4-.67,2.75-.24,4-.24c1.44,0,2.79-.08,4-.08,1.51,0,2.86-.17,4-.17,2,0,3.37.37,4,.37a8.41,8.41,0,0,1,4.1.81c1.15.66.6,1.93.6,3.83,0,.84,1.25,2.36,1.25,4.06,0,1.32,0,2.75,0,4.07,0,1.72-.33,3.24-.33,4.06,0,1.66,0,3.34-.7,4.1s-2.22.65-4.08.65a40.43,40.43,0,0,0-4.22-.35c-1.21,0-2.64.26-4.22.26-1.31,0-2.73-.71-4.23-.71-1.35,0-2.76,1.14-4.23,1.14s-2.78-.6-4.22-.6-2.8.3-4.23.3-2.82.43-4.23.43-2.83-.35-4.24-.35-2.84-.54-4.23-.54-2.86.88-4.23.88-2.89-.84-4.23-.84c-1.51,0-2.93.09-4.23.09-1.6,0-3,.4-4.23.4-2.65,0-2.47-1.43-4.31-.39-1.54.87-1.06,1.52-2.36,2.71s-1.62.86-2.63,2.31C417.66,238.46,417.9,239.14,416.22,239.69Z"/><path class="cls-3" d="M416.22,239.69c-1.83.59.12-2.11.12-4.41,0-1.13.22-2.44.22-3.84,0-1.23-.95-2.53-.95-3.84s.8-2.59.8-3.84-.88-2.68-.88-3.85c0-1.6.71-2.94.71-3.84,0-2.41-.15-4,.73-4.77s2.57-1,4.85-1c.4,0,1.83-.16,4-.16,1.15,0,2.5.69,4,.69,1.24,0,2.59,0,4,0,1.28,0,2.62.34,4,.34s2.65-.6,4-.6,2.67.6,4,.6,2.68-.19,4-.19,2.69-.23,4-.23,2.7.2,4,.2,2.71.32,4,.32,2.73-.67,4-.67,2.75-.24,4-.24c1.44,0,2.79-.08,4-.08,1.51,0,2.86-.17,4-.17,2,0,3.37.37,4,.37a8.41,8.41,0,0,1,4.1.81c1.15.66.6,1.93.6,3.83,0,.84,1.25,2.36,1.25,4.06,0,1.32,0,2.75,0,4.07,0,1.72-.33,3.24-.33,4.06,0,1.66,0,3.34-.7,4.1s-2.22.65-4.08.65a40.43,40.43,0,0,0-4.22-.35c-1.21,0-2.64.26-4.22.26-1.31,0-2.73-.71-4.23-.71-1.35,0-2.76,1.14-4.23,1.14s-2.78-.6-4.22-.6-2.8.3-4.23.3-2.82.43-4.23.43-2.83-.35-4.24-.35-2.84-.54-4.23-.54-2.86.88-4.23.88-2.89-.84-4.23-.84c-1.51,0-2.93.09-4.23.09-1.6,0-3,.4-4.23.4-2.65,0-2.47-1.43-4.31-.39-1.54.87-1.06,1.52-2.36,2.71s-1.62.86-2.63,2.31C417.66,238.46,417.9,239.14,416.22,239.69Z"/><path class="cls-4" d="M409.91,234.17c0,1.75-1.61,2.89-2.75,4a5.44,5.44,0,0,1-4,2c-1.75,0-3.45-.25-4.59-1.39a7.1,7.1,0,0,1-2.35-4.6,7.93,7.93,0,0,1,1.84-5.1c1.15-1.14,3.35-.78,5.1-.78a5.23,5.23,0,0,1,3.95,1.93C408.22,231.37,409.91,232.43,409.91,234.17Z"/><path class="cls-2" d="M494.24,273.36c1.82.59.12-1,.12-3.26,0-1.12.23-2.43.23-3.83,0-1.23-1-2.53-1-3.84s.8-2.6.8-3.85-.87-2.67-.87-3.84c0-1.6.71-3,.71-3.84,0-2.42-.77-3.45-1.65-4.17s-2.07-.71-4.35-.71c-.5,0-2.08.17-4.36.17-1.26,0-2.74-.69-4.37-.69-1.36,0-2.82,0-4.36,0s-2.87-.34-4.36-.34-2.9.6-4.36.6-2.93-.6-4.37-.6-3,.19-4.37.19-3,.23-4.36.23c-1.61,0-3.09-.2-4.36-.2-2,0-3.57-.32-4.36-.32a7.17,7.17,0,0,0-4,1.29c-1.15.66-.9,1.76-.9,3.67,0,.84.09,2.36.09,4.06,0,1.32.17,2.75.17,4.06,0,1.72-.38,3.25-.38,4.07,0,1.66-.06,2.81.65,3.57a4.58,4.58,0,0,0,3.53,1.6c.63,0,2.14-1.25,4.24-1.25h4.24c1.33,0,2.75.33,4.24.33s2.79-.33,4.24-.33,2.83.57,4.25.57,2.85.35,4.24.35,2.89-.26,4.26-.26,2.92.71,4.24.71c1.59,0,3-1.14,4.24-1.14,2.62,0,2.33-.45,4.18.59a10.33,10.33,0,0,1,2.79,2.14c1.3,1.19,1.65.84,2.92,2.07S492.56,272.82,494.24,273.36Z"/><path class="cls-3" d="M494.24,273.36c1.82.59.12-1,.12-3.26,0-1.12.23-2.43.23-3.83,0-1.23-1-2.53-1-3.84s.8-2.6.8-3.85-.87-2.67-.87-3.84c0-1.6.71-3,.71-3.84,0-2.42-.77-3.45-1.65-4.17s-2.07-.71-4.35-.71c-.5,0-2.08.17-4.36.17-1.26,0-2.74-.69-4.37-.69-1.36,0-2.82,0-4.36,0s-2.87-.34-4.36-.34-2.9.6-4.36.6-2.93-.6-4.37-.6-3,.19-4.37.19-3,.23-4.36.23c-1.61,0-3.09-.2-4.36-.2-2,0-3.57-.32-4.36-.32a7.17,7.17,0,0,0-4,1.29c-1.15.66-.9,1.76-.9,3.67,0,.84.09,2.36.09,4.06,0,1.32.17,2.75.17,4.06,0,1.72-.38,3.25-.38,4.07,0,1.66-.06,2.81.65,3.57a4.58,4.58,0,0,0,3.53,1.6c.63,0,2.14-1.25,4.24-1.25h4.24c1.33,0,2.75.33,4.24.33s2.79-.33,4.24-.33,2.83.57,4.25.57,2.85.35,4.24.35,2.89-.26,4.26-.26,2.92.71,4.24.71c1.59,0,3-1.14,4.24-1.14,2.62,0,2.33-.45,4.18.59a10.33,10.33,0,0,1,2.79,2.14c1.3,1.19,1.65.84,2.92,2.07S492.56,272.82,494.24,273.36Z"/><path class="cls-1" d="M501.08,269c0,1.75-.19,3.77,1,4.92a7.33,7.33,0,0,0,4.91,1.74c1.75,0,3.21-1.17,4.35-2.31s1.36-2.6,1.36-4.35a5,5,0,0,0-1.86-3.85c-1.14-1.14-2.1-2.93-3.85-2.93a7.57,7.57,0,0,0-5,1.78C500.81,265.15,501.08,267.25,501.08,269Z"/><path class="cls-2" d="M424.71,216.63c1.9,0,1.9-.13,3.81-.13s1.9,1.28,3.81,1.28,1.91-1.25,3.81-1.25,1.91.7,3.82.7"/><path class="cls-3" d="M424.71,216.63c1.9,0,1.9-.13,3.81-.13s1.9,1.28,3.81,1.28,1.91-1.25,3.81-1.25,1.91.7,3.82.7"/><path class="cls-2" d="M424.71,223.64c2,0,2,.19,4,.19s2,.37,4,.37,2-.32,4-.32,2-.37,4-.37,2-.66,4-.66,2,.11,4,.11,2,.09,4,.09"/><path class="cls-3" d="M424.71,223.64c2,0,2,.19,4,.19s2,.37,4,.37,2-.32,4-.32,2-.37,4-.37,2-.66,4-.66,2,.11,4,.11,2,.09,4,.09"/><path class="cls-2" d="M446.64,252.75c3.11,0,3.11-.13,6.22-.13"/><path class="cls-3" d="M446.64,252.75c3.11,0,3.11-.13,6.22-.13"/><path class="cls-2" d="M446.64,259.76c2,0,2,.19,4,.19s2,.37,4,.37,2-.32,4-.32,2-.38,4-.38,2-.65,4.05-.65,2,.11,4.06.11"/><path class="cls-3" d="M446.64,259.76c2,0,2,.19,4,.19s2,.37,4,.37,2-.32,4-.32,2-.38,4-.38,2-.65,4.05-.65,2,.11,4.06.11"/><path class="cls-2" d="M458.25,252.75c1.91,0,1.91-.13,3.83-.13s1.91,1.28,3.82,1.28,1.92-1.25,3.83-1.25,1.92.7,3.83.7,1.92-.4,3.84-.4,1.92.11,3.84.11"/><path class="cls-3" d="M458.25,252.75c1.91,0,1.91-.13,3.83-.13s1.91,1.28,3.82,1.28,1.92-1.25,3.83-1.25,1.92.7,3.83.7,1.92-.4,3.84-.4,1.92.11,3.84.11"/><path class="cls-2" d="M510.56,81.12c0,2.09-.48,2.09-.48,4.17s-.59,2.09-.59,4.18c0,1.31.61,2.66.26,3.81a10.27,10.27,0,0,1-2,3.29,8.06,8.06,0,0,1-3.06,2.12,8.55,8.55,0,0,1-3.6,1c-2.17,0-2.17-.47-4.34-.47s-2.16.67-4.33.67-2.16.18-4.33.18-2.17.16-4.34.16-2.17-.49-4.34-.49-2.16.43-4.33.43a9.55,9.55,0,0,1-3.81-1,8.53,8.53,0,0,1-2.93-2.51c-.76-.95-.53-2.4-.9-3.65s-1.17-2.2-1.17-3.51c0-2.13.71-2.13.71-4.26s0-2.13,0-4.26-.68-2.13-.68-4.26-.32-2.14-.32-4.27c0-1.31,1.06-2.39,1.41-3.54a9.2,9.2,0,0,1,1.34-3.34c.78-1,1.39-2.33,2.55-2.86a9.72,9.72,0,0,1,3.84-1c2.16,0,2.16,1.21,4.33,1.21s2.16-1,4.33-1,2.17.31,4.33.31,2.17.89,4.34.89,2.17-.56,4.34-.56,2.17.61,4.34.61c1.36,0,2.51-.3,3.58.19a8,8,0,0,1,3.09,2.07c.76,1,.65,2.33,1,3.58a11.81,11.81,0,0,1,.55,3.53"/><path class="cls-3" d="M510.56,81.12c0,2.09-.48,2.09-.48,4.17s-.59,2.09-.59,4.18c0,1.31.61,2.66.26,3.81a10.27,10.27,0,0,1-2,3.29,8.06,8.06,0,0,1-3.06,2.12,8.55,8.55,0,0,1-3.6,1c-2.17,0-2.17-.47-4.34-.47s-2.16.67-4.33.67-2.16.18-4.33.18-2.17.16-4.34.16-2.17-.49-4.34-.49-2.16.43-4.33.43a9.55,9.55,0,0,1-3.81-1,8.53,8.53,0,0,1-2.93-2.51c-.76-.95-.53-2.4-.9-3.65s-1.17-2.2-1.17-3.51c0-2.13.71-2.13.71-4.26s0-2.13,0-4.26-.68-2.13-.68-4.26-.32-2.14-.32-4.27c0-1.31,1.06-2.39,1.41-3.54a9.2,9.2,0,0,1,1.34-3.34c.78-1,1.39-2.33,2.55-2.86a9.72,9.72,0,0,1,3.84-1c2.16,0,2.16,1.21,4.33,1.21s2.16-1,4.33-1,2.17.31,4.33.31,2.17.89,4.34.89,2.17-.56,4.34-.56,2.17.61,4.34.61c1.36,0,2.51-.3,3.58.19a8,8,0,0,1,3.09,2.07c.76,1,.65,2.33,1,3.58a11.81,11.81,0,0,1,.55,3.53"/><path class="cls-2" d="M497,74.2c-2.13,0-2.13-.15-4.25-.15s-2.12.37-4.25.37-2.12.43-4.25.43-2.13-.6-4.25-.6-3-1.52-4.31.19.41,2.23.94,4.37,1.22,2,1.76,4.13-1.12,3,.59,4.39,2-.48,4.09-.48,2.07.26,4.13.26,2.06-.17,4.12-.17,2.11.85,4.1.32.76-1,1.13-4.12c.14-1.15.1-2.59.31-4.32.15-1.26,0-2.73.21-4.34.3-2.42.67-4.27,1.63-5,2.05-1.5,5.1.45,5.1.45"/><path class="cls-8" d="M497,74.2c-2.13,0-2.13-.15-4.25-.15s-2.12.37-4.25.37-2.12.43-4.25.43-2.13-.6-4.25-.6-3-1.52-4.31.19.41,2.23.94,4.37,1.22,2,1.76,4.13-1.12,3,.59,4.39,2-.48,4.09-.48,2.07.26,4.13.26,2.06-.17,4.12-.17,2.11.85,4.1.32.76-1,1.13-4.12c.14-1.15.1-2.59.31-4.32.15-1.26,0-2.73.21-4.34.3-2.42.67-4.27,1.63-5,2.05-1.5,5.1.45,5.1.45"/><path class="cls-9" d="M481.83,71.35c.42,2.24-.23,2.36.19,4.59s1.53,2,2,4.27-.36,2.38.06,4.62,1.25,2.08,1.67,4.31"/><path class="cls-9" d="M488.85,71.29c.42,2.24-.27,2.37.16,4.6s1,2.13,1.41,4.36.41,2.24.83,4.48-.44,2.4,0,4.63"/><path class="cls-9" d="M475.37,81c2.24,0,2.24-.16,4.49-.16s2.25.56,4.49.56,2.25-.93,4.5-.93,2.25,0,4.5,0,2.24,0,4.49,0"/><path class="cls-10" d="M481.92,93.26c0,1.11-.61,1.37-1.72,1.37s-1.69-.26-1.69-1.37.58-2.05,1.69-2.05A1.82,1.82,0,0,1,481.92,93.26Z"/><path class="cls-10" d="M495.82,93.26c0,1.11-.33,1.77-1.43,1.77a1.81,1.81,0,0,1-2-1.77,1.92,1.92,0,0,1,2-1.91C495.49,91.35,495.82,92.16,495.82,93.26Z"/><path class="cls-2" d="M408.61,129.63c0-1.89.35-1.89.35-3.78s.54-1.9.54-3.79-1.77-2.47-.79-4.1c1.22-2,3,.11,5.11.7,1.5.41,2.7,1.1,2.7,3.07a4,4,0,0,1-2.4,4c-2.15.9-2.45.49-4.89.3"/><path class="cls-3" d="M408.61,129.63c0-1.89.35-1.89.35-3.78s.54-1.9.54-3.79-1.77-2.47-.79-4.1c1.22-2,3,.11,5.11.7,1.5.41,2.7,1.1,2.7,3.07a4,4,0,0,1-2.4,4c-2.15.9-2.45.49-4.89.3"/><path class="cls-2" d="M418.24,121.14c-1.8.43-1.81.37-3.61.8s-2-.31-3.78.12-1.72.75-3.52,1.18"/><path class="cls-8" d="M418.24,121.14c-1.8.43-1.81.37-3.61.8s-2-.31-3.78.12-1.72.75-3.52,1.18"/><path class="cls-5" d="M504.57,287.85c-2.07,0-2.07.09-4.14.09s-2.07-.44-4.14-.44-2.07,1.17-4.14,1.17S490.08,288,488,288s-2.07.6-4.14.6-2.07.17-4.15.17-2.07-.62-4.14-.62-2.07-.72-4.14-.72-2.07.15-4.14.15-2.08,1.08-4.15,1.08-2.07-.29-4.14-.29-2.07-.47-4.14-.47-2.07.28-4.14.28-2.07.24-4.14.24-2.07-.15-4.14-.15-2.08.18-4.15.18-2.07-.46-4.14-.46-2.07.79-4.14.79-2.08-.54-4.15-.54-2.07.31-4.15.31-2.07,0-4.14,0h-4.15c-2.07,0-2.07-.44-4.14-.44s-2.08.31-4.15.31-2.08-.06-4.16-.06"/><path d="M438.63,299.26a1.93,1.93,0,0,1-.69,1.52c-.44.44-.84,1.17-1.52,1.17s-1.15-.65-1.59-1.1a2.1,2.1,0,0,1-.73-1.59c0-.68-.1-1.54.35-2s1.29-.25,2-.25a1.76,1.76,0,0,1,2.21,2.23Z"/><path class="cls-5" d="M438.63,299.26a1.93,1.93,0,0,1-.69,1.52c-.44.44-.84,1.17-1.52,1.17s-1.15-.65-1.59-1.1a2.1,2.1,0,0,1-.73-1.59c0-.68-.1-1.54.35-2s1.29-.25,2-.25a1.76,1.76,0,0,1,2.21,2.23Z"/><path class="cls-10" d="M449.11,299.26a2.2,2.2,0,0,1-.75,1.62c-.44.44-.94,1.17-1.62,1.17s-1.23-.67-1.68-1.11a2.54,2.54,0,0,1-.91-1.68,3,3,0,0,1,.62-2,3.13,3.13,0,0,1,2-.79,3,3,0,0,1,1.94.83A2.83,2.83,0,0,1,449.11,299.26Z"/><path class="cls-10" d="M453.4,299.26a2.22,2.22,0,0,1,.75-1.62c.45-.45.94-1.18,1.62-1.18s1.24.67,1.69,1.11a2.57,2.57,0,0,1,.91,1.69,3,3,0,0,1-.62,2,3.16,3.16,0,0,1-2,.79,3,3,0,0,1-1.93-.83A2.75,2.75,0,0,1,453.4,299.26Z"/><path class="cls-10" d="M462.44,299.26a2.18,2.18,0,0,1,.75-1.62c.44-.45.94-1.18,1.61-1.18s1.24.67,1.69,1.11a2.57,2.57,0,0,1,.91,1.69,3,3,0,0,1-.62,2,3.16,3.16,0,0,1-2,.79,3,3,0,0,1-1.93-.83A2.75,2.75,0,0,1,462.44,299.26Z"/><path class="cls-7" d="M531.18,100.76c0,2.08-.89,2.08-.89,4.16s.58,2.08.58,4.16.26,2.07.26,4.15-.55,2.08-.55,4.16.72,2.07.72,4.15,0,2.08,0,4.16-.3,2.07-.3,4.15-.36,2.08-.36,4.15-.55,2.08-.55,4.15,1,2.08,1,4.15.28,2.08.28,4.15-.34,2.08-.34,4.16.15,2.07.15,4.15,0,2.08,0,4.16-.06,2.08-.06,4.15,0,2.08,0,4.15.07,2.08.07,4.16.14,2.07.14,4.15-.59,2.08-.59,4.16-.65,2.07-.65,4.15,1.25,2.08,1.25,4.16,0,2.07,0,4.15-.88,2.08-.88,4.16.85,2.07.85,4.15-.75,2.08-.75,4.16.76,2.08.76,4.15-.42,2.08-.42,4.16-.6,2.08-.6,4.16.42,2.08.42,4.15.17,2.08.17,4.16,0,2.08,0,4.16.39,2.08.39,4.15-1,2.08-1,4.16,0,2.08,0,4.16,0,2.08,0,4.16.9,2.08.9,4.16.14,2.07.14,4.15-.76,2.08-.76,4.16.58,2.08.58,4.16S531,264.9,531,267s.28,2.08.28,4.16-1.2,2.08-1.2,4.16.69,2.08.69,4.16-.52,2.08-.52,4.15.72,2.08.72,4.16-.8,2.08-.8,4.16,0,2.08,0,4.17.54,2.08.54,4.16-.18,2.08-.18,4.16.93,2.08.93,4.16-.6,2.08-.6,4.16.29,2.08.29,4.17,1.4,3-.07,4.5-2.42-.42-4.51-.42-2.08-.62-4.17-.62-2.08,1.06-4.17,1.06-2.08-.07-4.17-.07-2.08-.88-4.17-.88-2.08.95-4.17.95-2.09-.64-4.17-.64-2.09-.21-4.17-.21-2.09.21-4.17.21-2.09-.35-4.18-.35H484.8c-2.08,0-2.08,1.14-4.17,1.14s-2.09-.07-4.17-.07-2.09-.21-4.18-.21-2.08.08-4.17.08-2.08-.8-4.17-.8-2.09.85-4.17.85-2.09-.87-4.18-.87-2.08.52-4.17.52-2.08.2-4.17.2h-4.17c-2.09,0-2.09-.63-4.17-.63s-2.09.21-4.17.21-2.09,0-4.18,0-2.09.44-4.17.44-2.09-.21-4.18-.21S420.12,321,418,321s-2.08.19-4.17.19-2.09-.75-4.18-.75-2.08.43-4.17.43-2.1-.17-4.19-.17-2.09.46-4.18.46"/><path class="cls-7" d="M539.22,122.69c0,2.08.28,2.08.28,4.15s0,2.07,0,4.15.68,2.07.68,4.15-.7,2.07-.7,4.14.42,2.07.42,4.14.48,2.07.48,4.15-1.15,2.07-1.15,4.14.37,2.07.37,4.14S539,157.92,539,160s.72,2.08.72,4.15-.76,2.07-.76,4.15.09,2.07.09,4.14,1,2.07,1,4.15.22,2.07.22,4.14-1.22,2.07-1.22,4.14.44,2.08.44,4.15.31,2.08.31,4.15-.19,2.07-.19,4.15.24,2.07.24,4.14,0,2.07,0,4.15.37,2.07.37,4.15-1.07,2.07-1.07,4.14.71,2.08.71,4.15-.06,2.07-.06,4.15.57,2.07.57,4.15-.34,2.07-.34,4.14-.2,2.08-.2,4.15-.43,2.08-.43,4.15.9,2.07.9,4.15-.86,2.07-.86,4.15.14,2.07.14,4.15.3,2.07.3,4.15.41,2.07.41,4.14,0,2.08,0,4.15-.39,2.08-.39,4.15.38,2.08.38,4.15-1.15,2.08-1.15,4.15.3,2.07.3,4.15.09,2.07.09,4.14.13,2.08.13,4.16-.29,2.07-.29,4.14.7,2.08.7,4.15-1,2.08-1,4.16.78,2.07.78,4.15.08,2.08.08,4.15-.16,2.08-.16,4.15-.15,2.08-.15,4.15.38,2.08.38,4.16.36,2.08.36,4.16.8,2.72-.68,4.18-2.11-.67-4.19-.67-2.09.38-4.17.38-2.09.4-4.18.4-2.08-.82-4.17-.82-2.08.37-4.17.37-2.08.05-4.17.05-2.08.69-4.17.69-2.09-.1-4.17-.1-2.09.14-4.17.14-2.09-.1-4.17-.1-2.09-.22-4.18-.22-2.08.32-4.17.32-2.08-1.12-4.17-1.12-2.09,1.29-4.17,1.29-2.09-.79-4.18-.79-2.08.32-4.17.32-2.09-.56-4.17-.56-2.09.1-4.18.1-2.08,0-4.16,0-2.09.35-4.18.35-2.08,0-4.17,0-2.08-.56-4.17-.56-2.09.5-4.17.5-2.09-.36-4.18-.36-2.09-.12-4.17-.12-2.09.09-4.18.09-2.09,0-4.17,0-2.09,1.09-4.18,1.09-2.09-1.35-4.17-1.35-2.09,1.06-4.18,1.06-2.09.3-4.18.3h-4.19"/><path class="cls-7" d="M384.27,172.67c-.92-.91-.94-.88-1.86-1.79s-.72-1.11-1.64-2-.87-1-1.79-1.87-.64-1.2-1.56-2.1-1.29-.55-2.21-1.46-1.13-.69-2-1.6-.79-1-1.72-2-.67-1.17-1.6-2.08-.88-1-1.8-1.87"/><path class="cls-5" d="M290.66,420.66c-2.14,0-2.14.31-4.27.31s-2.13,0-4.26,0-2.14.08-4.27.08-2.13.5-4.26.5-2.14.74-4.27.74-2.14-1.53-4.27-1.53-2.14,1.33-4.28,1.33"/><path class="cls-5" d="M264.78,429.68c2.05,0,2.05-.48,4.11-.48s2.06-.05,4.11-.05,2.05.46,4.11.46,2.05.11,4.11.11,2.06.64,4.11.64,2.06-.83,4.12-.83,2.06-.49,4.11-.49"/><path class="cls-5" d="M268.52,439.35c2.17,0,2.17-.31,4.34-.31s2.16,0,4.33,0,2.16-.08,4.33-.08,2.16-.51,4.33-.51,2.17-.74,4.34-.74,2.17,1.54,4.34,1.54"/><path d="M544.37,120.52a6.06,6.06,0,0,0-4.65-4.71c-1.22,0-2,1.09-2.82,1.89s-1.8,1.6-1.8,2.82a4.21,4.21,0,0,0,4.62,4.64c1.22,0,1.92-1.11,2.72-1.92S544.37,121.74,544.37,120.52Z"/><path class="cls-11" d="M544.37,120.52a6.06,6.06,0,0,0-4.65-4.71c-1.22,0-2,1.09-2.82,1.89s-1.8,1.6-1.8,2.82a4.21,4.21,0,0,0,4.62,4.64c1.22,0,1.92-1.11,2.72-1.92S544.37,121.74,544.37,120.52Z"/><path d="M344.44,408.72a4.94,4.94,0,0,0-1.25-3.58,4.89,4.89,0,0,0-3.58-1.17,5.19,5.19,0,0,0-3.7,1,5.42,5.42,0,0,0,0,7.42,5.87,5.87,0,0,0,3.72,1.82,5.77,5.77,0,0,0,3.64-1.9A5.12,5.12,0,0,0,344.44,408.72Z"/><path class="cls-11" d="M344.44,408.72a4.94,4.94,0,0,0-1.25-3.58,4.89,4.89,0,0,0-3.58-1.17,5.19,5.19,0,0,0-3.7,1,5.42,5.42,0,0,0,0,7.42,5.87,5.87,0,0,0,3.72,1.82,5.77,5.77,0,0,0,3.64-1.9A5.12,5.12,0,0,0,344.44,408.72Z"/><path class="cls-12" d="M322.28,267.54c1.09,1.1,1.41.78,2.51,1.88s.87,1.33,2,2.43,1.08,1.11,2.17,2.21,1.37.84,2.47,1.94,1,1.15,2.14,2.25l2.2,2.21"/><path class="cls-12" d="M335.4,267.26c-1.1,1.1-.83,1.36-1.93,2.46s-1,1.23-2.06,2.33-1.06,1.14-2.16,2.24-1.31.89-2.41,2-.93,1.26-2,2.36-1,1.2-2.11,2.3"/><path class="cls-12" d="M139.35,241.65c1.42,0,1.42.2,2.84.2s1.42-.45,2.83-.45,1.42.32,2.84.32,1.42,0,2.84,0,1.42-.37,2.84-.37"/><path class="cls-12" d="M148.43,246.55c0,1.44.38,1.44.38,2.88s.19,1.44.19,2.88"/><path class="cls-12" d="M153.54,241.24c2.23,0,2.23-.06,4.47-.06"/><path class="cls-12" d="M148.43,231.08c0,1.54.38,1.54.38,3.09s.19,1.55.19,3.09.06,1.55.06,3.1-.3,1.55-.3,3.1.23,1.55.23,3.09"/><path class="cls-12" d="M84.08,208c1.58,1.58,1.44,1.72,3,3.29"/><path class="cls-12" d="M87,217.85c-1,1-.75,1.28-1.77,2.3s-.88,1.15-1.9,2.17"/><path class="cls-12" d="M94.11,218c1.58,1.58,1.44,1.72,3,3.3"/><path class="cls-12" d="M98,206.9c-1,1-.76,1.28-1.77,2.3s-.88,1.16-1.9,2.17"/><path class="cls-12" d="M331.4,230c2.23,0,2.23-.18,4.47-.18"/><path class="cls-12" d="M340.46,235c0,1.44.56,1.44.56,2.88s-.38,1.44-.38,2.88"/><path class="cls-12" d="M345.59,229.85h4.46"/><path class="cls-12" d="M340.7,219.47c0,1.44,0,1.44,0,2.88s.37,1.44.37,2.88"/><path class="cls-13" d="M50.56,311.13c1.58,1.58,1.44,1.71,3,3.29"/><path class="cls-13" d="M53.52,321c-1,1-.76,1.28-1.78,2.29s-.87,1.16-1.89,2.18"/><path class="cls-13" d="M60.6,321.16c1.57,1.58,1.43,1.72,3,3.3"/><path class="cls-13" d="M64.46,310.07c-1,1-.75,1.28-1.77,2.3s-.88,1.16-1.9,2.17"/><path class="cls-13" d="M406.89,360.07c1.57,1.57,1.43,1.71,3,3.29"/><path class="cls-13" d="M409.84,370c-1,1-.76,1.28-1.77,2.29s-.88,1.16-1.9,2.18"/><path class="cls-13" d="M416.92,370.1c1.58,1.58,1.44,1.72,3,3.29"/><path class="cls-13" d="M420.78,359c-1,1-.75,1.28-1.77,2.3s-.88,1.15-1.89,2.17"/><path class="cls-13" d="M2.17,302.88c0,1.61.37,1.61.37,3.23s.19,1.61.19,3.22"/><path class="cls-13" d="M9.49,296.75c2.24,0,2.24.2,4.47.2"/><path class="cls-13" d="M2.17,285.54c0,1.62.37,1.62.37,3.23s.19,1.61.19,3.22"/><path class="cls-13" d="M23.14,363.86h2.73c1.36,0,1.36.08,2.73.08s1.36-.42,2.73-.42,1.36.26,2.73.26"/><path class="cls-13" d="M28.33,358.36c0,1.36.59,1.36.59,2.72s-.84,1.37-.84,2.73.21,1.37.21,2.73.47,1.37.47,2.73"/><path class="cls-13" d="M378.9,342.32c1.37,0,1.37-.15,2.73-.15s1.36-.56,2.73-.56,1.36.7,2.73.7,1.36-.48,2.73-.48"/><path class="cls-13" d="M383.88,336.43c0,1.36,1,1.36,1,2.72s-.85,1.37-.85,2.73.51,1.37.51,2.73-.35,1.37-.35,2.73"/></g></g></g></svg>