<svg xmlns="http://www.w3.org/2000/svg" viewBox="0 0 1860.48 2129.67"><defs><style>.cls-1,.cls-2,.cls-3,.cls-6{fill:none;stroke-width:4.33px;}.cls-1{stroke:#000;}.cls-1,.cls-2,.cls-3{stroke-linecap:round;stroke-linejoin:round;}.cls-2,.cls-6{stroke:#e6b49d;}.cls-3{stroke:#8e9b91;}.cls-4{fill:#8e9b91;}.cls-5{fill:#e6b49d;}.cls-6{stroke-miterlimit:10;}</style></defs><g id="Layer_2" data-name="Layer 2"><g id="sect1"><g id="bglines"><path class="cls-1" d="M1199.45,454.77c2.35-2.5,1.59-3.21,3.94-5.72s2.58-2.3,4.93-4.8,3.43-1.5,5.78-4,2.26-2.59,4.61-5.1,2.43-2.43,4.78-4.94,1.61-3.2,4-5.71,2.92-2,5.27-4.49,2.42-2.44,4.77-4.95,2.08-2.76,4.43-5.27,2.61-2.27,5-4.78,1.9-2.92,4.25-5.43,2-2.83,4.36-5.34,2.27-2.58,4.62-5.09,2.66-2.22,5-4.73,2.13-2.72,4.48-5.23,1.78-3,4.13-5.55,3-1.93,5.32-4.44,2.67-2.21,5-4.72,1.61-3.2,4-5.71,3.42-1.5,5.77-4,1.41-3.39,3.76-5.9,2.6-2.28,5-4.79,1.76-3.06,4.11-5.57,3.25-1.67,5.6-4.18,2.24-2.61,4.59-5.12,2.48-2.39,4.83-4.9,2-2.86,4.32-5.37,2.83-2.05,5.18-4.56,1.32-3.47,3.66-6,2.53-2.34,4.88-4.85,2.3-2.56,4.65-5.07,3.42-1.5,5.77-4,2.13-2.72,4.48-5.22,2.46-2.41,4.8-4.92,2.79-2.1,5.14-4.61,1.86-3,4.22-5.47,2.83-2.06,5.18-4.57,2-2.82,4.37-5.32,2.5-2.37,4.85-4.88,2.41-2.46,4.76-5,2.26-2.59,4.61-5.1,1.22-3.57,3.57-6.08,2.81-2.08,5.17-4.59,2.36-2.5,4.71-5,3.29-1.62,5.64-4.14,2.2-2.64,4.55-5.15,1.92-2.92,4.27-5.43,2.78-2.11,5.14-4.62,2.39-2.47,4.74-5,2.52-2.35,4.88-4.86,1-3.73,3.4-6.24,2.32-2.54,4.67-5,3.18-1.74,5.54-4.25,2.71-2.17,5.06-4.67,2.54-2.34,4.89-4.85.65-4.11,3-6.62,2.58-2.29,4.93-4.8,2.22-2.64,4.57-5.15,2.31-2.56,4.66-5.07,3.1-1.81,5.46-4.32,3.24-1.68,5.59-4.19,1.3-3.5,3.65-6,2.67-2.22,5-4.73,2.05-2.81,4.4-5.32,2.44-2.45,4.79-5"/><path class="cls-2" d="M585.69,277.28c1.45,1.47.6,2.31,2,3.78s1.48,1.45,2.92,2.92,2,.9,3.48,2.38,1.3,1.61,2.75,3.09,1.58,1.34,3,2.81,1.69,1.24,3.14,2.71,1,1.89,2.48,3.36,1.72,1.22,3.17,2.69,1,2,2.42,3.43,1.7,1.22,3.15,2.69,1.82,1.11,3.27,2.59,1.38,1.54,2.83,3,1.32,1.59,2.77,3.07,1.69,1.23,3.14,2.71,1.18,1.74,2.63,3.22,1.06,1.86,2.52,3.33,1.87,1.06,3.32,2.54,1.44,1.48,2.89,2.95.78,2.14,2.23,3.61,1.91,1,3.36,2.49l2.91,2.95c1.45,1.48,1.21,1.72,2.66,3.19s1.91,1,3.36,2.5,1.24,1.68,2.69,3.15,1.82,1.12,3.27,2.6.76,2.16,2.21,3.63,2.11.82,3.56,2.3.81,2.11,2.26,3.59,1.82,1.11,3.27,2.59,1.06,1.86,2.51,3.33,2.07.87,3.53,2.34,1.23,1.69,2.68,3.17,1,2,2.41,3.43,1.83,1.1,3.29,2.58,1.91,1,3.36,2.5.48,2.44,1.93,3.91,1.79,1.14,3.24,2.62l2.91,2.94c1.45,1.47,1.21,1.71,2.66,3.19s1.76,1.16,3.21,2.64,1.88,1.06,3.33,2.53.77,2.15,2.22,3.63,1.61,1.32,3.06,2.8,1.67,1.26,3.12,2.74,1.81,1.12,3.27,2.59.71,2.21,2.16,3.69,1.52,1.4,3,2.88,1.88,1.07,3.33,2.54,1.57,1.37,3,2.85,1.52,1.4,3,2.88,1.44,1.5,2.89,3,.74,2.18,2.19,3.66,2.32.62,3.78,2.1.71,2.21,2.17,3.69,2.06.88,3.52,2.36"/><path class="cls-3" d="M1189.46,1247.4c-.42-2-1-1.93-1.4-4s-.46-2-.89-4.07-.84-2-1.27-4-.67-2-1.1-4,0-2.13-.46-4.17.21-2.17-.22-4.21-.3-2.07-.72-4.11-1.2-1.88-1.63-3.92.33-2.2-.1-4.24-1.28-1.86-1.7-3.9-.53-2-1-4.06-.75-2-1.18-4,.51-2.24.08-4.27-.78-2-1.21-4-.6-2-1-4,.12-2.15-.31-4.19-.63-2-1.06-4-1.17-1.89-1.59-3.93.77-2.29.34-4.33-.36-2-.79-4.09-.61-2-1-4-1.36-1.84-1.79-3.88.55-2.25.12-4.29-.86-2-1.29-4-.25-2.07-.68-4.12-.15-2.09-.58-4.13-1.11-1.9-1.54-3.94-.23-2.08-.66-4.12.1-2.15-.33-4.19-1.2-1.88-1.63-3.92-.44-2-.87-4.08-.46-2-.88-4.07-.31-2.06-.74-4.1.06-2.14-.37-4.18-1-1.91-1.48-4,.08-2.15-.35-4.19-1-1.93-1.38-4,.37-2.2-.06-4.24-.54-2-1-4.06-.2-2.09-.63-4.13-1.24-1.87-1.67-3.91-.45-2-.88-4.08.4-2.21,0-4.25-1.26-1.87-1.69-3.91-.25-2.07-.68-4.11-.35-2.06-.78-4.1-.43-2-.85-4.08-.07-2.12-.5-4.16-.35-2.05-.78-4.09-1.26-1.87-1.69-3.91-.37-2.05-.8-4.09.23-2.18-.2-4.22-.59-2-1-4-1.17-1.89-1.6-3.93-.1-2.1-.53-4.14-.79-2-1.22-4,.78-2.29.35-4.33-1-1.92-1.46-4-.94-1.93-1.37-4,.66-2.27.23-4.31-1.17-1.88-1.6-3.92-.16-2.1-.59-4.14-.79-2-1.21-4,.11-2.15-.32-4.2-.48-2-.91-4.06-.34-2.06-.77-4.1-.11-2.11-.54-4.15-.88-1.95-1.31-4-1.1-1.9-1.52-3.94.44-2.23,0-4.27-.48-2-.91-4.07-1.08-1.9-1.51-3.94.31-2.2-.12-4.24-1.08-1.9-1.51-3.94-.15-2.1-.58-4.14,0-2.12-.47-4.17-.76-2-1.19-4-.56-2-1-4.06-.14-2.1-.57-4.14-.42-2-.85-4.08-.48-2-.91-4.07-.84-2-1.27-4,0-2.14-.38-4.18-1.26-1.87-1.69-3.91.29-2.19-.14-4.23-.17-2.1-.6-4.14-.66-2-1.09-4-1.32-1.86-1.75-3.9.62-2.26.19-4.3-.77-2-1.2-4,0-2.13-.47-4.17-1.39-1.84-1.82-3.88.55-2.24.12-4.29-1.59-1.79-2-3.83.93-2.33.5-4.37-.75-2-1.18-4-.94-1.93-1.37-4,0-2.13-.42-4.17-1.37-1.84-1.8-3.88.52-2.24.09-4.28-1.31-1.86-1.74-3.9.29-2.19-.14-4.23-1.17-1.89-1.6-3.93,0-2.12-.45-4.16.29-2.19-.14-4.23-.58-2-1-4.06-.55-2-1-4.05-.21-2.09-.63-4.13-.77-2-1.2-4,.07-2.15-.36-4.19-.75-2-1.18-4-.77-2-1.2-4,.32-2.2-.1-4.24-.62-2-1-4-1.24-1.88-1.67-3.92.38-2.21,0-4.25-.83-2-1.26-4-.93-1.94-1.36-4-.64-2-1.07-4-.31-2.07-.74-4.11-.41-2.05-.84-4.09-.57-2-1-4.06.48-2.23,0-4.27-1.29-1.86-1.72-3.91.69-2.27.26-4.32-.78-2-1.21-4-.44-2-.87-4.08-.34-2.06-.76-4.1-1-1.93-1.39-4-.57-2-1-4.06.44-2.23,0-4.27-.67-2-1.1-4-.83-2-1.26-4-.79-2-1.21-4-.65-2-1.08-4,.63-2.26.2-4.31-.19-2.09-.62-4.13-1.12-1.9-1.55-3.95-.4-2.05-.83-4.1.23-2.19-.2-4.23"/><path class="cls-1" d="M595.22,1743.09c2-.49,2.29.57,4.33.09s2.1-.25,4.14-.73,1.88-1.16,3.93-1.64l4.08-.94c2-.48,2.2.18,4.24-.3s1.86-1.29,3.9-1.77,2.06-.39,4.1-.87,2.09-.3,4.13-.78,2.12-.14,4.16-.62,2-.7,4-1.18l4.09-.95c2-.48,2.07-.32,4.11-.8s1.81-1.5,3.85-2,2.24.36,4.28-.12,1.94-.92,4-1.4,2-.88,4-1.36,2.05-.44,4.09-.92,2.05-.42,4.09-.9,2.3.6,4.35.12,2.07-.36,4.11-.84,1.78-1.6,3.82-2.08,2.25.41,4.29-.07,2-.61,4.05-1.09,1.82-1.45,3.86-1.93,2.32.69,4.36.2,1.9-1.09,3.94-1.57,2.13-.09,4.18-.57,2-.57,4.06-1,2.14-.06,4.19-.54,1.77-1.61,3.82-2.09,2.2.18,4.24-.3,1.9-1.06,4-1.54,2-.65,4-1.13,2.18.12,4.22-.36,2.21.22,4.25-.27,2-.61,4.06-1.1,1.79-1.53,3.84-2,2.11-.2,4.15-.68,2.15,0,4.19-.51,2-.75,4-1.23,2-.72,4-1.2,2.08-.33,4.12-.81,2-.66,4-1.14,2.15,0,4.19-.51,1.86-1.25,3.91-1.74,2.17,0,4.21-.43,2-.79,4-1.27l4.08-1c2-.48,2-.49,4.09-1s2.14,0,4.19-.53,2-.78,4-1.26,2.06-.42,4.11-.9,2.25.38,4.3-.11"/><path class="cls-3" d="M579.18,1747.49c-1.68-1.21-1.51-1.45-3.19-2.66s-2.26-.39-3.94-1.6-1.2-1.88-2.87-3.09-2-.83-3.64-2-1.76-1.1-3.43-2.31-1.23-1.84-2.91-3-1.65-1.25-3.33-2.46-2.34-.29-4-1.5-1.6-1.31-3.28-2.53-1.16-1.94-2.84-3.15-2.36-.26-4-1.47-1.65-1.26-3.33-2.47-1.41-1.58-3.09-2.79-1.31-1.73-3-2.94-1.6-1.31-3.28-2.52-1.82-1-3.5-2.22-2.14-.58-3.81-1.79-1-2.11-2.71-3.32-2.33-.31-4-1.52-1.29-1.75-3-3-1.45-1.52-3.13-2.73-2-.76-3.69-2-1.7-1.18-3.38-2.39-1.92-.88-3.6-2.09-1.83-1-3.51-2.21-1.44-1.55-3.12-2.76-1.3-1.74-3-3-1.6-1.32-3.28-2.53-2.14-.57-3.82-1.78-1.22-1.84-2.9-3-2.19-.51-3.87-1.72-1.73-1.13-3.41-2.34-1.87-.94-3.55-2.15-1.12-2-2.8-3.2-1.89-.92-3.57-2.13-1.79-1.07-3.47-2.28-1.35-1.66-3-2.87-1.81-1-3.49-2.26-2.12-.6-3.8-1.81-1-2.21-2.64-3.42-1.64-1.26-3.32-2.47-1.78-1.06-3.46-2.27-2.24-.44-3.92-1.65-1.09-2-2.77-3.24-1.94-.85-3.62-2.06-1.58-1.35-3.26-2.56-1.51-1.45-3.19-2.66-2.09-.64-3.77-1.86-1.56-1.37-3.24-2.58-1.37-1.65-3.05-2.86-2.14-.57-3.82-1.78l-3.37-2.41c-1.68-1.21-1.69-1.19-3.37-2.4s-1.61-1.31-3.29-2.52-1.39-1.62-3.07-2.83-2.05-.7-3.73-1.91-1.38-1.63-3.06-2.84-2-.78-3.67-2-1.21-1.87-2.89-3.08-1.75-1.12-3.43-2.33-1.54-1.4-3.22-2.61-2.17-.54-3.85-1.75l-3.37-2.41c-1.68-1.21-1.18-1.9-2.86-3.11s-2.19-.51-3.87-1.72-1.57-1.37-3.25-2.58-1.63-1.28-3.31-2.49l-3.36-2.42c-1.68-1.21-1.47-1.51-3.15-2.72s-1.63-1.27-3.31-2.49-2.17-.52-3.85-1.73-1.65-1.25-3.32-2.46-1.29-1.76-3-3-1.77-1.07-3.45-2.28-2.12-.6-3.8-1.81-1.48-1.48-3.16-2.69-1.9-.91-3.58-2.12-1-2.21-2.64-3.43-2-.71-3.72-1.92-2-.79-3.66-2-1-2.11-2.71-3.32-2.13-.59-3.81-1.8-1.51-1.44-3.19-2.65-1.9-.91-3.58-2.12-1.36-1.66-3-2.87-1.71-1.17-3.39-2.38-1.63-1.29-3.31-2.5-1.48-1.48-3.16-2.69-1.95-.83-3.63-2-2.09-.65-3.77-1.86-1.15-1.94-2.84-3.15-1.71-1.17-3.39-2.38-2.07-.67-3.75-1.88-1.24-1.82-2.92-3-2.07-.68-3.75-1.89-1.52-1.44-3.2-2.65-1.45-1.53-3.13-2.75-1.88-.93-3.56-2.14-1.76-1.11-3.44-2.32-1.51-1.45-3.2-2.66-1.67-1.23-3.35-2.44-1.71-1.16-3.4-2.37-1.92-.88-3.61-2.09-1.39-1.61-3.07-2.82-2.18-.52-3.86-1.74-1.25-1.81-2.94-3-1.53-1.42-3.21-2.63-1.82-1-3.5-2.24-2.21-.47-3.89-1.68-1.06-2.08-2.74-3.29-1.88-.93-3.57-2.14-1.44-1.54-3.12-2.75-2.26-.41-3.94-1.63-1.1-2-2.78-3.23-2.38-.25-4.06-1.46-.87-2.34-2.55-3.55-1.88-.94-3.56-2.16-2-.78-3.68-2-1.42-1.58-3.1-2.79-2.25-.43-3.93-1.64-1.12-2-2.8-3.21-2.21-.48-3.9-1.7-1.25-1.81-2.93-3-2.13-.6-3.82-1.81-1.44-1.56-3.13-2.77"/><path d="M816.51,1692.81a5.33,5.33,0,0,0-4.61-4.65,5.18,5.18,0,0,0-3.3,1.34c-.75.75-.56,2.16-.56,3.31a4.13,4.13,0,0,0,.83,3,4.84,4.84,0,0,0,3,1.64c1.15,0,2.17-1,2.92-1.76A4.63,4.63,0,0,0,816.51,1692.81Z"/><path class="cls-1" d="M816.51,1692.81a5.33,5.33,0,0,0-4.61-4.65,5.18,5.18,0,0,0-3.3,1.34c-.75.75-.56,2.16-.56,3.31a4.13,4.13,0,0,0,.83,3,4.84,4.84,0,0,0,3,1.64c1.15,0,2.17-1,2.92-1.76A4.63,4.63,0,0,0,816.51,1692.81Z"/><path class="cls-2" d="M1090.3,1606.72c2-.74,2.27.09,4.21-.64s1.79-1.14,3.74-1.88,2.11-.28,4.06-1,2-.7,3.9-1.44,1.89-.88,3.84-1.62,1.64-1.54,3.58-2.28,2.28.14,4.22-.6,1.72-1.35,3.66-2.09,2-.64,3.93-1.38,1.88-.91,3.82-1.65,1.89-.89,3.83-1.63,1.92-.8,3.86-1.54,2.25,0,4.19-.69,1.92-.8,3.86-1.54,1.72-1.34,3.66-2.08,1.92-.81,3.86-1.55,2-.65,3.92-1.39,1.89-.89,3.83-1.63,2-.61,3.94-1.35,2-.55,4-1.29,2.13-.26,4.08-1,1.76-1.21,3.71-2,1.85-1,3.79-1.73,1.92-.81,3.86-1.54,2.09-.37,4-1.1,1.83-1,3.77-1.78,1.88-.91,3.82-1.65,1.92-.81,3.86-1.55,2.17-.15,4.12-.89,2-.49,4-1.23,1.73-1.31,3.67-2,2.1-.32,4.05-1.06,2-.71,3.91-1.45,1.76-1.21,3.71-2,2-.64,3.92-1.38l3.89-1.47c2-.74,1.88-.91,3.83-1.65s2.25.07,4.19-.67,1.68-1.45,3.62-2.18,2.13-.26,4.07-1,1.84-1,3.78-1.78,1.86-1,3.81-1.7,2.3.21,4.25-.53,1.7-1.39,3.64-2.13,2.11-.31,4.06-1,1.8-1.1,3.75-1.84,2-.71,3.9-1.45,1.74-1.26,3.69-2,2-.47,4-1.21,2.28.15,4.23-.59,1.69-1.41,3.64-2.15,2-.63,3.93-1.37,2.1-.32,4-1.06,1.52-1.86,3.46-2.6,2.19-.09,4.14-.83,1.87-.93,3.82-1.66,2.26.09,4.2-.65,1.74-1.28,3.69-2,2-.57,4-1.31,2-.67,3.91-1.41l3.89-1.48c2-.74,1.8-1.14,3.74-1.87s2.1-.34,4.05-1.08,1.79-1.14,3.73-1.88,2-.61,4-1.35l3.89-1.48c1.94-.74,1.82-1.05,3.77-1.79s2.1-.33,4-1.07,1.67-1.47,3.61-2.21,2.1-.33,4-1.07,1.92-.8,3.86-1.54,1.77-1.2,3.71-1.94,2.42.49,4.36-.25,1.58-1.7,3.53-2.44,2.09-.35,4-1.09,1.76-1.21,3.7-2,2.17-.16,4.11-.9,1.7-1.39,3.64-2.13,2.13-.26,4.07-1,1.81-1.09,3.76-1.83,2.23,0,4.18-.71,1.77-1.19,3.72-1.93,1.88-.91,3.82-1.65,2.25,0,4.19-.69,1.73-1.31,3.67-2,2.2-.08,4.15-.82,1.81-1.07,3.76-1.81,1.71-1.37,3.66-2.11,2.12-.28,4.06-1,2.1-.33,4-1.07,1.53-1.84,3.48-2.58,2.28.15,4.23-.59,2.09-.37,4-1.11,1.62-1.6,3.57-2.34,2-.59,3.94-1.33,1.83-1.05,3.78-1.79,2.09-.38,4-1.12,2-.66,3.92-1.4,1.93-.78,3.88-1.52,2.1-.35,4-1.09,1.88-.93,3.83-1.67,2.07-.39,4-1.13l3.9-1.47c2-.74,1.64-1.55,3.58-2.29s1.78-1.18,3.73-1.92,2.3.17,4.24-.57,2.06-.44,4-1.18,1.5-1.92,3.44-2.66,2.15-.21,4.1-.95,1.8-1.12,3.74-1.86,2-.71,3.91-1.45,2-.51,4-1.25,2-.49,4-1.23,1.69-1.42,3.64-2.16,2.37.37,4.32-.37,1.85-1,3.79-1.75,1.92-.82,3.87-1.56,1.78-1.19,3.73-1.93,2.26.09,4.21-.65,1.81-1.11,3.76-1.85,2.08-.42,4-1.16"/><path class="cls-3" d="M1793.55,1171.93c-1.36,1.58-2.26.8-3.61,2.37s-1.33,1.6-2.69,3.17-.74,2.11-2.1,3.68-1.51,1.44-2.86,3-1.22,1.69-2.57,3.27-1.1,1.79-2.46,3.37-1.8,1.18-3.16,2.76-1.07,1.81-2.43,3.39-1.87,1.13-3.22,2.7-1.09,1.81-2.44,3.39-1,1.91-2.32,3.48-1.43,1.51-2.79,3.09-1.49,1.45-2.85,3-1.09,1.8-2.45,3.37-1.65,1.32-3,2.89-1.76,1.22-3.12,2.8-.91,2-2.26,3.53-1.37,1.57-2.73,3.14-2.06,1-3.42,2.54-.86,2-2.22,3.57l-2.7,3.15c-1.36,1.57-1.62,1.35-3,2.92s-.87,2-2.23,3.57-1.57,1.39-2.93,3-1,1.91-2.32,3.48-2.1.94-3.45,2.51-.65,2.18-2,3.75-2,1-3.4,2.55-1,1.91-2.32,3.48-1.77,1.22-3.12,2.79-.7,2.14-2.05,3.72-1.59,1.37-2.94,3-1.89,1.12-3.24,2.69-1,1.93-2.31,3.5-.87,2-2.23,3.57-2.38.68-3.74,2.25-1,1.89-2.34,3.46-1.35,1.58-2.71,3.15-1.61,1.35-3,2.93-1,1.86-2.38,3.44-.9,2-2.26,3.53-2.08,1-3.44,2.53-1.19,1.71-2.55,3.29-1.12,1.77-2.48,3.34-1,1.91-2.32,3.48-2.15.9-3.51,2.47-1.28,1.64-2.63,3.22-.92,1.95-2.27,3.53-1.24,1.68-2.59,3.25-1.28,1.64-2.64,3.22-1.38,1.55-2.74,3.13-2.12.92-3.47,2.49-.44,2.37-1.79,4-2.15.89-3.5,2.47-.72,2.13-2.08,3.71-1.69,1.28-3,2.85-1.33,1.6-2.69,3.17-1.25,1.67-2.61,3.25-1.28,1.64-2.63,3.21-1.94,1.08-3.3,2.66-.55,2.27-1.9,3.84-2.31.76-3.67,2.34-1.16,1.74-2.52,3.31-1.41,1.53-2.76,3.1-1.27,1.66-2.62,3.23-1.14,1.77-2.5,3.34-1.26,1.66-2.62,3.23-1.39,1.55-2.74,3.13-.88,2-2.24,3.56-1.91,1.11-3.26,2.68-1.53,1.43-2.89,3-1,1.93-2.31,3.51-1.86,1.15-3.21,2.73-.92,2-2.28,3.54-1,1.89-2.35,3.46-1.27,1.65-2.63,3.23-2.11.93-3.47,2.51-.88,2-2.24,3.56-1.81,1.2-3.17,2.78-1.16,1.75-2.52,3.33"/><path class="cls-3" d="M1048.87,1491.11c1-1.79,1.19-1.69,2.22-3.48s1.47-1.54,2.5-3.33.59-2,1.61-3.83.8-1.93,1.82-3.72,1-1.83,2-3.62,1.38-1.59,2.41-3.38.75-2,1.78-3.75.86-1.88,1.88-3.67,1-1.83,2-3.62,1.57-1.48,2.6-3.27,1.26-1.66,2.28-3.45.5-2.1,1.53-3.89,1.41-1.57,2.43-3.37,1.06-1.77,2.09-3.56.58-2,1.61-3.83,1.11-1.74,2.14-3.53,1-1.78,2-3.57.87-1.88,1.9-3.67,1.77-1.36,2.8-3.15.37-2.17,1.39-4,1.48-1.54,2.5-3.33.75-2,1.78-3.74.82-1.91,1.85-3.7,1.9-1.29,2.92-3.08.42-2.14,1.45-3.93,1.43-1.56,2.45-3.35.69-2,1.72-3.77,1-1.78,2.07-3.57.55-2.07,1.58-3.86,1.27-1.66,2.29-3.45,1.86-1.31,2.88-3.11.41-2.14,1.43-3.93,1.13-1.74,2.16-3.53,1.41-1.57,2.44-3.36,0-2.39,1-4.18,1.63-1.45,2.66-3.24.85-1.89,1.88-3.68,1.8-1.35,2.82-3.15.53-2.08,1.55-3.87,1.19-1.7,2.22-3.49,1.09-1.76,2.11-3.55,1-1.8,2-3.59.66-2,1.69-3.8,1.4-1.57,2.43-3.37.65-2,1.68-3.8,1.15-1.72,2.17-3.51l2.06-3.59c1-1.79.74-2,1.76-3.75s1.42-1.58,2.44-3.37.35-2.18,1.38-4,1.41-1.58,2.43-3.37,1-1.83,2-3.63.59-2,1.62-3.83,2.16-1.14,3.19-2.93.14-2.3,1.16-4.09,1.39-1.59,2.42-3.38.59-2,1.61-3.84,1.57-1.49,2.59-3.28.43-2.14,1.46-3.93,1.47-1.54,2.5-3.34.7-2,1.73-3.77,1.74-1.39,2.76-3.19.61-2,1.64-3.83.87-1.88,1.9-3.68,1.76-1.37,2.78-3.17.5-2.1,1.53-3.89,1.64-1.45,2.67-3.25.72-2,1.75-3.77"/><path class="cls-4" d="M1053,1491.3a3.4,3.4,0,0,0-1.15-2.63c-.75-.75-1.48-1.81-2.63-1.81a4.69,4.69,0,0,0-3.1,1.34c-.75.75-.73,2-.73,3.1a4,4,0,0,0,3.83,3.84,4.09,4.09,0,0,0,3.78-3.84Z"/><path class="cls-2" d="M916.82,1517.85c-1.06-4.7,1.62-5.31.56-10s-1.13-4.68-2.19-9.38-2.91-4.29-4-9-.59-4.8-1.65-9.5-1.48-4.61-2.54-9.31-1.83-4.52-2.89-9.22.27-5-.79-9.71-1.9-4.51-3-9.21.47-5-.59-9.74-1.87-4.52-2.93-9.22-2.24-4.43-3.3-9.13-.83-4.75-1.89-9.45-.66-4.79-1.72-9.49-1.83-4.53-2.9-9.23-.18-4.89-1.24-9.59.17-5-.89-9.67-2.39-4.4-3.45-9.09-1-4.71-2.1-9.41,1.06-5.18,0-9.87-2.53-4.37-3.59-9.07-1.07-4.7-2.13-9.4-.28-4.88-1.35-9.57-2.52-4.37-3.58-9.07-.4-4.85-1.46-9.55-2.21-4.43-3.27-9.13,1.14-5.2.08-9.9-3.17-4.22-4.23-8.92,1-5.17-.07-9.87-2.22-4.43-3.28-9.13.17-5-.89-9.68-3-4.25-4.09-8.95-.37-4.86-1.43-9.56.5-5-.56-9.75-2.27-4.43-3.33-9.13-2.51-4.37-3.57-9.07,2-5.39,1-10.09-2.15-4.46-3.21-9.16-1.08-4.69-2.14-9.39-.29-4.88-1.35-9.58-2.06-4.47-3.12-9.17-2.4-4.4-3.46-9.1,1.11-5.19.05-9.89-1.56-4.59-2.62-9.29-1.75-4.55-2.81-9.25-2.21-4.44-3.27-9.14,1.3-5.23.23-9.93-1.28-4.65-2.34-9.35-2.39-4.4-3.45-9.1-1.42-4.62-2.49-9.32-1.28-4.65-2.34-9.35-1-4.72-2.06-9.42,1.22-5.21.16-9.91-3.82-4.08-4.88-8.78,1.28-5.23.22-9.93-3-4.27-4-9,0-4.93-1.1-9.63-1.13-4.69-2.19-9.39-1.39-4.63-2.45-9.33-1.28-4.65-2.35-9.35.66-5.09-.4-9.79-3.47-4.16-4.53-8.86,1.78-5.35.72-10-1.64-4.57-2.7-9.27-.9-4.74-2-9.44-1.34-4.64-2.4-9.34-1.71-4.55-2.77-9.25-1.34-4.64-2.4-9.35-1-4.72-2-9.42-2.49-4.37-3.55-9.07.57-5.07-.49-9.78-.54-4.81-1.6-9.51-2.28-4.43-3.35-9.13.43-5-.63-9.73-2.4-4.41-3.46-9.11-2.15-4.45-3.21-9.15-1.3-4.65-2.36-9.35,1.17-5.21.1-9.91-2.48-4.38-3.54-9.09.27-5-.8-9.7-1.64-4.57-2.7-9.27-1.56-4.59-2.62-9.3.26-5-.8-9.7-2.29-4.43-3.35-9.13.59-5.08-.47-9.78-3.34-4.19-4.4-8.89.1-5-1-9.67-.46-4.84-1.52-9.54-.44-4.85-1.51-9.55-.77-4.77-1.84-9.48-2.7-4.33-3.77-9"/><path class="cls-4" d="M1192.74,1247.53a4,4,0,0,0-1-2.94c-.75-.75-1.8-.67-2.94-.67a3.65,3.65,0,0,0-2.85.76c-.75.75-1.82,1.71-1.82,2.85s1.33,1.84,2.08,2.59,1.44,1.91,2.59,1.91a5.14,5.14,0,0,0,3.34-1.16C1192.91,1250.12,1192.74,1248.68,1192.74,1247.53Z"/><path class="cls-4" d="M583.65,1747.72c0-1.14-1.36-1.77-2.11-2.52s-1.38-1.57-2.53-1.57a4.26,4.26,0,0,0-3,1.08,4.12,4.12,0,0,0-.92,3,3.65,3.65,0,0,0,1.22,2.72,3.49,3.49,0,0,0,2.72,1c1.15,0,2.43.22,3.18-.53A5,5,0,0,0,583.65,1747.72Z"/><path class="cls-3" d="M102.32,2127.51c1.62-1.3,1.63-1.29,3.26-2.59s2.25-.52,3.88-1.81,1.21-1.82,2.84-3.12,1.58-1.36,3.21-2.66,1.83-1,3.46-2.34,1.5-1.46,3.12-2.76,1.31-1.71,2.94-3,1.79-1.09,3.42-2.39,1.42-1.56,3.05-2.86,1.92-.94,3.55-2.24,2.15-.65,3.78-1.95,1.37-1.63,3-2.93,1.47-1.48,3.1-2.78,1.21-1.83,2.84-3.13,1.95-.9,3.57-2.2,1.95-.9,3.58-2.2,1.81-1.08,3.43-2.37,1.6-1.35,3.22-2.65,1-2.09,2.63-3.39,2.28-.48,3.91-1.77,1.22-1.82,2.84-3.12,1.77-1.12,3.4-2.42,1.94-.9,3.57-2.2.76-2.4,2.39-3.7,2.06-.75,3.69-2.05,1.95-.9,3.58-2.2,1.55-1.39,3.18-2.69,1.55-1.41,3.18-2.71,1.2-1.83,2.83-3.13,1.92-.94,3.55-2.24,2-.79,3.67-2.09.87-2.25,2.5-3.55,1.68-1.23,3.31-2.53,1.65-1.27,3.28-2.57,1.46-1.5,3.09-2.8,2.39-.36,4-1.66,1.06-2,2.69-3.31,1.49-1.47,3.12-2.77,2.19-.6,3.82-1.9,1.08-2,2.71-3.28,1.67-1.25,3.3-2.55,2.35-.39,4-1.69,1.28-1.75,2.91-3,1.16-1.88,2.79-3.18,2.23-.55,3.86-1.85,1.28-1.74,2.91-3,1.84-1,3.46-2.34,1.69-1.24,3.31-2.54,1.7-1.21,3.33-2.51,1.59-1.35,3.22-2.65,1.26-1.76,2.89-3.06,2-.87,3.6-2.17,1.82-1.06,3.45-2.36,1.53-1.43,3.16-2.73,1.45-1.52,3.08-2.82,1.25-1.79,2.87-3.09,2.31-.45,3.94-1.75,1.38-1.62,3-2.92,1.5-1.46,3.13-2.76,1.92-.94,3.55-2.24,1.28-1.73,2.91-3,1.79-1.09,3.42-2.39,1.91-1,3.54-2.25,1.1-2,2.73-3.27,2.07-.75,3.7-2,1.12-2,2.75-3.25,2.25-.52,3.88-1.82,1.28-1.74,2.91-3,2-.79,3.66-2.09,1.2-1.84,2.83-3.14,1.55-1.4,3.18-2.7,2.18-.61,3.81-1.91,1.56-1.39,3.19-2.69,1.65-1.28,3.28-2.58,1.36-1.64,3-2.94,1.36-1.64,3-2.94,1.54-1.41,3.17-2.71,1.9-1,3.53-2.26,1.86-1,3.49-2.31,1.3-1.72,2.93-3,1.45-1.52,3.08-2.82,1.81-1.08,3.44-2.38,1.85-1,3.48-2.33,1.14-1.91,2.77-3.21,2.42-.32,4.05-1.62,1.31-1.69,2.94-3,1.81-1.08,3.44-2.38,1.52-1.44,3.15-2.73,1.07-2,2.7-3.31,1.58-1.35,3.21-2.65,2.07-.74,3.7-2,1.46-1.5,3.09-2.8,1.33-1.67,3-3,1.81-1.07,3.44-2.37,1.71-1.21,3.34-2.51,2.22-.56,3.85-1.86,1-2.12,2.61-3.42,2.21-.57,3.84-1.87,1.59-1.35,3.21-2.65,1.65-1.28,3.27-2.58,1.74-1.17,3.37-2.47,1.14-1.91,2.77-3.21,2.14-.67,3.77-2,1.21-1.82,2.84-3.13,1.58-1.36,3.21-2.66,1.29-1.73,2.92-3,2-.82,3.64-2.12,1.88-1,3.51-2.29,1.82-1.07,3.45-2.37,1.27-1.75,2.9-3,1.41-1.57,3-2.87,2-.8,3.67-2.1,1.13-1.93,2.76-3.23,1.85-1,3.48-2.32,1.26-1.77,2.89-3.07,1.67-1.26,3.3-2.56,1.83-1,3.46-2.35,1.48-1.5,3.11-2.8,1.75-1.15,3.39-2.45l3.27-2.59c1.63-1.3,1.58-1.36,3.21-2.66s2.09-.73,3.72-2,1.6-1.33,3.24-2.63,1.28-1.74,2.91-3,2-.82,3.65-2.13,1.79-1.09,3.42-2.4,1.35-1.65,3-3,1.22-1.81,2.85-3.11,2.14-.67,3.77-2,1.7-1.21,3.33-2.51,1.17-1.88,2.8-3.18,2-.8,3.67-2.1,1.74-1.17,3.37-2.47,1.52-1.44,3.15-2.75,1.39-1.6,3-2.9,1.21-1.84,2.84-3.15,2.3-.46,3.93-1.77,1.55-1.4,3.18-2.7,1.15-1.92,2.78-3.22,2.33-.44,4-1.74,1.07-2,2.7-3.32,1.74-1.18,3.37-2.48,1.82-1.08,3.46-2.39"/><path class="cls-1" d="M1199.39,1242.2c3-1.6,2.56-2.52,5.61-4.12s3.19-1.33,6.23-2.94,3.73-.3,6.78-1.91,3-1.71,6-3.31,3.1-1.51,6.14-3.12,2.57-2.51,5.62-4.11,3.41-.93,6.46-2.53,3.09-1.52,6.14-3.13,2.88-1.94,5.92-3.54,3.22-1.3,6.26-2.91,2.76-2.14,5.81-3.75,2.83-2,5.87-3.63,3-1.71,6-3.31,3.24-1.24,6.29-2.84,2.9-1.88,6-3.48,2.68-2.31,5.73-3.91,3.44-.86,6.48-2.47,3.26-1.22,6.3-2.82,2.58-2.5,5.63-4.11,3.73-.31,6.78-1.92,2.45-2.75,5.49-4.36,3.21-1.31,6.26-2.91,2.66-2.33,5.71-3.94,3.62-.51,6.67-2.12,3-1.74,6-3.35,3.12-1.46,6.17-3.06,2.81-2.07,5.85-3.67,3.36-1,6.41-2.63,2.39-2.86,5.43-4.47,3.16-1.39,6.21-3,3-1.67,6.07-3.28,3.73-.31,6.78-1.92,2.9-1.87,6-3.48,3.12-1.47,6.16-3.08,3.33-1.08,6.37-2.69,2.74-2.2,5.79-3.8,3.35-1,6.4-2.63,2.84-2,5.89-3.62,3.14-1.43,6.19-3,3.09-1.54,6.13-3.15,3-1.72,6-3.33,2.32-3,5.37-4.59,3.34-1,6.39-2.65,3.06-1.59,6.1-3.2,3.65-.47,6.7-2.08,3-1.79,6-3.39,2.76-2.14,5.81-3.75,3.32-1.08,6.37-2.69,3.08-1.56,6.13-3.17,3.15-1.4,6.2-3,2.22-3.19,5.27-4.79,3-1.66,6.07-3.27,3.58-.6,6.63-2.2,3.28-1.17,6.33-2.78,3.17-1.38,6.22-3,2-3.68,5-5.29,3.2-1.33,6.25-2.94,3-1.77,6-3.38,3-1.66,6.06-3.27,3.53-.7,6.58-2.31,3.62-.53,6.67-2.14,2.37-2.88,5.42-4.49,3.25-1.23,6.29-2.84,2.85-2,5.9-3.6,3.1-1.51,6.15-3.12,3-1.73,6-3.34,3.24-1.24,6.29-2.85,2.71-2.24,5.76-3.85,3.08-1.54,6.13-3.15,3.48-.79,6.53-2.4,2.8-2.07,5.85-3.68,2.69-2.3,5.74-3.91,3.44-.87,6.48-2.47,3.37-1,6.42-2.63,2.89-1.91,5.94-3.52,2.89-1.89,5.94-3.49,2.73-2.2,5.78-3.81,3.07-1.57,6.12-3.17,3.06-1.59,6.11-3.2,3.7-.36,6.75-2,3.08-1.54,6.13-3.15,3.13-1.46,6.18-3.06,3-1.7,6.05-3.31,2.31-3,5.36-4.61,3.49-.78,6.53-2.39,3.45-.85,6.51-2.46,2.13-3.33,5.18-4.94,3.52-.72,6.57-2.32,2.55-2.56,5.6-4.17l6.09-3.23c3-1.61,3.65-.47,6.7-2.08s3.09-1.53,6.14-3.14,3.39-1,6.44-2.58,2.43-2.79,5.48-4.4,3.38-1,6.43-2.58,3.38-1,6.43-2.6,2.41-2.82,5.46-4.43,3.36-1,6.41-2.64,2.49-2.67,5.54-4.28,3-1.63,6.09-3.24,3-1.64,6.08-3.25,3.69-.4,6.74-2,3-1.69,6.06-3.3,2.45-2.76,5.5-4.37,3.39-1,6.44-2.57,3.28-1.17,6.34-2.78,2.81-2.06,5.87-3.67,3.64-.5,6.69-2.11"/><path d="M979.78,1460.2c0-1.15.16-2.24-.59-3a4,4,0,0,0-3-.89,3.66,3.66,0,0,0-2.76,1.12c-.75.75-1.79,1.61-1.79,2.76a4.61,4.61,0,0,0,1.57,3c.75.75,1.83.7,3,.7s2.53.35,3.28-.4S979.78,1461.35,979.78,1460.2Z"/><path class="cls-1" d="M979.78,1460.2c0-1.15.16-2.24-.59-3a4,4,0,0,0-3-.89,3.66,3.66,0,0,0-2.76,1.12c-.75.75-1.79,1.61-1.79,2.76a4.61,4.61,0,0,0,1.57,3c.75.75,1.83.7,3,.7s2.53.35,3.28-.4S979.78,1461.35,979.78,1460.2Z"/><path d="M1230.2,1600c0-1.15-1-2-1.79-2.79a4.27,4.27,0,0,0-2.79-1.64,4.86,4.86,0,0,0-3.23,1.19c-.75.75-.34,2.09-.34,3.24s-.14,2.21.61,3,1.82,1.79,3,1.79,2.26-1,3-1.75A4.68,4.68,0,0,0,1230.2,1600Z"/><path class="cls-5" d="M502.7,1580.1c0-1.15-.05-2.44-.8-3.19s-2-.7-3.19-.7-2.58-.19-3.33.56-.45,2.18-.45,3.33-.09,2.37.66,3.12,2,.53,3.12.53,2.52.37,3.27-.38S502.7,1581.24,502.7,1580.1Z"/><path class="cls-6" d="M502.7,1580.1c0-1.15-.05-2.44-.8-3.19s-2-.7-3.19-.7-2.58-.19-3.33.56-.45,2.18-.45,3.33-.09,2.37.66,3.12,2,.53,3.12.53,2.52.37,3.27-.38S502.7,1581.24,502.7,1580.1Z"/><path d="M725.38,1785.21a4.25,4.25,0,0,0-.78-3.09,4.37,4.37,0,0,0-3.09-1,3.81,3.81,0,0,0-2.72,1.38,4.09,4.09,0,0,0-1.63,2.71,5,5,0,0,0,1,3.32c.75.75,2.18.81,3.33.81s1.77-.85,2.53-1.6A3.37,3.37,0,0,0,725.38,1785.21Z"/><path d="M1284.48,1355.59a3.22,3.22,0,0,0-1-2.6,3.63,3.63,0,0,0-2.61-1.41,4.45,4.45,0,0,0-3.15.85,4,4,0,0,0,0,6.34,4.78,4.78,0,0,0,3.18,1.24c1.15,0,1.78-1.14,2.53-1.89A3.12,3.12,0,0,0,1284.48,1355.59Z"/><path class="cls-1" d="M1284.48,1355.59a3.22,3.22,0,0,0-1-2.6,3.63,3.63,0,0,0-2.61-1.41,4.45,4.45,0,0,0-3.15.85,4,4,0,0,0,0,6.34,4.78,4.78,0,0,0,3.18,1.24c1.15,0,1.78-1.14,2.53-1.89A3.12,3.12,0,0,0,1284.48,1355.59Z"/><path class="cls-1" d="M1108.18,1515.07c1.52-1.4,1.74-1.16,3.25-2.56s1.07-1.87,2.58-3.27,1.65-1.25,3.16-2.65,2.1-.77,3.61-2.16,1-1.93,2.54-3.33,1.13-1.8,2.64-3.2,2-.81,3.56-2.21,1.44-1.48,3-2.88,1.85-1,3.36-2.44.72-2.26,2.23-3.66,2.24-.62,3.75-2,1.39-1.53,2.91-2.92,1.07-1.87,2.58-3.27,2.12-.75,3.63-2.15l3-2.8c1.51-1.4,1.25-1.68,2.76-3.08s1.41-1.51,2.93-2.91,1.31-1.62,2.83-3,2.23-.62,3.74-2,.63-2.36,2.14-3.76,1.64-1.26,3.15-2.66,1.9-1,3.41-2.38,1.44-1.49,2.95-2.89,1.68-1.22,3.19-2.62,1.41-1.52,2.93-2.91,1.89-1,3.4-2.39,1.21-1.74,2.72-3.14,1.87-1,3.39-2.41,1.06-1.89,2.58-3.28,1.29-1.64,2.81-3,1.66-1.24,3.18-2.64,1.63-1.27,3.15-2.67,1.55-1.36,3.06-2.76,1.36-1.57,2.87-3,1.21-1.73,2.73-3.14,1.87-1,3.38-2.41,1.54-1.37,3.06-2.77,1.28-1.66,2.79-3.06,2.09-.77,3.61-2.18.92-2,2.43-3.44,1.77-1.12,3.28-2.52,1.63-1.27,3.14-2.67,1-1.93,2.55-3.33,2.17-.69,3.69-2.08,1-2,2.5-3.37,1.45-1.47,3-2.87,2-.83,3.56-2.23.81-2.16,2.33-3.56,2.23-.62,3.75-2,1.45-1.47,3-2.87,1.76-1.14,3.27-2.54,1.1-1.86,2.61-3.26,1.21-1.73,2.73-3.13,2-.91,3.49-2.31,1.19-1.75,2.71-3.16,1.17-1.78,2.69-3.18,1.9-1,3.42-2.4"/><path class="cls-5" d="M673.82,2039a4.13,4.13,0,0,0,1,3,4.38,4.38,0,0,0,3.06,1.19,3.89,3.89,0,0,0,4.31-4.46c0-1.14-1.24-1.75-2-2.47s-1.47-2-2.61-1.93a4.82,4.82,0,0,0-3.08,1.55A4.37,4.37,0,0,0,673.82,2039Z"/><path class="cls-6" d="M673.82,2039a4.13,4.13,0,0,0,1,3,4.38,4.38,0,0,0,3.06,1.19,3.89,3.89,0,0,0,4.31-4.46c0-1.14-1.24-1.75-2-2.47s-1.47-2-2.61-1.93a4.82,4.82,0,0,0-3.08,1.55A4.37,4.37,0,0,0,673.82,2039Z"/><path class="cls-5" d="M941,1991.37A5,5,0,0,0,940,1988a5.05,5.05,0,0,0-3.33-1.11,5.16,5.16,0,0,0-3.37,1.07,5.1,5.1,0,0,0-1,3.37,4.76,4.76,0,0,0,1.2,3.18c.76.75,2,.38,3.18.38a3.21,3.21,0,0,0,2.61-1C940,1993.23,941,1992.51,941,1991.37Z"/><path class="cls-4" d="M1436.43,2097a3.74,3.74,0,0,0-1.49-2.63,3.81,3.81,0,0,0-2.63-1.53,4.66,4.66,0,0,0-3.22.94,4.8,4.8,0,0,0-1.16,3.22c0,1.14.94,1.93,1.69,2.69a3.69,3.69,0,0,0,2.69,1.33,4.05,4.05,0,0,0,2.94-1.08A4.15,4.15,0,0,0,1436.43,2097Z"/><path class="cls-3" d="M1085.15,1780.88c1.53,1.4,1.14,1.83,2.68,3.23s1.9,1,3.43,2.39,1,1.94,2.58,3.33,2.21.66,3.75,2.05,1.19,1.78,2.72,3.18,1.36,1.59,2.89,3,1.35,1.59,2.89,3,1.45,1.49,3,2.89,2,.86,3.56,2.25,1.65,1.27,3.19,2.67,1.85,1,3.38,2.44.89,2.12,2.43,3.52,1.81,1.08,3.35,2.48,1.64,1.29,3.18,2.68,1.15,1.82,2.69,3.21,1.85,1.06,3.39,2.45,1.82,1.09,3.35,2.48,1,2,2.55,3.37,2,.92,3.51,2.32.93,2.06,2.47,3.45,1.82,1.08,3.35,2.48,1.21,1.76,2.74,3.16,1.52,1.42,3,2.82,1.64,1.29,3.18,2.69,2.11.76,3.65,2.16.9,2.09,2.44,3.48,2,.92,3.51,2.32,1.47,1.47,3,2.87,1.67,1.26,3.2,2.65,1.65,1.28,3.18,2.68,1.58,1.35,3.12,2.75,1,2,2.51,3.41,1.58,1.35,3.11,2.75,2,.92,3.51,2.32,1.59,1.33,3.13,2.73,1.47,1.47,3,2.87,1.64,1.27,3.18,2.67,1.44,1.5,3,2.9,1.4,1.54,2.94,2.94,1.18,1.78,2.72,3.18,1.88,1,3.41,2.42,1.72,1.2,3.26,2.6,1.58,1.34,3.12,2.74,1.27,1.69,2.8,3.09,1.75,1.17,3.29,2.56,1.66,1.26,3.2,2.66,1.59,1.34,3.12,2.73,1.12,1.87,2.65,3.27,1.36,1.59,2.89,3,1.95.95,3.49,2.35,1.24,1.72,2.78,3.12,1.5,1.42,3,2.82,1.87,1,3.41,2.41,1.46,1.47,3,2.87l3.07,2.8c1.53,1.4,1.66,1.26,3.19,2.66s1,2,2.49,3.44,2.05.84,3.58,2.23,1.19,1.78,2.73,3.18,1.75,1.16,3.28,2.55,1.7,1.22,3.23,2.62.86,2.14,2.39,3.54,2,.88,3.54,2.27,1.23,1.74,2.76,3.14,1.8,1.11,3.33,2.51,1.52,1.42,3.06,2.82,1.91,1,3.45,2.38,1.35,1.61,2.88,3,.9,2.1,2.43,3.49,2,.87,3.56,2.27,1.45,1.48,3,2.88,1.24,1.72,2.78,3.12,2.34.51,3.88,1.91,1.07,1.92,2.61,3.31,1.67,1.25,3.21,2.65.93,2.06,2.47,3.46,1.93,1,3.46,2.36,1.41,1.54,3,2.93,1.49,1.45,3,2.85l3.08,2.8c1.53,1.39,1.82,1.08,3.36,2.48s1.24,1.72,2.78,3.12,1.83,1.07,3.36,2.47,1.45,1.51,3,2.91l3.08,2.79c1.54,1.4,1.76,1.15,3.3,2.55s1.24,1.73,2.78,3.13,2.06.82,3.6,2.22,1.24,1.72,2.78,3.12,1.59,1.34,3.12,2.74,1.88,1,3.41,2.43.66,2.37,2.2,3.77,2.23.64,3.77,2,1.26,1.71,2.79,3.11,1.88,1,3.42,2.42,1.12,1.86,2.66,3.25,2,.89,3.54,2.29,1.19,1.77,2.73,3.17,1.79,1.12,3.33,2.52,1,2,2.52,3.4,1.86,1,3.4,2.44,1.66,1.27,3.2,2.67,1,2,2.51,3.42,1.95,1,3.49,2.35,1.06,1.92,2.6,3.32,1.78,1.13,3.32,2.54,2,.9,3.54,2.3,1.2,1.77,2.74,3.16,1.25,1.72,2.79,3.12,2.33.53,3.87,1.94.9,2.1,2.44,3.5,1.28,1.69,2.82,3.1,2.16.72,3.71,2.12"/><path class="cls-2" d="M835.5,1821.87c-1.21,1.67-2.17,1-3.38,2.65s-1.18,1.69-2.39,3.36-.55,2.15-1.76,3.82-1.38,1.56-2.59,3.23-1,1.78-2.26,3.45-.93,1.87-2.14,3.54-1.69,1.33-2.9,3-.91,1.89-2.12,3.56-1.75,1.28-3,3-.92,1.88-2.13,3.55-.79,2-2,3.64-1.29,1.61-2.5,3.28-1.35,1.57-2.56,3.24-.93,1.87-2.13,3.54-1.53,1.44-2.73,3.11-1.65,1.35-2.86,3-.73,2-1.94,3.69-1.22,1.66-2.43,3.34-2,1.12-3.17,2.79-.68,2-1.89,3.72l-2.42,3.35c-1.2,1.67-1.48,1.46-2.69,3.13s-.68,2.05-1.89,3.73-1.44,1.49-2.65,3.17-.8,2-2,3.64-2,1.1-3.21,2.77-.45,2.22-1.66,3.89-1.94,1.14-3.15,2.81-.79,2-2,3.65-1.65,1.35-2.86,3-.5,2.18-1.71,3.86-1.46,1.49-2.67,3.16-1.77,1.27-3,2.94-.77,2-2,3.66-.69,2-1.9,3.72-2.31.87-3.52,2.55-.82,1.95-2,3.62-1.2,1.68-2.41,3.35-1.49,1.47-2.7,3.15-.85,1.93-2.06,3.6-.73,2-1.94,3.69-2,1.11-3.19,2.79-1,1.8-2.25,3.47-1,1.85-2.17,3.53-.8,2-2,3.64-2.05,1.06-3.26,2.74-1.13,1.73-2.34,3.4-.73,2-1.94,3.69-1.08,1.77-2.29,3.44-1.13,1.73-2.34,3.4-1.23,1.65-2.44,3.33-2,1.08-3.23,2.75-.23,2.39-1.44,4.06-2.05,1.07-3.26,2.74-.52,2.17-1.73,3.85-1.57,1.41-2.78,3.08-1.19,1.69-2.4,3.36-1.09,1.76-2.3,3.44-1.14,1.73-2.35,3.41-1.82,1.22-3,2.9-.35,2.3-1.56,4-2.23.94-3.44,2.61-1,1.83-2.22,3.5-1.27,1.64-2.48,3.32-1.11,1.75-2.33,3.43"/><path class="cls-4" d="M667.52,1859.09a4.06,4.06,0,0,0-.81-3,4.14,4.14,0,0,0-3-1,3.65,3.65,0,0,0-2.67,1.31c-.75.75-2,1.53-2,2.68s1,2.11,1.78,2.86a3.45,3.45,0,0,0,5.77,0A3.85,3.85,0,0,0,667.52,1859.09Z"/><path d="M265.56,1889c0-1.15.06-2.49-.69-3.24s-2.09-.43-3.24-.43-2.6-.44-3.36.31a5.18,5.18,0,0,0-1.17,3.36,5,5,0,0,0,1.29,3.25,4.93,4.93,0,0,0,3.24,1.24,4.56,4.56,0,0,0,3-1.49A4.1,4.1,0,0,0,265.56,1889Z"/><path class="cls-1" d="M265.56,1889c0-1.15.06-2.49-.69-3.24s-2.09-.43-3.24-.43-2.6-.44-3.36.31a5.18,5.18,0,0,0-1.17,3.36,5,5,0,0,0,1.29,3.25,4.93,4.93,0,0,0,3.24,1.24,4.56,4.56,0,0,0,3-1.49A4.1,4.1,0,0,0,265.56,1889Z"/><path class="cls-4" d="M1581.71,1198.38c0-1.14.24-2.54-.51-3.29s-2.15-.32-3.29-.32-2.44-.32-3.19.43-.59,2-.59,3.18a3.92,3.92,0,0,0,.83,2.95,4.16,4.16,0,0,0,3,1.2,4,4,0,0,0,2.84-1.31A3.73,3.73,0,0,0,1581.71,1198.38Z"/><path class="cls-4" d="M1098.29,1867.38a4.35,4.35,0,0,0-1.47-2.91,3.81,3.81,0,0,0-2.91-.77c-1.15,0-2.49-.31-3.24.44a5,5,0,0,0-1.26,3.24c0,1.15.93,2.08,1.68,2.83a3.72,3.72,0,0,0,2.82,1,3.53,3.53,0,0,0,2.67-1.19C1097.33,1869.3,1098.29,1868.53,1098.29,1867.38Z"/><path class="cls-4" d="M755.09,1194.24c0-1.15.53-2.62-.23-3.37a5.07,5.07,0,0,0-3.36-1,4.52,4.52,0,0,0-3.07,1.28,3.7,3.7,0,0,0,.06,6.08c.75.75,1.86.73,3,.73s2.48.24,3.23-.51S755.09,1195.38,755.09,1194.24Z"/><path d="M1131.86,1696.79c0-1.15-1-2.15-1.75-2.9a4,4,0,0,0-2.9-1.19,4.39,4.39,0,0,0-3.1,1c-.75.75-.73,2-.73,3.1a3.82,3.82,0,0,0,.94,2.88c.75.76,1.74.76,2.89.76s2.42.28,3.17-.48A5,5,0,0,0,1131.86,1696.79Z"/><path class="cls-1" d="M1131.86,1696.79c0-1.15-1-2.15-1.75-2.9a4,4,0,0,0-2.9-1.19,4.39,4.39,0,0,0-3.1,1c-.75.75-.73,2-.73,3.1a3.82,3.82,0,0,0,.94,2.88c.75.76,1.74.76,2.89.76s2.42.28,3.17-.48A5,5,0,0,0,1131.86,1696.79Z"/><path class="cls-3" d="M6.05,648.12c4.7,4.87,1.94,7.54,6.64,12.41s4.78,4.79,9.49,9.65,6.6,3,11.3,7.9,4.22,5.33,8.93,10.2,5.14,4.45,9.84,9.31,5.5,4.11,10.2,9,3.33,6.2,8,11.06,5.57,4,10.27,8.9,3.13,6.39,7.84,11.26,5.54,4.06,10.24,8.93,5.91,3.7,10.62,8.56,4.47,5.09,9.18,10,4.29,5.27,9,10.14,5.5,4.1,10.21,9,3.8,5.74,8.51,10.61,3.44,6.09,8.14,10.95,6.08,3.55,10.79,8.41,4.67,4.9,9.38,9.76,2.52,7,7.23,11.85,6.22,3.4,10.92,8.27,4.72,4.86,9.42,9.73,3.91,5.64,8.62,10.5,6.21,3.41,10.92,8.28,4,5.53,8.72,10.4,5.9,3.72,10.6,8.58,2.45,7.06,7.15,11.93,6.87,2.77,11.58,7.64,2.59,6.91,7.3,11.78,5.9,3.71,10.61,8.58,3.44,6.09,8.14,11,6.73,2.91,11.44,7.78,4,5.55,8.71,10.42,3.09,6.42,7.8,11.29,5.95,3.67,10.66,8.54,6.19,3.42,10.9,8.28,1.53,7.94,6.24,12.81,5.82,3.78,10.52,8.65,4.73,4.85,9.43,9.71,3.91,5.64,8.62,10.51,5.73,3.87,10.44,8.74,6.09,3.53,10.79,8.4,2.48,7,7.18,11.89,5.22,4.39,9.93,9.25,5.41,4.19,10.12,9.05,5.89,3.73,10.59,8.6,2.29,7.21,7,12.08,4.94,4.65,9.64,9.52,6.08,3.55,10.78,8.42,5.09,4.51,9.79,9.37,4.94,4.65,9.64,9.52,4.64,4.94,9.35,9.8,2.37,7.14,7.08,12,7.54,2.13,12.25,7,2.3,7.2,7,12.07,6.68,3,11.39,7.84,3.67,5.88,8.38,10.75"/><path class="cls-4" d="M535.9,1194.24c0-1.15.14-2.35-.61-3.1a4.26,4.26,0,0,0-3.09-.77,3.49,3.49,0,0,0-3.88,3.87A3.94,3.94,0,0,0,535,1197,3.61,3.61,0,0,0,535.9,1194.24Z"/><path class="cls-5" d="M1676,1509.89a3.85,3.85,0,0,0-1.12-2.84,4.29,4.29,0,0,0-2.84-1.55c-1.15,0-2,.94-2.71,1.69a3.55,3.55,0,0,0-1.13,2.7c0,1.15-.24,2.58.51,3.33s2.18.46,3.33.46,2.42.15,3.18-.61S1676,1511,1676,1509.89Z"/><path class="cls-6" d="M1676,1509.89a3.85,3.85,0,0,0-1.12-2.84,4.29,4.29,0,0,0-2.84-1.55c-1.15,0-2,.94-2.71,1.69a3.55,3.55,0,0,0-1.13,2.7c0,1.15-.24,2.58.51,3.33s2.18.46,3.33.46,2.42.15,3.18-.61S1676,1511,1676,1509.89Z"/><path class="cls-5" d="M121.38,1647.77c0-1.15-1.14-1.93-1.9-2.68a3.53,3.53,0,0,0-2.67-1.19,3.48,3.48,0,0,0-2.63,1.24c-.75.75-1.58,1.48-1.58,2.63a4.55,4.55,0,0,0,1.05,3.15c.75.75,2,.76,3.16.76s2.48.07,3.23-.68A5,5,0,0,0,121.38,1647.77Z"/><path class="cls-6" d="M121.38,1647.77c0-1.15-1.14-1.93-1.9-2.68a3.53,3.53,0,0,0-2.67-1.19,3.48,3.48,0,0,0-2.63,1.24c-.75.75-1.58,1.48-1.58,2.63a4.55,4.55,0,0,0,1.05,3.15c.75.75,2,.76,3.16.76s2.48.07,3.23-.68A5,5,0,0,0,121.38,1647.77Z"/><path d="M1196.79,1093.74a3.37,3.37,0,0,0-3.82-3.82,3.53,3.53,0,0,0-2.7,1.13c-.75.75-2,1.55-2,2.69a5,5,0,0,0,1.57,3.15c.75.75,2,.74,3.15.74s2.56.18,3.31-.57S1196.79,1094.89,1196.79,1093.74Z"/><path class="cls-4" d="M419.18,748.16c0-1.15.53-2.61-.22-3.37a5.1,5.1,0,0,0-3.37-1,4.53,4.53,0,0,0-3.07,1.28,3.7,3.7,0,0,0,.06,6.08c.75.75,1.87.74,3,.74s2.48.23,3.23-.52S419.18,749.3,419.18,748.16Z"/><path d="M608.56,744a3.39,3.39,0,0,0-3.82-3.83,3.54,3.54,0,0,0-2.7,1.14c-.75.75-2,1.54-2,2.69a5,5,0,0,0,1.57,3.15c.75.75,2,.74,3.15.74s2.56.18,3.31-.57S608.56,745.15,608.56,744Z"/><path d="M268,1068.38a3.39,3.39,0,0,0-3.83-3.82,3.53,3.53,0,0,0-2.69,1.13c-.75.75-2,1.55-2,2.69a5,5,0,0,0,1.58,3.15c.75.75,2,.74,3.14.74s2.57.18,3.32-.57S268,1069.53,268,1068.38Z"/><path class="cls-5" d="M723.37,671.54a4.13,4.13,0,0,0,1.06,3,4.37,4.37,0,0,0,3.05,1.19,4.9,4.9,0,0,0,3.25-1.13,5,5,0,0,0,1.07-3.33c0-1.14-1.25-1.75-2-2.47s-1.46-2-2.6-1.93a4.8,4.8,0,0,0-3.08,1.55A4.37,4.37,0,0,0,723.37,671.54Z"/><path class="cls-6" d="M723.37,671.54a4.13,4.13,0,0,0,1.06,3,4.37,4.37,0,0,0,3.05,1.19,4.9,4.9,0,0,0,3.25-1.13,5,5,0,0,0,1.07-3.33c0-1.14-1.25-1.75-2-2.47s-1.46-2-2.6-1.93a4.8,4.8,0,0,0-3.08,1.55A4.37,4.37,0,0,0,723.37,671.54Z"/><path class="cls-4" d="M1072.21,676.11c0-1.14.53-2.61-.22-3.36a5.09,5.09,0,0,0-3.37-1,4.53,4.53,0,0,0-3.07,1.28,4.83,4.83,0,0,0-1.56,3.07,4.74,4.74,0,0,0,1.62,3c.75.75,1.87.74,3,.74s2.48.23,3.23-.52S1072.21,677.26,1072.21,676.11Z"/><path class="cls-2" d="M47.61,505.84c3.44.42,3.56-.61,7-.2s3.39.72,6.83,1.14,3.26,1.88,6.69,2.29,3.45.3,6.89.71,3.42.52,6.86.93,3.56-.59,7-.18,3.34,1.18,6.78,1.59,3.42.52,6.86.93,3.48.05,6.92.46,3.39.76,6.83,1.17,3.51-.19,6.94.22,3.49,0,6.93.36,3.45.3,6.88.72,3.39.83,6.83,1.24,3.47.11,6.91.52,3.53-.36,7,0,3.34,1.25,6.77,1.67,3.39.85,6.82,1.26,3.56-.59,7-.18,3.26,1.87,6.69,2.28,3.59-.86,7-.45,3.4.75,6.83,1.16,3.54-.39,7,0,3.29,1.64,6.73,2.05,3.46.26,6.89.67,3.42.59,6.85,1,3.5-.1,6.94.31,3.36,1.08,6.79,1.49,3.61-1,7-.58,3.41.65,6.84,1.06,3.45.35,6.88.76,3.27,1.87,6.7,2.28,3.47.11,6.91.53,3.42.56,6.85,1,3.37,1,6.8,1.41,3.52-.24,6.95.17,3.36,1.07,6.79,1.48,3.5,0,6.93.38,3.41.62,6.85,1,3.43.49,6.86.9,3.45.29,6.89.7,3.62-1.13,7.06-.71,3.36,1,6.8,1.45,3.43.43,6.87.84,3.28,1.7,6.72,2.11,3.46.21,6.9.62,3.51-.18,6.95.23,3.37,1,6.8,1.42,3.44.47,6.87.88,3.41.65,6.85,1.06,3.65-1.35,7.09-.94,3.45.36,6.88.78,3.31,1.54,6.74,2,3.38.91,6.82,1.32,3.41.67,6.84,1.09,3.72-1.91,7.16-1.5,3.4.73,6.84,1.14,3.46.23,6.9.65,3.44.34,6.88.76,3.33,1.43,6.77,1.84,3.29,1.63,6.74,2"/><path d="M1358.64,660.24a4.26,4.26,0,0,0-.78-3.09,4.37,4.37,0,0,0-3.09-1,3.79,3.79,0,0,0-2.71,1.38,4.08,4.08,0,0,0-1.64,2.71,5,5,0,0,0,1,3.32c.75.76,2.17.81,3.32.81s1.78-.85,2.53-1.6A3.37,3.37,0,0,0,1358.64,660.24Z"/><path class="cls-4" d="M1300.78,734.12a4.06,4.06,0,0,0-.81-3,4.13,4.13,0,0,0-3-1,3.65,3.65,0,0,0-2.68,1.31c-.75.75-2,1.52-2,2.67s1,2.11,1.78,2.86a4.39,4.39,0,0,0,2.87,1.58,4.44,4.44,0,0,0,2.91-1.53A3.87,3.87,0,0,0,1300.78,734.12Z"/><path d="M810.12,182.86a4.26,4.26,0,0,0,3.09-.78,4.35,4.35,0,0,0,1-3.09,3.79,3.79,0,0,0-1.38-2.71,4.11,4.11,0,0,0-2.71-1.63,5,5,0,0,0-3.32,1c-.75.75-.81,2.17-.81,3.32s.85,1.78,1.6,2.53A3.37,3.37,0,0,0,810.12,182.86Z"/><path class="cls-4" d="M1048.55,414.06a4.05,4.05,0,0,0,3-.8,4.17,4.17,0,0,0,1-3,3.65,3.65,0,0,0-1.31-2.68c-.75-.75-1.52-2-2.67-2s-2.11,1-2.86,1.79a4.35,4.35,0,0,0-1.58,2.86,4.44,4.44,0,0,0,1.53,2.91A3.86,3.86,0,0,0,1048.55,414.06Z"/><path class="cls-5" d="M1638.6,387.74a3.85,3.85,0,0,0-1.12-2.84,4.29,4.29,0,0,0-2.84-1.55c-1.15,0-2,.94-2.7,1.69a3.55,3.55,0,0,0-1.13,2.7c0,1.15-.25,2.58.5,3.34s2.18.45,3.33.45,2.43.15,3.18-.61S1638.6,388.89,1638.6,387.74Z"/><path class="cls-6" d="M1638.6,387.74a3.85,3.85,0,0,0-1.12-2.84,4.29,4.29,0,0,0-2.84-1.55c-1.15,0-2,.94-2.7,1.69a3.55,3.55,0,0,0-1.13,2.7c0,1.15-.25,2.58.5,3.34s2.18.45,3.33.45,2.43.15,3.18-.61S1638.6,388.89,1638.6,387.74Z"/><path class="cls-5" d="M413,351.89a3.85,3.85,0,0,0-1.12-2.84A4.29,4.29,0,0,0,409,347.5c-1.15,0-2,.94-2.71,1.69a3.55,3.55,0,0,0-1.13,2.7c0,1.15-.24,2.58.51,3.33s2.18.46,3.33.46,2.42.15,3.18-.61S413,353,413,351.89Z"/><path class="cls-6" d="M413,351.89a3.85,3.85,0,0,0-1.12-2.84A4.29,4.29,0,0,0,409,347.5c-1.15,0-2,.94-2.71,1.69a3.55,3.55,0,0,0-1.13,2.7c0,1.15-.24,2.58.51,3.33s2.18.46,3.33.46,2.42.15,3.18-.61S413,353,413,351.89Z"/><path class="cls-3" d="M1828.87,609.41c-2.07-.09-2.08.2-4.15.12s-2.09.36-4.16.28-2-.54-4.12-.62-2.1.68-4.17.6-2.08.08-4.15,0-2-1.32-4.09-1.4-2.09.4-4.16.32-2.06-.49-4.13-.57-2.08.17-4.15.09-2.09.45-4.17.37-2.07-.12-4.14-.2-2.06-.31-4.14-.39-2.05-.54-4.13-.62-2.07.09-4.15,0l-4.14-.18c-2.07-.08-2.08.12-4.15,0s-2.08,0-4.15-.06-2.08.1-4.15,0-2.07-.14-4.14-.22-2.05-.61-4.12-.69-2.08.08-4.15,0-2.11.84-4.18.76-2-1.1-4.1-1.18-2.11.78-4.18.7-2-.94-4.11-1-2.1.75-4.18.67-2.06-.3-4.13-.38-2.09.13-4.16,0-2.08.06-4.15,0-2-1.19-4.1-1.28-2.09.47-4.16.39-2.1.53-4.17.44-2-.66-4.12-.75-2.07-.24-4.14-.33-2.06-.41-4.13-.49-2.1.77-4.18.69-2.08.25-4.15.17-2.07-.25-4.14-.33-2.07-.26-4.14-.34-2.09.2-4.16.12-2.06-.47-4.13-.55-2-1.06-4.11-1.14-2.12,1.14-4.19,1.06-2.07,0-4.15,0-2-.94-4.11-1-2.06-.31-4.13-.39-2.06-.35-4.14-.43-2.09.52-4.17.43-2.06-.35-4.13-.44-2.07-.23-4.14-.32-2.12,1.13-4.2,1.05-2-1.45-4.09-1.53-2.12,1.19-4.19,1.11-2.07-.3-4.14-.38-2.07-.14-4.14-.23-2.06-.53-4.13-.61-2.1.54-4.17.46-2-1.06-4.11-1.15-2.08.25-4.16.17-2.08.18-4.15.1-2.06-.52-4.13-.6-2.07-.05-4.15-.13-2.11.88-4.18.79-2-1-4.11-1.07-2.08,0-4.15-.06-2.06-.58-4.13-.67-2.12,1.17-4.19,1.08-2.07-.36-4.14-.44-2.06-.53-4.13-.61-2.08,0-4.15-.05-2.09.32-4.16.23-2.06-.42-4.14-.5-2.06-.35-4.13-.43-2.09.28-4.16.19-2.08-.06-4.15-.14-2.07-.27-4.14-.35-2.07-.12-4.15-.21-2.08.17-4.15.09-2.07-.17-4.14-.26-2.07-.38-4.14-.46-2.11.72-4.18.63-2-1-4.11-1.05-2.07,0-4.14-.11-2.09.36-4.16.27-2.07-.19-4.14-.27-2.08.2-4.15.11-2.07-.13-4.15-.21-2.08.12-4.15,0-2.06-.42-4.14-.5-2.08.26-4.15.18-2-.87-4.11-.95-2.08-.1-4.15-.18-2.11.88-4.19.8-2-.76-4.12-.84-2-.47-4.13-.56-2.07-.12-4.14-.2-2.11,1-4.19.87-2-.79-4.12-.87-2.11.73-4.18.65-2-1.33-4.1-1.41-2.07,0-4.15-.09-2.1.52-4.17.44l-4.15-.17c-2.07-.09-2.07,0-4.15-.08s-2.09.23-4.16.15-2-1-4.11-1-2.11.71-4.18.63-2-1.16-4.11-1.24-2.08.14-4.16.06-2.11.88-4.19.8-2.06-.4-4.13-.48-2-.83-4.12-.91-2.13,1.12-4.2,1-2-1.27-4.1-1.35-2.08.07-4.16,0-2.1.7-4.17.62-2-1.2-4.11-1.28-2.08,0-4.15-.09-2.12,1-4.19.87-2.07-.39-4.14-.47-2.06-.59-4.14-.67-2.09.31-4.16.23-2-.76-4.13-.84-2.12,1.08-4.2,1-2-1.2-4.11-1.28l-4.16-.17c-2.08-.08-2.13,1.27-4.21,1.19"/><path class="cls-1" d="M43.63,26.82c1.9.87,2,.67,3.88,1.53s2.3,0,4.19.84,1.76,1.16,3.66,2,1.58,1.54,3.47,2.41,2.4-.23,4.29.63,1.41,1.94,3.3,2.8,2,.73,3.85,1.59,2.22.16,4.12,1,1.43,1.88,3.33,2.74,1.92.8,3.81,1.67,2.33-.09,4.22.78,1.77,1.14,3.66,2,1.68,1.32,3.58,2.19,2.05.5,4,1.37,1.61,1.47,3.5,2.34,2.38-.2,4.27.66,1.43,1.88,3.33,2.74l3.78,1.73c1.9.86,2.46-.36,4.35.5s1.68,1.32,3.58,2.18,1.58,1.55,3.47,2.42,2.34-.12,4.24.74,1.5,1.73,3.4,2.59,1.84,1,3.73,1.85,2.36-.15,4.25.72,1.89.89,3.78,1.75,1.52,1.7,3.41,2.57,1.95.73,3.85,1.6,2.25.07,4.15.93,1.53,1.66,3.42,2.52,2.13.35,4,1.22,1.7,1.29,3.6,2.16,1.66,1.37,3.55,2.23,2,.53,3.94,1.39,2.29,0,4.18.87,1.36,2,3.25,2.91,1.91.82,3.81,1.69,2,.51,3.95,1.37,2.16.28,4.06,1.14,1.47,1.8,3.36,2.67,2.3,0,4.2.84,2,.62,3.9,1.48,1.6,1.52,3.49,2.38,1.78,1.12,3.68,2,2,.63,3.89,1.49,1.74,1.21,3.63,2.07,2.1.41,4,1.28,2.06.5,3.95,1.37,1.58,1.56,3.47,2.43,1.91.82,3.81,1.68,2.21.18,4.1,1,2,.59,3.92,1.46,1.4,1.94,3.29,2.81,1.91.83,3.81,1.7,2.23.12,4.13,1,1.8,1.06,3.7,1.92,2,.69,3.86,1.56,2,.55,3.93,1.42,1.65,1.4,3.55,2.26,2,.53,3.94,1.39,1.62,1.48,3.51,2.35,2.05.54,3.94,1.4,2.11.4,4,1.26,1.85,1,3.75,1.82,1.82,1,3.71,1.89,2,.55,3.94,1.42,1.73,1.22,3.62,2.08,1.67,1.36,3.57,2.22,2.14.33,4,1.19l3.79,1.75c1.9.86,1.51,1.71,3.4,2.58s2.17.27,4.06,1.14l3.8,1.72c1.89.87,1.75,1.18,3.64,2s2.17.28,4.06,1.14,1.78,1.13,3.67,2,2.11.4,4,1.26,1.49,1.75,3.38,2.62,2.29,0,4.18.88,1.52,1.69,3.41,2.55,2.11.4,4,1.27,1.67,1.36,3.56,2.22,2.26.07,4.16.94,1.77,1.14,3.66,2,1.61,1.5,3.51,2.36,2.11.38,4,1.24,2.16.29,4.06,1.15,1.33,2.11,3.22,3,2.1.43,4,1.29l3.79,1.72c1.9.87,1.76,1.18,3.65,2s2.08.46,4,1.33,2.14.32,4,1.19,1.5,1.73,3.39,2.6,2,.66,3.88,1.53,2,.58,3.92,1.45,2.1.4,4,1.26,1.47,1.82,3.36,2.68,1.94.77,3.83,1.64,2.14.33,4,1.19,2,.72,3.86,1.59,1.93.77,3.83,1.64,1.88.89,3.77,1.75,1.48,1.78,3.38,2.64,2.4-.24,4.29.62,1.47,1.81,3.37,2.68,2.24.09,4.14,1,1.71,1.27,3.6,2.13,1.91.84,3.81,1.71,1.95.73,3.85,1.59,1.94.78,3.83,1.64,1.58,1.56,3.48,2.42,2.34-.1,4.23.77,1.38,2,3.27,2.87,2,.63,3.9,1.5,1.87.92,3.77,1.79,1.95.75,3.84,1.62,2,.6,3.92,1.46,1.94.76,3.84,1.62,1.88.9,3.78,1.77,2.16.29,4.05,1.16,1.6,1.52,3.5,2.38,1.8,1.08,3.7,1.94,2.12.38,4,1.24,1.62,1.47,3.52,2.33,2.14.33,4,1.19,2.09.43,4,1.3,1.94.76,3.83,1.63,1.49,1.76,3.39,2.63,2.16.29,4,1.16,1.66,1.39,3.55,2.26,2,.63,3.91,1.49,2,.67,3.89,1.54,1.65,1.39,3.55,2.26,2.12.37,4,1.24,1.6,1.53,3.5,2.39,2.31,0,4.21.82,1.68,1.33,3.58,2.2,1.79,1.11,3.7,2,1.78,1.11,3.69,2"/><path class="cls-5" d="M1858.27,610.31a3.84,3.84,0,0,0-1.12-2.84,4.29,4.29,0,0,0-2.84-1.55c-1.15,0-2,.94-2.7,1.69a3.53,3.53,0,0,0-1.13,2.7c0,1.14-.25,2.58.5,3.33s2.18.45,3.33.45,2.43.15,3.18-.6S1858.27,611.45,1858.27,610.31Z"/><path class="cls-6" d="M1858.27,610.31a3.84,3.84,0,0,0-1.12-2.84,4.29,4.29,0,0,0-2.84-1.55c-1.15,0-2,.94-2.7,1.69a3.53,3.53,0,0,0-1.13,2.7c0,1.14-.25,2.58.5,3.33s2.18.45,3.33.45,2.43.15,3.18-.6S1858.27,611.45,1858.27,610.31Z"/><path class="cls-5" d="M1362.88,479.46a3.84,3.84,0,0,0-1.12-2.84,4.29,4.29,0,0,0-2.84-1.55c-1.15,0-2,.94-2.71,1.69a3.55,3.55,0,0,0-1.13,2.7c0,1.15-.24,2.58.51,3.33s2.18.45,3.33.45,2.42.15,3.17-.6S1362.88,480.61,1362.88,479.46Z"/><path class="cls-6" d="M1362.88,479.46a3.84,3.84,0,0,0-1.12-2.84,4.29,4.29,0,0,0-2.84-1.55c-1.15,0-2,.94-2.71,1.69a3.55,3.55,0,0,0-1.13,2.7c0,1.15-.24,2.58.51,3.33s2.18.45,3.33.45,2.42.15,3.17-.6S1362.88,480.61,1362.88,479.46Z"/><path class="cls-5" d="M851,435.89a3.85,3.85,0,0,0-1.12-2.84A4.29,4.29,0,0,0,847,431.5c-1.15,0-2,.94-2.71,1.69a3.55,3.55,0,0,0-1.13,2.7c0,1.15-.24,2.58.51,3.33s2.18.46,3.33.46,2.42.15,3.18-.61S851,437,851,435.89Z"/><path class="cls-6" d="M851,435.89a3.85,3.85,0,0,0-1.12-2.84A4.29,4.29,0,0,0,847,431.5c-1.15,0-2,.94-2.71,1.69a3.55,3.55,0,0,0-1.13,2.7c0,1.15-.24,2.58.51,3.33s2.18.46,3.33.46,2.42.15,3.18-.61S851,437,851,435.89Z"/><path class="cls-5" d="M411,775.89a3.85,3.85,0,0,0-1.12-2.84A4.29,4.29,0,0,0,407,771.5c-1.15,0-2,.94-2.71,1.69a3.55,3.55,0,0,0-1.13,2.7c0,1.15-.24,2.58.51,3.33s2.18.46,3.33.46,2.42.15,3.18-.61S411,777,411,775.89Z"/><path class="cls-6" d="M411,775.89a3.85,3.85,0,0,0-1.12-2.84A4.29,4.29,0,0,0,407,771.5c-1.15,0-2,.94-2.71,1.69a3.55,3.55,0,0,0-1.13,2.7c0,1.15-.24,2.58.51,3.33s2.18.46,3.33.46,2.42.15,3.18-.61S411,777,411,775.89Z"/><path d="M466.74,483.61a3.83,3.83,0,0,0-1.11-2.84,4.29,4.29,0,0,0-2.85-1.55c-1.14,0-1.95.94-2.7,1.69a3.53,3.53,0,0,0-1.13,2.7c0,1.14-.25,2.58.5,3.33s2.19.45,3.33.45,2.43.15,3.18-.6S466.74,484.75,466.74,483.61Z"/><path d="M578.21,268.2a3.2,3.2,0,0,0-1-2.59,3.64,3.64,0,0,0-2.61-1.42,4.4,4.4,0,0,0-3.15.86,4,4,0,0,0,0,6.34,4.77,4.77,0,0,0,3.18,1.23c1.15,0,1.78-1.14,2.53-1.89A3.12,3.12,0,0,0,578.21,268.2Z"/><path class="cls-1" d="M578.21,268.2a3.2,3.2,0,0,0-1-2.59,3.64,3.64,0,0,0-2.61-1.42,4.4,4.4,0,0,0-3.15.86,4,4,0,0,0,0,6.34,4.77,4.77,0,0,0,3.18,1.23c1.15,0,1.78-1.14,2.53-1.89A3.12,3.12,0,0,0,578.21,268.2Z"/><path class="cls-1" d="M575.71,2.17c0,2.06.24,2.06.26,4.13s1,2.06,1,4.13-.3,2.07-.28,4.14-.73,2.08-.71,4.15,1.22,2.06,1.24,4.13-1.16,2.08-1.14,4.15.17,2.06.19,4.13.8,2.06.82,4.13S576,37.34,576,39.41s.09,2.07.11,4.14,1.06,2.06,1.08,4.13-.3,2.07-.28,4.14-.48,2.08-.46,4.15.41,2.06.43,4.13-.66,2.08-.64,4.15,1.19,2,1.21,4.12-1.1,2.08-1.08,4.15l0,4.13c0,2.07,1.37,2.06,1.39,4.12s-.48,2.08-.46,4.14-.74,2.08-.72,4.15,1.1,2.06,1.12,4.13-.93,2.08-.91,4.15-.11,2.07-.09,4.13,1.13,2.06,1.15,4.13,0,2.07,0,4.14-.9,2.08-.88,4.15.16,2.06.18,4.13.89,2.06.91,4.13-.85,2.08-.83,4.15.58,2.06.6,4.13-.46,2.08-.44,4.15-.54,2.07-.52,4.14.4,2.07.42,4.14,1,2.06,1,4.13-1.28,2.08-1.26,4.15.06,2.07.08,4.14.41,2.07.43,4.14.66,2.06.68,4.14-1,2.07-1,4.14,1,2.07,1,4.14.3,2.07.32,4.14-.7,2.07-.68,4.14-.26,2.08-.24,4.15.28,2.07.3,4.14-.35,2.07-.33,4.14.51,2.07.53,4.14.41,2.07.43,4.14-.75,2.07-.73,4.15.07,2.06.09,4.13.77,2.07.79,4.14.31,2.07.33,4.14-1.17,2.08-1.15,4.15,0,2.07.07,4.15.84,2.06.86,4.13-.19,2.08-.17,4.15.2,2.07.22,4.14.36,2.07.38,4.14-.57,2.08-.55,4.16.39,2.07.41,4.14-.66,2.09-.64,4.16"/><path d="M940.18,840a4.25,4.25,0,0,0-.78-3.09,4.37,4.37,0,0,0-3.09-1,3.79,3.79,0,0,0-2.71,1.38A4.09,4.09,0,0,0,932,840a5,5,0,0,0,1,3.32c.75.75,2.17.81,3.32.81s1.78-.85,2.53-1.6A3.39,3.39,0,0,0,940.18,840Z"/><path class="cls-4" d="M775.54,754.09a4,4,0,0,0-.81-3,4.13,4.13,0,0,0-3-1,3.65,3.65,0,0,0-2.68,1.31c-.75.75-2,1.53-2,2.67s1,2.12,1.78,2.87a3.45,3.45,0,0,0,5.77,0A3.86,3.86,0,0,0,775.54,754.09Z"/><path d="M1149.6,258.61a4.25,4.25,0,0,0,3.09-.78,4.35,4.35,0,0,0,1-3.09,3.78,3.78,0,0,0-1.37-2.71c-.76-.75-1.57-1.63-2.72-1.63a5,5,0,0,0-3.32,1c-.75.75-.81,2.17-.81,3.32s.85,1.78,1.6,2.53A3.39,3.39,0,0,0,1149.6,258.61Z"/><path class="cls-4" d="M1075.73,200.75a4,4,0,0,0,3-.8,4.17,4.17,0,0,0,1-3,3.67,3.67,0,0,0-1.31-2.68c-.75-.75-1.53-2-2.67-2s-2.12,1-2.87,1.79a4.35,4.35,0,0,0-1.58,2.86,4.43,4.43,0,0,0,1.54,2.91A3.86,3.86,0,0,0,1075.73,200.75Z"/><path class="cls-2" d="M1857.74,72c-3.43.55-3.27,1.57-6.7,2.12s-3.48.24-6.9.79-3.67-.92-7.09-.37-3.41.66-6.84,1.21-3.45.44-6.88,1-3.27,1.55-6.7,2.09-3.54-.21-7,.33-3.45.45-6.88,1-3.37.91-6.8,1.46-3.48.2-6.91.74-3.33,1.15-6.76,1.7-3.36,1-6.79,1.56-3.41.66-6.84,1.2-3.49.13-6.92.68-3.38.85-6.81,1.39-3.31,1.33-6.74,1.87-3.56-.28-7,.26-3.5.11-6.92.66-3.27,1.55-6.7,2.09-3.66-.9-7.09-.35-3.22,1.82-6.65,2.36-3.48.22-6.91.77-3.3,1.35-6.73,1.89-3.62-.67-7-.12-3.4.7-6.83,1.24-3.46.38-6.89.93-3.35,1.06-6.77,1.6-3.54-.11-7,.44-3.2,2-6.63,2.49-3.47.31-6.9.86-3.42.62-6.84,1.16-3.67-.9-7.1-.35-3.38.84-6.81,1.39-3.45.4-6.88,1-3.53,0-7,.51-3.32,1.2-6.75,1.75-3.54-.11-7,.44-3.36,1-6.79,1.54-3.46.35-6.89.89-3.44.47-6.87,1-3.41.67-6.85,1.22-3.18,2.08-6.61,2.63-3.53-.08-7,.46l-6.87,1.09c-3.43.54-3.63-.73-7.06-.18s-3.4.75-6.83,1.29-3.34,1.15-6.78,1.69-3.52,0-7,.51"/><path class="cls-3" d="M967.89,356.11c1-3.31,0-3.62,1.05-6.93s1.32-3.22,2.34-6.54,2.43-2.88,3.45-6.19.9-3.35,1.92-6.66,1.12-3.28,2.14-6.59.05-3.62,1.07-6.93,1.76-3.09,2.78-6.4,1.11-3.28,2.13-6.6.67-3.42,1.69-6.73,1.35-3.21,2.37-6.53.44-3.49,1.46-6.8.56-3.46,1.58-6.77.92-3.35,1.93-6.66,1.43-3.19,2.45-6.5.72-3.41,1.74-6.72.27-3.54,1.29-6.86,1.83-3.06,2.85-6.38,1.44-3.18,2.46-6.49,0-3.61,1.07-6.92,2.41-2.88,3.43-6.2-.21-3.69.81-7,1.34-3.22,2.36-6.53.24-3.55,1.26-6.86,2.2-2.95,3.22-6.27.87-3.36,1.89-6.67,1.18-3.26,2.2-6.58.52-3.46,1.54-6.78,1.66-3.11,2.68-6.43-.34-3.73.68-7S1027,160.3,1028,157s1-3.34,2-6.65,2.42-2.88,3.44-6.2.73-3.4,1.75-6.72,1.16-3.27,2.18-6.58,1.59-3.15,2.61-6.46.38-3.51,1.4-6.83,1.65-3.12,2.67-6.43.59-3.45,1.61-6.76,1.21-3.25,2.23-6.57,1.1-3.29,2.12-6.61.9-3.35,1.92-6.67-.47-3.77.55-7.09,1.63-3.12,2.65-6.44,1-3.31,2.05-6.63,2.25-2.94,3.27-6.26.83-3.38,1.85-6.7"/><path class="cls-4" d="M1069.77,34.18a4.06,4.06,0,0,0,3-.81,4.13,4.13,0,0,0,1-3,3.65,3.65,0,0,0-1.31-2.68c-.75-.75-1.52-2-2.67-2s-2.11,1-2.86,1.78a4.37,4.37,0,0,0-1.58,2.87,4.4,4.4,0,0,0,1.53,2.9A3.86,3.86,0,0,0,1069.77,34.18Z"/><path class="cls-4" d="M1422.21,55a4.06,4.06,0,0,0,3-.81,4.13,4.13,0,0,0,1-3,3.65,3.65,0,0,0-1.31-2.68c-.75-.75-1.52-2-2.67-2s-2.11,1-2.86,1.78a4.37,4.37,0,0,0-1.58,2.87,4.4,4.4,0,0,0,1.53,2.9A3.86,3.86,0,0,0,1422.21,55Z"/><path class="cls-4" d="M1697.3,280.32a4.06,4.06,0,0,0,3-.81,4.14,4.14,0,0,0,1-3,3.65,3.65,0,0,0-1.31-2.67c-.75-.75-1.52-2-2.67-2s-2.11,1-2.86,1.78a3.45,3.45,0,0,0,0,5.77A3.86,3.86,0,0,0,1697.3,280.32Z"/><path class="cls-4" d="M4.44,649.34a4.06,4.06,0,0,0,3-.81,4.14,4.14,0,0,0,1-3,3.65,3.65,0,0,0-1.31-2.67c-.75-.75-1.53-2-2.68-2s-2.11,1-2.86,1.78A4.37,4.37,0,0,0,0,645.52a4.41,4.41,0,0,0,1.54,2.91A3.85,3.85,0,0,0,4.44,649.34Z"/><path class="cls-4" d="M550.34,200.53c1.15,0,2.62.52,3.37-.23a5.07,5.07,0,0,0,1-3.36,4.52,4.52,0,0,0-1.28-3.07,3.69,3.69,0,0,0-6.08.06c-.75.75-.74,1.86-.74,3s-.23,2.48.52,3.23S549.2,200.53,550.34,200.53Z"/><path class="cls-5" d="M612.44,254.55a3.86,3.86,0,0,0,2.85-1.12,4.29,4.29,0,0,0,1.55-2.84c0-1.15-.94-2-1.69-2.7a3.55,3.55,0,0,0-2.71-1.13c-1.14,0-2.58-.25-3.33.5s-.45,2.18-.45,3.33-.15,2.43.6,3.18S611.3,254.55,612.44,254.55Z"/><path class="cls-6" d="M612.44,254.55a3.86,3.86,0,0,0,2.85-1.12,4.29,4.29,0,0,0,1.55-2.84c0-1.15-.94-2-1.69-2.7a3.55,3.55,0,0,0-2.71-1.13c-1.14,0-2.58-.25-3.33.5s-.45,2.18-.45,3.33-.15,2.43.6,3.18S611.3,254.55,612.44,254.55Z"/></g></g></g></svg>