<svg xmlns="http://www.w3.org/2000/svg" viewBox="0 0 266.17 253.67"><defs><style>.cls-1{fill:#8e9b91;}.cls-2,.cls-3{fill:none;stroke-linecap:round;stroke-linejoin:round;stroke-width:3.61px;}.cls-2{stroke:#000;}.cls-3{stroke:#e6b49d;}</style></defs><g id="Layer_2" data-name="Layer 2"><g id="sect4"><g id="art"><path class="cls-1" d="M150.84,145.29a9.94,9.94,0,0,1-1.84-3.95c-.55-2.12-.31-2.18-.87-4.29s-.67-2.09-1.23-4.21-.8-2.05-1.36-4.16a29.52,29.52,0,0,0,5.18.61c1.45,0,3.06-.82,4.57-.89a17.64,17.64,0,0,0,4.39-.76c1.2-.38,2.71-.3,3.74-.93,1.78-1.09,1.14-3.42,3-3.07s.3,2,1.38,4.1a30.9,30.9,0,0,0,2.22,3.14c.67,1,.72,2.63,1.67,3.65s2.65.84,3.7,1.72,1.19,2.61,2.32,3.35a37.77,37.77,0,0,0,3.41,2c1.1.55,2.44.86,3.7,1.35,1.44.56,2.78,1.32,4.13,1.84s3.14.52,4.45,1c1.58.59,3.26.44,4.47.89a19.21,19.21,0,0,1,4.05,2c-2.1-.47-1.49-.6-4.18-1.08-1.19-.21-2.76.46-4.38.2-1.29-.2-2.58-1.32-4.12-1.52-1.34-.18-2.85.34-4.35.17s-2.83.2-4.3.07-2.77-.63-4.24-.74-2.82-.29-4.28-.36-2.8-1-4.26-1-2.86.69-4.31.69-2.87-.53-4.31-.5-2.84.58-4.28.66S152.28,145.18,150.84,145.29Z"/><path class="cls-1" d="M9,198.58c-2.06-.23-.06-.83-.06-3.5,0-1.17.52-2.56.52-4.15,0-1.26-.79-2.65-.79-4.15,0-1.3.43-2.69.43-4.15s.08-2.71.08-4.15.14-2.72.14-4.16S9,171.6,9,170.17,8.6,167.44,8.6,166s-.09-2.74-.09-4.15-.11-2.75-.11-4.15,0-2.75,0-4.15,1-2.75,1-4.15.19-2.75.19-4.15-.33-2.76-.33-4.15-.14-2.76-.14-4.16-.36-2.75-.36-4.15.3-2.76.3-4.15-.61-2.76-.61-4.15,1-2.77,1-4.15S9,117.6,9,116.22s.44-2.77.44-4.16-.84-2.77-.84-4.15-.1-2.78-.1-4.16V99.59c0-1.39.59-2.77.59-4.15s.35-2.78.35-4.16S8.5,88.5,8.5,87.13,8.25,84.35,8.25,83s.91-2.78.91-4.15.13-2.79.13-4.16.16-2.79.16-4.16.15-2.78.15-4.15-.21-2.79-.21-4.15-1.12-2.8-1.12-4.15.38-2.81.38-4.16.74-2.8.74-4.15-.46-2.82-.46-4.15S9,42.76,9,41.44s-.49-2.85-.49-4.15c0-1.5,0-2.89,0-4.16,0-1.57.16-3,.16-4.14,0-2,.16-3.39.16-4.15,0-1.44-.6-2.88-.59-4.28s.35-2.91.43-4.29,1.16-2.79,1.4-4.12a14.22,14.22,0,0,1,1.3-3.87,7.68,7.68,0,0,1,2.49-3,8.82,8.82,0,0,1,3.54-1.9c1.22-.3,2.53-1.2,4.14-1.2.85,0,2.27.17,4.19.17,1.2,0,2.6-.28,4.18-.28,1.28,0,2.67,1,4.18,1,1.31,0,2.71-1.23,4.18-1.23S41,3,42.48,3s2.74-.42,4.19-.42,2.75,0,4.18,0,2.75-.2,4.18-.2,2.76,0,4.18,0S62,2,63.39,2s2.77.59,4.18.59,2.77.45,4.18.45,2.78-1.19,4.18-1.19,2.78.92,4.19.92S82.9,3,84.3,3s2.78-.95,4.18-.95,2.79.79,4.19.79S95.45,2,96.85,2s2.79.71,4.19.71,2.78-.6,4.18-.6,2.79,0,4.18,0,2.79-.17,4.19-.17,2.79.7,4.19.7,2.8,0,4.19,0,2.8.33,4.19.33,2.79-.6,4.19-.6,2.79.6,4.18.6,2.8-.19,4.19-.19,2.8-.23,4.19-.23,2.8.21,4.19.21,2.8.31,4.19.31,2.81-.67,4.19-.67,2.81-.23,4.18-.23,2.81-.09,4.19-.09,2.81-.17,4.18-.17,2.82.38,4.19.38,2.82.17,4.19.17,2.82.62,4.18.62,2.84-1.26,4.18-1.26H189c1.47,0,2.87.34,4.18.34,1.51,0,2.91-.33,4.19-.33,1.58,0,3,.57,4.17.57,2,0,3.41.34,4.18.34a20.29,20.29,0,0,1,4.08.16c1.51.33,2.39,1.45,3.42,2.1,1.25.8,2.94,1,3.62,2.05s.7,2.79,1,4.06a21.49,21.49,0,0,1,.69,4,29.06,29.06,0,0,1,.43,4.15c0,1.18-.34,2.58-.34,4.16,0,1.27-.55,2.66-.55,4.15,0,1.31.88,2.7.88,4.15s-.84,2.72-.84,4.16.09,2.73.09,4.15.4,2.74.4,4.15-.41,2.75-.41,4.15.42,2.76.42,4.16-.07,2.76-.07,4.16-.76,2.77-.76,4.15.33,2.78.33,4.16.24,2.78.24,4.16-.08,2.79-.08,4.16-.19,2.8-.19,4.16-.37,2.8-.37,4.16.32,2.81.32,4.16.37,2.83.37,4.16.66,2.85.66,4.16c0,1.49-.11,2.88-.11,4.15,0,1.59-.09,3-.09,4.16,0,2.64,1.54,3.35-.53,3.44s-1-.54-2.16-2.51c-.58-1-1.37-2-2.16-3.18s-.59-2.91-1.48-3.84-2.72-.88-3.78-1.48-2.2-1.63-3.48-1.43a7.24,7.24,0,0,0-3.41,2.23c-1.83-.55-1.53-1.3-3-2.48s-1.62-1-3.13-2.2-1.41-1.31-2.92-2.48-1-1.8-2.54-3-3.7,0-3.31-1.84c.63-3,3.47-.58,5-3a8.28,8.28,0,0,0,1.23-4.31,30.06,30.06,0,0,0-.17-4.53c-.18-1.39-1.09-2.76-1.46-4.3a44.28,44.28,0,0,0-.9-4.41,44.6,44.6,0,0,0-1.84-4.1c-.62-1.31-.74-2.8-1.35-4s-2.18-2-2.85-3.13c-.78-1.26-1.51-2.39-2.26-3.41a33,33,0,0,0-2.57-3.18c-1.09-1.16-1.59-2.74-2.55-3.4-1.47-1-3.11-.59-4.13-.59A5.6,5.6,0,0,0,169,42.91c-1.56,1.64-.17,3.42-2.32,4.09-2,.63-.83-1.58-2.26-3.76-.65-1-.8-2.67-1.83-3.89a39.58,39.58,0,0,0-3-3.05c-1-.89-2.46-1.32-3.65-2.2s-1.87-2.14-3.12-2.89-2.91-.36-4.23-1-2.17-1.85-3.54-2.35-2.83-.08-4.23-.46-2.54-1-4-1.28-2.63-.91-4.07-1.09-2.73-.43-4.17-.52-2.77.26-4.21.26-2.72.44-4,.45-2.73-.56-4-.53-2.73.24-4,.29-2.73,0-4,.08-2.66.89-4,1-2.77-.2-4,0-2.63.85-3.9,1.08-2.71.25-4,.55-2.57.83-3.81,1.23S86,29.49,84.74,30s-2.79.46-4,1.09-2.26,1.53-3.38,2.27-2,1.79-3.08,2.64-1.6,2.18-2.62,3.1-2.31,1.38-3.29,2.36-2.4,1.65-3.3,2.66-1,2.86-1.81,3.94-2.14,1.9-2.87,3.07a39.62,39.62,0,0,0-1.75,3.8,37.43,37.43,0,0,0-1.43,3.89,40.31,40.31,0,0,0-1,4c-.32,1.32-1.06,2.56-1.28,4s-1,2.65-1.09,4.1.59,2.78.54,4.23-.33,2.73-.33,4.18-.23,2.77-.24,4.24.2,2.79.18,4.24-.51,2.79-.54,4.23.63,2.82.6,4.24.13,2.83.1,4.25.09,2.84.06,4.24-.55,2.84-.58,4.23.38,2.87.35,4.25-.28,2.87-.3,4.23-.21,2.91-.22,4.23c0,1.56-.91,3-.91,4.23,0,1.45.71,2.84.79,4.19s-.48,2.93-.33,4.25c.18,1.47.43,2.89.66,4.18.27,1.49,1.23,2.73,1.54,4,.38,1.56,1.08,2.81,1.44,3.93.81,2.53,2.25,2.17.74,3.61s-1.43-.11-4.16.14c-1.31.12-2.68,1-4.31,1.5a25,25,0,0,0-4,1.84c-1.27.63-3.19.38-4.48,1.35-1.07.82-1.48,2.52-2.54,3.5s-2.2,1.66-3.19,2.7-2.56,1.44-3.49,2.52-1.37,2.5-2.25,3.61-2.21,1.84-3,3-1.21,2.6-2,3.74-1.36,2.48-2.13,3.63-2.17,2-2.9,3.14-1.47,2.44-2.18,3.6-1.51,2.45-2.18,3.6-.54,3-1.17,4.17c-.78,1.39-2.37,2.12-2.93,3.17C9.15,197.56,11.11,198.81,9,198.58Z"/><path class="cls-2" d="M205.68,212c-2.11,0-2.11.27-4.22.27s-2.11-.61-4.22-.61-2.11.56-4.22.56-2.11-.28-4.23-.28-2.11.48-4.22.48-2.11-.88-4.22-.88-2.11.36-4.22.36-2.12,0-4.23,0-2.11.38-4.22.38-2.11-.85-4.22-.85-2.12.69-4.23.69-2.11-.13-4.22-.13-2.11-.07-4.23-.07-2.11.28-4.22.28-2.11-.91-4.22-.91-2.11,1.18-4.22,1.18-2.11-.24-4.23-.24-2.11-.71-4.22-.71-2.11.26-4.22.26-2.12-.2-4.23-.2-2.11.47-4.23.47-2.11.29-4.22.29-2.12-.92-4.23-.92-2.11,1-4.22,1-2.12-.6-4.23-.6-2.12-.7-4.23-.7-2.12.43-4.23.43-2.12-.07-4.24-.07"/><path class="cls-2" d="M205.68,2.94a19.13,19.13,0,0,1,4,.35,11.49,11.49,0,0,1,3.83,1.16,9,9,0,0,1,3.21,2.6,12.51,12.51,0,0,1,1.36,4,20.75,20.75,0,0,1,.39,4.12c0,2.09.5,2.09.5,4.18s-.11,2.09-.11,4.19,0,2.09,0,4.18-1.06,2.09-1.06,4.19,0,2.09,0,4.18.32,2.09.32,4.18.67,2.1.67,4.19-1.13,2.09-1.13,4.19.93,2.09.93,4.18-.25,2.09-.25,4.19-.21,2.09-.21,4.18.76,2.09.76,4.18-.95,2.09-.95,4.19,0,2.09,0,4.18,0,2.09,0,4.19-.2,2.09-.2,4.18,1.11,2.1,1.11,4.19-1.18,2.1-1.18,4.19.8,2.09.8,4.19-.26,2.09-.26,4.18-.57,2.1-.57,4.19.68,2.1.68,4.19-.21,2.1-.21,4.2-.48,2.1-.48,4.19"/><path class="cls-2" d="M70.3,2.3c2.1,0,2.1.63,4.19.63s2.1-.2,4.2-.2,2.09,0,4.19,0,2.09-.44,4.19-.44,2.1.21,4.19.21,2.1.12,4.2.12,2.09-.19,4.19-.19,2.1.75,4.19.75,2.1-.42,4.2-.42,2.09.16,4.19.16,2.1-.46,4.19-.46,2.1-.35,4.2-.35,2.1.48,4.19.48,2.1.13,4.2.13,2.09.19,4.19.19,2.1-.35,4.19-.35,2.1-.21,4.2-.21,2.09.15,4.19.15,2.1.29,4.19.29,2.1-.54,4.2-.54,2.09.4,4.19.4,2.1-.67,4.2-.67,2.1.81,4.2.81,2.09-.11,4.19-.11,2.1.4,4.2.4,2.1-1.23,4.2-1.23,2.1.65,4.2.65,2.1.73,4.2.73,2.1-1.35,4.2-1.35"/><path class="cls-2" d="M9.48,59.42c0-2,0-2,0-4s-.54-2-.54-4,.18-2,.18-4-.93-2-.93-4,.6-2,.6-4-.29-2-.29-4-.07-2-.07-4,.56-2,.56-4,.62-2,.62-4-1.06-2-1.06-4,.08-2,.08-4c0-1.5,1-2.75,1.23-4,.3-1.47-.1-3.05.57-4.13s2.14-1.72,3.33-2.45a11.45,11.45,0,0,1,3.77-1.22,19,19,0,0,1,4-.57c2,0,2,.35,4,.35h4c2,0,2-1.13,4-1.13s2,.07,4,.07,2,.2,4,.2,2-.07,4-.07,2,.8,4,.8"/><path class="cls-2" d="M8.24,199.22c0-2.1.34-2.1.34-4.2s-.15-2.11-.15-4.21,0-2.11,0-4.21.06-2.11.06-4.21,0-2.11,0-4.21-.07-2.11-.07-4.21-.14-2.11-.14-4.21.59-2.11.59-4.21.65-2.11.65-4.21-1.25-2.11-1.25-4.21,0-2.11,0-4.21.88-2.11.88-4.21-.85-2.11-.85-4.21.75-2.11.75-4.21-.76-2.1-.76-4.21.42-2.1.42-4.21.6-2.1.6-4.21S9,125.56,9,123.45s-.17-2.11-.17-4.21,0-2.11,0-4.21-.39-2.11-.39-4.22,1-2.1,1-4.21,0-2.11,0-4.21,0-2.11,0-4.22-.91-2.1-.91-4.21-.13-2.11-.13-4.22.76-2.11.76-4.22"/><path class="cls-2" d="M145.88,128.39c-.35.8-.55,1.67-.92,2.46s-.77,1.57-1.17,2.35-.44,1.76-.86,2.53-1.24,1.31-1.69,2.06-.69,1.63-1.17,2.37-.72,1.64-1.22,2.36-1.6,1-2.13,1.7-.89,1.52-1.45,2.2-1.38,1.11-2,1.77-.84,1.6-1.45,2.23-1.56.89-2.2,1.5-1.23,1.22-1.9,1.8-.93,1.6-1.62,2.15-1.3,1.19-2,1.72-1.86.39-2.59.89-1.3,1.18-2,1.65-1.4,1.07-2.17,1.5-1.58.74-2.37,1.15-1.49.92-2.29,1.3-1.58.75-2.39,1.1-1.53.88-2.36,1.21-1.86,0-2.7.28-1.51,1-2.35,1.26-1.69.48-2.54.72-1.61.81-2.44,1-1.77.16-2.6.31-1.76.16-2.6.25-1.76-.11-2.6-.08-1.76.6-2.6.56-1.71-.66-2.55-.78a23,23,0,0,1-2.55-.4,28.33,28.33,0,0,1-5-1.4,24.65,24.65,0,0,1-2.28-1.33A24.93,24.93,0,0,1,73.11,165c-.65-.56-1.46-1-2.06-1.63s-.61-1.75-1.15-2.44-1.16-1.25-1.64-2-.94-1.41-1.37-2.19-.87-1.47-1.24-2.27-.52-1.63-.85-2.45-1-1.45-1.3-2.29.06-1.81-.18-2.65-.93-1.52-1.14-2.38-.44-1.66-.62-2.52-.24-1.7-.4-2.56-.19-1.71-.32-2.58-.47-1.66-.58-2.53-.42-1.69-.51-2.56.26-1.75.19-2.62.3-1.74.25-2.61-.32-1.7-.36-2.57-.31-1.72-.33-2.59.48-1.72.47-2.6-.24-1.71-.23-2.59,0-1.71,0-2.59-.4-1.73-.37-2.6.13-1.73.16-2.6,0-1.73,0-2.6.17-1.72.23-2.59.25-1.71.32-2.58-.07-1.78,0-2.64.84-1.7.91-2.55-.65-1.83-.58-2.69.66-1.72.74-2.57,0-1.79,0-2.64.53-1.72.62-2.57.13-1.77.23-2.61.22-1.76.33-2.6,0-1.79.13-2.63.28-1.76.4-2.59.63-1.7.77-2.53,0-1.81.18-2.63.57-1.7.76-2.51.48-1.72.7-2.52.43-1.73.69-2.52.56-1.68.87-2.45.09-1.94.46-2.68,1.58-1.15,2-1.84.49-1.83,1-2.48a22.63,22.63,0,0,1,1.71-2c.64-.59,1.33-1.16,2-1.7s1.8-.46,2.53-1,1.2-1.27,1.94-1.79,1.64-1,2.38-1.54c-.36-1.21-1.11-.84-1.87-1.85s-.86-.94-1.62-1.95-.49-1.21-1.25-2.23-.77-1-1.53-2-.41-1.28-1.16-2.29-1-.81-1.81-1.83"/><path class="cls-2" d="M83.05,97.29c.1-1.19.4-1.4-.48-2.46a5.45,5.45,0,0,0-2.23-1.2A8.78,8.78,0,0,0,78,93.11c-.77,0-1.68-.26-2.69-.3-.85,0-1.77.41-2.72.39s-1.79.24-2.71.22-1.8-.3-2.7-.31-1.83.3-2.72.29-1.84-.16-2.7-.17-1.89-.15-2.71-.16c-1.1,0-2,.06-2.7.05a5.9,5.9,0,0,0-2.73.51,4.26,4.26,0,0,0-2.12,1.83,9.06,9.06,0,0,0-.9,2.75,25.45,25.45,0,0,0,.12,2.9c0,.87-.26,1.7-.28,2.51s-.42,1.69-.44,2.5.11,1.71.08,2.52.49,1.72.46,2.52-.44,1.69-.47,2.5-.13,1.7-.15,2.5a8.36,8.36,0,0,0,.21,2.61c.29.91,1.17,1.28,1.82,1.78s1.16,1.37,2.06,1.58a15.55,15.55,0,0,0,2.6.41c.82,0,1.71-.1,2.6-.12s1.64-.26,2.57-.27,1.68.09,2.57.08,1.7-.6,2.57-.61,1.74.61,2.59.6,1.75-.36,2.57-.37,1.8.53,2.59.52c1,0,1.9-.45,2.55-.48a10.35,10.35,0,0,0,2.18-.63,6.41,6.41,0,0,0,2-.9A4.26,4.26,0,0,0,83,119a4.75,4.75,0,0,0,.61-2.16"/><path class="cls-2" d="M144.85,97.27a6.31,6.31,0,0,1,1.59-1.8,17.24,17.24,0,0,1,2-1.33,14.85,14.85,0,0,1,2.19-1,13.76,13.76,0,0,1,2.3-.67c.77-.16,1.5-.94,2.37-1a17.25,17.25,0,0,1,2.45.54,16.51,16.51,0,0,1,2.53,0c.75.21,1.3,1.17,2.09,1.5a14.86,14.86,0,0,1,2.26,1.12,13.68,13.68,0,0,1,2.06,1.48A12.71,12.71,0,0,1,168.46,98a14.41,14.41,0,0,1,1.37,2.17,15.82,15.82,0,0,1,1.2,2.31,18.42,18.42,0,0,1,.45,2.57,20.16,20.16,0,0,1,.12,2.59,22.28,22.28,0,0,1-.06,2.58c-.07.85.07,1.76-.08,2.6s-.49,1.68-.73,2.5a24.13,24.13,0,0,1-.95,2.41,22.83,22.83,0,0,1-1.08,2.35,20.33,20.33,0,0,1-1.39,2.19,20,20,0,0,1-1.46,2.17,16.68,16.68,0,0,1-2.13,1.54,12.86,12.86,0,0,1-2.22,1.32c-.86.42-1.57,1.07-2.34,1.38s-2,0-2.77.2-1.69,1-2.49,1.1a18.08,18.08,0,0,1-2.71.41c-1.06,0-1.86-.82-2.57-1-1.65-.45-2.9-.91-2.9-.91"/><path class="cls-2" d="M90.42,24.77c.57,1.19-.11,1,.67,2.6.32.65,1.33,1.13,1.79,2,.35.71.54,1.59,1,2.45s.34,1.71.77,2.55,1.39,1.2,1.81,2,.6,1.61,1,2.43.4,1.72.82,2.53,1.35,1.23,1.77,2,.93,1.46,1.35,2.26.32,1.78.73,2.58,1.25,1.3,1.67,2.09.54,1.67,1,2.46.6,1.64,1,2.43,1.33,1.25,1.75,2,.38,1.76.8,2.55.74,1.57,1.16,2.36.7,1.6,1.12,2.38,1.1,1.39,1.52,2.17.79,1.56,1.21,2.34.52,1.8,1,2.53,1.39,1.22,1.93,1.91,1.37,1.15,2,1.78.74,1.81,1.4,2.38,1.87.51,2.59,1,1.15,1.49,1.92,1.92,1.81.35,2.62.7,1.62.63,2.46.9a26,26,0,0,0,2.48,1,24.44,24.44,0,0,0,2.61.68,24.85,24.85,0,0,0,2.67-.46,20.78,20.78,0,0,0,2.62-.28,19.6,19.6,0,0,0,5.13-1.23"/><path d="M75.37,37.28c-1.11-.72-1.08,0-2.54.77-.66.36-1.17,1.25-2,1.8-.68.43-1.43.89-2.19,1.46s-1.43,1-2.13,1.56-1.45,1-2.1,1.65-1.12,1.34-1.72,2S61.53,47.87,61,48.6,59.85,50,59.35,50.71s-.34,1.85-.72,2.68-1.19,1.46-1.46,2.33-.22,1.81-.4,2.7-.06,1.8-.17,2.7-.22,1.78-.27,2.68-.11,1.81-.11,2.69-.66,1.87-.62,2.74,0,1.9.13,2.74c.09,1,.92,1.84,1,2.61.24,1.66-1.2,3,.16,3,1.6-.06,1.55-.66,3.05-1.23s1.29-1.15,2.79-1.72a3.78,3.78,0,0,0,.63-2.09c.06-.73-.24-1.62-.11-2.56.1-.79.47-1.59.63-2.47s.25-1.65.44-2.49.67-1.56.92-2.37-.16-1.87.16-2.64a18,18,0,0,1,1.5-2.1,13,13,0,0,1,1.22-2.29c.62-.66,1.22-1.41,1.9-2.07s1.62-1,2.3-1.66,1.7-.94,2.38-1.54,1.38-1.33,2-1.9,1.08-1.8,1.71-2.32C79.8,45,81,46,80.71,44.64c-.22-1.12-.42-1-1.1-2s-.82-.81-1.5-1.73-.92-.79-1.51-1.77S76.33,37.91,75.37,37.28Z"/><path class="cls-2" d="M75.37,37.28c-1.11-.72-1.08,0-2.54.77-.66.36-1.17,1.25-2,1.8-.68.43-1.43.89-2.19,1.46s-1.43,1-2.13,1.56-1.45,1-2.1,1.65-1.12,1.34-1.72,2S61.53,47.87,61,48.6,59.85,50,59.35,50.71s-.34,1.85-.72,2.68-1.19,1.46-1.46,2.33-.22,1.81-.4,2.7-.06,1.8-.17,2.7-.22,1.78-.27,2.68-.11,1.81-.11,2.69-.66,1.87-.62,2.74,0,1.9.13,2.74c.09,1,.92,1.84,1,2.61.24,1.66-1.2,3,.16,3,1.6-.06,1.55-.66,3.05-1.23s1.29-1.15,2.79-1.72a3.78,3.78,0,0,0,.63-2.09c.06-.73-.24-1.62-.11-2.56.1-.79.47-1.59.63-2.47s.25-1.65.44-2.49.67-1.56.92-2.37-.16-1.87.16-2.64a18,18,0,0,1,1.5-2.1,13,13,0,0,1,1.22-2.29c.62-.66,1.22-1.41,1.9-2.07s1.62-1,2.3-1.66,1.7-.94,2.38-1.54,1.38-1.33,2-1.9,1.08-1.8,1.71-2.32C79.8,45,81,46,80.71,44.64c-.22-1.12-.42-1-1.1-2s-.82-.81-1.5-1.73-.92-.79-1.51-1.77S76.33,37.91,75.37,37.28Z"/><path class="cls-2" d="M121.05,81.26c-1.18.54-1.18-.24-2.68.22a24,24,0,0,1-2.42.84c-.8.16-1.64.3-2.54.39a21.66,21.66,0,0,1-2.56.05,18.72,18.72,0,0,1-2.6.11,16.4,16.4,0,0,1-2.56-.53c-.8-.27-1.37-1.1-2.14-1.52a13.22,13.22,0,0,1-2.19-1.29,14.32,14.32,0,0,1-2-1.6,16.61,16.61,0,0,1-1.74-2,21.91,21.91,0,0,1-1.39-2.24"/><path class="cls-2" d="M87.2,109.1c-.6,1.1-.39.89-1.13,2.24-.34.64-.87,1.32-1.32,2.15s-.59,1.54-1,2.32-1.08,1.3-1.49,2-.63,1.58-1,2.32-.63,1.59-1,2.32-1.25,1.27-1.64,2-.76,1.6-1.13,2.26c-.51.9-.49,1.9-.81,2.43-.52.87-1.29,1.54-1.37,2.31a4.89,4.89,0,0,0,.81,2.57,9.52,9.52,0,0,0,1.87,1.8,22.3,22.3,0,0,0,2,1.54c.65.48,1.31,1,2.09,1.54"/><path class="cls-2" d="M67.76,163.5c1-.84.72-1.15,1.71-2s1.1-.7,2.09-1.54,1.14-.65,2.13-1.49.85-1,1.84-1.83.94-.9,1.92-1.74,1.11-.7,2.1-1.54l2-1.67c1-.83,1-.86,2-1.7s.82-1,1.8-1.88,1.19-.6,2.18-1.44.65-1.24,1.63-2.08,1.29-.49,2.28-1.33.83-1,2-1.51c0,.82-.37,1.37-.44,2.23s.43,1.73.34,2.58-.84,1.6-.94,2.45,0,1.7-.11,2.54-.49,1.63-.61,2.47.35,1.77.21,2.6-.89,1.58-1,2.4.44,1.82.29,2.63-1.17,1.53-1.32,2.33-.13,1.74-.29,2.52,0,1.79-.19,2.55c-.2.94-.66,1.71-.81,2.41-.34,1.56.32,1.37,0,2.6"/><path class="cls-2" d="M148.59,118.47c.84-.93,1.42-.42,2.26-1.35s.55-1.19,1.39-2.13.6-1.15,1.45-2.09,1.35-.47,2.19-1.4.49-1.25,1.33-2.19,1-.82,1.81-1.75.67-1.09,1.51-2,1.1-.71,1.94-1.64.82-1,1.66-1.9.88-.9,1.72-1.83,1-.8,1.84-1.74.63-1.13,1.48-2.07.52-1.22,1.37-2.16"/><path class="cls-2" d="M104.15,31.31c.82,0,1.66-.17,2.52-.19s1.66-.52,2.52-.54,1.69.72,2.54.71,1.67,0,2.52,0,1.67-.13,2.52-.13,1.69-.59,2.53-.58,1.67.66,2.51.69,1.7-.21,2.54-.16,1.67.22,2.51.29,1.65.34,2.49.43,1.73-.22,2.56-.09,1.65.4,2.47.56,1.58.66,2.39.86,1.76-.06,2.57.18,1.62.5,2.41.78,1.59.59,2.37.93,1.51.77,2.25,1.16,1.34,1.07,2,1.47,1.66.54,2.34,1,1.23,1.21,1.88,1.68,1.56.76,2.18,1.27,1,1.48,1.55,2,1.27,1.12,1.81,1.7,1,1.36,1.5,2,1.46,1.07,1.89,1.71.94,1.49,1.29,2.15c.46.85.31,1.82.57,2.47.58,1.49-.12,2.59,1,2.11s1.08-.81,2.13-1.73,1.08-.88,2.13-1.8l2.1-1.85c1.05-.92,1.2-.75,2.25-1.67"/><path class="cls-2" d="M170.79,94.43a11.41,11.41,0,0,0,1.75-2c.48-.61.79-1.48,1.3-2.3a17.86,17.86,0,0,0,1.08-2.37A13.34,13.34,0,0,0,176,85.4a10.36,10.36,0,0,0,.63-2.61,9.43,9.43,0,0,0-.45-2.7,11.67,11.67,0,0,0-1.67-2.29c1.18-.61,1.42.31,2.74.16s1.26-.7,2.59-.86,1.31-.21,2.64-.37,1.3-.36,2.62-.52"/><path class="cls-2" d="M168.61,63.56c1.17-.77,1.22-.7,2.39-1.48s1.08-.9,2.26-1.68.9-1.18,2.07-2,1.56-.19,2.73-1,.79-1.36,2-2.14"/><path class="cls-2" d="M171.48,71.87c1.14-.55,1.15-.52,2.29-1.06s.83-1.18,2-1.72,1.17-.47,2.3-1,1.38,0,2.52-.58.82-1.2,2-1.74,1.16-.51,2.3-1.06"/><path class="cls-2" d="M125.71,54c1,.89.8,1.1,1.8,2s1.26.59,2.26,1.48.86,1,1.86,1.92.87,1,1.86,1.92,1.42.42,2.42,1.31.65,1.28,1.64,2.17"/><path d="M117.11,161.89c-.15,1.22.17,1.13.36,2.34s0,1.24.24,2.46,0,1.24.22,2.45.64,1.14.84,2.36-.54,1.33-.35,2.55,0,1.37.58,2.45,1-.11,2.53-.64c.65-.23,1.3-.82,2.15-1.24.67-.34,1.66-.27,2.42-.76s1.2-1.1,1.89-1.64,1.39-.88,2-1.48.93-1.36,1.51-2,.82-1.41,1.35-2.09,1.21-1.11,1.69-1.82,1.13-1.22,1.56-2,.77-1.67,1.14-2.48.34-1.82.65-2.66.74-1.66,1-2.51.56-1.74.75-2.6.12-1.84.25-2.7.56-1.79.64-2.64.12-1.88.15-2.71c0-1,.42-1.94.41-2.71,0-1.68.82-2.37-.42-2.91s-.43,1.05-1.31,2.46c-.38.6-1,1.24-1.55,2-.45.62-.56,1.62-1.16,2.34s-1.12,1.23-1.73,1.91-1.26,1.1-1.89,1.74-1.39,1-2,1.57-1.11,1.26-1.78,1.84-1.47.84-2.15,1.4-1.09,1.33-1.78,1.87-1.55.74-2.26,1.25-1.45.85-2.17,1.34-1.1,1.39-1.83,1.87S117.85,161.44,117.11,161.89Z"/><path class="cls-2" d="M117.11,161.89c-.15,1.22.17,1.13.36,2.34s0,1.24.24,2.46,0,1.24.22,2.45.64,1.14.84,2.36-.54,1.33-.35,2.55,0,1.37.58,2.45,1-.11,2.53-.64c.65-.23,1.3-.82,2.15-1.24.67-.34,1.66-.27,2.42-.76s1.2-1.1,1.89-1.64,1.39-.88,2-1.48.93-1.36,1.51-2,.82-1.41,1.35-2.09,1.21-1.11,1.69-1.82,1.13-1.22,1.56-2,.77-1.67,1.14-2.48.34-1.82.65-2.66.74-1.66,1-2.51.56-1.74.75-2.6.12-1.84.25-2.7.56-1.79.64-2.64.12-1.88.15-2.71c0-1,.42-1.94.41-2.71,0-1.68.82-2.37-.42-2.91s-.43,1.05-1.31,2.46c-.38.6-1,1.24-1.55,2-.45.62-.56,1.62-1.16,2.34s-1.12,1.23-1.73,1.91-1.26,1.1-1.89,1.74-1.39,1-2,1.57-1.11,1.26-1.78,1.84-1.47.84-2.15,1.4-1.09,1.33-1.78,1.87-1.55.74-2.26,1.25-1.45.85-2.17,1.34-1.1,1.39-1.83,1.87S117.85,161.44,117.11,161.89Z"/><path class="cls-2" d="M138.69,77.19c0,1.23.09,1.24.05,2.47s-.28,1.23-.32,2.46,0,1.23-.09,2.47.5,1.25.46,2.49.25,1.24.21,2.48-.66,1.21-.7,2.45-.24,1.23-.29,2.47.75,1.26.71,2.5"/><path class="cls-2" d="M118.91,112.13c-1-.73-1.43-.14-2.42-.87s-.65-1.21-1.65-1.93-.85-.93-1.84-1.66-1.34-.27-2.34-1-.94-.81-1.94-1.54-1.12-.56-2.11-1.29-.86-.93-1.86-1.66-1-.77-2-1.51"/><path class="cls-2" d="M58.6,111.1c1.08-.6,1.33-.15,2.41-.75s.93-.86,2-1.46,1-.7,2.1-1.3,1.34-.14,2.42-.74.9-.93,2-1.53,1.3-.21,2.38-.81,1-.8,2.06-1.4.88-1,2-1.57"/><path class="cls-3" d="M105.6,118.34c-.39,1.28-.09,1.37-.48,2.64s-1.17,1-1.55,2.32.22,1.46-.16,2.74-.63,1.2-1,2.48-.09,1.37-.47,2.65-.76,1.17-1.15,2.45"/><path class="cls-3" d="M109.47,133.63c.39-1.28.65-1.2,1-2.47s.13-1.36.52-2.64.47-1.25.85-2.53l.78-2.55c.38-1.28.18-1.34.57-2.62s.65-1.2,1-2.48"/><path class="cls-3" d="M121.06,118.21c-.39,1.28.33,1.49-.06,2.77s-.8,1.15-1.19,2.43-.26,1.31-.65,2.59-.92,1.11-1.3,2.39,0,1.39-.43,2.67-.5,1.24-.88,2.52"/><path class="cls-2" d="M130.22,116.7a4.65,4.65,0,0,1-1.15,2.46,7.93,7.93,0,0,1-2.38,1.27,12.81,12.81,0,0,1-2.41,1.18,14.9,14.9,0,0,1-2.66.65c-.57,0-1.47-.43-2.56-.4-.75,0-1.6.45-2.53.47s-1.66-.53-2.55-.51-1.67.3-2.53.31-1.71-.27-2.56-.26-1.71,0-2.54,0-1.73.12-2.55.14-1.75.56-2.53.58c-1,0-1.86-.55-2.55-.53a15.41,15.41,0,0,1-2.44.24,5.61,5.61,0,0,1-2.26-.94,4,4,0,0,1-1.57-1.9A7.55,7.55,0,0,1,92,117a15.08,15.08,0,0,1,.19-2.48c.15-.92.81-1.73,1-2.62s.25-1.78.4-2.71-.11-1.82,0-2.78.22-1.75.37-2.72.32-1.74.47-2.71A13.32,13.32,0,0,1,95,98.35,9.71,9.71,0,0,1,96.38,96a8.41,8.41,0,0,1,2.08-1.77,8.88,8.88,0,0,1,2.55-.79,10.3,10.3,0,0,1,2.6-.64c.84,0,1.71-.16,2.59-.15s1.72,0,2.6,0,1.72.28,2.59.29,1.74-.17,2.6-.16,1.74-.1,2.59-.09,1.76,0,2.6,0,1.77.4,2.59.39,1.8.16,2.59.14a23.79,23.79,0,0,1,2.69-.26,10.2,10.2,0,0,1,2.54.91,5.7,5.7,0,0,1,2.15,1.5,5.15,5.15,0,0,1,1.43,2.3,8.19,8.19,0,0,1-.08,2.73c-.16,1-.32,1.91-.45,2.73-.17,1-.21,1.93-.36,2.76s-.85,1.75-1,2.63.17,1.83,0,2.81c-.14.82-.6,1.66-.77,2.67C130.37,114.76,130.38,115.69,130.22,116.7Z"/><path class="cls-2" d="M87.68,212.22c-1.7,1.26-1.24.54-3.59,2.23-.94.67-2.47.92-3.83,1.89-1,.72-1.85,2-3.12,2.87-1.06.74-1.83,2.08-3.07,2.95-1.08.75-3,.44-4.23,1.3s-2,2-3.18,2.8l-3.45,2.41c-1.11.77-2.46,1.28-3.66,2.11s-2,1.93-3.22,2.76-1.94,2.06-3.13,2.88-2.83.77-4,1.59-2.16,1.75-3.35,2.56-2.13,1.82-3.31,2.63-2,2-3.21,2.8-3,.68-4.15,1.33a35.23,35.23,0,0,1-3.74,1.87c-1.38.55-2.54,1.53-3.85,1.83a24.57,24.57,0,0,1-4.21.78,21.2,21.2,0,0,1-4.31-.11,19.58,19.58,0,0,1-4.17-1.15c-1.33-.52-2.1-2.06-3.25-2.84s-3-.8-4-1.82-1-2.79-1.81-4-2.15-2.07-2.67-3.39a23.38,23.38,0,0,1-.8-4.21,24.59,24.59,0,0,1-.51-4.2A23.22,23.22,0,0,1,2,225.86a22.34,22.34,0,0,1,1-4.15c.48-1.31,1.76-2.24,2.5-3.47s.56-3,1.31-4.21,2.55-1.77,3.31-3,1.26-2.55,2-3.79,1.54-2.38,2.3-3.62,1.38-2.48,2.14-3.72,1.24-2.57,2-3.8,1.38-2.49,2.14-3.72S22.2,190,23,188.74s.95-2.76,1.7-4,2.11-2.05,2.86-3.28,1.68-2.32,2.43-3.55,1-2.72,1.78-3.95,2.06-2.08,2.84-3.2,1.17-2.68,2-3.74a41.84,41.84,0,0,1,2.51-3.5,30,30,0,0,1,3.24-2.87c1.15-.82,2.89-.71,4.17-1.32s2.35-1.67,3.75-2.05,2.8-.06,4.27-.23a33.6,33.6,0,0,1,4.2-.49"/><path class="cls-2" d="M40.68,204.09l-3.21-2.85c-1.6-1.43-1.37-1.69-3-3.12s-2-.94-3.63-2.37-1.41-1.65-3-3.08-1.94-1-3.54-2.48-.95-2.16-2.55-3.59-2.23-.73-3.83-2.17-1-2.11-2.6-3.54"/><path class="cls-2" d="M17.18,218.58c2-.53,1.93-.79,3.94-1.32s2.19.17,4.19-.35,2.08-.26,4.08-.78,1.94-.78,3.94-1.31,2.11-.15,4.11-.68,1.88-1,3.89-1.53,1.9-.9,3.91-1.42,2.2.22,4.21-.31,2-.57,4-1.09,1.82-1.25,3.82-1.78,1.94-.81,3.94-1.33,2.31.63,4.32.1,2-.56,4-1.08,1.8-1.31,3.81-1.84,2.07-.32,4.08-.85,2-.7,4-1.23c1.49-.39,2.86-1.05,4.2-1.31,1.53-.3,3.08.07,4.44-.06a32.78,32.78,0,0,1,4.38-.49c1.54.08,2.89,1,4.22,1.32a17.52,17.52,0,0,1,4.16,1.28,19.38,19.38,0,0,1,3.9,2.16,27.45,27.45,0,0,1,3,3.3c.87,1.07,1.61,2.38,2.46,3.66"/><path d="M14.94,181c-1.56,1.14.85,2,1.25,3.93s-.07,2,.33,3.89-.15,2,.24,3.91-.41,4.11,1.52,4c2.34-.14.7-2.65,1.92-4.65s3.75-1.36,3.66-3.7c-.06-1.8-1.6-1.67-2.95-2.87s-1.9-.56-2.9-2.06C16.79,181.6,16.4,179.9,14.94,181Z"/><path class="cls-2" d="M14.94,181c-1.56,1.14.85,2,1.25,3.93s-.07,2,.33,3.89-.15,2,.24,3.91-.41,4.11,1.52,4c2.34-.14.7-2.65,1.92-4.65s3.75-1.36,3.66-3.7c-.06-1.8-1.6-1.67-2.95-2.87s-1.9-.56-2.9-2.06C16.79,181.6,16.4,179.9,14.94,181Z"/><path class="cls-2" d="M183.58,89.15a17.16,17.16,0,0,1,3.62,1.76,33.57,33.57,0,0,1,3.59,1.89A38.94,38.94,0,0,1,194,95.33a36.18,36.18,0,0,1,2.7,3c.89,1,2.39,1.53,3.18,2.66s.84,2.75,1.62,3.82,1.67,2.2,2.45,3.24,2,2,2.79,3c.92,1.2,1.67,2.35,2.38,3.26,1.55,2,1.48,1.41,2.73,3s1.22,1.64,2.48,3.25,1.42,1.47,2.68,3.08,1,1.8,2.25,3.41,1.53,1.39,2.79,3,.64,2.09,1.9,3.69,1.24,1.62,2.5,3.22,2,1,3.28,2.62.73,2,2,3.62.95,1.85,2.21,3.45,1.23,1.63,2.49,3.24,2.07,1,3.33,2.57.71,2,2,3.64,1.9,1.11,3.16,2.72.27,2.37,1.53,4,1.33,1.55,2.59,3.16,1.73,1.23,3,2.84,1.25,1.61,2.52,3.22,1.33,1.55,2.59,3.16,1.48,1.43,2.77,3c.91,1.05,1,2.63,1.65,3.74s2,2.06,2.42,3.28-.3,2.81-.13,4.11a18.28,18.28,0,0,1,.3,3.88c-.12,1.34.56,2.85.17,4.11a19.89,19.89,0,0,1-1.89,3.63c-.65,1.17-2,1.81-2.88,2.82s-1.05,2.8-2.13,3.6-2.82.47-4,1a17.43,17.43,0,0,1-3.66,1.36c-1.27.27-2.52,1.18-3.9,1.18s-2.75-1.11-4.2-1.09-2.76.11-4.19.14-2.76,1.1-4.17,1.14-2.8-.23-4.2-.19-2.83-.42-4.21-.37-2.81.5-4.18.55-2.88-.56-4.21-.51c-1.49.06-2.85,1.29-4.14,1.35-1.58.07-3-1-4.24-.93l-4.19.21"/><path class="cls-2" d="M191.23,104.63a41.67,41.67,0,0,0-3.94,2.28c-1.14.69-1.91,2.32-3.27,3.26-1.2.82-3,1-4.18,2a44.61,44.61,0,0,0-3.35,3.08c-1.18,1.17-2.52,2.18-3.09,3.37-.7,1.45.2,3.17.22,4.55a9.34,9.34,0,0,0,.74,4.14,12.64,12.64,0,0,0,2.21,3.78,26.59,26.59,0,0,0,3.64,2.64c1.28.83,2.83,1.27,4,1.94,2.22,1.22,1.78,1.39,3.81,2.34"/><path class="cls-2" d="M182.82,127.29c1,1.6,1.1,1.1,2.45,2.91.67.92,1.32,2,2.19,3.1s1.49,2,2.36,3a28,28,0,0,0,2.91,2.39c1.13.94,1.9,1.9,2.91,2.24,1.66.56,2.89,1.94,4.17,2.27,2.79.73,3.52-1.77,5.09-.07,1.38,1.51,1.11,1.89,2,3.72s.15,2.21,1.07,4,.72,1.93,1.64,3.76.68,1.94,1.6,3.77,1.46,1.55,2.38,3.38.67,1.95,1.59,3.77.78,1.9,1.7,3.73,2,1.28,2.92,3.1-.3,2.45.62,4.27,2.06,1.25,3,3.08.73,1.93,1.66,3.75.86,1.86,1.78,3.69"/><path class="cls-2" d="M184.58,106.21c2.31.61,1.88,1.1,4.32,2.25a23.82,23.82,0,0,1,4,2.58"/><path class="cls-2" d="M178.29,111.05a16.94,16.94,0,0,1,4.61,1.58c1.33.62,2.21,2.38,3.54,3.39"/><path class="cls-2" d="M214,120.75c-.52-1.94.08-1.73-.53-4-.32-1.15-.82-2.44-1.2-3.83s-1.58-2.36-1.92-3.65.25-3-.06-4.14c-.48-1.81-1.94-2.49-2.78-3.2-1.85-1.55-1.71-2.28-3.8-1.81"/><path class="cls-2" d="M183.45,199.11c1.3-1.66,1-1.91,2.29-3.56s1.89-1.2,3.2-2.85.7-2.13,2-3.79,1.91-1.19,3.22-2.84.82-2,2.12-3.7,2.06-1.06,3.36-2.72.8-2.06,2.1-3.72,1.09-1.82,2.39-3.48,1.28-1.68,2.59-3.35,2.49-1,3.19-3-1.32-1.34-3.15-3.26c-.86-.9-2.25-1.49-3.47-2.55-1-.87-1.35-2.8-2.6-3.68a43.37,43.37,0,0,0-3.85-2.07,40.83,40.83,0,0,0-4.09-1.47,34.91,34.91,0,0,0-4-1.82c-1.35-.36-2.91.1-4.38-.09a31.21,31.21,0,0,0-4.25-.13c-1.35,0-2.66-1.24-3.91-1.24s-2.66.48-3.9.48-2.68-.4-3.91-.4c-1.39,0-2.69.25-3.9.25-1.43,0-2.73.54-3.9.54-1.53,0-2.82,0-3.9,0-2.61,0-2-.23-3.89-.23"/><path class="cls-2" d="M103.39,182a9.57,9.57,0,0,0,1.59,2.14,19.78,19.78,0,0,0,1.82,2,20,20,0,0,0,2.16,1.64,17.49,17.49,0,0,0,2.48,1.08c.81.35,1.51,1.18,2.42,1.39s1.84-.22,2.78-.2a12.87,12.87,0,0,0,2.71,0,15.5,15.5,0,0,0,2.67-.62,17.63,17.63,0,0,0,2.57-1,23.56,23.56,0,0,0,2.29-1.54c.69-.49,1-1.58,1.7-2.21s1.46-1,2.13-1.67,1.29-1.27,1.91-1.9,1.07-1.49,1.69-2.12,1.6-1,2.22-1.6,1.45-1.12,2.07-1.75,1.25-1.32,1.87-2,.8-1.76,1.42-2.39,1.48-1.09,2.1-1.72,1.69-.9,2.3-1.52.69-1.88,1.3-2.5,1.26-1.32,1.87-1.94,1.52-1.08,2.12-1.69,1.61-1,2.21-1.61,1.26-1.35,1.85-2,1.25-1.38,1.83-2,1.17-1.5,1.73-2.07c.74-.76,1-1.73,1.53-2.26,1.27-1.3,1.47-.45,2.4-1.41"/><path class="cls-2" d="M80.1,26.17c.64,1.22.66,1.21,1.31,2.43s.11,1.5.75,2.72,1,1.07,1.59,2.29.49,1.3,1.13,2.52.84,1.12,1.49,2.35.8,1.14,1.45,2.36"/></g></g></g></svg>