<svg xmlns="http://www.w3.org/2000/svg" viewBox="0 0 956.67 245.65"><defs><style>.cls-1{fill:#677d70;}.cls-2{font-size:35.07px;font-family:PTSerif-Regular, PT Serif;}.cls-2,.cls-7{fill:#fff;}.cls-3{letter-spacing:-0.04em;}.cls-4{letter-spacing:-0.01em;}.cls-5{letter-spacing:-0.01em;}.cls-6{letter-spacing:-0.04em;}.cls-8{fill:#8e9b91;}.cls-9{fill:none;stroke:#000;stroke-linecap:round;stroke-linejoin:round;stroke-width:3.61px;}</style></defs><g id="Layer_2" data-name="Layer 2"><g id="sect5"><g id="art"><path class="cls-1" d="M670.26,183.72c-1.06-1.81-.59-2-.59-4.1s1-2.1,1-4.2-.65-2.1-.65-4.19-.27-2.1-.27-4.2,0-2.1,0-4.2.68-2.1.68-4.2-.42-2.1-.42-4.2-.54-2.1-.54-4.19,1.31-2.11,1.31-4.21-.29-2.1-.29-4.19-.44-2.1-.44-4.2.45-2.1.45-4.2-.76-2.1-.76-4.2-.16-2.1-.16-4.2,1.24-2.1,1.24-4.2-.48-2.1-.48-4.2.41-2.1.41-4.2-.25-2.1-.25-4.2-.54-2.1-.54-4.2,0-2.1,0-4.2.23-2.1.23-4.2.45-2.1.45-4.2-.18-2.1-.18-4.21,0-2.1,0-4.2-.2-2.09-.2-4.19-.11-2.1-.11-4.2-.17-2.1-.17-4.2.06-2.1.06-4.2.53-2.1.53-4.2-.16-2.11-.16-4.21-.92-2.1-.92-4.2,1-2.1,1-4.2-.86-2.11-.86-4.21.86-2.1.86-4.2-.83-2.1-.83-4.2.21-2.11.21-4.21-.21-2.11-.21-4.21-.15-2.11-.15-4.21c0-1.33,1-2.74.67-4s-1.25-2.38-1.81-3.53-1.74-1.9-2.54-2.9-1.27-2.3-2.28-3.11a17.76,17.76,0,0,0-3.21-2.21,17.44,17.44,0,0,0-3.61-1.61c-1.24-.29-2.64.41-4,.41-2.07,0-2.07.33-4.15.33s-2.07-.17-4.14-.17-2.07-.17-4.15-.17-2.07.28-4.14.28-2.07-.39-4.14-.39-2.08-1-4.15-1-2.07,1.22-4.14,1.22-2.07.12-4.14.12-2.07-.85-4.15-.85-2.07-.23-4.14-.23-2.07-.27-4.14-.27-2.07.6-4.14.6-2.08-.27-4.15-.27-2.07-.16-4.14-.16-2.07,1.21-4.15,1.21-2.07-1.37-4.14-1.37-2.07,1.27-4.15,1.27-2.07-.21-4.14-.21-2.08-.06-4.15-.06-2.08-.46-4.15-.46-2.08.63-4.15.63-2.07-1-4.15-1-2.07.33-4.14.33S555.37,7,553.3,7s-2.07-.44-4.15-.44-2.07,0-4.14,0-2.07,1-4.14,1-2.08-.92-4.15-.92-2.07.11-4.14.11-2.08-.51-4.15-.51-2.07,1.25-4.14,1.25-2.07-.28-4.15-.28-2.07-.45-4.14-.45-2.07.11-4.15.11-2.07.4-4.14.4-2.08-.34-4.15-.34-2.08-.26-4.15-.26-2.07.35-4.15.35-2.07,0-4.15,0S489,6.81,487,6.81s-2.07,0-4.14,0-2.08.25-4.15.25-2.07-.09-4.15-.09-2.07-.3-4.14-.3-2.07.8-4.15.8-2.07-.9-4.14-.9-2.07.06-4.15.06S455.87,7,453.8,7s-2.08-.11-4.15-.11-2.07.28-4.15.28-2.07-.06-4.14-.06-2.08.21-4.15.21S435.13,7,433.06,7s-2.08.35-4.15.35-2.08-.79-4.15-.79-2.07,0-4.15,0-2.07,1-4.15,1-2.07-.67-4.14-.67-2.07-.39-4.15-.39-2.07,0-4.14,0-2.08,1-4.15,1-2.08-.71-4.15-.71-2.07.82-4.15.82-2.07-1.26-4.15-1.26-2.07.09-4.15.09-2.07.59-4.15.59H375c-2.08,0-2.08.08-4.15.08s-2.08.32-4.15.32-2.07-.88-4.15-.88-2.07.79-4.14.79-2.08-1.07-4.15-1.07-2.08.22-4.15.22-2.08,1-4.15,1-2.08-.32-4.15-.32-2.08-.75-4.15-.75-2.07,1.21-4.15,1.21-2.07-1.19-4.15-1.19-2.07.16-4.14.16-2.08.77-4.15.77S319,6.16,316.91,6.16s-2.08.07-4.15.07-2.08,1-4.15,1S306.53,7,304.46,7s-2.08-.51-4.15-.51-2.07.4-4.15.4-2.07-.68-4.15-.68-2.07,1.17-4.15,1.17-2.07-1.12-4.15-1.12h-4.15c-2.07,0-2.07,1.35-4.15,1.35s-2.07-.5-4.15-.5-2.07-.76-4.14-.76S265,7.39,263,7.39s-2.08-.95-4.15-.95-2.08-.12-4.15-.12-2.08,1.1-4.15,1.1-2.08,0-4.15,0-2.08-.92-4.15-.92-2.08.14-4.15.14-2.08.87-4.15.87-2.08-.88-4.15-.88-2.08.57-4.15.57-2.08-.48-4.15-.48-2.08-.56-4.15-.56-2.08.38-4.16.38-2.07.94-4.14.94-2.08-1.3-4.15-1.3-2.07,0-4.15,0-2.07.39-4.14.39-2.07.65-4.15.65-2.07-1-4.14-1-2.08,1-4.16,1-2.07.27-4.15.27-2.07-.72-4.14-.72-2.08-.27-4.15-.27-2.07.26-4.15.26-2.07-.37-4.15-.37-2.07.49-4.15.49-2.07.39-4.15.39-2.07-.77-4.15-.77-2.07,0-4.15,0-2.07.75-4.15.75-2.07.29-4.15.29-2.08-1.18-4.15-1.18-2.08,0-4.15,0-2.08.81-4.15.81S124,7,121.89,7s-2.08.18-4.15.18-2.08.34-4.16.34-2.07-.59-4.15-.59-2.07.37-4.15.37-2.08-.68-4.15-.68S99.05,7,97,7s-2.07.52-4.15.52-2.07-.1-4.15-.1-2.08-.18-4.15-.18-2.08.34-4.16.34-2.07-.39-4.15-.39-2.08-.54-4.15-.54-2.08.59-4.15.59H63.76c-2.08,0-2.08-.94-4.16-.94s-2.07.65-4.15.65H51.3c-2.08,0-2.08-.34-4.16-.34s-2.08.65-4.15.65-2.08-.3-4.16-.3-2.08.51-4.16.51-2.07-1-4.15-1-2.08.93-4.16.93S24.28,6.5,22.2,6.5,20.12,7,18,7c-1.33,0-2.71-.38-3.95-.1S11.88,8.45,10.72,9a17,17,0,0,0-3.38,1.78c-1,.81-2.45,1.27-3.26,2.28S3,15.5,2.43,16.68s-.36,2.52-.65,3.8S0,22.86,0,24.19c0,2.06.48,2.06.48,4.12s0,2.06,0,4.11S.15,34.48.15,36.54s.44,2.06.44,4.12.59,2.06.59,4.12-1,2.06-1,4.12S.44,51,.44,53s.3,2.06.3,4.12.51,2.06.51,4.12-1,2.06-1,4.12.1,2.06.1,4.12.58,2.06.58,4.12.16,2.06.16,4.12.1,2.06.1,4.12,0,2.06,0,4.12-1,2.06-1,4.12,1.22,2.06,1.22,4.13-1,2.06-1,4.12.84,2.06.84,4.12-.45,2.06-.45,4.12,0,2.06,0,4.12.15,2.06.15,4.13S1,116.9,1,119,.21,121,.21,123.08s1.06,2.06,1.06,4.12S0,129.26,0,131.32s.26,2.06.26,4.12S.2,137.5.2,139.56s.12,2.07.12,4.13.29,2.06.29,4.12.12,2.06.12,4.12,0,2.07,0,4.13.63,2.06.63,4.12S.6,162.25.6,164.31s-.23,2.06-.23,4.12.54,2.07.54,4.13-.66,2.06-.66,4.13.59,2.06.59,4.13.48,2.06.48,4.13a16.11,16.11,0,0,0,.52,3.7c.29,1.28-.22,2.78.34,3.94s1.78,1.93,2.59,2.94,1.31,2.34,2.32,3.15a18.36,18.36,0,0,0,3.44,1.86,17.59,17.59,0,0,0,3.71,1.06c1.24.29,2.47,1,3.8,1,2.07,0,2.07-.54,4.15-.54s2.08.73,4.15.73,2.08-1,4.15-1,2.08.51,4.15.51,2.08.27,4.16.27,2.07.27,4.15.27S45,203,47.1,203s2.07-.73,4.15-.73,2.07-.17,4.15-.17,2.07-.48,4.15-.48,2.07,1,4.15,1,2.08-.42,4.15-.42S69.93,202,72,202s2.08.57,4.16.57,2.07-.47,4.15-.47,2.08-.43,4.15-.43,2.08.78,4.16.78,2.08-.64,4.15-.64,2.08.89,4.16.89,2.08-.42,4.16-.42,2.08.49,4.15.49,2.08,0,4.16,0,2.07-.14,4.15-.14,2.08-.86,4.15-.86,2.08.93,4.16.93,2.07-.64,4.15-.64,2.08.1,4.15.1,2.08-.19,4.15-.19,2.08-.16,4.16-.16,2.07-.07,4.15-.07,2.07.84,4.15.84,2.08-.06,4.15-.06,2.08-.65,4.16-.65,2.07-.08,4.15-.08,2.08.1,4.16.1,2.08-.17,4.15-.17,2.08.15,4.16.15,2.08.19,4.16.19,2.08.52,4.15.52,2.08-.51,4.16-.51,2.08-.26,4.15-.26,2.08-.08,4.16-.08,2.07.41,4.15.41,2.08-.32,4.15-.32,2.08-.19,4.16-.19,2.07-.08,4.15-.08,2.08.64,4.15.64,2.08.26,4.16.26,2.08-.61,4.15-.61,2.08.45,4.16.45,2.08,0,4.16,0,2.08-.5,4.15-.5,2.08.1,4.16.1h4.16c2.07,0,2.07-.19,4.15-.19s2.08.87,4.16.87,2.07-.76,4.15-.76,2.08.52,4.16.52,2.07-.32,4.15-.32,2.08-.24,4.15-.24,2.08,1,4.16,1,2.08-.69,4.16-.69,2.07.46,4.15.46,2.08-.39,4.16-.39,2.08,0,4.16,0,2.08-.56,4.16-.56,2.07.29,4.15.29,2.08.95,4.16.95,2.07-.72,4.15-.72,2.08.12,4.16.12,2.07.45,4.15.45,2.08-1.2,4.16-1.2,2.08.69,4.16.69,2.08-.2,4.15-.2,2.08.89,4.16.89,2.08-.58,4.16-.58,2.08.19,4.15.19,2.08.07,4.16.07h4.16c2.07,0,2.07-.43,4.15-.43s2.08.44,4.16.44,2.08-.43,4.16-.43,2.08.14,4.16.14H367c2.08,0,2.08-.34,4.16-.34s2.08.44,4.16.44,2.07-.78,4.15-.78,2.08.44,4.16.44,2.08-.07,4.16-.07,2.08-.5,4.16-.5,2.08,1.32,4.15,1.32,2.08-1,4.16-1,2.08.41,4.16.41,2.08-.5,4.15-.5,2.08.62,4.16.62,2.08-.7,4.16-.7,2.08.51,4.16.51,2.08-.37,4.16-.37,2.08.82,4.15.82,2.08-.49,4.16-.49,2.08-.18,4.16-.18,2.08.84,4.16.84,2.08-.61,4.16-.61,2.08.71,4.15.71,2.08-.36,4.16-.36,2.08-.67,4.16-.67,2.08.5,4.16.5,2.07.43,4.15.43,2.08-1.18,4.15-1.18,2.08,1,4.16,1,2.07.39,4.15.39,2.08-.92,4.16-.92,2.08.16,4.16.16,2.08-.33,4.15-.33,2.08.39,4.16.39,2.08.08,4.15.08,2.08,0,4.16,0,2.08.42,4.16.42,2.08-.2,4.16-.2,2.08.37,4.16.37h4.15c2.08,0,2.08-.87,4.16-.87s2.08-.47,4.16-.47,2.08,1,4.16,1,2.08.32,4.16.32,2.08-1.26,4.16-1.26,2.08.56,4.16.56,2.08-.41,4.16-.41,2.07,0,4.15,0,2.09.25,4.17.25,2.08.26,4.15.26,2.09-.72,4.17-.72,2.08,1.19,4.16,1.19,2.08-.28,4.16-.28,2.08-.09,4.16-.09,2.08-.48,4.16-.48,2.08.89,4.16.89,2.08-.39,4.16-.39,2.08.34,4.16.34,2.08-.51,4.16-.51,2.08-.48,4.16-.48,2.08.51,4.16.51,2.08.46,4.16.46,2.08-.19,4.16-.19,2.08-.68,4.16-.68,2.09.26,4.17.26,2.08.15,4.16.15,2.08-.38,4.16-.38,2.09.49,4.17.49,2.08-.06,4.16-.06,2.09.57,4.17.57,2.09-.23,4.17-.23c1.48,0,1.48-.43,2.95-.43,2.09,0,2.09.2,4.18.2s2.09-.83,4.18-.83,2.09.11,4.19.11,2.09.29,4.18.29,2.09.49,4.19.49,2.09-.26,4.18-.26,2.1.51,4.19.51,2.09-.56,4.18-.56,2.1.54,4.19.54,2.09.25,4.19.25,2.1-.87,4.19-.87,3.6,2.17,4.13.15-2.11-.4-3.93-1.42-1.64-1.38-3.46-2.4-1.55-1.53-3.38-2.55-1.7-1.26-3.52-2.29-2-.8-3.78-1.83-1.68-1.28-3.51-2.31-1.81-1.05-3.64-2.08-2.13-.45-4.08-1.21S671.32,185.53,670.26,183.72Z"/><text class="cls-2" transform="translate(100 63.07)">It was to be the start of a fun<tspan x="0" y="51.44">engagement</tspan><tspan class="cls-3" x="192.48" y="51.44">,</tspan><tspan x="201" y="51.44" xml:space="preserve"> n</tspan><tspan class="cls-4" x="230.35" y="51.44">o</tspan><tspan x="249.36" y="51.44">t kn</tspan><tspan class="cls-5" x="309.83" y="51.44">o</tspan><tspan x="328.8" y="51.44">wing what</tspan><tspan x="0" y="102.88">was gonna happen this 2020</tspan><tspan class="cls-6" x="440.33" y="102.88">.</tspan></text><path class="cls-7" d="M741.41,6.86H916.1a17.33,17.33,0,0,1,17.33,17.33V198.88a17.33,17.33,0,0,1-17.33,17.33H741.41a17.32,17.32,0,0,1-17.32-17.32V24.19A17.33,17.33,0,0,1,741.41,6.86Z"/><path class="cls-8" d="M723.56,120.69c.35-1.64,1.48,1.13,2.3,3,.39.89.51,2.09,1,3.21.46,1,.9,2,1.45,3s.48,2.32,1.06,3.29,2.25,1.24,2.89,2.16a30,30,0,0,0,2.05,2.59,20,20,0,0,0,2.32,2.29c1.1.92,1.46,2.47,2.31,3.21,1.17,1,2.49,1.42,3.25,2.1,2.1,1.87,2.48.91,2.65,2.82s-.2,1.44-1.07,3.52c-.4,1-.61,2.22-1.14,3.48-.44,1.05-1.41,2-1.91,3.15s-.92,2.21-1.42,3.36-.68,2.34-1.17,3.47-1.15,2.17-1.64,3.27-1.25,2.14-1.74,3.23-1.08,2.24-1.58,3.29-.79,2.44-1.29,3.43-1.79,1.6-2.25,2.52-.29,2.38-.75,3.28c-.55,1.06-1.39,1.85-1.85,2.71-.59,1.13-1.26,2-1.69,2.8-1,1.9-.4,4.46-.75,2.87s-.12-1.6-.12-3.31-1-1.72-1-3.43.37-1.72.37-3.44,0-1.71,0-3.43-.44-1.71-.44-3.43.7-1.72.7-3.43.4-1.72.4-3.43-.06-1.72-.06-3.43-1-1.72-1-3.43.45-1.72.45-3.43.9-1.72.9-3.44-1.28-1.71-1.28-3.43,0-1.72,0-3.43.51-1.72.51-3.44.71-1.72.71-3.43-.08-1.72-.08-3.44-.11-1.71-.11-3.43-.31-1.72-.31-3.44-.74-1.71-.74-3.43,1.42-1.83,1.14-3.53S723.21,122.38,723.56,120.69Z"/><path class="cls-9" d="M723.4,202.05c0-2.07.38-2.07.38-4.15s.74-2.08.74-4.16-.46-2.08-.46-4.16.09-2.07.09-4.15-.49-2.08-.49-4.16,0-2.08,0-4.16.16-2.07.16-4.15.16-2.08.16-4.16-.58-2.07-.58-4.15.33-2.08.33-4.16,1-2.08,1-4.15.08-2.08.08-4.16,0-2.08,0-4.16-.29-2.08-.29-4.16-.77-2.08-.77-4.16.17-2.08.17-4.16-.28-2.08-.28-4.16,1-2.08,1-4.16-1.22-2.08-1.22-4.17,1.13-2.08,1.13-4.16"/><path class="cls-7" d="M938.36,175.34s7,14.92,14.67,33.69-6.1,42.51-34.17,29.36c-34.12-16-48-22.18-48-22.18"/><path class="cls-8" d="M933.09,148.41c0-2.07-.37-2.07-.37-4.14s.67-2.08.67-4.15.68-2.07.68-4.14-.37-2.07-.37-4.15-.4-2.07-.4-4.14.82-2.07.82-4.15-.38-2.07-.38-4.14,0-2.07,0-4.14-.7-2.08-.7-4.15.11-2.07.11-4.15-.15-2.07-.15-4.14.11-2.08.11-4.15.21-2.07.21-4.14-.32-2.08-.32-4.15,1.13-2.07,1.13-4.15-1.3-2.07-1.3-4.14.8-2.08.8-4.15-.33-2.07-.33-4.14.57-2.08.57-4.15-.11-2.07-.11-4.14,0-2.08,0-4.15-.35-2.07-.35-4.15,0-2.07,0-4.14S934,51,934,48.92s-.5-2.08-.5-4.15.35-2.08.35-4.15.12-2.08.12-4.15-.09-2.07-.09-4.15,0-2.08,0-4.15-1.1-2.08-1.1-4.16,1.35-2.07,1.35-4.15c0-1.5-1.17-2.79-1.42-4A10.55,10.55,0,0,0,931,12.3a7.42,7.42,0,0,0-2.65-2.66c-1.08-.67-1.91-2.2-3.37-2.5-1.23-.25-2.69.17-4.19.17-2.29,0-2.28-.49-4.56-.55s-2.31.59-4.6.53-2.29.12-4.58.09c-2.1,0-2.09-.51-4.19-.51s-2.1,0-4.21,0-2.1-.7-4.2-.7-2.11.58-4.21.58-2.1.67-4.2.67S884,6.25,881.85,6.25s-2.1.2-4.21.2-2.1.31-4.2.31-2.1.17-4.21.17-2.1.51-4.2.51-2.11-.85-4.21-.85-2.1.32-4.21.32-2.1-.07-4.21-.07-2.1.23-4.2.23-2.11-.14-4.21-.14-2.1.44-4.21.44-2.1-.9-4.21-.9-2.1.58-4.2.58-2.11.26-4.21.26-2.1-.55-4.2-.55-2.11.72-4.21.72-2.1,0-4.21,0-2.1-.3-4.21-.3-2.1-.35-4.2-.35-2.11-.56-4.21-.56-2.11,1-4.21,1-2.11.27-4.22.27-2.1-.34-4.2-.34-2.11.15-4.21.15-2.11,0-4.22,0-2.11-.06-4.21-.06-2.11,0-4.22,0-2,.07-4,.07-2,.14-4,.14-2-.59-4-.59-2-.65-4-.65-2,1.25-4,1.25-2,0-4,0-2-.88-4-.88-2,.85-4,.85-2-.75-4-.75c-1.5,0-2.75.88-4,1.13a11.67,11.67,0,0,0-3.86,1c-1.19.74-2.61,1.33-3.34,2.52a12.84,12.84,0,0,0-1.1,4.05,20.41,20.41,0,0,0-.21,4.09c0,2.08,0,2.08,0,4.17s.39,2.08.39,4.16-1,2.08-1,4.16,0,2.09,0,4.17,0,2.08,0,4.16.91,2.09.91,4.17.13,2.08.13,4.16-.76,2.08-.76,4.16.59,2.08.59,4.16-.13,2.09-.13,4.17.28,2.08.28,4.16-1.2,2.09-1.2,4.17.69,2.08.69,4.17-.52,2.08-.52,4.16.73,2.09.73,4.17-.81,2.08-.81,4.17,0,2.08,0,4.16.54,2.09.54,4.17-.18,2.09-.18,4.18.25,2,.9,4,.12-1.34,1.77-3.11a21.09,21.09,0,0,1,2.94-3,17.42,17.42,0,0,1,3.65-2.14c1.23-.5,2.75-.33,4.19-.46,1.71-.15,3.13.34,4.21.24,4.15-.37,3.55,1,3.73-1.1a28.61,28.61,0,0,1,.66-4c.2-1.15,1.32-2.31,1.68-3.8.29-1.22-.29-2.78.13-4.16s1.4-2.34,1.88-3.66,1.14-2.4,1.71-3.66.94-2.51,1.6-3.71,1.61-2.14,2.37-3.28a38.55,38.55,0,0,1,2.39-3.2c.91-1.11,1-2.91,2-3.9s2.14-1.92,3.23-2.81,2.38-1.6,3.55-2.4,2.34-1.61,3.57-2.32,2.84-.65,4.12-1.27,2.19-2,3.5-2.54,2.93-.25,4.27-.75,2.47-1.44,3.82-1.89,2.62-1.06,4-1.48,2.71-.81,4.07-1.21,2.89-.17,4.26-.56,2.62-1,4-1.32,2.69-.75,4.06-1.08,2.64-1.08,4-1.37,2.79-.35,4.18-.59,2.79-.34,4.18-.52,2.79-.51,4.18-.61,2.83.58,4.22.57,2.81-.38,4.19-.27a40,40,0,0,1,4.13.68,37.77,37.77,0,0,1,4.19.51,32.68,32.68,0,0,1,4.1,1.16A29.48,29.48,0,0,1,847,42c1.11.71,2.18,1.62,3.35,2.5s2.06,1.82,3.17,2.74,2.34,1.51,3.41,2.45,2.23,1.7,3.26,2.66,1.93,2,2.93,3,1.8,2.17,2.78,3.16,2.35,1.65,3.3,2.66,1.65,2.34,2.56,3.35,2.42,1.69,3.29,2.7,1.27,2.73,2.1,3.73c1,1.21,2,2.25,2.67,3.22a13.13,13.13,0,0,1,1.87,3.64c.35.89,1.59,2.08,1.46,3.64-.09,1.16-.93,2.41-1.19,3.72s-1.23,2.34-1.54,3.56.61,2.94.29,4c-.63,2.16-1.92,1.51-1.4,3.35.59,2.12.59,1.61,1.95,3.8.69,1.11,1.9,2.17,2.47,3.67.49,1.3.23,2.86.42,4.38s.84,2.84.6,4.36c-.21,1.27-1.24,2.42-1.74,3.81s-.12,2.91-.73,4.19-2,2.09-2.69,3.29-1.38,2.46-2.08,3.58c-.8,1.3-1.34,2.63-2,3.63-1.4,2.08-3,1.51-2,3.33s1.23-.39,3.89-.72c1.19-.15,2.62-.3,4.23-.4,1.29-.08,2.71-.64,4.24-.65,1.33,0,2.77.12,4.26.19s2.79.11,4.26.26,2.63,1.35,4.08,1.57,2.71.49,4.14.78,2.78.28,4.17.65,2.89.09,4.27.53,2.27,2,3.62,2.47,3,.18,4.26.76,2.45,1.4,3.72,2.06,2.38,1.49,3.62,2.22,2.81.81,4,1.6,2.33,2.19,3.49,3c.69-1.95,0-2.19,0-4.26s0-2.08,0-4.15.2-2.07.2-4.14-1.11-2.07-1.11-4.15,1.18-2.07,1.18-4.14-.8-2.07-.8-4.15.26-2.07.26-4.14.57-2.07.57-4.14-.68-2.08-.68-4.15.21-2.07.21-4.15.47-2.07.47-4.14-.26-2.08-.26-4.15-.64-2.07-.64-4.14.44-2.08.44-4.15,0-2.07,0-4.15.29-2.07.29-4.14-1-2.08-1-4.15,0-2.07,0-4.14.22-2.08.22-4.15-.27-2.07-.27-4.14.61-2.08.61-4.15-.56-2.07-.56-4.15.28-2.07.28-4.14-.48-2.08-.48-4.15.88-2.08.88-4.15-.36-2.08-.36-4.15-.05-2.08-.05-4.15-.38-2.07-.38-4.15.85-2.08.85-4.15-.69-2.08-.69-4.16.13-2.07.13-4.15a20.53,20.53,0,0,0-.3-4.06,10.69,10.69,0,0,0-1.67-3.62C930.5,11,930.16,9.4,929,8.67s-2.74-.06-4.21-.36a17.88,17.88,0,0,0-4-.61"/><path class="cls-9" d="M759.87,113c.68,1.52-.44,1.64.37,3.49.4.89,1,1.88,1.47,3,.42,1,2.13,1.46,2.59,2.52s1.17,1.94,1.61,3-.68,2.76-.27,3.76,1.47,1.92,1.85,2.86c.52,1.31,1.35,2.25,1.59,3a10.17,10.17,0,0,1,.08,3.68,25.73,25.73,0,0,1-.2,3.7c-.26,1.26-.55,2.51-.85,3.61a14.22,14.22,0,0,0-.32,3.56c-.08,1.16-1.66,2.21-1.74,3.35s.81,2.4.72,3.54-.27,2.31-.37,3.45.61,2.39.51,3.53-.69,2.28-.8,3.42-.5,2.29-.61,3.43-.84,2.26-1,3.4,1,2.46.9,3.59-1.47,2.19-1.59,3.32-.08,2.35-.21,3.47.14,2.37,0,3.49.29,2.41.15,3.52-.29,2.34-.44,3.45-.85,2.27-1,3.37.21,2.42,0,3.51-1.94,2.12-2.11,3.19c-.19,1.25.05,2.45-.12,3.49-.21,1.32-.27,2.48-.43,3.44a29.19,29.19,0,0,0-.41,3.43"/><path class="cls-9" d="M870.87,216.48c-2.11,0-2.11-.89-4.21-.89s-2.1.65-4.2.65-2.1.48-4.21.48-2.1.06-4.2.06-2.1-.46-4.2-.46-2.1-.11-4.2-.11-2.1-.65-4.21-.65-2.1.83-4.2.83-2.1.49-4.2.49-2.1-.3-4.21-.3-2.1-.57-4.2-.57-2.1-.1-4.21-.1-2.1-.25-4.2-.25-2.11.29-4.21.29-2.1-.24-4.21-.24-2.1.29-4.2.29-2.11,0-4.21,0-2.11.69-4.21.69S793.07,216,791,216"/><path class="cls-9" d="M816.83,7.26c2,0,2,.28,4.1.28S823,6.8,825,6.8s2.05-.44,4.1-.44,2,.43,4.1.43,2-.51,4.1-.51,2,.23,4.1.23,2.05.21,4.1.21,2.05-.13,4.1-.13l4.1,0c2,0,2,.35,4.1.35s2,.09,4.1.09,2.05-.57,4.1-.57,2.05.36,4.1.36,2,.6,4.11.6,2-.23,4.1-.23,2-.86,4.1-.86,2.06.62,4.11.62,2.05.12,4.1.12,2.05.14,4.1.14,2.06-.83,4.11-.83,2.06,1,4.11,1,2.06.13,4.11.13"/><path class="cls-9" d="M724.24,92.68c0-2-.71-2-.71-4.06s.3-2,.3-4.07-.26-2-.26-4.06,1.15-2,1.15-4.07-.22-2-.22-4.06.07-2,.07-4.06-.26-2-.26-4.07.16-2,.16-4.06.12-2,.12-4.07,0-2,0-4.06-1.09-2-1.09-4.07.68-2,.68-4.07-.78-2-.78-4.07,1.17-2,1.17-4.06-.1-2-.1-4.07-.18-2-.18-4.07-.12-2-.12-4.07-.14-2-.14-4.08a23.9,23.9,0,0,1-.08-4.19,12.13,12.13,0,0,1,1.68-3.88,9.19,9.19,0,0,1,3.07-2.84,11.86,11.86,0,0,1,3.87-1.47,19.56,19.56,0,0,1,4.11-.81c2,0,2,.2,4.1.2s2.05.15,4.09.15,2.05,0,4.1,0,2,0,4.09,0,2-.4,4.1-.4,2.05.45,4.1.45,2.05.06,4.1.06,2-.49,4.1-.49,2,1.14,4.1,1.14,2-.85,4.1-.85,2.05-.33,4.1-.33,2.05,1.06,4.09,1.06,2.06.3,4.11.3,2-.07,4.1-.07,2.06-1,4.11-1"/><path class="cls-9" d="M858.11,131.67c-.12.86-.05,1.75-.2,2.62s-.1,1.76-.28,2.62-.83,1.6-1,2.46-.3,1.72-.54,2.56,0,1.83-.24,2.67-1,1.5-1.33,2.33-.36,1.73-.68,2.54-.37,1.75-.73,2.56-.61,1.66-1,2.44-.87,1.54-1.29,2.32-.87,1.53-1.33,2.28-.84,1.55-1.33,2.29-1.46,1.12-2,1.83-.59,1.74-1.14,2.43-1.64.91-2.22,1.59-1,1.45-1.57,2.1-1.19,1.27-1.82,1.9-1.28,1.17-1.93,1.78-1.07,1.42-1.74,2-1.28,1.19-2,1.75-1.71.64-2.42,1.17-1.31,1.15-2,1.65-1.3,1.21-2,1.69-1.36,1.14-2.11,1.6-1.46,1-2.2,1.43-1.86.22-2.63.58-1.63.58-2.41.89-1.48,1-2.29,1.29-1.68.48-2.51.67a25.34,25.34,0,0,1-2.61,0,25.44,25.44,0,0,1-2.53.72,22.3,22.3,0,0,1-2.6-.13,19.79,19.79,0,0,1-2.55-.49,21.32,21.32,0,0,1-2.43-.87,23.36,23.36,0,0,1-2.44-.83,24.85,24.85,0,0,1-2.27-1.21c-.73-.44-1.38-1-2.08-1.52s-1.77-.55-2.43-1.14-.9-1.55-1.51-2.19-1.38-1.06-1.95-1.73-1.3-1.17-1.83-1.88-1-1.41-1.5-2.14-.92-1.46-1.38-2.21-.28-1.82-.71-2.59-.75-1.52-1.16-2.31-1.41-1.2-1.79-2-.21-1.79-.56-2.59-.76-1.53-1.09-2.34-1.23-1.36-1.54-2.18.09-1.87-.21-2.69-.94-1.48-1.23-2.31-.3-1.71-.57-2.54-.57-1.62-.83-2.46-.22-1.72-.46-2.56-1.17-1.46-1.4-2.31,0-1.77-.24-2.61-.79-1.58-1-2.43-.51-1.66-.7-2.51,0-1.77-.19-2.62.07-1.77-.11-2.63-.43-1.67-.6-2.53-1-1.6-1.16-2.44-.16-1.77-.32-2.61,0-1.8-.19-2.64-.49-1.71-.64-2.56-.46-1.72-.61-2.56-.2-1.76-.34-2.61-.39-1.73-.52-2.57,0-1.8-.1-2.64-.74-1.69-.85-2.53.11-1.81,0-2.65-.4-1.75-.48-2.59-.17-1.78-.23-2.61-.13-1.79-.17-2.63.21-1.8.21-2.63-.19-1.8-.15-2.63.15-1.81.24-2.63.78-1.68.94-2.49-.26-1.91,0-2.7a20.28,20.28,0,0,1,1.18-2.38c.38-.8,1.2-1.31,1.66-2s.37-1.83.9-2.54,1.22-1.24,1.78-1.94,1.43-1,2-1.74.58-1.4,1.15-2.11c-.67-1.07-1-.58-2-1.36s-.67-1.2-1.66-2-1.31-.39-2.31-1.16-.82-1-1.82-1.79-.85-1-1.85-1.75-1.36-.31-2.36-1.09"/><path class="cls-7" d="M792.66,121.29c-.23-1.18-.56-1.16-1.7-2a5.29,5.29,0,0,0-2.35-.32c-.66,0-1.48-.54-2.41-.34-.76.16-1.65.4-2.63.64-.82.19-1.61.82-2.53,1.05s-1.84,0-2.73.21-1.65.86-2.52,1.09-1.81.29-2.67.52-1.85.23-2.68.46-1.77.69-2.56.9c-1.07.29-1.94.6-2.59.77a6.67,6.67,0,0,0-2.7,1.11,4.84,4.84,0,0,0-1.47,2.58,9.73,9.73,0,0,0,0,2.93,23.86,23.86,0,0,0,.8,2.8c.21.84.12,1.72.32,2.51s.93,1.52,1.13,2.31,0,1.76.16,2.55.24,1.69.44,2.48.54,1.62.73,2.4,1,1.52,1.14,2.3c.24,1,0,2,.35,2.61a4.4,4.4,0,0,0,2.13,1.53,6.11,6.11,0,0,0,2.55.63c.8,0,1.56-.78,2.46-1s1.79.19,2.64-.07,1.37-1.18,2.35-1.47c.79-.24,1.9.34,2.81.07s1.63-.69,2.5-1,1.62-.82,2.48-1.07,1.82-.24,2.66-.49,1.58-1.1,2.39-1.34,2,0,2.74-.19c1.09-.33,1.79-1.14,2.38-1.33"/><path class="cls-9" d="M792.66,121.29c-.23-1.18-.56-1.16-1.7-2a5.29,5.29,0,0,0-2.35-.32c-.66,0-1.48-.54-2.41-.34-.76.16-1.65.4-2.63.64-.82.19-1.61.82-2.53,1.05s-1.84,0-2.73.21-1.65.86-2.52,1.09-1.81.29-2.67.52-1.85.23-2.68.46-1.77.69-2.56.9c-1.07.29-1.94.6-2.59.77a6.67,6.67,0,0,0-2.7,1.11,4.84,4.84,0,0,0-1.47,2.58,9.73,9.73,0,0,0,0,2.93,23.86,23.86,0,0,0,.8,2.8c.21.84.12,1.72.32,2.51s.93,1.52,1.13,2.31,0,1.76.16,2.55.24,1.69.44,2.48.54,1.62.73,2.4,1,1.52,1.14,2.3c.24,1,0,2,.35,2.61a4.4,4.4,0,0,0,2.13,1.53,6.11,6.11,0,0,0,2.55.63c.8,0,1.56-.78,2.46-1s1.79.19,2.64-.07,1.37-1.18,2.35-1.47c.79-.24,1.9.34,2.81.07s1.63-.69,2.5-1,1.62-.82,2.48-1.07,1.82-.24,2.66-.49,1.58-1.1,2.39-1.34,2,0,2.74-.19c1.09-.33,1.79-1.14,2.38-1.33"/><path class="cls-9" d="M848.93,102c.46-1.14-.07-1.12.77-2.34a16,16,0,0,1,1.56-1.94A14.34,14.34,0,0,1,853.1,96a15.08,15.08,0,0,1,2.14-1.26,15.68,15.68,0,0,1,2.39-.64,14.08,14.08,0,0,1,2.31-.92,19.83,19.83,0,0,1,2.48.15,19.5,19.5,0,0,1,2.48-.16,13.78,13.78,0,0,1,2.39,1,9.06,9.06,0,0,1,4.36,2.41c.67.54,1.62.75,2.19,1.4a16.7,16.7,0,0,1,1.54,2.08c.45.72.38,1.71.74,2.5s1.14,1.38,1.39,2.2a31.36,31.36,0,0,1,.81,5.09c.07.85.1,1.71.09,2.57s-.31,1.69-.41,2.53a22.36,22.36,0,0,1-.48,2.49c-.2.85.07,1.82-.22,2.62a20.25,20.25,0,0,1-1.08,2.36c-.41.77-1.22,1.27-1.73,1.94a12.74,12.74,0,0,1-1.65,1.92c-.72.63-1.12,1.57-1.79,2.07a26,26,0,0,1-2.34,1.37,26.28,26.28,0,0,1-2.28,1.48c-.92.41-2,0-2.78.17a13.74,13.74,0,0,1-2.54.74c-1.71,0-1.58.44-2.75-.19"/><path class="cls-9" d="M776.38,48.58c1,.84.88.35,2.21,1.45.56.47,1.28,1,2.06,1.61.61.51,1,1.45,1.7,2.06s1.27,1.11,2,1.72,1.76.55,2.46,1.15,1.26,1.16,2,1.75.94,1.54,1.63,2.13,1.79.55,2.47,1.13,1.29,1.15,2,1.73,1.13,1.34,1.81,1.92,1.06,1.43,1.74,2,1.26,1.19,1.94,1.77,1.42,1,2.09,1.59,1.64.76,2.31,1.34.87,1.67,1.54,2.24,1.77.61,2.44,1.19,1,1.46,1.72,2,1.16,1.32,1.83,1.9,1.55.88,2.22,1.46,1.33,1.13,2,1.71,1.49,1,2.16,1.54a23.5,23.5,0,0,0,2.16,1.48c.73.5,1.33,1.16,2.11,1.59a25.51,25.51,0,0,0,2.22,1.51c.81.35,1.64.74,2.49,1s1.83,0,2.69.24,1.65.85,2.52,1,1.83-.29,2.71-.22,1.75.06,2.64.08,1.75-.2,2.63-.24,1.8.5,2.68.4,1.73-.43,2.6-.58,1.72-.43,2.57-.64,1.82-.1,2.65-.36,1.66-.69,2.47-1,1.44-1.12,2.21-1.5,2-.18,2.68-.64"/><path d="M766,62.36c-1.26-.4-1,.76-2.21,1.9-.55.51-1.15,1.19-1.83,1.93s-.89,1.46-1.48,2.21-1.48,1.06-2,1.83-.74,1.6-1.19,2.4-1,1.44-1.41,2.27-.43,1.72-.75,2.57-.31,1.73-.57,2.6a19.37,19.37,0,0,0-.85,2.32c-.14.8-.53,1.59-.6,2.42s0,1.67,0,2.49.42,1.65.46,2.47-.08,1.66,0,2.46.06,1.69.16,2.47.46,1.66.58,2.41c.15.92,0,1.79.13,2.48.3,1.5.59,2.43.59,2.43,1.49.07,1.47.43,3,.49s1.5-.07,3,0,1.5-.2,3-.13c0,0-.13-.95-.41-2.48-.13-.72-.79-1.49-.92-2.43-.11-.78-.15-1.66-.23-2.54s0-1.7,0-2.56.26-1.7.28-2.54-.09-1.72,0-2.55a18.35,18.35,0,0,1,.78-2.41,12.62,12.62,0,0,1,.56-2.47c.43-.8,1.18-1.46,1.66-2.28s1.08-1.52,1.57-2.32.55-1.88,1-2.65,1.11-1.57,1.6-2.3.8-1.87,1.26-2.53c1-1.41,2.45-.7,1.81-1.94-.52-1-.63-.92-1.53-1.62s-.8-.84-1.7-1.54-1.13-.41-1.89-1.27S767.12,62.72,766,62.36Z"/><path class="cls-9" d="M766,62.36c-1.26-.4-1,.76-2.21,1.9-.55.51-1.15,1.19-1.83,1.93s-.89,1.46-1.48,2.21-1.48,1.06-2,1.83-.74,1.6-1.19,2.4-1,1.44-1.41,2.27-.43,1.72-.75,2.57-.31,1.73-.57,2.6a19.37,19.37,0,0,0-.85,2.32c-.14.8-.53,1.59-.6,2.42s0,1.67,0,2.49.42,1.65.46,2.47-.08,1.66,0,2.46.06,1.69.16,2.47.46,1.66.58,2.41c.15.92,0,1.79.13,2.48.3,1.5.59,2.43.59,2.43,1.49.07,1.47.43,3,.49s1.5-.07,3,0,1.5-.2,3-.13c0,0-.13-.95-.41-2.48-.13-.72-.79-1.49-.92-2.43-.11-.78-.15-1.66-.23-2.54s0-1.7,0-2.56.26-1.7.28-2.54-.09-1.72,0-2.55a18.35,18.35,0,0,1,.78-2.41,12.62,12.62,0,0,1,.56-2.47c.43-.8,1.18-1.46,1.66-2.28s1.08-1.52,1.57-2.32.55-1.88,1-2.65,1.11-1.57,1.6-2.3.8-1.87,1.26-2.53c1-1.41,2.45-.7,1.81-1.94-.52-1-.63-.92-1.53-1.62s-.8-.84-1.7-1.54-1.13-.41-1.89-1.27S767.12,62.72,766,62.36Z"/><path class="cls-9" d="M829.47,101.73a10.6,10.6,0,0,1-2.38,1c-.71.2-1.59.18-2.54.35a25.32,25.32,0,0,1-2.52.33c-.82.06-1.66.63-2.55.6a17.88,17.88,0,0,1-2.64,0c-.83-.15-1.53-1-2.36-1.25a14.78,14.78,0,0,1-2.23-1.22c-.72-.41-1.88-.26-2.57-.83a17.13,17.13,0,0,1-1.6-2.11,15.92,15.92,0,0,1-1.73-2,22,22,0,0,1-1.21-2.33"/><path class="cls-9" d="M799.67,128.82c-.28,1.23-.11,1-.45,2.48-.17.71-.87,1.42-1.08,2.33s0,1.68-.2,2.54-.8,1.52-1,2.35-.16,1.69-.35,2.51,0,1.76-.18,2.56-.7,1.6-.89,2.38-.68,1.65-.86,2.38c-.25,1,.24,2,.08,2.62-.27,1-.9,1.75-.77,2.5A4.85,4.85,0,0,0,795,156c.54.56,1.63.63,2.48,1.09a20.88,20.88,0,0,0,2.32,1.16c.76.29,1.64.37,2.53.66"/><path class="cls-9" d="M858.54,121.59l1.12-2.26c.56-1.12.37-1.21.93-2.34s.81-1,1.37-2.13.13-1.34.69-2.47.8-1,1.37-2.13.52-1.14,1.08-2.27.28-1.26.84-2.38,1.3-.76,1.86-1.89,0-1.41.55-2.54.79-1,1.35-2.14.28-1.27.84-2.39.91-1,1.47-2.09.18-1.32.74-2.45"/><path class="cls-9" d="M792,49c.79-.24,1.54-.68,2.36-.93s1.57-.6,2.38-.85,1.59-.54,2.41-.78,1.72-.1,2.53-.34,1.66-.3,2.48-.53,1.52-.81,2.34-1,1.7-.15,2.52-.34,1.64-.36,2.47-.54,1.59-.66,2.42-.81,1.67-.24,2.51-.37,1.67-.24,2.51-.34,1.67-.29,2.51-.36,1.72.43,2.56.4,1.68-.51,2.52-.49,1.68.37,2.52.44,1.7,0,2.53.07,1.71.12,2.53.3,1.5,1,2.29,1.19,1.74,0,2.51.27,1.52.8,2.27,1.09,1.67.39,2.41.72,1.54.73,2.25,1.1,1.68.52,2.35.94,1.36,1.08,2,1.55,1,1.5,1.58,2,1.58.84,2.1,1.39a19.19,19.19,0,0,1,1.56,2c1,1.27.59,3.1,1.57,2.32s.21-1.65,1-2.82,1.13-.92,1.89-2.09.66-1.24,1.43-2.41,1.23-.86,2-2"/><path class="cls-9" d="M872.93,92.19A11.19,11.19,0,0,0,874,89.8a23.35,23.35,0,0,0,.84-2.46c.24-.81.95-1.56,1.08-2.46A14.06,14.06,0,0,0,876,82.2a10.55,10.55,0,0,0-.87-2.51,8,8,0,0,0-1.19-2.25,10.4,10.4,0,0,0-1.76-2.23c1-.9,1.26-.64,2.49-1.14s1.27-.42,2.5-.93,1.28-.39,2.52-.89,1.36-.21,2.59-.71"/><path class="cls-9" d="M862.56,62.93c.92-1.06,1.15-.86,2.07-1.92s.94-1,1.86-2.1.86-1.12,1.78-2.18.52-1.42,1.44-2.48,1.37-.68,2.29-1.74"/><path class="cls-9" d="M867.5,70.05c.94-.83.88-.9,1.83-1.73s1.18-.56,2.13-1.38.76-1,1.71-1.88.78-1,1.73-1.85,1.27-.46,2.22-1.29.69-1.13,1.64-2"/><path class="cls-9" d="M819.06,65c1.19.59,1.05.88,2.24,1.47s1.13.74,2.32,1.33,1.12.74,2.32,1.34,1.16.66,2.36,1.25,1.4.19,2.6.78,1.25.49,2.44,1.09"/><path d="M838.74,171.75c.18,1.21.79,1.09,1.3,2.21s.85,1,1.36,2.08,0,1.37.48,2.49.63,1.06,1.14,2.18.69,1,1.2,2.16a4.5,4.5,0,0,0,1.24,2c.88.88.8.14,2.08-.77a22.48,22.48,0,0,0,1.91-1.61c.56-.51.89-1.35,1.49-2s.95-1.27,1.46-2,.86-1.33,1.31-2.08.81-1.37,1.2-2.14,1.27-1.21,1.59-2-.13-1.77.14-2.58,1.1-1.37,1.31-2.2-.1-1.87,0-2.76.53-1.75.6-2.64.1-1.81.1-2.7-.1-1.82-.16-2.7-.19-1.82-.29-2.68.22-1.91.07-2.76-1-1.71-1.19-2.52c-.23-1,.3-2.07.08-2.81-.46-1.62.12-2.53-1.21-2.72s-.47,1.06-1,2.66c-.2.68-.39,1.5-.74,2.43-.27.72-.42,1.57-.8,2.42s-.61,1.52-1,2.34-.78,1.46-1.21,2.24-.49,1.66-.95,2.42-1.26,1.18-1.75,1.92-1.05,1.31-1.55,2-.71,1.56-1.24,2.26-1.34,1.08-1.89,1.77-.77,1.54-1.34,2.21-.87,1.48-1.45,2.13S839.34,171.11,838.74,171.75Z"/><path class="cls-9" d="M838.74,171.75c.18,1.21.79,1.09,1.3,2.21s.85,1,1.36,2.08,0,1.37.48,2.49.63,1.06,1.14,2.18.69,1,1.2,2.16a4.5,4.5,0,0,0,1.24,2c.88.88.8.14,2.08-.77a22.48,22.48,0,0,0,1.91-1.61c.56-.51.89-1.35,1.49-2s.95-1.27,1.46-2,.86-1.33,1.31-2.08.81-1.37,1.2-2.14,1.27-1.21,1.59-2-.13-1.77.14-2.58,1.1-1.37,1.31-2.2-.1-1.87,0-2.76.53-1.75.6-2.64.1-1.81.1-2.7-.1-1.82-.16-2.7-.19-1.82-.29-2.68.22-1.91.07-2.76-1-1.71-1.19-2.52c-.23-1,.3-2.07.08-2.81-.46-1.62.12-2.53-1.21-2.72s-.47,1.06-1,2.66c-.2.68-.39,1.5-.74,2.43-.27.72-.42,1.57-.8,2.42s-.61,1.52-1,2.34-.78,1.46-1.21,2.24-.49,1.66-.95,2.42-1.26,1.18-1.75,1.92-1.05,1.31-1.55,2-.71,1.56-1.24,2.26-1.34,1.08-1.89,1.77-.77,1.54-1.34,2.21-.87,1.48-1.45,2.13S839.34,171.11,838.74,171.75Z"/><path class="cls-9" d="M838,84.16c.29,1.21-.05,1.29.24,2.49s.82,1.07,1.11,2.27.1,1.24.39,2.44-.13,1.31.16,2.51.61,1.12.9,2.33.68,1.1,1,2.31-.54,1.4-.25,2.61.58,1.13.87,2.33"/><path class="cls-9" d="M831.7,127.39c-1.2-.26-1.29.13-2.5-.13l-2.41-.54c-1.2-.26-1.16-.47-2.36-.74s-1.3.13-2.5-.14-1.17-.45-2.38-.72-1.28,0-2.48-.22-1.08-.86-2.29-1.13-1.34.3-2.55,0"/><path class="cls-9" d="M771.23,139.74c1.06-.64.94-.83,2-1.47s.88-.92,1.94-1.56,1.09-.59,2.14-1.23,1.11-.55,2.17-1.19.95-.83,2-1.47,1.19-.44,2.24-1.08,1.24-.35,2.29-1,.87-1,1.93-1.6"/><path class="cls-9" d="M842.37,132.8c0,.92.23,1.94-.28,2.69a8.44,8.44,0,0,1-2.11,1.79,13,13,0,0,1-2.56.85c-.86.36-1.53,1.34-2.35,1.51-.55.11-1.53-.47-2.57-.3-.73.12-1.54.35-2.43.49s-1.52.72-2.37.86-1.72-.44-2.56-.31-1.62.3-2.44.43-1.55.91-2.35,1-1.7.08-2.48.22-1.75,0-2.5.12c-.93.18-1.71.59-2.38.75a10.48,10.48,0,0,1-2.41-.08c-.92,0-1.81.61-2.49.32s-.88-1.32-1.34-2.06A6.4,6.4,0,0,1,806,139c-.15-.71-1.08-1.42-1.12-2.32s.23-1.89.19-2.76.39-1.82.34-2.76-.75-1.72-.8-2.71c-.05-.83.49-1.76.44-2.77,0-.84,0-1.75-.08-2.75s-.74-1.69-.7-2.43a12.52,12.52,0,0,1,.36-2.47c.22-.88,1-1.4,1.46-2a4.83,4.83,0,0,1,1.63-1.64c.67-.37,1.3-1.14,2.17-1.27s1.75.3,2.67.18,1.66-.58,2.56-.7,1.76.07,2.64,0,1.78.12,2.65,0,1.72-.45,2.58-.56,1.68-.81,2.53-.92,1.88.56,2.72.45,1.79-.28,2.6-.4c1-.14,1.8-.52,2.55-.65a22.86,22.86,0,0,1,2.62-.69c1,0,1.79.69,2.56.87,1,.23,2,.07,2.6.59a5.42,5.42,0,0,1,1.69,2.21,9.06,9.06,0,0,1,0,2.74c0,1-.19,1.94-.2,2.77,0,1,.14,1.93.12,2.77s-.27,1.87-.29,2.77.28,1.78.26,2.77c0,.83.22,1.74.22,2.76C842.88,130.86,842.37,131.77,842.37,132.8Z"/><path class="cls-9" d="M901,190.55c1.86-.78,2-.46,3.85-1.24s2-.53,3.81-1.3,1.72-1.11,3.58-1.89,1.85-.79,3.71-1.57,1.93-.6,3.79-1.38,1.88-.74,3.73-1.51,1.77-1,3.62-1.79,1.9-.69,3.76-1.47,2-.49,3.84-1.27a7.43,7.43,0,0,0,3.25-2.19c1.52-1.42.29-1.24-.62-3.66-.42-1.11-1-2.4-1.64-3.83-.52-1.17-1.51-2.24-2.19-3.56-.61-1.17-1.18-2.43-1.93-3.67s-1.67-2.16-2.48-3.33-1.56-2.23-2.46-3.32-1.92-1.94-2.9-2.95-1.71-2.15-2.78-3.06a39.79,39.79,0,0,0-3.49-2.22c-1.13-.77-1.91-2.15-3.15-2.8a35.86,35.86,0,0,0-3.82-1.74c-1.28-.47-2.86,0-4.24-.29s-2.53-1.21-3.94-1.37a34.4,34.4,0,0,0-4.16-.63c-1.35,0-2.65,0-3.91,0s-2.66,1-3.9,1-2.68-.71-3.91-.71c-1.39,0-2.69.81-3.9.81-1.43,0-2.73-1.25-3.9-1.25-1.53,0-2.82.08-3.9.08-2.61,0-2,.6-3.89.6"/><path class="cls-9" d="M831.16,185.94c.1.91.8,1.67,1,2.48a15,15,0,0,0,.76,2.48,13.52,13.52,0,0,0,1.42,2.17,13,13,0,0,0,1.76,1.86c.64.61.9,1.7,1.64,2.17a14.48,14.48,0,0,0,2.52.89,15.66,15.66,0,0,0,2.6.4,16.81,16.81,0,0,0,2.51.74,19.22,19.22,0,0,0,2.63.1,21.59,21.59,0,0,0,2.66-.17c.85-.18,1.55-.95,2.38-1.25a17.9,17.9,0,0,0,2.28-1.22,19.5,19.5,0,0,0,4.34-2.77,18.77,18.77,0,0,0,1.64-2,17.8,17.8,0,0,0,1.7-2c.45-.73,1.42-1.23,1.79-2s-.08-1.89.18-2.75a23.51,23.51,0,0,0,.54-2.53c.15-.84.8-1.62.87-2.52s.28-1.8.34-2.68.31-1.8.37-2.68-.25-1.83-.19-2.71.31-1.8.37-2.68.24-1.8.3-2.68-.64-1.87-.58-2.74,1-1.76,1.07-2.63-.69-1.87-.63-2.75.27-1.81.33-2.68.17-1.82.23-2.68.42-1.81.48-2.67-.27-1.86-.21-2.72.76-1.8.81-2.64-.08-1.87,0-2.7c.06-1,0-1.9,0-2.7.07-1,.41-1.93.46-2.67.12-1.81.07-1.34.16-2.68"/><path class="cls-9" d="M767.14,51.08c.94,1,1,1,1.94,2s1,.93,2,1.93.92,1,1.87,2,.7,1.24,1.64,2.24,1,1,2,2,1.36.61,2.31,1.62"/><path class="cls-9" d="M728.34,110.54a32.86,32.86,0,0,0,.78,3.67c.32,1,.66,2.26,1.13,3.59.38,1.1,1.12,2.17,1.6,3.41s.1,2.63.62,3.82,1.76,1.93,2.32,3.08a24.46,24.46,0,0,0,2,3.95c.84,1.16,1.67,2.44,2.67,3.57s1.85,2.39,2.89,3.42,2.29,2,3.33,3c1.22,1.09,3.05,1.28,4,2.11,2.06,1.72,2.62,1.06,3.29,3.17.63,1.95-.68,1.49-1.78,3.88-.49,1.05-.66,2.49-1.31,3.92-.52,1.14-1.72,2.11-2.33,3.47-.52,1.18-1.45,2.27-2,3.59s-1,2.49-1.6,3.8-.12,2.89-.67,4.19-1.48,2.32-2,3.61-1.88,2.17-2.41,3.46.14,3-.38,4.29-1,2.54-1.51,3.83-1.48,2.35-2,3.64-1.66,2.3-2.15,3.59-.9,2.6-1.38,3.89-.86,2.62-1.32,3.91-.64,2.7-1.09,4-.2,2.85-.64,4.14-2,2.25-2.4,3.55-.21,2.83-.61,4.13-.95,2.6-1.32,3.9a17.1,17.1,0,0,0-.88,4.11,18.78,18.78,0,0,0,.16,4.23,19.5,19.5,0,0,0,1.32,4,19.86,19.86,0,0,0,1.7,3.93c.79,1.12,2.63,1.36,3.7,2.29a16.62,16.62,0,0,0,3.14,2.62,19.26,19.26,0,0,0,3.94,1.12c1.28.34,2.48,1.31,3.94,1.42,1.31.1,2.67-.66,4.13-.78,1.31-.11,2.77.45,4.21.15s2.47-1.21,3.86-1.66,2.9,0,4.25-.54,2.24-1.68,3.54-2.32,2.28-1.48,3.54-2.2,2.32-1.4,3.53-2.17,2.67-.92,3.85-1.74,2-1.93,3.13-2.8,1.83-2.08,3-3,3-.72,4-1.65,1.9-2,3-3,1.74-2.18,2.78-3.15,2.31-1.57,3.33-2.57"/><path class="cls-9" d="M741.14,124.21c-.81-1.48-.38-1.29-1.29-3.14-.44-.87-1.09-1.83-1.61-3-.44-1-.83-2-1.28-3.13s-.94-2-1.34-3.11-.84-2.12-1.16-3.19-.47-2.25-.7-3.33a24.72,24.72,0,0,1-.52-3.34"/><path class="cls-9" d="M747,121.28c-.81-1.63-.42-1.38-1.3-3.4-.42-1-1.13-2-1.62-3.26-.42-1.07-.84-2.23-1.25-3.43s-.65-2.33-1-3.51-.59-2.37-.83-3.54a30.69,30.69,0,0,1-.31-3.62"/><path class="cls-9" d="M758.3,125.42c-1-1.5-.79-1.14-2-3.06-.55-.89-1.41-1.81-2.09-3-.56-1-.92-2.17-1.52-3.31s-1.29-2-1.83-3.16-.81-2.28-1.29-3.42-.85-2.26-1.25-3.41-.76-2.31-1.06-3.46a33.9,33.9,0,0,1-1.07-3.5"/><path class="cls-9" d="M760,140.76c-.6-1.72-.63-1.36-1.71-3.23a22.66,22.66,0,0,0-1.93-3.11,19.23,19.23,0,0,0-2.63-2.53,15,15,0,0,0-3-2.06,13.64,13.64,0,0,0-3.44-1.23,13.83,13.83,0,0,0-3.67-.14"/><path class="cls-9" d="M938.16,175.43c.87,1.85,1,1.17,2.08,3.54.48,1.05,1.42,2.13,2.06,3.55.51,1.14,1.05,2.4,1.65,3.74.52,1.17,1.06,2.43,1.63,3.74s.07,2.88.63,4.18,1.8,2.15,2.35,3.43.77,2.6,1.31,3.89,1.11,2.46,1.64,3.74.52,2.71,1,4,1.58,2.33,1.91,3.64,0,2.76.11,4.1a28.94,28.94,0,0,1,.29,4,25.88,25.88,0,0,1-.29,4.06,23.2,23.2,0,0,1-1.32,3.84,22.53,22.53,0,0,1-1.36,3.88,21.6,21.6,0,0,1-2.85,3,18,18,0,0,1-6.29,5.25c-1.22.52-2.75.29-4.13.57a23.67,23.67,0,0,1-4,0c-1.3,0-2.65.64-4.06.46s-2.49-1-3.87-1.3-2.72-.15-4.06-.64-2.2-1.58-3.49-2.18-2.74-.63-3.94-1.2-2.68-.75-3.87-1.31-2-2.13-3.24-2.69-3,0-4.21-.6-2.21-1.78-3.4-2.33-2.73-.68-3.92-1.23-2.32-1.57-3.5-2.11-2.69-.82-3.86-1.36l-3.69-1.71c-1.33-.61-2.36-1.6-3.5-2.12-1.37-.63-2.37-1.69-3.47-2.19-1.46-.66-2.85-.86-3.86-1.32-2.52-1.15-1.86-.82-3.72-1.64"/><path class="cls-9" d="M842.85,216.81c1.88-1.09,1.3-1.07,3.62-2.43,1.07-.63,1.78-2.31,3.19-3.14,1.16-.69,2.9-.61,4.22-1.39s2.07-2.1,3.35-2.86,2.73-1.06,4-1.82,2.12-2.12,3.36-2.86,3.22-.35,4.42-1.09,2.06-2.32,3.23-3.05,2.87-1,4.18-1.44a18.33,18.33,0,0,1,4.21-.94,21.49,21.49,0,0,1,4.35-.45c1.45.12,2.76,1,4.21,1.3s3,0,4.44.43,2.63,1.35,4,1.89,2.51,1.62,3.88,2.16,3,.31,4.42.8,2.63,1.19,3.87,1.63l4,1.43c1.42.51,2.54,1.51,3.76,2,1.44.52,3.13-.06,4.33.37,1.47.53,2.54,1.65,3.71,2.07,1.5.53,3,.53,4.12.94,1.46.51,2.66,1.13,3.9,1.55s2.73.29,4.15.76c1.18.4,2.39,1,3.9,1.56"/><path class="cls-9" d="M771.38,190.85c1.26,1.55,1,1.75,2.27,3.31s.59,2.09,1.85,3.65,1.73,1.18,3,2.73.8,1.93,2.06,3.49,1.73,1.17,3,2.73,1.64,1.25,2.9,2.81.3,2.33,1.56,3.89,2.06.92,3.31,2.48"/><path class="cls-9" d="M920.81,6.81a19.16,19.16,0,0,1,4.07.92,11.59,11.59,0,0,1,3.82,1.38c1.18.74,2.74,1.3,3.47,2.49a13.21,13.21,0,0,1,1.18,4.11c.25,1.23-.23,2.65-.23,4.15,0,2.07.5,2.07.5,4.14s-.31,2.08-.31,4.15.6,2.07.6,4.14.05,2.07.05,4.15-1.1,2.07-1.1,4.14.51,2.07.51,4.15-.16,2.07-.16,4.14.27,2.07.27,4.15.32,2.07.32,4.14-.19,2.07-.19,4.15-.76,2.07-.76,4.14.61,2.08.61,4.15.16,2.07.16,4.14-.07,2.08-.07,4.15S934,80,934,82s-.18,2.07-.18,4.14-.36,2.08-.36,4.15.12,2.07.12,4.14.1,2.08.1,4.15.05,2.07.05,4.14-.32,2.08-.32,4.15S933,109,933,111.06s.88,2.07.88,4.14.06,2.08.06,4.15,0,2.08,0,4.15-.65,2.08-.65,4.15.08,2.08.08,4.15,0,2.07,0,4.15.79,2.08.79,4.15-.82,2.08-.82,4.16-.48,2.07-.48,4.15"/><path class="cls-9" d="M794.75,191.25c.72-1.52.56-1.13,1.49-3,.42-.86,1.3-1.7,1.87-2.83.47-.93,1-1.91,1.58-3s.91-2,1.45-3,.8-2.09,1.34-3.1,1.24-1.88,1.78-2.88,1.24-1.88,1.79-2.87,1-2,1.56-3,1.11-2,1.67-2.93,1-2.07,1.57-3,1.06-2.07,1.65-3,1.78-1.61,2.39-2.43a21.68,21.68,0,0,1,2.24-2.86c1.21-1.09,2.27-1.93,3.18-2,1.2-.06,2.28,1,3,2.24a12,12,0,0,1,1.12,3.49,24.84,24.84,0,0,1,.17,3.63,29.52,29.52,0,0,1-.17,3.62c-.11,1.25.05,2.47-.06,3.62s-.31,2.44-.42,3.58-.46,2.44-.57,3.57c-.12,1.28-.3,2.47-.41,3.57-.14,1.32-.15,2.52-.27,3.59-.15,1.41-.38,2.59-.49,3.57-.28,2.41-.07,1.8-.31,3.57"/><path class="cls-9" d="M782.52,87.66s.68,2.33,1.26,4.93a9,9,0,0,1,.1,4.65c-.45,1.52-.76,3.2-2.84,3.66-1.83.4-3.56.85-4.67.49-1.54-.51-1.92-2.48-2.43-3.91s-.21-2.68-.15-4.23S772.7,90,773,88.69c.56-2.58,2.16-4.28,2.13-4"/><path class="cls-9" d="M835.39,147.62c-.63,1.65-.91,1.43-1.32,3.34a19,19,0,0,0-.45,3.6c0,1.24,1,2.36,1.45,3.32s1.3,1.15,2.68,1.39c1.79.3,3.14.92,4.1.3a5.93,5.93,0,0,0,2.46-3.65c.25-1.29-.92-2.79-1-4.24a37.38,37.38,0,0,0-.15-4.19,23.66,23.66,0,0,1-.63-4.05"/><path d="M810.32,7c0,1.27-.59,2.72,0,3.75s2,1.59,3.06,2.2a9.76,9.76,0,0,0,6.9,0,6.94,6.94,0,0,0,2.63-2.47A6.93,6.93,0,0,0,823.74,7c0-1.27.16-2.72-.43-3.74S821.07,2.07,820,1.45,818.1,0,816.83,0a7.63,7.63,0,0,0-3.7.58,7.56,7.56,0,0,0-2.47,2.84C810.07,4.45,810.32,5.71,810.32,7Z"/></g></g></g></svg>