<svg xmlns="http://www.w3.org/2000/svg" viewBox="0 0 889.28 1245.67"><defs><style>.cls-1{fill:#8e9b91;}.cls-2,.cls-5,.cls-6{fill:none;}.cls-2,.cls-6{stroke:#000;stroke-linecap:round;stroke-linejoin:round;}.cls-2,.cls-5{stroke-width:4.33px;}.cls-3{fill:#e6b49d;}.cls-4{fill:#62272d;}.cls-5{stroke:#e6b49d;stroke-miterlimit:10;}.cls-6{stroke-width:3.61px;}</style></defs><g id="Layer_2" data-name="Layer 2"><g id="sect8"><g id="hand"><path class="cls-1" d="M738.06,1141.61c2,.59,1.21,1.41,2.5,3.68.57,1,.3,2.73,1.07,4.09.62,1.08,1.09,2.39,1.81,3.67.64,1.11,1.92,2,2.63,3.2s1.3,2.34,2,3.57.74,2.67,1.44,3.89,2,1.93,2.74,3.14,1.25,2.39,1.94,3.59,1.18,2.44,1.87,3.64,1,2.54,1.72,3.73,1.54,2.25,2.22,3.44l2,3.56c.68,1.18,1.21,2.45,1.89,3.63s2.27,1.85,2.94,3,.61,2.8,1.29,4,1.75,2.15,2.42,3.33,1.73,2.18,2.4,3.35,1.33,2.41,2,3.57,1.32,2.42,2,3.58.41,3,1.07,4.1,1.29,2.46,2,3.61,2.38,1.83,3,3,.62,2.88,1.27,4,1.54,2.38,2.18,3.47c.77,1.32,2.33,2,2.93,3,.79,1.32.29,3.06.64,4.21.45,1.49,1.11,2.74.72,3.93s-1.48,2-2.81,2.85a13.5,13.5,0,0,1-3.63,1.71,40.09,40.09,0,0,1-4,.46c-1.23.2-2.44,1.51-3.92,1.64-1.27.11-2.68-.5-4.14-.44-1.29,0-2.65.66-4.1.66s-2.72.19-4.21.22-2.77-.57-4.24-.57-2.75-.73-4.2-.79-2.76,0-4.2-.11-2.9.8-4.32.58-2.73-.75-4.13-1.07-2.6-1.11-4-1.54-2.73-.63-4.06-1.17-2.68-.9-3.95-1.56-2.39-1.48-3.6-2.26-2.44-1.41-3.59-2.3-1.87-2.1-2.94-3.08c-.87-.8-2.43-1.15-3.57-2.21-.92-.86-1.55-2.19-2.63-3.21s-2.16-1.59-3.21-2.58-2-1.84-3-2.82l-3-2.82c-1-.92-1.65-2.19-2.67-3.16s-2.18-1.65-3.19-2.62-1.92-1.93-2.93-2.9-1.35-2.52-2.35-3.48-2.73-1.09-3.73-2.06-1.72-2.16-2.71-3.12-1.45-2.44-2.44-3.4-2.74-1.11-3.73-2.07-1.74-2.14-2.73-3.1-1.48-2.41-2.46-3.37-2.68-1.19-3.66-2.15-2.14-1.74-3.12-2.7-1.36-2.55-2.34-3.5-2.53-1.36-3.51-2.32-1.64-2.27-2.61-3.22-1.7-2.21-2.67-3.17-2.63-1.26-3.59-2.22-1.41-2.51-2.38-3.46-1.86-2.05-2.83-3-1.8-2.12-2.76-3.08-2.32-1.61-3.27-2.56-1.9-2-2.85-3-1.46-2.46-2.39-3.42-2.47-1.49-3.4-2.44-2.32-1.65-3.23-2.59-1.08-2.88-2-3.82-2.9-1.22-3.74-2.14c-1.07-1.17-1.48-2.23-2.22-3.09,2.07-.4,2.06-.77,4.18-.67s2.11.08,4.22.18,2.09.64,4.2.75,2.09.6,4.21.7,2.15-.74,4.27-.64,2.11.05,4.22.15,2.11.29,4.22.39,2.11.22,4.23.32,2.13-.32,4.24-.22,2.12.12,4.23.22,2.09.61,4.21.71,2.11.21,4.22.32,2.15-.62,4.26-.52,2.1.41,4.21.51,2.13-.16,4.24-.06,2.06,1.25,4.17,1.35,2.13-.12,4.24,0,2.11.18,4.23.28,2.12-.16,4.24-.06,2.11.26,4.22.36,2.11.22,4.23.32,2.11.13,4.23.23,2.17-1,4.28-.9,2.08.78,4.2.88,2.15-.67,4.27-.57,2.15,1.59,4.26,1.37S736,1141,738.06,1141.61Z"/><path class="cls-2" d="M702.29,1029.46c-.11,2,.42,1.4.28,4-.05,1.12.08,2.48,0,4-.06,1.21-.24,2.55-.3,4-.06,1.25-.15,2.6-.21,4s0,2.63,0,4.05-1,2.59-1.07,4,.73,2.68.68,4.07-1.21,2.6-1.26,4,.24,2.66.18,4-.09,2.66-.14,4-.19,2.66-.24,4,.43,2.69.38,4.06,0,2.67,0,4-.94,2.64-1,4,.14,2.67.1,4,.32,2.68.27,4,.27,2.69.23,4,.13,2.68.09,4-1.12,2.64-1.16,4-.31,2.67-.34,4,.6,2.7.56,4.06-.09,2.68-.13,4-.72,2.67-.75,4,.73,2.71.7,4.07-.15,2.69-.19,4.05-.22,2.65-.23,3.89-.34,2.67-.31,3.91.31,2.66.4,3.89.22,2.67.39,3.89.28,2.66.58,3.88,1.66,2.2,2.12,3.4.22,2.68.84,3.85,1.62,2,2.37,3.11,1.75,1.81,2.59,2.88,1.53,2,2.43,3,1.61,1.92,2.53,2.93.94,2.59,1.88,3.58,1.68,1.91,2.63,2.89,2.67,1.16,3.61,2.11,1.25,2.55,2.19,3.51,2,1.84,2.91,2.79,2.57,1.26,3.51,2.21,1.07,2.73,2,3.68,2.33,1.5,3.27,2.45,1.63,2.19,2.56,3.13,2,1.86,2.9,2.81,1.62,2.22,2.55,3.16,2.71,1.13,3.64,2.07,1.46,2.39,2.39,3.32,2.33,1.52,3.26,2.45,2,1.81,3,2.73,1.51,2.35,2.44,3.27,1.45,2.41,2.38,3.32,2,1.83,3,2.74,2.69,1.19,3.6,2.09,1.77,2.13,2.68,3,1.67,2.27,2.56,3.15c1.05,1,2.2,1.77,3.07,2.62,1.11,1.09,2.25,1.85,3,2.63a20.65,20.65,0,0,1,2.6,2.91c1.38-1.46.88-1.17,2.23-3.29a28.3,28.3,0,0,0,2.34-3.27c.54-1.1.37-2.61.86-4a33.21,33.21,0,0,0,1.68-3.64c.32-1.24.29-2.58.51-4a39.6,39.6,0,0,0,.41-4c.08-1.28.1-2.58.06-4s.3-2.63.15-4-.64-2.55-.9-3.91-.47-2.57-.82-3.9.09-2.79-.36-4.1-1.88-2.11-2.4-3.39-.7-2.55-1.29-3.8-.52-2.71-1.18-3.92-2.22-1.89-2.87-3.08-1-2.55-1.65-3.73-.71-2.72-1.36-3.9-2.16-1.93-2.81-3.11-1.52-2.28-2.17-3.46-.58-2.79-1.23-4-2-2-2.65-3.19-.93-2.61-1.58-3.78-1-2.57-1.66-3.73-2.14-2-2.79-3.11-.68-2.77-1.33-3.92-1.24-2.46-1.89-3.61-1.17-2.51-1.82-3.64-1.79-2.18-2.43-3.3-1.31-2.47-1.95-3.58c-.73-1.27-.83-2.79-1.44-3.86-.78-1.35-2.06-2.19-2.63-3.18a24.69,24.69,0,0,0-2.52-3.63c.44-1.94,1.58-1.69,2-3.63s-.76-2.21-.32-4.16,1.35-1.74,1.79-3.68-.38-2.13.06-4.08.42-2,.86-3.89,1-1.83,1.39-3.78.91-1.83,1.35-3.78-.35-2.12.09-4.07.39-2,.83-3.9.61-1.9,1-3.85.56-1.92,1-3.87,0-2,.48-4,.46-2,.9-3.89.92-1.84,1.36-3.78.54-1.93,1-3.87-.23-2.1.21-4,.73-1.88,1.17-3.82.19-2,.63-4,1.52-1.7,2-3.65.23-2,.67-3.94.51-1.93,1-3.87.2-2,.64-3.95.59-1.92,1-3.86.55-1.92,1-3.87.46-1.94.9-3.89-.59-2.18-.15-4.12,1.08-1.81,1.52-3.75-.29-2.11.15-4.06,1.54-1.7,2-3.65.35-2,.79-3.91.27-2,.71-3.93.32-2,.76-3.92.31-2,.75-3.92,0-2,.45-4,.61-1.91,1-3.86.61-1.91,1-3.85l.88-3.9c.44-1.95,0-2,.47-4s.63-1.91,1.07-3.85.58-1.92,1-3.87.4-2,.84-3.9.48-1.94.92-3.89.07-2,.51-4,.86-1.85,1.3-3.81"/><path class="cls-2" d="M787.93,962.52c.8,1.78-.41,1.15.72,3.92.38,1,1.21,2,1.79,3.47.42,1.05.59,2.37,1.13,3.73.43,1.09,1.36,2.11,1.88,3.43.44,1.12,1.33,2.16,1.84,3.46.44,1.13.45,2.52,1,3.8s.49,2.51,1,3.78,1.09,2.3,1.58,3.56,1.51,2.14,2,3.4.69,2.46,1.16,3.72.78,2.44,1.25,3.69,1.26,2.26,1.74,3.5.51,2.66,1,3.87,1.06,2.45,1.56,3.65.55,2.68,1.08,3.87,1.31,2.34,1.86,3.52,1.52,2.23,2.1,3.39,1,2.48,1.63,3.62,2,2,2.6,3.11,1.21,2.36,1.88,3.47,1.14,2.43,1.83,3.52,1.06,2.51,1.78,3.58,1.73,2.06,2.49,3.1,1.2,2.46,2,3.48,2.1,1.76,2.93,2.74,1.37,2.38,2.23,3.33,1.69,2.13,2.6,3,2.51,1.28,3.45,2.13,2,1.85,2.95,2.65,2.48,1.17,3.5,1.91,2,1.85,3.06,2.51,2.07,1.88,3.16,2.45c1.28.68,2.4,1.48,3.49,1.95A32.86,32.86,0,0,0,858,1072a13.1,13.1,0,0,0,4.5.57c-.14-2-.06-1.44-.24-4-.07-1.13-1.07-2.43-1.17-4-.08-1.22.3-2.6.2-4.07-.08-1.26.26-2.64.16-4.07s-.79-2.6-.88-4,.12-2.67,0-4.06.11-2.68,0-4.07-1.14-2.6-1.24-4,.62-2.72.53-4.1-.64-2.64-.73-4-.31-2.67-.4-4,.57-2.73.48-4.1-.13-2.68-.23-4-1.26-2.61-1.35-4-.07-2.7-.16-4.06.68-2.74.59-4.1-1.3-2.62-1.39-4-.13-2.69-.22-4,.25-2.72.16-4.08.42-2.74.33-4.09-.06-2.7-.15-4-.42-2.69-.52-4-.93-2.65-1-4,.88-2.77.79-4.12-1.26-2.63-1.36-4,.46-2.75.36-4.09.19-2.73.09-4.08-.73-2.67-.82-4-.22-2.71-.32-4-.59-2.68-.68-4-.44-2.7-.53-4,.2-2.73.11-4.07.43-2.76.33-4.09-.1-2.74-.25-4.08-1.09-2.6-1.3-3.93.27-2.82,0-4.14-1.39-2.47-1.72-3.78-.78-2.59-1.17-3.88-1.11-2.47-1.55-3.74-.07-2.87-.57-4.12-1.35-2.37-1.91-3.61-1.3-2.37-1.91-3.58-.78-2.65-1.45-3.84-1.53-2.24-2.25-3.4-2-1.87-2.82-3-.58-2.91-1.39-4-1.61-2.2-2.46-3.26-1.88-2-2.78-3-2.48-1.39-3.42-2.37-1.21-2.62-2.19-3.56-2.26-1.56-3.27-2.46-1.92-1.92-3-2.79-1.94-1.93-3-2.76-2.53-1.1-3.59-1.92-2-1.78-3.06-2.6-1.81-2.05-2.87-2.86-2.59-1-3.64-1.85l-3.19-2.44c-1.07-.82-2.14-1.62-3.2-2.44s-2-1.73-3.1-2.54-1.84-2-2.89-2.84-2.5-1.16-3.55-2-1.82-2-2.87-2.85-2.44-1.24-3.49-2-1.65-2.26-2.7-3.08-2.19-1.55-3.24-2.37-2-1.82-3-2.64-2.61-1-3.66-1.83-2.13-1.64-3.18-2.45-1.62-2.29-2.67-3.1-2.63-1-3.67-1.81-2-1.8-3.06-2.61-2.08-1.72-3.12-2.53l-3.17-2.47c-1.07-.84-1.91-1.94-3-2.75s-2.09-1.72-3.13-2.53-2.63-1-3.66-1.83-2.1-1.71-3.13-2.52-1.74-2.18-2.77-3-2.23-1.54-3.25-2.34-2.59-1.11-3.61-1.91-2-1.93-3-2.72S720,797.48,719,796.7s-1.44-2.64-2.42-3.41c-1.15-.9-2.57-1.27-3.52-2-1.22-1-2.58-1.4-3.46-2.09-2.05-1.61-2.25-2.84-2.25-2.84"/><path class="cls-2" d="M653.28,1024.68a18.31,18.31,0,0,0-.35,4c0,1.14.71,2.49.72,4,0,1.23-.11,2.58-.1,4,0,1.27-.42,2.62-.41,4s1.17,2.64,1.17,4-.66,2.66-.65,4,.2,2.66.21,4-.85,2.67-.84,4,.56,2.68.57,4-.17,2.68-.17,4-.06,2.69,0,4.05,0,2.69,0,4,.41,2.69.42,4-.41,2.7-.41,4,.42,2.7.42,4-.13,2.71-.13,4.05,0,2.71,0,4,.32,2.72.32,4.06-.43,2.71-.43,4,.75,2.72.75,4-.43,2.73-.43,4.05.06,2.74.06,4,.46,2.75.46,4-1.28,2.75-1.29,4,1,2.78,1,4c0,1.47-.43,2.81-.45,4,0,1.39.46,2.7.48,4s-.52,2.71-.45,4,.85,2.63,1,3.86c.17,1.39-.12,2.74.13,4a29.09,29.09,0,0,0,1.33,3.7c.42,1.31.18,2.81.74,4a27.67,27.67,0,0,0,2.41,3.18,34.86,34.86,0,0,0,2.53,3c.83,1,1.13,2.47,2.09,3.45s2.22,1.41,3.21,2.38,1.35,2.28,2.34,3.25,2.06,1.56,3,2.54,2.23,1.34,3.25,2.36,1.48,2.15,2.48,3.14,1.55,2.11,2.54,3.08,2.65,1,3.62,2,1.24,2.48,2.21,3.42,1.6,2.11,2.57,3,2.5,1.19,3.46,2.13,1.78,1.94,2.74,2.87,2.12,1.61,3.08,2.54,1.64,2.1,2.59,3,1.85,1.9,2.81,2.82,1.94,1.81,2.89,2.73,1.63,2.14,2.58,3,2.06,1.7,3,2.62,1.68,2.1,2.62,3l2.86,2.76c1,.94,2.51,1.25,3.45,2.15s2.25,1.53,3.19,2.43,1.29,2.54,2.21,3.43,1.75,2.09,2.66,3,2.81,1,3.71,1.87,1.63,2.3,2.5,3.14c1.1,1.05,2.34,1.69,3.15,2.46a7.08,7.08,0,0,1,2.11,2.9,16.15,16.15,0,0,0,1.5-3.33c.32-1,.91-2.14,1.22-3.49.26-1.12-.19-2.44,0-3.74s1.43-2.28,1.5-3.56-.2-2.47-.25-3.74-.26-2.44-.45-3.69"/><path class="cls-2" d="M617.47,1022.8c.25,2,.25,1.45.57,4,.14,1.14.93,2.41,1.12,3.93.16,1.23.4,2.56.59,4,.16,1.27.24,2.62.42,4s.49,2.6.67,4,.21,2.66.38,4,.16,2.67.34,4-.15,2.72,0,4.07.83,2.6,1,3.94.61,2.64.79,4,.42,2.67.6,4,0,2.74.16,4.07.66,2.64.84,4,.56,2.67.74,4,.45,2.69.63,4-.22,2.79,0,4.09.14,2.76.33,4,1,2.65,1.18,3.91c.22,1.44,0,2.84.2,4.06s.39,2.61.58,3.83.88,2.55,1.06,3.76.3,2.65.48,3.86.4,2.62.6,3.83.62,2.58.85,3.77c.27,1.35-.26,2.79.06,4s1.43,2.3,1.89,3.45a26.08,26.08,0,0,0,1.24,3.68,27.64,27.64,0,0,0,2.45,3,37.1,37.1,0,0,0,2.74,2.71c.91.93,1.13,2.54,2,3.48s2.3,1.44,3.17,2.37,1.49,2.24,2.34,3.17,2.09,1.74,2.91,2.64c1,1.09,1.84,2.09,2.57,2.93,1.61,1.81,1.71,1.1,3,2.58"/><path class="cls-2" d="M617.32,868.55c-.43,1.93.69,1.59.15,4.07-.24,1.09-1.7,2.12-2,3.6-.25,1.17-.3,2.51-.6,3.91-.27,1.21-.61,2.48-.91,3.84s-.43,2.54-.73,3.88-.28,2.59-.57,3.92-.44,2.56-.72,3.88-.59,2.53-.88,3.85,0,2.68-.24,4-1.24,2.4-1.52,3.71-.77,2.51-1,3.81-.05,2.67-.33,4-1.17,2.42-1.45,3.72,0,2.69-.28,4-.09,2.66-.37,4-.45,2.59-.73,3.88-1.48,2.37-1.76,3.67,0,2.69-.23,4-1.1,2.45-1.38,3.74-.3,2.63-.58,3.92-.34,2.62-.61,3.91-1.1,2.46-1.37,3.75,0,2.69-.31,4-1.23,2.44-1.5,3.72.4,2.79.13,4.07-1,2.49-1.29,3.77-.8,2.54-1.06,3.82-.8,2.54-1.06,3.82-.66,2.57-.92,3.85.15,2.73-.11,4-.37,2.63-.63,3.91-.08,2.69-.34,4-1.44,2.42-1.69,3.69-.13,2.69-.38,3.95-.37,2.65-.61,3.91-1.05,2.52-1.29,3.77-.05,2.73-.28,4-.08,2.71-.29,4-1.17,2.55-1.36,3.82.24,2.75.09,4-1.15,2.59-1.26,3.87.22,2.72.18,4-.51,2.7-.47,4,.1,2.71.24,4,.48,2.65.73,4,1.35,2.39,1.72,3.68-.09,2.79.38,4,1.54,2.21,2.1,3.45,1,2.39,1.66,3.61,1.44,2.31,2.11,3.55,1.45,2.32,2.13,3.55,1.38,2.36,2.07,3.57.65,2.79,1.34,4,1.43,2.36,2.12,3.55,1.93,2.08,2.62,3.26,1.48,2.35,2.17,3.52,1.34,2.44,2,3.6,1.58,2.32,2.26,3.46,1.34,2.48,2,3.6c.77,1.27,1.33,2.55,2,3.63.82,1.34,1.12,2.78,1.74,3.78,1.37,2.21,1.49,1.5,2.59,3.25"/><path class="cls-3" d="M.21,500.34A10.84,10.84,0,0,1,4,501.79c1,.55,2.08,1.5,3.48,2.3,1.09.61,2.6.77,3.91,1.53,1.12.65,1.79,2.24,3.07,3,1.13.66,2.56.95,3.82,1.69s2.11,1.76,3.35,2.49,2.77.68,4,1.41,2.39,1.31,3.61,2l3.56,2.14c1.16.69,2,1.92,3.26,2.65s2.17,1.71,3.38,2.44,2.83.61,4,1.34S46,526,47.19,526.75s1.88,2.2,3.08,2.93,2.29,1.53,3.49,2.26,2.27,1.57,3.47,2.29,2.28,1.57,3.48,2.29,2.46,1.26,3.66,2,2.93.48,4.13,1.21,2.15,1.76,3.35,2.49,2,2.07,3.16,2.8,2.59,1,3.79,1.77,2.3,1.52,3.49,2.24,2.62,1,3.81,1.75l3.54,2.18c1.17.72,2.26,1.58,3.45,2.31s2.28,1.57,3.47,2.3,2.66.94,3.84,1.67,2.18,1.73,3.37,2.46,1.86,2.25,3,3,2.32,1.51,3.5,2.24,2.34,1.47,3.53,2.2,2.5,1.19,3.69,1.92,2.75.79,3.94,1.52,2.26,1.59,3.45,2.32,2.5,1.21,3.68,1.94,1.82,2.32,3,3.05,3,.41,4.18,1.13,1.76,2.42,2.95,3.15,2.57,1.1,3.75,1.82,2.39,1.4,3.57,2.13,2.46,1.28,3.64,2,2.34,1.48,3.52,2.21,2.52,1.19,3.7,1.92,2.05,1.94,3.23,2.67,2.12,1.84,3.3,2.57,3,.44,4.16,1.17,1.88,2.23,3.06,3,2.23,1.64,3.42,2.37,2.85.64,4,1.37,1.94,2.13,3.12,2.86,2.82.71,4,1.44,2,2.06,3.16,2.79,2.67.94,3.85,1.67,2.38,1.41,3.57,2.14,2.44,1.31,3.62,2,2,2.05,3.17,2.77,2.34,1.49,3.52,2.21,2.18,1.75,3.36,2.48,2.67.94,3.85,1.67,2,2,3.21,2.69,2.46,1.29,3.63,2,2.48,1.26,3.65,2,2.25,1.63,3.43,2.36,2.18,1.72,3.36,2.45,2.71.89,3.88,1.61,2.48,1.26,3.66,2,2.4,1.38,3.58,2.11,2.44,1.31,3.62,2,2.15,1.78,3.33,2.51,2.27,1.6,3.45,2.32,2,2,3.2,2.72,3,.39,4.19,1.12l3.54,2.18c1.18.73,2.18,1.74,3.36,2.47s2.53,1.18,3.7,1.91,2.06,1.94,3.23,2.67,2.18,1.75,3.35,2.48,2.49,1.25,3.67,2,2,2.06,3.16,2.79,3,.49,4.13,1.22,2,2,3.22,2.71,2.51,1.2,3.69,1.93,2.59,1.09,3.76,1.82,2.18,1.76,3.36,2.49,2.07,1.92,3.24,2.66,2.82.71,4,1.44,1.92,2.18,3.1,2.91,2.4,1.39,3.58,2.12,2.57,1.11,3.75,1.85,2.15,1.81,3.32,2.54,2.58,1.11,3.76,1.84,2.33,1.52,3.5,2.25,2,2.11,3.14,2.84,2.53,1.18,3.71,1.91,2.48,1.27,3.66,2,2.31,1.53,3.49,2.26,2.26,1.63,3.43,2.36,2.17,1.77,3.35,2.5,2.52,1.19,3.7,1.92,2.55,1.15,3.73,1.88,2.71.91,3.88,1.64,2.3,1.56,3.48,2.29,2.31,1.53,3.49,2.27,1.71,2.5,2.89,3.23,3,.46,4.16,1.19,2.43,1.35,3.6,2.08,1.69,2.55,2.86,3.28,3,.41,4.2,1.14,2,2.06,3.16,2.79,2.57,1.13,3.75,1.86,2.3,1.56,3.48,2.29,2.45,1.31,3.62,2,2.27,1.61,3.45,2.34,1.94,2.13,3.12,2.86,2.63,1,3.81,1.76,2.44,1.32,3.62,2.05,2.14,1.82,3.31,2.56,2.3,1.56,3.47,2.29,2.7.92,3.88,1.65,2.15,1.8,3.32,2.53,2.44,1.33,3.62,2.06,2.06,1.94,3.24,2.67,2.85.68,4,1.41,2.34,1.49,3.52,2.22,2.34,1.5,3.51,2.23,1.9,2.2,3.07,2.93,2.88.63,4.05,1.36,2,2.06,3.16,2.79,2.67,1,3.84,1.7l3.52,2.22c1.18.73,1.9,2.21,3.07,2.93s2.37,1.45,3.54,2.17,2.7.92,3.87,1.65,2,2,3.18,2.76,3,.51,4.13,1.24,1.93,2.15,3.1,2.88,2.81.75,4,1.48,2.17,1.77,3.34,2.5,2.13,1.85,3.29,2.58,2.29,1.59,3.46,2.32,2.56,1.15,3.72,1.88,2.59,1.11,3.76,1.83,2.05,2,3.22,2.71,2.44,1.34,3.61,2.06,2.3,1.58,3.47,2.31,2.73.87,3.9,1.6,2.11,1.88,3.28,2.6,2.61,1.07,3.78,1.79,2.23,1.7,3.39,2.42,2.45,1.33,3.61,2.06,2.2,1.74,3.37,2.46,2,2.09,3.14,2.81,2.48,1.29,3.64,2,2.54,1.2,3.7,1.93,2.74.89,3.89,1.61,2.09,1.94,3.24,2.66,2.09,1.94,3.24,2.66,3,.52,4.13,1.23,2.06,2,3.21,2.73,2.53,1.23,3.68,1.95,2.47,1.35,3.61,2.06,2.47,1.37,3.6,2.08,2.14,1.9,3.27,2.6,2.1,2,3.21,2.7,2.86.83,4,1.52c1.28.8,2.32,1.75,3.38,2.41,1.37.85,2.43,1.77,3.41,2.39,2.31,1.43,3.48,2,3.48,2,1.32-1.58,1.68-1.28,3-2.86s.8-2,2.13-3.6,1.18-1.69,2.5-3.27,1.2-1.68,2.53-3.26,1.69-1.26,3-2.84,1-1.86,2.32-3.44,1.49-1.44,2.81-3,1.44-1.48,2.77-3.06,2-1,3.32-2.6.8-2,2.12-3.59,1.87-1.13,3.19-2.71,1.29-1.61,2.61-3.19.8-2,2.13-3.59,1.07-1.79,2.4-3.37,2-1,3.34-2.58,1.07-1.79,2.39-3.38.79-2,2.12-3.6,1.12-1.74,2.45-3.32,2.25-.8,3.58-2.39.52-2.25,1.84-3.83,1.56-1.38,2.88-3,2-1,3.33-2.6.89-1.94,2.22-3.52,1.79-1.19,3.11-2.77.9-1.93,2.22-3.51,1.1-1.77,2.42-3.35,1.88-1.11,3.2-2.69,1.28-1.62,2.61-3.2,1.35-1.56,2.67-3.14.52-2.26,1.84-3.84,2.12-.91,3.45-2.49.66-2.14,2-3.72,1.5-1.44,2.83-3,1.56-1.38,2.88-3,1.34-1.57,2.66-3.15,1.57-1.38,2.9-3,.47-2.29,1.8-3.87,2.2-.85,3.52-2.44.83-2,2.16-3.58.8-2,2.13-3.61,3.4-.66,3.33-2.72-1.92-1.17-3.35-2.67-1-2-2.4-3.46-1.12-1.8-2.56-3.3-2-.95-3.45-2.45-1.57-1.37-3-2.87-.94-2-2.38-3.47-2.12-.84-3.56-2.34-.94-2-2.37-3.48-1.41-1.53-2.84-3-1.89-1.07-3.33-2.57l-2.87-3c-1.43-1.5-.59-2.3-2-3.8s-1.49-1.44-2.92-2.94-1.48-1.46-2.91-3-1.54-1.4-3-2.9-1.46-1.48-2.89-3-1.7-1.25-3.13-2.75-1.15-1.77-2.59-3.28-1.73-1.21-3.17-2.71-1.74-1.21-3.17-2.71-1.54-1.41-3-2.91-1-1.91-2.44-3.42-1.36-1.58-2.79-3.08-1.67-1.28-3.11-2.78-1.6-1.34-3-2.85-.61-2.29-2.05-3.79-1.5-1.44-2.93-2.94l-2.88-3c-1.43-1.5-2.3-.68-3.73-2.18s-.89-2-2.33-3.52-1.18-1.74-2.61-3.24-1.91-1.05-3.34-2.55-1.73-1.22-3.16-2.72-1.21-1.71-2.64-3.21-1.16-1.77-2.59-3.27-1.8-1.15-3.23-2.65-1.05-1.87-2.48-3.37-1.39-1.54-2.82-3-1.85-1.1-3.28-2.6-1.55-1.39-3-2.89l-2.87-3c-1.43-1.5-.83-2.07-2.26-3.57s-1.49-1.45-2.93-3-1.4-1.53-2.83-3-2-1-3.43-2.46-1.25-1.67-2.69-3.17-1.52-1.41-3-2.91-1.62-1.33-3-2.83-.5-2.39-1.94-3.89-2-.92-3.47-2.42-1.59-1.34-3-2.84-.87-2-2.31-3.54-2.09-.87-3.52-2.37-1.08-1.84-2.51-3.34-1.63-1.32-3.07-2.82-.71-2.19-2.14-3.69-2.39-.6-3.82-2.1-.49-2.4-1.92-3.91l-2.87-3c-1.44-1.51-1.63-1.33-3.06-2.83s-1.27-1.66-2.7-3.17-1.89-1.07-3.33-2.57-2-1-3.39-2.51-.76-2.14-2.2-3.64-1.25-1.68-2.68-3.18-2.1-.87-3.54-2.37-.76-2.14-2.2-3.64-1.94-1-3.37-2.52-1.8-1.15-3.24-2.65-1.15-1.77-2.59-3.27-1.35-1.57-2.79-3.07-.82-2.08-2.26-3.58-2-1-3.41-2.49-1-1.87-2.47-3.37-1.79-1.16-3.23-2.66-1-1.91-2.43-3.41-1.92-1-3.35-2.55-.82-2.08-2.25-3.58-2.21-.77-3.64-2.27-.79-2.11-2.23-3.61-1.95-1-3.39-2.51-1.05-1.87-2.48-3.37-1.78-1.17-3.21-2.67-1.25-1.68-2.69-3.18-1.35-1.58-2.78-3.09-1.18-1.75-2.61-3.25-1.76-1.19-3.2-2.69-1.42-1.52-2.85-3-1.67-1.28-3.11-2.78-1.77-1.18-3.21-2.68-.89-2-2.32-3.53-1.92-1-3.36-2.54-1.21-1.72-2.65-3.22-1.6-1.35-3-2.85-.75-2.16-2.18-3.66-1.8-1.16-3.24-2.66-1.13-1.79-2.56-3.29-1.31-1.62-2.75-3.12-2.18-.79-3.61-2.29-1.43-1.51-2.86-3-1.25-1.68-2.68-3.18-1.75-1.2-3.19-2.7-1-1.91-2.45-3.41-1.45-1.48-2.89-3-1.07-1.85-2.5-3.35-1.34-1.6-2.77-3.1-1.66-1.29-3.09-2.79-1.35-1.58-2.79-3.08-1.75-1.2-3.18-2.7-1.26-1.67-2.7-3.18-1.59-1.35-3-2.86-1-1.95-2.41-3.45-1.46-1.48-2.89-3-2.33-.65-3.76-2.15-.78-2.14-2.21-3.64-1.52-1.43-2.95-2.93-1.87-1.09-3.31-2.59-.92-2-2.35-3.5-1.53-1.41-3-2.91-2-1-3.39-2.5-.58-2.33-2-3.83-2.44-.54-3.87-2-.7-2.21-2.13-3.71-1.86-1.1-3.29-2.61-1.55-1.39-3-2.89-1.31-1.62-2.74-3.12-1.23-1.71-2.66-3.21-1.46-1.48-2.89-3-1.94-1-3.38-2.52-1.08-1.84-2.52-3.34-1.22-1.71-2.66-3.21-1.7-1.25-3.14-2.75-.85-2.07-2.28-3.57-1.95-1-3.39-2.52-1.07-1.85-2.5-3.35-1.29-1.64-2.73-3.15-1.86-1.09-3.3-2.59-.92-2-2.35-3.5-2.36-.62-3.79-2.12-.6-2.3-2-3.81-1.89-1.07-3.33-2.57-.92-2-2.36-3.49-1.7-1.25-3.13-2.76-1.4-1.53-2.84-3-1.59-1.36-3-2.86-2-.93-3.48-2.43-1.13-1.8-2.57-3.3-1.74-1.21-3.17-2.71-.89-2-2.32-3.54-1.36-1.58-2.8-3.08-1.63-1.31-3.07-2.81-.9-2-2.34-3.51-2.18-.8-3.61-2.3-.85-2.07-2.28-3.57-1.53-1.41-3-2.91-1.35-1.58-2.79-3.09-1.55-1.39-3-2.89-1.65-1.3-3.09-2.8-1.71-1.25-3.15-2.75-.74-2.16-2.18-3.66-2-1-3.45-2.45-.93-2-2.36-3.5-1.94-1-3.38-2.52-1.48-1.46-2.91-3-.89-2-2.33-3.54-1.95-1-3.38-2.51-1.64-1.31-3.08-2.82-.65-2.25-2.08-3.76-2.15-.82-3.59-2.33-1.48-1.45-2.92-3-.86-2.06-2.3-3.56-1.47-1.47-2.9-3-1.54-1.41-3-2.92-1.68-1.26-3.12-2.77-1.32-1.61-2.76-3.12-1.73-1.21-3.17-2.72-.64-2.26-2.08-3.77-2-1-3.42-2.48-1.09-1.84-2.52-3.34-1.38-1.56-2.82-3.06-1.72-1.23-3.16-2.73-1.85-1.11-3.29-2.61-.57-2.33-2-3.84-1.38-1.55-2.81-3.05-2.11-.85-3.54-2.35-1-1.95-2.41-3.45-1.86-1.1-3.29-2.6-1.78-1.18-3.21-2.68-1.4-1.54-2.84-3.05-.52-2.38-2-3.88-1.44-1.51-2.87-3-2.13-.84-3.57-2.34-1.65-1.29-3.09-2.79-.73-2.17-2.17-3.68-2-1-3.4-2.49-.92-2-2.36-3.49-1.51-1.43-3-2.93-1.31-1.62-2.75-3.13-1.65-1.3-3.09-2.8-1.3-1.63-2.74-3.14-1.65-1.29-3.09-2.79-1-2-2.39-3.47-2.34-.64-3.77-2.14-.83-2.08-2.27-3.59-1.85-1.1-3.29-2.6-1.62-1.33-3.06-2.83-1.18-1.76-2.62-3.26-1-2-2.4-3.46-2-1-3.4-2.5-1.2-1.72-2.64-3.23-1.88-1.07-3.32-2.58-1.28-1.65-2.72-3.16S96.44,101,95,99.46s-1.12-1.82-2.55-3.32-1.89-1.07-3.33-2.57-.66-2.25-2.1-3.75-2.15-.83-3.59-2.33-.91-2-2.35-3.51-2.11-.86-3.55-2.36-.69-2.23-2.13-3.73-2.19-.78-3.63-2.29-1.41-1.53-2.85-3-1.58-1.37-3-2.87-1.14-1.8-2.58-3.3-1-1.89-2.48-3.39S59,61.89,57.57,60.39s-.93-2-2.37-3.5S53.59,55.55,52.15,54,50.44,52.81,49,51.3s-1-1.89-2.46-3.39-2-1-3.45-2.46-1.23-1.7-2.67-3.21-1.06-1.87-2.5-3.37-1.78-1.17-3.22-2.68-1.43-1.51-2.87-3-1.14-1.79-2.58-3.3-1.8-1.15-3.24-2.66-1.31-1.63-2.75-3.14S21.38,23,19.94,21.49s-.55-2.36-2-3.86-1.5-1.45-2.94-2.95-2.29-.7-3.73-2.21S9.79,11,8.35,9.51,7.73,7.22,6.28,5.72,4.44,4.59,3,3.09,1.62,1.51.18,0"/><path class="cls-4" d="M0,500.52c1.77,1.08,2.05.62,3.82,1.71s2,.77,3.73,1.85,1.6,1.35,3.37,2.44,1.95.79,3.72,1.88,1.32,1.81,3.08,2.9,1.59,1.38,3.36,2.47,1.82,1,3.58,2.09,2.41.06,4.18,1.15,1.63,1.3,3.4,2.39,1.21,2,3,3.08,2,.71,3.77,1.8,1.81,1,3.58,2.12,1.87.92,3.64,2,1.37,1.73,3.14,2.82,2.47-.05,4.24,1,1.68,1.23,3.45,2.32,1.64,1.29,3.41,2.38,1.51,1.52,3.27,2.61,1.84,1,3.6,2.07,1.9.88,3.67,2,1.56,1.41,3.33,2.5,2.25.31,4,1.39,1.5,1.53,3.26,2.62,1.88.9,3.65,2,1.64,1.29,3.41,2.38,1.83,1,3.6,2.08,1.53,1.46,3.3,2.55,2,.63,3.81,1.72,1.73,1.16,3.49,2.25,1.64,1.31,3.41,2.4,1.56,1.41,3.33,2.5,1.74,1.14,3.5,2.23,2.2.4,4,1.49,1.2,2,3,3.1,1.79,1,3.56,2.13,1.81,1,3.58,2.12,2,.63,3.82,1.72,1.41,1.68,3.18,2.77,2.18.41,3.95,1.5,2,.74,3.76,1.83,1.48,1.55,3.25,2.64,2.16.45,3.93,1.54,1.54,1.45,3.31,2.54,1.93.82,3.7,1.91,1.67,1.24,3.44,2.33,1.38,1.72,3.14,2.81,2.11.54,3.88,1.63S168,604,169.72,605s2.15.47,3.92,1.56,1.79,1.06,3.55,2.15,1.75,1.13,3.52,2.22,1.74,1.13,3.51,2.22,1.95.79,3.72,1.88,1.47,1.57,3.24,2.66,1.35,1.78,3.12,2.87,2.33.17,4.1,1.26,1.9.88,3.67,2,1.2,2,3,3.11,1.89.9,3.66,2,2.12.51,3.89,1.6,1.46,1.6,3.22,2.69,2,.75,3.75,1.84,1.32,1.81,3.09,2.89,2,.69,3.78,1.78,1.82,1,3.59,2.11,1.9.87,3.67,2,1.47,1.58,3.23,2.67,2.11.55,3.88,1.64,1.84,1,3.61,2.07,1.93.83,3.7,1.92,1.58,1.39,3.35,2.48,1.25,1.93,3,3,2.28.26,4,1.35,1.68,1.24,3.44,2.33,1.81,1,3.57,2.12,1.89.89,3.66,2,1.25,1.94,3,3,1.67,1.24,3.44,2.33,2.18.44,4,1.53,1.83,1,3.6,2.07,1.47,1.59,3.24,2.68,2.26.29,4,1.38,1.43,1.63,3.2,2.72,1.71,1.19,3.48,2.28l3.54,2.18c1.77,1.09,2,.75,3.74,1.84s1.91.86,3.68,2,1.47,1.59,3.23,2.68,1.81,1,3.58,2.12,1.44,1.62,3.21,2.71l3.54,2.18c1.77,1.09,1.78,1.07,3.55,2.16s2,.64,3.82,1.73,2,.66,3.8,1.75,1.54,1.47,3.31,2.56,1.87.93,3.63,2,1.73,1.17,3.5,2.26,1.5,1.52,3.27,2.61,1.67,1.26,3.44,2.35,2,.77,3.74,1.86,1.7,1.2,3.46,2.29,1.65,1.3,3.42,2.39,1.94.81,3.71,1.9,2.14.48,3.91,1.57,1.32,1.82,3.09,2.91,2.1.56,3.87,1.65,1.61,1.35,3.38,2.44,1.73,1.16,3.5,2.25,2.27.28,4,1.37,1.47,1.57,3.24,2.66,2,.68,3.79,1.78,1.64,1.3,3.41,2.39,1.66,1.26,3.43,2.35,1.85,1,3.62,2.05,1.34,1.8,3.1,2.89,2,.73,3.76,1.82,1.81,1,3.58,2.1,1.44,1.63,3.2,2.71,2.24.34,4,1.43,1.56,1.43,3.33,2.52,2.2.39,4,1.48,1.09,2.2,2.86,3.29,2.42,0,4.19,1.13,1.4,1.68,3.17,2.77,1.91.87,3.67,2,1.73,1.15,3.5,2.24,1.69,1.23,3.45,2.32,1.85,1,3.61,2.06,1.49,1.55,3.26,2.64,1.92.85,3.69,1.94,2.2.4,4,1.49,1.18,2,2.95,3.13,2.2.39,4,1.48,2,.79,3.73,1.88,1.67,1.24,3.44,2.34,1.24,1.95,3,3,2.21.38,4,1.47,1.89.89,3.66,2,1.61,1.36,3.38,2.45,1.39,1.71,3.16,2.8,2.15.47,3.92,1.56,1.41,1.68,3.18,2.77,2,.67,3.81,1.76,1.71,1.19,3.48,2.28,2.1.56,3.87,1.65,1.64,1.3,3.41,2.39,1.39,1.71,3.16,2.81,2,.78,3.73,1.87,1.66,1.28,3.43,2.37,2,.74,3.76,1.83,1.63,1.32,3.4,2.41,1.79,1.07,3.56,2.16,1.92.85,3.69,1.94,1.57,1.42,3.34,2.51,1.61,1.36,3.38,2.45,2,.68,3.79,1.77,2,.73,3.76,1.83,1.66,1.27,3.43,2.36,1.55,1.47,3.32,2.56,1.64,1.29,3.42,2.38,1.73,1.16,3.5,2.25,1.92.86,3.69,2,1.63,1.32,3.41,2.41,1.72,1.16,3.49,2.26,1.91.87,3.69,2,1.92.85,3.69,1.95l3.55,2.18c1.77,1.1,1.79,1.06,3.57,2.15a21.13,21.13,0,0,0,3.78,1.71c1.9.85-1.46-.32-3.35-2.32-.79-.85-2-1.63-3.11-2.81-.86-.91-1.43-2.28-2.48-3.39-.89-.94-1.63-2.16-2.65-3.24s-2.19-1.66-3.2-2.72-1.31-2.51-2.3-3.57-2.32-1.56-3.31-2.61-1.67-2.19-2.65-3.24-2.05-1.84-3-2.88-2-1.93-2.93-3-1.7-2.17-2.67-3.21-2.06-1.84-3-2.87-2-1.9-3-2.93-1.13-2.72-2.1-3.75-2.15-1.77-3.11-2.79-1.67-2.23-2.63-3.26-2.19-1.73-3.15-2.76-2.07-1.86-3-2.88-1.6-2.29-2.56-3.32-2.26-1.67-3.22-2.7-1.57-2.32-2.54-3.34-2.1-1.82-3.06-2.85-1.73-2.18-2.69-3.2-2-1.93-2.95-3-1.77-2.13-2.73-3.15-2-1.89-3-2.92-1.74-2.16-2.7-3.18-2.15-1.79-3.11-2.82-2.2-1.73-3.16-2.75-1.13-2.75-2.09-3.77-2.85-1.13-3.8-2.15-1.17-2.71-2.13-3.73-2.34-1.61-3.29-2.63-1.62-2.29-2.58-3.31-2-2-2.91-3-1.76-2.16-2.71-3.19S493,757.6,492,756.58s-1.86-2.07-2.81-3.09-1.12-2.76-2.08-3.78-1.75-2.17-2.71-3.19-2.18-1.76-3.13-2.79-1.72-2.19-2.68-3.22-1.81-2.1-2.77-3.13-2.08-1.85-3-2.87-2.53-1.44-3.49-2.46-1.74-2.17-2.7-3.19-1.94-2-2.9-3-1.42-2.47-2.37-3.49-2.31-1.65-3.27-2.67-1.65-2.25-2.61-3.27-1.69-2.22-2.64-3.24-2.27-1.68-3.22-2.7-1.91-2-2.86-3-1.73-2.19-2.68-3.21-2.37-1.59-3.33-2.61-1.49-2.4-2.45-3.42-2.34-1.62-3.3-2.64-1.22-2.66-2.18-3.68-2.24-1.72-3.19-2.74-1.47-2.43-2.43-3.45-1.93-2-2.88-3-2.65-1.32-3.61-2.34l-2.84-3.06c-.95-1-1.16-2.72-2.11-3.74s-2.18-1.77-3.14-2.79-2.15-1.79-3.11-2.81-1.17-2.72-2.12-3.74-2.33-1.63-3.29-2.65-1.68-2.23-2.63-3.25-2.37-1.6-3.33-2.62-2.12-1.82-3.08-2.84-1.73-2.19-2.69-3.21-2.14-1.81-3.09-2.84-1.73-2.19-2.68-3.22-1.18-2.71-2.13-3.73-2.37-1.62-3.33-2.64-2.08-1.82-3-2.78-1.73-2.18-2.7-3.11-1.94-2-2.95-2.87-2.16-1.72-3.2-2.57-1.8-2.19-2.88-3-2.87-.75-4-1.51-2-2-3.11-2.72-2.19-1.77-3.37-2.41-2.6-1-3.82-1.58-2.77-.51-4-1-2.54-1-3.83-1.37-2.5-1.43-3.83-1.68-2.73-.73-4.07-.86-2.81.92-4.16.93-2.77-.54-4.13-.39-2.58,1.07-3.92,1.37a43.75,43.75,0,0,0-8,1.9c-1.24.53-2.31,1.47-3.53,2.13s-2.63.9-3.79,1.66-2.34,1.47-3.47,2.25-2.18,1.71-3.3,2.5-2.39,1.39-3.51,2.18-1.85,2.2-3,3-2.14,1.84-3.31,2.54-2.47,1.34-3.69,2-2.57,1.16-3.84,1.65-2.88.08-4.21.4a24.84,24.84,0,0,1-4,.6c-1.36.09-2.76.82-4.15.66a25.09,25.09,0,0,1-4-1.34,26.51,26.51,0,0,1-3.75-1.67,31.44,31.44,0,0,1-3.68-1.83c-1.1-.71-1.9-1.91-3-2.81s-2.3-1.42-3.35-2.41-2.31-1.5-3.29-2.55-1.1-2.63-2-3.73-2.47-1.47-3.34-2.6-1.57-2.23-2.4-3.38-1.81-2.06-2.6-3.24-.91-2.66-1.68-3.85-1.68-2.16-2.41-3.37-1.84-2.11-2.56-3.34-1.34-2.42-2-3.65-1.23-2.48-1.91-3.72-1.26-2.46-1.93-3.71-.87-2.67-1.52-3.91-.72-2.75-1.37-4-2.28-1.94-2.92-3.19-1.54-2.32-2.18-3.57-.65-2.79-1.29-4-1.22-2.49-1.86-3.74-1-2.6-1.65-3.84-1.3-2.45-1.94-3.7-1.2-2.51-1.85-3.75-2.13-2-2.78-3.26-.29-3-.94-4.22-2.39-1.89-3-3.12-.12-3.1-.78-4.33-2-2.09-2.65-3.31-1.82-2.18-2.5-3.39-1-2.64-1.68-3.84-.76-2.79-1.45-4-2.4-1.83-3.11-3-1.07-2.61-1.79-3.79-.79-2.8-1.53-4-1.93-2.09-2.69-3.26-1.23-2.53-2-3.68-1.42-2.43-2.21-3.57-2.07-2-2.88-3.08-1.2-2.61-2-3.71-1.67-2.27-2.53-3.34-1.91-2.09-2.8-3.13-2.58-1.47-3.5-2.49-1.6-2.34-2.56-3.32-1.8-2.18-2.81-3.11-2.56-1.34-3.61-2.21-2.1-1.84-3.2-2.65-1.95-2.12-3.11-2.85-2.26-1.78-3.48-2.4-2.66-1.06-3.94-1.57a36.91,36.91,0,0,0-4.08-1c-1.36-.36-2.83,0-4.2-.16s-2.69-1.24-4.09-1.24-2.81.14-4.1.24-2.77.44-4,.66a37.16,37.16,0,0,0-4.07.67c-1.36.4-2.3,1.76-3.5,2.28a31.18,31.18,0,0,0-3.75,1.51,30.66,30.66,0,0,0-3.39,2.25,34.87,34.87,0,0,0-3.11,2.64c-1,1-1.24,2.54-2.09,3.57s-2.76,1.3-3.57,2.36-1,2.69-1.79,3.76-1.42,2.39-2.27,3.41a33.28,33.28,0,0,1-2.95,2.88,21.19,21.19,0,0,1-3.32,2.42c-1.12.71-2.57.69-3.9,1.14a16.33,16.33,0,0,1-3.8,1.28,22.11,22.11,0,0,1-4-.05,8.27,8.27,0,0,1-4.11-.93,16,16,0,0,1-3.4-2.64c-.85-1-.79-2.78-1.61-4-.73-1.09-2-1.91-2.75-3.2s-1.29-2.4-1.92-3.71-1-2.57-1.53-3.89-.88-2.59-1.41-3.92-1.05-2.53-1.55-3.87-1.23-2.47-1.71-3.81-1-2.58-1.44-3.92-1.12-2.53-1.57-3.87-.1-2.87-.54-4.21-.65-2.69-1.07-4-1.26-2.5-1.68-3.84-.42-2.76-.83-4.1-1-2.59-1.42-3.93-.57-2.72-1-4-1.92-2.31-2.33-3.65-.16-2.85-.58-4.18-.42-2.77-.84-4.1-1.88-2.32-2.3-3.65.17-3-.25-4.29-.59-2.73-1-4.05-1.32-2.49-1.76-3.81-.41-2.8-.85-4.11-1.78-2.34-2.23-3.65-1.06-2.57-1.52-3.89-1.1-2.55-1.57-3.86-.42-2.8-.9-4.11-.49-2.79-1-4.09-1.25-2.5-1.76-3.79-1.11-2.56-1.64-3.84-.91-2.64-1.45-3.91-.75-2.72-1.31-4-1.46-2.4-2-3.66-2.09-2.1-2.69-3.34-.11-3.06-.73-4.29-1.31-2.48-2-3.7-2-2.07-2.71-3.27-1.52-2.33-2.23-3.51-.87-2.74-1.62-3.9-1.61-2.29-2.39-3.42-1.8-2.15-2.62-3.25-2.13-1.87-3-2.93-1.56-2.31-2.48-3.33-1.3-2.63-2.27-3.59"/><path d="M766.42,665.37a3.48,3.48,0,0,0-3.86-3.87,3.71,3.71,0,0,0-2.8,1.07,4.11,4.11,0,0,0,0,5.61c.75.75,1.66,1.83,2.81,1.83a4.81,4.81,0,0,0,3-1.6A4.14,4.14,0,0,0,766.42,665.37Z"/><path class="cls-2" d="M766.42,665.37a3.48,3.48,0,0,0-3.86-3.87,3.71,3.71,0,0,0-2.8,1.07,4.11,4.11,0,0,0,0,5.61c.75.75,1.66,1.83,2.81,1.83a4.81,4.81,0,0,0,3-1.6A4.14,4.14,0,0,0,766.42,665.37Z"/><path class="cls-3" d="M346.73,799.72a3.48,3.48,0,0,0-1.24-2.63c-.75-.75-1.48-1.58-2.62-1.58a4.56,4.56,0,0,0-3.16,1c-.75.75-.75,2-.75,3.16s-.08,2.48.67,3.23,2.09.73,3.24.73a3.85,3.85,0,0,0,2.84-1.12A3.78,3.78,0,0,0,346.73,799.72Z"/><path class="cls-5" d="M346.73,799.72a3.48,3.48,0,0,0-1.24-2.63c-.75-.75-1.48-1.58-2.62-1.58a4.56,4.56,0,0,0-3.16,1c-.75.75-.75,2-.75,3.16s-.08,2.48.67,3.23,2.09.73,3.24.73a3.85,3.85,0,0,0,2.84-1.12A3.78,3.78,0,0,0,346.73,799.72Z"/><path d="M468.35,903.69a3.55,3.55,0,0,0-1.14-2.7c-.75-.75-1.55-2-2.69-2a5,5,0,0,0-3.15,1.57c-.75.75-.74,2-.74,3.15s-.18,2.56.57,3.32a5.14,5.14,0,0,0,3.32,1.26c1.14,0,1.93-1.15,2.68-1.9A3.52,3.52,0,0,0,468.35,903.69Z"/><path class="cls-3" d="M785,1109.85a4.3,4.3,0,0,0-1.19-3,4.38,4.38,0,0,0-3-1.24,4.45,4.45,0,0,0-3.07,1.2,4.24,4.24,0,0,0-.89,3.07,4.36,4.36,0,0,0,.83,3.12c.75.75,2,.7,3.13.7a3.82,3.82,0,0,0,2.87-1A4.14,4.14,0,0,0,785,1109.85Z"/><path class="cls-1" d="M540.33,963.12a3.15,3.15,0,0,0-3.58-3.61,3.19,3.19,0,0,0-2.57,1c-.75.75-1.78,1.43-1.78,2.58a5,5,0,0,0,1.05,3.3c.75.75,2.16.69,3.3.69s2.56.06,3.31-.69S540.33,964.26,540.33,963.12Z"/><path d="M124.84,1007.48a4.58,4.58,0,0,0-1.69-2.92c-.75-.75-1.77-.64-2.92-.64s-2.25-.2-3,.55a4.08,4.08,0,0,0-.86,3,3.41,3.41,0,0,0,1.34,2.53c.75.75,1.38,1.87,2.52,1.87a4.7,4.7,0,0,0,3.15-1.26A4.89,4.89,0,0,0,124.84,1007.48Z"/><path class="cls-2" d="M124.84,1007.48a4.58,4.58,0,0,0-1.69-2.92c-.75-.75-1.77-.64-2.92-.64s-2.25-.2-3,.55a4.08,4.08,0,0,0-.86,3,3.41,3.41,0,0,0,1.34,2.53c.75.75,1.38,1.87,2.52,1.87a4.7,4.7,0,0,0,3.15-1.26A4.89,4.89,0,0,0,124.84,1007.48Z"/><path class="cls-1" d="M604,518c0-1.15-.84-1.84-1.59-2.59s-1.45-1.56-2.59-1.56a4.51,4.51,0,0,0-3.15,1c-.75.75-.5,2-.5,3.15a3.59,3.59,0,0,0,.85,2.8,4.18,4.18,0,0,0,2.8,1.55c1.15,0,1.84-1,2.59-1.76S604,519.13,604,518Z"/><path class="cls-6" d="M497.7,835.42a7,7,0,0,1-1.85-4.13c-.11-1.22.51-2.71.56-4.31a37.39,37.39,0,0,1,.81-4.16c.21-1.33-.56-3-.14-4.4s1.86-2.28,2.47-3.63a32.26,32.26,0,0,1,2.22-3.55,29.5,29.5,0,0,1,2.08-3.67,35.85,35.85,0,0,1,3.23-2.72c1-.93,1.46-2.54,2.65-3.43a39.61,39.61,0,0,1,3.46-2.53c1.17-.71,2.36-1.58,3.68-2.23s2.77-.69,4.14-1.25,2.71-.47,4-.86,2.53-1,3.83-1.25,2.64-.59,4-.74,2.7-.1,4-.14,2.67.34,4,.4,2.69-.21,4-.07,2.83-.69,4.16-.49,2.47,1.66,3.8,1.91,2.65.48,4,.76,2.82-.23,4.14.05,2.67.42,4,.7,2.52,1.21,3.85,1.45,2.69.37,4,.56,2.72.13,4.06.24,2.7-.36,4-.35,2.67.27,4,.17,2.79.54,4.13.29,2.4-1.48,3.72-1.88a29.08,29.08,0,0,0,3.69-1.62c1.31-.59,3.15,0,4.25-.77s1.42-2.69,2.39-3.6,3-1,3.8-2.1,1.08-2.63,1.72-3.85a33.16,33.16,0,0,0,1.47-3.84c.48-1.26.29-2.72.66-4.06s.75-2.57,1-3.93.66-2.62.9-4,1.07-2.58,1.29-3.94.6-2.67.82-4,0-2.78.24-4.13.5-2.7.81-4,1-2.56,1.43-3.88,1-2.54,1.46-3.82,1.21-2.42,1.79-3.66.5-2.8,1.21-4a37.35,37.35,0,0,1,2-3.69,36.33,36.33,0,0,1,2.7-3.2c.93-.95,2.82-.92,3.91-1.81s1.55-2.74,2.7-3.49,3-.53,4.23-1.15a40.65,40.65,0,0,1,3.87-1.56c1.34-.51,2.47-1.49,3.8-1.87s2.79-.47,4.16-.76,2.8-.31,4.18-.51,2.77-.55,4.16-.71,2.8-.48,4.18-.63,2.88.15,4.26,0,2.66-1.4,4-1.65,2.8-.36,4.13-.74a30.85,30.85,0,0,0,4.14-1c1.28-.57,2.08-2,3.26-2.76s2.5-1.22,3.53-2.26a24.59,24.59,0,0,0,2.95-3.06,31.57,31.57,0,0,0,2.07-3.71,35.72,35.72,0,0,0,2.1-3.75c.46-1.25,0-2.88.44-4.31s.28-2.73.58-4.18"/><path d="M887.11,1117.67a3.77,3.77,0,0,0-1.2-2.78,3.61,3.61,0,0,0-2.79-.94c-1.14,0-2.36-.15-3.11.6a4.82,4.82,0,0,0-1.46,3.12,5.91,5.91,0,0,0,4.57,4.57,4.82,4.82,0,0,0,3.12-1.46A4.35,4.35,0,0,0,887.11,1117.67Z"/><path class="cls-2" d="M887.11,1117.67a3.77,3.77,0,0,0-1.2-2.78,3.61,3.61,0,0,0-2.79-.94c-1.14,0-2.36-.15-3.11.6a4.82,4.82,0,0,0-1.46,3.12,5.91,5.91,0,0,0,4.57,4.57,4.82,4.82,0,0,0,3.12-1.46A4.35,4.35,0,0,0,887.11,1117.67Z"/><path class="cls-6" d="M647.84,636.82c.25,2-.12,1.46-.25,4a33.51,33.51,0,0,1-.26,4,35.07,35.07,0,0,1-.59,4c-.34,1.23-.83,2.46-1.34,3.78s-1.29,2.26-1.93,3.51a38.59,38.59,0,0,1-2,3.43c-.72,1.08-.92,2.58-1.81,3.66s-2.23,1.51-3.22,2.49-1.49,2.26-2.57,3.14-2.43,1.14-3.57,1.93-2.25,1.3-3.46,2-2.28,1.24-3.53,1.84-2,2-3.31,2.47a38.3,38.3,0,0,1-4,1.13,33.47,33.47,0,0,1-4,.73c-1.38.23-2.68,1-4,1.1s-2.74-.82-4.08-.92-2.85.62-4.18.39-2.72-.54-4-.88-2.55-1.09-3.85-1.49-2.58-.89-3.88-1.31-2.38-1.51-3.68-1.91-3,.41-4.28.06-2.6-.6-3.95-.86-2.62-.41-4-.54-2.63-1.13-4-1.1-2.64.67-4,.86a32.76,32.76,0,0,0-4,.54,38.86,38.86,0,0,0-3.76,1.58c-1.23.46-2.31,1.25-3.59,1.87s-2.8.84-4,1.56a37.27,37.27,0,0,0-3.47,2.43,32.08,32.08,0,0,0-2.93,3,36,36,0,0,0-5.33,6.53,36.38,36.38,0,0,0-1.83,3.84c-.52,1.32-.64,2.76-1,4.13s-1.56,2.55-1.84,3.94.3,2.94.09,4.35-.77,2.75-.94,4.16-.5,2.8-.66,4.21-.58,2.79-.76,4.19-.24,2.82-.46,4.22.56,3,.26,4.38-1,2.71-1.41,4.07-.91,2.71-1.45,4a36.61,36.61,0,0,1-1.45,4.08c-.68,1.22-2.05,2.07-2.91,3.23a31.61,31.61,0,0,1-3,3,33.79,33.79,0,0,1-3.06,2.87c-1.12.9-1.64,2.57-2.79,3.36s-2.65,1.18-3.86,1.87-2.88.56-4.14,1.17-2,2.36-3.33,2.89-2.64,1.1-4,1.57-2.84.46-4.18.9-2.9.17-4.25.58-2.68.9-4,1.3-2.69.93-4,1.35-2.61,1.16-3.93,1.62-2.4,1.64-3.7,2.16-3.07,0-4.33.65-2.22,1.87-3.42,2.6a37,37,0,0,0-3.58,2.25,34.31,34.31,0,0,0-3.36,2.6,36,36,0,0,0-3,3.07,37.34,37.34,0,0,0-2.32,3.58,36.35,36.35,0,0,0-2.39,3.57c-.58,1.22,0,3-.5,4.38s-1.24,2.47-1.64,3.88-.3,2.75-.6,4.19"/></g></g></g></svg>