<svg xmlns="http://www.w3.org/2000/svg" viewBox="0 0 1157.13 577.71"><defs><style>.cls-1{fill:none;stroke:#000;stroke-linecap:round;stroke-linejoin:round;stroke-width:4.33px;}.cls-2{fill:#8e9b91;}.cls-3{fill:#e6b49d;}.cls-4{fill:#677d70;}</style></defs><g id="Layer_2" data-name="Layer 2"><g id="sect1"><g id="hands"><path class="cls-1" d="M308.55,154.88c0,3.36.67,3.36.67,6.72s-.1,3.36-.1,6.72-.4,3.36-.4,6.72-.53,3.35-.53,6.71-.29,3.36-.29,6.72.25,3.36.25,6.72.1,3.36.1,6.72,1,3.37,1,6.73-.35,3.36-.35,6.73"/><path class="cls-1" d="M216.11,230.63c0,3.72-.72,3.72-.72,7.45s.14,3.73.14,7.46.39,3.72.39,7.45.27,3.73.27,7.46-.49,3.72-.49,7.45"/><path class="cls-2" d="M331.27,47c-2.32,2.45.07,3.39-.33,6.73s-.26,3.36-.66,6.71-.41,3.34-.81,6.69-.34,3.35-.74,6.7-.75,3.3-1.15,6.65-1.37,3.23-1.78,6.58.74,3.48.34,6.82-1.08,3.27-1.48,6.62.48,3.45.08,6.79-1.29,3.24-1.69,6.59-.56,3.32-1,6.67-.6,3.32-1,6.67.75,3.48.35,6.83-1.48,3.22-1.89,6.56-.15,3.38-.55,6.73-.14,3.38-.54,6.73-3.63,4.8-.94,6.84c2.91,2.21,3.51-1.52,7-2.51s3.69-.36,7.21-1.35,3.53-1,7.05-1.94,3.58-.79,7.1-1.77,3.44-1.25,7-2.24,3.49-1.1,7-2.09,4.21.36,6.64-2.38.49-3.17.92-6.65,1.4-3.36,1.83-6.84-.19-3.56.25-7,.33-3.49.77-7,.28-3.5.71-7,1-3.41,1.41-6.89.14-3.52.57-7,.35-3.49.78-7-.11-3.55.32-7,.93-3.41,1.36-6.89,0-3.54.39-7,1.54-3.35,2-6.83.19-3.51.62-7,.07-3.52.5-7,.32-3.5.76-7,4.12-5,1.46-7.29-3.79,1.44-7.33,2.26-3.58.62-7.13,1.43-3.59.6-7.13,1.42-3.55.76-7.09,1.58-3.4,1.43-6.95,2.24-3.59.53-7.22.73S333.78,44.36,331.27,47Z"/><path class="cls-3" d="M91.38,199.12c.38,3.38,3.29.43,6.62,1.11s3.23,1.21,6.57,1.89,3.47,0,6.81.67,3.4.37,6.74,1.05,3.19,1.4,6.53,2.07,3.4.38,6.73,1.05,3.18,1.5,6.51,2.17,3.59-.54,6.93.13,3.28,1,6.62,1.64,3.12,1.73,6.46,2.41,3.47,0,6.81.67,3.37.55,6.7,1.23,3.43.21,6.77.89l6.68,1.33c3.34.68,3.16,1.57,6.5,2.25s3.28,1,6.62,1.63,3.32.76,6.66,1.43,3.56-.4,6.9.28,3.4,3.14,6.74,2.46S221.12,223,224,221s2.49-2.56,5.39-4.52,3.52-1,6.42-3,2.91-1.93,5.82-3.88,3-1.84,5.87-3.79,2.31-2.84,5.21-4.79,2.82-2.07,5.72-4,3-1.82,5.89-3.77,2.78-2.14,5.68-4.09l5.8-3.91c2.9-1.95,3.42-1.18,6.32-3.14s2.75-2.17,5.65-4.12,2.78-2.13,5.68-4.09,2.6-2.41,5.5-4.36,3.21-1.5,6.12-3.46,7-.41,6.31-3.85-3.8-.57-7.19-1.18-3.5,0-6.9-.65-3.38-.68-6.77-1.29-3.37-.78-6.77-1.39-3.3-1.11-6.7-1.72-3.33-1-6.72-1.59-3.49-.11-6.89-.72-3.36-.81-6.75-1.42-3.38-.71-6.78-1.32-3.49-.06-6.89-.67-3.3-1.12-6.7-1.73-3.46-.24-6.85-.85l-6.8-1.22c-3.39-.61-3.27-1.28-6.67-1.88s-3.56.32-7-.29-3.33-1-6.73-1.58-3.36-.83-6.76-1.44-3.35-1-6.75-.33-3.12,1.29-6.17,3.13-3.33,1.35-6.38,3.18-2.92,2-6,3.87-3.05,1.81-6.1,3.65-2.63,2.52-5.67,4.36-3.55,1-6.59,2.84-2.45,2.83-5.49,4.66-3.62.87-6.67,2.7-2.57,2.63-5.61,4.46-3.36,1.32-6.41,3.15-3.2,1.57-6.25,3.41-3,1.86-6.07,3.7-2.76,2.3-5.81,4.14-3.19,1.59-6.24,3.42S100.65,194,97.25,195C93.48,196.18,91,195.58,91.38,199.12Z"/><path class="cls-1" d="M163.44,144.94c-2.91,1.77-3,1.7-5.87,3.47s-3.14,1.4-6,3.17-2.67,2.17-5.58,3.94-3.17,1.33-6.08,3.1-2.81,1.93-5.73,3.7-3,1.64-5.9,3.41l-5.83,3.54c-2.91,1.76-2.67,2.16-5.59,3.93s-2.88,1.82-5.79,3.59-2.78,2-5.69,3.76-3.24,1.23-6.16,3-2.73,2.08-5.64,3.85-6.14,0-5.51,3.33,3,.36,6.42,1,3.18,1.66,6.55,2.33,3.51,0,6.89.71,3.39.6,6.76,1.28,3.31,1,6.69,1.67,3.42.47,6.79,1.15,3.48.17,6.86.85,3.32.93,6.7,1.61,3.44.35,6.82,1,3.28,1.13,6.66,1.81,3.21,1.49,6.58,2.17,3.46.27,6.84,1,3.42.44,6.8,1.11,3.51,0,6.88.7,3.28,1.17,6.66,1.85,3.27,1.18,6.65,1.85,3.32,1,6.7,1.64,3.39.63,6.77,1.3,3.41,1,6.79.37,3.33-1,6.22-2.92,2.53-2.48,5.42-4.4,3-1.74,5.92-3.67,3.17-1.51,6.07-3.43,2.12-3.1,5-5,3.28-1.35,6.18-3.28,3.18-1.5,6.07-3.42,2.82-2,5.72-3.95,2.82-2.05,5.71-4,2.52-2.49,5.42-4.42,3.15-1.54,6.05-3.47,3.25-1.39,6.15-3.31S288,168,290.88,166s2.95-1.86,5.85-3.78,2.91-1.9,5.81-3.83,6.07,0,5.37-3.39-2.67-1.28-6.08-1.89-3.58.29-7-.32-3.45-.38-6.87-1-3.26-1.49-6.67-2.1-3.57.25-7-.35-3.4-.67-6.82-1.28-3.21-1.75-6.63-2.36-3.51,0-6.93-.65-3.55.12-7-.48-3.25-1.56-6.67-2.17"/><path class="cls-1" d="M308.1,154.83c.37-3.4.4-3.39.77-6.79s.38-3.4.75-6.79,1.21-3.31,1.58-6.71.42-3.39.79-6.79.47-3.39.84-6.79.3-3.4.67-6.8-.57-3.5-.2-6.9.93-3.34,1.3-6.74.88-3.34,1.25-6.74-.79-3.52-.42-6.92,1-3.33,1.34-6.73-.27-3.47.1-6.87.36-3.4.73-6.8,1.14-3.31,1.51-6.71.42-3.4.79-6.8.79-3.35,1.16-6.75,2.14-4.15,0-6.8-3.38-.83-6.9-1.28-3.47-.87-7-1.32-3.63.37-7.15-.08-3.47-.84-7-1.29-3.61.27-7.13-.18l-7.05-.89c-3.52-.45-3.52-.42-7-.87s-3.42-1.27-6.94-1.72-3.53-.39-7.05-.84-3.63.32-7.15-.13-3.46-.88-7-1.33-3.48-.75-7-1.2-3.56-.15-7.08-.6-3.43-1.19-7-1.64-3.6.13-7.12-.32-3.52-.5-7-.95-3.54-.27-7.06-.72-3.58,0-7.1-.48-3.43-1.22-7-1.67-3.5-.69-7-1.14"/><path class="cls-1" d="M190.52,15.18c3.28-.74,3.34-.5,6.62-1.24s3.2-1.16,6.48-1.9,3.3-.7,6.58-1.44,3.41-.2,6.7-.94,3.22-1.05,6.5-1.79,3.18-1.2,6.47-1.94,3.4-.25,6.69-1,3.37-.35,6.67-1.09,3.24-.94,6.53-1.68"/><path class="cls-1" d="M359.11,141.33c.39-3.4,1.12-3.32,1.51-6.72s.29-3.41.68-6.81.48-3.4.87-6.8.08-3.44.46-6.84.79-3.36,1.17-6.76-.46-3.5-.07-6.9.53-3.39.91-6.79.35-3.41.73-6.81,1.26-3.31,1.65-6.71.2-3.42.59-6.83.47-3.39.86-6.79.74-3.37,1.13-6.77,0-3.45.37-6.86.77-3.36,1.17-6.77a52.48,52.48,0,0,0,.14-6.83,37.43,37.43,0,0,0-.53-6.82,26.72,26.72,0,0,0-2.1-6.55,20.54,20.54,0,0,0-4.11-5.53c-1.56-1.51-3.92-2-6.1-3a25.32,25.32,0,0,0-6.27-2.29c-3.41-.47-3.41-.44-6.83-.87s-3.31-1.2-6.73-1.63-3.43-.31-6.84-.74-3.46-.08-6.88-.51-3.37-.78-6.78-1.22-3.41-.46-6.83-.89-3.39-.58-6.81-1-3.55.63-7,.2-3.42-.4-6.83-.83-3.33-1.11-6.75-1.55-3.38-.72-6.79-1.16-3.39-.58-6.81-1-3.59,1-7,.54-3.39-.63-6.81-1.06-3.44-.32-6.85-.75"/><path class="cls-1" d="M308.6,223.73c-2.89,1.92-2.73,2.17-5.62,4.1s-3.22,1.43-6.12,3.36-3.12,1.58-6,3.51-2.52,2.48-5.42,4.4-2.54,2.47-5.43,4.39-3.16,1.53-6.06,3.46-3.22,1.42-6.12,3.35-2.49,2.53-5.38,4.45-3.43,1.13-6.33,3.06-2.29,2.83-5.19,4.75-3.3,1.31-6.2,3.24-2.4,2.67-5.29,4.6-3.53,1-6.43,2.9-2.86,2-5.76,3.91-2.48,2.55-5.38,4.48-2.58,2.66-6,3.34-3.21-.85-6.59-1.53-3.6.47-7-.21-3.23-1.38-6.61-2.06-3.24-1.32-6.62-2-3.49-.1-6.86-.78-3.54.1-6.91-.58-3.23-1.42-6.61-2.09-3.45-.28-6.83-1-3.37-.72-6.74-1.39-3.23-1.41-6.61-2.09-3.45-.3-6.83-1-3.5-.06-6.87-.74-3.16-1.78-6.53-2.46-3.46-.24-6.84-.92-3.5-.07-6.88-.75-3.34-.86-6.71-1.54-3.2-1.54-6.58-2.22-3.4-.61-6.78-1.29-4.25,1.47-6.41-1.21-.48-3.17-.48-6.7.46-3.52.46-7,.06-3.52.06-7.05-.22-3.53-.22-7.05.21-3.53.21-7-.37-3.53-.37-7.06-.28-3.53-.28-7.06-.07-3.53-.07-7.06"/><path class="cls-1" d="M359.79,31.82c-3.58.79-3.59.78-7.17,1.58s-3.74.14-7.33.93-3.4,1.65-7,2.45-3.66.47-7.26,1.27"/><path class="cls-1" d="M359.93,142c-3.12.82-3.39-.21-6.51.61s-3.09.91-6.21,1.73-3.21.48-6.32,1.3-3,1.42-6.08,2.24-3,1.26-6.12,2.08-3.29.16-6.42,1-3,1.29-6.11,2.11"/><path class="cls-1" d="M101.1,193.63a33.66,33.66,0,0,1,5.75-4.36c1.73-1.11,3.61-2.78,6-4.09,2-1.06,4.36-1.69,6.72-2.76,2.08-.95,4.32-1.86,6.69-2.74,2.17-.81,4.36-1.91,6.76-2.61,2.25-.66,4.78-.42,7.21-.93s4.53-1.74,7-2,4.79-.12,7.25-.21,4.76.08,7.22.2,4.84-.37,7.28,0,4.54,1.71,6.94,2.27"/><path class="cls-1" d="M215.12,174.74c2-2.65,1.45-2.1,4.71-4.65a47.65,47.65,0,0,1,5.66-3.44,47,47,0,0,1,5.94-2.94c1.93-.75,4.17-.88,6.47-1.44a52.54,52.54,0,0,1,6.41-1.64c2.09-.26,4.29.1,6.62.05,2.11,0,4.31-.65,6.63-.48,2.12.15,4.37.08,6.66.43,2.1.33,4.25,1,6.5,1.48"/><path class="cls-1" d="M187.9,191c2.89-1.6,2.34-1.2,6.18-2.48a60.27,60.27,0,0,1,6.47-1.41,51.62,51.62,0,0,1,6.51-1.31c2.08-.16,4.3.58,6.61.69a51.3,51.3,0,0,1,6.48.89c2.08.39,4.41.11,6.58.82a51,51,0,0,1,6.1,2.6,52.4,52.4,0,0,1,6.07,2.76c1.79,1.12,3.13,3.09,4.93,4.51"/><path class="cls-1" d="M312.94,247.87c-3.19,1.26-2-.11-6.65,1.83-1.69.71-3.47,2.31-6,3.38-1.85.78-4.07,1.38-6.43,2.38-1.92.82-4.33,1-6.62,2-2,.83-3.85,2.22-6.09,3.18-2,.85-4,2-6.18,3-2,.86-4.35,1.18-6.55,2.13-2,.86-3.87,2.33-6.06,3.27-2,.87-4.41,1.09-6.59,2s-3.74,2.78-5.64,3.8c-2.06,1.11-4.27,1.75-6.06,2.94-1.94,1.3-3.92,2.45-5.57,3.82-1.8,1.51-2.64,3.86-4.11,5.42s-3.95,2.66-5.21,4.39a53.88,53.88,0,0,0-3.69,5.71c-1.11,2.08-1,4.62-1.7,6.6-.85,2.26-2.35,4.15-2.81,6.16a42.9,42.9,0,0,0-.54,6.73c-.35,4.12-3.43,6.17-.13,6.8s3.42-.29,6.75-.92,3.37-.37,6.69-1,3.14-1.63,6.46-2.26,3.43-.08,6.75-.71,3.34-.56,6.66-1.18,3.26-1,6.59-1.59,3.32-.66,6.64-1.29,3.34-.55,6.66-1.18,3.39-.32,6.71-.95,3.27-.93,6.59-1.56,3.28-.88,6.6-1.51,3.37-.35,6.7-1,3.37-.39,6.69-1,3.27-.92,6.6-1.55,3.4-.22,6.72-.85,3.18-1.4,6.51-2,3.3-.73,6.63-1.35,3.42-.14,6.74-.77,3.43-.12,6.76-.75,3.27-.91,6.6-1.54c2.3-.44,4.59-.47,6.75-.89s4.47-1.13,6.61-1.58c2.29-.47,4.31-1.84,6.44-2.33,2.28-.52,4.51-.87,6.63-1.41,2.27-.58,4.42-1.24,6.51-1.86,2.25-.67,4.71-.43,6.76-1.17s4.19-2,6.19-2.87,4.16-2,6.08-3.07,3.51-2.91,5.32-4.24a55.51,55.51,0,0,0,5-4.45c1.61-1.51,3.83-2.49,5.33-4.25s2.27-3.86,3.62-5.77,3.19-3.22,4.39-5.24c1.11-1.86,2.15-3.89,3.24-6,1-1.92,1.78-4.08,2.78-6.21.92-2,1.38-4.24,2.31-6.39s2.73-3.68,3.61-5.85"/><path class="cls-1" d="M275.08,312.18c-3.22,1.32-3.06,1.7-6.28,3s-3.05,1.7-6.26,3-3.23,1.3-6.44,2.62-3.22,1.31-6.43,2.64-3.63.31-6.85,1.64-2.91,2.06-6.12,3.38-3.34,1-6.55,2.36-3.19,1.38-6.4,2.71-3.43.8-6.65,2.13-2.95,1.95-6.17,3.27-3.44.77-6.66,2.1-3.14,1.49-6.36,2.81-3.13,1.54-6.34,2.86-3.29,1.16-6.5,2.48-3,1.79-6.24,3.11-3.4.87-6.61,2.2-3.07,1.68-6.29,3-3.09,1.61-6.31,2.94-3.47.7-6.69,2-3.39.89-6.61,2.22-3,1.95-6.17,3.28-3.43.81-6.65,2.14-2.76,3.24-6.25,3.22.15-2.76.32-7c.08-2-.3-4.37.16-7a48.33,48.33,0,0,1,1.25-6.9c.68-2.1,2.51-3.86,3.58-6.05,1-2,1.09-4.63,2.47-6.63,1.26-1.84,3.26-3.27,4.91-5.05,1.51-1.63,2.85-3.64,4.73-5.18a60.06,60.06,0,0,1,6-3.73c2-1.26,3.75-2.84,5.73-4.09l6-3.74c2-1.26,4.24-2.12,6.2-3.35s4.29-2.05,6.24-3.27,3.81-2.86,5.74-4.07,4-2.57,5.94-3.76c2.09-1.31,4.17-2.4,6.05-3.58,2.14-1.34,4-2.85,5.8-4,2.26-1.41,4.57-2.18,6.26-3.23,3.77-2.35,2.81-2.12,5.79-4"/><path class="cls-1" d="M147.24,328c-3.55-.37-3.58-.09-7.12-.45s-3.61.28-7.15-.08-3.51-.68-7-1-3.46-1.22-7-1.58-3.6.24-7.14-.13-3.48-.94-7-1.31-3.6.25-7.14-.12-3.6.13-7.14-.24-3.42-1.58-7-1.95-3.64.65-7.19.29-3.52-.59-7.06-1-3.54-.42-7.09-.78-3.61.2-6.74-1.5,1-1.77,3.15-5.44c1-1.74,1.46-4.34,3.1-6.39,1.35-1.7,3.64-2.83,5.46-4.54,1.62-1.52,3-3.6,5-5a47.79,47.79,0,0,1,6.33-3.11c2-1,4-2.51,6.33-3.21,2.14-.64,4.71.19,7.14-.16,2.21-.32,4.44-1.39,6.9-1.41,2.28,0,4.61.5,7,.48s4.61,0,7,0,4.62-.43,7-.45,4.63.57,7,.55,4.63-.87,6.95-.88,4.66.35,7,.34,4.66.54,7,.53,4.66-.87,7-.88,4.68.21,7,.2l7,0c2.38,0,4.71.55,7,.54,2.4,0,4.73-1.12,7-1.13,2.44,0,4.77.69,7,.69,2.5,0,4.83-.49,7-.49,2.65,0,5,.19,7,.19,4.42,0,6.3,0,6.3,0"/><path class="cls-1" d="M55.1,318.66c-3.26-.33-3.33.38-6.59,0s-3.21-.69-6.47-1-3.19-.95-6.45-1.28-3.3.15-6.56-.18-3.22-.64-6.48-1-3.32.26-6.57-.08-3.27-.29-6.53-.62-3.37,0-6.17-1.69c-3.12-1.92,1-2,3.69-5.66a65.34,65.34,0,0,1,4.8-5.53,64.24,64.24,0,0,1,10.8-9.93,57.08,57.08,0,0,1,6.51-3.48c2.13-1,4.65-1.24,7.06-2,2.25-.73,4.43-1.92,6.93-2.38a58.4,58.4,0,0,1,7.29-1c2.36-.13,4.71-.19,7-.32s4.69-.68,7-.81,4.72-.09,7-.22,4.74.09,7,0,4.72-.39,7-.52,4.71-.37,7-.5,4.73-.32,7-.45,4.75,0,7.05-.09,4.76.11,7,0,4.7-1.15,7-1.28,4.75-.34,7-.47l7-.4c2.46-.14,4.84.37,7.07.24,2.49-.14,4.83-.37,7-.49,2.55-.15,4.9-.25,7-.37,2.71-.16,5-1.09,7-1.21,4.56-.26,3.56.62,7.07.41"/><path class="cls-1" d="M117.27,279.57c-3.51-.66-3.44-1.05-7-1.71s-3.44-1-6.95-1.67-3.55-.48-7.06-1.14-3.51-.63-7-1.3-3.58-.28-7.09-.94-3.58-.3-7.09-1-3.32-1.65-6.83-2.32-3.59-.26-7.1-.92-3.62-.07-7.12-.74-3.44-1.05-7-1.71-3.5-.71-7-1.37-3.45-1-7-1.67-3.49-.77-7-1.43-4.15,1-7.2-.88c-2.68-1.66,1.43-2.43,4-5.18a47.52,47.52,0,0,1,4.87-4A36.2,36.2,0,0,1,33,248.29a30.87,30.87,0,0,1,5.66-2.61,27.85,27.85,0,0,1,6.14-1c2.34-.16,4.52-.54,6.59-.67,2.37-.14,4.56-.45,6.59-.56,2.44-.14,4.62-.62,6.59-.71,2.6-.13,4.8-.24,6.6-.3,4.54-.16,3.32.18,6.62.18"/><path class="cls-1" d="M315.68,240.08c.6-3.41.55-2.62,1.91-6.7.63-1.86,1.74-3.95,2.79-6.34.86-1.94,1.53-4.22,2.73-6.38,1.06-1.91,2.93-3.48,4.28-5.48,1.25-1.83,2.71-3.57,4.23-5.41s2.35-4,4-5.66,3.42-3,5.25-4.52a69.56,69.56,0,0,1,5.3-4.53c1.86-1.24,4.29-1.71,6.38-2.83s3.71-2.83,5.9-3.75,4.28-1.68,6.54-2.4,4.41-1.28,6.72-1.82,4.61-.2,7-.56"/><path class="cls-4" d="M1157.13,577.4c-.27,0-1.46-.49-3.79-1.31-1.08-.39-2.67-.06-4.18-.62-1.18-.43-2.45-1-3.87-1.5-1.21-.45-2.27-1.56-3.64-2.08s-2.58-.8-3.94-1.31-2.8-.26-4.14-.77-2.42-1.28-3.76-1.79-2.67-.63-4-1.13-2.1-2.13-3.43-2.64-2.77-.41-4.09-.92-2.74-.5-4-1-2.16-2-3.47-2.53-2.83-.28-4.15-.78-2.45-1.26-3.76-1.76-2.7-.65-4-1.16-2.36-1.51-3.66-2-2.58-.94-3.89-1.45-2.53-1.07-3.83-1.58-2.44-1.31-3.75-1.81-2.73-.57-4-1.08-2.81-.36-4.11-.86-2.24-1.83-3.54-2.34-2.59-1-3.89-1.45-2.8-.38-4.1-.89-2.29-1.7-3.59-2.21-2.81-.38-4.11-.89-2.46-1.26-3.75-1.77-2.43-1.37-3.72-1.88-2.69-.68-4-1.19-2.61-.89-3.91-1.39-2.46-1.27-3.76-1.78l-3.85-1.53c-1.28-.5-2.59-1-3.89-1.45s-2.72-.62-4-1.13-2.39-1.46-3.68-2-2.88-.22-4.17-.72-2.3-1.69-3.59-2.2-2.47-1.25-3.76-1.75-2.65-.8-3.95-1.3-2.9-.16-4.19-.67-2.18-2-3.47-2.5-2.69-.68-4-1.19-2.43-1.38-3.72-1.89-2.92-.09-4.21-.6-2.21-1.94-3.5-2.44-3,.1-4.29-.41-2.06-2.3-3.35-2.81-2.7-.7-4-1.2-2.76-.52-4-1-2.4-1.43-3.69-1.94-2.92-.11-4.21-.62-2.22-1.91-3.51-2.41-2.9-.17-4.19-.68-2.3-1.7-3.59-2.2-2.85-.31-4.14-.82-2.41-1.4-3.7-1.9-2.31-1.69-3.6-2.2-2.62-.87-3.91-1.37-2.62-.9-3.91-1.41-2.48-1.22-3.77-1.73-2.7-.69-4-1.2-2.38-1.49-3.67-2-2.69-.7-4-1.21-2.7-.69-4-1.19-2.29-1.73-3.58-2.24-2.64-.83-3.93-1.34-2.87-.24-4.16-.75-2.27-1.78-3.56-2.29-2.72-.63-4-1.14-2.76-.53-4-1-2.64-.82-3.93-1.33-2.52-1.12-3.81-1.62-2.56-1-3.85-1.54-2.62-.88-3.91-1.39-2.23-1.88-3.51-2.39-2.9-.19-4.18-.7-2.16-2.07-3.44-2.58-2.71-.68-4-1.18L852,458.82c-1.29-.51-2.54-1.11-3.83-1.61s-2.77-.51-4.06-1-2.62-.89-3.9-1.4-2.25-1.83-3.54-2.34-2.66-.79-3.94-1.3-2.73-.62-4-1.13-2.71-.68-4-1.19-2.66-.81-3.94-1.32-2.18-2-3.47-2.53-2.48-1.24-3.77-1.74-2.83-.37-4.12-.87l-3.85-1.55c-1.29-.51-2.32-1.65-3.61-2.16s-2.88-.24-4.17-.75-2.54-1.1-3.83-1.61-2.51-1.19-3.8-1.7-2.44-1.34-3.73-1.85-2.66-.81-3.95-1.32l-3.86-1.53c-1.29-.51-2.51-1.17-3.8-1.68s-3,0-4.25-.54-2.26-1.83-3.54-2.33-2.74-.61-4-1.11-2.73-.64-4-1.14-2.56-1.07-3.85-1.57-2.55-1.08-3.84-1.58-2.17-2.06-3.45-2.57-2.54-1.13-3.82-1.63-3,.05-4.29-.46-2.24-1.87-3.52-2.38-2.63-.9-3.92-1.41-2.94-.09-4.22-.6-2.14-2.13-3.43-2.63-2.81-.44-4.09-.95-2.43-1.39-3.72-1.9-2.61-.93-3.9-1.43-2.41-1.43-3.7-1.94-3,.07-4.29-.44-2.33-1.66-3.61-2.17-2.8-.46-4.08-1-2.64-.86-3.93-1.37-2.35-1.59-3.64-2.1-2.31-1.68-3.6-2.19-2.63-.89-3.91-1.4-3,0-4.26-.52-2.47-1.29-3.76-1.79-2.4-1.46-3.69-2-2.68-.76-4-1.27-2.67-.78-4-1.29-2.52-1.16-3.8-1.67-2.65-.85-3.93-1.36-2.41-1.45-3.69-2-2.87-.28-4.16-.79-2.37-1.52-3.66-2-2.69-.73-4-1.23L635.44,374c-1.29-.51-2.59-1-3.87-1.51s-2.41-1.43-3.7-1.94-2.69-.73-4-1.23-2.55-1.09-3.84-1.59-2.25-1.85-3.53-2.35-3,0-4.27-.5-2.44-1.36-3.72-1.87-2.3-1.72-3.58-2.22-3,0-4.27-.5-2.46-1.32-3.74-1.83-2.32-1.67-3.6-2.18-3-.07-4.23-.58-2.66-.79-3.94-1.3-2.26-1.83-3.54-2.33-2.87-.28-4.15-.79-2.41-1.45-3.69-2-2.44-1.38-3.72-1.88-2.93-.14-4.21-.65-2.29-1.76-3.56-2.26-2.54-1.15-3.81-1.65-2.5-1.23-3.78-1.74-2.77-.55-4.05-1.06-2.55-1.1-3.83-1.61-2.32-1.66-3.6-2.17-2.85-.35-4.12-.86-2.78-.54-4-1-2.14-2.16-3.41-2.66-3.06.16-4.33-.35-2.23-1.92-3.5-2.42-2.91-.21-4.18-.72l-3.86-1.5c-1.3-.51-2.39-1.53-3.66-2s-2.4-1.5-3.67-2-2.9-.24-4.16-.74-2.61-1-3.88-1.49-2.52-1.19-3.79-1.69-2.55-1.15-3.8-1.64-2.76-.64-4-1.14-2.59-1-3.84-1.54-2.43-1.51-3.67-2-2.58-1.14-3.82-1.63-2.89-.38-4.12-.87-2.52-1.33-3.74-1.81c-1.37-.54-2.75-.8-3.95-1.28-1.41-.56-2.27-2.13-3.43-2.59-1.49-.6-2.86-.9-3.93-1.32-2.53-1-3,.71-3.53-1.28s-.24-2-.24-4.06.16-2.1.16-4.2.12-2.1.12-4.2,0-2.1,0-4.2-1.1-2.1-1.1-4.2.68-2.1.68-4.2-.77-2.09-.77-4.19,1.17-2.11,1.17-4.21-.1-2.1-.1-4.2-.18-2.09-.18-4.19-.13-2.1-.13-4.2-.13-2.1-.13-4.21-.47-2.1-.47-4.19.19-2.1.19-4.2.17-2.11.17-4.21v-4.2c0-2.1-.43-2.1-.43-4.2s.19-2.1.19-4.2.16-2.1.16-4.2,0-2.1,0-4.2,0-2.1,0-4.21-.4-2.1-.4-4.2.44-2.1.44-4.2.07-2.1.07-4.2-.49-2.1-.49-4.2,1.14-2.1,1.14-4.2-.86-2.1-.86-4.2-.32-2.1-.32-4.2,1.06-2.1,1.06-4.2.3-2.11.3-4.21-.07-2.1-.07-4.2-1-2.11-1-4.21,0-2.1,0-4.2.35-2.1.35-4.21-.09-2.1-.09-4.2-.19-2.11-.19-4.21-1.32-2.9.22-4.34,2.18.3,4.24.48,2,.83,4.07,1,2.1-.19,4.16,0,2.05.3,4.12.48,2,.46,4.1.64,2.13-.56,4.19-.38,2.11-.26,4.17-.08,2,.61,4.09.79,2.11-.33,4.18-.15,2,.41,4.11.59,2,.39,4.11.57,2.08.05,4.14.23,2.07.16,4.14.34,2,.53,4.1.71,2.06.27,4.13.45,2.11-.39,4.18-.21,2,.54,4.1.72,2,.78,4.08,1,2.09-.06,4.15.12,2.14-.67,4.21-.49,2,.8,4.07,1,2.06.3,4.12.48,2.05.32,4.12.5,2.14-.65,4.2-.47,2,1.17,4,1.35,2.06.31,4.12.49,2.08,0,4.15.14,2.09-.18,4.16,0,2,.37,4.11.55,2.15-.76,4.21-.58,2,1.17,4.05,1.35,2.11-.37,4.17-.19,2,1.07,4.06,1.25,2.12-.47,4.19-.29,2.11-.3,4.17-.12,2.07.13,4.14.31,2,.63,4.1.81,2.05.3,4.12.48,2,.82,4.08,1,2.14-.65,4.2-.47,2.11-.31,4.18-.13,2,.48,4.1.66,2,.75,4.08.93,2.06.28,4.13.46,2,.43,4.1.61,2.09-.1,4.16.08,2,.41,4.11.59,2.09-.1,4.15.08,2.07.2,4.13.38,2.13-.5,4.19-.32,2,.88,4.07,1.06,2.11-.24,4.17-.05,2.11-.31,4.18-.13,2,1.33,4,1.51,2.1-.19,4.17,0,2,.72,4.09.9,2.13-.54,4.19-.36,2,.94,4.07,1.12,2.08.09,4.14.27,2.15-.79,4.22-.61,2.08,0,4.15.14,2,1.4,4,1.58,2.11-.26,4.17-.08,2.1-.13,4.16.05,2,.37,4.12.55,2.09-.06,4.15.12,2.07.15,4.14.33,2.1-.18,4.16,0,2,1.24,4.05,1.42,2.12-.52,4.19-.34,2.07.24,4.13.42,2.12-.39,4.19-.21,2,.52,4.1.7,2,.37,4.12.55,2,.61,4.09.79,2.15-.72,4.21-.54,2,1,4.06,1.23,2.08,0,4.14.22,2.1-.12,4.16.06,2.11-.23,4.17,0l4.14.34c2.07.18,2,.57,4.1.75s2.1-.2,4.17,0,2,1.32,4,1.5,2.09-.11,4.16.07,2.07.09,4.14.27,2.07,0,4.14.23,2,.47,4.11.65,2.13-.52,4.19-.34,2,1.17,4,1.35,2.14-.59,4.21-.41,2.07.09,4.14.28,2,.33,4.12.51,2,.34,4.12.52,2.1-.2,4.17,0,2.1-.19,4.16,0,2,.85,4.08,1,2,.86,4.08,1,2.1-.19,4.16,0,2.11-.22,4.18,0,2,1,4.06,1.17,2.1-.19,4.17,0,2.07.14,4.14.32,2.12-.52,4.19-.34,2.06.29,4.13.47,2.08,0,4.14.21,2.06.29,4.13.47,2,.4,4.12.58,2.1-.14,4.16,0,2,1.3,4,1.48,2.18-1.11,4.25-.93,2,1,4.06,1.15,2.1-.14,4.17,0,2,.74,4.09.92,2.07.08,4.14.26,2.07.2,4.13.38,2.1-.17,4.17,0,2.07.22,4.13.4,2,.73,4.09.91,2.11-.32,4.18-.14,2,.54,4.11.72,2,.3,4.12.48,2.08.09,4.15.27l4.13.35c2.07.18,2.17-.91,4.23-.73s1.95,1.52,4,1.7,2.15-.87,4.22-.69,2.09-.13,4.16.05l4.13.37c2.07.19,2,1.33,4,1.51s2.11-.37,4.18-.19,2,.61,4.1.79,2.12-.47,4.19-.29,2.08,0,4.15.14,2,.69,4.09.87,2.07.14,4.14.32,2,.88,4.08,1.06,2.12-.4,4.18-.22,2.13-.49,4.2-.31,2,1.39,4,1.57,2.08,0,4.15.16,2.1-.13,4.17,0,2.08,0,4.15.19,2.11-.33,4.18-.15,2,1,4.06,1.21,2.1-.14,4.17,0,2.06.25,4.13.43,2.09-.05,4.16.14,2,.31,4.12.49,2.11-.25,4.18-.07,2,1.08,4.06,1.26,2.12-.41,4.19-.23,2.09-.07,4.16.11,2,.73,4.09.91,2.14-.54,4.2-.36,2.08.14,4.15.32,2,.48,4.11.67,2,.53,4.1.71,2,.73,4.09.91,2.16-.81,4.23-.63,2.09-.1,4.16.08,2,.53,4.11.71,2.09,0,4.16.2,2.06.22,4.13.4,2.07.24,4.14.42,2.07.22,4.14.4,2.08.11,4.15.29,2.08,0,4.15.22,2,.77,4.1.95,2,.83,4.09,1"/><path d="M454,146.26c.67-1.95,1.39,1.17,3.2,3.1.79.84,1.76,1.82,2.79,3,.81,1,1.22,2.38,2.14,3.55.79,1,1.79,2,2.63,3.15s1.89,2,2.67,3.16,1.28,2.38,2,3.6,2.1,1.93,2.78,3.17,1.19,2.46,1.82,3.72.94,2.58,1.52,3.86.65,2.68,1.19,4,1.25,2.43,1.74,3.74.42,2.73.85,4.06,1.36,2.43,1.75,3.77.2,2.76.53,4.12.39,2.68.68,4.05,1.38,2.5,1.62,3.88.34,2.71.53,4.09,1,2.65,1.12,4-.15,2.77,0,4.16-.42,2.75-.37,4.15-.2,2.72-.2,4.12.23,2.72.18,4.06-.4,2.7-.49,4-.24,2.7-.37,4,.64,2.83.46,4.15-.88,2.64-1.1,4-.93,2.59-1.2,3.9,0,2.81-.28,4.1-1,2.57-1.35,3.85-1.06,2.52-1.48,3.79.08,2.92-.38,4.17-1.75,2.26-2.26,3.49-.64,2.71-1.2,3.92-1.05,2.54-1.65,3.72-2,2.07-2.6,3.23-1.4,2.34-2.09,3.47-.51,2.95-1.24,4-1.68,2.24-2.44,3.28-2.39,1.69-3.19,2.69-.9,2.94-1.72,3.87c-1,1.17-2,2.15-2.83,3-1.82,1.86-2.84,4.34-3.5,2.42s.63-2.15.63-4.24.13-2.1.13-4.2-.24-2.1-.24-4.2-.78-2.1-.78-4.2,1.11-2.1,1.11-4.2-1.11-2.1-1.11-4.2.66-2.09.66-4.19.39-2.11.39-4.21-.56-2.1-.56-4.2,0-2.09,0-4.19-.41-2.1-.41-4.2-.25-2.1-.25-4.21.41-2.1.41-4.19.65-2.1.65-4.2.14-2.11.14-4.21-.79-2.1-.79-4.2.78-2.1.78-4.2-.87-2.1-.87-4.2-.09-2.1-.09-4.2-.33-2.1-.33-4.2.95-2.1.95-4.21-.36-2.1-.36-4.2-.17-2.1-.17-4.2.55-2.1.55-4.2-.2-2.1-.2-4.2-.76-2.1-.76-4.2,1.23-2.1,1.23-4.2.07-2.1.07-4.2-.18-2.1-.18-4.2-.95-2.11-.95-4.21,1-2.1,1-4.2-.45-2.11-.45-4.21.18-2.1.18-4.2.29-2.1.29-4.21-.7-2.1-.7-4.2.53-2.14.2-4.21S453.27,148.25,454,146.26Z"/><path class="cls-1" d="M678.91,156.64c-1.25,1.65-1.28,1.63-2.54,3.28s-.75,2-2,3.69-1.83,1.22-3.09,2.87-1.43,1.51-2.69,3.17-.82,2-2.07,3.63-1.78,1.25-3,2.9-.79,2-2,3.66-.87,1.95-2.12,3.6-1.17,1.72-2.43,3.37-2,1.06-3.3,2.71-.75,2-2,3.69-1.72,1.3-3,2.95-1,1.81-2.3,3.47-1.08,1.78-2.34,3.43-1.72,1.3-3,3-.82,2-2.08,3.63-1.83,1.21-3.09,2.87-.45,2.26-1.71,3.92-1.66,1.34-2.92,3-1.47,1.49-2.72,3.15-1.47,1.49-2.73,3.14-1.35,1.58-2.61,3.23-.67,2.1-1.93,3.75-1.12,1.76-2.37,3.42-.88,1.94-2.13,3.59-2,1.07-3.29,2.72-.92,1.91-2.17,3.57-1.14,1.74-2.4,3.4-1.7,1.31-3,3-.88,1.94-2.13,3.59-.92,1.91-2.18,3.57-1.87,1.18-3.13,2.84-.74,2-2,3.7-2,1.11-3.23,2.77-.92,1.91-2.17,3.57-1.65,1.36-2.9,3-1.29,1.63-2.54,3.29-1.14,1.74-2.4,3.4-.57,2.17-1.83,3.83-2,1.09-3.26,2.75-.73,2-2,3.69-1.33,1.6-2.59,3.25-1.11,1.77-2.36,3.43-1.13,1.75-2.38,3.4-1.21,1.7-2.46,3.35-1.93,1.15-3.18,2.81-1.21,1.69-2.46,3.35-.75,2-2,3.7-1.2,1.71-2.45,3.36-1.34,1.6-2.59,3.26-1.13,1.76-2.39,3.41-1.37,1.57-2.62,3.23-1.42,1.54-2.67,3.19-1.67,1.35-2.93,3-.85,2-2.11,3.62-1.05,1.82-2.31,3.48-1.2,1.71-2.46,3.37"/><path d="M1154.22,432.54c-1.07-1.8-.07-1.85-1.79-3.87-.77-.9-2-1.66-3.2-2.77a38.85,38.85,0,0,0-2.83-3.17c-1-.82-2.15-1.72-3.37-2.56s-2.39-1.39-3.66-2.12-2.79-.56-4.11-1.19-2.13-2-3.48-2.51-2.8-.35-4.18-.77-2.62-.86-4-1.19-2.72-.4-4.14-.63-2.73-.25-4.16-.4-2.72-.18-4.16-.25-2.74-.93-4.18-.91-2.77.12-4.21.2-2.7.83-4.12,1-2.73.4-4.14.61-2.74.34-4.15.6-2.66.7-4.06,1-2.72.5-4.07.85-2.73.53-4.06.92-2.82.3-4.14.72-2.49,1.34-3.81,1.79-2.52,1.16-3.83,1.64-2.58,1-3.88,1.53-2.73.62-4,1.14-2.46,1.34-3.74,1.87-2.49,1.25-3.76,1.79-2.52,1.17-3.8,1.73-2.8.54-4.06,1.11-2.65.89-3.92,1.46-2.28,1.7-3.55,2.27-2.72.75-4,1.32-2.55,1.12-3.82,1.69-2.33,1.61-3.59,2.17-2.6,1-3.86,1.6l-3.84,1.65c-1.29.55-2.5,1.26-3.78,1.79s-2.91.26-4.19.76-2.33,1.73-3.62,2.21-2.8.49-4.11.94-2.54,1.21-3.85,1.63-2.61,1.06-3.93,1.44-2.95-.24-4.29.09-2.56,1.31-3.91,1.58-2.82.05-4.18.25-2.72.74-4.09.85-2.79.16-4.17.18-2.83.53-4.2.44-2.78-.53-4.15-.74-2.53-1.42-3.87-1.76-2.85-.06-4.17-.54a38.82,38.82,0,0,1-3.78-1.74c-1.23-.59-2.21-1.63-3.42-2.37s-3-.51-4.12-1.37-1.74-2.25-2.8-3.2-2.15-1.73-3.14-2.76-1.23-2.62-2.12-3.64-2.25-1.72-3.11-2.77-1.57-2.28-2.4-3.37-1.6-2.25-2.39-3.35-1.61-2.25-2.39-3.37-1.91-2-2.69-3.17-1.19-2.54-2-3.67-1.92-2-2.71-3.15-1.49-2.33-2.31-3.43-1.66-2.2-2.52-3.27-2-1.9-2.93-2.93-1.53-2.33-2.51-3.3-2.5-1.32-3.55-2.23-1.8-2.08-2.92-2.92-2.24-1.52-3.42-2.28-2.54-1-3.78-1.64-1.82-2.43-3.11-3-2.89-.14-4.21-.65-2.4-1.32-3.75-1.75-2.72-.3-4.09-.67-2.48-1.26-3.87-1.56-2.78.13-4.17-.12-2.59-1-4-1.14-2.73,0-4.14-.14-2.63-1.1-4-1.21-2.75.28-4.16.2-2.72,0-4.13,0-2.7-.92-4.11-.94-2.73.58-4.14.58-2.74-.69-4.14-.66-2.73.42-4.13.47-2.7.77-4.1.83-2.76-.35-4.16-.27-2.76-.26-4.16-.16-2.7,1.37-4.05,1.47-2.86-.73-4.21-.63-2.82-.18-4.17-.07-2.72,1.14-4.06,1.25-2.8.07-4.15.19-2.76.56-4.1.68-2.83-.15-4.17,0-2.8.16-4.13.28-2.8.28-4.13.39-2.84-.19-4.17-.08-2.8.42-4.12.51-2.84-.17-4.16-.1-2.81.14-4.13.18-2.81.95-4.12.95-2.87.44-4.18.37-2.74-1.17-4-1.34a37.87,37.87,0,0,1-4-1.05c-1.36-.32-3,.48-4.33,0s-2.35-1.57-3.6-2.22a41.15,41.15,0,0,1-3.81-1.74c-1.11-.71-2.24-1.54-3.41-2.4s-2-1.83-3.13-2.75-1.92-1.91-3-2.85-2.52-1.22-3.61-2.17-1.23-2.68-2.31-3.64-2.2-1.6-3.27-2.56-2.07-1.75-3.14-2.72-2.39-1.45-3.48-2.3-1.7-2.38-2.85-3.17-2.54-1.19-3.74-1.9-2.25-1.67-3.5-2.31-2.7-.77-4-1.34-2.7-.65-4-1.16-2.39-1.45-3.72-1.9-2.48-1.31-3.83-1.71-2.71-.58-4.07-.93-2.83,0-4.2-.32-2.63-.84-4-1.11-2.68-.67-4.06-.91-2.78-.07-4.17-.27-2.66-.88-4-1.05-2.74-.28-4.13-.43-2.69-.86-4.08-1-2.78,0-4.17-.12-2.79.22-4.18.13-2.74-.38-4.14-.45-2.8.69-4.19.62-2.75-.22-4.15-.27-2.75-.38-4.14-.42-2.75-.56-4.15-.58-2.77.21-4.17.2-2.76-.55-4.15-.57-2.77.55-4.17.55-2.76-.55-4.16-.55-2.77-.24-4.16-.23-2.76.88-4.16.89-2.77-.08-4.16-.06-2.76.66-4.15.67-2.77-.36-4.17-.34-2.77-.54-4.16-.52-2.77-.23-4.17-.22-2.76.29-4.15.31-2.78-.26-4.17-.24-2.77,0-4.16,0-2.76,1-4.15,1-2.78-.46-4.17-.45-2.77-.42-4.17-.41-2.76.66-4.16.67-2.77-.3-4.16-.3-3.08.78-4.47.78c1.77,1.09,2.39-.13,4.32.63s1.63,1.53,3.56,2.29,2.11.32,4,1.08,2,.64,3.92,1.4,1.65,1.48,3.58,2.24,1.91.81,3.84,1.57,2.35-.29,4.28.47,1.89.87,3.82,1.63,1.6,1.6,3.53,2.36,2.36-.33,4.29.43,1.91.81,3.84,1.57,1.76,1.18,3.69,1.94,1.7,1.35,3.63,2.11,1.89.89,3.82,1.65,2,.53,4,1.28,2.21,0,4.15.79,1.52,1.8,3.45,2.56,2.34-.28,4.27.48,1.69,1.38,3.62,2.14,1.79,1.12,3.72,1.88,2.14.24,4.07,1,1.94.72,3.88,1.48,2.08.38,4,1.14,2,.52,4,1.28,1.78,1.15,3.72,1.91,1.69,1.37,3.62,2.13,1.89.88,3.82,1.64,2.22,0,4.15.79,1.65,1.48,3.58,2.24,2.25,0,4.18.72,2,.67,3.9,1.43,2.06.45,4,1.21,1.58,1.65,3.51,2.41,2.06.42,4,1.18,2,.6,3.93,1.36,1.73,1.27,3.66,2,2,.57,3.94,1.33,2.21.06,4.14.82,1.48,1.9,3.41,2.66,1.91.83,3.84,1.58,2,.59,3.93,1.35,2.29-.12,4.22.64,1.57,1.69,3.5,2.45,2.1.35,4,1.11,1.87.93,3.8,1.69,1.83,1,3.76,1.78,2.19.11,4.12.87,1.86.95,3.79,1.71,1.74,1.26,3.67,2,2.22,0,4.15.79,1.94.74,3.87,1.5,1.94.74,3.87,1.5,1.89.87,3.82,1.63,1.75,1.23,3.68,2,2.17.17,4.1.93,1.74,1.24,3.68,2,2.12.27,4.06,1,1.63,1.51,3.57,2.27,2,.66,3.91,1.42,1.84,1,3.78,1.74,2.23,0,4.17.74l3.87,1.51c1.93.76,1.62,1.55,3.55,2.31s2.25,0,4.18.72,1.87.93,3.8,1.69,1.9.84,3.83,1.6l3.87,1.52c1.93.76,1.8,1.1,3.73,1.86s1.9.84,3.84,1.6,2.24,0,4.18.73,1.91.81,3.84,1.58,1.69,1.38,3.62,2.14,2,.61,3.93,1.37,2.21.06,4.14.82,1.81,1.06,3.74,1.82,2.07.42,4,1.18,1.49,1.91,3.42,2.67,2.16.19,4.09.95,2.12.28,4.06,1,1.53,1.79,3.46,2.55,2.21,0,4.15.81,1.83,1,3.76,1.78,2.07.42,4,1.18,1.73,1.28,3.66,2,2,.71,3.89,1.47,1.9.84,3.84,1.6,1.81,1.07,3.74,1.83,2.1.33,4,1.09,2.18.13,4.12.89,1.6,1.59,3.54,2.35,1.95.71,3.89,1.47,2.17.14,4.11.9,1.65,1.46,3.59,2.22,2.17.15,4.11.91,1.83,1,3.76,1.78,1.79,1.13,3.73,1.89,2.05.44,4,1.2,2,.65,3.91,1.41,1.83,1,3.76,1.79l3.86,1.53c1.94.76,2,.71,3.89,1.47s2.09.37,4,1.13,1.75,1.22,3.68,2,2.25,0,4.18.73,1.67,1.45,3.6,2.21,1.84,1,3.77,1.76,2,.54,4,1.3,2.26-.08,4.2.68,1.54,1.75,3.47,2.51,2.06.44,4,1.2,1.78,1.13,3.72,1.89,2.29-.15,4.22.61,1.57,1.69,3.5,2.45,2.37-.35,4.3.41,1.43,2.05,3.36,2.81,2.05.45,4,1.21,2.12.27,4.05,1,1.77,1.19,3.71,2,2.28-.14,4.22.62,1.58,1.66,3.51,2.42,2.26-.08,4.2.68,1.66,1.45,3.59,2.21,2.21,0,4.15.81,1.78,1.16,3.71,1.92,1.67,1.43,3.6,2.2,2,.61,3.93,1.37,2,.65,3.91,1.41,1.85,1,3.78,1.73,2.07.44,4,1.2,1.75,1.24,3.68,2,2.06.46,4,1.22,2.06.44,4,1.2,1.65,1.47,3.59,2.23,2,.58,3.93,1.34,2.24,0,4.18.76,1.63,1.53,3.56,2.29,2.09.38,4,1.14,2.13.28,4.06,1,2,.57,3.95,1.33,1.89.87,3.83,1.63l3.86,1.54c1.94.76,2,.63,3.93,1.39s1.59,1.63,3.52,2.39,2.26-.06,4.2.7,1.51,1.82,3.45,2.58,2.06.43,4,1.19l3.87,1.51c1.94.77,1.9.85,3.84,1.62s2.13.25,4.07,1,2,.64,3.92,1.4,1.61,1.58,3.55,2.34,2,.54,4,1.31,2.09.37,4,1.13,2.07.43,4,1.19,2,.56,3.95,1.32,1.54,1.77,3.48,2.53,1.85,1,3.79,1.75,2.2.11,4.14.87"/></g></g></g></svg>