<svg xmlns="http://www.w3.org/2000/svg" viewBox="0 0 449.28 603.97"><defs><style>.cls-1{fill:#e6b49d;}.cls-2{fill:#8e9b91;}.cls-3{fill:#677d70;}.cls-10,.cls-11,.cls-12,.cls-4,.cls-6,.cls-7,.cls-8,.cls-9{fill:none;}.cls-10,.cls-4,.cls-7{stroke:#000;}.cls-10,.cls-11,.cls-12,.cls-4,.cls-6,.cls-8,.cls-9{stroke-linecap:round;stroke-linejoin:round;}.cls-12,.cls-4,.cls-7,.cls-8,.cls-9{stroke-width:3.61px;}.cls-5{fill:#1d1d1b;}.cls-6,.cls-8{stroke:#1d1d1b;}.cls-6{stroke-width:4.1px;}.cls-7{stroke-miterlimit:10;}.cls-9{stroke:#8e9b91;}.cls-10,.cls-11{stroke-width:4.33px;}.cls-11{stroke:#fff;}.cls-12{stroke:#e6b49d;}</style></defs><g id="Layer_2" data-name="Layer 2"><g id="sect3"><g id="art"><path class="cls-1" d="M126.38,226.16c.64-1.53,1.64.32,3.69.32,1,0,2.07.19,3.31.19,1,0,2.14-.75,3.31-.75s2.17.34,3.31.34,2.19-.24,3.31-.24h3.31c1.11,0,2.22.15,3.31.15s2.25.16,3.31.16,2.28-.43,3.32-.43c1.22,0,2.33.7,3.31.7,1.45,0,2.59-.16,3.31-.16a5,5,0,0,1,3.45,1,6,6,0,0,1,1.88,3.18c.29,1.13,0,2.54.52,3.76a4.87,4.87,0,0,1,.39,3.23,8,8,0,0,1-1.8,2.83,12.54,12.54,0,0,1-2.32,2.48,17.41,17.41,0,0,1-2.9,1.93,20.2,20.2,0,0,1-3.39.79,19.36,19.36,0,0,1-3.42.18,16.72,16.72,0,0,1-3.39-.09,15.76,15.76,0,0,1-3.42-.56,15.38,15.38,0,0,1-3-1.83c-1-.74-1.94-1.54-2.88-2.26s-2.1-1.34-3-2.07-1.74-1.81-2.62-2.56-1.93-1.62-2.78-2.38-1.63-2-2.43-2.74c-1-1-2-1.73-2.69-2.46C127.77,227.15,125.67,227.83,126.38,226.16Z"/><path class="cls-2" d="M448.87,153.57c-.8,1.89-1.87-1.42-4.11-2.5-1.08-.52-2.62-.5-4-1.08-1.2-.49-2.29-1.54-3.65-2s-2.68-.59-4-.91-2.79.1-4.13-.06-2.72-1.31-4.06-1.24-2.79.64-4.07.76c-1.49.13-2.76,1-4,1.12-1.58.2-3.13-.85-4.26-.65-2.61.46-2.12,2.57-4.07,1.95s-2-1.1-3.85-2.12-2-.89-3.85-1.9-3-.46-3.88-2.44c-.74-1.75.83-2,1.55-3.8s.41-1.9,1.13-3.66.94-1.72,2.19-3.16,1.39-.91,3.78-1.47c1.19-.28,2.83.3,4.24-.26,1.23-.49,2.15-1.76,3.37-2.52s2.79-.89,3.79-1.9,1.39-2.42,2.08-3.68a14.77,14.77,0,0,0,1.73-3.79c.3-1.31-.31-2.72-.15-4s1.54-2.55,1.57-3.81-.25-2.72-.33-4c-.09-1.4.1-2.79-.09-4-.22-1.47-.57-2.81-.84-3.89-.57-2.36-2.72-1.79-2.35-3.71.44-2.24,1.32-1.55,2.36-4a21.7,21.7,0,0,0,1.46-4.25,20.41,20.41,0,0,0,.46-4.48c0-1.44.34-3-.06-4.61a21.54,21.54,0,0,0-1.48-4.43c-.63-1.24-2.15-2.05-2.87-3.32s-1.15-2.61-1.91-3.84-1.09-2.71-1.89-3.9-1.85-2.22-2.68-3.37-2-2.09-2.88-3.21-2.07-2-3-3.09-1.29-2.74-2.24-3.74-2.59-1.53-3.6-2.45a40.94,40.94,0,0,0-3.08-2.93c-1-.74-1.85-2.14-3.19-2.78-1.17-.56-2.69-.6-4.07-1.06s-2.65-.52-4.05-.86-2.53-1.22-3.93-1.45-2.78.19-4.19.05-2.67-1-4.08-1.07-2.75.87-4.16.88-2.74-.55-4.14-.48-2.77-.1-4.17,0-2.58,1.41-4,1.61-2.9-.77-4.27-.51-2.75.45-4.08.74-2.44,1.74-3.76,2.07-2.92-.2-4.22.19-2.5,1.3-3.77,1.77-2.66.8-3.9,1.36-2.67.91-3.85,1.59a36.18,36.18,0,0,0-3.66,2c-1.11.81-1.54,2.48-2.55,3.43s-2.32,1.56-3.2,2.65a30.11,30.11,0,0,0-2.46,3.35,35.81,35.81,0,0,0-1.65,3.81,39.52,39.52,0,0,0-1.49,3.85c-.42,1.26-.87,2.56-1.2,4s-.93,2.71-1.21,4.07-.22,2.86-.44,4.22-.19,2.85-.36,4.21-.63,2.81-.76,4.17-.49,2.85-.58,4.2.14,2.91.1,4.23c0,1.53-.46,3-.45,4.23,0,1.62.83,3,.89,4.2.12,2.69,1.17,2.45.37,4.39-.7,1.7-1.62.66-2.65,2.73a13.06,13.06,0,0,0-1.68,3.39,23.84,23.84,0,0,0-.09,3.76,14,14,0,0,0,.52,5,17.48,17.48,0,0,0,2.66,4.19c1.68,2.18,2.76.89,4.11,2.88,1.15,1.69.16,1.83.68,4.21.26,1.17.64,2.5,1,3.94.34,1.26-.21,2.88.24,4.2s1.26,2.5,1.8,3.73,1.09,2.43,1.58,3.46c.64,1.33,1.82,2.15,2.32,3.07,1.19,2.19,1.77,5.43,1,3.71s-.34-2.12-2.43-2.45c-1-.15-2.06.58-3.51,1.2s-3.27.57-4.37,1.37a8.09,8.09,0,0,0-2.81,3.73,10.57,10.57,0,0,0,0,4.58,15.65,15.65,0,0,0,1.53,4c.57,1.45.37,3.15,1.14,4.24s1.87,2,2.71,3.26,2.19,1.89,2.91,2.86c1.39,1.87,1.94,1.24,1.58,3.21-.43,2.29-.66,1.5-2.79,3.29-1.06.88-2.29,1.87-3.53,3s-2.14,2.19-3.22,3.35-2.81,1.78-3.73,3a22.88,22.88,0,0,0-2.32,3.65c-.67,1.4-.11,3.06-.31,4.33a10.29,10.29,0,0,0,.06,4,11,11,0,0,0,1.39,3.89,18,18,0,0,0,2.92,2.45c.94.8,1.51,2.22,2.57,3s2.15,1.67,3.13,2.31c1.87,1.23,3.28-.28,3.86,1.56.68,2.12-.78,1.81-1.76,4.34-.46,1.21-.54,2.81-1.15,4.34-.51,1.31-1.85,2.4-2.42,3.84s-.3,3.08-.87,4.47-1.15,2.78-1.72,4.13c-.47,1.1-1,2.38-1.62,3.83-.49,1.19-1.72,2.19-2.28,3.56s-1.12,2.48-1.65,3.82-.85,2.62-1.36,3.94-.57,2.73-1.07,4-1.36,2.46-1.84,3.76-1.3,2.5-1.77,3.79-.77,2.71-1.21,4-.88,2.69-1.29,4-.51,2.84-.87,4.09c-.43,1.48-.42,2.9-.68,4.08-.3,1.34-1.48,2.41-1.57,3.56a19.12,19.12,0,0,0,.45,3.8c.16,1.38,1,2.38,1.4,3.46a17,17,0,0,0,1.29,3.45,34.85,34.85,0,0,0,2.24,3c.86,1.06,1.87,2.66,3.1,3.93,1.83,1.89,5.73,2.07,3.51,3.23s-2.3.46-4.73.46-2.42-.16-4.84-.16-2.8,1.25-4.65-.32c-1.57-1.34.21-1.83.21-3.9s-.21-2.06-.21-4.13.18-2.07.18-4.13-.24-2.07-.24-4.14-.18-2.06-.18-4.13-.38-2.07-.38-4.13,0-2.07,0-4.14.33-2.06.33-4.13-.45-2.07-.45-4.14-.13-2.06-.13-4.13.26-2.07.26-4.13.54-2.07.54-4.14-.06-2.07-.06-4.13-.72-2.07-.72-4.14.36-2.06.36-4.13.62-2.07.62-4.14-.5-2.06-.5-4.13.31-2.07.31-4.13-.6-2.07-.6-4.14,0-2.07,0-4.13,1.09-2.07,1.09-4.13-.51-2.07-.51-4.13.16-2.07.16-4.13-.26-2.07-.26-4.13-.32-2.07-.32-4.13.19-2.07.19-4.14.75-2.07.75-4.13-.6-2.07-.6-4.14-.16-2.06-.16-4.13.07-2.06.07-4.13-.41-2.07-.41-4.13.17-2.07.17-4.14.36-2.07.36-4.13-.12-2.07-.12-4.14-.1-2.06-.1-4.13,0-2.07,0-4.13.32-2.07.32-4.14.38-2.07.38-4.13-.88-2.07-.88-4.14-.06-2.07-.06-4.13,0-2.07,0-4.14.65-2.07.65-4.14-.09-2.06-.09-4.13.05-2.07.05-4.14-.8-2.07-.8-4.13.83-2.07.83-4.14.48-2.07.48-4.14-.74-2.07-.74-4.13.77-2.07.77-4.14-.69-2.07-.69-4.14-.21-2.07-.21-4.14-.42-2.07-.42-4.13.29-2.07.29-4.14.66-2.07.66-4.13-.28-2.07-.28-4.14-.66-2.07-.66-4.14.31-2.06.31-4.13.85-2.07.85-4.14-.61-2.07-.61-4.14.58-2.07.58-4.14-.61-2.07-.61-4.14-.49-2.07-.49-4.14S290,48.63,290,46.56s-1-2.07-1-4.14.23-2.08.23-4.15-1.38-2.79.09-4.25,2.19.81,4.28.81,2.09-.27,4.17-.27,2.09-1.09,4.18-1.09,2.09,1,4.18,1,2.09-.74,4.17-.74,2.09.49,4.18.49,2.09-.72,4.17-.72,2.09,1.37,4.18,1.37,2.09-.9,4.18-.9,2.09.55,4.18.55,2.09.06,4.17.06,2.09-.4,4.18-.4,2.09.6,4.18.6,2.09-.84,4.18-.84,2.09.38,4.18.38,2.09.56,4.17.56,2.09-.84,4.18-.84,2.09.22,4.18.22h4.18c2.09,0,2.09.56,4.18.56s2.09-1.11,4.18-1.11,2.09.7,4.18.7,2.09-.48,4.18-.48,2.09.19,4.18.19,2.09-.59,4.17-.59,2.09.24,4.18.24,2.09,0,4.18,0,2.09.72,4.18.72,2.09.16,4.18.16,2.09-.88,4.18-.88,2.09-.06,4.18-.06,2.09,0,4.18,0,2.09.22,4.19.22,2.09.52,4.18.52,2.09-.41,4.18-.41,2.09-.42,4.18-.42,2.1,0,4.19,0,3.1-1.29,4.59.17-.91,2.47-.91,4.52.79,2.05.79,4.11-.31,2-.31,4.1.07,2.06.07,4.11-.56,2.06-.56,4.11.68,2.05.68,4.11-.6,2-.6,4.11.18,2.05.18,4.1.23,2.06.23,4.11S448,73.15,448,75.2s.5,2.06.5,4.11-.49,2-.49,4.11.39,2,.39,4.11.31,2,.31,4.11-.68,2-.68,4.11-.47,2-.47,4.1.68,2.05.68,4.11-.55,2.05-.55,4.11.61,2.05.61,4.11-.67,2-.67,4.1.59,2.06.59,4.11.45,2.06.45,4.12-1.06,2-1.06,4.11,1.23,2,1.23,4.11-.68,2.06-.68,4.11.54,2.06.54,4.11-.45,2.06-.45,4.12a12.64,12.64,0,0,0,.38,4C449.15,151.33,449.67,151.67,448.87,153.57Z"/><path class="cls-3" d="M376.21,181.08c-1.35,1.34.77,1.14,1.65,2.83s1.2,1.64,1.52,3.51a9.56,9.56,0,0,1,.08,4.09c-.25,2-1.2,1.89-1.44,3.89s0,2-.2,4-.08,2-.32,4-1,1.92-1.22,3.92,1.09,2.17.85,4.17-1.39,1.87-1.63,3.88.45,2.09.21,4.09-.73,2-1,4-1.4,2.29-.81,4.22,1.6,1.63,2.92,3.18,1.91,1,3.24,2.6.43,4.18,2.45,3.92.46-2.41,1.07-4.22,1-1.66,1.64-3.47.28-1.87.44-3.77c.19-2.13.88-2.17.61-4.3s-.56-2.08-.82-4.21-.91-2-1.17-4.17,0-2.15-.27-4.28-.27-2.12-.53-4.24-.16-2.14-.43-4.26-.84-2.06-1.11-4.18.09-2.17-.18-4.3-1.12-2.21-.62-4.3,1.91-1.35,3.12-3.12,3.1-2.2,1.79-3.89c-1.58-2-2.48-.14-5-.59S378,179.26,376.21,181.08Z"/><path class="cls-1" d="M147.7,200.42c-1.85.87-1.33.64-3.69,1.76-1,.49-2.06,1.54-3.48,2.21-1.12.53-2.41,1-3.74,1.65-1.16.55-2.37,1.18-3.67,1.8s-2.87.18-4.15.79-2.45,1.11-3.72,1.71-2.29,1.45-3.55,2-2.15,1.77-3.41,2.37-2.92.14-4.17.73-2.05,2-3.3,2.59-2.56.95-3.8,1.54-2.54,1-3.78,1.57-2.13,1.85-3.37,2.43-2.86.32-4.09.9l-3.71,1.75c-1.23.59-2.47,1.15-3.7,1.74s-2.56,1-3.78,1.58-2,2.17-3.22,2.76-3,.11-4.2.7S75,235,73.81,235.53s-2.59.95-3.8,1.53-2.73.67-3.94,1.24-2.19,1.81-3.39,2.38-2.59,1-3.78,1.57-2.68.84-3.7,1.47a22.78,22.78,0,0,0-3.05,2.59c-1.1,1-1.45,2.43-2,3.41-.73,1.29-1.43,2.48-1.31,3.66A6.25,6.25,0,0,0,50.55,257a11,11,0,0,0,3.16,2.5c1.08.49,2.65,0,4,.27a25,25,0,0,0,3.8.51,14.74,14.74,0,0,0,4.06-.12,30,30,0,0,0,3.86-1.41c1.24-.46,2.74-.44,4-1.06s2.17-1.71,3.42-2.41,2.5-1.11,3.7-1.86,2-1.87,3.22-2.65,2.78-.81,3.92-1.62,2-1.91,3.14-2.74,2.19-1.69,3.29-2.53,2-2,3-2.85,2.71-1.07,3.77-1.93,1.74-2.29,2.79-3.15,2.26-1.68,3.3-2.54,2.23-1.73,3.25-2.57,2-2,3-2.82,2.64-.95,3.69-1.8,1.34-2.58,2.38-3.43,2.23-1.5,3.26-2.34,2.52-1.16,3.55-2,1.91-1.92,2.93-2.76,2.21-1.57,3.21-2.4,1.79-2.1,2.78-2.92,1.92-2,2.89-2.8,2.72-1.08,3.66-1.88c1.16-1,1.55-2.6,2.41-3.33A8.56,8.56,0,0,1,147.7,200.42Z"/><path class="cls-3" d="M82.49,290.66c-1.45.65.08,1.17.44,3.21.15.88.23,1.95.45,3.16.17,1,1,1.89,1.18,3,.17,1-.39,2.16-.19,3.26s.27,2.06.46,3.16.53,2,.73,3.11.64,2,.83,3.09.23,2.09.43,3.16,1.08,1.94,1.27,3-.37,2.21-.18,3.28.79,2,1,3.07-.28,2.2-.09,3.26.87,2,1.06,3.05.75,2,.94,3.07.42,2.07.61,3.13,0,2.15.24,3.2.29,2.1.49,3.15-.1,2.18.09,3.23,1,2,1.21,3,.76,2,1,3.07.16,2.13.35,3.18,0,2.17.16,3.21.32,2.1.52,3.15.2,2.13.4,3.17.61,2.05.81,3.1.22,2.12.42,3.16.61,2,.81,3.1.38,2.09.58,3.14.92,2,1.12,3-.12,2.2.08,3.24.72,2,.92,3.09.78,2,1,3.06-.45,2.27-.25,3.31.69,2,.89,3.08,0,2.17.22,3.21,1,2,1.17,3-.15,2.21.06,3.25.49,2.08.7,3.11,1.16,1.95,1.37,3,.59,2.06.81,3.1-.48,2.28-.27,3.31.77,2,1,3.06.68,2,.9,3.07.3,2.13.52,3.15.64,2.05.86,3.07a26.88,26.88,0,0,0,.85,2.95,24.81,24.81,0,0,0,1.43,2.71c.46.94.26,2.23.81,3.08s1.6,1.41,2.23,2.21,1.27,1.61,2,2.37,1.72,1.2,2.43,1.93,1.27,1.64,2,2.37,1.35,1.56,2,2.3,1.16,1.73,1.82,2.51,1.85,1.19,2.43,2,.55,2.08,1,3a24.62,24.62,0,0,1,1.31,2.76,29.26,29.26,0,0,1,1.09,2.89c.23,1,.72,2,.85,3s.23,2.09.28,3.1-.23,2.09-.23,3.1.28,2.07.26,3.08-.92,2.06-.92,3.07.25,2.08.32,3.08a27.81,27.81,0,0,0,.42,3.06,22.61,22.61,0,0,0,.87,3,18.58,18.58,0,0,0,1,3c.53,1,1.57,1.53,2.21,2.31s.9,2.09,1.69,2.79,2,.89,2.84,1.53,1.7,1.22,2.54,1.88,1.54,1.41,2.33,2.16a26,26,0,0,1,2.08,2.39,22.62,22.62,0,0,1,2.09,2.4,24.24,24.24,0,0,1,1.77,2.7c.42.9.35,2.09.72,3.15s.12,2.08.4,3.16a16.07,16.07,0,0,1,.75,3.1,28.89,28.89,0,0,1,.29,3.24c-.05,1-.76,2.09-.83,3.2s.17,2.15.16,3.28.08,2.13.19,3.26.79,2,1,3.12a28,28,0,0,0,.79,3.12c.32,1,.8,1.91,1.27,3s.81,1.92,1.36,2.93.89,1.91,1.5,2.87,1.15,1.5,1.81,2.42c1.48.41,1.43.9,3,.94s1.57-.94,3.11-.9,1.52.66,3.06.7,1.54-.2,3.08-.16,1.53.48,3.07.53,1.54,0,3.08,0,1.54.06,3.08.1,1.56-.22,3.1-.18,1.62.6,3.08.12c-.22-1,0-2.15-.25-3.2s-.82-2-1.05-3-.19-2.12-.42-3.17-.36-2.09-.59-3.14-.52-2-.75-3.1-.47-2.07-.7-3.11-1.27-1.89-1.5-2.94.55-2.29.31-3.34-1.24-1.89-1.48-2.94-.68-2-.92-3.06-.45-2.07-.68-3.12.39-2.26.16-3.3-.88-2-1.11-3-.15-2.14-.38-3.18-1-2-1.19-3-.63-2-.87-3.07-.08-2.16-.31-3.2-.5-2.06-.74-3.11,0-2.18-.18-3.22-.91-2-1.14-3-1-1.95-1.22-3,.44-2.28.2-3.32-.62-2-.86-3.08-.7-2-.94-3.06-.6-2-.84-3.08-.85-2-1.09-3,.16-2.22-.08-3.26-.71-2-.95-3.05-.42-2.08-.66-3.12-.65-2-.89-3.07-.37-2.1-.61-3.13-.8-2-1-3,.19-2.23,0-3.26-.92-2-1.16-3-.67-2-.91-3.06-.07-2.18-.31-3.21-1-1.95-1.26-3-.51-2.07-.75-3.11-.25-2.13-.49-3.17-.22-2.13-.46-3.17-.07-2.18-.31-3.21-1.23-1.91-1.47-2.95-.69-2-.93-3.07-.23-2.14-.47-3.17-.6-2.06-.84-3.09-.46-2.09-.7-3.13-.45-2.08-.69-3.12-.45-2.09-.69-3.13-.54-2.06-.78-3.09-.59-2-.84-3.09,0-2.18-.28-3.21,0-2.19-.25-3.22-1.42-1.86-1.66-2.9-.46-2.08-.7-3.11.17-2.23-.08-3.26-1.12-1.93-1.36-3,.07-2.21-.17-3.24-1.06-1.94-1.3-3-.18-2.16-.42-3.19,0-2.18-.28-3.21-.8-2-1.05-3-.62-2.05-.86-3.08-.5-2.08-.74-3.1-.78-2-1-3,.23-2.25,0-3.28-.47-2.09-.71-3.11-.5-2.08-.74-3.11-1.17-1.92-1.42-2.95-.59-2.05-.83-3.08.07-2.22-.17-3.24-.93-2-1.17-3-.4-2.11-.64-3.13-.71-2-1-3.06.4-2.3.16-3.32-1-2-1.26-3-.1-2.19-.34-3.2-1-2-1.28-3,.1-2.25-.14-3.25-.46-2.12-.7-3.12-.9-2-1.14-3-.37-2.16-.61-3.14-1.2-2-1.43-2.93c-.27-1.13-.06-2.28-.29-3.21-.28-1.2-.75-2.19-.95-3.05-.49-2,1-2.45-.53-2.81a6.66,6.66,0,0,0-3.11-.17c-1.6.13-1.64-.34-3.24-.22s-1.53.94-3.13,1.06-1.6.07-3.2.2-1.65-.54-3.25-.41-1.54.85-3.14,1-1.64-.36-3.24-.24-1.61,0-3.21.1-1.59.28-3.19.41-1.62-.14-3.22,0l-3.2.25c-1.6.13-1.53,1-3.13,1.12a18.75,18.75,0,0,1-3.25.21C84.06,290.71,84,290,82.49,290.66Z"/><path class="cls-4" d="M50.38,113.79c.52.62,1.33,1,2,1.69s1.14,1.22,1.79,1.83,1,1.46,1.63,2,1.58.73,2.27,1.27,1.53.77,2.23,1.29.94,1.6,1.66,2.09,1.84.28,2.57.75,1.11,1.42,1.86,1.86,1.73.39,2.48.81,1.49.8,2.26,1.21,1.35,1.08,2.12,1.46,1.4,1,2.18,1.39,1.77.21,2.56.55,1.57.63,2.37.95,1.55.72,2.36,1,1.57.65,2.39.92,1.69.27,2.52.52,1.62.5,2.45.73,1.61.73,2.44.87a23.57,23.57,0,0,0,2.57.4,22.3,22.3,0,0,0,2.58-.39,20,20,0,0,0,2.57-.06,17.74,17.74,0,0,0,2.46-.72c.82-.24,1.89.14,2.68-.22a21.08,21.08,0,0,0,2.27-1.34,23,23,0,0,0,2.17-1.47,23.12,23.12,0,0,0,1.84-1.86,24.9,24.9,0,0,0,1.81-1.88c.53-.65,1.12-1.32,1.61-2.06s.94-1.45,1.37-2.22.19-1.82.57-2.62,1.08-1.38,1.41-2.2.14-1.75.42-2.59,1.22-1.41,1.46-2.26.38-1.68.58-2.54.27-1.7.43-2.56.23-1.7.37-2.57.17-1.7.28-2.58-.09-1.72,0-2.6.27-1.69.33-2.57.22-1.69.26-2.57.07-1.71.09-2.59-.24-1.71-.23-2.59.12-1.71.1-2.59.06-1.71,0-2.59-.09-1.71-.14-2.59-.06-1.71-.12-2.59-.36-1.71-.43-2.57.12-1.75,0-2.6-.14-1.74-.25-2.58-.53-1.69-.65-2.53.44-1.83.29-2.67-.83-1.62-1-2.46-.56-1.65-.75-2.47.23-1.86,0-2.68-.3-1.74-.55-2.55-.57-1.66-.86-2.47-1.18-1.42-1.5-2.21-.7-1.58-1.06-2.35-.54-1.66-.93-2.42-.87-1.5-1.31-2.23-1-1.41-1.48-2.12-.89-1.48-1.41-2.16-1-1.42-1.55-2.08-.85-1.57-1.45-2.19-1.39-1.07-2-1.66-1.25-1.2-1.92-1.75"/><path class="cls-4" d="M97.67,31c-.55-2.1-1.39-1.44-2.49-3.64-.59-1.18-.34-3.1-1.31-4.27s-2.43-1.68-3.7-2.4a8.74,8.74,0,0,0-4.07-1.52,11.54,11.54,0,0,0-4.29.94,13.61,13.61,0,0,0-3.89,1.8c-1,.87-1.06,2.68-1.85,3.89s-1.93,2-2.5,3.33c-.5,1.19-.38,2.68-.79,4.09s-.54,2.61-.86,4-1.17,2.51-1.44,3.93-1.18,2.55-1.41,4-.3,2.71-.51,4.13.66,2.85.46,4.26-.69,2.66-.9,4.07-.86,2.63-1.07,4-.14,2.74-.36,4.14-.18,2.75-.41,4.15-.6,2.68-.84,4.07-.29,2.73-.51,4-.94,2.63-1.16,3.92.3,2.85.07,4.14-1,2.61-1.26,3.9-.2,2.77-.45,4-.52,2.72-.78,4-.57,2.71-.86,4-1.07,2.59-1.4,3.84-.44,2.76-.83,4-.94,2.63-1.41,3.83S55,115.83,54.41,117s-.37,3-1.11,4a25.77,25.77,0,0,1-2.85,3c-.92,1-2.39,1.29-3.48,2.14s-1.5,2.47-2.7,3.2-2.47,1-3.75,1.65-2.66.49-4,1.05-2.06,1.94-3.39,2.45"/><path class="cls-4" d="M103.4,25.78c2,.21,1.28,1.26,3.64,2.14a22.44,22.44,0,0,1,3.75,1.37,27.65,27.65,0,0,1,3.36,2.19,32.83,32.83,0,0,1,3,2.71c.91.9,2.21,1.54,3.1,2.66a36.3,36.3,0,0,1,2.46,3.25c.69,1.08.59,2.69,1.22,3.95s1.34,2.25,1.87,3.56,1.33,2.33,1.76,3.67,1.11,2.46,1.45,3.82.82,2.57,1.08,3.95-.55,3-.3,4.3.29,2.81.54,4.14,1.21,2.64,1.46,4,.49,2.78.74,4.1-.17,2.9.07,4.23,1.3,2.64,1.52,4,.36,2.81.56,4.14.22,2.83.39,4.16,0,2.85.09,4.17.44,2.81.48,4.13c.05,1.47,0,2.84,0,4.15a30.62,30.62,0,0,1-.63,4.08c-.27,1.43.34,3.08-.15,4.32s-2,2.16-2.77,3.29a18.16,18.16,0,0,1-2.48,3.37,23.9,23.9,0,0,1-3.19,2.83"/><path class="cls-4" d="M70.27,19.47c-2.11.06-1.66-.71-4.27-.28-1.18.2-2.46,1.13-4,1.52-1.26.31-2.69.42-4.13.9-1.26.42-2.74.55-4.11,1.12s-2.4,1.43-3.7,2.1S47.66,26.26,46.43,27s-2.5,1.28-3.66,2.15-2.23,1.7-3.32,2.66-2,1.94-3,3S34.86,37.14,34,38.26s-2.1,1.91-2.92,3.1-.79,2.78-1.51,4-2,2.08-2.61,3.39-1.4,2.45-1.93,3.79-.78,2.7-1.22,4.08,0,2.94-.33,4.25-1.76,2.45-2.07,3.78-.28,2.82-.53,4.16-.9,2.71-1.09,4.07.6,2.9.46,4.26S19,79.89,18.88,81.26s1.06,2.84,1,4.21-1.4,2.81-1.36,4.18.44,2.81.53,4.18.73,2.76.87,4.12-.14,2.84,0,4.21,1.35,2.63,1.57,4-.5,2.92-.26,4.28,1.4,2.58,1.66,3.93-.18,2.89.09,4.24,1.29,2.6,1.55,4,.11,2.84.35,4.19-.26,2.88-.07,4.23.52,2.75.64,4.11.33,2.77.35,4.14-.23,2.75-.33,4.13a37.88,37.88,0,0,1-.2,4.14,34.09,34.09,0,0,1-1.54,3.86,30.75,30.75,0,0,1-1.26,3.92A32.84,32.84,0,0,1,20.78,159c-.74,1.12-2.17,1.74-3.1,2.85"/><path class="cls-4" d="M97.4,31c-2-.88-1.62-.16-4.22-.95-1.17-.35-2.29-1.81-3.89-2.17-1.29-.29-2.87.18-4.4-.06-1.34-.21-2.74-.67-4.25-.8s-2.83.16-4.33.13-2.84-.57-4.32-.5-2.86.24-4.32.42-2.86.3-4.3.59-2.91.27-4.33.66-2.63,1.25-4,1.74"/><path class="cls-4" d="M51.21,70.2c-.53,2.1-.18,1.48-.8,4.27-.25,1.17.37,2.78,0,4.43-.26,1.27-1.53,2.49-1.83,4-.25,1.32-.09,2.82-.37,4.34-.25,1.34-.68,2.73-1,4.22s-.76,2.73-1,4.22.22,2.9,0,4.38-.65,2.77-.87,4.24-1,2.73-1.18,4.2.36,2.93.16,4.4-.38,2.83-.58,4.29-.35,2.83-.54,4.3c-.17,1.3-.42,2.64-.52,4s-.66,2.67-.69,4.07.6,2.7.64,4.09-.42,2.74-.32,4.12.76,2.65.92,4-.45,2.82-.23,4.18.6,2.68.89,4,.38,2.74.74,4.06,1.54,2.4,2,3.7.91,2.56,1.41,3.83.27,2.87.86,4.1,2,2.08,2.64,3.27,1.22,2.44,2,3.58S55,174.9,55.87,176s1.74,2.11,2.68,3.1,1.67,2.23,2.7,3.13,2.07,1.83,3.19,2.64,2.71.82,3.9,1.51"/><path class="cls-4" d="M41.11,172.43C40,170.72,40,171.22,38.89,169c-.5-1-.17-2.7-.71-4.13-.44-1.18-1.21-2.35-1.6-3.74s-.84-2.54-1.1-3.93.12-2.71,0-4.1a37.67,37.67,0,0,1-.36-4c0-1.32-.62-2.77-.44-4.14"/><path d="M59.06,121.6c-.66,2.11.12,1.41,1.87,3.73.74,1,2.56,1.45,3.6,2.81.8,1.06,1.65,2.27,2.63,3.55.83,1.09,1.36,2.54,2.32,3.79s1.24,2.67,2.19,3.9,1.65,2.37,2.59,3.59a5.71,5.71,0,0,0,4.18,2.26c1.39,0,2.49-1.41,3.7-2.51s2.93-1.55,3.73-2.74c1.36-2,1.94-2,1.24-4.16-.63-1.94-1.08-.61-3.54-1.23-1.12-.29-2.31-1-3.77-1.5-1.2-.38-2.65-.3-4-.84-1.2-.48-2.46-1-3.74-1.59s-2.6-.83-3.81-1.53-2.48-1.18-3.62-2-2-1.92-3-2.79A35.56,35.56,0,0,1,59.06,121.6Z"/><path class="cls-4" d="M59.06,121.6c-.66,2.11.12,1.41,1.87,3.73.74,1,2.56,1.45,3.6,2.81.8,1.06,1.65,2.27,2.63,3.55.83,1.09,1.36,2.54,2.32,3.79s1.24,2.67,2.19,3.9,1.65,2.37,2.59,3.59a5.71,5.71,0,0,0,4.18,2.26c1.39,0,2.49-1.41,3.7-2.51s2.93-1.55,3.73-2.74c1.36-2,1.94-2,1.24-4.16-.63-1.94-1.08-.61-3.54-1.23-1.12-.29-2.31-1-3.77-1.5-1.2-.38-2.65-.3-4-.84-1.2-.48-2.46-1-3.74-1.59s-2.6-.83-3.81-1.53-2.48-1.18-3.62-2-2-1.92-3-2.79A35.56,35.56,0,0,1,59.06,121.6Z"/><path d="M97.82,31.37c1.15-1.55-.88-2-2-3.87A33.66,33.66,0,0,0,94,24.06a21.83,21.83,0,0,0-2.55-3c-1.06-1-2.65-.94-3.76-1.12a6.61,6.61,0,0,0-3.73.21,21.34,21.34,0,0,0-3.61,1.49c-1.11.74-1.81,2.08-2.71,2.82a22.93,22.93,0,0,0-2.85,2.78,32.11,32.11,0,0,1,3.8.32c1.26.08,2.65-.78,3.93-.59s2.42,1.23,3.66,1.48,2.68.09,3.87.39c1.38.35,2.68.57,3.76.88C96,30.35,96.67,32.91,97.82,31.37Z"/><path class="cls-4" d="M97.82,31.37c1.15-1.55-.88-2-2-3.87A33.66,33.66,0,0,0,94,24.06a21.83,21.83,0,0,0-2.55-3c-1.06-1-2.65-.94-3.76-1.12a6.61,6.61,0,0,0-3.73.21,21.34,21.34,0,0,0-3.61,1.49c-1.11.74-1.81,2.08-2.71,2.82a22.93,22.93,0,0,0-2.85,2.78,32.11,32.11,0,0,1,3.8.32c1.26.08,2.65-.78,3.93-.59s2.42,1.23,3.66,1.48,2.68.09,3.87.39c1.38.35,2.68.57,3.76.88C96,30.35,96.67,32.91,97.82,31.37Z"/><path d="M85.19,74.48a1.64,1.64,0,0,0-1.79,1A7.07,7.07,0,0,0,83,77.74c0,.5-.33,1.12-.36,1.82s.08,1.2.06,1.84.18,1.24.17,1.84-.12,1.28-.12,1.84a9.34,9.34,0,0,0,.43,1.8c.06.79.4,1.2,1,1.3s1,0,1.28-1.09c.11-.5.47-1.09.6-1.82.11-.58.1-1.24.21-1.89s.46-1.23.56-1.85-.07-1.35,0-1.93c.11-.79.46-1.44.49-1.86a6.6,6.6,0,0,0,0-2.4C87.09,74.69,86.24,74.54,85.19,74.48Z"/><path class="cls-4" d="M85.19,74.48a1.64,1.64,0,0,0-1.79,1A7.07,7.07,0,0,0,83,77.74c0,.5-.33,1.12-.36,1.82s.08,1.2.06,1.84.18,1.24.17,1.84-.12,1.28-.12,1.84a9.34,9.34,0,0,0,.43,1.8c.06.79.4,1.2,1,1.3s1,0,1.28-1.09c.11-.5.47-1.09.6-1.82.11-.58.1-1.24.21-1.89s.46-1.23.56-1.85-.07-1.35,0-1.93c.11-.79.46-1.44.49-1.86a6.6,6.6,0,0,0,0-2.4C87.09,74.69,86.24,74.54,85.19,74.48Z"/><path d="M111.37,93.14c.76,0,1.13-.41,1.51-1.27a5.74,5.74,0,0,0,.45-2.13c0-.51.18-1.13.2-1.82s.17-1.2.19-1.83-.32-1.24-.31-1.84.6-1.28.6-1.84c0-.78-.15-1.44-.17-1.83a1.86,1.86,0,0,0-1.43-1.6c-.59-.09-1,.35-1.28,1.43-.11.49-.66,1-.79,1.78-.11.58,0,1.26-.15,1.91s-.38,1.24-.48,1.85,0,1.36,0,1.93a16.82,16.82,0,0,0,0,1.9,6.1,6.1,0,0,0-.11,2.26C109.79,92.68,110.31,93.09,111.37,93.14Z"/><path class="cls-4" d="M111.37,93.14c.76,0,1.13-.41,1.51-1.27a5.74,5.74,0,0,0,.45-2.13c0-.51.18-1.13.2-1.82s.17-1.2.19-1.83-.32-1.24-.31-1.84.6-1.28.6-1.84c0-.78-.15-1.44-.17-1.83a1.86,1.86,0,0,0-1.43-1.6c-.59-.09-1,.35-1.28,1.43-.11.49-.66,1-.79,1.78-.11.58,0,1.26-.15,1.91s-.38,1.24-.48,1.85,0,1.36,0,1.93a16.82,16.82,0,0,0,0,1.9,6.1,6.1,0,0,0-.11,2.26C109.79,92.68,110.31,93.09,111.37,93.14Z"/><path class="cls-4" d="M103.53,105.12c4.08-1.1,4-2.25,2.6-4.87a13.31,13.31,0,0,1-2.55-3.19,17.18,17.18,0,0,1-2.08-3.64,23.28,23.28,0,0,1-.56-4.14,29.22,29.22,0,0,1-.19-4.13,39.24,39.24,0,0,1,.19-4.12c.28-2.45.62-2,1.11-4a15.71,15.71,0,0,1,1.11-4,31.77,31.77,0,0,1,2.15-3.51,20.24,20.24,0,0,1,2.37-3.27c.92-1,1.36-2.59,2.55-3.35A13.06,13.06,0,0,1,114,60.89"/><path class="cls-4" d="M77.9,59.25c1.62-1.46,1.75-.64,3.89-2a23.8,23.8,0,0,1,3.62-2.33c1.3-.57,2.53-1.67,4-1.93a12.93,12.93,0,0,1,4.39.42,10.31,10.31,0,0,1,3.77,1.92"/><path class="cls-4" d="M91.44,77c-2.15,1.08-1.8,1.45-4.06,2.64-1.47.78-2.94,1.79-4.11,2.49"/><path class="cls-4" d="M117.78,82.82c-2.06.85-1.62,1.42-3.77,2.44-1.35.64-3,.91-4.15,1.59"/><path class="cls-4" d="M44.8,145.77c2,.7,1.65,1.54,3.6,2.24s2.15.15,4.1.85,1.88.88,3.83,1.57,1.93.77,3.88,1.47l3.91,1.39c1.95.7,2.09.31,4,1s1.81,1.1,3.76,1.8,2.1.29,4,1,1.91.83,3.86,1.53l3.9,1.4c2,.7,2.07.39,4,1.09s2.36,3.11,3.95,1.78-.82-2.36-.94-4.59.33-2.26.21-4.49-.18-2.24-.3-4.48-.61-2.21-.73-4.45"/><path class="cls-4" d="M97.25,164.1c1,1.88-.13,4.71-2,5.68s-3.73-.31-4.7-2.19-.86-3.92,1-4.9S96.28,162.23,97.25,164.1Z"/><path class="cls-4" d="M105.7,111.9l-3.6-1.7c-1-.49-2.34-.91-3.69-1.55-1.12-.54-2-1.9-3.23-2.51s-2.69-.46-3.92-1.06c-1.47-.71-2.55-.42-3.2,1a9.33,9.33,0,0,0-.28,4,13.5,13.5,0,0,0,1,3.83c.45,1.22.23,2.94,1.09,4s2.31,1.52,3.49,2.3A13,13,0,0,0,97,122.41"/><path class="cls-4" d="M37.69,80.92a36.51,36.51,0,0,1-1.11,4.13c-.31,1.19-1.18,2.43-1.66,4-.39,1.26-.37,2.78-.9,4.18s-.77,2.72-1.37,4.06-1.15,2.61-1.83,3.88-1.75,2.28-2.53,3.47A41.24,41.24,0,0,1,26,108.24a35.49,35.49,0,0,1-2.79,3.3,28.78,28.78,0,0,1-3.33,2.81c-1.16.8-2.76,1-4.06,1.58a22.67,22.67,0,0,1-4.1,1.1c-1.34.32-2.67,1.12-4.15,1.19"/><path class="cls-4" d="M124.26,217.31c-.36,1.5-1.36,2.83-1.71,4.29s-.4,3.06-.73,4.52-.42,3.06-.74,4.52-1.28,2.87-1.58,4.33,0,3.14-.3,4.6-1.4,2.88-1.67,4.33.57,3.26.32,4.7-1.11,3-1.35,4.4c-.26,1.59-.8,3.05-1,4.46-.25,1.64-.78,3.1-1,4.47-.24,1.74-.59,3.24-.75,4.51-.38,2.93,2.44,4,.26,4.65s-2.37.14-4.72.07-2.36.47-4.72.4-2.32-1.17-4.67-1.23-2.36.41-4.71.34-2.36.11-4.71,0-2.34-.7-4.69-.77-2.37.47-4.72.4-2.37.42-4.72.35-2.33-.95-4.68-1-2.37.67-4.72.61-2.32-1.09-4.67-1.15-2.37.42-4.72.35-2.34-.62-4.69-.69-2.35-.11-4.7-.17-2.36.1-4.71,0-2.38.91-4.74.84-2.32-1.12-4.67-1.19-2.37.67-4.73.6-2.35-.18-4.7-.24-2.37.14-4.72.08-2.36.11-4.72.05"/><path class="cls-4" d="M106.26,144.94c1.11,1.94.95,1.38,2.38,3.79.65,1.09,1.39,2.4,2.26,3.84.72,1.18,2.12,2.07,3,3.42s.85,2.91,1.69,4.22,1.38,2.61,2.21,3.89,2.15,2.12,3,3.38,1.06,2.87,1.92,4.1,2.26,2,3.14,3.26,2.2,2.08,3.09,3.26"/><path class="cls-4" d="M29.62,277.93c-1.4,2.1-.62,1.64-2.35,4.47-.74,1.2-2.37,2.19-3.36,3.88-.77,1.31-1.65,2.76-2.56,4.36-.78,1.36-.65,3.36-1.52,4.94-.77,1.39-2.25,2.5-3.09,4.06s-2,2.7-2.78,4.25-1.58,2.91-2.38,4.47c-.71,1.38-.28,3.31-.86,4.82s-1.8,2.7-2.24,4.25.12,3.24-.19,4.83-2,2.86-2.18,4.46-.3,3.17-.43,4.78.44,3.2.37,4.8-.11,3.16-.12,4.76.09,3.16.12,4.76.44,3.14.51,4.74-.85,3.21-.75,4.81,1.11,3.1,1.23,4.69-1,3.27-.83,4.85.54,3.15.69,4.73,1.41,3.06,1.57,4.63,0,3.21.13,4.78-.51,3.26-.35,4.83,1.68,3,1.84,4.61-1,3.3-.89,4.87.45,3.16.57,4.72,1.12,3.14,1.21,4.69-1.08,3.2-1,4.74.27,3.11.36,4.65,1.37,3,1.47,4.59-.17,3.14-.07,4.68-.38,3.16-.28,4.7.64,3.09.74,4.63-.56,3.18-.46,4.71,1.52,3,1.62,4.58-1,3.21-.95,4.74.21,3.13.32,4.67,1.74,3,1.85,4.55-.35,3.17-.24,4.7-.64,3.19-.53,4.71,1.45,3,1.56,4.57-.84,3.21-.72,4.73.09,3.14.2,4.66,1.49,3,1.61,4.56.21,3.14.33,4.66-.79,3.22-.67,4.73.42,3.13.54,4.64,1.25,3.06,1.38,4.56-.73,3.24-.6,4.73.91,3.11,1,4.59-.25,3.22-.12,4.7c.15,1.64-.34,3.25-.21,4.71.16,1.66.72,3.17.86,4.6.17,1.71,1.38,3.15,1.52,4.54.18,1.81-1.13,3.5-1,4.78.33,3.1-1.15,4.52,1.06,5.26s2.63-.34,5-.27,2.42-.66,4.82-.6,2.37,1.24,4.77,1.3,2.43-1,4.83-1,2.41-.25,4.81-.18,2.38.89,4.78.95,2.4.38,4.8.45,2.41-.23,4.82-.16,3.4,2,5.2.41-.21-2.77-.06-5.1-.29-2.36-.14-4.69,1-2.28,1.18-4.61.1-2.33.25-4.66-.7-2.39-.54-4.72-.19-2.35,0-4.68,1.5-2.25,1.65-4.58.11-2.33.27-4.66-.78-2.38-.63-4.71.39-2.32.54-4.65,0-2.35.1-4.68-.23-2.35-.08-4.68.82-2.29,1-4.62-.27-2.36-.12-4.69.92-2.28,1.08-4.61-.26-2.36-.11-4.69-.43-2.37-.28-4.7.27-2.33.42-4.66.35-2.31.51-4.65-.24-2.35-.09-4.69.6-2.3.75-4.63.77-2.29.92-4.62-.52-2.38-.37-4.71.17-2.33.32-4.66,1.22-2.27,1.37-4.6-.58-2.38-.43-4.71l.3-4.66c.15-2.34.54-2.31.69-4.64s-.58-2.38-.43-4.72.49-2.31.64-4.64-.42-2.37-.27-4.7,1.25-2.26,1.41-4.6-.91-2.4-.75-4.73,1.18-2.27,1.33-4.6-.43-2.37-.28-4.7.77-2.29.93-4.62-.84-2.4-.69-4.73.5-2.31.65-4.65.94-2.28,1.09-4.61-.45-2.38-.3-4.71-.57-2.38-.42-4.71,1.7-2.24,1.85-4.57-.39-2.37-.24-4.71.14-2.33.3-4.67.54-2.31.69-4.65"/><path class="cls-4" d="M114.19,272c.55,2.29,1,2.17,1.59,4.46s-.23,2.47.32,4.76.11,2.4.66,4.68.61,2.28,1.16,4.57,1.69,2,2.24,4.3,0,2.41.6,4.7-.45,2.52.1,4.81,2,1.95,2.51,4.24.59,2.28,1.14,4.57,0,2.42.54,4.71-.24,2.48.31,4.77.63,2.26,1.18,4.55.68,2.26,1.23,4.55.89,2.21,1.44,4.49,1.37,2.1,1.92,4.38-.73,2.6-.18,4.89,1.28,2.11,1.83,4.4.38,2.32.93,4.61.3,2.35.85,4.63.39,2.33.94,4.62.7,2.25,1.25,4.54.1,2.39.65,4.68,1.9,2,2.45,4.25.13,2.39.68,4.67,1,2.19,1.54,4.48-.29,2.49.26,4.78,1.39,2.08,1.94,4.37-.3,2.49.25,4.78,1.22,2.12,1.77,4.41-.52,2.55,0,4.84,1.26,2.12,1.81,4.4.85,2.22,1.39,4.51.59,2.28,1.14,4.57-.21,2.47.34,4.76,1,2.18,1.57,4.46,1.14,2.15,1.69,4.44-.89,2.64-.34,4.93.86,2.21,1.41,4.5,1,2.17,1.59,4.46.05,2.41.6,4.7,1.39,2.09,1.94,4.38.72,2.24,1.27,4.53-.82,2.62-.27,4.91,1.07,2.17,1.62,4.46.11,2.39.66,4.68.83,2.23,1.37,4.52,1.15,2.15,1.7,4.44.5,2.3,1.05,4.58.3,2.35.85,4.64,0,2.41.6,4.7.74,2.25,1.29,4.54.53,2.29,1.08,4.58.77,2.24,1.32,4.53.67,2.27,1.22,4.56.74,2.24,1.29,4.53.48,2.31,1,4.6,0,2.43.52,4.72.72,2.26,1.27,4.55,3.52,3.19,2,5-3-1-5.49-1.06-2.52.91-5,.84-2.46-1-5-1.12-2.52.89-5,.82-2.49-.32-5-.39-2.49.18-5,.11-2.5.09-5,0-2.46-1.34-4.95-1.41-2.94,1.87-5,.48-1.52-1.93-2.38-4.11-.25-2.43-1.11-4.61-.69-2.26-1.56-4.44-.51-2.32-1.38-4.51-1.77-1.82-2.63-4-1.21-2-2.08-4.23-.69-2.26-1.56-4.44-.67-2.26-1.54-4.44-1.16-2.07-2-4.25-.46-2.35-1.32-4.53.16-2.59-.7-4.78-2.16-1.67-3-3.85-1-2.14-1.86-4.32,0-2.54-.83-4.73-.62-2.28-1.49-4.46-.58-2.3-1.44-4.48-1.51-1.94-2.37-4.12-.58-2.3-1.44-4.49-.7-2.25-1.57-4.43-2.14-1.68-3-3.87.58-2.75-.29-4.93-2.21-1.66-3.08-3.84-.64-2.27-1.5-4.46-.8-2.21-1.66-4.39-.39-2.38-1.26-4.56-1.52-1.93-2.39-4.11.17-2.6-.69-4.79-1.22-2-2.09-4.23-1.13-2.07-2-4.26-.41-2.37-1.27-4.56-.9-2.17-1.77-4.36-1.88-1.79-2.75-4"/><path class="cls-5" d="M77.73,329.05c.78-2.54,1.9-1.18,4.82-2.34,1.46-.58,3-1.57,4.79-2.3,1.6-.66,3.5-.79,5.13-1.49,2.15-.93,3.88-1,4.87-.5,1.37.69,2.07,2.78,1.32,4.7a11.22,11.22,0,0,1-3.16,3.93c-1.19,1-2.54,1.76-3.65,2.71s-2.38,2-3.47,2.91-2.15,2.33-3.2,3.23c-1.31,1.12-3.11,1.36-4.09,2.19-2.17,1.87-2.61,5.69-3.28,3.53-.82-2.62.37-2.83.31-5.58s.44-2.8.09-5.53S76.93,331.67,77.73,329.05Z"/><path class="cls-6" d="M77.73,329.05c.78-2.54,1.9-1.18,4.82-2.34,1.46-.58,3-1.57,4.79-2.3,1.6-.66,3.5-.79,5.13-1.49,2.15-.93,3.88-1,4.87-.5,1.37.69,2.07,2.78,1.32,4.7a11.22,11.22,0,0,1-3.16,3.93c-1.19,1-2.54,1.76-3.65,2.71s-2.38,2-3.47,2.91-2.15,2.33-3.2,3.23c-1.31,1.12-3.11,1.36-4.09,2.19-2.17,1.87-2.61,5.69-3.28,3.53-.82-2.62.37-2.83.31-5.58s.44-2.8.09-5.53S76.93,331.67,77.73,329.05Z"/><path class="cls-4" d="M20.44,144.69c-1.17,1-2.27,2-3.35,3.1S14,149.16,13,150.32s-1.26,2.94-2.16,4.17-2.05,2.33-2.83,3.64A43.84,43.84,0,0,0,6,162.22c-.65,1.4-1.83,2.62-2.32,4.07s-.16,3.16-.47,4.67S2,173.9,1.84,175.44A36.5,36.5,0,0,0,2,180.1a35.21,35.21,0,0,0,.84,4.55,35.13,35.13,0,0,0,.95,4.53c.46,1.42,1.55,2.64,2.2,4.08s.84,3,1.64,4.33,2,2.34,2.88,3.63,2.18,2.45,3.09,3.73,1.26,3.11,2.17,4.4,1.45,3,2.35,4.26,2.51,2.22,3.41,3.51,1.36,3,2.27,4.31,2.44,2.26,3.35,3.56,1.26,3.08,2.18,4.38,2.43,2.24,3.37,3.53S35,235.21,36,236.5s1,3.3,1.92,4.59,3,1.71,4,3,1.37,3,2.38,4.27,2.55,2,3.77,3,2.28,2.29,3.71,3a20.46,20.46,0,0,0,4.62,1.17,21.31,21.31,0,0,0,4.68.53c1.56,0,3.17.37,4.79.05s3.3-.19,4.85-.8a33.44,33.44,0,0,0,4.2-2.53,40.1,40.1,0,0,0,4-2.73c1.13-.87,2.52-1.67,3.9-2.72,1.18-.9,2.23-2.14,3.57-3.15s2.86-1.35,4.18-2.34,2.28-2.16,3.58-3.14,2.18-2.31,3.47-3.28,2.4-2,3.68-3,3.16-1,4.44-2,2.42-2.05,3.69-3,2.74-1.63,4-2.58,2.12-2.48,3.38-3.43,3-1.31,4.25-2.25,2.15-2.46,3.41-3.39,2.68-1.76,3.93-2.69,2.78-1.64,4-2.56,2.48-2.07,3.7-3,2.44-2.18,3.64-3.08c1.37-1,2.7-1.89,3.87-2.76,1.46-1.08,2.95-1.74,4-2.54,2.42-1.8,4-3.14,4-3.14.75-2.16,0-2.43.74-4.59s1.51-1.9,2.26-4.06.11-2.39.87-4.55,1.41-1.93,2.17-4.1-.19-2.39,1.47-4c2.32-2.18,2.7-1.13,5.6-2.42"/><path class="cls-4" d="M10.4,214c1.8-1.71,1.78-1.73,3.57-3.44s2.35-1.12,4.15-2.83,1.91-1.58,3.71-3.29,1.1-2.43,2.89-4.14,1.75-1.75,3.54-3.46,1.76-1.74,3.56-3.45,2-1.53,3.76-3.24,2.21-1.29,4-3"/><path class="cls-5" d="M39.15,187.06c-.54-2.31,1.88-1.61,3.82-3.16a12.07,12.07,0,0,1,4.19-1.76c1.61-.51,3-1,3.73.88.51,1.29.21,3.26-.13,5.33a40,40,0,0,1-1.26,5.18c-.86,2.83,1.06,5.49-1.38,4.4-2.18-1-2.12-1-3.52-2.89s-.51-2.67-2.19-4.36S39.7,189.38,39.15,187.06Z"/><path class="cls-6" d="M39.15,187.06c-.54-2.31,1.88-1.61,3.82-3.16a12.07,12.07,0,0,1,4.19-1.76c1.61-.51,3-1,3.73.88.51,1.29.21,3.26-.13,5.33a40,40,0,0,1-1.26,5.18c-.86,2.83,1.06,5.49-1.38,4.4-2.18-1-2.12-1-3.52-2.89s-.51-2.67-2.19-4.36S39.7,189.38,39.15,187.06Z"/><path class="cls-4" d="M57.76,226.62c2.17-1.06,2-1.48,4.13-2.54s2.31-.76,4.48-1.82,2.49-.38,4.66-1.44,2-1.34,4.19-2.4,1.84-1.72,4-2.78,2.32-.73,4.49-1.79,2.59-.19,4.75-1.24,1.86-1.68,4-2.74,2.46-.46,4.63-1.52,1.86-1.68,4-2.74,1.93-1.56,4.1-2.62,2.77.2,4.94-.86S111.85,200,114,199s2.28-.83,4.45-1.88,2.2-1,4.37-2.07,3.23.29,5-1.39-.15-2.53,0-5.45c0-1.44-1.07-3.21-.88-5,.17-1.56,1.48-3.06,1.8-4.7s-.1-3.45.4-5a22.32,22.32,0,0,1,2.5-4.29c.87-1.49,1.43-3.41,2.7-4.33"/><path class="cls-4" d="M136.05,178.8c.85-2,.63-1.75,1.61-4.09.52-1.24,1.15-2.62,1.74-4.05s.32-3.13.84-4.41c.69-1.7,2.15-2.83,2.49-3.75.4-1.09,1.72-1.62,3-2.55,1.12-.81,1.94-2.22,3.14-2.82,2.07-1,2.17-.14,4.14-.85"/><path class="cls-4" d="M147.93,181.34c1-2.24,1-2.26,2-4.49s1.36-2.09,2.4-4.33.51-2.48,2.35-4.12A13.38,13.38,0,0,1,160,165"/><path class="cls-4" d="M143.81,175.32c1-2,.86-2.07,1.89-4.06s1.1-1.95,2.13-3.94.08-2.94,1.8-4.37c2.44-2,3.12-1.2,6-2.49"/><path class="cls-4" d="M19.42,225c.83,2.31.44,2.44,1.26,4.75s.18,2.55,1,4.86S23,236.69,23.87,239s.5,2.42,1.32,4.74,1.47,2.08,2.3,4.39.88,2.3,1.7,4.61-.34,2.73.48,5,1.38,2.12,2.2,4.43.66,2.38,1.49,4.69,1.11,2.22,1.94,4.53"/><path class="cls-5" d="M187.83,572.85c2.26,1,.77,1.6,3.25,4,1,.93,1.9,2.34,3.37,3.65,1.09,1,2.47,1.9,3.88,3.09,1.16,1,2.46,2,3.85,3.12,1.2,1,2.77,1.66,4.15,2.74s2.72,1.6,3.74,2.44c1.33,1.09,1.69,2.93,2.61,3.77,1.47,1.34,2.77,2.05,3.38,2.85,1.72,2.28.36,3.45-1.3,3.41s-3.07-.57-4.39-.66c-1.65-.11-3.11-.32-4.38-.5a23.74,23.74,0,0,1-4.21-1.35,17.12,17.12,0,0,1-3.88-1.92,34.09,34.09,0,0,1-3.87-2.11,18.54,18.54,0,0,1-3.46-3.72c-1.08-1.32-1.69-2.73-3.72-3.43a21.12,21.12,0,0,0-5-1c-1.39-.13-3.08,0-5.07,0-2.23-.07-2.9-1-3-2.68a7,7,0,0,1,1.22-4.55,14,14,0,0,1,3.28-3.71,15.48,15.48,0,0,1,4.32-2.67A17.19,17.19,0,0,1,187.83,572.85Z"/><path class="cls-6" d="M187.83,572.85c2.26,1,.77,1.6,3.25,4,1,.93,1.9,2.34,3.37,3.65,1.09,1,2.47,1.9,3.88,3.09,1.16,1,2.46,2,3.85,3.12,1.2,1,2.77,1.66,4.15,2.74s2.72,1.6,3.74,2.44c1.33,1.09,1.69,2.93,2.61,3.77,1.47,1.34,2.77,2.05,3.38,2.85,1.72,2.28.36,3.45-1.3,3.41s-3.07-.57-4.39-.66c-1.65-.11-3.11-.32-4.38-.5a23.74,23.74,0,0,1-4.21-1.35,17.12,17.12,0,0,1-3.88-1.92,34.09,34.09,0,0,1-3.87-2.11,18.54,18.54,0,0,1-3.46-3.72c-1.08-1.32-1.69-2.73-3.72-3.43a21.12,21.12,0,0,0-5-1c-1.39-.13-3.08,0-5.07,0-2.23-.07-2.9-1-3-2.68a7,7,0,0,1,1.22-4.55,14,14,0,0,1,3.28-3.71,15.48,15.48,0,0,1,4.32-2.67A17.19,17.19,0,0,1,187.83,572.85Z"/><path class="cls-4" d="M177.18,542.34c.69,2.39,1.77,2.07,2.46,4.46s.62,2.41,1.31,4.79.81,2.35,1.5,4.74-.3,2.67.39,5.06.61,2.41,1.31,4.79,1.81,2.07,2.5,4.46,2.46,2.93,1.27,5.11-2.71.52-5.08,1.19-2.6,2.55-4.92,1.75c-2.1-.72-.68-2.57-1.85-4.45s-1-2-2.21-3.85-2-1.39-3.13-3.27-1-2-2.17-3.87-1.66-1.58-2.82-3.46-.36-2.39-1.53-4.28-2-1.37-3.17-3.25l-2.33-3.78"/><path d="M24.49,568.76a30.6,30.6,0,0,0-2.61,3c-.7.92-1.71,1.84-2.59,3-.76,1-1.34,2.25-2.17,3.33S15.19,580,14.39,581s-1,2.62-1.8,3.62c-.89,1.16-1.64,2.29-2.36,3.2-1,1.34-2.34,2.31-3.1,3.5-1,1.54-2.19,2.77-2.63,4-.78,2.12-.3,4.08.8,4.72a6.56,6.56,0,0,0,4.07,1.05,12.58,12.58,0,0,0,3.77-1.71c1-.6,1.59-2.12,2.69-3s2-1.53,3-2.51,1.73-1.88,2.65-2.91,2.45-1.32,3.31-2.37a12,12,0,0,0,1.64-3.63,24.56,24.56,0,0,1,1.42-3.51c.54-.95.81-2.35,2-3.31a17.69,17.69,0,0,1,3.25-2.22c1.42-.7,2.73-1.3,2.91-2.65s-.8-2.6-1.53-3.85S33.29,566.53,32,566a6.37,6.37,0,0,0-4.4-.05C26.51,566.31,25.66,567.58,24.49,568.76Z"/><path class="cls-4" d="M24.49,568.76a30.6,30.6,0,0,0-2.61,3c-.7.92-1.71,1.84-2.59,3-.76,1-1.34,2.25-2.17,3.33S15.19,580,14.39,581s-1,2.62-1.8,3.62c-.89,1.16-1.64,2.29-2.36,3.2-1,1.34-2.34,2.31-3.1,3.5-1,1.54-2.19,2.77-2.63,4-.78,2.12-.3,4.08.8,4.72a6.56,6.56,0,0,0,4.07,1.05,12.58,12.58,0,0,0,3.77-1.71c1-.6,1.59-2.12,2.69-3s2-1.53,3-2.51,1.73-1.88,2.65-2.91,2.45-1.32,3.31-2.37a12,12,0,0,0,1.64-3.63,24.56,24.56,0,0,1,1.42-3.51c.54-.95.81-2.35,2-3.31a17.69,17.69,0,0,1,3.25-2.22c1.42-.7,2.73-1.3,2.91-2.65s-.8-2.6-1.53-3.85S33.29,566.53,32,566a6.37,6.37,0,0,0-4.4-.05C26.51,566.31,25.66,567.58,24.49,568.76Z"/><path class="cls-4" d="M20,537.79c.25,3.2,1.89,3.08,2.13,6.28s-1.06,3.3-.81,6.5.93,3.15,1.18,6.35-.05,3.23.2,6.43-1.81,4.22.13,6.78c1.33,1.78,2.69.69,4.91.75s2.62.42,4.17-1.17c2.2-2.27,1.35-2.71,2.07-5.78s.81-3.06,1.53-6.14.25-3.19,1-6.27.67-3.09,1.39-6.17"/><path d="M130.46,531.31c1.72,2-.64-2-.23-5.06.22-1.56,1.06-3.26,1.34-5.1s.2-3.55.5-5.23c.34-1.87,1.37-3.51,1.73-5a13.3,13.3,0,0,0,.08-5.09c-.23-1.86-1.32-2.91-2.43-4.15a15.41,15.41,0,0,0-3.81-3.06c-1.25-.75-2.75-1.77-4.42-2.65s-3.32-1.35-4.75-2.07c-2.61-1.32-3.82-5.5-4-2.92-.16,2.42.36,2.32,1.25,4.57s1.44,2,2.33,4.28.88,2.26,1.78,4.51,0,2.6.91,4.85,1.49,2,2.39,4.26l1.78,4.5c.89,2.25.57,2.38,1.47,4.63s1.66,2,2.39,4.3S128.88,529.47,130.46,531.31Z"/><path class="cls-4" d="M130.46,531.31c1.72,2-.64-2-.23-5.06.22-1.56,1.06-3.26,1.34-5.1s.2-3.55.5-5.23c.34-1.87,1.37-3.51,1.73-5a13.3,13.3,0,0,0,.08-5.09c-.23-1.86-1.32-2.91-2.43-4.15a15.41,15.41,0,0,0-3.81-3.06c-1.25-.75-2.75-1.77-4.42-2.65s-3.32-1.35-4.75-2.07c-2.61-1.32-3.82-5.5-4-2.92-.16,2.42.36,2.32,1.25,4.57s1.44,2,2.33,4.28.88,2.26,1.78,4.51,0,2.6.91,4.85,1.49,2,2.39,4.26l1.78,4.5c.89,2.25.57,2.38,1.47,4.63s1.66,2,2.39,4.3S128.88,529.47,130.46,531.31Z"/><path class="cls-4" d="M181.94,523.34c-2.49-.07-2.5.22-5,.16s-2.48-.5-5-.57-2.5.49-5,.42-2.51.37-5,.3-2.46-.94-5-1-2.49,0-5-.08-2.51.78-5,.71-2.51.26-5,.19-2.45-1.42-5-1.49"/><path class="cls-4" d="M14.62,518.74c2.49.07,2.47.61,5,.68s2.48.71,5,.78,2.5-.36,5-.29,2.52-1,5-.93,2.45,1.55,4.94,1.61,2.49,0,5,.1,2.5-.37,5-.3,2.52-.67,5-.6,2.46,1.24,5,1.31"/><path class="cls-4" d="M123.38,280.79c-2.37.19-2.44-.65-4.8-.45s-2.25,1.55-4.61,1.75-2.48-1.14-4.84-.94-2.35.37-4.71.57-2.29,1.08-4.65,1.27-2.47-1.06-4.83-.86-2.36.27-4.72.47S88,284,85.59,284.18s-2.39-.16-4.76,0-2.41-.38-4.77-.18-2.33.64-4.69.84-2.42-.57-4.79-.37S64.33,286,62,286.23s-2.47-1.07-4.83-.87l-4.73.39c-2.37.2-2.24,1.73-4.6,1.92s-2.41-.36-4.78-.17-2.43-.65-4.8-.46-2.26,1.42-4.62,1.62-2.46-.87-4.82-.67-2.38.05-4.75.25-2.26,1.45-4.63,1.65"/><path class="cls-4" d="M171.17,166.57c1.47,1.35.8,1,1.23,3.7a14.37,14.37,0,0,1,.47,3.95,28.33,28.33,0,0,1-.59,4c-.32,1.41-.8,2.69-1.07,3.92-.31,1.44-.64,2.75-.9,4-.32,1.48-.36,2.85-.6,4-.34,1.59-.7,2.89-.91,4-.58,2.86-1.18,1.95-1.08,4,.11,2.18,1.12,1.48,1.7,4.15.26,1.22-.3,2.86.06,4.47.3,1.32.68,2.75,1,4.26s1.08,2.69,1.43,4.17.57,2.84.93,4.28,1,2.76,1.35,4.19.69,2.84,1.07,4.25a18,18,0,0,1,.83,4,13.27,13.27,0,0,1-.77,4,12.25,12.25,0,0,1-1.4,3.82c-.77,1.09-2.29,1.49-3.37,2.24a11.76,11.76,0,0,1-3.49,1.63c-1.23.36-2.44,1.51-3.8,1.52s-2.6-.81-3.93-1.13a18.36,18.36,0,0,1-3.53-1.7,19,19,0,0,1-3.26-2.08c-1.2-.92-3-1-4.14-1.88s-1.93-2.4-3.05-3.28-2.88-1.22-4-2.09c-1.25-1-1.63-2.88-2.69-3.73-1.31-1-2.52-1.91-3.5-2.69-2.17-1.75-2.1-.92-3.81-2.31"/><path class="cls-4" d="M106.36,144.8c2-.17,1.49.3,4,.48a38.14,38.14,0,0,1,4,.45c1.22.2,2.75-.46,4.15-.1,1.22.33,2.25,1.59,3.57,2.08s2.48.84,3.74,1.43,2.08,1.61,3.28,2.31,2.91.35,4,1.17,2,1.84,3,2.75,1.65,2.11,2.6,3.11"/><path class="cls-4" d="M164.55,182.36a14.55,14.55,0,0,0-3.11,2.42,29.31,29.31,0,0,0-2.68,2.93,21.76,21.76,0,0,0-2.53,3.13c-.6,1.17-.49,2.61-.79,3.93s-1.35,2.57-1.19,3.95"/><path class="cls-4" d="M158.17,157.35c2.34,1.68,2.24,1.82,4.58,3.5s3.14.55,5.48,2.23"/><path class="cls-4" d="M141.22,203.14c1.48,1.81,2.56.93,4,2.74s1.58,1.73,3.06,3.54.73,2.43,2.2,4.24,1.28,2,2.76,3.79,1.25,2,2.73,3.83"/><path class="cls-4" d="M109.29,160.86a14.75,14.75,0,0,1,.27,2.71c0,.79-.79,1.69-.85,2.68a26.35,26.35,0,0,1,0,2.68,23.61,23.61,0,0,1-.81,2.56,16.13,16.13,0,0,1-.73,2.55,13.41,13.41,0,0,1-1,2.5,10.25,10.25,0,0,1-1.88,2,9.46,9.46,0,0,1-2.38,1.26,11.56,11.56,0,0,1-2.63.43,13.42,13.42,0,0,1-2.62.24,18.79,18.79,0,0,1-2.65-.31,23.5,23.5,0,0,1-2.63-.49c-.82-.23-1.69-.45-2.58-.78s-1.68-.5-2.48-.8-1.63-.65-2.43-1-1.53-.93-2.33-1.22-1.68-.52-2.48-.82-1.85-.05-2.65-.35-1.42-1.22-2.21-1.52-1.85-.09-2.64-.38-1.46-1.13-2.25-1.42-1.85-.11-2.64-.4-1.61-.74-2.39-1-1.72-.48-2.5-.77-1.7-.53-2.48-.81-1.43-1.29-2.2-1.57-1.81-.29-2.56-.56c-.91-.33-1.86-.26-2.58-.52-1-.35-1.66-1-2.32-1.24-1.69-.61-1.19-.54-2.41-1"/><path d="M165.11,486.22c-.05,1.93-.54-1.24-2.3-2.92-.79-.76-1.81-1.56-2.85-2.59-.85-.83-1.47-2-2.44-3s-2.64-.93-3.57-1.9-1.48-2.09-2.39-3.06a7.09,7.09,0,0,1-2.11-4c-.09-1.36.92-2.79,1.39-4.22s.41-3,1.12-4.26,2.24-2.17,3-3.22c1.47-2,1.55-5.39,2.9-3.71s-.37,2.43.12,4.46,1.12,1.89,1.61,3.93.75,2,1.24,4,.52,2,1,4.06-.17,2.2.32,4.23.89,1.94,1.38,4,.91,1.91,1.5,3.92S165.16,484.12,165.11,486.22Z"/><path class="cls-4" d="M165.11,486.22c-.05,1.93-.54-1.24-2.3-2.92-.79-.76-1.81-1.56-2.85-2.59-.85-.83-1.47-2-2.44-3s-2.64-.93-3.57-1.9-1.48-2.09-2.39-3.06a7.09,7.09,0,0,1-2.11-4c-.09-1.36.92-2.79,1.39-4.22s.41-3,1.12-4.26,2.24-2.17,3-3.22c1.47-2,1.55-5.39,2.9-3.71s-.37,2.43.12,4.46,1.12,1.89,1.61,3.93.75,2,1.24,4,.52,2,1,4.06-.17,2.2.32,4.23.89,1.94,1.38,4,.91,1.91,1.5,3.92S165.16,484.12,165.11,486.22Z"/><path class="cls-4" d="M383.07,311.8h-4.2c-2.1,0-2.1.67-4.21.67s-2.1.21-4.2.21-2.1-.94-4.2-.94-2.11.67-4.21.67-2.1-.85-4.2-.85-2.11.08-4.21.08-2.1.27-4.21.27-2.1.52-4.2.52-2.1-1.08-4.21-1.08-2.1.28-4.2.28-2.1.73-4.2.73-2.1-1-4.21-1-2.1,1-4.2,1-2.1-.07-4.21-.07-2.1.11-4.2.11-2.11-.91-4.21-.91-2.11-.07-4.21-.07-2.1,1-4.21,1-2.1-.08-4.21-.08-2.1-.3-4.2-.3-2.11.4-4.21.4-2.11-.78-4.22-.78-2.39,1.48-3.89,0-.69-1.76-.69-3.85.17-2.09.17-4.18-.5-2.09-.5-4.19.84-2.09.84-4.18-.86-2.09-.86-4.18V287c0-2.09,0-2.09,0-4.18s.76-2.09.76-4.18.12-2.09.12-4.18-.18-2.09-.18-4.19-.45-2.09-.45-4.18.39-2.09.39-4.18.35-2.09.35-4.18-.18-2.09-.18-4.18,0-2.09,0-4.18-.39-2.1-.39-4.19-.37-2.09-.37-4.18,1-2.09,1-4.18-.41-2.09-.41-4.18-.6-2.1-.6-4.19.4-2.09.4-4.18,0-2.09,0-4.18.34-2.09.34-4.18.12-2.1.12-4.19-.48-2.09-.48-4.18.15-2.09.15-4.18.4-2.09.4-4.18.1-2.09.1-4.18-.21-2.09-.21-4.18.18-2.09.18-4.18-.24-2.09-.24-4.18-.18-2.09-.18-4.18-.38-2.09-.38-4.18,0-2.09,0-4.18.34-2.09.34-4.18-.46-2.09-.46-4.18-.13-2.09-.13-4.18.26-2.09.26-4.18.54-2.09.54-4.18-.06-2.1-.06-4.19-.72-2.09-.72-4.18.36-2.09.36-4.18.62-2.09.62-4.18-.5-2.09-.5-4.19.31-2.09.31-4.18-.6-2.09-.6-4.18-.05-2.09-.05-4.18,1.09-2.1,1.09-4.19-.51-2.09-.51-4.18.16-2.09.16-4.18-.26-2.1-.26-4.19-.32-2.09-.32-4.18.19-2.09.19-4.19.75-2.09.75-4.18-.6-2.09-.6-4.19-.16-2.09-.16-4.18.07-2.09.07-4.19-.41-2.09-.41-4.18.17-2.09.17-4.19.36-2.09.36-4.18S282,59,282,57s-.1-2.09-.1-4.19,0-2.09,0-4.18.32-2.09.32-4.19.38-2.09.38-4.18-.88-2.1-.88-4.19-.06-2.09-.06-4.19,0-2.09,0-4.19.65-2.09.65-4.18-.09-2.1-.09-4.19.05-2.1.05-4.19-.8-2.1-.8-4.2-.69-2.59.78-4.08,2,.52,4,.52,2.06-.74,4.13-.74,2.07.77,4.14.77,2.08-.69,4.15-.69,2.07-.21,4.14-.21S304.89,6,307,6s2.07.28,4.14.28,2.07.66,4.14.66,2.07-.28,4.15-.28S321.46,6,323.53,6s2.07.32,4.14.32,2.07.85,4.14.85,2.07-.61,4.15-.61,2.07.58,4.14.58,2.07-.62,4.14-.62,2.07-.49,4.14-.49,2.08,1.22,4.15,1.22,2.07-1,4.14-1,2.07.22,4.14.22,2.08,0,4.15,0,2.07.85,4.14.85,2.08-.27,4.15-.27S375.32,6,377.39,6s2.07,1,4.15,1,2.07-.75,4.14-.75,2.07.49,4.14.49S391.89,6,394,6s2.08,1.37,4.15,1.37,2.07-.89,4.14-.89,2.07.55,4.15.55,2.07.06,4.14.06,2.08-.4,4.15-.4,2.08.6,4.15.6,2.07-.85,4.14-.85,2.08.38,4.15.38,2.08.56,4.15.56,2.08-.84,4.16-.84,2.63-1.28,4.09.2,0,2,0,4.12-.56,2.09-.56,4.18,1.11,2.09,1.11,4.18-.69,2.1-.69,4.19.48,2.09.48,4.18-.2,2.09-.2,4.18.6,2.09.6,4.18-.24,2.09-.24,4.18,0,2.09,0,4.18-.72,2.09-.72,4.18-.15,2.1-.15,4.19.88,2.09.88,4.18.05,2.09.05,4.18,0,2.09,0,4.18-.22,2.09-.22,4.18-.52,2.09-.52,4.19.41,2.09.41,4.18.41,2.09.41,4.18,0,2.09,0,4.18,0,2.09,0,4.18-1.09,2.09-1.09,4.19.79,2.09.79,4.18-.31,2.09-.31,4.18.07,2.09.07,4.18-.56,2.09-.56,4.19.68,2.09.68,4.18-.6,2.09-.6,4.18.18,2.09.18,4.18.23,2.09.23,4.18-.19,2.09-.19,4.17.5,2.09.5,4.18-.48,2.09-.48,4.18.38,2.09.38,4.18.31,2.1.31,4.19-.67,2.09-.67,4.18-.47,2.09-.47,4.18.68,2.09.68,4.18-.55,2.09-.55,4.18.6,2.09.6,4.18-.66,2.09-.66,4.18.59,2.09.59,4.19.45,2.09.45,4.18S439,184.4,439,186.49s1.22,2.09,1.22,4.18-.67,2.1-.67,4.19.54,2.09.54,4.18-.45,2.09-.45,4.18.39,2.09.39,4.19,0,2.09,0,4.18-.47,2.09-.47,4.18-.55,2.1-.55,4.19.4,2.09.4,4.18,0,2.09,0,4.19-.17,2.09-.17,4.18.3,2.09.3,4.19-.57,2.09-.57,4.18.31,2.09.31,4.19.48,2.09.48,4.18.17,2.09.17,4.19-.93,2.09-.93,4.18.17,2.09.17,4.18-.29,2.09-.29,4.19.64,2.09.64,4.18-.65,2.09-.65,4.19.6,2.09.6,4.18-.17,2.1-.17,4.19-.31,2.09-.31,4.19.16,2.09.16,4.19.26,2.09.26,4.18-.08,2.1-.08,4.19-.32,2.1-.32,4.19,0,2.1,0,4.2,2.1,2.75.68,4.3-2-.65-4-.65-1.92.61-3.84.61-1.92-.61-3.84-.61-1.93-.14-3.85-.14-1.92,0-3.85,0"/><path class="cls-4" d="M439.59,28.68c-2.08,0-2.08-.83-4.15-.83s-2.08.79-4.16.79-2.07-.31-4.15-.31-2.07-.8-4.15-.8-2.07.53-4.15.53-2.07.29-4.15.29-2.08-.64-4.16-.64-2.07.6-4.15.6-2.07-.75-4.15-.75-2.07,1-4.15,1-2.08-.59-4.16-.59-2.07-.27-4.15-.27-2.07,1.13-4.15,1.13-2.08-1.2-4.16-1.2-2.07-.09-4.15-.09-2.08,1.17-4.15,1.17-2.08-.93-4.16-.93-2.07.49-4.15.49-2.08-.21-4.16-.21-2.07-.34-4.15-.34-2.08-.26-4.16-.26-2.07,1-4.15,1-2.08-.55-4.15-.55-2.08-.08-4.16-.08-2.07.34-4.15.34-2.08,0-4.15,0-2.08-.08-4.16-.08-2.08-.32-4.15-.32-2.08.32-4.16.32-2.08.25-4.16.25-2.08-.28-4.16-.28-2.07-.25-4.15-.25-2.08.3-4.16.3-2.08-.41-4.16-.41-2.08.78-4.16.78-2.08.1-4.17.1"/><path d="M299.37,18a3.84,3.84,0,0,1-1.5,2.59,3.28,3.28,0,0,1-2.58.91c-1.09,0-2.26.19-3-.52a4.31,4.31,0,0,1-1-3,3.7,3.7,0,0,1,1.44-2.53,3.45,3.45,0,0,1,2.53-1.25,3.94,3.94,0,0,1,2.88.91A4.19,4.19,0,0,1,299.37,18Z"/><path class="cls-4" d="M299.37,18a3.84,3.84,0,0,1-1.5,2.59,3.28,3.28,0,0,1-2.58.91c-1.09,0-2.26.19-3-.52a4.31,4.31,0,0,1-1-3,3.7,3.7,0,0,1,1.44-2.53,3.45,3.45,0,0,1,2.53-1.25,3.94,3.94,0,0,1,2.88.91A4.19,4.19,0,0,1,299.37,18Z"/><path class="cls-1" d="M311.1,22.08a3.86,3.86,0,0,1-2.58-1.5,3.32,3.32,0,0,1-.91-2.59c0-1.08-.19-2.26.52-3a4.28,4.28,0,0,1,3-1,3.62,3.62,0,0,1,2.53,1.44A3.46,3.46,0,0,1,314.89,18a4,4,0,0,1-.91,2.88A4.21,4.21,0,0,1,311.1,22.08Z"/><path class="cls-7" d="M311.1,22.08a3.86,3.86,0,0,1-2.58-1.5,3.32,3.32,0,0,1-.91-2.59c0-1.08-.19-2.26.52-3a4.28,4.28,0,0,1,3-1,3.62,3.62,0,0,1,2.53,1.44A3.46,3.46,0,0,1,314.89,18a4,4,0,0,1-.91,2.88A4.21,4.21,0,0,1,311.1,22.08Z"/><path class="cls-2" d="M325.6,22.28a4.78,4.78,0,0,1-3.12-1.17,4.57,4.57,0,0,1-.83-3.12c0-1.08.82-1.7,1.53-2.41a3.1,3.1,0,0,1,2.42-1.11c1.08,0,2.35-.25,3.06.46a4.57,4.57,0,0,1,1,3.06,4,4,0,0,1-1.45,2.66C327.55,21.37,326.68,22.28,325.6,22.28Z"/><path class="cls-8" d="M325.6,22.28a4.78,4.78,0,0,1-3.12-1.17,4.57,4.57,0,0,1-.83-3.12c0-1.08.82-1.7,1.53-2.41a3.1,3.1,0,0,1,2.42-1.11c1.08,0,2.35-.25,3.06.46a4.57,4.57,0,0,1,1,3.06,4,4,0,0,1-1.45,2.66C327.55,21.37,326.68,22.28,325.6,22.28Z"/><path class="cls-9" d="M271.58,28.44c-2.07,0-2.07-.28-4.14-.28s-2.07,0-4.13,0-2.07.32-4.14.32-2.07-.87-4.14-.87-2.06.83-4.13.83-2.07-.39-4.14-.39-2.07-.17-4.14-.17-2.06-.27-4.13-.27-2.07.13-4.14.13-2.07,1.05-4.14,1.05-2.06-.37-4.13-.37-2.07,0-4.14,0-2.07.44-4.14.44-2.07-.7-4.14-.7-2.07-.4-4.13-.4-2.07.06-4.14.06-2.07,1-4.14,1-2.07-.45-4.14-.45-2.07-.9-4.14-.9-2.07,1.28-4.14,1.28-2.07,0-4.14,0-2.07-.51-4.14-.51-2.07-.72-4.13-.72-2.07.08-4.14.08-2.07.11-4.14.11S166.07,28,164,28s-2.07.74-4.14.74-2.07-1.15-4.14-1.15-2.07.66-4.14.66-2.07-.15-4.14-.15-2.07-.22-4.14-.22-2.07-.15-4.14-.15-2.07.14-4.14.14-2.08-.41-4.15-.41-2.07,1.23-4.15,1.23-2.07-.38-4.14-.38"/><path d="M444.71,6.69A5,5,0,0,0,443,3.3a4.44,4.44,0,0,0-3.38-1.13c-1.37,0-2.72,0-3.61.91a5.65,5.65,0,0,0-1.9,3.61c0,1.36,1.13,2.58,2,3.48a5.38,5.38,0,0,0,3.48,1.91c1.36,0,2.55-1.05,3.44-1.94A5,5,0,0,0,444.71,6.69Z"/><path class="cls-10" d="M444.71,6.69A5,5,0,0,0,443,3.3a4.44,4.44,0,0,0-3.38-1.13c-1.37,0-2.72,0-3.61.91a5.65,5.65,0,0,0-1.9,3.61c0,1.36,1.13,2.58,2,3.48a5.38,5.38,0,0,0,3.48,1.91c1.36,0,2.55-1.05,3.44-1.94A5,5,0,0,0,444.71,6.69Z"/><path class="cls-4" d="M397.22,126.4c-.21.84-.08,1.77-.32,2.61s-.47,1.67-.74,2.49-1.2,1.42-1.49,2.23-.31,1.73-.64,2.53-.75,1.55-1.1,2.34-.57,1.64-.95,2.42-.6,1.64-1,2.4-.94,1.46-1.38,2.21-1.3,1.23-1.76,2-.64,1.65-1.14,2.36-.93,1.46-1.46,2.15-1.11,1.33-1.67,2-.95,1.48-1.54,2.11-1.28,1.19-1.9,1.79-1.41,1-2.06,1.59-1.27,1.18-1.95,1.72-1.35,1.1-2.05,1.59-1.43,1-2.17,1.45-1.58.72-2.34,1.13-1.64.57-2.42.93-1.41,1.21-2.21,1.51-1.67.62-2.5.85-1.73.43-2.58.58a26,26,0,0,1-2.65-.06,25.31,25.31,0,0,1-2.6.14,24.85,24.85,0,0,1-2.6-.2,26.47,26.47,0,0,1-2.67,0c-.85-.19-1.57-.92-2.4-1.19s-1.51-.86-2.31-1.21-1.76-.32-2.53-.74-1.24-1.27-2-1.76-1.66-.63-2.35-1.18-1.44-1-2.09-1.59-1.45-1-2.07-1.64-1.06-1.4-1.64-2.07-.78-1.59-1.32-2.29-1.17-1.28-1.68-2-1.31-1.22-1.77-2-.74-1.59-1.17-2.36-.37-1.76-.77-2.55-1.11-1.37-1.48-2.17-.38-1.72-.72-2.53-1-1.46-1.33-2.28-.9-1.52-1.19-2.35.17-1.89-.1-2.73-1.12-1.47-1.36-2.32-.33-1.71-.55-2.56-.39-1.69-.58-2.55.14-1.8,0-2.66-.49-1.67-.65-2.53-1-1.6-1.1-2.47.33-1.81.21-2.68-.68-1.67-.78-2.54.11-1.81,0-2.66-.64-1.72-.73-2.58.67-1.86.58-2.72-.74-1.72-.82-2.57.18-1.81.1-2.66-.12-1.78-.2-2.63-.39-1.76-.45-2.61.24-1.81.18-2.66-.63-1.76-.67-2.6.15-1.81.12-2.64.3-1.81.29-2.64-.52-1.82-.5-2.63.2-1.83.27-2.63c.07-1,.18-1.83.3-2.62A16,16,0,0,1,315,75c.29-.93,0-2,.39-2.69s1.3-1.25,1.85-1.93.87-1.48,1.48-2.19,1.18-1.14,1.76-1.91c-1-.68-1.25.15-2.44-.08s-1.17-.37-2.36-.6-1.2-.21-2.4-.44-1.11-.66-2.31-.89-1.18-.32-2.37-.55-1.3.31-2.5.09"/><path class="cls-4" d="M339.19,106.91c-.86-1.06-1-.43-2.42-1.21a8.87,8.87,0,0,0-2.43-.93,9.7,9.7,0,0,0-2.62-.24c-.7,0-1.55-.41-2.48-.35-.76,0-1.59,0-2.46.1s-1.61.23-2.45.3-1.61.42-2.44.49-1.68-.1-2.48,0-1.7-.07-2.48,0-1.71.26-2.45.33l-2.45.23a4.39,4.39,0,0,0-2.26,1.18,6.82,6.82,0,0,0-1.42,2.07c-.41.71-1.31,1.26-1.55,2.15a14.07,14.07,0,0,0-.2,2.64,15.12,15.12,0,0,0,.4,2.58,21.9,21.9,0,0,0,.17,2.62,16.49,16.49,0,0,0,.72,2.53,17.06,17.06,0,0,0,.92,2.49,15.19,15.19,0,0,0,1.47,2.24,14.59,14.59,0,0,0,2.09,1.65,21.43,21.43,0,0,0,4.48,2.83,17.91,17.91,0,0,0,2.59.7,19.62,19.62,0,0,0,2.68.11,23.91,23.91,0,0,0,2.68,0c.94-.1,1.79-.33,2.6-.41s1.8-.29,2.59-.39a23.78,23.78,0,0,0,2.53-.64,9,9,0,0,0,2.4-.81,4.61,4.61,0,0,0,2-1.54,11,11,0,0,0,.79-2.45"/><path class="cls-4" d="M391.38,98.46c.61-1.13.65-.71,1.68-1.85a13,13,0,0,1,1.73-1.81c.63-.48,1-1.43,1.86-1.84a13.26,13.26,0,0,1,2.47-.84,14,14,0,0,1,2.56-.49c.8-.06,1.64.55,2.54.63a16.16,16.16,0,0,1,2.53.19,46.12,46.12,0,0,1,5,1.89,13.32,13.32,0,0,1,2.08,1.8c.58.67.62,1.76,1.07,2.54a16.61,16.61,0,0,1,1.5,2.25,20.1,20.1,0,0,1,.22,2.72,20.45,20.45,0,0,1,.44,2.6,21.52,21.52,0,0,1,.22,2.65,22.4,22.4,0,0,1,.07,2.71c-.14.89-1,1.61-1.21,2.47a20.64,20.64,0,0,1-.71,2.54,18.5,18.5,0,0,1-.81,2.58c-.48.78-1.48,1.13-2.06,1.78s-.85,1.72-1.57,2.23-1.43.92-2.08,1.31-1.46.91-2.14,1.23-1.76.16-2.46.39a12.77,12.77,0,0,1-2.33.52c-1,.14-1.74.78-2.41.71-1.55-.16-1.41-.08-2.41-.77"/><path class="cls-4" d="M363.72,127.25a19.8,19.8,0,0,1-2.53.06,15.26,15.26,0,0,1-2.46-.6,12.5,12.5,0,0,1-2.33-.78c-.81-.31-1.81-.16-2.49-.6a12.29,12.29,0,0,1-1.84-1.76,12.64,12.64,0,0,1-1.31-2.14,15.07,15.07,0,0,1-1.35-2.08,18.93,18.93,0,0,1-1.09-2.28,22.07,22.07,0,0,1-.8-2.42,20.88,20.88,0,0,1,.21-2.57c-.06-.93-.56-1.78-.52-2.51a10.73,10.73,0,0,1,.57-2.42c.23-.85,1-1.35,1.4-2a7.77,7.77,0,0,1,1.32-2,7.9,7.9,0,0,1,2-1.36,9.07,9.07,0,0,1,2.44-.16c.87-.08,1.73-.54,2.66-.62s1.82.32,2.73.24,1.75-.75,2.64-.83,1.85.21,2.73.14,1.84,0,2.71-.08,1.77-.87,2.63-1,1.95.55,2.76.45a10.7,10.7,0,0,1,2.54,0c.95.11,2-.35,2.71,0s1.18,1.41,1.72,2a6.22,6.22,0,0,1,1.44,2.14,7.82,7.82,0,0,1,.13,2.61,19.35,19.35,0,0,1-.6,2.61,19.09,19.09,0,0,1-.89,2.5c-.3.84-.08,1.9-.48,2.7a24.31,24.31,0,0,1-1.66,2.16,23.86,23.86,0,0,1-1.63,2.12,24.46,24.46,0,0,1-1.66,2.11,24.19,24.19,0,0,1-2,1.8,26.48,26.48,0,0,1-2.23,1.51,22.17,22.17,0,0,1-2.45,1.1,19.52,19.52,0,0,1-2.43,1.13A14.56,14.56,0,0,1,363.72,127.25Z"/><path d="M362.83,104.26c-.72.21-.8,1.08-.88,2a6.07,6.07,0,0,0,.28,2.16c.14.48.39,1.06.6,1.72s.25,1.18.45,1.78.33,1.19.52,1.76.56,1.16.75,1.68c.26.75.1,1.49.26,1.86.31.73,1.14.75,1.79.63s1.27-.32,1.13-1.41c-.06-.51-.52-1.11-.63-1.83s.22-1.3.11-1.95-.49-1.22-.6-1.83-.11-1.34-.22-1.91a10.65,10.65,0,0,0-.81-1.75c-.22-.79.09-1.86-.34-2.38A2.32,2.32,0,0,0,362.83,104.26Z"/><path class="cls-4" d="M362.83,104.26c-.72.21-.8,1.08-.88,2a6.07,6.07,0,0,0,.28,2.16c.14.48.39,1.06.6,1.72s.25,1.18.45,1.78.33,1.19.52,1.76.56,1.16.75,1.68c.26.75.1,1.49.26,1.86.31.73,1.14.75,1.79.63s1.27-.32,1.13-1.41c-.06-.51-.52-1.11-.63-1.83s.22-1.3.11-1.95-.49-1.22-.6-1.83-.11-1.34-.22-1.91a10.65,10.65,0,0,0-.81-1.75c-.22-.79.09-1.86-.34-2.38A2.32,2.32,0,0,0,362.83,104.26Z"/><path class="cls-4" d="M317.11,48.9c1.15.6.73.58,2.21,1.35.64.33,1.57.42,2.45.88.69.36,1.18,1.29,2,1.72s1.55.61,2.36,1,1.54.69,2.34,1.1,1.28,1.19,2.07,1.6,1.89,0,2.68.45,1.17,1.42,2,1.83,1.71.4,2.49.8,1.37,1.06,2.15,1.46,1.41,1,2.18,1.38,1.58.67,2.35,1.07,1.74.37,2.51.77,1.25,1.32,2,1.72,1.71.42,2.49.82,1.39,1,2.16,1.43,1.76.35,2.53.75,1.19,1.42,2,1.82,1.61.63,2.38,1,1.71.43,2.48.83,1.45.94,2.22,1.34l2.3,1.18c.76.4,1.5.86,2.27,1.25s1.7.47,2.47.87,1.49,1,2.27,1.38,1.64.7,2.44,1,1.45,1.18,2.26,1.5,1.83.21,2.65.5,1.58.93,2.42,1.18,1.82.11,2.67.32,1.66.67,2.53.85,1.72.45,2.59.6,1.82-.18,2.7-.06,1.7.57,2.59.67,1.76,0,2.65.12,1.75.23,2.64.28,1.77-.12,2.67-.08"/><path d="M311.86,65.46c-.36.81-.79,1.72-1.1,2.51s-.71,1.64-1,2.44-.22,1.79-.43,2.61-.75,1.65-.92,2.47-.06,1.8-.18,2.63,0,1.79,0,2.62-.31,1.76-.32,2.59-.13,1.8-.07,2.61-.18,1.87-.06,2.65a25,25,0,0,0,.58,2.58c.38,1.62-.17,3.13,1.1,2.87,1.44-.3,1.34-.89,2.61-1.63a7.48,7.48,0,0,0,2.48-1.63c.9-.92.14-1.1.06-2.7,0-.73-.84-1.58-.82-2.56,0-.79,0-1.68.11-2.59s.59-1.64.72-2.53-.18-1.77,0-2.63.47-1.67.73-2.51,1.15-1.4,1.48-2.22.53-1.61.94-2.39A22.48,22.48,0,0,1,319,68.36a24.38,24.38,0,0,1,1.48-2,6.64,6.64,0,0,0-2.79-.72c-1.43-.12-1.44.25-2.85,0A5.38,5.38,0,0,0,311.86,65.46Z"/><path class="cls-4" d="M311.86,65.46c-.36.81-.79,1.72-1.1,2.51s-.71,1.64-1,2.44-.22,1.79-.43,2.61-.75,1.65-.92,2.47-.06,1.8-.18,2.63,0,1.79,0,2.62-.31,1.76-.32,2.59-.13,1.8-.07,2.61-.18,1.87-.06,2.65a25,25,0,0,0,.58,2.58c.38,1.62-.17,3.13,1.1,2.87,1.44-.3,1.34-.89,2.61-1.63a7.48,7.48,0,0,0,2.48-1.63c.9-.92.14-1.1.06-2.7,0-.73-.84-1.58-.82-2.56,0-.79,0-1.68.11-2.59s.59-1.64.72-2.53-.18-1.77,0-2.63.47-1.67.73-2.51,1.15-1.4,1.48-2.22.53-1.61.94-2.39A22.48,22.48,0,0,1,319,68.36a24.38,24.38,0,0,1,1.48-2,6.64,6.64,0,0,0-2.79-.72c-1.43-.12-1.44.25-2.85,0A5.38,5.38,0,0,0,311.86,65.46Z"/><path class="cls-4" d="M310.58,55.78c1.15.42,1.12.48,2.28.9l2.31.81c1.15.42,1.31,0,2.46.39s1.16.39,2.31.81,1.05.73,2.2,1.15,1.24.19,2.39.61"/><path class="cls-4" d="M347.61,92.67a5.12,5.12,0,0,1,1.08-2.21c.41-.59.56-1.59,1.24-2.28s1.52-.73,2.26-1.29,1.1-1.29,1.89-1.75A22.2,22.2,0,0,1,356.37,84c.73-.33,1.64-.34,2.49-.62"/><path class="cls-4" d="M341.14,114.47c-.39,1.24-.36,1-.83,2.45-.23.71.19,1.77-.1,2.68s-1.23,1.38-1.5,2.23,0,1.8-.28,2.63-.85,1.55-1.12,2.36-.07,1.83-.32,2.61-.73,1.67-1,2.41c-.34,1-.7,1.83-.91,2.42a4.71,4.71,0,0,0,0,2.27c.08.8-.14,1.66.4,2.3s1.35.69,2.09,1.18,1,1.37,1.75,1.75,1.43.59,2.21.92"/><path class="cls-4" d="M344,150.3c.77-.57.57-.85,1.34-1.42s.74-.61,1.51-1.18.76-.59,1.53-1.16.83-.5,1.6-1.07.83-.49,1.6-1.06.87-.45,1.64-1,.65-.73,1.42-1.3.87-.44,1.64-1,.73-.63,1.5-1.2.58-.83,1.35-1.4,1-.23,1.8-.8.64-.76,1.41-1.33l1.54-1.15c.78-.57.69-.69,1.47-1.26s.71-.65,1.49-1.23.88-.37,1.8-.66c-.05.66-.16,1-.23,1.65s.08,1.34,0,2-.3,1.28-.42,1.89-.22,1.31-.38,1.91-.76,1.15-.95,1.74-.18,1.33-.42,1.89-.47,1.25-.76,1.79-1,.94-1.34,1.44-.42,1.34-.83,1.8-1.2.66-1.66,1a13,13,0,0,1-1.43,1.3,10.22,10.22,0,0,1-1.8.69c-.63.24-1.14.81-1.74.94a12.49,12.49,0,0,1-2-.1,11.16,11.16,0,0,1-1.9-.24,5.74,5.74,0,0,1-1.85-.27"/><path class="cls-4" d="M397.93,117c.73-1.15.89-1,1.62-2.18s1.18-.86,1.91-2,.41-1.35,1.14-2.49,1-.94,1.76-2.09.41-1.34,1.14-2.48.47-1.31,1.2-2.45,1.37-.74,2.1-1.88.19-1.49.92-2.63.85-1.07,1.58-2.21.76-1.13,1.5-2.27,1.17-.86,1.91-2"/><path class="cls-4" d="M331.52,48.89c.76-.32,1.39-1,2.2-1.35s1.66-.36,2.47-.63,1.71-.15,2.54-.4,1.52-.77,2.35-1,1.67-.25,2.5-.45,1.56-.76,2.39-.94,1.65-.39,2.48-.56,1.79.36,2.62.21,1.61-.6,2.45-.73,1.69-.16,2.53-.27,1.66-.38,2.5-.48,1.67-.38,2.5-.46,1.71,0,2.55-.08,1.72.38,2.56.34,1.68-.43,2.52-.44,1.71-.11,2.54-.1,1.71.09,2.54.14,1.74-.14,2.56-.06,1.71.3,2.52.43,1.66.51,2.45.69,1.7.35,2.47.6,1.63.49,2.39.78,1.6.62,2.33,1,1.47.9,2.18,1.27,1.37,1,2.06,1.44,1.74.46,2.39.93,1.42,1,2,1.53S398.44,51.43,399,52a20.36,20.36,0,0,1,1.36,2.16,21.28,21.28,0,0,1,1.49,2c.83,1.36.11,2.9,1.2,2.27s.44-1.31,1.25-2.3,1.2-.65,2-1.64,1-.79,1.84-1.78.45-1.28,1.26-2.26"/><path class="cls-4" d="M414.46,92.15c.73-1.08.28-.94.8-2.5a16.14,16.14,0,0,0,.72-2.49,17.49,17.49,0,0,0,.53-2.58,22.74,22.74,0,0,0,0-2.63c-.06-.82-.29-1.69-.44-2.6s-.21-1.7-.44-2.59-.6-1.61-.9-2.47-.69-1.57-1-2.41-.9-1.45-1.3-2.27-.78-1.5-1.23-2.29S410.52,65.74,410,65s-1.17-1.28-1.68-2"/><path class="cls-4" d="M394.37,77c1.21.12,1.23-.12,2.44,0s1.15.75,2.36.87,1.24-.13,2.45,0,1.25-.25,2.46-.13,1.19.37,2.4.49,1.21.15,2.42.27"/><path d="M376.74,162.15c.51,1.36.91,1.15,2,2.13s1.09.83,2.71.24a10.46,10.46,0,0,0,2.41-1.58,17.45,17.45,0,0,0,1.65-2.27c.53-.64,1.56-1.06,2.09-1.93s.33-1.84.76-2.75.75-1.6,1.1-2.53.52-1.59.78-2.34,1.08-1.41,1.31-2.16.54-1.62.75-2.37-.17-1.8,0-2.55.44-1.65.59-2.38c.19-.94.52-1.71.63-2.39.24-1.58,1.59-2.43.39-2.16s-.48.55-1.06,2.09c-.25.67-.65,1.43-1.05,2.33-.31.71-.21,1.71-.63,2.54s-.86,1.43-1.31,2.22-.57,1.62-1.05,2.38-1.35,1.13-1.85,1.87-.53,1.7-1.06,2.41-1,1.35-1.6,2-1.11,1.31-1.7,2-1.49.94-2.1,1.57-1.24,1.16-1.87,1.77S377.39,161.56,376.74,162.15Z"/><path class="cls-4" d="M376.74,162.15c.51,1.36.91,1.15,2,2.13s1.09.83,2.71.24a10.46,10.46,0,0,0,2.41-1.58,17.45,17.45,0,0,0,1.65-2.27c.53-.64,1.56-1.06,2.09-1.93s.33-1.84.76-2.75.75-1.6,1.1-2.53.52-1.59.78-2.34,1.08-1.41,1.31-2.16.54-1.62.75-2.37-.17-1.8,0-2.55.44-1.65.59-2.38c.19-.94.52-1.71.63-2.39.24-1.58,1.59-2.43.39-2.16s-.48.55-1.06,2.09c-.25.67-.65,1.43-1.05,2.33-.31.71-.21,1.71-.63,2.54s-.86,1.43-1.31,2.22-.57,1.62-1.05,2.38-1.35,1.13-1.85,1.87-.53,1.7-1.06,2.41-1,1.35-1.6,2-1.11,1.31-1.7,2-1.49.94-2.1,1.57-1.24,1.16-1.87,1.77S377.39,161.56,376.74,162.15Z"/><path class="cls-4" d="M384.51,79.78c.17,1.27-.44,1.35-.27,2.63s.39,1.24.55,2.52l.34,2.55c.16,1.28.58,1.23.74,2.5s.3,1.27.46,2.54-.41,1.36-.24,2.64.58,1.22.74,2.5"/><path class="cls-4" d="M322.06,114.28c1.18.28,1.11.58,2.29.86s1.11.59,2.3.87,1.23.1,2.41.38,1.13.52,2.31.8,1.22.14,2.41.42,1.32-.28,2.51,0"/><path class="cls-4" d="M436.23,152.84c-1.77-.87-1.71,0-4-.72a31.49,31.49,0,0,0-3.68-1.33c-1.22-.27-2.44-1.28-3.8-1.39a25.46,25.46,0,0,0-4,.51,18.4,18.4,0,0,0-3.79,1c-1.22.4-2.72.39-3.84,1.14s-1.66,2-2.56,3.09-2.17,1.65-2.81,2.91c-.55,1.09-.15,2.68-.56,4-.36,1.2-1.31,2.34-1.72,3.75-.36,1.24-1,2.48-1.37,3.86s.38,2.87,0,4.23-1.87,2.28-2.23,3.63-.77,2.58-1.13,3.92.44,2.92.09,4.25-1.58,2.39-1.93,3.72-.2,2.75-.54,4.08-.88,2.58-1.22,3.9-1,2.57-1.34,3.88-.93,2.59-1.26,3.9.31,2.91,0,4.21-1.21,2.54-1.53,3.83-.74,2.66-1.06,4-.35,2.77-.66,4-.64,2.72-.95,4c-.35,1.43-.76,2.74-1.05,4-.37,1.51-1,2.77-1.28,3.89-.62,2.52-.18,2.06-.66,4"/><path class="cls-4" d="M344.75,186.48c-.86-1.13-.88-.62-2-2.06-.49-.63-1.45-1.1-2.11-2-.53-.69-.4-2-1-2.79s-1.74-1-2.35-1.77-1.11-1.5-1.71-2.28-1.21-1.42-1.81-2.19-1-1.58-1.61-2.35-1.09-1.53-1.68-2.29-1.34-1.35-1.92-2.11-.71-1.85-1.29-2.61-1.69-1.08-2.41-1.81-1-1.89-1.7-2.52a20.9,20.9,0,0,0-2.71-1.3c-.93-.57-1.61-1.55-2.46-1.79a3.55,3.55,0,0,0-2.91.57,3.44,3.44,0,0,0-1.53,2.46c-.13.81.55,1.69.84,2.8.23.85-.27,2.07.15,3s1,1.68,1.44,2.58.73,1.83,1.24,2.69,1.06,1.65,1.59,2.48,1.79,1.18,2.33,2,1,1.7,1.56,2.47,1.09,1.7,1.63,2.44,1.22,1.69,1.74,2.35c1.1,1.43.57,1.42,1.49,2.55"/><path class="cls-4" d="M348.7,190.13c.39-1.48.66-1.09,1.22-2.82.29-.85.36-1.92.76-3s.48-2,.91-2.94.93-1.88,1.43-2.74a17.81,17.81,0,0,1,1.77-2.57c.75-.87,2-.95,2.81-1.28s1.87-.82,2.88-.19a4.17,4.17,0,0,1,1.39,2.65,12.1,12.1,0,0,1,.33,3c0,.93-.46,1.9-.57,2.94s.2,2,0,3-.78,1.89-1,2.86-.33,2-.57,2.93-.37,2.06-.61,2.93c-.33,1.21-.75,2.18-.92,2.84-.26,1-.19,2-.44,3s-.87,1.94-1.1,2.79c-.46,1.7-1.16,1.5-.52,2.85s1.09.94,2,2,.59,1.41,1.54,2.52.7,1.31,1.65,2.42,1.3.8,2.25,1.91.66,1.35,1.61,2.46,1.27.83,2.22,1.94.6,1.4,1.55,2.51,1.25.85,2.2,2,1.19.91,2.14,2,.39,1.58,1.34,2.69,1.59.55,2.54,1.66.6,1.41,1.54,2.51,1.23.87,2.18,2,.72,1.31,1.67,2.41,1.15.94,2.1,2.05l1.9,2.22c.95,1.11.71,1.32,1.66,2.43s.67,1.36,1.62,2.47"/><path class="cls-4" d="M323.71,182c-1.13,1-.94.5-2.38,1.81-.61.56-1.14,1.46-2,2.24-.66.61-1.56,1.11-2.34,1.86s-1.32,1.41-2.09,2.15-1.05,1.69-1.79,2.42-1.84.92-2.58,1.65a15.13,15.13,0,0,0-1.57,2.45,12,12,0,0,0-1.3,2.54,9.53,9.53,0,0,0-.36,2.8,8.62,8.62,0,0,0,.41,2.73c.22.89-.17,2.09.33,2.95s1.45,1.28,2.14,2a18.18,18.18,0,0,0,2.35,1.6,19.77,19.77,0,0,0,2.29,1.64A26.74,26.74,0,0,0,317.4,214c.84.36,1.49,1.31,2.44,1.63s1.9.18,2.87.43,1.93.4,2.82.64,1.75,1.11,2.63,1.35,2.1-.12,3,.12c1,.28,1.78,1.14,2.61,1.38,1.09.3,2.11.22,2.88.44,1.86.54,1.63-.06,2.59,1s1.28.85,2.06,2.06.33,1.5,1.11,2.71.53,1.38,1.31,2.59.85,1.17,1.62,2.39"/><path class="cls-4" d="M316.56,185.13c.8,1.06.95.51,2,1.77.49.58.62,1.67,1.3,2.41s1.13,1.31,1.8,2,1.27,1.22,1.94,1.86"/><path class="cls-4" d="M309.93,191.66c.38,1.16.44.87,1.22,2.17.36.6,1.24,1,1.82,1.7s.59,1.55,1.22,2.17,1.42.77,2.1,1.31"/><path class="cls-4" d="M366.66,172c.41,1.93.58,1.89,1,3.82s-1.63,3.4.2,4.13,1.18-1.81,2.67-3,2.12-.37,3.61-1.55,1.1-1.67,2.59-2.85,1.24-1.61,3.13-1.71,1.26,1,2.84,2,2.21,0,3.8,1,.94,2,2.53,3.05,1.67,1.87,3.46,1.29,1.18-1.45,2-3.25.09-2.12.91-3.91,1.06-1.67,1.87-3.47.92-1.74,1.74-3.53.29-2,1.11-3.81,1.65-1.41,2.46-3.21.14-2.1,1-3.89,1.83-1.33,2.64-3.12.74-1.84,1.55-3.63"/><path class="cls-4" d="M359.74,210.31c-1.17,1.69-1.47,1.48-2.65,3.18s-.43,2.21-1.61,3.9-1.8,1.26-3,3-1.53,1.46-2.7,3.15-1.08,1.77-2.26,3.47-.23,2.35-1.41,4.05"/><path d="M346,230.55c.34,2-1.18,2.12-2.58,3.56a5,5,0,0,1-3.7,1.34c-1.63-.08-2.07-1.22-1.68-3.08a22,22,0,0,1,1.28-4.21c.94-2.13.09-4.14,2.08-3.25,1.67.76,1.26,1,2.52,2.31S345.68,228.74,346,230.55Z"/><path class="cls-4" d="M346,230.55c.34,2-1.18,2.12-2.58,3.56a5,5,0,0,1-3.7,1.34c-1.63-.08-2.07-1.22-1.68-3.08a22,22,0,0,1,1.28-4.21c.94-2.13.09-4.14,2.08-3.25,1.67.76,1.26,1,2.52,2.31S345.68,228.74,346,230.55Z"/><path class="cls-4" d="M367.4,227.59c-1.15,1.57-1.9,1-3.06,2.58s-.74,1.88-1.89,3.44l-2.3,3.15c-1.16,1.57-.9,1.76-2,3.33s-1,1.69-2.14,3.26-2.13.86-3.28,2.43-.58,2-1.73,3.58"/><path class="cls-4" d="M347.66,242.4c.81,1.16.63,1.29,1.44,2.45s1.06,1,1.87,2.14.61,1.31,1.42,2.47"/><path class="cls-11" d="M296.21,140.11c1.39,0,1.39.2,2.78.2s1.4-.45,2.79-.45,1.39.32,2.79.32,1.39,0,2.79,0"/><path class="cls-11" d="M301.54,134.58c0,1.39.37,1.39.37,2.78s.19,1.39.19,2.79.06,1.39.06,2.79-.3,1.39-.3,2.78"/><path class="cls-4" d="M319.66,220.52c-.82,2,0,1.75-1,4.22-.46,1.13-1.52,2.25-2.14,3.74-.51,1.23-.49,2.78-1.07,4.19s-1.68,2.33-2.25,3.7-.53,2.84-1.08,4.19-.67,2.79-1.21,4.13-2.07,2.24-2.61,3.57,0,3.12-.48,4.43-1.71,2.42-2.23,3.71-.6,2.9-1.11,4.17-1.52,2.58-2,3.82c-.59,1.48-.75,3-1.2,4.12s-1,2.62-1.44,4-1.28,2.59-1.63,4-1.16,2.75-1.36,4.17a35.68,35.68,0,0,0,.05,4.39,23.8,23.8,0,0,0,.37,4.33,17.61,17.61,0,0,0,1.09,4.24,14.76,14.76,0,0,0,2.62,3.5c.91,1,1.7,2.44,3,3.25a21.41,21.41,0,0,0,4.13,1.6,30.68,30.68,0,0,0,4.3.61,39.62,39.62,0,0,0,4.29.33c1.39.08,2.7,1.1,4.05,1.18s2.77,0,4.13.07,2.74.45,4.09.52,2.8-.49,4.15-.42,2.73.79,4.08.86,2.8-.47,4.14-.4,2.77.3,4.11.36,2.77.42,4.1.48,2.79-.05,4.13,0,2.8-.15,4.12-.11,2.8.19,4.11.23,2.81.4,4.11.44l4.12.1c1.5,0,2.88-.65,4.13-.62,1.59,0,2.95.76,4.1.78,2.68,0,2.06-.57,4.11-.56"/><path class="cls-4" d="M337,265.47c-2.09.84-2,1-4.09,1.9s-2.16.67-4.25,1.51-1.9,1.31-4,2.16-2.27.39-4.36,1.23-1.95,1.21-4,2.05"/><path class="cls-4" d="M411.84,279.28c-.91,0-1.78-.4-2.63-.47s-1.81.11-2.65,0-1.83,0-2.66-.08-1.77-.26-2.59-.31a9.4,9.4,0,0,0-2.52.1c-.89.17-2-.13-2.66.48s-1.1,1.67-1.95,2.33-1.73,1.06-2.53,1.65-1.68,1.27-2.42,1.79c-1.44,1-1.44.54-2.69,1.37"/><path class="cls-4" d="M432.35,297.12c-.84,1.05-.5.27-2.12,1.61-.55.45-1,1.24-1.91,1.91-.62.48-1.48.81-2.3,1.41-.66.49-1.31,1.1-2.11,1.68s-1.13,1.4-1.92,2-1.94.54-2.73,1-1.48,1.28-2.3,1.71-1.72.86-2.57,1.22-1.71.94-2.58,1.24-1.82.74-2.71,1-2.05-.37-3-.21-1.82.78-2.74.87-1.93.5-2.85.5-2-.16-2.87-.22-2-.11-2.86-.25-1.82-1-2.67-1.21c-1-.26-2.07-.15-2.83-.41a12,12,0,0,1-2.7-1"/><path class="cls-4" d="M431,283.35c-1.11.69-.83.58-2.21,1.41-.64.4-1.43.8-2.27,1.31s-1.41,1-2.2,1.43-1.54.8-2.32,1.25-1.58.76-2.34,1.19-1.71.58-2.46,1-1.43,1.14-2.17,1.52-1.55,1-2.28,1.33c-.92.43-1.74.84-2.42,1.09"/><path class="cls-4" d="M432.92,289.47c-1.1.75-.86.56-2.23,1.47-.64.44-1.34,1-2.17,1.57s-1.15,1.41-1.94,1.93-1.81.44-2.59.93-1.29,1.31-2.05,1.78-1.58.89-2.34,1.34-1.52,1-2.27,1.44-1.6,1-2.33,1.36a24.17,24.17,0,0,1-2.47,1.13"/><path class="cls-4" d="M382.56,284.75c-1.1,1.66-1,1.75-2.07,3.42s-1.57,1.36-2.67,3-.71,1.93-1.81,3.6-.74,1.9-1.84,3.57-1.76,1.24-2.86,2.91-.56,2-1.66,3.71-1.85,1.18-2.95,2.85"/><path class="cls-4" d="M428.05,277.18c-1.22.68-1.12.19-2.63,1-.7.38-1.37,1.13-2.29,1.62-.76.4-1.81.41-2.68.86s-1.34,1.4-2.19,1.83-1.81.52-2.65.92-1.77.64-2.6,1-1.8.6-2.62.95-1.8.63-2.6.92c-1,.36-1.78,1.06-2.51,1.2"/><path class="cls-4" d="M434.12,223.52c-.58,2-1.79,1.64-2.37,3.63s-.33,2.06-.91,4-.64,2-1.22,4-.46,2-1,4-.3,2.07-.88,4.07-.47,2-1,4-.62,2-1.2,4,0,2.16-.55,4.16-1.28,1.79-1.86,3.78-.8,1.93-1.37,3.92-.07,2.15-.65,4.14-1.21,1.81-1.78,3.8,0,2.16-.6,4.15-.12,2.14-.7,4.13-.48,2-1.06,4"/><path class="cls-12" d="M379.07,273.53c0,1.39-.69,2.65-1,3.94s.06,2.91-.52,4.11a18.14,18.14,0,0,1-2.46,3.33c-.84,1.06-2.26,1.5-3.32,2.35s-1.86,2-3.09,2.57-2.34,1.66-3.68,2-2.79-.89-4.17-.89a17.6,17.6,0,0,1-4,0,32.21,32.21,0,0,1-10.06-6.21c-.84-1.05-2.09-1.91-2.68-3.14s-.13-2.8-.43-4.13a17,17,0,0,1-.66-3.92,18,18,0,0,1,.15-4,19,19,0,0,1,.88-4c.59-1.23,2.2-1.83,3-2.88a16.75,16.75,0,0,1,2.72-2.86c1.05-.84,1.87-2,3.09-2.63a18,18,0,0,1,3.82-1.51,18.58,18.58,0,0,1,4.1-.56,19.35,19.35,0,0,1,4.12.49c1.33.31,2.26,1.69,3.47,2.28s3,.29,4.07,1.13,1.3,2.55,2.15,3.61,2.28,1.75,2.87,3a18.84,18.84,0,0,1,.93,4A18.32,18.32,0,0,1,379.07,273.53Z"/><path class="cls-1" d="M352,282.38a13,13,0,0,1-3.08-3.9c-.64-1.56-1.55-3.28-1.55-5a14.33,14.33,0,0,1,1.12-5.12,11.63,11.63,0,0,1,12.36-8c1.67,0,3.24.91,4.8,1.55s3.3,1,4.52,2.26A13.47,13.47,0,0,1,373,268.5c.64,1.56,0,3.37,0,5s.4,3.36-.25,4.92a12.78,12.78,0,0,1-2.79,4.17,12.39,12.39,0,0,1-4.31,2.43c-1.56.65-3.1,1.67-4.77,1.67a13.34,13.34,0,0,1-4.92-1.31A12.78,12.78,0,0,1,352,282.38Z"/><path class="cls-9" d="M186.3,228.84c1.55,1.34,1.8,1,3.35,2.38s1.33,1.6,2.88,2.95,1.89,1,3.44,2.29,1.86,1,3.41,2.32,1.22,1.72,2.77,3.06,1.25,1.7,2.8,3,1.68,1.19,3.24,2.53,2,.83,3.54,2.17,1.38,1.54,2.94,2.88,1.44,1.46,3,2.8,1.81,1,3.36,2.38,1.23,1.71,2.78,3.05,1.59,1.3,3.14,2.64,1.17,1.77,2.72,3.11,1.71,1.17,3.26,2.51,1.83,1,3.39,2.36,1.42,1.49,3,2.83,2.09.72,3.65,2.06,1.47,1.42,3,2.77,1.36,1.56,2.92,2.9,1.23,1.71,2.78,3.05,1.73,1.14,3.28,2.49,1.21,1.73,2.77,3.07,1.92.92,3.47,2.26,1.2,1.75,2.76,3.1,1.39,1.52,2.95,2.87,2.12.69,3.68,2"/></g></g></g></svg>