<svg xmlns="http://www.w3.org/2000/svg" viewBox="0 0 701.33 193.88"><defs><style>.cls-1{fill:#e6b49d;}.cls-2{fill:#677d70;}.cls-3,.cls-4,.cls-6{fill:none;stroke-width:3.61px;}.cls-3,.cls-4{stroke:#000;}.cls-3,.cls-6{stroke-linecap:round;stroke-linejoin:round;}.cls-4{stroke-miterlimit:10;}.cls-5{fill:#8e9b91;}.cls-6{stroke:#1d1d1b;}</style></defs><g id="Layer_2" data-name="Layer 2"><g id="sect1"><g id="banner"><path class="cls-1" d="M700.42,193.34c-1.48,1.47-2.27-.54-4.35-.54s-2.08.35-4.16.35-2.08-.44-4.16-.44-2.08,0-4.16,0-2.08-.14-4.17-.14-2.08.61-4.16.61-2.08,0-4.17,0-2.08-.55-4.16-.55-2.08.69-4.16.69-2.09-.92-4.17-.92-2.08,1.14-4.16,1.14-2.08-.78-4.16-.78-2.08,1-4.16,1-2.08-1.29-4.16-1.29-2.09-.09-4.17-.09-2.08,1-4.16,1-2.08.15-4.16.15-2.08-.06-4.16-.06h-4.16c-2.08,0-2.08-.56-4.16-.56s-2.08-.35-4.16-.35-2.08.91-4.16.91-2.08-.47-4.16-.47-2.08-.14-4.16-.14-2.08.06-4.16.06S594.11,193,592,193s-2.09.46-4.17.46-2.08.25-4.16.25-2.08-.94-4.17-.94-2.08.75-4.16.75-2.08.29-4.17.29-2.08-.36-4.16-.36-2.08-.38-4.17-.38-2.08-.4-4.16-.4-2.08.4-4.16.4-2.08.14-4.16.14-2.08.64-4.17.64-2.08-.81-4.16-.81-2.08.78-4.16.78-2.08-.37-4.16-.37-2.08,0-4.16,0-2.08-.21-4.16-.21-2.09-.35-4.17-.35-2.08.38-4.16.38-2.08-.13-4.16-.13-2.09-.38-4.17-.38-2.08.47-4.16.47-2.09-.44-4.17-.44-2.08-.15-4.17-.15-2.08.72-4.16.72-2.08-.86-4.17-.86-2.08.94-4.16.94-2.08.33-4.16.33-2.08-.66-4.17-.66-2.08-.13-4.16-.13-2.08-.49-4.16-.49S465,193,463,193s-2.08.18-4.17.18-2.08-.77-4.16-.77-2.08,1.42-4.16,1.42-2.09-.35-4.17-.35-2.08.36-4.17.36-2.08-1.42-4.16-1.42-2.09.51-4.17.51-2.08.28-4.16.28-2.09-.25-4.17-.25-2.08.21-4.16.21-2.08-.06-4.17-.06-2.08.64-4.16.64-2.08-.56-4.16-.56-2.08-.29-4.17-.29-2.08.13-4.16.13-2.08.39-4.17.39-2.08.23-4.16.23-2.09-.79-4.17-.79-2.08-.22-4.17-.22-2.08.08-4.16.08-2.08.4-4.17.4-2.08.69-4.16.69-2.08-1.19-4.17-1.19-2.08-.15-4.16-.15-2.08.51-4.17.51-2.08-.57-4.16-.57-2.09,1.06-4.17,1.06-2.08-.07-4.17-.07-2.08-.28-4.16-.28-2.09.64-4.17.64-2.08-.19-4.16-.19-2.09.09-4.17.09-2.08-1.17-4.17-1.17-2.08,1.2-4.16,1.2-2.08-1.24-4.17-1.24-2.08.4-4.17.4-2.08.36-4.16.36-2.09-.17-4.17-.17-2.08-.34-4.16-.34-2.09.69-4.17.69-2.08.4-4.17.4-2.08-.34-4.16-.34-2.09.34-4.17.34-2.08-.44-4.17-.44-2.08.3-4.16.3-2.09-.22-4.17-.22-2.08-.39-4.17-.39-2.08.16-4.16.16-2.09-.27-4.17-.27-2.09.45-4.17.45-2.08-.81-4.17-.81-2.08,1-4.16,1-2.09-1-4.17-1-2.08-.12-4.17-.12-2.08.49-4.17.49-2.08.14-4.16.14-2.09-.13-4.17-.13-2.08,0-4.17,0-2.08-.44-4.16-.44-2.09.23-4.17.23-2.08.54-4.17.54-2.08.38-4.16.38-2.08-.3-4.16-.3-2.08.35-4.16.35-2.09-.86-4.17-.86-2.08-.34-4.17-.34-2.08.11-4.16.11-2.09,1.21-4.17,1.21-2.08-.25-4.16-.25-2.09-1.06-4.17-1.06-2.08.44-4.16.44-2.09.08-4.17.08-2.09.2-4.17.2-2.08-.76-4.17-.76-2.08,1.35-4.16,1.35-2.09-.18-4.17-.18-2.08-.23-4.17-.23-2.08-.5-4.17-.5-2.08.12-4.16.12-2.09.24-4.17.24-2.09-.38-4.17-.38-2.09.93-4.17.93-2.08-.51-4.17-.51-2.08.21-4.17.21-2.08-.24-4.17-.24-2.08.12-4.17.12-2.08-.43-4.17-.43-2.08.53-4.17.53-2.08-.09-4.17-.09-2.08-.25-4.17-.25-2.08-.38-4.17-.38-2.08-.07-4.17-.07-2.08.82-4.16.82-2.09-1.08-4.17-1.08-2.09.05-4.17.05-2.09.07-4.17.07-2.09.55-4.17.55-2.09-.7-4.18-.7-2.08.8-4.17.8-2.08.41-4.17.41-2.09-.54-4.17-.54-2.09.75-4.18.75-2.08-.42-4.17-.42-2.09.31-4.17.31-2.09-.18-4.18-.18-2.45.8-4-.65-.54-1.78-.54-3.79.67-2,.67-4-.73-2-.73-4,0-2,0-4,0-2,0-4-1.3-2.86.15-4.26,2.3-.44,4.38-.44,2.08.56,4.15.56,2.08.81,4.16.81,2.08-1.07,4.16-1.07,2.08-.25,4.15-.25,2.08,1.09,4.16,1.09,2.08-.23,4.15-.23,2.08-.67,4.16-.67,2.08.59,4.15.59,2.08-.39,4.16-.39,2.07.84,4.15.84,2.08-.47,4.15-.47,2.08-.09,4.15-.09,2.08-.25,4.16-.25,2.07.57,4.15.57,2.08-.64,4.15-.64,2.08-.12,4.16-.12,2.08-.31,4.15-.31,2.08.35,4.16.35,2.08,1,4.15,1,2.08-1,4.16-1,2.08.18,4.16.18,2.08-.07,4.15-.07,2.08-.23,4.16-.23,2.08,1,4.16,1,2.08.18,4.16.18,2.08-.77,4.16-.77,2.08-.12,4.15-.12,2.08.58,4.16.58,2.08-.94,4.15-.94,2.08.63,4.16.63,2.08.12,4.15.12h4.16c2.08,0,2.08-.39,4.15-.39s2.08-.28,4.16-.28,2.08.59,4.15.59S172.9,169,175,169s2.08.63,4.15.63h4.16l4.16,0c2.08,0,2.08-.54,4.16-.54s2.08-.5,4.16-.5,2.08.44,4.16.44,2.08-.18,4.15-.18,2.08.09,4.16.09,2.08.51,4.16.51,2.08.19,4.16.19,2.07-.38,4.15-.38,2.08.14,4.16.14,2.07.24,4.15.24,2.08-.33,4.16-.33,2.08-.72,4.15-.72,2.08.86,4.16.86,2.08-.62,4.16-.62,2.08.3,4.16.3,2.08.08,4.16.08,2.08-.95,4.16-.95,2.08.56,4.16.56,2.08-.48,4.15-.48,2.08.26,4.16.26,2.08.19,4.16.19,2.08-.15,4.16-.15,2.07.83,4.15.83,2.08-.42,4.16-.42,2.08-.09,4.16-.09,2.08.63,4.15.63,2.08-.88,4.16-.88,2.08.39,4.16.39,2.08-.82,4.16-.82,2.08,1.31,4.16,1.31,2.08-1.25,4.16-1.25,2.08.71,4.16.71,2.08-.26,4.16-.26,2.08.07,4.15.07,2.08.16,4.16.16,2.08-.14,4.16-.14,2.08.54,4.16.54,2.08-.28,4.16-.28,2.08-.81,4.16-.81,2.08,1.1,4.16,1.1,2.08-.81,4.16-.81,2.08-.36,4.16-.36,2.08.18,4.16.18,2.07,1,4.15,1,2.08-.84,4.16-.84,2.08-.23,4.16-.23,2.08.31,4.16.31,2.08.73,4.16.73,2.08-.73,4.16-.73,2.08.69,4.16.69,2.08-.5,4.16-.5,2.08.11,4.16.11,2.08-.62,4.16-.62,2.08.24,4.16.24,2.08.73,4.16.73,2.08-.36,4.16-.36,2.08.22,4.16.22,2.08-.41,4.16-.41,2.08.27,4.16.27,2.08,0,4.16,0,2.08-.29,4.16-.29,2.08.38,4.16.38,2.08.32,4.16.32,2.08-.48,4.16-.48,2.08-.42,4.16-.42,2.08.22,4.16.22,2.08.43,4.16.43,2.08.23,4.16.23,2.08.08,4.16.08,2.08-.27,4.17-.27,2.08.26,4.15.26,2.08.09,4.16.09,2.08-.26,4.16-.26,2.07-.28,4.15-.28h4.16c2.08,0,2.08,0,4.16,0s2.08-.53,4.16-.53,2.08.12,4.16.12,2.08-.34,4.16-.34,2.08.52,4.15.52,2.08.3,4.16.3,2.08-.46,4.16-.46,2.08.77,4.16.77,2.08-.62,4.16-.62,2.08.28,4.16.28,2.08-.22,4.16-.22,2.08-.09,4.16-.09,2.08.25,4.17.25,2.08-.23,4.16-.23,2.08-.17,4.16-.17,2.08,1.05,4.16,1.05,2.08-.36,4.16-.36,2.08.32,4.16.32,2.08-.41,4.16-.41,2.09-.23,4.17-.23,2.08.4,4.16.4,2.08-.49,4.16-.49,2.08.44,4.16.44,2.09-.29,4.17-.29,2.08.24,4.16.24,2.08-.13,4.16-.13,2.09.16,4.17.16,2.08-.18,4.16-.18,2.08.2,4.16.2,2.08-.33,4.16-.33,2.08-.43,4.16-.43,2.09,1.06,4.17,1.06,2.08-1.3,4.16-1.3,2.08,1,4.16,1,2.09-.6,4.17-.6,2.08.38,4.17.38,2.08-.08,4.16-.08,2.09.2,4.17.2,2.08-.86,4.16-.86,2.09.07,4.17.07,2.09,1.06,4.18,1.06,3.19,1.47,4.67,0-.17-2.57-.17-4.63.25-2.06.25-4.12.12-2.07.12-4.13-.26-2.06-.26-4.12-.87-2.06-.87-4.12.21-2.07.21-4.13-.06-2.06-.06-4.13.66-2.06.66-4.12-.57-2.06-.57-4.13.33-2.06.33-4.12.28-2.07.28-4.13-.51-2.06-.51-4.12,0-2.07,0-4.13.24-2.06.24-4.13-.65-2.06-.65-4.13.55-2.06.55-4.12-.61-2.07-.61-4.13.92-2.06.92-4.13-.46-2.06-.46-4.12.58-2.07.58-4.13,0-2.07,0-4.13-1-2.06-1-4.12,0-2.07,0-4.13,1-2.06,1-4.13-.39-2.06-.39-4.12-.35-2.07-.35-4.13,1-2.06,1-4.13-.6-2.06-.6-4.13.3-2.06.3-4.13-.65-2.06-.65-4.13-.31-2.06-.31-4.13.22-2.06.22-4.13-.33-2.07-.33-4.13.23-2.07.23-4.14-.67-2.33.83-3.75,1.81-.49,4-.49,2.17-.27,4.34-.27,2.17.32,4.34.32,2.17.12,4.34.12,2.17-.13,4.35-.13,2.42-1.06,4,.43.94,1.69.94,3.75-.6,2.05-.6,4.11-.41,2-.41,4.11.27,2,.27,4.1.63,2.06.63,4.11-.12,2.06-.12,4.11-.76,2.06-.76,4.11-.29,2.06-.29,4.11,1.1,2.06,1.1,4.11-.64,2.06-.64,4.11.72,2.06.72,4.11-.32,2.06-.32,4.12-.34,2.05-.34,4.11.37,2.05.37,4.11-.53,2.05-.53,4.11-.08,2.06-.08,4.11.15,2.06.15,4.11-.24,2.06-.24,4.12.77,2,.77,4.11.39,2.06.39,4.11-.07,2.06-.07,4.11-.05,2.06-.05,4.12-.87,2-.87,4.11,0,2.06,0,4.11.77,2.06.77,4.12-.49,2.05-.49,4.11-.17,2.06-.17,4.12.23,2.05.23,4.1-.5,2.06-.5,4.12.38,2.05.38,4.11.55,2.06.55,4.11-1,2.06-1,4.12,1,2.05,1,4.11-.09,2.06-.09,4.12.29,2,.29,4.11-.72,2.06-.72,4.12.28,2.06.28,4.11.48,2.06.48,4.12,0,2.06,0,4.12-.62,2-.14,4C701.26,191.16,701.88,191.89,700.42,193.34Z"/><path class="cls-1" d="M108.75,130.39v-2.62a29.73,29.73,0,0,1,7.39-2.16V72.12c-1.38-.3-2.7-.65-4-1s-2.4-.79-3.42-1.22V67.25H118q1.53,0,3.6-.09c1.39-.06,2.81-.14,4.29-.23l4.24-.27c1.35-.09,2.48-.13,3.38-.13q15.33,0,23.59,8.2T165.3,98a41.61,41.61,0,0,1-2,13.21,28.06,28.06,0,0,1-6.18,10.51,28.6,28.6,0,0,1-10.51,6.94,40.42,40.42,0,0,1-15,2.53c-.91,0-1.93,0-3.07-.14l-3.61-.27-3.83-.27c-1.3-.09-2.51-.13-3.66-.13ZM132.2,71.22c-1.57,0-3.07,0-4.51,0a18.92,18.92,0,0,0-3.43.32v54.66a12.28,12.28,0,0,0,1.62.13l2.53.09c.9,0,1.76.05,2.57.05h1.76a21.82,21.82,0,0,0,10.55-2.35,20.2,20.2,0,0,0,7.08-6.27,26.68,26.68,0,0,0,4-9.06A45.36,45.36,0,0,0,155.65,98a36.84,36.84,0,0,0-1.22-9.16,26.27,26.27,0,0,0-4-8.66,21.63,21.63,0,0,0-7.26-6.45A22.25,22.25,0,0,0,132.2,71.22Z"/><path class="cls-1" d="M197.32,130.39h-20v-2.26a21,21,0,0,1,2.8-1.22c1-.33,2-.64,3.16-.94V90.52l-6-.72V87.45A45.16,45.16,0,0,1,183,85.56c2-.54,4.09-1,6.13-1.35h2.26V126c1.2.3,2.28.61,3.24.94a16.67,16.67,0,0,1,2.71,1.22ZM181.53,70a5,5,0,0,1,1.58-3.87,5.94,5.94,0,0,1,4.2-1.45,5.8,5.8,0,0,1,4.15,1.45A5.06,5.06,0,0,1,193,70a4.94,4.94,0,0,1-1.53,3.84,6,6,0,0,1-4.15,1.4,6.11,6.11,0,0,1-4.2-1.4A4.87,4.87,0,0,1,181.53,70Z"/><path class="cls-1" d="M238,121.46a13,13,0,0,1-1.53,3.79,13.66,13.66,0,0,1-2.67,3.2,12.25,12.25,0,0,1-3.6,2.21,11.76,11.76,0,0,1-4.38.81q-8.92,0-13.35-5.68t-4.42-17.68q0-11.55,5.64-17.59t15.2-6a33.76,33.76,0,0,1,5.23.31,24.12,24.12,0,0,1,4.15,1.13v-17l-6.86-.72V65.81a38.91,38.91,0,0,1,6.09-1.9q3.48-.81,6.63-1.35h2.26v62.69l6,.72v1.89a42.4,42.4,0,0,1-5.41,2.17,31.7,31.7,0,0,1-5.5,1.26h-2.26l-.81-9.83Zm-10.37,4.42a9.15,9.15,0,0,0,7-2.8,15.42,15.42,0,0,0,3.61-7.58V90.07a10.69,10.69,0,0,0-3.61-1.26,32.13,32.13,0,0,0-5.32-.36A10.33,10.33,0,0,0,220,93.81q-3.26,5.37-3.25,14.3a35.82,35.82,0,0,0,.63,6.9,19.35,19.35,0,0,0,2,5.64,11.09,11.09,0,0,0,3.38,3.83A8.46,8.46,0,0,0,227.63,125.88Z"/><path class="cls-1" d="M281.74,130.39h-20v-2.26a19.92,19.92,0,0,1,2.8-1.22c1-.33,2-.64,3.15-.94V90.52l-5.95-.72V87.45a45,45,0,0,1,5.68-1.89c2.05-.54,4.09-1,6.14-1.35h2.25V126c1.2.3,2.29.61,3.25.94a16.56,16.56,0,0,1,2.7,1.22ZM266,70a5,5,0,0,1,1.58-3.87,5.93,5.93,0,0,1,4.19-1.45,5.77,5.77,0,0,1,4.15,1.45A5.06,5.06,0,0,1,277.41,70a4.94,4.94,0,0,1-1.53,3.84,5.92,5.92,0,0,1-4.15,1.4,6.1,6.1,0,0,1-4.19-1.4A4.84,4.84,0,0,1,266,70Z"/><path d="M355.23,120.44l-3.12-2.31a22.49,22.49,0,0,1-3.86-3.85,21.59,21.59,0,0,1-2.88,2.51,23.71,23.71,0,0,1-3.78,2.24,24.33,24.33,0,0,1-4.59,1.61,21.81,21.81,0,0,1-5.15.6,17.09,17.09,0,0,1-5.73-.87A11.66,11.66,0,0,1,322,118a9.52,9.52,0,0,1-2.45-3.48,11.07,11.07,0,0,1-.8-4.18,12.52,12.52,0,0,1,1.67-6.32,26.56,26.56,0,0,1,4-5.29,33.65,33.65,0,0,1,4.69-4Q331.5,93,333,92.13a13.06,13.06,0,0,1-2-4.35,19.08,19.08,0,0,1-.54-4.55,8.56,8.56,0,0,1,1-4,10.8,10.8,0,0,1,2.67-3.31A13.14,13.14,0,0,1,338,73.63a13,13,0,0,1,4.62-.84q8.5,0,8.5,6.76a8.8,8.8,0,0,1-1.1,4.28,16.58,16.58,0,0,1-2.81,3.71,29.76,29.76,0,0,1-3.72,3.15q-2,1.44-3.75,2.58a64.11,64.11,0,0,0,4.88,7q2.85,3.61,6.08,7.23a26.85,26.85,0,0,0,1.87-2.48A36.72,36.72,0,0,0,355,101a48,48,0,0,0,2.24-5.12,27.1,27.1,0,0,0,1.44-5.52,7.83,7.83,0,0,1-3.59-1.6l.33-1.74H369l-.4,1.74a16.09,16.09,0,0,1-4.76,1.6,73.28,73.28,0,0,1-3.07,7.16q-1.61,3.21-3.12,5.66c-1,1.63-1.93,3-2.77,4.15s-1.52,2-2,2.51q2.14,2.07,4.18,3.84a41.09,41.09,0,0,0,4.72,3.52l3.41,1.6-.4,1.68Zm-8.8-8.24a53.43,53.43,0,0,1-3.52-4.25c-1.22-1.62-2.41-3.28-3.54-5s-2.17-3.32-3.08-4.89a35.47,35.47,0,0,1-2-3.88,27.11,27.11,0,0,0-5.89,6.39,15.51,15.51,0,0,0-2.41,8.47,8.78,8.78,0,0,0,2.47,6.26,8.93,8.93,0,0,0,6.63,2.44,13.61,13.61,0,0,0,5.89-1.37A18.35,18.35,0,0,0,346.43,112.2ZM335.52,82.73a12.38,12.38,0,0,0,.93,4.6,21.88,21.88,0,0,0,2.28,4.26,26.6,26.6,0,0,0,2.71-2.2,21.3,21.3,0,0,0,2.38-2.56,12.37,12.37,0,0,0,1.7-2.9,8.33,8.33,0,0,0,.64-3.27,6.24,6.24,0,0,0-.94-3.66A3.51,3.51,0,0,0,342,75.73a5.44,5.44,0,0,0-2.68.54,6.6,6.6,0,0,0-2,1.56,7.12,7.12,0,0,0-1.3,2.24A7.41,7.41,0,0,0,335.52,82.73Z"/><path class="cls-2" d="M404.38,67.25h22.91v2.61c-1.08.49-2.2.92-3.34,1.31a27.65,27.65,0,0,1-3.52,1v50.51A31.46,31.46,0,0,1,419,133a20.55,20.55,0,0,1-3.56,6.54,14.47,14.47,0,0,1-4.51,3.66,20.56,20.56,0,0,1-4.38,1.62l-1-1.35a18,18,0,0,0,2.48-2.66,15.28,15.28,0,0,0,2-3.75,25.57,25.57,0,0,0,1.31-5.5,59.07,59.07,0,0,0,.45-7.94V72.12c-1.32-.3-2.61-.63-3.88-1a25.33,25.33,0,0,1-3.51-1.27Z"/><path class="cls-2" d="M438.92,107.84a31.27,31.27,0,0,1,1.49-10.06,20.32,20.32,0,0,1,4.29-7.4,18.49,18.49,0,0,1,6.71-4.6,23.2,23.2,0,0,1,8.71-1.57,24.77,24.77,0,0,1,9.65,1.71,16.88,16.88,0,0,1,6.63,4.83,20,20,0,0,1,3.79,7.44,35.63,35.63,0,0,1,1.22,9.65q0,11.35-5.78,17.5t-15.51,6.13a24.11,24.11,0,0,1-9.38-1.67,17.06,17.06,0,0,1-6.59-4.78,20.65,20.65,0,0,1-3.92-7.49A33.75,33.75,0,0,1,438.92,107.84Zm8.66,0a36.84,36.84,0,0,0,.77,7.66,19.18,19.18,0,0,0,2.43,6.27,12.15,12.15,0,0,0,4.38,4.2,13,13,0,0,0,6.49,1.53q4.88,0,8-4.78t3.12-14.88a36.63,36.63,0,0,0-.77-7.71,20,20,0,0,0-2.39-6.23,12.33,12.33,0,0,0-4.15-4.19,11.44,11.44,0,0,0-6-1.54A9.93,9.93,0,0,0,450.83,93Q447.58,97.74,447.58,107.84Z"/><path class="cls-2" d="M515.32,120.1a6.19,6.19,0,0,0-1.58-4.28,18.82,18.82,0,0,0-4-3.29c-1.63-1-3.36-2-5.19-3a33.23,33.23,0,0,1-5.19-3.38,17.51,17.51,0,0,1-4-4.47,11.51,11.51,0,0,1-1.58-6.22A9.32,9.32,0,0,1,494.89,91a11.45,11.45,0,0,1,3-3.56,14.8,14.8,0,0,1,4.42-2.35,16.76,16.76,0,0,1,5.41-.85,48.32,48.32,0,0,1,8,.54,38.93,38.93,0,0,1,6,1.53c-.24,1.93-.52,3.86-.85,5.82a52.7,52.7,0,0,1-1.4,6h-2.26l-3.42-9.2a8.64,8.64,0,0,0-2.44-.59c-.9-.09-1.83-.14-2.8-.14a6.52,6.52,0,0,0-2.84.59,7,7,0,0,0-2.07,1.49,6.23,6.23,0,0,0-1.31,2.07,6.57,6.57,0,0,0-.45,2.35,6.07,6.07,0,0,0,1.58,4.19,17.59,17.59,0,0,0,4,3.25c1.63,1,3.35,2,5.19,2.93a39.64,39.64,0,0,1,5.18,3.25,16.45,16.45,0,0,1,4,4.19,10.21,10.21,0,0,1,1.58,5.73,11.43,11.43,0,0,1-1.31,5.5,12.35,12.35,0,0,1-3.61,4.15,17.69,17.69,0,0,1-5.32,2.66,21.5,21.5,0,0,1-6.45.95,35.09,35.09,0,0,1-7.13-.68,49.66,49.66,0,0,1-6.76-1.94,42,42,0,0,1,.81-6.26,42.94,42.94,0,0,1,1.63-5.82h2.25l4,9.83a4.47,4.47,0,0,0,2.39.81c.93.06,1.79.09,2.57.09a9.27,9.27,0,0,0,6.4-2.16A6.76,6.76,0,0,0,515.32,120.1Z"/><path class="cls-2" d="M582.79,130.39H563.31v-2.26a29.48,29.48,0,0,1,5.41-2.16V104.86q0-7-2-11c-1.32-2.67-3.73-4-7.21-4a10.16,10.16,0,0,0-4.24.85,13.8,13.8,0,0,0-3.43,2.21A14.06,14.06,0,0,0,549.23,96a14.61,14.61,0,0,0-1.62,3.65V126c1,.24,1.88.51,2.75.81a10.09,10.09,0,0,1,2.57,1.35v2.26H533.54v-2.26a25.15,25.15,0,0,1,6-2.16V68.87l-6.85-.72V65.81a38.25,38.25,0,0,1,6.09-1.9q3.46-.81,6.63-1.35h2.25V94.4h.09a19.77,19.77,0,0,1,5.46-7.22,13,13,0,0,1,8.61-3,22.35,22.35,0,0,1,6.45.85,10,10,0,0,1,4.74,3,14.57,14.57,0,0,1,2.88,5.82,36.16,36.16,0,0,1,1,9.25V126c1,.24,2,.51,3.07.81a10.57,10.57,0,0,1,2.89,1.35Z"/><path d="M21.76,14.9c0,1.07-1.06,1.93-1.76,2.63a3.47,3.47,0,0,1-2.63.9,3.34,3.34,0,0,1-2.56-1,3.29,3.29,0,0,1-.89-2.56,3.52,3.52,0,0,1,.77-2.69c.69-.69,1.62-1.64,2.68-1.64a4.5,4.5,0,0,1,2.84,1.49A4.58,4.58,0,0,1,21.76,14.9Z"/><path class="cls-3" d="M21.76,14.9c0,1.07-1.06,1.93-1.76,2.63a3.47,3.47,0,0,1-2.63.9,3.34,3.34,0,0,1-2.56-1,3.29,3.29,0,0,1-.89-2.56,3.52,3.52,0,0,1,.77-2.69c.69-.69,1.62-1.64,2.68-1.64a4.5,4.5,0,0,1,2.84,1.49A4.58,4.58,0,0,1,21.76,14.9Z"/><path class="cls-1" d="M32.86,18.29a3.1,3.1,0,0,1-2.45-.94c-.69-.7-1.88-1.38-1.88-2.45a4.88,4.88,0,0,1,1.23-3.1c.7-.69,2-.44,3.1-.44a3.82,3.82,0,0,1,2.8.74,4,4,0,0,1,1.08,2.8,4.33,4.33,0,0,1-.91,3C35.13,18.57,33.92,18.29,32.86,18.29Z"/><path class="cls-4" d="M32.86,18.29a3.1,3.1,0,0,1-2.45-.94c-.69-.7-1.88-1.38-1.88-2.45a4.88,4.88,0,0,1,1.23-3.1c.7-.69,2-.44,3.1-.44a3.82,3.82,0,0,1,2.8.74,4,4,0,0,1,1.08,2.8,4.33,4.33,0,0,1-.91,3C35.13,18.57,33.92,18.29,32.86,18.29Z"/><path class="cls-5" d="M47.05,18.87a3.71,3.71,0,0,1-2.52-1.44,3.68,3.68,0,0,1-1.41-2.53,4,4,0,0,1,1.16-2.77,3.73,3.73,0,0,1,2.77-.84,3.89,3.89,0,0,1,2.82.79,4,4,0,0,1,1,2.82,4.44,4.44,0,0,1-.81,3A4.52,4.52,0,0,1,47.05,18.87Z"/><path class="cls-6" d="M47.05,18.87a3.71,3.71,0,0,1-2.52-1.44,3.68,3.68,0,0,1-1.41-2.53,4,4,0,0,1,1.16-2.77,3.73,3.73,0,0,1,2.77-.84,3.89,3.89,0,0,1,2.82.79,4,4,0,0,1,1,2.82,4.44,4.44,0,0,1-.81,3A4.52,4.52,0,0,1,47.05,18.87Z"/><path class="cls-3" d="M2.46,25.14c2.08,0,2.08-.29,4.15-.29s2.07-.44,4.14-.44,2.07.46,4.14.46S17,24.1,19,24.1,21.11,24,23.18,24s2.07,1.24,4.15,1.24,2.07-.48,4.14-.48,2.07.4,4.15.4,2.07-.25,4.14-.25,2.07-.54,4.14-.54,2.08,0,4.15,0,2.07.23,4.14.23,2.07.45,4.14.45,2.07-.17,4.14-.17h4.14c2.07,0,2.07-.19,4.14-.19s2.07-.11,4.14-.11S75,24.4,77,24.4s2.07.06,4.14.06,2.07.53,4.14.53,2.07-.16,4.14-.16,2.07-.92,4.14-.92,2.07,1,4.14,1,2.07-.86,4.14-.86,2.08.86,4.15.86,2.07-.84,4.14-.84,2.07.21,4.15.21,2.07-.21,4.14-.21,2.08-.14,4.15-.14,2.07,1.11,4.14,1.11,2.08-.55,4.15-.55S133,23.9,135,23.9s2.08.59,4.15.59,2.07.17,4.14.17,2.07.33,4.14.33,2.08-.86,4.15-.86,2.07-.33,4.14-.33,2.07.17,4.14.17,2.07.17,4.14.17,2.07-.28,4.15-.28,2.07.39,4.14.39,2.07,1,4.14,1S178.54,24,180.61,24s2.08-.12,4.15-.12,2.07.85,4.14.85,2.08.23,4.15.23,2.07.27,4.15.27,2.07-.6,4.14-.6,2.08.27,4.15.27,2.07.16,4.14.16,2.08-1.21,4.15-1.21,2.07,1.37,4.14,1.37S220,24,222.07,24s2.07.21,4.14.21,2.07.06,4.14.06,2.07.46,4.15.46,2.07-.62,4.14-.62,2.07,1,4.14,1,2.08-.33,4.15-.33,2.07-.26,4.15-.26,2.07.44,4.14.44,2.08,0,4.15,0,2.07-1,4.15-1,2.07.92,4.14.92,2.08-.11,4.15-.11,2.07.51,4.14.51S278,24,280.1,24s2.07.28,4.14.28,2.07.45,4.15.45,2.07-.11,4.14-.11,2.07-.4,4.15-.4,2.07.34,4.14.34,2.08.27,4.15.27,2.07-.36,4.15-.36,2.07,0,4.15,0,2.07.2,4.14.2,2.07,0,4.15,0,2.07-.25,4.14-.25,2.07.09,4.15.09,2.07.3,4.14.3,2.08-.8,4.15-.8,2.07.9,4.14.9,2.08-.06,4.15-.06,2.08-.44,4.15-.44,2.07.11,4.15.11,2.07-.27,4.14-.27,2.08.05,4.15.05,2.07-.21,4.15-.21,2.07.34,4.14.34,2.07-.35,4.15-.35,2.07.79,4.15.79,2.07,0,4.14,0,2.08-1,4.15-1,2.08.67,4.15.67,2.07.39,4.15.39,2.07,0,4.14,0,2.08-1,4.15-1,2.07.71,4.14.71,2.08-.82,4.15-.82,2.08,1.26,4.15,1.26S419,25,421.08,25s2.07-.59,4.15-.59h4.14c2.08,0,2.08-.08,4.15-.08s2.07-.32,4.15-.32,2.07.88,4.15.88,2.07-.79,4.14-.79,2.08,1.07,4.15,1.07,2.08-.22,4.15-.22,2.07-1,4.15-1,2.07.32,4.15.32,2.07.75,4.14.75,2.08-1.2,4.15-1.2,2.08,1.18,4.15,1.18,2.08-.16,4.15-.16,2.07-.77,4.15-.77,2.07,1.11,4.14,1.11,2.07-.07,4.14-.07,2.08-1,4.15-1,2.07.31,4.14.31,2.07.51,4.15.51,2.07-.4,4.15-.4,2.07.68,4.14.68,2.08-1.17,4.15-1.17,2.07,1.12,4.14,1.12h4.15c2.07,0,2.07-1.35,4.15-1.35s2.07.5,4.15.5,2.07.76,4.15.76S539.27,24,541.34,24s2.08.95,4.15.95,2.07.12,4.15.12,2.07-1.1,4.15-1.1,2.07,0,4.15,0,2.07.92,4.14.92,2.08-.14,4.15-.14,2.08-.87,4.15-.87,2.08.88,4.15.88,2.07-.57,4.15-.57,2.07.48,4.15.48,2.08.56,4.15.56,2.08-.38,4.15-.38,2.08-.94,4.15-.94,2.08,1.3,4.15,1.3,2.08,0,4.15,0,2.08-.39,4.15-.39,2.08-.65,4.15-.65,2.08,1,4.16,1,2.07-1,4.14-1,2.08-.27,4.15-.27,2.08.72,4.15.72,2.08.27,4.15.27,2.08-.26,4.15-.26,2.08.38,4.16.38,2.07-.5,4.15-.5,2.08-.39,4.15-.39,2.08.77,4.16.77,2.07-.05,4.15-.05,2.07-.75,4.15-.75,2.08-.29,4.16-.29S667.94,25,670,25s2.08,0,4.16,0"/><path class="cls-3" d="M1.85,4.42c0,2.08.29,2.08.29,4.16s.44,2.08.44,4.16-.46,2.08-.46,4.16.77,2.07.77,4.15S3,23.13,3,25.21,1.8,27.28,1.8,29.36s.48,2.08.48,4.16-.4,2.08-.4,4.16.25,2.08.25,4.16.54,2.08.54,4.15,0,2.08,0,4.16-.23,2.08-.23,4.16S2,56.39,2,58.47s.17,2.08.17,4.16,0,2.08,0,4.16.2,2.08.2,4.16.1,2.08.1,4.16.18,2.08.18,4.16-.06,2.08-.06,4.16S2,85.51,2,87.58s.16,2.09.16,4.17.92,2.08.92,4.16-1,2.08-1,4.16.86,2.08.86,4.16-.86,2.08-.86,4.16.84,2.08.84,4.16-.21,2.08-.21,4.16.21,2.08.21,4.16S3,123,3,125s-1.11,2.08-1.11,4.16.55,2.08.55,4.16.61,2.08.61,4.16-.59,2.08-.59,4.16-.17,2.08-.17,4.16S2,147.92,2,150s.86,2.08.86,4.16.33,2.08.33,4.16S3,160.41,3,162.49s-.17,2.08-.17,4.16.28,2.09.28,4.17-1.94,2.5-.47,4,1.88.89,4,.89,2.08-1.23,4.16-1.23,2.08-.12,4.16-.12,2.08.86,4.16.86,2.08.23,4.16.23,2.09.27,4.17.27,2.08-.61,4.16-.61,2.08.28,4.16.28,2.09.16,4.17.16,2.08-1.21,4.16-1.21,2.08,1.37,4.16,1.37,2.08-1.28,4.16-1.28,2.08.22,4.16.22,2.08.06,4.16.06,2.08.45,4.16.45,2.08-.62,4.16-.62,2.08,1,4.15,1,2.08-.33,4.16-.33,2.08-.26,4.16-.26,2.08.44,4.16.44,2.08,0,4.16,0,2.08-1,4.16-1,2.08.91,4.15.91,2.08-.1,4.16-.1,2.08.5,4.16.5,2.08-1.24,4.16-1.24,2.09.28,4.17.28,2.08.45,4.16.45,2.08-.11,4.16-.11,2.08-.41,4.17-.41,2.08.35,4.16.35,2.08.26,4.16.26,2.08-.36,4.17-.36l4.16,0c2.08,0,2.08.19,4.16.19s2.08,0,4.16,0,2.08-.25,4.16-.25,2.08.1,4.16.1,2.08.3,4.16.3,2.08-.8,4.16-.8,2.08.9,4.16.9,2.08-.06,4.16-.06,2.08-.44,4.16-.44,2.08.11,4.16.11,2.08-.28,4.16-.28,2.08.05,4.16.05,2.08-.2,4.17-.2,2.08.34,4.16.34,2.08-.35,4.17-.35,2.08.79,4.16.79l4.16,0c2.08,0,2.08-1,4.16-1s2.09.67,4.17.67,2.08.39,4.16.39,2.08,0,4.16,0,2.08-1,4.16-1,2.08.71,4.16.71,2.08-.81,4.16-.81,2.08,1.25,4.16,1.25,2.08-.08,4.16-.08,2.09-.6,4.17-.6h4.16c2.09,0,2.09-.09,4.17-.09s2.08-.31,4.16-.31,2.08.88,4.17.88,2.08-.8,4.16-.8,2.08,1.08,4.16,1.08,2.08-.22,4.16-.22,2.08-1,4.17-1,2.08.32,4.16.32,2.08.74,4.16.74,2.08-1.2,4.16-1.2,2.08,1.18,4.17,1.18,2.08-.15,4.16-.15,2.08-.78,4.17-.78,2.08,1.12,4.16,1.12,2.08-.07,4.17-.07,2.08-1,4.16-1,2.08.32,4.16.32,2.08.51,4.16.51,2.08-.4,4.17-.4,2.08.68,4.16.68,2.08-1.17,4.16-1.17,2.09,1.12,4.17,1.12h4.16c2.09,0,2.09-1.35,4.17-1.35s2.08.5,4.16.5,2.08.76,4.17.76,2.08-1.08,4.16-1.08,2.08.94,4.16.94,2.09.13,4.17.13,2.08-1.11,4.16-1.11,2.09,0,4.17,0,2.08.92,4.16.92,2.09-.14,4.17-.14,2.08-.87,4.16-.87,2.08.87,4.17.87,2.08-.56,4.16-.56,2.08.47,4.17.47,2.08.56,4.16.56,2.08-.37,4.17-.37,2.08-.94,4.16-.94,2.08,1.3,4.17,1.3,2.08,0,4.16,0,2.08-.38,4.17-.38,2.08-.65,4.16-.65,2.08,1,4.17,1,2.08-1,4.16-1,2.08-.28,4.17-.28,2.08.72,4.16.72,2.09.28,4.17.28,2.08-.27,4.17-.27,2.08.38,4.16.38,2.08-.49,4.17-.49,2.08-.4,4.16-.4,2.09.77,4.17.77,2.08,0,4.16,0,2.08-.75,4.17-.75,2.08-.3,4.16-.3,2.08,1.19,4.16,1.19,2.08,0,4.16,0,2.08-.82,4.16-.82,2.08.21,4.17.21,2.08-.18,4.16-.18,2.09-.34,4.17-.34,2.08.59,4.16.59,2.08-.37,4.16-.37,2.08.67,4.17.67,2.08-.35,4.16-.35,2.09-.52,4.17-.52,2.08.1,4.16.1,2.09.18,4.17.18,2.08-.34,4.16-.34,2.09.38,4.17.38,2.09.55,4.17.55,2.08-.59,4.16-.59h4.17c2.08,0,2.08.94,4.17.94s2.08-.65,4.16-.65h4.17c2.09,0,2.09.34,4.17.34s2.08-.65,4.17-.65,2.08.3,4.17.3,2.08-.51,4.16-.51,2.09,1,4.17,1,2.09-.93,4.17-.93,2.08.91,4.17.91,2.08-.51,4.17-.51,2.08.54,4.17.54,2.08-.87,4.16-.87,2.08.3,4.17.3,2.08.7,4.16.7,2.09-.54,4.17-.54,2.09-.64,4.17-.64,2.09,1.37,4.17,1.37,2.09-.48,4.17-.48h4.17c2.09,0,2.09.34,4.18.34s2.08-.44,4.17-.44,2.08-.6,4.17-.6,2.08,1,4.17,1,2.09-.22,4.18-.22,2.68,1.18,4.15-.3-.51-2.08-.51-4.18,1-2.1,1-4.21-.1-2.1-.1-4.2-.59-2.1-.59-4.2-.16-2.1-.16-4.2-.09-2.11-.09-4.21,0-2.1,0-4.2,1-2.11,1-4.21-1.21-2.1-1.21-4.2,1-2.1,1-4.2-.85-2.11-.85-4.21.45-2.1.45-4.21,0-2.1,0-4.2-.15-2.1-.15-4.21-.1-2.1-.1-4.2.76-2.11.76-4.21-1.06-2.1-1.06-4.2,1.26-2.11,1.26-4.21-.26-2.1-.26-4.21.07-2.1.07-4.2-.12-2.11-.12-4.21-.29-2.1-.29-4.21-.12-2.1-.12-4.2,0-2.11,0-4.21-.63-2.11-.63-4.21.72-2.1.72-4.21.23-2.1.23-4.21-.54-2.1-.54-4.2.66-2.1.66-4.21-.59-2.1-.59-4.2-.48-2.11-.48-4.21-.11-2.1-.11-4.21,1-2.1,1-4.21-.63-2.1-.63-4.21.59-2.1.59-4.21-.26-2.1-.26-4.21-.22-2.1-.22-4.21.58-2.1.58-4.21-.54-2.1-.54-4.21.73-2.11.73-4.22.61-2.37-.87-3.88-1.73-.37-3.8-.37S675,2.2,672.9,2.2s-2.07-.27-4.14-.27-2.07-.13-4.15-.13-2.07.73-4.14.73-2.07.18-4.15.18-2.07.47-4.14.47-2.07-1-4.15-1-2.07.42-4.14.42-2.07.15-4.14.15-2.08-.56-4.15-.56-2.07.46-4.14.46-2.07.43-4.14.43-2.07-.78-4.14-.78S621.11,3,619,3s-2.07-.89-4.14-.89-2.07.43-4.14.43S608.69,2,606.62,2s-2.07,0-4.14,0-2.07.15-4.14.15S596.27,3,594.2,3s-2.07-.93-4.15-.93-2.07.65-4.14.65-2.07-.11-4.14-.11-2.07.19-4.14.19-2.07.16-4.14.16-2.08.07-4.15.07-2.07-.84-4.14-.84-2.08.07-4.15.07-2.07.64-4.15.64-2.07.08-4.14.08-2.07-.1-4.15-.1-2.07.17-4.14.17-2.07-.14-4.14-.14-2.07-.2-4.15-.2-2.07-.52-4.14-.52-2.07.51-4.14.51-2.07.27-4.14.27-2.07.07-4.14.07-2.07-.41-4.15-.41-2.07.32-4.14.32-2.07.19-4.14.19-2.07.08-4.14.08-2.08-.63-4.15-.63-2.07-.27-4.14-.27-2.08.61-4.15.61-2.07-.44-4.15-.44-2.07,0-4.14,0-2.07.51-4.15.51-2.07-.11-4.14-.11h-4.15c-2.07,0-2.07.18-4.14.18s-2.07-.87-4.14-.87-2.08.76-4.15.76-2.07-.51-4.14-.51-2.07.31-4.14.31-2.08.24-4.15.24-2.07-1-4.14-1-2.07.7-4.15.7-2.07-.47-4.14-.47-2.07.39-4.15.39-2.07,0-4.15,0-2.07.56-4.14.56S418.08,2.8,416,2.8s-2.07-1-4.14-1-2.07.72-4.15.72-2.07-.12-4.14-.12S401.5,2,399.42,2s-2.07,1.19-4.14,1.19-2.07-.69-4.14-.69-2.08.2-4.15.2-2.07-.89-4.14-.89-2.08.58-4.15.58-2.08-.19-4.15-.19-2.07-.07-4.15-.07h-4.14c-2.07,0-2.07.42-4.15.42S360,2.12,358,2.12s-2.07.44-4.15.44-2.07-.14-4.14-.14h-4.15c-2.07,0-2.07.33-4.14.33s-2.08-.44-4.15-.44-2.07.78-4.15.78-2.07-.44-4.15-.44-2.07.07-4.14.07-2.07.5-4.15.5-2.07-1.31-4.14-1.31-2.08,1-4.15,1-2.07-.41-4.14-.41-2.08.5-4.15.5-2.07-.61-4.15-.61-2.07.69-4.15.69-2.07-.51-4.14-.51-2.08.37-4.15.37-2.07-.82-4.15-.82-2.07.49-4.14.49-2.08.18-4.15.18S273,2,270.89,2s-2.07.61-4.14.61-2.08-.71-4.15-.71-2.08.36-4.15.36-2.07.67-4.14.67-2.08-.49-4.15-.49S248.08,2,246,2s-2.07,1.17-4.15,1.17-2.07-.94-4.15-.94-2.07-.4-4.14-.4-2.08.92-4.15.92-2.07-.16-4.15-.16-2.07.33-4.15.33-2.07-.39-4.14-.39-2.08-.08-4.15-.08-2.08,0-4.15,0-2.07-.43-4.15-.43-2.07.21-4.15.21-2.07-.38-4.14-.38H192.1c-2.07,0-2.07.87-4.14.87s-2.08.47-4.15.47-2.07-1-4.14-1-2.08-.32-4.15-.32-2.08,1.27-4.15,1.27-2.07-.57-4.15-.57-2.07.41-4.14.41S161,3,158.93,3s-2.07-.25-4.14-.25-2.08-.26-4.15-.26-2.07.72-4.15.72S144.42,2,142.34,2s-2.07.28-4.14.28-2.08.1-4.15.1-2.07.47-4.15.47S127.83,2,125.75,2s-2.07.38-4.15.38S119.53,2,117.46,2s-2.08.52-4.15.52-2.08.47-4.15.47-2.08-.5-4.15-.5S102.93,2,100.86,2s-2.08.2-4.15.2-2.08.67-4.15.67-2.08-.25-4.15-.25-2.08-.16-4.15-.16-2.08.39-4.15.39S78,2.39,76,2.39s-2.08.07-4.15.07-2.08-.58-4.16-.58-2.07.24-4.14.24-2.08.42-4.15.42-2.07-.2-4.15-.2-2.08.83-4.15.83S49,3.06,46.91,3.06s-2.08-.29-4.15-.29-2.08-.49-4.16-.49-2.07.27-4.15.27S32.37,2,30.3,2s-2.08.56-4.15.56S24.07,2.05,22,2.05s-2.08-.24-4.15-.24-2.08.86-4.16.86-2.08-.1-4.16-.1"/></g></g></g></svg>