<svg xmlns="http://www.w3.org/2000/svg" viewBox="0 0 590.38 322.11"><defs><style>.cls-1{fill:none;stroke:#000;stroke-linecap:round;stroke-linejoin:round;stroke-width:4.33px;}</style></defs><g id="Layer_2" data-name="Layer 2"><g id="sect4"><g id="connline"><path class="cls-1" d="M2.63,2.17c0,2.09-.24,1.48-.24,4.18,0,1.17.76,2.58.76,4.19,0,1.27.39,2.67.39,4.18,0,1.31-.06,2.71-.06,4.19,0,1.33,0,2.73,0,4.18s-.87,2.75-.87,4.19,0,2.75,0,4.19.77,2.76.77,4.18-.49,2.77-.49,4.19S2.65,42.61,2.65,44s.23,2.77.23,4.18-.5,2.78-.5,4.19.39,2.78.39,4.19.54,2.78.54,4.19-1,2.78-1,4.19,1,2.78,1,4.18-.1,2.79-.1,4.19.3,2.79.3,4.19-.72,2.79-.72,4.19.27,2.78.27,4.18.49,2.79.49,4.19,0,2.79,0,4.18-.13,2.8-.13,4.2-.07,2.79-.07,4.19-.5,2.8-.5,4.19-.65,2.8-.65,4.19,1.12,2.8,1.12,4.19.3,2.8.3,4.19-.71,2.8-.71,4.19,0,2.81,0,4.19-.28,2.81-.28,4.19,0,2.81,0,4.19S2.5,139,2.5,140.36s1,2.82,1,4.19-1.13,2.82-1.13,4.19,1.23,2.83,1.23,4.19-1.36,2.83-1.36,4.19S3,160,3,161.31s.54,2.85.54,4.18-.41,2.87-.41,4.19c0,1.51-.73,2.91-.73,4.19,0,1.57,1.15,3,1.15,4.17,0,1.42-.4,2.79-.35,4.13s-.66,2.85-.55,4.19.77,2.75,1,4.08.07,2.84.33,4.15.43,2.82.8,4.11,1.38,2.52,1.87,3.77.6,2.85,1.25,4A30,30,0,0,0,10,210.09a27.29,27.29,0,0,0,2.9,3.08c1,1,2.67,1.1,3.8,1.92a29.09,29.09,0,0,0,3.27,2.5,32,32,0,0,0,3.68,1.93c1.25.47,2.77.19,4.15.55s2.59.73,4,1,2.6,1,4,1.16,2.7.6,4.12.67,2.75-.11,4.17-.11c1,0,2.38-.3,4.14-.3,1.21,0,2.59-.68,4.14-.68,1.27,0,2.65,1,4.14,1,1.3,0,2.68-.08,4.14-.08s2.7-.16,4.14-.16,2.71.27,4.14.27,2.72-1,4.14-1,2.73.39,4.15.39,2.72.12,4.14.12,2.73.14,4.14.14,2.73-.84,4.14-.84S92.42,223,93.82,223s2.74-.82,4.14-.82,2.74-.32,4.13-.32,2.74.2,4.14.2,2.74.17,4.14.17,2.74.67,4.13.67,2.75-.48,4.14-.48,2.75.07,4.14.07,2.75-.54,4.14-.54,2.75-.28,4.14-.28,2.75,1.15,4.14,1.15,2.75-.7,4.14-.7,2.75,0,4.14,0,2.75.22,4.14.22,2.75.2,4.14.2,2.75-.05,4.14-.05,2.75-.29,4.14-.29,2.75-.06,4.14-.06,2.75-.25,4.14-.25,2.75.8,4.14.8,2.75.2,4.14.2,2.76-.44,4.14-.44,2.76.43,4.14.43,2.76-.19,4.15-.19,2.75.25,4.14.25,2.75-1.15,4.14-1.15,2.76.68,4.14.68,2.76.42,4.14.42,2.75-1.11,4.14-1.11,2.75,1,4.13,1,2.76.27,4.14.27,2.76-.49,4.14-.49,2.76.49,4.14.49,2.76-.94,4.14-.94,2.76-.17,4.14-.17,2.76-.19,4.15-.19,2.75.56,4.14.56,2.76.53,4.14.53,2.76-.27,4.14-.27,2.76-.09,4.14-.09,2.76.15,4.15.15,2.75.39,4.13.39,2.76-.36,4.14-.36,2.76-1,4.14-1,2.76,1.25,4.14,1.25,2.76,0,4.15,0,2.76-.8,4.14-.8,2.76-.16,4.14-.16,2.76.69,4.15.69,2.76-.1,4.14-.1,2.77-.23,4.15-.23,2.76-.55,4.14-.55,2.77.29,4.15.29,2.77.82,4.15.82,2.77-.95,4.15-.95,2.76-.24,4.15-.24,2.76,1.35,4.15,1.35,2.76-1.37,4.14-1.37S332.64,223,334,223s2.77-.58,4.15-.58,2.77-.23,4.16-.23,2.76-.63,4.15-.63,2.77.08,4.15.08,2.76.11,4.14.11,2.77.61,4.14.61,2.77.16,4.15.16,2.76-.49,4.14-.49,2.77,0,4.15,0,2.76.43,4.14.43,2.77.22,4.15.22,2.76.24,4.14.24,2.77-.8,4.15-.8,2.76-.47,4.14-.47,2.77-.06,4.15-.06,2.76,1.29,4.14,1.29,2.77-1.24,4.15-1.24,2.77,1.11,4.14,1.11,2.77.16,4.15.16,2.77-.57,4.14-.57,2.77.24,4.15.24,2.77.22,4.14.22,2.77-.16,4.15-.16,2.77-.18,4.14-.18,2.77.46,4.15.46,2.77-1,4.14-1,2.77.21,4.15.21,2.77.46,4.14.46,2.77-.84,4.14-.84,2.78.53,4.15.53,2.77.33,4.14.33,2.78-.08,4.15-.08,2.78.45,4.14.45,2.78-.89,4.15-.89,2.78-.42,4.15-.42,2.78.93,4.15.93,2.78.24,4.14.24,2.78-.2,4.14-.2,2.79-.87,4.14-.87,2.79.12,4.15.12,2.78,1,4.14,1,2.79-1.2,4.14-1.2,2.79.49,4.14.49,2.8,0,4.14,0,2.81-.41,4.14-.41,2.82.78,4.15.78,2.82-.75,4.14-.75,2.83-.05,4.14-.05c1.48,0,2.86.57,4.14.57,1.52,0,2.9.07,4.12.07,1.43,0,2.78.7,4.13.77s2.9-1,4.24-.88,2.67,1.23,4,1.48,2.9,0,4.19.31,2.56,1.27,3.82,1.74,2.93.35,4.14,1a36.45,36.45,0,0,1,3.53,2.32,38.56,38.56,0,0,1,3.56,2.27c1.07.89,1.37,2.63,2.31,3.63a33.24,33.24,0,0,1,4.74,6.66c.69,1.19,1.64,2.21,2.22,3.48s.88,2.58,1.35,3.9,1.39,2.44,1.75,3.79.54,2.71.81,4.08.11,2.76.3,4.15.47,2.7.59,4.09.15,2.74.2,4.14,0,2.74,0,4.14.77,2.86.77,4.24-.76,2.86-.76,4.25,1.09,2.85,1.09,4.23-1.07,2.87-1.07,4.24.79,2.88.79,4.25-.11,2.87-.11,4.23-.88,2.9-.88,4.24c0,1.5.66,2.92.66,4.24,0,1.54,0,2.95,0,4.23,0,1.64-.08,3.06-.08,4.24,0,2.75.2,2.11.2,4.23"/></g></g></g></svg>