<svg xmlns="http://www.w3.org/2000/svg" viewBox="0 0 621.34 654.12"><defs><style>.cls-1{fill:#fff;}.cls-2{fill:#8e9b91;}.cls-10,.cls-3,.cls-6,.cls-7,.cls-8,.cls-9{fill:none;stroke-linecap:round;stroke-linejoin:round;}.cls-3,.cls-6,.cls-9{stroke:#000;}.cls-3{stroke-width:4.33px;}.cls-4{fill:#e6b49d;}.cls-5{fill:#677d70;}.cls-6,.cls-7,.cls-8{stroke-width:3.61px;}.cls-7{stroke:#62272d;}.cls-8{stroke:#e6b49d;}.cls-10,.cls-9{stroke-width:3.44px;}.cls-10{stroke:#8e9b91;}</style></defs><g id="Layer_2" data-name="Layer 2"><g id="sect9"><g id="couple"><path class="cls-1" d="M562.58,147.86c-1.77-1.22-.55-1.75-.55-3.91s-.39-2.16-.39-4.32.07-2.16.07-4.32,0-2.16,0-4.31.87-2.17.87-4.33,0-2.16,0-4.32-.77-2.16-.77-4.32.49-2.16.49-4.32.17-2.16.17-4.32-.23-2.16-.23-4.32.5-2.16.5-4.33a13.27,13.27,0,0,0-.39-4.35c-.45-2-1.66-.71-3.16-2.75-.68-.92-.61-2.57-1.33-3.94-.58-1.09-2-1.93-2.52-3.32a32.76,32.76,0,0,1-1.06-4,19.68,19.68,0,0,1-.74-4.22c0-1.39.89-2.74,1.18-4.11a27.55,27.55,0,0,1,.9-4.08c.47-1.29.59-2.8,1.19-4.07s1.29-2.49,2-3.72,1.47-2.37,2.16-3.58,1.45-2.38,2.11-3.58,1.77-2.18,2.34-3.19c.76-1.34,1.95-2.07,2.56-3,1-1.37,1-3,2-3.48a6.66,6.66,0,0,1,4.15-.53c1.38.28,1.55,2.5,1.28,4.53a24.8,24.8,0,0,1-1.16,4.37c-.49,1.47-1.34,2.83-1.89,4.12-1,2.36-3.74,5-1.53,4.53,1.78-.38,1.63-1.07,3.08-2.16s.88-1.87,2.34-3,2.13-.19,3.59-1.28.75-2,2.16-3.15,2-.14,3.34-1.86c.66-.86.8-2.33,1.52-3.46s.75-2.31,1.29-3.44S589.6,42,590,41c.55-1.26,1.67-2.08,2.06-3,.55-1.36-.05-2.91.38-3.76.67-1.3,2.52-1.44,5-.47,1.17.46,2.27,1.88,4.07,2.88,1.26.69,2.76.92,4,1.6s2.36,1.69,3.56,2.36,2.46,1.56,3.63,2.21c1.35.76,2.87,1,4,1.6A15.81,15.81,0,0,1,619.45,47a4.81,4.81,0,0,1,1.66,3,7.77,7.77,0,0,1,0,3.56c-.23,1.08.32,2.57-.24,3.95s-1.53,2.59-2,3.83c-.57,1.39-1.39,2.57-2,3.83s-.66,2.89-1.43,4.15a41.23,41.23,0,0,1-2.55,3.54c-.8,1.05-2.18,1.77-3.22,2.94-.88,1-2.12,1.77-3.21,2.89s-1.84,2.15-2.86,3.18-1.81,2.25-2.79,3.25-1.59,2.56-2.54,3.51c-1.11,1.12-2.82,1.47-3.7,2.35a38.53,38.53,0,0,0-3,3.41c.51,2.08.66,2.05,1.17,4.14s.26,2.15.77,4.24,1.44,1.86,1.95,4,.14,2.18.65,4.27.4,2.12.91,4.21.38,2.12.89,4.21,1.33,1.89,1.84,4-.77,2.41-.26,4.5,2.76,2.17,1.81,4.11-1.91,1.19-3.84,2-2,.64-4,1.46-2,.66-3.94,1.48-2.2.2-4.14,1-1.76,1.25-3.7,2.07-2,.76-3.9,1.58-1.73,1.32-3.66,2.14-1.84,1.07-3.78,1.89-2.7-.59-4.42.63S564.32,149.06,562.58,147.86Z"/><path class="cls-2" d="M390.13,367c-.37-2.23,1.31-1.59,3.07-3s2.2-.86,4-2.26,1.62-1.58,3.38-3,1.52-1.71,3.29-3.11,1.53-3.5,3.47-2.34.32,2,0,4.32-.58,2.25-.87,4.54.61,2.65-1,4.3c-1.39,1.41-1.71.4-3.69.44l-4,.07c-2,0-2.15-.87-4.06-.33C391.65,367.22,390.45,368.94,390.13,367Z"/><path class="cls-2" d="M261.35,366.37c-1.7-1.32-1.09-1.55-1.68-3.63s-.12-2.2-.71-4.27-.5-2.1-1.09-4.18-1-2-1.56-4-1.14-1.91-1.72-4,.56-2.4,0-4.48-2.73-1.91-1.27-3.49,1.46-.06,3.38.57,1.72,1.25,3.64,1.88,2.11.07,4,.71,2.06.19,4,.82,1.9.69,3.82,1.32,1.53,1.84,3.45,2.47l3.84,1.27c1.92.64,2.22-.28,4.14.36s2,.34,3.94,1,1.62,1.56,3.54,2.19,2.15-.07,4.07.57,1.7,1.31,3.62,1.94,2,.53,3.88,1.16,1.87.8,3.79,1.43,2,.35,3.94,1,1.87.81,3.79,1.44,2.34-.27,3.94,1-1.06,1.25-1.67,3.71c-.27,1.12.26,3.13-.09,4.62-2,.65-2.29-.83-4.41-.84s-2.12.57-4.24.56-2.12.24-4.24.23-2.12-.38-4.24-.39-2.12-.67-4.24-.68-2.13.72-4.25.71-2.12-.33-4.25-.34-2.12.6-4.24.59-2.12-.24-4.25-.25-2.12-.11-4.24-.12-2.12-.46-4.25-.47-2.09.35-4.2.6S263,367.67,261.35,366.37Z"/><path class="cls-3" d="M402.48,405c-2.07,0-2.07-.07-4.14-.07s-2.07.16-4.14.16-2.07,1-4.14,1-2.07-.43-4.13-.43-2.07-.29-4.14-.29-2.07.72-4.14.72-2.07-.11-4.14-.11-2.07-.61-4.14-.61-2.07-.37-4.14-.37-2.07.2-4.14.2-2.07.3-4.14.3-2.07.68-4.14.68-2.07-1-4.14-1-2.07.09-4.14.09-2.07.15-4.14.15-2.07-.27-4.14-.27-2.07,1-4.14,1-2.07-.39-4.14-.39-2.07-.12-4.14-.12-2.07-.14-4.14-.14-2.07.84-4.13.84-2.08-1.33-4.15-1.33-2.07.82-4.14.82-2.07.32-4.14.32-2.07-.2-4.14-.2-2.07-.17-4.14-.17-2.08-.67-4.15-.67-2.07.47-4.14.47-2.07-.06-4.14-.06-2.07.54-4.15.54-2.07.28-4.15.28-2.07-1.15-4.15-1.15"/><path class="cls-4" d="M1.44,176.7c1.48-1.44.85-2.09,2.33-3.53s1.64-1.26,3.13-2.7,1.6-1.3,3.09-2.74,1-1.92,2.49-3.36,2.08-.82,3.56-2.26.62-2.76,2.49-3.62,1.66,1.12,3.4,2.81c.8.77,1.48,2,2.54,3,.87.83,1.75,1.8,2.75,2.76s1.35,2.28,2.32,3.21,2.73.89,3.68,1.81,1.91,1.76,2.85,2.66,1.92,1.78,2.85,2.67,1.24,2.51,2.17,3.39,2,2,2,3.3a8.78,8.78,0,0,1-1.23,3.8A17.43,17.43,0,0,1,40,191.41a27.12,27.12,0,0,1-2.57,3.1,19.19,19.19,0,0,1-3.54,2,11.46,11.46,0,0,1-3.58,1.36,14.86,14.86,0,0,1-3.84.52,15.91,15.91,0,0,1-3.77-1,11.46,11.46,0,0,1-3.26-2c-.66-.52-1.78-1.65-3.2-3.07-.95-.94-2.24-1.79-3.35-2.94s-1.4-2.73-2.44-3.82-2.67-1.63-3.65-2.67c-1.11-1.19-1.86-2.56-2.75-3.52C2.25,177.42,1.44,176.7,1.44,176.7Z"/><path class="cls-4" d="M119.41,209c-1-1.77.11,1.29-1.25,3.49-.6,1-1.5,2-2.31,3.34-.66,1.06-1.81,2-2.58,3.19s-1,2.46-1.78,3.68-1,2.48-1.77,3.67-1.42,2.27-2.15,3.45-1.41,2.28-2.14,3.45-2.33,1.72-3.05,2.89-.74,2.72-1.45,3.88-1.68,2.15-2.39,3.31-1.36,2.34-2.07,3.49-1.9,2-2.61,3.18-.84,2.67-1.55,3.82-1.93,2-2.64,3.16-1.27,2.43-2,3.57-1.23,2.45-1.92,3.59-1.59,2.24-2.28,3.37-1,2.62-1.69,3.73-1.86,2.12-2.53,3.22-1.13,2.59-1.78,3.67c-.78,1.29-1.22,2.61-1.84,3.64-.88,1.45-2.16,2.28-2.66,3.13-.81,1.38-1.71,2.79-1.78,4.07-.08,1.47,1,2.86,1.68,4.08a9.51,9.51,0,0,0,2.65,3.44c1.13.73,2.75.76,4.21,1.07,1.31.29,2.77,1,4.25.93s2.68-1,4.08-1.48a18.82,18.82,0,0,0,3.55-2.26c1.13-.73,2.9-.78,4-1.83s1-2.79,1.88-4c.78-1,2.13-1.76,3-2.94s1.1-2.52,1.89-3.7,1.88-2,2.65-3.2,1.15-2.5,1.9-3.68,1.47-2.32,2.2-3.49,1.85-2.1,2.57-3.27,1.91-2.09,2.61-3.26,1.09-2.59,1.78-3.75,1.4-2.43,2.07-3.58,1.58-2.34,2.24-3.48,1.16-2.63,1.79-3.73c.78-1.36,2-2.28,2.54-3.3,1.28-2.26,1.77-1.83,1.79-3.9s-.83-1.9-1.18-3.84-.52-1.91-.88-3.85.57-2.1.22-4-.52-1.91-.88-3.85-.06-2-.42-3.93-1-1.82-1.33-3.76.28-2-.07-4-1-1.82-1.3-3.78A7,7,0,0,0,119.41,209Z"/><path class="cls-2" d="M437.42,117.76c.92-2,1.89-1.41,3.92-2.3s2.52.22,4.55-.68,1.61-1.83,3.64-2.73,2.12-.69,4.15-1.58,2.08-2.47,4.19-1.76c1.91.64.11,2.27.91,4.12s1,1.74,1.84,3.59,1.8,1.42,2.6,3.26-.08,2.23.72,4.08,1.48,1.55,2.28,3.4.35,2.05,1.15,3.89,1.46,1.57,2.26,3.42-.46,2.39.34,4.24,3.11,1.6,2.42,3.5-2.08.4-3.82,1.17-1.77.73-3.52,1.51-1.59,1.15-3.34,1.93-2,.23-3.74,1-1.41,1.56-3.16,2.34-1.78,2-3.54,1.21-.16-2-.92-3.87-1.54-1.56-2.3-3.43-.56-2-1.32-3.82l-1.52-3.75c-.76-1.87-.24-2.08-1-3.95s-1.78-1.45-2.54-3.32-.11-2.14-.87-4a11.91,11.91,0,0,0-1.95-3.52C437.58,119.89,436.58,119.6,437.42,117.76Z"/><path class="cls-2" d="M381.37,367.07c-1.66-1-1.64-1.23-2.93-2.66s-.54-2.1-1.83-3.52-1.6-1.16-2.89-2.58-1.73-1-3-2.45-1-1.7-2.29-3.12a39.73,39.73,0,0,1,3-3.24c.83-.82,2-1.54,3.17-2.65.89-.89,2-1.78,3-2.82s1.55-2.23,2.57-3.24,2-1.79,3-2.79,2.21-1.62,3.21-2.61,2-1.85,3-2.84,1.78-2.06,2.77-3,2.06-1.8,3.05-2.77,1.77-2.1,2.75-3.07,1.82-2.05,2.8-3,1.69-2.2,2.67-3.16,1.94-2,2.91-2.92,2.2-1.7,3.17-2.65,1.65-2.27,2.61-3.22,1.88-2,2.84-3S417.06,304,418,303s2.37-1.57,3.32-2.5,2-2,2.9-2.91,1.54-2.51,2.45-3.39c1.11-1.08,2.35-1.77,3.21-2.59,1.11-1.07,2.6-1.53,3.66-2.32a29.92,29.92,0,0,1,3.35-2.72,16.36,16.36,0,0,1,4.12-1.24c1.55-.36,3-1,4.3-.82a9.58,9.58,0,0,1,4.18,1.66c1.18.88,1.22,2.69,1.76,4s1.21,2.54,1,4-.51,2.78-.71,4.07a31.81,31.81,0,0,1-.59,4.08,20.68,20.68,0,0,1-1.23,4,29.46,29.46,0,0,1-2.35,3.45c-.74,1-2.17,1.58-3.17,2.71-.84.95-1.34,2.35-2.4,3.4-.9.9-1.79,2-2.88,3s-2,1.73-3.14,2.69-1.78,2.06-2.9,3-2.27,1.66-3.32,2.53-2.39,1.51-3.43,2.37-2.09,1.89-3.13,2.75-2.1,1.87-3.14,2.74-2.14,1.83-3.18,2.69-2.36,1.56-3.4,2.42-2.41,1.51-3.44,2.37-1.61,2.48-2.64,3.34-2.13,1.86-3.15,2.71l-3.2,2.67c-1.12.94-2.6,1.33-3.61,2.17s-2.14,1.91-3.13,2.74c-1.15,1-2.24,1.82-3.21,2.64-1.18,1-1.73,2.5-2.66,3.29-1.27,1.07-2.85,1.34-3.71,2.07C382.35,365.89,383.16,368.11,381.37,367.07Z"/><path class="cls-2" d="M531.05,200.37c-.34-1.93-.08-2-.42-3.91s-1.34-1.75-1.68-3.69.2-2-.14-4-.27-1.94-.62-3.88-.67-1.87-1-3.8-.37-1.93-.71-3.87-.27-1.95-.61-3.88-.8-1.87-.38-3.79,1,.47,3.48,1.34c1.09.38,2.47.61,3.93,1.13,1.18.42,2.37,1.14,3.75,1.64,1.22.43,2.42,1.12,3.77,1.6s2.62.61,3.94,1.08,2.4,1.29,3.72,1.75,2.8.17,4.11.63,2.59.81,3.88,1.27,2.4,1.38,3.69,1.83,2.4,1.4,3.68,1.85,2.68.64,4,1.09,2.46,1.28,3.73,1.73,2.67.69,3.94,1.13,2.91,0,4.16.48,2.56,1.08,3.8,1.51,2.67.85,3.89,1.27c1.4.48,2.38,1.85,3.55,2.25,1.5.5,2.92.59,4,.94,1.41.46,2.76.93,4.06,1.42s3,.48,4.24,1.06,2.8,1.15,4,1.84c1.33.79,2,2.39,3,3.26,1.2,1,2.66,1.7,3.31,2.82.77,1.31.33,2.83.25,4.27a7.76,7.76,0,0,1-1.22,3.85,14.57,14.57,0,0,1-2.43,3.39,14.82,14.82,0,0,1-3.26,2.8c-1.22.58-2.87,0-4.33.3a22,22,0,0,1-4.09.72c-1.33,0-2.77.71-4.26.56-1.34-.14-2.58-1.29-4-1.58s-2.93.39-4.36,0-2.67-.82-4.07-1.29c-1.2-.39-2.54-.72-3.93-1.18s-2.26-1.7-3.61-2.15-2.54-.91-3.88-1.35-2.9.12-4.22-.32-2.56-.93-3.87-1.36-2.51-1.15-3.81-1.58-2.74-.49-4-.92-2.38-1.62-3.66-2-2.59-1-3.85-1.43-2.92-.1-4.16-.51-2.65-1.06-3.84-1.46c-1.48-.49-3-.45-4.06-.82A6.17,6.17,0,0,1,531.05,200.37Z"/><path class="cls-5" d="M319.49,374.62c1.22-1.46,1.73-.1,4-.23,1.12-.06,2.45.44,3.83.36s2.54.05,3.82-.05,2.52-1.14,3.72-1.24c1.42-.13,2.75.05,3.81-.09,1.38-.18,2.45.79,3.76,1.79A16.2,16.2,0,0,1,345.6,378c.87,1.12,2,2.15,2.8,3.39s1.88,2.42,2.56,3.61c.87,1.51.92,3.28,1.54,4.18,1,1.41,1.71,2.6,1.22,3.53s-1.89,1.62-3.16,2.26c-1.05.54-2.56.27-3.71.73a13.24,13.24,0,0,1-4.28,1.5,17.16,17.16,0,0,1-4.64,0c-1.39-.28-2.65-1.33-4.19-2-1.3-.57-2.93-.77-4.31-1.7s-1.92-2.35-2.88-3.3-2.71-1.61-3.44-2.8-.84-2.83-1.32-4.21a32.63,32.63,0,0,1-.87-4.23C320.63,377.61,319.73,376.11,319.49,374.62Z"/><path class="cls-5" d="M535.58,351.79c1.92.55.1.82.55,3.56.17,1.07,0,2.44.24,4,.2,1.16,1.61,2.28,1.85,3.74.2,1.21-.74,2.71-.5,4.13.2,1.23.41,2.54.64,3.94.21,1.25,1.6,2.37,1.83,3.75s-.11,2.65.11,4,0,2.64.24,4,.13,2.63.35,4,1.22,2.45,1.45,3.81-.38,2.72-.16,4.07,1.45,2.42,1.67,3.77-.66,2.77-.44,4.12.64,2.56.86,3.91.37,2.6.59,3.94.31,2.63.52,4,1.13,2.49,1.35,3.83-.1,2.69.11,4,1.14,2.49,1.35,3.83-.4,2.74-.18,4.08,1.61,2.42,1.83,3.75-.35,2.74-.14,4.08a18.14,18.14,0,0,1,.31,3.78,22.83,22.83,0,0,1-.63,3.74,33.3,33.3,0,0,1-1.29,3.56c-.4,1.17-.23,2.58-.72,3.8s-1.67,2-2.18,3.23-.36,2.57-.85,3.79-1,2.32-1.4,3.55-1.38,2.21-1.75,3.47,0,2.62-.27,3.9-.41,2.46-.62,3.76-.31,2.48-.43,3.79-.37,2.48-.41,3.79-.23,2.52-.19,3.83-.18,2.55-.07,3.86.68,2.47.86,3.77a34.26,34.26,0,0,0,.45,4c.34,1.28.89,2.54,1.35,3.81s1.58,2.23,2.13,3.46.31,2.81.92,4,1.66,2.15,2.31,3.33,1.31,2.33,2,3.49,1.61,2.17,2.28,3.32,1.53,2.22,2.19,3.37.33,2.9,1,4.06,1.87,2.07,2.44,3.25,1.62,2.28,2.1,3.49a35.58,35.58,0,0,1,1.14,3.9,25.69,25.69,0,0,1,.91,4c.16,1.41-.64,2.82-.61,4.08,0,1.42.56,2.76.48,4s-.09,2.77-.29,4-1.3,2.52-1.57,3.8.35,2.82.08,4.13-1.37,2.45-1.57,3.81.16,2.67.08,4.07a35.72,35.72,0,0,0-.36,4c.06,1.26,1,2.5,1.24,3.91.17,1.25-.3,2.68,0,4.07s.23,2.66.63,4,.86,2.45,1.3,3.77,1.86,2.09,2.31,3.39-.13,2.79.31,4.09,1.56,2.21,2,3.5,1,2.43,1.39,3.72.1,2.7.48,4,1.44,2.31,1.79,3.62-.27,2.77.05,4.08,1.18,2.41,1.47,3.73-.1,2.69.15,4,.73,2,.95,3.31c-1.7.67-1.63,1.06-3.45,1.06s-1.82-1.15-3.64-1.15-1.82.81-3.64.81-1.83-.52-3.65-.52-2,1.24-3.77.73c-.53-1.2-1.1-2.75-1.63-3.95s-.94-2.45-1.46-3.66-1.54-2.2-2-3.4-.23-2.76-.73-4-1.68-2.15-2.18-3.36,0-2.83-.53-4-1.08-2.4-1.57-3.61-1.64-2.17-2.13-3.38-1.16-2.37-1.64-3.59-.69-2.56-1.17-3.78-.45-2.64-.93-3.86-1.15-2.38-1.62-3.6-1.68-2.18-2.15-3.4-.19-2.75-.65-4-1.5-2.24-2-3.47-.91-2.47-1.36-3.7-.47-2.63-.92-3.86-1.54-2.25-2-3.48,0-2.78-.47-4-.78-2.51-1.22-3.75-.89-2.47-1.32-3.71-1.54-2.25-2-3.49-.89-2.48-1.31-3.72-.36-2.65-.77-3.89-1.19-2.38-1.6-3.62-.08-2.75-.49-4-1.22-2.37-1.62-3.61-.83-2.5-1.23-3.75-.66-2.54-1.05-3.79-1.27-2.36-1.65-3.61-.31-2.66-.69-3.91-1.17-2.39-1.55-3.64-1.13-2.41-1.5-3.67-.45-2.61-.82-3.86-.53-2.59-.89-3.84-.25-2.67-.61-3.92-.88-2.49-1.23-3.74-.47-2.6-.82-3.85-.88-2.49-1.23-3.75-.94-2.47-1.28-3.73-.31-2.63-.65-3.89-1.82-2.24-2.16-3.51-.7-2.54-1-3.8,0-2.71-.35-4-1.35-2.37-1.67-3.64-.56-2.57-.87-3.84.33-2.79,0-4.06-.84-2.51-1.15-3.77-.82-2.52-1.12-3.78-.74-2.54-1-3.8.17-2.75-.12-4-.88-2.5-1.16-3.77-1.21-2.43-1.49-3.7,0-2.71-.24-4-.84-2.52-1.11-3.79-.39-2.61-.66-3.88-.47-2.6-.73-3.86-.93-2.51-1.18-3.78-.83-2.53-1.08-3.8-.28-2.64-.52-3.91-.24-2.65-.47-3.91-1-2.51-1.24-3.78.42-2.76.19-4-.72-2.56-.94-3.82-.61-2.6-.82-3.86.26-2.74.06-4-1.69-2.44-1.89-3.69.67-2.81.48-4.05-1.05-2.56-1.23-3.79c-.2-1.39.07-2.75-.1-4-.2-1.42-.05-2.76-.2-3.93-.2-1.51-.56-2.79-.69-3.87a26.16,26.16,0,0,0-.82-4.2c2,0,2,.91,4,.91s2-.64,4-.64,2,.42,4,.42,2-.75,4-.75,2,1.09,4,1.09,2-.28,4-.28,2-.61,4-.61,2,.26,4,.26h4c2,0,2,.1,4,.1s2-.55,4-.55,2,.34,4,.34,2-.08,4-.08,2,.84,4,.79S533.64,351.24,535.58,351.79Z"/><path class="cls-4" d="M78.26,163.87c1.82.94,1.78.49,3.81.8s2,.84,4,1.14,2,.24,4.07.55,2.14-.41,4.17-.1,2,.66,4,1,1.94.91,4,1.22,2.1-.19,4.13.12,2,.6,4,.91,2.12-.29,4.15,0,2,.26,4.08.56,1.87,1.39,3.9,1.69,2.11-.19,4.14.11,2,.46,4,.77,2.07,0,4.1.34,2.08,0,4.12.29,2,.49,4,.8,1.92,1.05,3.95,1.36,2.12-.3,4.16,0,2.05.14,4.08.45,2,.37,4.06.67,2.09-.1,4.12.21,2,.47,4,.77,2,.67,4,1,2.05.19,4.08.49,2.05.21,4.08.51,2,.26,4.08.57,2,.61,4,.92,2,.68,4,1,2.17-.57,4.2-.26,2.12,2,3.69.66-.13-1.68-.09-3.74.7-2,.74-4.09,0-2.05,0-4.1.08-2.05.12-4.1-.75-2.07-.71-4.12.86-2,.91-4.09.52-2,.56-4.1-.7-2.06-.66-4.11.81-2,.85-4.09-.64-2.07-.6-4.12-.18-2.06-.13-4.11-.38-2.06-.34-4.11.33-2,.37-4.11.7-2,.75-4.09-.25-2.06-.2-4.11-.62-2.06-.58-4.12.35-2,.39-4.1.9-2,.94-4.09-.57-2.06-.53-4.12.62-2,.66-4.09-.57-2.07-.53-4.12-.45-2.06-.41-4.11,1.26-2,1.3-4.08-1-2.08-.94-4.13.27-2,.31-4.1.09-2,.13-4.11.89-2,.93-4.09-.23-2.06-.18-4.11-1-2.08-1-4.13,1-2,1-4.09-.71-2.07-.67-4.13.53-2,.57-4.1-.68-2.07-.64-4.12,1.42-2,1.46-4.09-.14-2.12-.8-4.06-1.35-.59-4.05-.64c-1.21,0-2.65-.07-4.28,0-1.3,0-2.71.5-4.23.62-1.34.1-2.82-.36-4.31-.19s-2.65,1.2-4.1,1.43-2.82.11-4.25.41-2.89.06-4.29.42-2.5,1.54-3.89,2-2.75.65-4.1,1.13-2.65,1-4,1.54-2.83.61-4.13,1.23-2,2.24-3.29,2.93-2.81.77-4,1.53-2.11,1.91-3.29,2.73-2.41,1.48-3.54,2.37S141,58.75,140,59.7s-2.23,1.69-3.26,2.7-1.95,2-2.92,3.07-2.4,1.64-3.31,2.76-1.87,2.09-2.68,3.15-1,2.75-1.74,3.84-1.54,2.31-2.28,3.42-1.46,2.35-2.15,3.5-1.6,2.28-2.24,3.45S117.6,87.81,117,89s-.82,2.69-1.36,3.92-.68,2.7-1.17,4-1,2.57-1.41,3.84-.86,2.61-1.25,3.91S110,107,109.64,108.3s0,2.87-.3,4.19-1,2.58-1.36,3.9-.66,2.67-1,4-1.31,2.45-1.74,3.77-.22,2.8-.71,4.1-1.54,2.31-2.09,3.59-.94,2.54-1.57,3.79-1,2.51-1.75,3.73-1.53,2.23-2.3,3.41-1.08,2.54-1.91,3.69-2,1.88-2.88,3-1.41,2.35-2.33,3.42-1.56,2.25-2.53,3.28-2.35,1.51-3.34,2.51-2.25,1.57-3.27,2.55S79.31,162.92,78.26,163.87Z"/><path class="cls-4" d="M323.37,355c-1.87.95-1.48-1.25-4-2-1.13-.35-2.5-.69-4-1.17-1.22-.38-2.64-.54-4.07-1-1.26-.4-2.75-.32-4.14-.76s-2.29-1.85-3.66-2.29-2.71-.56-4.07-1-2.86-.13-4.21-.56-2.36-1.75-3.7-2.17-2.95.11-4.28-.32-2.65-.9-4-1.32-2.7-.75-4-1.17-2.4-1.72-3.71-2.14-2.66-.92-4-1.33-3,.11-4.31-.3-2.68-.94-3.95-1.36-2.64-1.17-3.89-1.57c-1.44-.47-2.9-.53-4.1-.93-1.56-.51-2.65-1.71-3.71-2.07a4.9,4.9,0,0,1-2.68-2.64c-.62-1.15-1.77-2.29-1.88-3.71a10.63,10.63,0,0,1,.72-4.17c.47-1.3,1-3,2.13-3.8s2.7-.58,4.27-.74c1.19-.12,2.7-.88,4.25-.53a25.13,25.13,0,0,1,4,1.34c1.26.54,2.53,1.11,3.81,1.65s2.24,1.78,3.52,2.33,2.5,1.19,3.77,1.73,2.63.92,3.9,1.46,2.73.67,4,1.21,2.4,1.45,3.67,2,2.42,1.41,3.68,1.95,2.64.92,3.9,1.45,2.58,1.06,3.84,1.59,2.72.74,4,1.27,2.72.75,4,1.28,2.19,2,3.43,2.55,2.75.73,4,1.25,2.84.56,4.06,1.07,2.47,1.48,3.67,2c1.38.58,2.64,1.17,3.8,1.66,1.47.62,2.61,1.49,3.69,1.94,2.44,1,4.4-.52,3.64,1.41-.67,1.68-.9,1.52-2.2,2.78s-1.61.95-2.7,2.39S325,354.16,323.37,355Z"/><path class="cls-4" d="M159.09,196.06c-1.74-1.54-.26,2,.36,5,.27,1.27.12,2.9.48,4.66.29,1.38,2,2.61,2.35,4.26.3,1.43-.72,3.23-.38,4.84l.95,4.55c.31,1.47,2,2.7,2.34,4.27s0,3.12.33,4.69.16,3.1.49,4.66.29,3.07.62,4.63,1.57,2.81,1.89,4.36-.3,3.21,0,4.75,1.84,2.76,2.17,4.3-.63,3.29-.3,4.83.89,3,1.22,4.5.58,3,.91,4.56.5,3,.83,4.58,1.47,2.85,1.79,4.38,0,3.15.36,4.68,1.47,2.85,1.8,4.38-.32,3.23,0,4.75,2,2.73,2.36,4.26-.25,3.22.08,4.75.73,3,1.06,4.53.48,3.07.81,4.59.33,3.1.66,4.62,1.42,2.87,1.75,4.39-.22,3.22.11,4.74,1.42,2.86,1.75,4.38.61,3.05.94,4.56,0,3.18.32,4.7,1.48,2.85,1.82,4.37.78,3,1.12,4.52.71,3,1,4.54.45,3.08.79,4.6.43,3.09.77,4.6.32,3.12.66,4.64,1.16,2.93,1.5,4.44.27,3.13.61,4.64.85,3,1.19,4.51,1.45,2.86,1.79,4.37-.33,3.27,0,4.78,1.24,2.91,1.59,4.42.69,3,1,4.55,1,2.95,1.39,4.46.92,3,1.27,4.49-.62,3.34-.28,4.85,1.49,2.86,1.84,4.36,1.28,2.91,1.63,4.41.5,3.09.85,4.59.85,3,1.2,4.51-.31,3.27,0,4.78,1.36,2.88,1.72,4.38.9,3,1.26,4.49-.26,3.27.1,4.76,1.8,2.78,2.16,4.28-.24,3.27.13,4.76,1.31,2.9,1.68,4.39.36,3.14.73,4.62,1.74,2.79,2.12,4.27-.05,3.25.33,4.73.33,3.16.71,4.63.93,3,1.32,4.47,2.06,2.71,2.46,4.16-.36,3.38.05,4.82,1.72,2.81,2.14,4.22a33.84,33.84,0,0,0,1.72,4.16c.62,1.44.58,3.14,1.34,4.42s2.36,2.07,3.27,3.27,1,3.11,2,4.22,2.61,1.74,3.7,2.79,1.68,2.68,2.79,3.71,2.16,2.14,3.26,3.18,3.1,1.23,4.13,2.33,1,3.13,2,4.33,2.56,1.88,3.34,3.21.91,3,1.48,4.34,1.94,2.58,2.34,4a45.44,45.44,0,0,1,.71,4.54c.26,1.52.31,3.06.46,4.55s.88,3,1,4.5-.86,3.12-.76,4.62,1.06,3,1.25,4.44-.76,3.26-.39,4.72a30.6,30.6,0,0,0,1.59,4.47c.64,1.53,2.12,2.53,2.92,3.73a22.45,22.45,0,0,0,3.08,3.4,34.74,34.74,0,0,0,3.24,3.29c1.21.94,2.08,2.35,3.36,3.27s2.59,1.57,3.83,2.57,2.94,1.28,4.07,2.43,1.34,2.83,2.32,4.14,2.33,2,3.14,3.48a42,42,0,0,1,2.07,4.19c.58,1.34.62,3,1.13,4.55s1.6,2.94,1.78,4.48-.83,3.19-.81,4.79-.12,3.11-.07,4.74.16,3.13.35,4.77,1.26,2.9,1.66,4.53a39.33,39.33,0,0,0,1.41,4.48c.52,1.39.59,3.07,1.33,4.58.66,1.33,1.8,2.51,2.67,3.94s.87,3.12,1.82,4.49,2.37,2.31,3.4,3.62c2,.47,2.15-.09,4.24-.15s2.1.1,4.19,0,2.07-.65,4.16-.71,2.11.51,4.21.45,2.22.23,4.13-.62c-.33-1.56-1.15-2.88-1.47-4.34s-.3-3.17-.62-4.63-.4-3.15-.72-4.6-.09-3.23-.4-4.67c-.34-1.6-.85-3.07-1.16-4.51-.34-1.61-.38-3.19-.69-4.61-.35-1.63-.88-3.1-1.19-4.5-.35-1.66-1-3.11-1.27-4.49-.37-1.7-.26-3.3-.56-4.64-.39-1.77-2.08-2.95-2.37-4.23-.43-1.87-.81-3.27-1.13-4.49-.43-1.67-.06-3.16-.53-4.67-.38-1.23-1.63-2.35-2.2-4.18-.38-1.24-.73-2.72-1.26-4.48-.39-1.31.29-3.11-.2-4.79-.39-1.35-1.08-2.75-1.55-4.39-.4-1.38-1.06-2.79-1.51-4.4-.4-1.4-1-2.84-1.42-4.43-.4-1.41.08-3.15-.36-4.73-.39-1.42-1.15-2.81-1.58-4.38s-1.53-2.72-1.95-4.28-.1-3.12-.52-4.67-1.12-2.84-1.54-4.39-.62-3-1-4.53-.72-3-1.13-4.51-1.26-2.82-1.66-4.36-1.16-2.86-1.56-4.39-.53-3-.93-4.56-.48-3-.89-4.58-1.39-2.8-1.79-4.33.26-3.24-.14-4.77-1.09-2.88-1.49-4.41-.95-2.93-1.35-4.45,0-3.18-.37-4.71-2.23-2.59-2.63-4.12.48-3.3.08-4.82-1.52-2.78-1.92-4.3-.24-3.12-.64-4.64-.4-3.08-.79-4.6-1-2.92-1.38-4.44-1.59-2.77-2-4.29.27-3.25-.12-4.77-1.49-2.8-1.88-4.31-.29-3.11-.68-4.63-1.63-2.76-2-4.28.48-3.3.09-4.82-1.08-2.9-1.47-4.42-1.46-2.8-1.85-4.32-.46-3.06-.85-4.58-.77-3-1.15-4.5-.65-3-1-4.53-1.39-2.83-1.78-4.34-.37-3.09-.75-4.61-.86-3-1.25-4.48.14-3.22-.24-4.74-1.56-2.79-2-4.3-.09-3.16-.48-4.68-1.47-2.81-1.85-4.33-.34-3.1-.73-4.62-.6-3-1-4.55-1.58-2.78-2-4.3-.15-3.14-.54-4.66-1-2.93-1.37-4.45-.57-3-1-4.55-1.14-2.9-1.52-4.42-1.34-2.85-1.72-4.36.38-3.28,0-4.8-1.47-2.82-1.85-4.33-.12-3.16-.5-4.68-1-2.93-1.41-4.44-1.51-2.81-1.89-4.32.42-3.3,0-4.81-1.26-2.88-1.65-4.39-1.5-2.81-1.88-4.33.64-3.35.26-4.86-1.92-2.53-2.31-4a29.4,29.4,0,0,0-2.62-3.69c-1.35-1.84-1.47-1.75-2.83-3.6s-1.15-2-2.5-3.84-1.25-1.93-2.6-3.78-1.66-1.63-3-3.47-.6-2.4-1.95-4.25-2.16-1.26-3.51-3.11-.43-2.53-1.79-4.37-2-1.36-3.38-3.21-.57-2.42-1.93-4.27-1.84-1.49-3.19-3.34-1.09-2-2.45-3.89-2.11-1.29-3.46-3.14-.2-2.7-1.55-4.55-1.59-1.68-2.94-3.52-1.05-2.07-2.4-3.92-1.42-1.8-2.78-3.65-2.47-1-3.82-2.88-1.19-2-2.54-3.82-1.21-2-2.56-3.8-1.31-1.89-2.66-3.74-.84-2.23-2.19-4.08-1.17-2-2.52-3.84-2.21-1.23-3.56-3.08-1.07-2.06-2.43-3.91-.88-2.19-2.23-4-1.61-1.67-3-3.52-2-1.46-3.07-3.48S160.81,197.59,159.09,196.06Z"/><path class="cls-6" d="M117.12,194.2c.37,2,.87,1.94,1.23,4s.27,2.05.64,4.08.36,2,.73,4.06.55,2,.92,4-.48,2.19-.11,4.22,1.11,1.89,1.48,3.92-.13,2.12.24,4.15.68,2,1,4,.6,2,1,4-.63,2.21-.26,4.24,1.06,1.9,1.43,3.93-.09,2.12.28,4.14.75,2,1.12,4,.35,2,.72,4.06.91,1.93,1.28,4,.09,2.08.46,4.11-.57,2.21-.2,4.24,1.08,1.9,1.45,3.93.25,2.05.62,4.08-.07,2.11.3,4.14,1.55,1.82,1.92,3.85-.31,2.16.06,4.2-.72,2.59.87,3.92,1.94.84,4,.84,2.06-.58,4.13-.58,2.06.19,4.13.19,2.06.07,4.13.07h4.13c2.06,0,2.06-.42,4.13-.42s2.06.44,4.13.44,2.06-.44,4.12-.44,2.07.14,4.13.14h4.13c2.07,0,2.07-.34,4.13-.34s2.07.44,4.13.44,2.07-.78,4.13-.78,2.07.44,4.14.44,2.06-.07,4.13-.07,2.07-.5,4.13-.5,2.07,1.31,4.13,1.31,2.07-1,4.14-1,2.06.41,4.13.41,2.07-.5,4.14-.5,2.07.62,4.14.62"/><path class="cls-6" d="M193.6,182.16a32.48,32.48,0,0,1,4.14.82c1.16.34,2.56.65,4.07,1.16,1.24.42,2.56.94,4,1.48,1.26.48,2.82.43,4.17,1s2.26,1.78,3.57,2.41,2.4,1.44,3.66,2.13,2.72.9,3.94,1.64,2,2.05,3.18,2.87,2.63,1.18,3.73,2.07,2.5,1.48,3.52,2.46,2.12,2,3,3,1,2.81,1.83,4,2.06,2.07,2.71,3.32.67,2.79,1.14,4.14,1.15,2.49,1.65,3.88,1.14,2.51,1.65,3.88.41,2.8.92,4.15,1.48,2.41,2,3.75.31,2.87.82,4.2,1.94,2.24,2.46,3.57.53,2.79,1,4.11.78,2.71,1.29,4,.78,2.72,1.29,4,.92,2.67,1.44,4,1.72,2.35,2.23,3.65,1.22,2.56,1.73,3.85,1.5,2.46,2,3.74.16,3,.68,4.27,1.46,2.5,2,3.76,1.23,2.62,1.73,3.85c.57,1.4.58,2.92,1.07,4.11.61,1.49,1.57,2.63,2,3.73a16.27,16.27,0,0,0,1.8,3.48c1.66,1.23,1.19,1.86,2.85,3.09s2.05.71,3.71,1.94,1.13,2,2.79,3.19,1.91.88,3.56,2.11,1.37,1.63,3,2.86,1.64,1.26,3.3,2.49,1.74,1.12,3.4,2.35,2.17.54,3.84,1.77,1.1,2,2.76,3.22,2,.71,3.7,1.94,1.6,1.31,3.26,2.55,1.78,1.08,3.44,2.31,1.76,1.1,3.42,2.34,1.7,1.18,3.36,2.41,1.16,1.91,2.82,3.14,1.7,1.18,3.36,2.41,2.05.72,3.71,1.95,1.71,1.17,3.37,2.4,1.61,1.32,3.27,2.55,1.77,1.1,3.43,2.34"/><path class="cls-6" d="M197.62,192.81a9,9,0,0,0-2.9,3.36,34.54,34.54,0,0,0-1.6,3.88c-.43,1.21-.1,2.75-.41,4.2a34.44,34.44,0,0,0-.3,4.09c-.11,1.32-1.33,2.67-1.27,4.12a33.51,33.51,0,0,0,.49,4.19c.22,1.31,1.32,2.49,1.72,3.88s.63,2.63,1.17,4,1.25,2.39,1.93,3.67,1.57,2.28,2.25,3.58.74,2.73,1.4,4,1.59,2.3,2.24,3.58.66,2.79,1.3,4.07,1.58,2.33,2.21,3.6,1.72,2.27,2.36,3.53,1.16,2.56,1.79,3.82,1.09,2.59,1.72,3.85,1.56,2.37,2.18,3.63.91,2.69,1.53,3.95.77,2.77,1.39,4,1.78,2.27,2.4,3.52l1.86,3.78c.64,1.29.42,3,1,4.2s1.86,2.26,2.47,3.48l1.88,3.77c.66,1.33,1,2.74,1.58,3.92.69,1.36,1.9,2.33,2.48,3.47.74,1.45,1.13,2.83,1.67,3.86.64,1.21,1.69,2.21,2.25,3.44s.21,2.86.77,4.1,1.95,2.05,2.56,3.26.44,2.81,1.16,4a36.48,36.48,0,0,0,2.75,3c.8,1,1.3,2.41,2.3,3.4s2.5,1.13,3.62,2a36.14,36.14,0,0,0,3.12,2.55c1.09.68,1.93,2,3.2,2.6s2.61.68,3.92,1.23,2.66.4,4,.88,2.07,2.16,3.42,2.57,2.73.34,4,.73l3.87,1.19c1.3.41,2.49,1.14,3.75,1.53s2.73.39,4,.78,2.78.25,4,.65,2.31,1.73,3.57,2.13,2.66.61,3.92,1,2.69.54,3.94.93,2.77.35,4,.75,2.3,1.83,3.53,2.23,2.66.75,3.87,1.14c1.37.44,2.83.3,4,.69,1.4.46,2.74.72,3.89,1.1,1.49.49,2.8.82,3.87,1.17a8.05,8.05,0,0,1,3.28,1.69"/><path class="cls-6" d="M148.54,174.66c-2,.8-1.7-.31-4.29.76-1.1.44-2.36,1.11-3.89,1.74-1.19.49-2.17,1.84-3.61,2.44-1.23.51-2.87.24-4.27.82-1.25.52-2.35,1.59-3.73,2.16s-2.75.64-4.12,1.21-2.79.57-4.15,1.14-2.44,1.43-3.79,2-2.22,2-3.57,2.53-3.13-.06-4.3.49-2.57,1.29-3.7,1.93a31.2,31.2,0,0,0-3.29,2.61c-1.1.83-1.67,2.21-2.63,3.22s-2.56,1.4-3.37,2.6-.61,2.75-1.29,4.05c-.6,1.14-.92,2.46-1.5,3.81-.52,1.19-1.69,2.18-2.21,3.55"/><path class="cls-7" d="M187.14,181.57c-.15-1.91.59-2,.44-3.88s-1.36-1.82-1.51-3.73,1-2,.87-3.93-.31-1.9-.47-3.82.2-2.05-1-3.55-1.35-1.59-3.25-2.25-1.92-.59-3.82-1.26-2.24.33-4.14-.34-1.8-1-3.7-1.62-1.73-1.14-3.63-1.8-2-.29-3.93-1-1.68-1.3-3.58-2-2-1.07-3.84-.24-1.5,1.18-2.2,3-.71,1.84-1.41,3.69.56,2.32-.15,4.17-1.17,1.67-1.88,3.52-1.41,1.58-2.11,3.43"/><path class="cls-6" d="M134.13,287.15c-2.09.35-1.29,1.1-3.86,2-1.12.38-2.39.93-3.88,1.59-1.17.52-2.41,1.11-3.77,1.83-1.17.62-2.71.74-4,1.53s-2.28,1.55-3.49,2.41-2.27,1.58-3.42,2.5-1.63,2.34-2.73,3.31-2.61,1.25-3.65,2.26S103,306.2,102,307.27s-1.33,2.55-2.27,3.66-2.38,1.66-3.28,2.81-1.15,2.63-2,3.81-1.43,2.4-2.22,3.6-1.16,2.55-1.91,3.78-1.68,2.24-2.39,3.5-1.93,2.13-2.59,3.4-1,2.62-1.65,3.92-.6,2.79-1.19,4.1-1.41,2.43-2,3.76-1.85,2.28-2.36,3.62-.42,2.83-.9,4.19-1.48,2.46-1.93,3.82-.28,2.86-.7,4.23-.33,2.82-.72,4.2S72,366,71.66,367.35s.23,2.95-.14,4.28-1,2.62-1.34,3.95-.79,2.66-1.16,4-1.56,2.45-1.93,3.79-.48,2.75-.84,4.08.31,3,0,4.3-1.66,2.43-2,3.77,0,2.87-.37,4.21-1.2,2.55-1.56,3.89,0,2.87-.39,4.21-2,2.33-2.4,3.66.15,2.92-.21,4.26-1.24,2.54-1.6,3.88-.76,2.67-1.12,4-.32,2.78-.67,4.12-1.29,2.54-1.64,3.87.12,2.91-.23,4.24-1.07,2.6-1.41,3.94-1.24,2.54-1.59,3.88.13,2.9-.22,4.24-.9,2.64-1.24,4-.69,2.69-1,4-1.23,2.55-1.57,3.89.39,3,.06,4.3-1.36,2.53-1.7,3.86-.2,2.82-.54,4.15-.86,2.65-1.19,4-.09,2.84-.43,4.18-.9,2.64-1.23,4-.64,2.7-1,4-1.36,2.52-1.69,3.86-.81,2.66-1.14,4,.2,2.91-.12,4.25-.6,2.71-.92,4.05-.62,2.71-.94,4.05-.86,2.65-1.18,4-1.15,2.58-1.47,3.92-.24,2.8-.56,4.14-.23,2.8-.55,4.14-.66,2.7-1,4-.65,2.71-1,4.05-1.69,2.46-2,3.8.15,2.89-.16,4.23-.93,2.65-1.24,4-.56,2.72-.86,4.06-1.17,2.59-1.47,3.93.05,2.87-.26,4.21S23.26,559.62,23,561s-.44,2.76-.73,4.09-.39,2.77-.68,4.11-.79,2.68-1.08,4-.12,2.83-.41,4.16-1.07,2.63-1.36,4-.22,2.81-.51,4.14-.29,2.8-.58,4.12-1.25,2.59-1.53,3.92-1,2.64-1.33,4,.08,2.89-.2,4.21-1.12,2.63-1.39,4,0,2.88-.26,4.19-1.23,2.63-1.5,3.93,0,2.89-.26,4.19-.13,2.87-.4,4.16c-.29,1.44-1.61,2.59-1.86,3.85-.3,1.49.63,3.09.39,4.31C9,631.8,8,633,7.8,634.16c-.53,2.67-2.53,2.92-.58,3.62s1.91.42,4,.42,2.07-.4,4.14-.4h4.15c2.07,0,2.07.47,4.15.47s2.07.55,4.14.55,2.08-.4,4.15-.4,2.07,0,4.14,0,2.08.18,4.15.18,2.07-.31,4.14-.31,2.08.57,4.15.57,2.07-.31,4.15-.31,2.07-.47,4.14-.47,2.08-.18,4.15-.18,2.07.94,4.15.94,2.07-.18,4.14-.18,2.07.29,4.15.29,2.07-.63,4.14-.63,2.08.64,4.15.64,2.07-.6,4.15-.6,2.07.18,4.14.18,2.08.3,4.15.3,2.07-.16,4.15-.16,2.07-.26,4.14-.26,2.08.09,4.15.09,2.07.31,4.15.31h4.14c2.08,0,2.08-.73,4.15-.73s2.07.7,4.15.7,2.07-.61,4.14-.61,2.07.61,4.15.61,2.07.15,4.14.15,2.07,0,4.14,0,2.07-.91,4.14-.91,2.07.23,4.15.23,2.07.17,4.14.17,2.08-.67,4.15-.67,2.07.84,4.14.84,2.08-.9,4.15-.9h4.14c2.07,0,2.07.39,4.15.39s2.07.09,4.15.09,2.07.69,4.14.69,2.08-1.25,4.15-1.25,2.07,0,4.14,0,2.08,0,4.15,0,2.07,1,4.15,1,2.07-.55,4.15-.55,2.07.26,4.14.26,2.08-.35,4.15-.35,2.07-.3,4.15-.3,2.07.54,4.15.54,2.07,0,4.14,0,2.08-.3,4.15-.3,2.08.18,4.15.18,2.08.27,4.15.27,2.08,0,4.15,0,2.07-.33,4.15-.33,2.07.88,4.15.88,2.07-.83,4.15-.83,2.07.38,4.15.38,2.07.18,4.15.18,2.07.26,4.14.26,2.08-.13,4.15-.13,2.08-1,4.15-1,2.08.38,4.15.38,2.07,0,4.15,0,2.07-.44,4.15-.44,2.08.7,4.15.7,2.08.4,4.15.4,2.08-.06,4.16-.06,2.07-1,4.15-1,2.07.45,4.15.45,2.08.9,4.15.9,2.08-1.28,4.16-1.28,2.42,1.84,3.69.19-.14-1.63-.66-3.64.16-2.19-.37-4.21-.6-2-1.13-4-.63-2-1.16-4-.83-1.93-1.35-3.94-1.25-1.83-1.77-3.84.59-2.31.06-4.32-1.16-1.84-1.69-3.86-.38-2-.91-4.06-.31-2.07-.84-4.09-.38-2-.91-4.06-.66-2-1.19-4-.13-2.12-.65-4.13-1.72-1.7-2.24-3.71-.16-2.11-.69-4.13-.91-1.91-1.44-3.92.21-2.21-.32-4.22-1.26-1.82-1.79-3.83.22-2.21-.3-4.22-1.12-1.86-1.65-3.88.41-2.25-.11-4.27-1.16-1.85-1.69-3.86-.78-2-1.31-4-.55-2-1.08-4,.14-2.19-.39-4.2-.93-1.9-1.46-3.92-1.05-1.88-1.58-3.89.74-2.34.21-4.36-.8-1.94-1.33-4-.95-1.9-1.48-3.92-.08-2.12-.61-4.14-1.27-1.82-1.79-3.83-.68-2-1.21-4,.68-2.32.15-4.34-1-1.89-1.51-3.9-.14-2.11-.66-4.12-.77-1.95-1.3-4-1.05-1.88-1.57-3.89-.49-2-1-4-.3-2.07-.83-4.08-.09-2.13-.61-4.14-.7-2-1.22-4-.51-2-1-4-.72-2-1.24-4-.63-2-1.16-4-.7-2-1.22-4-.47-2-1-4,0-2.15-.54-4.16-.68-2-1.21-4-1.41-1.78-1.94-3.79.46-2.28-.07-4.29-1.36-1.79-1.88-3.81.3-2.23-.23-4.24-1.33-1.81-1.86-3.82-.32-2.07-.84-4.08-.74-2-1.27-4-.66-2-1.19-4,.56-2.3,0-4.31-1.06-1.88-1.58-3.89-1.12-1.86-1.65-3.88,0-2.16-.48-4.17-.37-2.06-.9-4.08-.2-2.09-.73-4.11-1.36-1.8-1.88-3.81-.84-1.94-1.37-3.95-.37-2.05-.9-4.07-.35-2.06-.88-4.07-.8-1.94-1.32-4-.16-2.11-.69-4.13.42-2.26-.11-4.27-1.71-1.71-2.23-3.72-.65-2-1.17-4,.29-2.24-.23-4.25-.31-2.08-.83-4.09-.27-2.09-.8-4.1-1.11-1.87-1.63-3.88-.26-2.09-.79-4.11S237,326,236.5,324s-1.69-1.71-2.22-3.73"/><path class="cls-8" d="M118.28,479.66c-.44,2-.78,2-1.21,4s-.26,2.08-.7,4.12-.4,2.05-.84,4.09-.06,2.12-.5,4.16-.07,2.11-.51,4.15-1.43,1.83-1.86,3.86,0,2.13-.48,4.17.15,2.16-.29,4.2-.83,2-1.26,4-.49,2-.92,4.07-.78,2-1.22,4-.55,2-1,4.06,0,2.14-.4,4.18-.59,2-1,4-.83,2-1.27,4-.53,2-1,4.06-.24,2.08-.68,4.12-.6,2-1,4-.21,2.09-.64,4.13-.27,2.07-.71,4.12-.07,2.11-.5,4.15-.42,2.05-.85,4.09-.77,2-1.21,4,0,2.14-.43,4.18-.31,2.07-.75,4.11-.69,2-1.13,4-1,1.93-1.4,4-.38,2.06-.82,4.1.27,2.19-.17,4.23-.79,2-1.23,4-1,1.91-1.47,3.95,0,2.15-.4,4.19-.73,2-1.17,4,.15,2.17-.29,4.21-.39,2.06-.83,4.1-1.51,1.81-1.94,3.85,0,2.15-.38,4.19-.6,2-1,4-.17,2.1-.61,4.14S84,640.9,83.59,643s-.63,2-1.07,4-1.18,1.88-1.62,3.93"/><path class="cls-6" d="M179,231c-1.14-1.85-1.57-1.58-2.71-3.43s-.42-2.29-1.56-4.14-1.88-1.39-3-3.24l-2.27-3.7c-1.14-1.85-1.12-1.86-2.26-3.71s-.49-2.25-1.63-4.1-1-1.92-2.18-3.77"/><path class="cls-6" d="M364.94,366c2.12,2.25,1.44,2.89,3.54,5.15,1,1.09,2.33,1.89,2.46,3.3a9.92,9.92,0,0,1-.72,4.24,17.93,17.93,0,0,1-1.87,3.83c-.71,1.07-2.28,1.62-3.29,2.75s-1.85,1.9-2.94,2.92-1.33,2.6-2.47,3.54-2.2,1.66-3.38,2.52-2.41,1.37-3.62,2.18-2.09,1.85-3.32,2.61"/><path class="cls-6" d="M325.7,353a21.78,21.78,0,0,1,.08,4.49c-.07,1.21.33,2.74.18,4.55-.11,1.33-1.32,2.72-1.49,4.41"/><path class="cls-6" d="M336.36,338.73c-1.66,1.44-2.31.7-4,2.14S331,342.58,329.3,344L326,346.91c-1.66,1.44-1.22,1.95-2.89,3.39s-1.52,1.6-3.19,3.05-2.28.73-3.94,2.18"/><path d="M269.37,289.16c0,2.06-1-.87-3.17-2.19-1-.62-2-1.69-3.32-2.48-1.1-.66-2.69-.69-3.95-1.41s-2.4-1.26-3.63-1.95c-1.86-1-.22-1.78,2.09-1.89,1.25-.06,2.75.49,4.15.54,2.24.09,2.54-1.63,4-.12,1.21,1.26.24,1.68.9,3.29a33.18,33.18,0,0,0,1.55,3.17C268.73,287.66,269.38,287.41,269.37,289.16Z"/><path class="cls-6" d="M269.37,289.16c0,2.06-1-.87-3.17-2.19-1-.62-2-1.69-3.32-2.48-1.1-.66-2.69-.69-3.95-1.41s-2.4-1.26-3.63-1.95c-1.86-1-.22-1.78,2.09-1.89,1.25-.06,2.75.49,4.15.54,2.24.09,2.54-1.63,4-.12,1.21,1.26.24,1.68.9,3.29a33.18,33.18,0,0,0,1.55,3.17C268.73,287.66,269.38,287.41,269.37,289.16Z"/><path class="cls-7" d="M189.59,147.33c-1.48-.75-2.79-1.13-3.76-1.62-2.87-1.44-1.68-1.2-3.53-2.06"/><path class="cls-6" d="M226.7,51.89c1.22.71,2.5,1.15,3.61,1.78s2.23,1.6,3.33,2.26,2.15,1.63,3.21,2.4a27.47,27.47,0,0,1,3.24,2.34,24.74,24.74,0,0,1,2.29,3.26c.74,1,2.09,1.74,2.76,3a35.54,35.54,0,0,1,1.76,3.65c.46,1.17.44,2.6.86,4,.36,1.16.16,2.62.43,4.18.21,1.27.67,2.6.83,4.09.13,1.32-.15,2.74-.07,4.2s.37,2.72.41,4.17,1,2.75,1,4.19-.19,2.78-.21,4.2,0,2.79-.06,4.21-1.09,2.74-1.18,4.14.19,2.81.08,4.21-.22,2.79-.35,4.19.37,2.86.22,4.25-.13,2.83-.32,4.21-1.3,2.67-1.51,4,.19,2.91-.06,4.26-1.36,2.63-1.65,4-.54,2.78-.88,4.09-.49,2.83-.9,4.09c-.45,1.41-.5,2.91-1.09,4.1s-2.26,1.94-3,3a19.09,19.09,0,0,1-2.57,3.18c-1.08.93-1.82,2.29-3,2.93s-2.85.27-4.21.63-2.52,1.54-3.94,1.65a30.13,30.13,0,0,1-4.24-.07,36.23,36.23,0,0,1-4.21-.49c-1.35-.28-2.47-1.5-3.83-1.92s-2.56-1-3.87-1.49-3-.21-4.22-.86"/><path class="cls-6" d="M210.22,32a34,34,0,0,0-4.1-.63c-1.15-.15-2.53-.35-4.09-.48-1.25-.11-2.64-.17-4.12-.24-1.28-.07-2.67-.1-4.11-.12s-2.68.79-4.1.82-2.67.28-4.08.36-2.67.18-4.07.31-2.79-.64-4.18-.45-2.71.33-4.08.57-2.62.79-4,1.08-2.53,1.1-3.87,1.46-2.88-.13-4.19.28-2.24,1.89-3.54,2.36-2.48,1.05-3.75,1.59-2.46,1.11-3.7,1.71-2.68.72-3.88,1.39-2.3,1.45-3.47,2.19-2.06,1.79-3.18,2.59-2.95.62-4,1.49-2.1,1.8-3.12,2.73-1.17,2.71-2.14,3.7S127.8,56,126.88,57s-1.66,2.18-2.52,3.27-1.37,2.44-2.17,3.51-1.32,2.45-2.09,3.53-1.6,2.25-2.34,3.35-1.38,2.39-2.08,3.51-2.34,1.82-3,3-1.55,2.34-2.17,3.5-.91,2.67-1.48,3.86-.91,2.64-1.43,3.85-1.49,2.4-2,3.64-.78,2.67-1.19,3.93-1.2,2.54-1.56,3.82,0,2.86-.31,4.16-1.26,2.52-1.57,3.83.16,2.85-.16,4.17-.45,2.7-.82,4-.9,2.58-1.34,3.9-1.21,2.43-1.73,3.73-1.58,2.22-2.18,3.49-1.25,2.33-1.94,3.57-1,2.67-1.66,3.82-1.48,2.37-2.22,3.5-1.72,2.21-2.51,3.3-1.61,2.3-2.43,3.35-1.22,2.66-2.08,3.67-2.38,1.68-3.28,2.64-1.38,2.65-2.31,3.55c-1.08,1.05-2.68,1.38-3.62,2.21-1.2,1.05-2.27,1.91-3.19,2.63-2.11,1.63-3.18,2.28-3.18,2.28l4.14.6c2.07.32,2.08.27,4.14.58s1.94,1.2,4,1.51,2.23-.77,4.3-.45,2,.86,4,1.18,2,.42,4.12.74,2,.82,4.06,1.13,2.25-.85,4.32-.53,1.89,1.46,4,1.78,2.21-.57,4.28-.26,2.1.12,4.16.43,1.94,1.23,4,1.54,2.13-.13,4.2.19,2.15-.24,4.22.08,2,.48,4.11.79,2,.74,4.07,1.06,2,.83,4.06,1.14,2.2-.52,4.27-.2,2.06.39,4.13.7,2.09.15,4.16.46,2.11.06,4.18.38,2,.93,4.05,1.25,2.06.35,4.13.67,2.14-.09,4.21.22,1.91,1.4,4,1.72,2.17-.34,4.25,0"/><path class="cls-6" d="M210.18,32.53c-.11,2.06.33,2.08.22,4.15s-1.05,2-1.16,4.08.57,2.1.46,4.17-.57,2-.68,4.1.29,2.09.18,4.16.37,2.09.26,4.16-.75,2-.86,4.1.32,2.09.21,4.15-.76,2-.87,4.1-.12,2.07-.23,4.14.19,2.08.08,4.15-.57,2.05-.68,4.12"/><path class="cls-7" d="M205.21,39.72c-2-.36-1.58.41-4.13.16-1.14-.12-2.45-1-4-1.09-1.25-.07-2.63.15-4.09.13-1.28,0-2.62.76-4,.8s-2.67-.4-4.07-.3-2.7-.07-4.07.09-2.62.69-4,.91-2.54,1-3.88,1.26-2.64.45-4,.81-2.62.57-3.92,1-2.83.16-4.09.68-2.22,1.68-3.45,2.28-2.65.78-3.83,1.47-1.94,2-3.07,2.76-2.5,1.15-3.56,2-2.17,1.64-3.17,2.59-2.13,1.73-3,2.75-1.57,2.24-2.41,3.33-1,2.57-1.76,3.73-1.55,2.19-2.2,3.4-2,2.08-2.52,3.27-.31,2.82-.75,4.06-1.13,2.49-1.46,3.76.19,2.79,0,4.09-.78,2.59-.89,3.9-.58,2.68-.58,4,.38,2.7.49,4,.71,2.61.92,3.91.45,2.63.76,3.9.51,2.65.9,3.88.52,2.72,1,3.9c.53,1.34,1.12,2.55,1.65,3.66.65,1.38.93,2.77,1.49,3.77a11.1,11.1,0,0,0,2.45,3.13c-1.76-1.11-1.53-.61-3.85-1.59a37.71,37.71,0,0,0-3.94-1.26c-1.25-.36-2.44-1.59-3.88-1.82s-2.81.38-4.24.37-2.83-.51-4.23-.27-2.34,1.77-3.69,2.26a19.89,19.89,0,0,0-3.69,1.63,18.7,18.7,0,0,0-3.45,2.23,20.29,20.29,0,0,0-2.82,3c-.81,1.14-2.15,2-2.75,3.29a24.46,24.46,0,0,0-1.38,4,26,26,0,0,0-.88,4.19c-.14,1.4.83,2.82.93,4.22s-.64,3-.3,4.31,1.74,2.35,2.34,3.63.58,2.88,1.43,4a20.6,20.6,0,0,0,2.67,3.4,22.15,22.15,0,0,0,3.6,2.41c1.21.69,3,.14,4.12.62s2.16,2.13,3.39,2.43a24.32,24.32,0,0,0,4.07.13c1.37.09,2.64-.71,3.91-.84a22.71,22.71,0,0,0,3.79-.76c1.32-.37,3,.39,4.18-.13s2.17-1.77,3.26-2.44,2.53-1.2,3.51-2a35.22,35.22,0,0,0,2.93-2.74c1.72-1.7,1.81-1.16,3-2.76"/><path class="cls-7" d="M184.86,107.14c-1-1.62-.11-2.19-2-3.38-.95-.61-2.39-.66-3.82-.89a9.59,9.59,0,0,0-3.79.09,15,15,0,0,0-3.36,1.79,23.67,23.67,0,0,0-3,2.31c-1.17,1-2.75,1.27-3.55,2.28a16.34,16.34,0,0,0-2.37,3.54,14.62,14.62,0,0,0-.89,4.19,16.58,16.58,0,0,0,0,4.28,19.26,19.26,0,0,0,1.64,3.94c.56,1.35,1.84,2.2,2.58,3.29a17.55,17.55,0,0,0,2.31,3.37c1.13,1,1.83,2.3,2.8,3a29.27,29.27,0,0,0,3.44,2.3,5.32,5.32,0,0,0,4,.54"/><path class="cls-7" d="M166.08,103c1,1.74.65,2,1.66,3.7s1.44,1.49,2.45,3.24.86,1.83,1.87,3.58,1.53,1.44,2.54,3.19,0,2.36,1,4.11,1.09,1.7,2.1,3.45"/><path d="M233.31,114.76c.66.06,1-.85,1.35-1.91a10.79,10.79,0,0,0,1-2.35,20.88,20.88,0,0,1-.35-2.13c0-.65.41-1.35.43-2.09s-.41-1.42-.39-2.11.55-1.47.56-2.1a9.17,9.17,0,0,0-.5-2.09,1.09,1.09,0,0,0-.93-1.19c-.52-.1-.71,0-.95,1a16.71,16.71,0,0,0-.6,2c-.1.66-.48,1.34-.59,2.1s.07,1.47,0,2.17-.54,1.46-.62,2.1c-.12,1-.1,1.77-.14,2.16a14,14,0,0,0,.13,1.71,4.6,4.6,0,0,0,.14,1.73A1.84,1.84,0,0,0,233.31,114.76Z"/><path class="cls-6" d="M233.31,114.76c.66.06,1-.85,1.35-1.91a10.79,10.79,0,0,0,1-2.35,20.88,20.88,0,0,1-.35-2.13c0-.65.41-1.35.43-2.09s-.41-1.42-.39-2.11.55-1.47.56-2.1a9.17,9.17,0,0,0-.5-2.09,1.09,1.09,0,0,0-.93-1.19c-.52-.1-.71,0-.95,1a16.71,16.71,0,0,0-.6,2c-.1.66-.48,1.34-.59,2.1s.07,1.47,0,2.17-.54,1.46-.62,2.1c-.12,1-.1,1.77-.14,2.16a14,14,0,0,0,.13,1.71,4.6,4.6,0,0,0,.14,1.73A1.84,1.84,0,0,0,233.31,114.76Z"/><path class="cls-6" d="M240.74,106.15c-1.86.7-1.79.44-3.74,1.29-1.22.53-2.55,1-3.58,1.61"/><path class="cls-6" d="M248.52,137.8c-1.76-1.18-1.93-.92-3.69-2.1s-1.22-2-3-3.15-2.17-.56-3.93-1.73-1.37-1.77-3.13-2.94-1.82-1.08-3.58-2.26-1.67-1.32-3.43-2.49-1.67-1.74-3.75-2.13-.7,1.76-.79,4.2a35.43,35.43,0,0,0,.4,4.11c.12,1.29-.31,2.82,0,4.21s2,2.18,2.55,3.45.55,2.79,1.42,3.89,2.19,1.58,3.33,2.45a17.54,17.54,0,0,0,3.57,1.81"/><path class="cls-6" d="M239.77,87c-1.9-1-1.3-.32-4.05.16a13.17,13.17,0,0,0-3.91,1.3c-1.12.56-3,.24-4.32,1.23"/><path class="cls-6" d="M187.42,116.68a22.58,22.58,0,0,0,0,4.08c.07,1.14.53,2.48.63,4,.08,1.23-.64,2.65-.54,4.12.09,1.28.88,2.59,1,4,.09,1.29-.32,2.69-.22,4.11s0,2.68.09,4.09.79,2.63.89,4-.52,2.74-.41,4.12,1.47,2.6,1.58,4-.95,2.79-.85,4.17,1,2.66,1.33,4,.18,2.9.75,4.15a29.43,29.43,0,0,0,2.33,3.49,31,31,0,0,0,2.45,3.36,31.34,31.34,0,0,0,3,2.82c1,.92,2.59,1.09,3.72,1.86a27.39,27.39,0,0,0,3.28,2.39,23.54,23.54,0,0,0,3.91,1c1.34.39,2.49,1.39,3.83,1.5a17.89,17.89,0,0,0,4.14,0,14.89,14.89,0,0,0,3.79-1.33c-1.43-.34-2.42-1.34-3.63-1.78-1.38-.5-3-.14-4.15-.78-1.26-.72-1.87-2.18-2.83-3.08a14.8,14.8,0,0,1-2.62-3,17.67,17.67,0,0,1-1.56-3.72,24.8,24.8,0,0,1-1.12-3.91c-.21-1.29-.66-2.6-.77-4s-.52-2.68-.54-4.12.92-2.8.91-4.17-.82-2.79-.82-4.16.7-2.8.7-4.17-.69-2.8-.68-4.18,0-2.8,0-4.17.79-2.79.8-4.16-.66-2.81-.64-4.18-.22-2.81-.19-4.16,1.16-2.79,1.19-4.14-.9-2.85-.86-4.2,0-2.83.07-4.16.9-2.81,1-4.13c.06-1.47.07-2.86.13-4.16.07-1.51,0-2.9.06-4.16.08-1.6-.18-3-.11-4.17.15-2.7.27-2.07.42-4.14"/><path class="cls-7" d="M188.19,49c-2.06.32-1.62-.29-4.17.45-1.12.33-2.31,1.21-3.8,1.76-1.19.43-2.57.71-3.95,1.31-1.19.52-2.51,1-3.82,1.67s-2.6.94-3.85,1.66-2.13,1.78-3.34,2.56-2.29,1.49-3.46,2.32-2,1.88-3.12,2.76-1.81,2.08-2.87,3-2.54,1.26-3.56,2.25-1.48,2.39-2.45,3.42-2.08,1.79-3,2.86-1.59,2.23-2.47,3.34-2.44,1.6-3.27,2.74-1.18,2.54-2,3.71-1.86,2.09-2.59,3.3-1.57,2.29-2.25,3.52-.41,2.9-1,4.16-1.23,2.44-1.83,3.72-1.38,2.39-1.93,3.69-.69,2.73-1.22,4-1.63,2.33-2.16,3.58-1.07,2.57-1.6,3.82-1.56,2.36-2.09,3.6-1.23,2.5-1.76,3.74-.82,2.69-1.35,3.93-1.21,2.51-1.75,3.75-.7,2.74-1.23,4-1.33,2.47-1.86,3.71-.92,2.65-1.45,3.87-1.71,2.32-2.24,3.54-1.09,2.59-1.61,3.81,0,3.07-.53,4.28-2,2.23-2.49,3.43-1,2.64-1.56,3.83c-.59,1.36-.59,2.86-1.1,4-.62,1.39-1.83,2.36-2.32,3.49-.66,1.49-1.1,2.79-1.56,3.83-1.14,2.57-.17,2.18-1,4.06"/><path class="cls-7" d="M190.46,75.89a16.07,16.07,0,0,0-3.82,1.1c-1.11.43-2.45,1-3.91,1.68-1.15.57-2,1.92-3.34,2.7-1.14.68-2.45,1.21-3.69,2.07s-2.15,1.68-3.32,2.6-2,1.92-3.06,2.9-2.92,1-3.95,2-1.34,2.58-2.31,3.67-1.63,2.24-2.54,3.38-2.32,1.73-3.17,2.92-.85,2.79-1.63,4-1.91,2.09-2.64,3.34-1.14,2.55-1.81,3.84-2.18,2-2.8,3.35,0,3.08-.56,4.41-2.34,2.13-2.89,3.41l-1.7,3.94c-.57,1.34-.89,2.76-1.44,4s-1.35,2.57-1.9,3.84-.56,2.91-1.1,4.19-.48,2.95-1,4.22-2,2.31-2.52,3.58-1.38,2.58-1.91,3.84-.29,3.05-.81,4.3-2,2.35-2.51,3.59c-.59,1.41-.49,3-1,4.22-.6,1.44-.67,2.95-1.17,4.15-.61,1.49-1.51,2.65-2,3.8-.65,1.62-1.28,2.88-1.69,3.92-1.27,3.18-1.65,1.68-2.33,3.71"/><path class="cls-6" d="M215.36,40.19a32.25,32.25,0,0,1,3.75.89c1.17.34,2.38,1.14,3.78,1.68a32.92,32.92,0,0,1,3.91,1.35,23.15,23.15,0,0,1,3.73,2,14.42,14.42,0,0,1,3,3.09c.74,1.15.74,2.78.91,4.2a10.2,10.2,0,0,1-.54,4.07,15.64,15.64,0,0,1-1.46,3.89,27.25,27.25,0,0,1-2.3,3.52c-.88,1-2.62,1.32-3.46,2.32s-1.69,2.12-2.54,3.11l-2.59,3c-.9,1.05-.87,2.84-1.71,3.82s-2.35,1.57-3.19,2.54-2,1.84-2.89,2.8-1.31,2.5-2.15,3.45-1.51,2.34-2.34,3.28-2.08,1.87-2.9,2.79c-1,1.11-2.16,1.84-3,2.73-1.06,1.17-1.59,2.5-2.32,3.3a15.61,15.61,0,0,1-2.89,2.65"/><path class="cls-8" d="M202.89,524.2c-.25,2-1.09,1.95-1.34,4s.5,2.14.25,4.18-.79,2-1,4,.24,2.1,0,4.15-.84,2-1.09,4,.41,2.13.16,4.18-1.09,1.94-1.34,4,.81,2.18.56,4.22-1.14,1.94-1.39,4,.47,2.13.22,4.18-.78,2-1,4,.22,2.11,0,4.15-.5,2-.75,4.06-.37,2-.62,4.08-.61,2-.86,4.05.2,2.1-.05,4.15-.27,2-.52,4.09.07,2.08-.18,4.12.21,2.11,0,4.15-1,2-1.24,4,.41,2.13.16,4.17-.55,2-.8,4.06,0,2.07-.28,4.12-1.2,1.93-1.44,4,.24,2.11,0,4.15-.66,2-.91,4-.43,2-.68,4.07.78,2.17.53,4.22-.26,2.05-.51,4.1-.51,2-.76,4.07.18,2.1-.07,4.15"/><path class="cls-6" d="M403.59,26c-1.21,1-2.67.93-3.56,1.65a8.5,8.5,0,0,0-2.68,2.84c-.47.89-.36,2.3-.88,3.79-.36,1-.34,2.33-.75,3.74a30.56,30.56,0,0,0-1.17,3.95c-.2,1.27-.76,2.6-.91,4.09-.14,1.31.25,2.74.16,4.19s-.69,2.7-.74,4.14-.15,2.75-.17,4.17.55,2.76.55,4.18.17,2.76.2,4.16.06,2.77.11,4.17-.73,2.81-.67,4.2.21,2.79.29,4.17.13,2.8.23,4.18,1,2.73,1.1,4.1,0,2.82.14,4.18.41,2.79.57,4.14.6,2.77.78,4.1-.85,3-.63,4.32c.24,1.47,1.32,2.69,1.59,4a37.28,37.28,0,0,0,1.31,4.06c.48,1.47.31,3.09.91,4.28.69,1.38,2.21,2.07,3.05,3.11s1.62,2.45,2.75,3.22a13.33,13.33,0,0,0,3.92,1.58c1.35.41,2.65,1.61,4.11,1.67s2.76-1.33,4.23-1.54,3.05.79,4.47.41,2.78-.82,4.16-1.32,2.59-1.29,3.92-1.87,2.73-1,4-1.62,2.29-1.85,3.55-2.53"/><path class="cls-6" d="M414,79.1c.08-1.12-.19-2.74-.17-4.56,0-1.45-.2-3-.19-4.56s1.13-3.19,1.12-4.57c0-2.64-.14-4.55-.14-4.55"/><path class="cls-6" d="M408.78,58.86c-2.22-.08-2.2-.74-4.42-.82s-2.21-.51-4.43-.59-2.26.73-4.49.65-2.23.12-4.46,0-2.2-.76-4.43-.84a16.81,16.81,0,0,1,.73,4.52c0,1.26-.65,2.72-.62,4.25s0,2.83,0,4.24.67,2.93.68,4.24c0,1.75,0,3.26,0,4.24,0,1.63-.27,3.23.89,4a10.33,10.33,0,0,0,4.16,1.09,33.23,33.23,0,0,0,4.14,0c1.26,0,2.63-.27,4.09-.39,1.8-.15,3.09-.29,4.19-.41,1.43-.17,2.51-.72,4.09-1"/><path class="cls-6" d="M409.39,3.82c1.9,1.25,2.59.19,4.49,1.44s1.33,2.17,3.47,3c1.91.69,1.17-1,3.59-1.86,1.09-.38,2.43-.79,3.92-1.23,1.19-.35,2.59-.48,4-.83,1.25-.31,2.64-.36,4-.64s2.52-1.21,3.91-1.42,2.81.81,4.2.67,2.64-.52,4-.58,2.68-.19,4.07-.18,2.72-.41,4.1-.32,2.6,1.1,4,1.28,2.72,0,4.07.28,2.54.9,3.86,1.27,2.74.27,4,.74,2.72.53,4,1.1,2.23,1.61,3.44,2.28,2.09,1.73,3.24,2.49,2.32,1.35,3.41,2.2,2.72,1.35,3.77,2.32,1.94,2.25,2.9,3.31,1.81,2.33,2.67,3.46,2.07,2.18,2.84,3.36,1.15,2.78,1.82,4,1.44,2.61,2,3.87c.65,1.42.67,3,1.14,4.23.58,1.55,1.25,2.84,1.6,4a35.5,35.5,0,0,0,1.43,4.08c2.26,1,2.18,1.14,4.44,2.1s2.58.18,4.84,1.13"/><path class="cls-6" d="M393,14.46c1.67.87,2.07.1,3.74,1s1.89.45,3.56,1.32,1.22,1.74,2.89,2.61"/><path class="cls-6" d="M401.48,6.87c1.47,1.07,1.22,1.41,2.7,2.48s1.59.9,3.07,2,1.26,1.37,2.74,2.44"/><path class="cls-6" d="M389,21.07c1.08.94,1.81,2.25,2.85,3.16s2.4,1.57,3.45,2.46,1.63,2.47,2.7,3.35,2.5,1.43,3.58,2.29S403.87,34,405,34.78s1.78,2.38,2.91,3.17,2.68,1.11,3.85,1.86,2.05,2.11,3.26,2.79,2.67,1,3.92,1.66,2.82.58,4.13,1.1,2.44,1.46,3.79,1.89,2.59,1.22,4,1.55,2.95-.57,4.36-.34,2.63,1.33,4.06,1.46,2.77.61,4.22.65,2.79-.88,4.23-.92"/><path class="cls-6" d="M431.38,65.8c1.07-2,1.49-1.29,3.17-3.33a26,26,0,0,1,3-3.36c1.07-.94,2.76-1.07,4.11-1.82s2.35-1.78,3.85-2.14a15.11,15.11,0,0,1,4.4-.24,16.39,16.39,0,0,1,4.29.88,10.19,10.19,0,0,1,3.5,1.91,13.11,13.11,0,0,1,3,2.78,18,18,0,0,1,1.4,3.88,20.3,20.3,0,0,1,1.38,3.9,23,23,0,0,1,.08,4.15,22.66,22.66,0,0,1-.52,4.1,21.14,21.14,0,0,1-.94,4.07A19,19,0,0,1,459.69,84c-.8,1.12-1.2,2.7-2.27,3.61a17.36,17.36,0,0,1-3.8,1.92,17.77,17.77,0,0,1-4,1.37,20.66,20.66,0,0,1-4.17.9"/><path class="cls-6" d="M445.21,79.51c.9-1.7.56-1.88,1.46-3.59s.92-1.7,1.82-3.4.41-2,1.31-3.68,1.15-1.57,2.05-3.28,1.75-1.27,2.65-3,.27-2.05,1.17-3.76,1-1.66,1.91-3.37"/><path class="cls-6" d="M483.39,106.78c-1.35-1.34-1.57-1.11-2.92-2.45s-2.34-1-3-2.77c-.74-2.12,1.49-1.81,3.51-3.63,1-.87,2.5-1.43,3.68-2.59,1-1,2.26-1.89,3.31-3s1.52-2.61,2.47-3.78,2.19-2.1,3-3.33a31.67,31.67,0,0,0,2.28-3.86,32.42,32.42,0,0,0,1.05-3.91A36,36,0,0,0,498,73.61a38.14,38.14,0,0,0,.7-4,38.31,38.31,0,0,0,.13-4c.06-2.48-1.65-4.29.27-3.67a5.71,5.71,0,0,1,3,1.71c1.32,1.18,1,1.56,2.3,2.74s1.53.94,2.85,2.11"/><path class="cls-6" d="M461.45,107.34c1.76,1.57,2.09,1.19,3.86,2.76s1.94,1.37,3.7,2.94"/><path class="cls-6" d="M475.43,110.23c-1.47-1.27-1.38-1.38-2.85-2.65s-1.34-1.43-2.8-2.7"/><path class="cls-6" d="M424.44,71.19c.12-2,.06-2,.17-4.08s1-2,1.07-4,.06-2,.17-4.08-.52-2.08-.4-4.13,0-2,.15-4.09"/><path d="M437.27,117.84c-.17-2.37,2.13-.81,4.51-2.16,1.25-.72,2.46-1.93,3.93-2.7s2.73-1.89,4.08-2.51c1.94-.89,3.51.59,3.89,2.23a5.56,5.56,0,0,1-.77,4.78c-.65.84-2.16,1.41-3,2.6-.72,1-1.13,2.36-1.86,3.44s-1.93,2-2.58,2.94c-1.26,1.88,0,4.42-1.38,3.11-1.68-1.53-1-1.8-2.08-3.83s-1.45-1.75-2.79-3.59S437.42,120.1,437.27,117.84Z"/><path class="cls-6" d="M437.27,117.84c-.17-2.37,2.13-.81,4.51-2.16,1.25-.72,2.46-1.93,3.93-2.7s2.73-1.89,4.08-2.51c1.94-.89,3.51.59,3.89,2.23a5.56,5.56,0,0,1-.77,4.78c-.65.84-2.16,1.41-3,2.6-.72,1-1.13,2.36-1.86,3.44s-1.93,2-2.58,2.94c-1.26,1.88,0,4.42-1.38,3.11-1.68-1.53-1-1.8-2.08-3.83s-1.45-1.75-2.79-3.59S437.42,120.1,437.27,117.84Z"/><path class="cls-6" d="M387,100.19c2-.61,2.3.33,4.33-.27s1.85-1.21,3.87-1.82,2.2,0,4.22-.65,2-.86,4-1.46,2-.82,4-1.43,2.2,0,4.23-.66,1.88-2,4-1.74-.69,1.72-1.32,4.08c-.31,1.16.22,2.8-.35,4.19a29.29,29.29,0,0,1-2.3,3.47,22.18,22.18,0,0,1-2.63,3.1,16.93,16.93,0,0,1-3.17,2.43,15.25,15.25,0,0,1-3.54,1.69c-1.22.45-2.29,1.46-3.74,1.64"/><path class="cls-6" d="M391.43,44.2c2-.79,1.5-1.12,4.18-.31,1.1.34,2.08,1.49,3.54,2.46,1,.7,2.49,1.12,3.68,2.26"/><path class="cls-6" d="M499.44,53.64c1.71.92,1.69,1,3.39,1.88s2,.37,3.72,1.3,1.36,1.56,3.07,2.48"/><path class="cls-6" d="M447.09,141.92c-.59-2,.08-2.18-.51-4.16s-1.1-1.84-1.68-3.82-2.53-2.29-1.77-4.22,2.69-.09,4.43-1.06,1.52-1.38,3.26-2.34l3.48-1.93c1.75-1,1.91-.66,3.66-1.63s1.53-1.34,3.27-2.3,1.46-1.49,3.2-2.45,2.21-.12,3.95-1.08,1.64-1.15,3.39-2.12,1.6-1.23,3.35-2.19,1.76-3,3.67-2.42.29,2.52,1.19,4.3,1,1.74,1.89,3.52,1.43,1.51,2.33,3.29,1.05,1.71,1.95,3.49.52,1.93,1.84,3.43,1.39.25,3.95,1c1.18.36,2.26,1.75,3.78,2.29,1.27.44,3-.2,4.46.37s2.2,2,3.55,2.67,2.95.49,4.23,1.19,2.28,1.8,3.5,2.59,2.41,1.58,3.54,2.46a38.82,38.82,0,0,1,3.36,2.73,30.56,30.56,0,0,1,3,3.17"/><path class="cls-6" d="M480.93,131.89a11.72,11.72,0,0,0-3.31,1c-1.06.44-2.29,1-3.72,1.64-1.16.48-2.18,1.56-3.53,2.12l-3.77,1.57c-1.2.5-2.43,1.11-3.72,1.65s-2.36,1.32-3.64,1.86-2.82.23-4.1.77-2.18,1.77-3.45,2.3-2.92.06-4.18.58-2.42,1.26-3.67,1.79-2.14,2-3.39,2.47-2.64.77-3.88,1.29-2.82.38-4.05.9-2.08,2.18-3.3,2.69-3,0-4.22.5-2.5,1.23-3.69,1.74c-1.35.57-2.3,1.82-3.45,2.32-1.41.6-3.11.12-4.17.58-1.34.59-2.65,1.28-3.9,1.94s-2,2.29-3.2,3.06A39.06,39.06,0,0,0,403,167a34.44,34.44,0,0,0-3.51,2.58,30.56,30.56,0,0,0-2.42,3.6c-.81,1.15-2.15,2.07-2.82,3.38s-.13,3-.62,4.42-1.94,2.38-2.27,3.83-.57,2.81-.77,4.29,1,2.91,1,4.4-.59,2.77-.57,4.26-.67,2.86-.56,4.34c.09,1.29,1.26,2.56,1.37,4s-.75,2.72-.64,4.12.07,2.69.17,4.07,1.31,2.6,1.42,4,.18,2.69.28,4.06-.7,2.77-.6,4.13.35,2.69.46,4.05,1.09,2.64,1.19,4-.65,2.78-.55,4.13.78,2.67.89,4-.26,2.76-.15,4.1-.34,2.78-.23,4.11.6,2.71.7,4,1.17,2.67,1.27,4-1.07,2.87-1,4.17.27,2.77.37,4c.12,1.46.62,2.79.72,4,.13,1.55.88,2.86,1,4,.21,2.58.34,2-.62,3.78s-.5,2.15-1.84,3.79-1.11,1.82-2.44,3.46-1.89,1.2-3.22,2.84-1.54,1.48-2.87,3.12-1.13,1.81-2.46,3.46-1.62,1.41-2.95,3.06-1,1.95-2.28,3.6-1,1.89-2.36,3.54-1.93,1.16-3.26,2.81-1.29,1.68-2.62,3.32-.75,2.12-2.09,3.77-1.1,1.83-2.43,3.48-2.26.9-3.59,2.55-1.3,1.67-2.64,3.31-.69,2.16-2,3.81-1.49,1.52-2.82,3.17-1.19,1.77-2.53,3.42-2.32.95-2.26,3.08.83,1.45,2.26,2.94,1.7,1.24,3.14,2.72.94,2,2.38,3.45,1.69,1.25,3.13,2.74,1.81,1.13,3.24,2.62,1.37,1.56,2.8,3,1.31,1.62,2.75,3.11"/><path class="cls-6" d="M441.88,182.75c.17,2.1-.21,1.56,0,4.22.1,1.18,1.07,2.52,1.2,4.12.11,1.28.55,2.66.67,4.17.11,1.32.06,2.73.18,4.2s0,2.76.16,4.21.5,2.73.61,4.17-.17,2.8-.06,4.22-.75,2.85-.64,4.27,1.43,2.69,1.54,4.1.33,2.78.43,4.19-.64,2.86-.54,4.26,0,2.82.08,4.22-.06,2.82,0,4.22.8,2.77.9,4.15-.09,2.85,0,4.22,0,2.85.11,4.22S448,252.68,448,254s-1.19,2.93-1.12,4.28,1.43,2.81,1.49,4.13-.06,2.82,0,4.19.13,2.82.23,4.18-.23,2.85-.13,4.21.83,2.78.91,4.15-.82,2.86-.78,4.23.39,2.8.36,4.17.15,2.82,0,4.19-.77,2.7-1,4.06a35.42,35.42,0,0,1-1,4c-.44,1.3-.08,3-.7,4.25s-2.09,2-2.88,3.21a35.31,35.31,0,0,1-2.39,3.41c-.85,1-2.13,1.69-3.16,2.73s-1.12,2.8-2.22,3.76-2.29,1.55-3.45,2.44-2.48,1.33-3.62,2.2-2.14,1.79-3.27,2.67-2,2-3.09,2.9-2.42,1.45-3.54,2.33-2.37,1.52-3.49,2.39-2,2-3.1,2.89-2.2,1.76-3.3,2.63-2.34,1.6-3.44,2.47-2.24,1.72-3.33,2.59-2.07,2-3.16,2.82-2.29,1.7-3.37,2.56-2.42,1.54-3.49,2.39-1.75,2.42-2.8,3.26-2.82,1.11-3.86,1.94-2.26,1.88-3.26,2.69c-1.26,1-2.09,2.23-3,3a40.34,40.34,0,0,1-3.43,2.52"/><path class="cls-6" d="M442.29,182.37c-1.74-1.32-1.83-1.19-3.57-2.51s-2.29-.59-4-1.91-1.12-2.12-2.85-3.44-2.26-.64-4-2-1.21-2-2.94-3.32-2.25-.65-4-2-1.61-1.49-3.35-2.81-1.86-1.15-3.6-2.47-1.83-1.21-3.56-2.53-1.07-2.21-2.81-3.53"/><path class="cls-6" d="M528.86,160.74c.37,2,.54,2,.91,4s.08,2.08.45,4.11,1,1.91,1.36,3.93-.27,2.15.1,4.17,1,1.92,1.33,3.95.2,2.06.57,4.08.06,2.09.43,4.12.53,2,.89,4,.63,2,1,4,.28,2,.65,4.07.06,2.09.42,4.11.38,2,.75,4.06,1.08,1.9,1.45,3.93-.33,2.15,0,4.18,1,1.92,1.34,3.95-.23,2.13.14,4.16.22,2,.59,4.08.35,2,.72,4.07,1.26,1.86,1.63,3.89.14,2.07.51,4.1.2,2.06.56,4.09,1,1.91,1.41,3.94-.47,2.18-.1,4.2,1.26,1.87,1.63,3.9.36,2,.73,4.06,0,2.1.36,4.13.28,2,.65,4.07-.32,2.16,0,4.19,1.6,1.8,2,3.83.42,2,.78,4,.41,2,.78,4.06-.57,2.2-.2,4.23.91,1.93,1.28,4,.1,2.08.47,4.1.72,2,1.09,4,.66,2,1,4-.16,2.13.21,4.16.39,2,.76,4,.66,2,1,4,.19,2.06.56,4.1.1,2.08.47,4.11.32,2,.69,4.07.69,2,1.06,4-.49,2.19-.12,4.22,1.18,1.88,1.55,3.91,0,2.11.36,4.14,2,2.28.64,3.85-1.88-.37-4-.37-2.11.13-4.22.13S553.5,352,551.39,352s-2.11-.38-4.22-.38-2.12,0-4.23,0-2.11.44-4.23.44-2.11-.7-4.22-.7-2.12-.4-4.23-.4-2.11.05-4.23.05-2.11,1-4.22,1-2.12-.45-4.23-.45-2.11-.9-4.23-.9-2.11,1.28-4.22,1.28-2.12,0-4.23,0-2.11-.51-4.22-.51-2.12-.71-4.23-.71-2.11.08-4.23.08-2.11.11-4.22.11-2.12.32-4.23.32-2.12.74-4.23.74-2.12-1.16-4.23-1.16-2.11.66-4.23.66-2.11-.14-4.23-.14-2.11-.23-4.23-.23-2.11-.14-4.23-.14-2.12.14-4.24.14-2,.27-4-.38c-1.86-.6-1.2-.73-1.86-3-.32-1.11-.34-2.5-.73-3.87-.35-1.21-1.11-2.38-1.47-3.66s0-2.77-.33-4c-.39-1.39-1.47-2.49-1.75-3.59-.38-1.48-.19-2.84-.8-3.62-.95-1.22-2.14-1.08-3.25-.78s-2.55.4-3.3,1.68c-.54.93-.39,2.4-.62,3.77a33.55,33.55,0,0,1-.91,4.59c-.43,1.41-.91,3-1.42,4.45s-1.72,2.84-2.21,4.16a26.38,26.38,0,0,0-1.22,4.45"/><path class="cls-6" d="M476,212.75c.38-2,.82-1.88,1.2-3.85s0-2,.38-4,.39-2,.77-3.93.84-1.88,1.22-3.85.92-1.87,1.3-3.84,0-2,.38-4,.35-2,.73-3.95.55-1.93.93-3.9.08-2,.46-4,.95-1.86,1.33-3.84.07-2,.46-4"/><path d="M397.18,279.06c1.23,2,.48-1.72,2.08-4,.77-1.12,2.23-2,3.21-3.44.85-1.22,2.14-2.24,3.07-3.55s1.25-2.94,2.15-4.19c1.26-1.75-.73-1.77-3.26-.67-1.35.58-2.66,1.91-4.07,2.64-2.3,1.2-4-.24-4.8,2-.59,1.76.71,2,.86,3.89s.83,1.86.76,3.72S396.2,277.47,397.18,279.06Z"/><path class="cls-6" d="M397.18,279.06c1.23,2,.48-1.72,2.08-4,.77-1.12,2.23-2,3.21-3.44.85-1.22,2.14-2.24,3.07-3.55s1.25-2.94,2.15-4.19c1.26-1.75-.73-1.77-3.26-.67-1.35.58-2.66,1.91-4.07,2.64-2.3,1.2-4-.24-4.8,2-.59,1.76.71,2,.86,3.89s.83,1.86.76,3.72S396.2,277.47,397.18,279.06Z"/><path class="cls-9" d="M485.28,373.27c.3,1.5-.22,1,.21,3.09.17.82.66,1.77.91,2.95.19.9,1.09,1.75,1.32,2.87.2.92-.53,2.12-.3,3.21s.45,1.93.68,3,.71,1.9.94,2.95.9,1.86,1.13,2.9-.32,2.13-.09,3.17,1.14,1.82,1.37,2.85.63,1.93.86,3-.08,2.09.15,3.12.24,2,.47,3,.63,1.94.86,3,.17,2,.4,3.07.8,1.9,1,2.92.74,1.91,1,2.93-.11,2.11.12,3.13.48,2,.71,3,1,1.86,1.23,2.87.66,1.94.89,2.95-.41,2.18-.18,3.19.48,2,.71,3,1.05,1.85,1.28,2.86.31,2,.54,3,.59,2,.83,3,.7,1.93.93,2.94,0,2.09.27,3.1.73,1.92,1,2.94,0,2.1.2,3.11.72,1.93,1,2.94.84,1.91,1.07,2.92.39,2,.63,3,.34,2.06.58,3.06.74,2,1,3,.23,2.09.49,3.09.13,2.11.4,3.11,1,1.89,1.24,2.89.55,2,.83,3-.09,2.2.2,3.19,1.06,1.86,1.36,2.84l.93,3c.31,1,.39,2.06.71,3s1.1,1.83,1.43,2.81.45,2,.79,3,1,1.83,1.38,2.81,0,2.19.36,3.17,1.36,1.71,1.72,2.69.08,2.17.44,3.15,1.09,1.8,1.46,2.77.36,2.08.74,3.06,1.35,1.69,1.73,2.66.54,2,.92,3,.29,2.11.67,3.08,1.14,1.77,1.53,2.74,1.21,1.73,1.6,2.7-.17,2.3.23,3.27,1.1,1.77,1.5,2.74.78,1.91,1.18,2.88.54,2,.93,3,1.09,1.79,1.48,2.76,1.19,1.74,1.59,2.72.11,2.18.51,3.15.92,1.85,1.32,2.82,1,1.83,1.38,2.8,1.12,1.77,1.51,2.75,0,2.2.44,3.17.84,1.89,1.23,2.87,1.17,1.76,1.56,2.74a11.6,11.6,0,0,1,.82,3.09,18.1,18.1,0,0,1,.05,3.21c-.08,1-.25,2.09-.41,3.15s-1,2-1.17,3,.72,2.13.73,3.2-.67,2.14-.47,3.2,1.09,1.82,1.51,2.84.5,2.08.9,3,.83,1.94,1.22,2.88.92,1.92,1.31,2.86.88,1.93,1.27,2.87.3,2.18.68,3.1,1.56,1.68,1.94,2.59,0,2.36.34,3.26,1,1.94,1.38,2.81c.47,1.12.83,2.11,1.16,2.92a19.62,19.62,0,0,0,1.56,3c1.49,0,1.49-.22,3-.22s1.49-.09,3-.09,1.49,0,3,0,1.49-.47,3-.47,1.49.54,3,.54,1.48.17,3,.17,1.49-.4,3-.4,1.49.49,3,.49,1.49-.44,3-.44,1.49-.36,3-.36,1.49-.08,3-.08"/><path class="cls-9" d="M546.16,309c.22,1.54.33,1,.65,3.05.13.84.68,1.8.87,3,.14.91.27,1.94.45,3.07.15.95.14,2,.31,3.1s0,2,.16,3.12.45,2,.63,3.05.31,2,.48,3.07.48,2,.65,3,.42,2,.59,3.06.46,2,.64,3,.29,2,.47,3.08,0,2.08.13,3.13.45,2,.63,3,1,1.91,1.19,2.95-.4,2.15-.22,3.19,1,1.92,1.16,3-.29,2.13-.11,3.17,1,1.92,1.15,3,.19,2,.37,3.08.51,2,.69,3,.45,2,.63,3-.46,2.18-.28,3.21.76,2,.94,3,.81,1.95,1,3-.07,2.11.11,3.14.24,2.05.42,3.09.12,2.07.3,3.1,1,1.93,1.17,3,.6,2,.79,3,.24,2.06.43,3.09.23,2.06.42,3.09.56,2,.71,3,0,2.08.15,3.1-.46,2.12-.35,3.15,1.12,2,1.21,3,.27,2.05.35,3.07-.5,2.1-.44,3.13-.06,2.05,0,3.08-.12,2.06-.09,3.09.51,2,.53,3.06-.17,2.06-.16,3.09-.1,2.05-.1,3.08.9,2.06.89,3.09-1,2.05-1,3.08.93,2.07.92,3.1-.19,2.06-.2,3.08-.09,2.07-.1,3.09-.37,2.06-.39,3.08.44,2.07.43,3.09-.75,2.06-.76,3.08.24,2.06.24,3.08.2,2.07.21,3.08-.3,2.08-.27,3.1.08,2.07.12,3.08.8,2,.86,3-.54,2.12-.45,3.12.26,2.06.38,3.07-.12,2.11,0,3.11,1.25,1.89,1.45,2.87.22,2.06.47,3,.23,2.09.55,3,.77,1.93,1.17,2.86a28.57,28.57,0,0,0,1.62,2.61c.51.93.8,2,1.3,2.87s.85,1.94,1.35,2.85,1.24,1.72,1.73,2.63,1,1.85,1.5,2.77.85,1.92,1.32,2.85.93,1.88,1.39,2.81,1.1,1.8,1.54,2.74.84,1.93,1.27,2.88.65,2,1.06,3,1.37,1.7,1.76,2.67.15,2.19.51,3.17.76,2,1.1,2.94,1,1.88,1.28,2.88.53,2,.81,3,.75,2,1,3,.44,2,.66,3.07.57,2,.76,3.06.11,2.1.26,3.14.55,2,.68,3.09-.36,2.13-.26,3.19.16,2.1.25,3.15.9,2,1,3.09-.33,2.15-.25,3.19-.12,2.13,0,3.18.13,2.11.21,3.16.92,2.06,1,3.1-.39,2.15-.32,3.19.74,2.08.81,3.12-.8,2.18-.74,3.22.18,2.12.24,3.16.57,2.09.62,3.13.11,2.12.16,3.16.18,2.12.22,3.15.34,2.12.38,3.15-.55,2.16-.51,3.19.68,2.11.72,3.13-.71,2.18-.68,3.19.25,2.16.28,3.15.79,2.17.82,3.13c0,1.21-.16,2.28-.14,3.16.05,2-.51,1.59-.48,3.17"/><path class="cls-9" d="M414.93,346.23c-.22,2-.22,2-.45,3.93s1,2.11.83,4.08-.7,1.91-.92,3.87-.94,1.89-1.17,3.85.8,2.08.57,4.05-1.12,1.86-1.34,3.82-.35,1.95-.57,3.92.82,2.09.59,4.05-.24,2-.47,3.93-1.09,1.86-1.32,3.83-.09,2-.32,3.94.61,2.06.38,4-1.05,1.87-1.28,3.83.31,2,.09,4-.68,1.91-.9,3.87-.76,1.91-1,3.87.13,2-.1,4,.67,2.07.45,4-1.46,1.82-1.68,3.79-.19,2-.41,3.93.14,2-.08,4,.38,2,.16,4-1.2,1.85-1.42,3.81.69,2.07.46,4,0,2-.19,4-.9,1.88-1.13,3.85-.48,1.93-.7,3.9,0,2-.2,3.95-.59,1.92-.81,3.89.24,2,0,4,.14,2-.08,4S401,470,400.78,472s-.18,2-.4,3.93.48,2.05.26,4,.05,2-.17,4-1.35,1.84-1.58,3.8-.19,2-.42,3.94.55,2.05.33,4-.43,1.94-.65,3.9,0,2-.27,3.95.09,2-.13,4-.79,1.9-1,3.87.13,2-.1,4-.86,1.89-1.09,3.86.11,2-.11,4,.27,2,0,4-.32,2-.54,3.92-.4,1.94-.62,3.91.09,2-.13,4-.59,1.92-.82,3.89-.74,1.91-1,3.88.33,2,.11,4-.24,2-.47,3.93-1.11,1.87-1.33,3.83.39,2,.16,4-.22,2-.45,3.93-.54,1.93-.77,3.9.39,2,.16,4-.5,1.93-.72,3.9.25,2,0,4-1.15,1.86-1.37,3.82.65,2.07.43,4-1.09,1.87-1.31,3.83.26,2,0,4-.74,1.9-1,3.87.6,2.07.37,4-.51,1.94-.74,3.91-.88,1.89-1.1,3.86.28,2,0,4,.39,2,.16,4-2.88,2.82-1.58,4.32,2.46-.22,4.4-.22h3.89c2,0,2,.32,3.89.32s1.95-.41,3.89-.41,1.95-.57,3.89-.57,1.95.91,3.9.91,1.94-.2,3.89-.2,1.95-.29,3.89-.29,1.95-.49,3.9-.49,1.94,1,3.89,1,1.95-.1,3.89-.1,1.95-.56,3.9-.56,1.95-.15,3.9-.15,1.95-.09,3.9-.09a14.17,14.17,0,0,1,.44-3.57c.23-1.09,1.45-2.2,1.77-3.69.26-1.19-.59-2.74-.28-4.15.26-1.22,1.51-2.31,1.82-3.68s-.23-2.71.07-4.06,1-2.46,1.3-3.8.55-2.56.86-3.89.45-2.6.76-3.92.5-2.59.81-3.91,1.31-2.4,1.62-3.71-.38-2.81-.06-4.12,1.78-2.29,2.1-3.6.39-2.63.71-3.93.7-2.56,1-3.86.53-2.6.86-3.89.38-2.64.71-3.94.55-2.6.89-3.89.71-2.57,1.05-3.86.1-2.73.45-4,1.36-2.4,1.71-3.68.91-2.6,1.19-3.84.08-2.77.3-4,1-2.61,1.19-3.88-.3-2.75-.25-4.05-.39-2.66-.42-4-.2-2.62-.3-4,.7-2.71.54-4.07-.91-2.52-1.09-3.89.2-2.67,0-4-.6-2.55-.79-3.93-.55-2.57-.72-3.95.26-2.72.2-4-.6-2.67-.56-4,.83-2.6,1-3.89-.6-2.78-.35-4.06,1-2.5,1.34-3.78.93-2.47,1.32-3.74,1-2.42,1.44-3.69.95-2.44,1.39-3.71.19-2.7.62-4,.67-2.53,1.08-3.82.34-2.61.73-3.91,1.6-2.26,1.95-3.57.25-2.63.56-3.95.45-2.63.74-3.89,1.11-2.47,1.4-3.74.16-2.69.45-3.95.2-2.68.48-3.94,1.32-2.43,1.61-3.69,0-2.73.27-4,1.43-2.41,1.71-3.67.2-2.69.48-3.94,1-2.5,1.33-3.75.63-2.6.91-3.85.46-2.64.74-3.89-.21-2.79.07-4,1.46-2.42,1.74-3.65,0-2.76.26-4,.69-2.61,1-3.84.42-2.68.69-3.89c.31-1.38.44-2.69.71-3.89.31-1.4.53-2.7.79-3.87.32-1.45,1.38-2.56,1.63-3.68.34-1.57.55-2.85.77-3.87.64-2.94-.16-2.05.22-4"/><path class="cls-6" d="M326.7,368.25c-.79,1-2.26,1.84-2.7,3.39-.38,1.31,0,2.86,0,4.38s-.47,2.92-.14,4.37a16.92,16.92,0,0,0,1.78,4,16,16,0,0,0,2.73,3.34c1,1,1.74,2.35,3.06,3.15,1.17.7,2.72.83,4.19,1.34,1.29.44,2.53,1.52,4.07,1.78,1.34.23,2.9-.6,4.45-.53"/><path class="cls-6" d="M364.37,360.94c0,2.14-.72,1.93-1.2,4.21a13.82,13.82,0,0,1-1.61,3.87c-.72,1.28-1.34,2.69-2.71,3.18-1.13.4-2.42-.21-4.11-.77a13.58,13.58,0,0,1-4-1.4"/><path class="cls-6" d="M329.05,373.88c1.88.65,1.77.27,4.27-.33a15.59,15.59,0,0,0,3.84-1.44,24.62,24.62,0,0,0,3.32-2.35,39.55,39.55,0,0,0,2.81-2.9c.87-.87,1.68-1.94,2.6-3"/><path class="cls-6" d="M331.61,381.86c1.92,0,1.33-.8,3.66-1.46a18.84,18.84,0,0,0,3.7-.91,29.27,29.27,0,0,0,3.33-1.88c1-.65,1.93-1.51,3-2.38s1.78-1.68,2.74-2.64,2.28-1.3,3.15-2.34"/><path class="cls-6" d="M335.82,387.32a10.24,10.24,0,0,0,4.38-.24c1-.29,2.05-1.27,3.38-1.89a29.7,29.7,0,0,0,3.24-2,35.78,35.78,0,0,0,3-2.31c.92-.77,1.85-1.57,2.81-2.54s2.46-1.13,3.33-2.17"/><path class="cls-6" d="M344.15,394.18c2.17-.5,1.73-.07,4.27-1.51,1.07-.6,2.11-1.78,3.5-2.82,1.05-.79,1.81-2.17,3-3.27,1-.92,2.74-1.26,3.84-2.42,1-1,1.79-2.27,2.8-3.48"/><path class="cls-6" d="M355.78,364.18c-1.54-1.58-2-.86-3-3.27a16.72,16.72,0,0,1-.83-4.42c-.15-1.33.55-2.73.82-4.34.22-1.32.08-2.83.7-4.32.52-1.25.65-2.9,1.5-4.26"/><path class="cls-6" d="M333.69,340.63c1.49,1.25,1.91.75,3.41,2s1.31,1.48,2.81,2.73,1.82.87,3.32,2.12.88,2,2.38,3.25,2.09.54,3.6,1.8.91,2,2.42,3.21"/><path class="cls-6" d="M360.85,381c-1.54-1.66-1.26-1.93-2.8-3.59s-1.15-2-2.7-3.71-2-1.26-3.52-2.93-1.54-1.68-3.09-3.35-.86-2.3-2.41-4"/><path class="cls-6" d="M349.19,338.54c-1.2,1.44-.81,1.77-2,3.21s-1.28,1.38-2.48,2.82-1.34,1.33-2.54,2.78"/><path d="M567.7,491.94c-.8-2-.52-.24-2.46-3.75-.55-1-1.81-1.95-2.69-3.52-.62-1.11-.44-2.88-1.25-4.33-.65-1.15-2.22-1.94-3-3.34-.66-1.18-1.63-2.32-2.4-3.69s-.25-3-.06-4.51a15.26,15.26,0,0,1,1.48-4,29.25,29.25,0,0,1,1.83-3.93,40.32,40.32,0,0,1,2.8-3.34,24.58,24.58,0,0,0,2.38-3.65c-.14,1.2.19,2.65.18,4.27,0,1.32-.75,2.77-.7,4.28s.18,2.82.27,4.28.94,2.78,1.06,4.21.54,2.82.67,4.23-.9,3-.75,4.38.35,2.93.5,4.25c.19,1.59,1.17,2.93,1.32,4.15A21.74,21.74,0,0,0,567.7,491.94Z"/><path class="cls-6" d="M567.7,491.94c-.8-2-.52-.24-2.46-3.75-.55-1-1.81-1.95-2.69-3.52-.62-1.11-.44-2.88-1.25-4.33-.65-1.15-2.22-1.94-3-3.34-.66-1.18-1.63-2.32-2.4-3.69s-.25-3-.06-4.51a15.26,15.26,0,0,1,1.48-4,29.25,29.25,0,0,1,1.83-3.93,40.32,40.32,0,0,1,2.8-3.34,24.58,24.58,0,0,0,2.38-3.65c-.14,1.2.19,2.65.18,4.27,0,1.32-.75,2.77-.7,4.28s.18,2.82.27,4.28.94,2.78,1.06,4.21.54,2.82.67,4.23-.9,3-.75,4.38.35,2.93.5,4.25c.19,1.59,1.17,2.93,1.32,4.15A21.74,21.74,0,0,0,567.7,491.94Z"/><path d="M529.76,539.18c-.46-2,1.3.69,3.5,2.74.83.76,1.51,2.08,2.75,3.21.92.83,2.22,1.47,3.39,2.51,1,.86,1.56,2.29,2.7,3.3,1,.87,2.81.92,3.93,1.9s.7,2.66,1.08,4.18a16.69,16.69,0,0,1,.45,4.07c0,1.37,1.27,2.88,1.11,4.32s-.89,2.81-1.15,4.16c-.28,1.52-1.34,2.77-1.65,4-.61,2.45-1.09,4.41-1.09,4.41-.75-1.93.13-2.27-.63-4.2s-.64-2-1.39-3.92-1.79-1.53-2.54-3.46-.73-1.95-1.49-3.88.1-2.27-.65-4.2-.89-1.89-1.64-3.82-1.57-1.62-2.33-3.55.06-2.25-.69-4.19-1-1.8-2-3.64A11,11,0,0,1,529.76,539.18Z"/><path class="cls-6" d="M529.76,539.18c-.46-2,1.3.69,3.5,2.74.83.76,1.51,2.08,2.75,3.21.92.83,2.22,1.47,3.39,2.51,1,.86,1.56,2.29,2.7,3.3,1,.87,2.81.92,3.93,1.9s.7,2.66,1.08,4.18a16.69,16.69,0,0,1,.45,4.07c0,1.37,1.27,2.88,1.11,4.32s-.89,2.81-1.15,4.16c-.28,1.52-1.34,2.77-1.65,4-.61,2.45-1.09,4.41-1.09,4.41-.75-1.93.13-2.27-.63-4.2s-.64-2-1.39-3.92-1.79-1.53-2.54-3.46-.73-1.95-1.49-3.88.1-2.27-.65-4.2-.89-1.89-1.64-3.82-1.57-1.62-2.33-3.55.06-2.25-.69-4.19-1-1.8-2-3.64A11,11,0,0,1,529.76,539.18Z"/><path class="cls-6" d="M565.59,149.36c0-2,.17-2,.15-4.07s-.29-2-.31-4.07.37-2,.36-4.07,1-2.05,1-4.08-1.24-2-1.25-4.07-.14-2-.15-4.07.84-2,.83-4.08.21-2,.2-4.07.26-2,.24-4.07-.61-2-.63-4.07.27-2,.25-4.09-1.45-2.24,0-3.7,1.64-1,3.66-1,2,1.37,4,1.37,2-1.27,4-1.27,2,.21,4,.21,2,.06,4,.06a8.91,8.91,0,0,1,4,.45c1.94.61.86,1.12,1.53,3.68.29,1.1-.3,2.67.1,4.18.32,1.2,1,2.43,1.37,3.86.33,1.23.93,2.48,1.3,3.87s.27,2.67.64,4.05.72,2.56,1.09,3.92,1.63,2.33,2,3.68-.18,2.83.19,4.18.81,2.56,1.18,3.9.22,2.74.59,4.07,1.91,2.27,2.28,3.6.45,2.67.81,4,.29,2.73.66,4.06.83,2.57,1.2,3.9,1.11,2.49,1.48,3.81.4,2.7.77,4,.48,2.68.85,4,1.08,2.51,1.46,3.83.76,2.6,1.13,3.92.56,2.67.94,4,.7,2.63,1.08,3.94.94,2.63,1.18,3.94a39.76,39.76,0,0,1,.43,4.09,34.15,34.15,0,0,1-.27,4.1c-.08,1.4.54,2.88.28,4.19s-1.52,2.46-2,3.71a21.46,21.46,0,0,1-1.72,3.65,19.21,19.21,0,0,1-2.16,3.5,18.27,18.27,0,0,1-3.25,2.53,18.69,18.69,0,0,1-3.59,2.06,20.34,20.34,0,0,1-4.06.9,23.36,23.36,0,0,1-4.16.34,154.46,154.46,0,0,0-8.14-1.67c-1.36-.46-2.44-1.66-3.74-2.11s-2.68-1-4-1.39-3,0-4.3-.47-2.48-1.56-3.76-2-2.57-1.3-3.86-1.75-2.69-1-4-1.42-3,0-4.32-.41-2.49-1.62-3.75-2.06c-1.41-.49-3-.19-4.24-.63-1.43-.5-2.34-2.15-3.56-2.58-1.47-.52-2.81-.91-4-1.33-1.57-.56-3.08-.46-4.17-.85l-4-1.43"/><path class="cls-6" d="M487.78,128.84c1.92-.77,1.22-1.31,3.67-2,1.14-.34,2.47-.87,4-1.24,1.24-.3,2.85.62,4.3.35,1.29-.23,2.57-.92,4-1.09s2.72.11,4.12,0,2.7-.36,4.1-.33,2.78-.43,4.16-.28a41.12,41.12,0,0,1,4.09.7,34.94,34.94,0,0,1,3.93,1.33,30.43,30.43,0,0,1,3.6,2,27.65,27.65,0,0,1,3.57,2l3.39,2.45c1.13.82,2.38,1.47,3.52,2.28s2.33,1.55,3.45,2.37,2.38,1.5,3.5,2.31,2.23,1.7,3.35,2.51,2,2.08,3.07,2.89,2.36,1.53,3.47,2.35,2.82.92,3.92,1.73,1.67,2.49,2.78,3.3,2.78,1,3.88,1.78,1.77,2.38,2.85,3.18,2.79,1,3.87,1.82,2.17,1.88,3.23,2.66,2.46,1.56,3.48,2.32c1.29,1,2.5,1.69,3.44,2.39,2.14,1.6,1,2.14,2.68,3.39"/><path class="cls-6" d="M571.74,118.67c2.17,0,2.16-.67,4.33-.69s2.17-.29,4.34-.32,2.17,0,4.34-.08,2.18.66,4.35.64,2.17-.45,4.34-.47,2.17-.56,4.35-.59,2.19,1.29,4.36,1.26"/><path class="cls-6" d="M361.06,317.47c1.34,1.6,1.17,1.74,2.52,3.34s1.23,1.7,2.58,3.3,1.46,1.51,2.8,3.12,1,1.86,2.38,3.46,2.29.81,3.63,2.41,1.06,1.85,2.41,3.45,1.65,1.35,3,2.95.77,2.09,2.12,3.7,1.93,1.11,3.28,2.72"/><path class="cls-6" d="M588.15,91.49c1.86-1.91,2.37-.67,4.61-3,1.1-1.13,1.12-3.66,2.49-5,1.2-1.23,2.43-2.56,3.71-3.86s3-2.08,4.26-3.32,3.32-2,4.47-3.11c1.61-1.62,2.87-3,3.71-3.82a19,19,0,0,0,2.88-4.32A49.16,49.16,0,0,0,616,60.3c.68-1.63.31-3.6.8-5,.95-2.74,1.58-4.48,1.58-4.48"/><path class="cls-6" d="M595.8,37.35a37.81,37.81,0,0,1-2.29,5c-.78,1.44-.48,3.82-1.56,5.52-1,1.5-2.46,2.8-3.61,4.3a42.37,42.37,0,0,1-3.69,4.18c-1.29,1.29-2.38,3-3.87,4.18S577.14,62,575.63,63c-1.71,1.12-3.62,1.62-5,2.43-2.9,1.64-5.19,3.15-5.19,3.15"/><path class="cls-6" d="M571,48.05c-1.12,1.7-2.19,3.39-3.24,5s-1.78,3.62-2.76,5.31-2.18,3.39-3,5.12a50.16,50.16,0,0,0-2.65,5.36,32.23,32.23,0,0,0-1.51,5.78,22.69,22.69,0,0,0,.31,5.93c.21,1.93-.46,4.2.31,6.13.71,1.74,2.67,3,3.9,4.74"/><path class="cls-6" d="M602.39,39.71c0,3,0,2.71-1.18,6.22-.54,1.65-2.54,3.07-3.68,5.06-.92,1.61-1.47,3.72-2.92,5.38a35.07,35.07,0,0,1-4.68,4"/><path class="cls-6" d="M609.09,43.53a26.85,26.85,0,0,1-1.7,5.19c-.56,1.48-1.79,3-2.67,4.73A41.84,41.84,0,0,1,601.89,58c-1,1.47-2.82,2.22-4.08,3.48"/><path class="cls-6" d="M612.32,45.57a7.69,7.69,0,0,1,1.18,6.15c-.41,1.66-2.31,3.17-3.35,5.18-.84,1.61-1.3,3.71-2.71,5.38a33.37,33.37,0,0,1-4.58,3.92"/><path class="cls-10" d="M540.1,308.76c-2,0-2,.37-3.9.37s-2,.29-3.9.29-1.95-.64-3.9-.64-1.95-.45-3.9-.45-2,.65-3.9.65-2-.52-3.9-.52-1.94.57-3.89.57-1.95-.63-3.9-.63-2,.56-3.9.56-1.95.43-3.9.43-1.94-1-3.89-1-2,1.17-3.9,1.17-1.95-.65-3.9-.65-1.95.51-3.9.51-1.95-.42-3.9-.42-1.95.37-3.9.37h-3.91c-1.95,0-1.95-.44-3.9-.44s-2-.53-3.9-.53-1.95.38-3.9.38-1.95,0-3.91,0-1.95-.17-3.91-.17"/><path class="cls-10" d="M401.19,611.17c.22-2-.14-2,.07-3.95s-.07-2,.15-4,.86-1.88,1.08-3.83.66-1.91.88-3.86-.43-2-.21-4,.74-1.89,1-3.85-.35-2-.14-4,.85-1.89,1.07-3.84-.34-2-.12-4-.2-2,0-4,1.23-1.84,1.45-3.79-.95-2.09-.73-4,.86-1.88,1.08-3.84-.29-2-.07-4,.64-1.91.86-3.86-.15-2,.07-3.95l.44-3.91c.22-1.95.67-1.9.88-3.86s.74-1.89,1-3.84-.15-2,.06-4,.19-2,.41-3.91.39-1.93.61-3.88-.08-2,.14-3.94.76-1.89,1-3.85-.08-2,.14-3.94-.23-2,0-4,.05-2,.27-3.92,1.11-1.86,1.33-3.81.05-2,.27-3.92.49-1.93.71-3.88-.38-2-.16-4,.83-1.89,1.05-3.84-.35-2-.13-4,.38-1.94.6-3.89.51-1.92.73-3.88.06-2,.28-3.92,0-2,.19-3.94.3-1.95.52-3.9.52-1.92.74-3.88.21-1.95.43-3.91-.47-2-.25-4,.89-1.88,1.11-3.84-.36-2-.14-4,.79-1.9,1-3.85.36-1.94.58-3.9.23-2,.45-3.9-.64-2.06-.42-4,.44-1.93.66-3.89.38-1.94.6-3.89-.42-2-.2-4,1-1.87,1.24-3.82-.64-2.05-.42-4l.44-3.91c.22-1.95.59-1.91.81-3.87s.29-1.94.51-3.9.88-1.88,1.1-3.84-1-2.09-.74-4,.17-2,.39-3.92.18-2,.4-3.92,1.12-1.86,1.34-3.81-.3-2-.08-4,.47-1.93.69-3.89-.12-2,.1-4-.06-2,.16-3.95"/><path class="cls-6" d="M73.65,252.52c.85-1.91.75-2,1.6-3.86s.56-2,1.41-3.95.16-2.21,1-4.12,1.9-1.44,2.75-3.35.25-2.18,1.09-4.09,1-1.85,1.83-3.76,1-1.82,1.9-3.73,1-1.86,1.83-3.77.72-2,1.57-3.88"/><path class="cls-6" d="M78.36,240.8c-1.13-1.8-1-1.89-2.11-3.69s-1.38-1.63-2.51-3.42-.64-2.1-1.77-3.9-1.39-1.62-2.52-3.42-1.53-1.54-2.66-3.34-1.27-1.7-2.4-3.5-.34-2.29-1.46-4.09-1.28-1.7-2.41-3.5-.88-1.95-2-3.74-1.67-1.46-2.79-3.25S55.14,202.8,54,201s-1.64-1.48-2.77-3.28-.27-3-2.25-3.8-2.17.35-4,1-1.83.8-3.7,1.45-1.8.89-3.68,1.53-1.9.57-3.78,1.21-2.51-.16-4,1.1.31,2,1.16,4.49c.37,1.09,1.5,2.16,2,3.64.41,1.18.19,2.7.68,4.1.42,1.21,1.45,2.3,1.92,3.66s.31,2.73.78,4.06.76,2.59,1.23,3.91.88,2.56,1.35,3.87,1.77,2.24,2.24,3.55.69,2.63,1.16,3.93.76,2.62,1.22,3.91,1.57,2.33,2,3.62.14,2.85.61,4.14,1.8,2.25,2.27,3.53l1.43,3.84c.48,1.29.6,2.71,1.08,4s.9,2.6,1.38,3.86.33,2.82.82,4.08,2.17,2.11,2.66,3.36,1.06,2.55,1.55,3.79,1.07,2.54,1.58,3.78.24,2.87.88,4,1.88,2,2.68,3a26,26,0,0,0,2.5,3.1,22.31,22.31,0,0,0,3.37,2.12A19.09,19.09,0,0,0,72,291c1.27.49,2.33,1.35,3.63,1.57a19.56,19.56,0,0,0,4,.28,20,20,0,0,0,3.87-.79A19.35,19.35,0,0,0,87.2,291a20,20,0,0,0,3.56-1.76,21.31,21.31,0,0,0,3-2.61A22.93,22.93,0,0,0,96,283.28c.78-1.21,2.26-1.89,3-3s.84-2.83,1.56-3.94,1.87-2.19,2.58-3.29,1.71-2.3,2.41-3.39c.82-1.26,1.79-2.27,2.49-3.34.84-1.29,1.49-2.52,2.16-3.55.9-1.37.78-3.1,1.4-4,1.58-2.41,1.45-1.54,2.61-3.26"/><path d="M117.19,251.65c-2.06-.1-.21-2.3.07-4.34s.95-1.95,1.23-4,.75-2,1-4-.4-2.13-.12-4.17.82-2,1.1-4-.31-2.12,0-4.16.93-2,1.21-4-2.07-4.27,0-4.18.83,2,1.21,4.07-.66,2.26-.29,4.33,1.59,1.86,2,3.93-.28,2.2.1,4.27,1.78,2.21,1.27,4.26c-.57,2.35-1.81,1.9-3.19,3.88s-1.53,1.85-2.38,4.11C119.39,250.2,119.6,251.76,117.19,251.65Z"/><path class="cls-6" d="M117.19,251.65c-2.06-.1-.21-2.3.07-4.34s.95-1.95,1.23-4,.75-2,1-4-.4-2.13-.12-4.17.82-2,1.1-4-.31-2.12,0-4.16.93-2,1.21-4-2.07-4.27,0-4.18.83,2,1.21,4.07-.66,2.26-.29,4.33,1.59,1.86,2,3.93-.28,2.2.1,4.27,1.78,2.21,1.27,4.26c-.57,2.35-1.81,1.9-3.19,3.88s-1.53,1.85-2.38,4.11C119.39,250.2,119.6,251.76,117.19,251.65Z"/><path class="cls-6" d="M25.9,195.13c-2.26-2-1-2.59-3.7-5-1.35-1.21-4.08-1.31-5.7-2.78s-3.06-2.69-4.56-4.05-2.67-3.37-4-4.63c-1.92-1.75-2.84-3.93-3.8-4.85a6.34,6.34,0,0,1-2-3.94,17.4,17.4,0,0,1-.21-4.81c.3-2.74.56-5,.56-5"/><path class="cls-6" d="M15.22,140.79c.88,2.44.89,1.94,2.13,4.77.61,1.39,2.65,2.37,3.5,4.05.75,1.48,1.11,3.24,2,4.75a51.39,51.39,0,0,0,2.8,4.31c1.09,1.44,2.61,2.27,3.81,3.36,1.42,1.29,2.32,3.39,3.89,4.8s2.72,3.16,4.2,4.48c1.65,1.47,3.26,2.8,4.62,4a22.1,22.1,0,0,0,5.8,3.62"/><path class="cls-6" d="M47.52,158.21c.68,1.86,1.36,3.55,2,5.13.74,1.86,1.81,3.4,2.43,4.95.76,1.89,1.19,3.69,1.71,5.27a23.16,23.16,0,0,1,.85,5.48,15,15,0,0,1-.56,5.43,22,22,0,0,1-1.74,5.27c-.78,1.42-2.77,2.31-3.95,4"/><path class="cls-6" d="M8.94,144.64A11.24,11.24,0,0,1,12.63,149c.62,1.36.23,3.49,1.19,5.16.8,1.4,2.36,2.46,3.42,3.94a42.82,42.82,0,0,0,2.92,4.24"/><path class="cls-6" d="M3.65,147.56a14.67,14.67,0,0,1,3.07,4.95c.56,1.44.78,3.31,1.71,5.16.76,1.49,1.54,3.14,2.59,4.8.91,1.46,1.17,3.54,2.34,5.08"/><path class="cls-6" d="M6.37,151.71c-1,2.53-.71,1.94-1,5-.14,1.61-1.43,3.44-1.09,5.36.3,1.67,1.55,3.14,2.49,4.8a14.71,14.71,0,0,0,3.09,4.32"/><path d="M456.11,493.08c-1.54,1.41-.78-.45-1.19-3.67-.15-1.09.7-2.57.57-4.26-.09-1.21-.95-2.54-1-4.11-.06-1.27-.16-2.66-.2-4.18,0-1.29.58-2.69.57-4.18,0-1.31.17-2.7.17-4.17A7.93,7.93,0,0,1,456.2,465c.57-1.15.68-2.6,1.56-3.62a26.13,26.13,0,0,1,2.73-2.91c1.09-.93,2.05-2,3-2.66a14.39,14.39,0,0,1,3.3-1.74c-.49,1.28-.76,2.64-1.21,3.91s-.82,2.6-1.25,3.88-.43,2.73-.82,4-1.47,2.42-1.84,3.7,0,2.86-.35,4.13-1.45,2.48-1.77,3.74-.88,2.67-1.17,3.92c-.34,1.42.16,2.94-.11,4.15-.34,1.51-1.52,2.66-1.75,3.79C456,491.81,457.61,491.7,456.11,493.08Z"/><path class="cls-6" d="M456.11,493.08c-1.54,1.41-.78-.45-1.19-3.67-.15-1.09.7-2.57.57-4.26-.09-1.21-.95-2.54-1-4.11-.06-1.27-.16-2.66-.2-4.18,0-1.29.58-2.69.57-4.18,0-1.31.17-2.7.17-4.17A7.93,7.93,0,0,1,456.2,465c.57-1.15.68-2.6,1.56-3.62a26.13,26.13,0,0,1,2.73-2.91c1.09-.93,2.05-2,3-2.66a14.39,14.39,0,0,1,3.3-1.74c-.49,1.28-.76,2.64-1.21,3.91s-.82,2.6-1.25,3.88-.43,2.73-.82,4-1.47,2.42-1.84,3.7,0,2.86-.35,4.13-1.45,2.48-1.77,3.74-.88,2.67-1.17,3.92c-.34,1.42.16,2.94-.11,4.15-.34,1.51-1.52,2.66-1.75,3.79C456,491.81,457.61,491.7,456.11,493.08Z"/><path d="M386.94,602.56c.06,1.92.18-1.16,1.21-3.33.46-1,.59-2.38,1.22-3.69.52-1.07.64-2.45,1.25-3.68s2.21-1.72,2.8-2.92.09-2.8.68-4,2.3-1.71,2.9-2.86.52-2.73.77-3.93a13.68,13.68,0,0,0-.07-3.84,16.6,16.6,0,0,0-1-3.65c-.39-1.28.15-2.91-.41-4-.64-1.26-1.89-2.09-2.54-3-1.32-1.87-1-4.44-1.9-2.74-1,1.87-.82,1.82-1.07,3.91s-.26,2.1-.51,4.19-.49,2.07-.75,4.17.65,2.2.4,4.3-1.46,2-1.71,4,0,2.13-.22,4.23.28,2.16,0,4.25-.23,2.1-.48,4.2-.18,2.08-.31,4.19A30.23,30.23,0,0,0,386.94,602.56Z"/><path class="cls-6" d="M386.94,602.56c.06,1.92.18-1.16,1.21-3.33.46-1,.59-2.38,1.22-3.69.52-1.07.64-2.45,1.25-3.68s2.21-1.72,2.8-2.92.09-2.8.68-4,2.3-1.71,2.9-2.86.52-2.73.77-3.93a13.68,13.68,0,0,0-.07-3.84,16.6,16.6,0,0,0-1-3.65c-.39-1.28.15-2.91-.41-4-.64-1.26-1.89-2.09-2.54-3-1.32-1.87-1-4.44-1.9-2.74-1,1.87-.82,1.82-1.07,3.91s-.26,2.1-.51,4.19-.49,2.07-.75,4.17.65,2.2.4,4.3-1.46,2-1.71,4,0,2.13-.22,4.23.28,2.16,0,4.25-.23,2.1-.48,4.2-.18,2.08-.31,4.19A30.23,30.23,0,0,0,386.94,602.56Z"/><path d="M486.06,373.41c.48-2,1,.52,3.4.52,1.19,0,2.58-.35,4.06-.35,1.3,0,2.67,0,4.06,0s2.74-.74,4.06-.74,2.84-.26,4.07-.26c1.76,0,3.2,1.08,4.06,1.08a4.82,4.82,0,0,1,3.38,1.07c1,.9,1.76,2.11,1.22,3.39-.37.88-1.42,1.66-2.92,2.46a17.05,17.05,0,0,1-3.56,1.3c-1.08.29-2.5.44-4,.86-1.23.35-2.51.87-3.85,1.25s-2.62.83-3.88,1.19c-1.42.41-2.69,1-3.84,1.34-2.32.67-2.23,2.29-3.45.67-1.09-1.46-.61-1.48-1-3.26s-.61-1.73-1-3.51.18-1.92-.26-3.69S485.63,375.18,486.06,373.41Z"/><path class="cls-6" d="M486.06,373.41c.48-2,1,.52,3.4.52,1.19,0,2.58-.35,4.06-.35,1.3,0,2.67,0,4.06,0s2.74-.74,4.06-.74,2.84-.26,4.07-.26c1.76,0,3.2,1.08,4.06,1.08a4.82,4.82,0,0,1,3.38,1.07c1,.9,1.76,2.11,1.22,3.39-.37.88-1.42,1.66-2.92,2.46a17.05,17.05,0,0,1-3.56,1.3c-1.08.29-2.5.44-4,.86-1.23.35-2.51.87-3.85,1.25s-2.62.83-3.88,1.19c-1.42.41-2.69,1-3.84,1.34-2.32.67-2.23,2.29-3.45.67-1.09-1.46-.61-1.48-1-3.26s-.61-1.73-1-3.51.18-1.92-.26-3.69S485.63,375.18,486.06,373.41Z"/><path class="cls-6" d="M415.65,638.12a26.17,26.17,0,0,1,0,3.2c-.06,1.27-1,2.16-1.23,3-.43,1.3-.85,2-1.64,2.35a4.05,4.05,0,0,1-3,0,12.77,12.77,0,0,1-2.83-1.37c-1.43-1-2.39-1.58-2.39-1.58a7.35,7.35,0,0,0-2.45,1.15,17.16,17.16,0,0,1-2.39,1.81c-.79.37-1.88.33-2.91.71-.86.31-1.72.82-2.74,1.12s-1.87.41-2.89.66-1.88.38-2.91.58-1.83.66-2.86.82-1.88.54-2.9.67-2,.06-3,.16-1.95,0-3,.06-1.92.54-2.94.6-2-.59-3-.56-1.94.27-3,.28-1.95.14-3,.14a30.17,30.17,0,0,1-3.05-.65c-1.13-.1-2.29.7-3.2.5-1.17-.25-1.9-1.36-2.68-1.74-1.17-.59-2.21-1-2.46-1.76s.29-1.76,1.17-2.74a11,11,0,0,1,2.5-1.65,20.09,20.09,0,0,1,2.66-1.47c.87-.36,1.65-1.23,2.71-1.57s2.09.08,3.16-.2,1.88-1,2.84-1.28,2.07-.31,3-.64,1.76-1.23,2.68-1.59,2.25,0,3.15-.42,1.83-1.06,2.71-1.49,1.67-1.36,2.51-1.82,2-.87,2.76-1.36c1-.6,1.86-1.17,2.58-1.65,1.61-1.1,2.55-1.83,2.55-1.83.21-1.44-.2-1.5,0-2.95s.47-1.41.68-2.86.15-1.46.36-2.91.8-1.37,1-2.82-.31-1.52-.1-3,.65-1.38.86-2.84"/><path class="cls-6" d="M590.71,638.12a26.17,26.17,0,0,1,0,3.2c-.06,1.27-1,2.16-1.23,3-.43,1.31-.85,2-1.64,2.36a4.05,4.05,0,0,1-3,0A12.77,12.77,0,0,1,582,645.3c-1.43-1-.93-1.3-2.07-2.38a7.1,7.1,0,0,1-1.68,2.72,7.76,7.76,0,0,1-2,2.11,26,26,0,0,1-2.81.79,24.52,24.52,0,0,1-2.65,1.09c-.85.23-1.81.34-2.82.55s-1.82.29-2.84.45-1.8.57-2.81.68-1.84.44-2.84.52-1.89,0-2.89,0-1.89-.11-2.88-.07-1.88.46-2.87.47-1.9-.66-2.89-.66-2.15.15-3.11.06a23.67,23.67,0,0,1-3.1-.38,10.33,10.33,0,0,1-2.69-1.53c-1.14-.61-2.55-.77-2.84-1.58s.62-1.85,1.44-2.84a7.63,7.63,0,0,1,2.09-2.27,22.81,22.81,0,0,1,3-1c.88-.33,1.92-.41,3-.71.94-.25,1.89-.62,3-.84.92-.18,1.8-.93,2.86-1.17s2.09.21,3.12-.05,1.82-.94,2.83-1.2,2-.19,3-.45,1.81-1,2.81-1.3,2.16.29,3.15,0,1.91-.69,2.9-.93,1.87-.93,2.85-1.16,2-.26,3-.48,2-.44,3-.63,2-.32,3-.49,2-.76,2.94-.9,2.09,0,3.06-.12,2.07-.25,3-.28"/><path class="cls-6" d="M278.65,638.19a26.89,26.89,0,0,0-.13,3.09c.06,1.27-.49,2.4-.23,3.2a3.93,3.93,0,0,0,2.13,2.42,4.4,4.4,0,0,0,3.12-.26,12.41,12.41,0,0,0,2.7-1.54,14.07,14.07,0,0,1,2.53-1.38s-.32.81,1,2.24a13.27,13.27,0,0,0,2.58,1.35,14,14,0,0,0,2.41,1.62c.8.31,1.78.4,2.81.68.85.23,1.75.57,2.77.77s1.82.39,2.83.55,1.88,0,2.89.07,1.87,0,2.88,0,1.84.31,2.84.37,1.87.29,2.86.32,1.89-.34,2.89-.33,1.88.71,2.87.71a30.61,30.61,0,0,0,3.12-.35,21.49,21.49,0,0,0,3.06-.61c1.16-.28,2.38-.16,3.16-.58,1.14-.61,1.18-1.93,1.47-2.74s.81-1.93,0-2.92c-.54-.65-1.68-.94-2.76-1.56a16.38,16.38,0,0,0-2.67-1.62,29.37,29.37,0,0,0-2.92-1.2c-.94-.25-2-.35-3.1-.57"/><path class="cls-6" d="M73.76,638.12a28.68,28.68,0,0,1,0,3.07c0,1.11-.89,2-1.09,2.92a9.12,9.12,0,0,1-.9,2.8,7.26,7.26,0,0,1-1.93,2.27,10.51,10.51,0,0,1-2.66,1.45c-.87.3-2,0-3,.17s-1.86.52-2.93.63-1.92.64-3,.7-2-.38-3-.36-2,.25-3,.25-2-.11-3-.12-2-.06-3-.07-2,.29-3,.28-2,.21-3,.2-2-.19-3-.2-2-.21-3-.22-2,.39-3,.39-2-.71-2.91-.76c-1.08-.07-2.06,0-2.91-.1a13.92,13.92,0,0,1-2.86-.64,2.26,2.26,0,0,1-1.47-2.11c-.11-.75-.58-1.89.27-2.88.52-.61,1.81-.69,2.71-1.4.69-.53,1.19-1.5,2.1-2.08.75-.49,1.77-.69,2.68-1.21s1.76-.7,2.68-1.17,1.62-1,2.54-1.44"/></g></g></g></svg>