<svg xmlns="http://www.w3.org/2000/svg" viewBox="0 0 508 598.74"><defs><style>.cls-1{fill:#e6b49d;}.cls-10,.cls-12,.cls-2,.cls-3,.cls-4,.cls-6,.cls-8,.cls-9{fill:none;}.cls-2{stroke:#e6b49d;}.cls-10,.cls-12,.cls-2,.cls-3,.cls-6,.cls-8,.cls-9{stroke-linecap:round;stroke-linejoin:round;}.cls-10,.cls-2,.cls-3,.cls-4,.cls-6,.cls-9{stroke-width:3.61px;}.cls-3,.cls-4{stroke:#000;}.cls-4{stroke-miterlimit:10;}.cls-5{fill:#8e9b91;}.cls-6,.cls-8{stroke:#1d1d1b;}.cls-7{fill:#1d1d1b;}.cls-8{stroke-width:4.1px;}.cls-9{stroke:#fff;}.cls-10{stroke:#677d70;}.cls-11{fill:#677d70;}.cls-12{stroke:#8e9b91;stroke-width:4.33px;}</style></defs><g id="Layer_2" data-name="Layer 2"><g id="sect3"><g id="art"><path class="cls-1" d="M.32,209.65c.41,1.29,1.13,2.68,1.62,3.95s1.29,2.4,1.85,3.65,1.34,2.35,2,3.56.36,2.9,1,4.08,2,2,2.67,3.17,1.07,2.56,1.82,3.69,1.85,2,2.64,3.14,1.59,2.22,2.41,3.29S18.43,240,19.27,241s1.53,2.3,2.39,3.3,1.1,2.72,2,3.7,2.4,1.56,3.3,2.5,1.86,2.1,2.76,3,1.72,2.31,2.62,3.17c1.13,1.07,3,1.12,3.8,1.89,1.92,1.73,2.44,1.15,2.61,3.18-1,.88-1.86,1.92-2.84,2.84s-2.56,1.21-3.52,2.15-1.49,2.31-2.42,3.28-2,1.82-2.89,2.8-1.87,1.95-2.75,2.95-1.77,2-2.63,3.05-1.41,2.34-2.25,3.36-2,1.83-2.86,2.87-1.33,2.4-2.12,3.44-1.76,2.08-2.53,3.13-1.62,2.21-2.37,3.25-1.32,2.44-2,3.48-1.95,2.05-2.63,3.07c-.86,1.28-.94,2.83-1.56,3.78C2,307.38,1.08,310.29.57,308.35S.5,306.26.5,304.21,0,302.15,0,300.1s1.31-2.05,1.31-4.11-1-2.05-1-4.1.41-2.06.41-4.11-.5-2.06-.5-4.11.61-2.05.61-4.11-.69-2.05-.69-4.1.51-2.06.51-4.11-.37-2.06-.37-4.11.82-2.05.82-4.1S.59,261.08.59,259s-.18-2-.18-4.11.84-2,.84-4.1-.61-2.06-.61-4.11.71-2.06.71-4.11-.36-2-.36-4.11-.67-2.06-.67-4.11.49-2.06.49-4.11.43-2.06.43-4.11S.07,224.1.07,222.05,1,220,1,217.94s.62-2.15.4-4.19S0,211.69.32,209.65Z"/><path class="cls-1" d="M160,224.21a8.68,8.68,0,0,1,.63,4.16c0,2.08-.73,2.08-.73,4.16s-.23,2.08-.23,4.17.54,2.08.54,4.16-.65,2.09-.65,4.17.59,2.08.59,4.16.48,2.09.48,4.17.1,2.08.1,4.16-1,2.08-1,4.17.62,2.08.62,4.16-.58,2.08-.58,4.17.26,2.08.26,4.16.21,2.08.21,4.17-.58,2.08-.58,4.17.54,2.08.54,4.16-.73,2.09-.73,4.17,1,2.09,1,4.17-.52,2.08-.52,4.17-.27,2.08-.27,4.17-.27,2.09-.27,4.17,1.53,2.19.07,3.69-1.52.51-3.55.51-2,.18-4.06.18-2,.47-4.07.47-2-1-4.06-1-2,.42-4.06.42-2,.15-4.07.15-2.06.17-4-.54-.4-1.29-.57-4c-.08-1.2-.6-2.61-.69-4.21-.08-1.31.62-2.77.53-4.29-.07-1.35-.79-2.73-.86-4.21s.76-2.83.7-4.28-.55-2.79-.6-4.23.39-2.83.35-4.26,0-2.83-.07-4.25-.2-2.83-.22-4.25-.89-2.84-.89-4.25,1-2.72,1-4.12-.58-2.76-.52-4.15.21-2.75.29-4.13,0-2.77.07-4.15,0-2.77.14-4.14.16-2.78.28-4.14,1.09-2.69,1.22-4,.22-2.78.36-4.12-.33-2.86-.18-4.18.25-2.82.41-4.12c.19-1.47.46-2.84.62-4.1.21-1.56.24-3,.4-4.12.36-2.59-1-3.83,1-4.38s1.27,1.37,3.21,2.84a26.28,26.28,0,0,0,3,2.64c1.07.62,2.49.79,3.79,1.35a30.55,30.55,0,0,0,3.81,1.05,26.58,26.58,0,0,0,3.85.69,25.74,25.74,0,0,0,3.91.58A27.08,27.08,0,0,0,160,224.21Z"/><path class="cls-1" d="M.62,28.7c1.48-1.48,2.18.11,4.28.11S7,29,9.08,29s2.1.14,4.19.14,2.1-.13,4.19-.13,2.09.41,4.19.41,2.09-1.23,4.19-1.23,2.09.38,4.18.38,2.1-.4,4.19-.4,2.1.75,4.19.75,2.1-.76,4.19-.76,2.1.77,4.19.77,2.1-.6,4.19-.6,2.1,1,4.19,1,2.1-.65,4.19-.65,2.1-.26,4.19-.26,2.1,0,4.19,0,2.1.69,4.19.69,2.1-.42,4.2-.42,2.09-.55,4.19-.55S82.4,29.4,84.5,29.4s2.09-.28,4.19-.28,2.1-.45,4.19-.45,2.1.46,4.19.46,2.1-.77,4.2-.77,2.09-.15,4.18-.15,2.1,1.24,4.19,1.24,2.1-.48,4.19-.48,2.1.4,4.2.4,2.09-.25,4.19-.25,2.09-.54,4.19-.54,2.1,0,4.19,0,2.1.23,4.2.23,2.1.45,4.19.45,2.1-.17,4.2-.17,2.09,0,4.19,0,2.1-.2,4.2-.2,2.1-.11,4.2-.11,2.8-1.62,4.29-.14,0,2.17,0,4.25-.52,2.09-.52,4.17.15,2.09.15,4.17.92,2.09.92,4.17-1,2.08-1,4.17.86,2.08.86,4.17-.86,2.08-.86,4.17.84,2.08.84,4.17-.22,2.08-.22,4.17.21,2.08.21,4.17.15,2.08.15,4.17-1.12,2.08-1.12,4.17S160,80.9,160,83s.61,2.08.61,4.17-.59,2.08-.59,4.17-.16,2.09-.16,4.17-.33,2.09-.33,4.17.85,2.09.85,4.17.33,2.09.33,4.17-.16,2.09-.16,4.17-.18,2.09-.18,4.17.28,2.09.28,4.17-.38,2.09-.38,4.17-1,2.09-1,4.17,1.23,2.09,1.23,4.18.12,2.09.12,4.17-.86,2.09-.86,4.18-.23,2.08-.23,4.17-.27,2.09-.27,4.17.61,2.09.61,4.18-.28,2.09-.28,4.18.49,2-.13,4c-.56,1.79-.95-.64-2.31-2.39-.69-.88-.4-2.73-1.24-3.8s-2.55-1.16-3.33-2.14-1.46-2.15-2.21-3c-1-1.17-1.76-2.19-2.38-2.86a5.73,5.73,0,0,1-1.54-3.75,9.08,9.08,0,0,1,.11-4.12c.35-1.08,1.73-2,2.25-3.56a23.46,23.46,0,0,0,.59-4.33,36.6,36.6,0,0,0,0-4.31c0-1.42.36-2.9.23-4.32s-.36-2.92-.61-4.28c-.26-1.52-1.52-2.7-1.88-4-.49-1.67-.18-3.36-.74-4.29a11.09,11.09,0,0,0-2.51-2.76,11.54,11.54,0,0,0-3.1-2.27c-1.27-.42-2.73.64-3.83.63-2.1,0-2.19,1-3.77.11-1.83-1.09,0-1.84-.61-4.44-.27-1.18-.72-2.55-1.11-4.12-.32-1.27-1.06-2.54-1.46-4-.35-1.3-.4-2.76-.82-4.18s-.53-2.77-1-4.16-1.19-2.57-1.65-3.94-.93-2.66-1.42-4-.8-2.73-1.32-4-1-2.66-1.59-4-1.38-2.5-2-3.77-1.19-2.6-1.86-3.83-1.16-2.66-1.9-3.83-2.25-1.93-3.08-3-1.16-2.83-2.13-3.78A40.31,40.31,0,0,0,108,48.76a38.71,38.71,0,0,0-3.74-2.14c-1.22-.77-2.39-1.56-3.65-2.19a39.46,39.46,0,0,0-4-1.46c-1.34-.52-2.65-1-4-1.39s-2.79-.52-4.18-.8-2.74-.85-4.14-1-2.86,0-4.28-.11-2.8-1-4.21-1-2.88-.11-4.29-.12-2.87,1-4.27,1-2.89-.63-4.29-.61a36.54,36.54,0,0,0-4.09-.14c-1.25.12-2.64.27-4.07.52-1.27.22-2.39,1.51-3.76,1.85s-2.76,0-4.09.42-2.24,1.62-3.53,2.15-3-.08-4.22.54-2.38,1.34-3.55,2.07-1.95,2-3.06,2.77-2.12,1.64-3.15,2.56-1.9,1.89-2.84,2.91-1.6,2.24-2.47,3.3-2.42,1.61-3.22,2.72-.95,2.7-1.69,3.86-2.38,1.79-3.05,3-1.13,2.56-1.73,3.8-.27,2.89-.79,4.17-1.3,2.43-1.74,3.73-1.57,2.41-1.94,3.74.48,2.94.19,4.3-1.7,2.47-1.92,3.84S8,93.7,7.82,95.08s.53,2.79.46,4.18S7.05,102,7.05,103.37s.09,2.77.15,4.16,1.18,2.67,1.3,4.06-.05,2.75.13,4.13-.13,2.79.1,4.17.87,2.63,1.15,4-.08,2.83.24,4.19,1.8,2.37,2.17,3.71-.31,3,.1,4.28.84,2.63,1.29,4,2.18,2.13,2.67,3.44c.38,1,.38,2.46.89,3.91.4,1.17.11,2.68.53,4s1.81,2.22,2.16,3.52-.24,2.82,0,4.09.37,2.66.51,3.9c.15,1.47,1.16,3.12,1,4.26a34.89,34.89,0,0,0-3.71,2C16.61,170,15,170,14,170.85a38.09,38.09,0,0,0-2.92,2.9c-1,1-1.19,2.59-2,3.62S6.66,179.05,6,180.13s-1,2.67-1.63,3.77c-.74,1.34-1.77,2.36-2.25,3.42-1,2.27-.3,5.7-.65,3.7a15.17,15.17,0,0,1-.36-4c0-2.08-.95-2.08-.95-4.16s1.3-2.08,1.3-4.16,0-2.08,0-4.16S1,172.43,1,170.35s-.64-2.08-.64-4.16,1-2.08,1-4.16-1-2.08-1-4.16-.28-2.08-.28-4.16.72-2.08.72-4.16.28-2.08.28-4.16-.27-2.08-.27-4.16.38-2.08.38-4.17-.5-2.08-.5-4.16-.39-2.08-.39-4.16.77-2.08.77-4.16-.05-2.08-.05-4.17-.74-2.08-.74-4.16-.3-2.08-.3-4.16,1.19-2.08,1.19-4.16,0-2.09,0-4.17S.36,101.68.36,99.6s.21-2.08.21-4.17S.38,93.35.38,91.27,0,89.19,0,87.11.64,85,.64,83,.26,80.87.26,78.78s.68-2.08.68-4.16S.58,72.54.58,70.46.07,68.38.07,66.3s.1-2.09.1-4.17S.35,60.05.35,58,0,55.88,0,53.8s.39-2.08.39-4.17.55-2.08.55-4.16S.35,43.38.35,41.3s0-2.08,0-4.17,1.38-2.26.92-4.3C.78,30.61-.86,30.17.62,28.7Z"/><path class="cls-2" d="M112.4,117.26c-.29-1.21,0-1.28-.27-2.48s.15-1.31-.14-2.51-.34-1.2-.62-2.4-.36-1.19-.65-2.39-.48-1.16-.77-2.37-.74-1.1-1-2.3"/><path class="cls-2" d="M102.76,103.4c.22,1.32,0,1.36.19,2.67s.24,1.3.46,2.62.85,1.2,1.06,2.52-.06,1.36.15,2.67-.33,1.41-.12,2.72"/><path class="cls-3" d="M10.23,81c0-2.07-1-2.07-1-4.13s.22-2.07.22-4.14.05-2.06.05-4.13.85-2.06.85-4.13-.27-2.07-.27-4.13S9,58.28,9,56.22s1-2.07,1-4.13S9.18,50,9.18,48s.49-2.07.49-4.14S9,41.76,9,39.69s1.37-2.07,1.37-4.13-.89-2.07-.89-4.14.55-2.07.55-4.14.06-2.06.06-4.13-.4-2.07-.4-4.14.6-2.06.6-4.13-.85-2.07-.85-4.14.38-2.07.38-4.14S8.66,4.42,10.13,3s1.57-.63,3.64-.63,2.07.22,4.14.22h4.14c2.07,0,2.07.56,4.14.56S28.26,2,30.33,2s2.07.7,4.14.7,2.07-.48,4.14-.48,2.07.19,4.14.19,2.08-.6,4.15-.6S49,2,51,2s2.07,0,4.14,0,2.07.72,4.14.72,2.08.16,4.15.16S65.54,2,67.61,2,69.68,2,71.75,2s2.07,0,4.15,0S78,2.15,80,2.15s2.07.52,4.14.52,2.08-.41,4.15-.41,2.07-.42,4.14-.42,2.07,0,4.15,0h4.14c2.07,0,2.07,1.09,4.14,1.09s2.08-.8,4.15-.8,2.07.31,4.14.31,2.07-.06,4.14-.06,2.07.56,4.14.56,2.08-.68,4.15-.68,2.07.6,4.14.6,2.08-.19,4.15-.19,2.07-.23,4.15-.23,2.07.19,4.14.19,2.08-.5,4.15-.5,2.07.48,4.15.48,2.07-.38,4.14-.38S156.72,2,158.79,2s2.08.67,4.16.67,2.22-1.18,3.69.29.49,1.59.49,3.65-.55,2.06-.55,4.12.61,2.06.61,4.12-.67,2.06-.67,4.11.59,2.06.59,4.12.45,2.06.45,4.11-1.06,2.06-1.06,4.12,1.23,2.06,1.23,4.12-.68,2.06-.68,4.12.54,2.06.54,4.12-.45,2-.45,4.11.39,2.06.39,4.12,0,2.06,0,4.12-.47,2.06-.47,4.12-.55,2.06-.55,4.12.4,2.06.4,4.12,0,2.06,0,4.12-.17,2.06-.17,4.12.31,2.06.31,4.12-.58,2.06-.58,4.12.32,2.06.32,4.12.47,2.06.47,4.12.18,2.06.18,4.12-.94,2.06-.94,4.12.17,2.06.17,4.12-.29,2.06-.29,4.12.64,2.06.64,4.12-.65,2.06-.65,4.12.6,2.06.6,4.12-.17,2.06-.17,4.12-.31,2.06-.31,4.12.16,2.06.16,4.12.26,2.06.26,4.12-.08,2.06-.08,4.13-.32,2.06-.32,4.12,0,2.06,0,4.12.72,2.06.72,4.13-.7,2.06-.7,4.12.61,2.06.61,4.12-.61,2.07-.61,4.13-.14,2.07-.14,4.13"/><path class="cls-3" d="M9.39,170.52c0-2-.41-2-.41-4s.28-2,.28-4,.66-2,.66-4-.28-2-.28-4-.65-2-.65-4,.31-2,.31-4,.85-2,.85-4-.61-2-.61-4,.58-2,.58-4"/><path class="cls-3" d="M166.84,218.36v4.06c0,2,.67,2,.67,4.07s.21,2,.21,4.06-.94,2-.94,4.07.67,2,.67,4.06-.85,2-.85,4.07.08,2,.08,4.07.27,2,.27,4.06.52,2,.52,4.06-1.08,2-1.08,4.07.28,2,.28,4.06.73,2,.73,4.06-1,2-1,4.07,1,2,1,4.07-.07,2-.07,4.06.11,2,.11,4.07-.91,2-.91,4.07-.07,2-.07,4.07,1,2,1,4.07-.08,2-.08,4.06-.3,2-.3,4.08,1.72,3,.27,4.4-2.39-.66-4.46-.66-2.07-.13-4.14-.13-2.07.83-4.14.83-2.07-.17-4.14-.17-2.07.5-4.14.5-2.07-.84-4.14-.84-2.07.87-4.14.87H134c-2.08,0-2.08,0-4.15,0s-2.07-.76-4.14-.76-2.07-.12-4.14-.12-2.07.18-4.14.18-2.08.46-4.15.46-2.07-.4-4.14-.4-2.07-.35-4.14-.35-2.07.18-4.15.18-2.07,0-4.14,0-2.07.38-4.14.38-2.08.37-4.15.37-2.07-1-4.14-1-2.07.41-4.14.41-2.08.6-4.15.6-2.07-.4-4.14-.4-2.08,0-4.15,0-2.07-.35-4.14-.35-2.07-.12-4.14-.12-2.07.49-4.14.49-2.08-.16-4.15-.16-2.07-.4-4.14-.4-2.08-.1-4.15-.1-2.07.21-4.15.21-2.07-.17-4.14-.17-2.08.23-4.15.23-2.07.18-4.15.18-2.07.38-4.14.38-2.08,0-4.15,0-2.08-.33-4.16-.33-3.06,1.75-4.54.29-.3-2.43-.3-4.46.26-2,.26-4.06.54-2,.54-4.07-.06-2-.06-4.06-.72-2-.72-4.07.37-2,.37-4.07.61-2,.61-4.06-.49-2-.49-4.07.3-2,.3-4.06-.6-2-.6-4.06-.05-2-.05-4.06,1.1-2,1.1-4.07-.51-2-.51-4.07.16-2,.16-4.06-.27-2-.27-4.07-.32-2-.32-4.07.19-2,.19-4.07.76-2,.76-4.06-.61-2-.61-4.07-.16-2-.16-4.07.07-2,.07-4.07-.41-2-.41-4.08"/><path class="cls-3" d="M167.1,24.45c-2.08,0-2.08-.83-4.15-.83s-2.08.79-4.15.79-2.08-.31-4.16-.31-2.07-.81-4.15-.81-2.07.54-4.15.54-2.07.29-4.15.29-2.08-.65-4.15-.65-2.08.61-4.16.61-2.07-.76-4.15-.76-2.07,1-4.15,1-2.08-.59-4.15-.59-2.08-.26-4.16-.26-2.07,1.13-4.15,1.13S111,23.36,109,23.36s-2.07-.08-4.15-.08-2.07,1.17-4.15,1.17-2.08-.93-4.16-.93-2.07.49-4.15.49-2.08-.21-4.15-.21-2.08-.35-4.16-.35-2.08-.26-4.15-.26-2.08,1-4.16,1-2.07-.55-4.15-.55-2.08-.07-4.15-.07-2.08.33-4.16.33-2.07,0-4.15,0S57,23.86,55,23.86s-2.07-.31-4.15-.31-2.08.31-4.16.31-2.08.26-4.16.26-2.07-.29-4.15-.29-2.08-.24-4.16-.24-2.08.29-4.16.29-2.08-.41-4.16-.41-2.08.79-4.16.79-2.08.1-4.16.1"/><path d="M26.89,13.76a3.84,3.84,0,0,1-1.5,2.58,3.32,3.32,0,0,1-2.59.91c-1.08,0-2.26.19-3-.52a4.28,4.28,0,0,1-1-3,3.62,3.62,0,0,1,1.44-2.53A3.46,3.46,0,0,1,22.8,10a4,4,0,0,1,2.88.91A4.21,4.21,0,0,1,26.89,13.76Z"/><path class="cls-3" d="M26.89,13.76a3.84,3.84,0,0,1-1.5,2.58,3.32,3.32,0,0,1-2.59.91c-1.08,0-2.26.19-3-.52a4.28,4.28,0,0,1-1-3,3.62,3.62,0,0,1,1.44-2.53A3.46,3.46,0,0,1,22.8,10a4,4,0,0,1,2.88.91A4.21,4.21,0,0,1,26.89,13.76Z"/><path class="cls-1" d="M38.62,17.84A3.88,3.88,0,0,1,36,16.34a3.29,3.29,0,0,1-.91-2.58c0-1.09-.19-2.26.52-3a4.26,4.26,0,0,1,3-1,3.66,3.66,0,0,1,2.52,1.44,3.42,3.42,0,0,1,1.26,2.53,4,4,0,0,1-.91,2.88A4.19,4.19,0,0,1,38.62,17.84Z"/><path class="cls-4" d="M38.62,17.84A3.88,3.88,0,0,1,36,16.34a3.29,3.29,0,0,1-.91-2.58c0-1.09-.19-2.26.52-3a4.26,4.26,0,0,1,3-1,3.66,3.66,0,0,1,2.52,1.44,3.42,3.42,0,0,1,1.26,2.53,4,4,0,0,1-.91,2.88A4.19,4.19,0,0,1,38.62,17.84Z"/><path class="cls-5" d="M53.11,17.84a3.84,3.84,0,0,1-2.58-1.5,3.29,3.29,0,0,1-.92-2.58c0-1.09-.18-2.26.53-3a4.22,4.22,0,0,1,3-1,3.66,3.66,0,0,1,2.53,1.44,3.46,3.46,0,0,1,1.26,2.53A4,4,0,0,1,56,16.64,4.2,4.2,0,0,1,53.11,17.84Z"/><path class="cls-6" d="M53.11,17.84a3.84,3.84,0,0,1-2.58-1.5,3.29,3.29,0,0,1-.92-2.58c0-1.09-.18-2.26.53-3a4.22,4.22,0,0,1,3-1,3.66,3.66,0,0,1,2.53,1.44,3.46,3.46,0,0,1,1.26,2.53A4,4,0,0,1,56,16.64,4.2,4.2,0,0,1,53.11,17.84Z"/><path class="cls-3" d="M48,139.54c.6.54,1.35,1,2.05,1.52s1.29,1.05,2,1.57,1.44.85,2.18,1.33,1.3,1.08,2.05,1.53,1.56.66,2.32,1.08,1.26,1.24,2,1.63,1.51.78,2.29,1.15,1.79.16,2.58.51,1.39,1.06,2.19,1.38,1.49.85,2.3,1.16,1.6.61,2.42.89,1.81-.08,2.63.18,1.5.92,2.32,1.16,1.77,0,2.6.17,1.47,1.17,2.31,1.36,1.69.32,2.53.49,1.75-.05,2.59.1,1.68.27,2.53.39a25.33,25.33,0,0,0,2.58.2,24.08,24.08,0,0,0,2.57-.2c.87,0,1.79.41,2.63.27a21.42,21.42,0,0,0,2.41-1c.84-.24,1.89.09,2.68-.25a21.78,21.78,0,0,0,2.27-1.34c.73-.44,1.09-1.43,1.77-2a20.47,20.47,0,0,0,2-1.58c.59-.61,1.51-1,2.05-1.66s.39-1.8.85-2.55,1.51-1.11,1.9-1.9.65-1.6,1-2.42.15-1.76.42-2.6,1.17-1.45,1.39-2.3.35-1.69.53-2.56-.34-1.8-.21-2.67.42-1.66.51-2.54.48-1.67.54-2.55-.15-1.72-.13-2.6.46-1.71.46-2.6-.75-1.7-.77-2.58.63-1.74.58-2.62-.11-1.72-.18-2.59-1-1.63-1.08-2.5.13-1.73,0-2.61.25-1.76.13-2.63-.92-1.6-1.06-2.47.3-1.79.15-2.66-.24-1.71-.4-2.57-1-1.57-1.2-2.41-.35-1.7-.54-2.53.15-1.83-.06-2.65S113.2,89.78,113,89s-1-1.52-1.25-2.33,0-1.83-.28-2.64-.9-1.52-1.2-2.32-.34-1.73-.67-2.52-.36-1.75-.71-2.53-1-1.49-1.34-2.25-1.31-1.26-1.73-2-.17-1.92-.62-2.64-1-1.47-1.46-2.17-1.22-1.28-1.74-2-1.39-1.09-2-1.74-.69-1.72-1.29-2.34-1.66-.78-2.29-1.36-1.4-1-2.08-1.53-1.08-1.41-1.79-1.91-1.33-1.12-2.07-1.58"/><path class="cls-3" d="M83.6,51.87c-.81-2-.9-1.52-2.27-3.57a18.06,18.06,0,0,0-2.41-3.49c-1-1-1.77-2.68-3.13-3.23s-2.9.39-4.45.56a9.82,9.82,0,0,0-3.83,1.4c-1.26.68-2.8.82-3.72,1.83a14.45,14.45,0,0,0-2.54,3.39,22.73,22.73,0,0,0-1.72,3.89c-.34,1.25,0,2.78-.28,4.23-.2,1.29-.65,2.64-.79,4.09s-.38,2.7-.47,4.15,1.07,2.76,1,4.2-1.45,2.67-1.49,4.1,1.22,2.75,1.19,4.18-.27,2.73-.3,4.15-.12,2.73-.15,4.15-.52,2.72-.55,4.14.53,2.76.48,4.17-1.08,2.7-1.15,4.12.21,2.75.16,4.07.13,2.75.07,4.06-.57,2.73-.64,4-.11,2.75-.18,4.06.8,2.8.71,4.11-1.1,2.68-1.2,4-.12,2.76-.25,4-.8,2.68-1,4,.84,2.93.61,4.2-.81,2.7-1.12,3.94a37.27,37.27,0,0,1-1.6,3.76,29.6,29.6,0,0,1-1.5,3.75A26.68,26.68,0,0,1,49.34,150a28.3,28.3,0,0,1-2.91,2.88,33.42,33.42,0,0,1-3.2,2.49c-1,.8-1.89,1.87-3.07,2.66s-2.21,1.44-3.44,2.16-2.39,1.14-3.64,1.81"/><path class="cls-3" d="M89.29,47c2,0,1.49-.51,3.94.06a34,34,0,0,1,3.67,1.6,26.54,26.54,0,0,1,3.68,1.53c1.09.63,2.51.92,3.65,1.8a35,35,0,0,1,3,2.7,37,37,0,0,1,2.57,3.14c.82,1,1.25,2.32,2,3.49s1.56,2.1,2.25,3.33,1.22,2.32,1.81,3.59,1.25,2.33,1.76,3.64,1,2.44,1.45,3.78,1,2.54,1.41,3.79.78,2.61,1.18,3.86.33,2.76.73,4,1,2.55,1.37,3.8,1.69,2.34,2.07,3.59-.18,2.91.19,4.16,1.59,2.39,1.93,3.64-.11,2.88.2,4.13,1.46,2.49,1.72,3.75.33,2.77.53,4c.21,1.42.58,2.76.66,4a32.34,32.34,0,0,1,.14,4.1c-.11,1.43-1.43,2.54-1.8,3.76s-.43,2.7-1.15,3.82-1.17,2.56-2.21,3.5-2.42,1.21-3.64,2"/><path class="cls-3" d="M55.6,43.69c-2.08.33-1.78-.6-4.31.15-1.15.35-2.24,1.58-3.73,2.16-1.21.47-2.65.68-4,1.33-1.2.58-2.55,1.08-3.83,1.82S37.18,50.37,36,51.2s-2.21,1.74-3.33,2.65-1.42,2.58-2.47,3.58S28,59.11,27,60.2s-1.81,2.08-2.67,3.24-1.22,2.49-2,3.72-2,2-2.67,3.31-1.59,2.36-2.14,3.69-1,2.63-1.44,4,.17,2.93-.19,4.34-1.08,2.58-1.34,4-1.37,2.57-1.56,3.9.9,2.89.76,4.22-.21,2.72-.29,4.06-.63,2.71-.65,4-.72,2.77-.67,4.11.2,2.77.31,4.11.36,2.75.52,4.08.68,2.69.91,4,1.21,2.55,1.49,3.87-.54,2.94-.21,4.24,1.33,2.5,1.7,3.79.63,2.68,1,4,.64,2.69,1.07,4,.76,2.65,1.21,3.91,1.06,2.55,1.52,3.81.55,2.72,1,4,2.07,2.2,2.5,3.46.5,2.75.88,4,1.14,2.56,1.45,3.86-.15,2.85.05,4.17,1.11,2.67,1.17,4-.73,2.74-.86,4.09.25,2.81-.08,4.15-1.65,2.27-2.19,3.56-.52,2.7-1.24,3.92a36.82,36.82,0,0,1-2.08,3.56"/><path class="cls-3" d="M83.34,51.73a12.48,12.48,0,0,1-3.71-.26c-1.21-.21-2.6-.36-4.23-.52-1.32-.13-2.69-1.17-4.24-1.22-1.36,0-2.79.52-4.3.57s-2.83-.11-4.32.05-2.75.7-4.21,1-2.69.82-4.12,1.18-2.87.22-4.27.68-2.67,1-4,1.52-2.47,1.4-3.78,2.06"/><path class="cls-3" d="M46.76,93.85c0,2.12-.5,1.34-.63,4.21-.05,1.16-.66,2.54-.75,4.2-.06,1.25.26,2.68.17,4.24-.07,1.3-.12,2.7-.21,4.22-.08,1.32-.34,2.71-.43,4.2s.13,2.77,0,4.24-.75,2.72-.85,4.18.12,2.78,0,4.24.27,2.8.17,4.26,0,2.78-.14,4.23c-.09,1.25-1.08,2.59-1.08,4.05,0,1.29.2,2.67.27,4.1s-.14,2.7,0,4.11.9,2.61,1.07,4-.28,2.78-.06,4.14,1,2.58,1.3,3.93.37,2.7.68,4,.33,2.73.69,4.05.88,2.6,1.28,3.9,1.07,2.53,1.52,3.81.85,2.6,1.35,3.86.77,2.66,1.33,3.89,1.2,2.5,1.83,3.68,2,2,2.67,3.19.92,2.71,1.71,3.79,2.17,1.8,3.06,2.79,1.49,2.44,2.49,3.33a31.75,31.75,0,0,0,3.22,2.64,25.77,25.77,0,0,0,3.67,2c1.24.55,2.86.15,4.19.47a22.66,22.66,0,0,0,4,.82"/><path class="cls-3" d="M48.59,198.08c-1.28-1.57-1.44-.83-2.76-3a35.65,35.65,0,0,1-2.39-3.33c-.57-1.12-.18-2.79-.73-4.13-.49-1.19-2.11-2.06-2.52-3.41s-.08-2.76-.36-4.13-1-2.58-1.14-4A36.61,36.61,0,0,1,39,172"/><path d="M57.2,146.37c-.39,2.18,1.28.62,3.32,2.7.85.88,1.87,2,3.07,3.17.93.95,2,2,3.09,3.16,1,1,1.22,2.79,2.33,3.91s2.58,1.48,3.68,2.58,1.81,2.27,2.89,3.36a4.85,4.85,0,0,0,4,1.73,6.21,6.21,0,0,0,4.1-1.95c1-1.12,1.23-2.9,1.87-4.18,1.1-2.19,3.21-2.22,2.25-4.25-.87-1.84-1.91-.09-4.42-.4-1.16-.14-2.54-.12-4-.4-1.24-.24-2.52-.71-3.93-1.07-1.25-.32-2.7-.22-4-.66s-2.36-1.34-3.65-1.87-2.63-.72-3.86-1.35-2.56-1-3.72-1.76S58.28,147.22,57.2,146.37Z"/><path class="cls-3" d="M57.2,146.37c-.39,2.18,1.28.62,3.32,2.7.85.88,1.87,2,3.07,3.17.93.95,2,2,3.09,3.16,1,1,1.22,2.79,2.33,3.91s2.58,1.48,3.68,2.58,1.81,2.27,2.89,3.36a4.85,4.85,0,0,0,4,1.73,6.21,6.21,0,0,0,4.1-1.95c1-1.12,1.23-2.9,1.87-4.18,1.1-2.19,3.21-2.22,2.25-4.25-.87-1.84-1.91-.09-4.42-.4-1.16-.14-2.54-.12-4-.4-1.24-.24-2.52-.71-3.93-1.07-1.25-.32-2.7-.22-4-.66s-2.36-1.34-3.65-1.87-2.63-.72-3.86-1.35-2.56-1-3.72-1.76S58.28,147.22,57.2,146.37Z"/><path d="M84,51.69a24.85,24.85,0,0,0-2.21-3.16c-.72-.93-1.16-2.36-2.08-3.34s-2.61-1-3.59-1.76c-1.18-.85-2.1-2-3.23-2.07s-2.23.86-3.47,1.59A19.34,19.34,0,0,0,66.27,45c-1,.88-1.52,2.22-2.32,3.07-1.5,1.58-2.94.47-2.57,2.34a23,23,0,0,1,3.39-.82c1.26-.08,2.58.62,3.88.64s2.57.24,3.82.33,2.72-.64,3.93-.5c1.42.17,2.74.3,3.85.48A13.29,13.29,0,0,1,84,51.69Z"/><path class="cls-3" d="M84,51.69a24.85,24.85,0,0,0-2.21-3.16c-.72-.93-1.16-2.36-2.08-3.34s-2.61-1-3.59-1.76c-1.18-.85-2.1-2-3.23-2.07s-2.23.86-3.47,1.59A19.34,19.34,0,0,0,66.27,45c-1,.88-1.52,2.22-2.32,3.07-1.5,1.58-2.94.47-2.57,2.34a23,23,0,0,1,3.39-.82c1.26-.08,2.58.62,3.88.64s2.57.24,3.82.33,2.72-.64,3.93-.5c1.42.17,2.74.3,3.85.48A13.29,13.29,0,0,1,84,51.69Z"/><path class="cls-3" d="M99.55,115.05a12.17,12.17,0,0,0,2.63-4.34,26.26,26.26,0,0,1-2.51-2.87c-1-1.17-2.45-1.91-3.14-3-.88-1.37-.31-3.27-.78-4.36-1-2.45-2-1.65-2-3.76s.71-1.63,1.35-4a30.18,30.18,0,0,1,1.39-3.87,21.11,21.11,0,0,1,1.63-3.81c.78-1.14,2.08-1.74,3.16-2.64s1.77-2.27,3.13-2.76"/><path class="cls-3" d="M85.85,71.9c-.64,2.09-1.67,1.31-2.8,3.58-.59,1.16-.44,3-1.36,4.25a19.74,19.74,0,0,1-3.11,3.16,13,13,0,0,1-3.77,2.28c-1.29.51-2.74,0-4.3-.11"/><path class="cls-3" d="M46.35,171.89c2,.45,1.88,1.08,3.91,1.53s2,.36,4.06.81,2,.49,4,.94,2.19-.33,4.22.11,1.85,1.25,3.87,1.7,1.92.92,4,1.37,2.18-.28,4.2.17,1.86,1.19,3.89,1.64,2.17-.22,4.19.22,2.08.24,4.1.69,2.12,0,4.15.49,2.23,2.81,3.64,1.29.16-2-.23-4.21-.68-2.15-1.07-4.35-1-2.09-1.44-4.3-.1-2.26-.49-4.46"/><path class="cls-3" d="M100.16,184.07a3.92,3.92,0,0,1-.89,5.41,4.12,4.12,0,0,1-5.57-.94,4.23,4.23,0,0,1,1-5.65A4,4,0,0,1,100.16,184.07Z"/><path class="cls-3" d="M34.34,85.26c-.49,2.1.19,1.79-.62,4.33-.38,1.18-.81,2.61-1.39,4.12-.48,1.26-2,2.19-2.66,3.58s-.72,2.78-1.41,4.1-1.5,2.43-2.27,3.68-1.33,2.56-2.2,3.72a41.35,41.35,0,0,1-2.55,3.54,30.75,30.75,0,0,1-3.33,2.83c-1.13.91-2.71,1.07-4,1.76s-2.3,1.79-3.69,2.21a19.67,19.67,0,0,1-4.24,1"/><path class="cls-3" d="M133.4,233c-.18,1.55-.45,3.1-.61,4.65s-.07,3.14-.21,4.69-.46,3.11-.58,4.66,0,3.16-.08,4.7,0,3.15-.1,4.69.25,3.17.17,4.71-.13,3.15-.19,4.68-.51,3.14-.57,4.67.41,3.18.37,4.7.06,3.18,0,4.68-.36,3.2-.38,4.68c0,1.69-.66,3.25-.67,4.68,0,1.79.06,3.36.06,4.68,0,3,.81,2.33.85,4.67"/><path class="cls-3" d="M107.47,161c1.15,1.92,1.23,1.2,2.72,3.57.68,1.07,1.84,2.11,2.75,3.53.75,1.16.6,3,1.48,4.37.78,1.18,2,2.17,2.87,3.46s2.2,2,3.07,3.3,1.32,2.68,2.2,3.91,1.68,2.44,2.57,3.64,1.46,2.64,2.36,3.82,1.73,2.45,2.65,3.61"/><path class="cls-3" d="M108.07,252.3c.84-1.27,1.89-2.51,2.79-3.86s1.31-3,2.18-4.28,2.61-2.17,3.46-3.43c1-1.45,1.07-3.34,1.85-4.49,1.61-2.39,1.88-1.44,2.58-3.72a20.08,20.08,0,0,0,.69-4.1c.35-2.11,1.21-2,1.55-4.07s.48-2.09.83-4.2.15-2.14.5-4.25-.58-2.42.21-4.41c1-2.5,1.83-2.14,3.23-4.45"/><path class="cls-3" d="M21.73,174.19c-1.35.75-2.91,1.17-4.1,2.21s-2.69,1.81-3.67,3.07a30.32,30.32,0,0,0-2.32,4.16,35.11,35.11,0,0,0-2.39,4.14,40.12,40.12,0,0,0-1.13,4.63c-.36,1.5.39,3.22.21,4.79a39.3,39.3,0,0,0-.49,4.62,40.42,40.42,0,0,0,.3,4.63c.15,1.54-.7,3.28-.37,4.82a43.77,43.77,0,0,0,1.63,4.47,43.73,43.73,0,0,0,1.71,4.39c.64,1.41,2,2.44,2.83,3.8a42.9,42.9,0,0,0,2.76,3.71c.92,1.24,1.09,3.1,2.17,4.27s2.77,1.88,3.84,3,1.49,3.06,2.56,4.22,2.27,2.34,3.33,3.5,2.42,2.2,3.48,3.37,2.63,2,3.69,3.18,1.29,3.22,2.36,4.39,2.43,2.18,3.51,3.34,2.81,1.81,3.9,3S47,263,48.08,264.17s3,1.54,4.16,2.69,2.19,2.34,3.34,3.49,2.35,2.16,3.52,3.3c1,1,1.37,2.61,2.45,3.34A22.38,22.38,0,0,0,65.12,279"/><path class="cls-3" d="M21.15,244.52c1.56-1.92,1.53-2,3.09-3.87s1.64-1.86,3.2-3.79,1.84-1.69,3.4-3.62,1.28-2.14,2.84-4.06,1.34-2.11,2.9-4,1.82-1.72,3.38-3.64,1.78-1.75,3.35-3.68,1.3-2.13,2.86-4.06"/><path class="cls-7" d="M45.45,214c-.83-2.21,2.43-1.67,4.17-3.46a12.08,12.08,0,0,1,3.57-2.67c1.53-.71,3.24-1.56,4.24.25.68,1.22-.12,3.43-.2,5.52a43.32,43.32,0,0,1,0,5.35c-.5,2.91,1.36,5.86-1.2,5.08-2.29-.68-1.29-2-2.93-3.71s-1.22-2.43-3.18-3.8C47.72,215.06,46.28,216.25,45.45,214Z"/><path class="cls-8" d="M45.45,214c-.83-2.21,2.43-1.67,4.17-3.46a12.08,12.08,0,0,1,3.57-2.67c1.53-.71,3.24-1.56,4.24.25.68,1.22-.12,3.43-.2,5.52a43.32,43.32,0,0,1,0,5.35c-.5,2.91,1.36,5.86-1.2,5.08-2.29-.68-1.29-2-2.93-3.71s-1.22-2.43-3.18-3.8C47.72,215.06,46.28,216.25,45.45,214Z"/><path class="cls-3" d="M64.5,255.29c2-1.3,2.11-1.1,4.09-2.39S70,250.7,72,249.4s2.18-1,4.16-2.3,2.31-.8,4.29-2.1,1.81-1.57,3.79-2.87,1.75-1.66,3.73-2.95,1.76-1.65,3.74-3,2.5-.51,4.49-1.81S98,233,99.51,231.18s-.29-1.26-.88-3.84c-.29-1.25.29-2.89,0-4.48-.24-1.37-1-2.73-1.21-4.24s-.6-2.9-.63-4.37.74-2.92.9-4.34-.19-3.1.28-4.4c.52-1.46,1.91-2.2,2.9-3.2"/><path class="cls-3" d="M102.88,214.54c.53-2.13,1.86-1.45,2.46-3.92.32-1.3.39-2.85.76-4.35s1.07-2.86,1.39-4.2c.41-1.79.69-3.38.88-4.34.22-1.14-.09-3,1-4.1a27.88,27.88,0,0,1,3.44-2.56,22.89,22.89,0,0,1,3.67-2.11"/><path class="cls-3" d="M116.35,215.54c.68-2.37-.3-2.65.38-5s1.79-2.05,2.46-4.42-.94-3.24.62-5.15c2-2.46,3.32-1,6-2.73"/><path class="cls-3" d="M111.54,210.32c.7-2.12-.52-2.53.18-4.65s.77-2.1,1.47-4.23-.06-2.86,1.41-4.55c2.09-2.39,3-1.64,5.63-3.37"/><path class="cls-3" d="M46.5,260.64c-1.53,1.83-2,1.42-3.53,3.25s-1.35,2-2.87,3.81-1.68,1.71-3.2,3.54-1.22,2.08-2.75,3.91-1.06,2.22-2.59,4.05-2.43,1.07-4,2.9-1,2.31-2.48,4.14-2,1.4-3.57,3.23-1.31,2-2.84,3.85-.92,2.34-2.45,4.17"/><path class="cls-3" d="M107.56,161a15.53,15.53,0,0,1,4.08.28c1.17.16,2.5.5,4,.85,1.23.3,2.73.12,4.11.6a39.16,39.16,0,0,1,3.69,1.89,36.3,36.3,0,0,1,3.66,1.88c1.13.7,1.75,2.15,2.85,3s2.53,1.17,3.52,2.18,1.35,2.35,2.22,3.47,2.11,1.79,2.84,3"/><path class="cls-3" d="M107,176.28c.49,1.21,0,1.12.44,2.63a26.13,26.13,0,0,1,1.16,2.41c.19.8.31,1.71.45,2.6s-.44,1.8-.4,2.68a18.69,18.69,0,0,1,.11,2.58,12.64,12.64,0,0,1-.35,2.58,8.83,8.83,0,0,1-1,2.42c-.48.7-1.41.93-2.16,1.45a7.62,7.62,0,0,1-2.16,1.28,10.81,10.81,0,0,1-2.48.91,23.65,23.65,0,0,1-2.62-.38c-.81-.05-1.69.05-2.61-.09s-1.64-.4-2.55-.61-1.7-.44-2.53-.64-1.77-.13-2.6-.32-1.76-.18-2.59-.38-1.67-.55-2.5-.74-1.67-.57-2.5-.77-1.79,0-2.62-.23-1.58-1-2.4-1.19-1.76-.22-2.58-.41-1.75-.29-2.57-.48-1.61-.86-2.43-1.05-1.92.44-2.73.26-1.58-1.12-2.38-1.31-1.84,0-2.64-.14-1.69-.7-2.47-.88c-.94-.21-1.73-.62-2.49-.79-1-.22-1.87-.29-2.57-.44-1.75-.39-1.37.19-2.64-.08"/><path class="cls-3" d="M116.71,90.8c-2,.92-2.12.68-4.12,1.6s-1.93,1.09-3.93,2-1.9,1.16-3.9,2.08-2.18.56-4.18,1.47"/><path class="cls-2" d="M79.85,103.91c.18,1.2.5,1.15.68,2.36s-.15,1.25,0,2.45.45,1.16.63,2.37.43,1.17.61,2.37,0,1.24.15,2.44,0,1.23.21,2.44"/><path class="cls-2" d="M74.87,117.12c-.18-1.2-.64-1.13-.82-2.33s-.2-1.2-.38-2.41.15-1.25,0-2.45-.42-1.17-.6-2.38.33-1.28.15-2.48-.45-1.17-.63-2.38"/><path class="cls-2" d="M63.59,102c.18,1.2-.34,1.28-.16,2.48s.57,1.15.75,2.35l.36,2.41c.17,1.2-.13,1.25,0,2.45s.62,1.14.8,2.35-.41,1.29-.24,2.5"/><path class="cls-3" d="M103,123.48c-3.28-1-2.93.46-7-.83-1.89-.61-4-1.75-6.41-2.54-2-.67-4.19-1.58-6.48-2.34-2.11-.7-4.61-.54-6.83-1.29-2.74-.93-3.76.38-3.17,3.83.34,2,2.31,3.94,3.56,6.38,1,2,.89,5.17,2.49,7.07a27.17,27.17,0,0,0,5.68,4.92c2,1.33,4.83,1.23,7.24,1.6a14.54,14.54,0,0,0,6.93-.93"/><path class="cls-3" d="M67.35,95.46c2.13.55,2,1,4.14,1.6s2.45-.65,4.58-.1,2.07.82,4.21,1.38,2,1,4.16,1.54"/><path class="cls-3" d="M141.18,111.12a22.92,22.92,0,0,1,1.72,4.34c.4,1.31.75,2.87,1.09,4.55a44,44,0,0,1,.16,4.66,29.55,29.55,0,0,1,.22,4.61c-.1,1.41.63,2.91.39,4.21s-1.56,2.57-1.9,3.8c-.41,1.49,0,3.08-.45,4.2-.88,2.35-2.63,1.59-2.46,3.64s1.71.94,3.38,3.08c.75,1,1.47,2.23,2.47,3.51.81,1,1.86,2,2.81,3.25s1.83,2.12,2.75,3.3.85,2.9,1.76,4.06,2.17,1.9,3.07,3,2.23,1.87,3.13,3,1.29,2.61,2.17,3.75,1.63,2.35,2.51,3.49,1.51,2.46,2.38,3.59,2.45,1.74,3.32,2.86,2,2.08,2.9,3.19,1.65,2.38,2.51,3.49,1.65,2.4,2.5,3.49a11.85,11.85,0,0,1,2.15,3.62,14.18,14.18,0,0,1,.12,4.18c0,1.3-1.2,2.44-1.56,3.78s.31,2.94-.3,4.17a24.64,24.64,0,0,1-2.05,3.58c-.78,1.08-2.33,1.57-3.3,2.52a23.53,23.53,0,0,1-3.2,2.35,21.49,21.49,0,0,1-3.55,1.7c-1.21.55-2.21,1.53-3.54,1.84a20,20,0,0,1-4,.23,19.13,19.13,0,0,1-3.91-.44c-1.27-.22-2.89.6-4.2.12s-1.87-2.23-3.1-2.91-2.93-.26-4.07-1.09-2-1.81-3-2.76"/><path class="cls-3" d="M137.3,133.47a20.24,20.24,0,0,0-3.5,2,33.86,33.86,0,0,0-3.4,2.17,26.14,26.14,0,0,0-3.28,2.48,15,15,0,0,0-2.18,3.53,8.51,8.51,0,0,0-.84,4.08"/><path class="cls-3" d="M118,148.86c.57,2-.19,2.5,1.58,3.9.92.73,2.58.8,4.25.87,1.53,1.51,1.33,1.75,2.42,3.61s1.11,1.84,2.2,3.7.5,2.2,1.58,4.06,1.45,1.65,2.54,3.51,1.56,1.58,2.64,3.44,0,2.52,1,4.38,1.33,1.72,2.42,3.57,1.47,1.64,2.56,3.5.69,2.09,1.78,3.95,1.75,1.47,2.84,3.33,1.22,1.79,2.31,3.65,0,2.49,1.11,4.35"/><path class="cls-3" d="M124.08,194c2.06-1.43,2.3-1.07,4.36-2.5s1.81-1.79,3.88-3.22,2.55-.71,4.61-2.14,1.58-2.13,3.65-3.56"/><path class="cls-3" d="M134.9,111c1,1.74.67,1.44,1.48,3.75a34.87,34.87,0,0,1,.88,3.92,29.18,29.18,0,0,1,.42,4,25.9,25.9,0,0,1,.15,4"/><path class="cls-9" d="M117.25,48.5c1.72-1.07,2.22-.26,4-1.33s1.43-1.54,3.15-2.6,1.87-.85,3.59-1.92,1.54-1.37,3.26-2.44,1.58-1.33,3.3-2.4,2.08-2.61,3.89-1.69,0,2.05,0,4,.23,1.92.15,3.84-.25,1.91-.33,3.82-2,2.71-.43,3.81,2-.56,3.93-1.15,1.87-.9,3.84-1.5,2.23.25,4.2-.34,2.92-3.63,4-1.87-1.63,1.73-2.95,3.4-1.45,1.57-2.76,3.25-1.52,1.51-2.83,3.19-1.22,1.76-2.53,3.44-.49,2.32-1.8,4-3.87,1-2.91,2.87,1.72-.47,3.69-.85,1.89-.82,3.86-1.2,2.1.3,4.07-.08S152.59,62,153,64c.48,2.14-1.56.88-3.32,2.19s-1.15,2.14-2.91,3.45-2,.94-3.8,2.25-2.3.59-4.07,1.9-1,2.34-2.77,3.65"/><path class="cls-10" d="M106.79,269.3c0,1.38-1.07,2.6-1.37,3.89a17,17,0,0,1-1.13,3.78,17.58,17.58,0,0,1-2.34,3.16c-.84,1.06-1.3,2.41-2.35,3.25s-2.47,1-3.7,1.57-2.2,1.57-3.53,1.87a18.23,18.23,0,0,1-4,.27,16.92,16.92,0,0,1-3.9-.74,16.91,16.91,0,0,1-3.76-1.15,17.44,17.44,0,0,1-3.51-1.9,18,18,0,0,1-2.77-2.89,17.3,17.3,0,0,1-1.84-3.52,16.66,16.66,0,0,1-1.3-3.69c-.3-1.3-1.16-2.52-1.16-3.9s.84-2.61,1.13-3.91.17-2.76.75-4,1.8-2,2.64-3.05a20.33,20.33,0,0,1,6.18-4.73c1.2-.58,2.13-1.87,3.46-2.17a19,19,0,0,1,4.08-.22,17.4,17.4,0,0,1,4,.62c1.34.3,2.87.13,4.08.71s1.93,2,3,2.88,2.66,1.18,3.51,2.24a19.71,19.71,0,0,1,2.22,3.52,19.06,19.06,0,0,1,1,4A18.31,18.31,0,0,1,106.79,269.3Z"/><path class="cls-11" d="M79.27,278.4c-1.23-1.23-1.49-2.95-2.11-4.46s-1.58-3-1.58-4.64a13.55,13.55,0,0,1,.51-5.08c.63-1.51,2.49-2.26,3.72-3.48s1.9-3.26,3.4-3.88,3.49-.28,5.16-.28,3.53-.23,5.09.42a13.59,13.59,0,0,1,4,3.24,13.47,13.47,0,0,1,3.18,4,13.67,13.67,0,0,1,1,5.07c0,1.66-.84,3.31-1.49,4.87s-2,2.47-3.19,3.69a12.12,12.12,0,0,1-3.76,3,12.5,12.5,0,0,1-4.8,1,12.22,12.22,0,0,1-4.75-1.14A12.45,12.45,0,0,1,79.27,278.4Z"/><path class="cls-2" d="M20.85,318.09c1.58,1.36,1.5,1.46,3.08,2.82s2.09.77,3.67,2.13,1.08,1.95,2.66,3.31,2.15.71,3.73,2.07,1.65,1.29,3.23,2.65,1.8,1.11,3.38,2.47,1,2.09,2.54,3.45,1.82,1.09,3.4,2.45,1.7,1.23,3.28,2.59,1.22,1.79,2.8,3.15,1.72,1.2,3.3,2.56,2.07.79,3.66,2.16.78,2.29,2.36,3.65,1.54,1.41,3.12,2.78,1.7,1.22,3.28,2.58,2.21.64,3.79,2,.93,2.12,2.51,3.48,1.87,1,3.46,2.39,1.46,1.5,3,2.86,1.4,1.58,3,2.94,2,.84,3.62,2.2,1.45,1.51,3,2.87,1.23,1.77,2.81,3.14,2.09.76,3.68,2.13,1.59,1.34,3.17,2.71,1.6,1.34,3.18,2.7,1.5,1.45,3.09,2.81,1.25,1.74,2.83,3.1,2,.89,3.58,2.25,1.24,1.75,2.83,3.11,1.93,1,3.51,2.32,1.05,2,2.63,3.34,1.66,1.28,3.24,2.64,1.43,1.53,3,2.89,2.12.74,3.7,2.1,1.59,1.34,3.17,2.7,1,2,2.61,3.37,2.14.71,3.72,2.07,1.47,1.5,3.05,2.86,1.53,1.43,3.11,2.79l3.17,2.72c1.58,1.37,1.34,1.65,2.92,3s1.53,1.42,3.11,2.78,2.14.72,3.72,2.08,1.54,1.41,3.12,2.77,1.14,1.87,2.73,3.23,1.69,1.24,3.27,2.6,2.08.79,3.66,2.15,1.37,1.62,2.95,3,1.82,1.08,3.4,2.44.78,2.3,2.36,3.66,2,.9,3.57,2.26,1.92,1,3.51,2.33.86,2.2,2.44,3.57,2.08.78,3.66,2.14,1.4,1.58,3,2.94,1.83,1.08,3.41,2.45,1.23,1.78,2.81,3.14,1.62,1.32,3.2,2.69,1.53,1.43,3.11,2.79,1.36,1.62,2.95,3,1.88,1,3.47,2.37,2,.85,3.61,2.21,1,2,2.59,3.4,1.62,1.32,3.2,2.69,2,.86,3.6,2.22,1.1,1.94,2.68,3.3,2,.86,3.6,2.22,1.4,1.58,3,2.94,1.32,1.66,2.9,3,1.81,1.1,3.39,2.46,1.66,1.27,3.25,2.63,1.39,1.58,3,2.95l3.15,2.73c1.59,1.37,1.63,1.32,3.21,2.69s1.86,1,3.44,2.41,1.27,1.73,2.85,3.1,2.14.72,3.73,2.08,1.1,1.92,2.69,3.29,1.41,1.56,3,2.92,1.73,1.19,3.32,2.56,2.18.67,3.76,2,.89,2.18,2.48,3.54,1.81,1.1,3.4,2.46,1.32,1.68,2.91,3,2.23.62,3.82,2,.93,2.13,2.52,3.49"/><path class="cls-2" d="M287.39,23.32c-2.07,0-2.07,0-4.14,0s-2.07.94-4.15.94-2.07-.49-4.14-.49-2.07-.45-4.14-.45-2.07.65-4.15.65-2.07-.32-4.14-.32-2.07-.29-4.14-.29-2.08,1-4.15,1-2.07-.83-4.14-.83S248,24,246,24s-2.07.13-4.14.13-2.08-.78-4.15-.78-2.07,0-4.14,0-2.07,1.13-4.14,1.13-2.07-.12-4.14-.12-2.08-.9-4.15-.9S219,24.56,217,24.56s-2.07-.06-4.15-.06-2.07-.46-4.15-.46-2.07-.63-4.14-.63-2.08-.13-4.15-.13-2.07.24-4.15.24-2.07.78-4.14.78-2.08-1.11-4.15-1.11-2.08,1.11-4.16,1.11-2.07-.66-4.15-.66"/><path class="cls-11" d="M346,158.18c-.38,1.89,1.78.91,3.18,2.24s1.21,1.53,2.61,2.86,1.24,1.35,2,3.13a6.86,6.86,0,0,1,.77,3.91c.06,2.08-.07,2.09,0,4.17s-.39,2.1-.34,4.19,1.26,2,1.31,4.14-.64,2.1-.59,4.19.26,2.08.31,4.17-.83,2.11-.78,4.19.64,2.07.69,4.16-.13,2.09-.08,4.17,0,2.09,0,4.18.06,2.08.11,4.17.48,2.07.53,4.16-.37,2.09-.32,4.18.49,2.08.54,4.16-.08,2.09,0,4.18.05,2.09.11,4.18.39,2.08.44,4.16-.39,2.1-.33,4.19.83,2.07.89,4.15-.39,2.1-.33,4.19.12,2.09.18,4.18-.53,2,.51,3.84.86,2,2.66,3.16,2.36.28,4.16,1.44,1.29,3.13,3.37,2.65.86-2.15,2.14-4,1.79-1.51,3.07-3.38,1.41-1.71,1.91-3.92c.45-2.05.09-1.91-.32-4s-.77-2-1.18-4.05.4-2.22,0-4.28-.88-2-1.29-4-.58-2-1-4.09.42-2.22,0-4.28-1-2-1.41-4,.29-2.19-.12-4.25-.76-2-1.16-4.05-1.07-1.93-1.47-4,.08-2.15-.33-4.21,0-2.15-.39-4.21-1.56-1.83-2-3.89.52-2.25.12-4.31,0-2.14-.43-4.2-1.31-1.88-1.71-3.94-.25-2.09-.66-4.16-.73-2-1.14-4.05,0-2.14-.43-4.21-.33-2.08-.74-4.14-1.16-2-.86-4.11c.26-1.73,1.28-1.24,2.21-2.72s2-1.53,1.71-3.25c-.31-1.88-1.2-1.73-2.58-3s-1.38-1.33-2.77-2.64-1.3-1.88-3.21-1.94c-2.26-.07-1.44,2.07-3.56,2.85C347.77,157.24,346.44,156,346,158.18Z"/><path class="cls-1" d="M324.12,191.57c1.61,2.46,2.37-.54,5.28-1l5.82-.85c2.91-.42,2.87-.66,5.79-1.09s5.69,2.77,6.38-.09-3.13-1.67-5.47-3.62-1.91-2.46-4.25-4.41-1.74-4-4.75-3.52-1.1,2.56-2.63,5.08-2,2.12-4.1,4.2S322.5,189.1,324.12,191.57Z"/><path class="cls-3" d="M303,19c.8,1.14.82,1.13,1.63,2.27s.88,1.09,1.68,2.23.86,1.11,1.66,2.25.42,1.41,1.23,2.56,1.35.76,2.15,1.9"/><path class="cls-3" d="M296.42,25.83c1.23.37,1.25.27,2.48.64s1.24.32,2.47.69,1.22.39,2.44.77,1.05,1,2.27,1.34,1.45-.35,2.68,0,1,1,2.27,1.37"/><path class="cls-3" d="M371.59,15a22.77,22.77,0,0,0-2,1.5,22,22,0,0,0-1.43,2,20.53,20.53,0,0,0-1.09,2.21c-.45.72-1.36,1.15-1.7,1.86s-.55,1.61-.81,2.34a20.77,20.77,0,0,0-.5,2.41A18.17,18.17,0,0,0,364,29.8c-.18,1.49-.84,1.18-.79,2.4"/><path class="cls-2" d="M336.25,93.16c-.18,1.2.36,1.28.18,2.48s-.36,1.18-.54,2.38-.61,1.14-.79,2.34.15,1.26,0,2.46.21,1.27,0,2.47-1,1.08-1.2,2.29"/><path class="cls-2" d="M343.5,106.51c.18-1.2-.22-1.26,0-2.46s.36-1.18.54-2.38-.14-1.25,0-2.46.78-1.11,1-2.32-.4-1.29-.22-2.5.74-1.12.92-2.32"/><path class="cls-2" d="M353.73,91.46c-.18,1.2-.42,1.17-.6,2.37s-.51,1.15-.69,2.35.18,1.26,0,2.47-.19,1.2-.37,2.4-.76,1.12-.94,2.33.22,1.26.05,2.47"/><path class="cls-1" d="M330.64,278.79c-1.55,1.43-.28,2.12-.71,4.18s-.49,2-.92,4.1-.95,1.95-1.38,4-.28,2.09-.71,4.15.47,2.25,0,4.3-1.43,1.85-1.86,3.91.41,2.24,0,4.29-1.28,1.88-1.71,3.94.39,2.23,0,4.28-.64,2-1.07,4.07-.22,2.1-.66,4.16-.29,2.09-.72,4.15-1.52,1.83-1.95,3.88.1,2.18-.33,4.23.16,2.19-.27,4.25-1,1.94-1.44,4-.59,2-1,4.09-.76,2-1.19,4.05.4,2.23,0,4.29-.11,2.13-.54,4.19-2.3,1.92-1.11,3.66,1.59.19,3.6.43,2,0,4,.21,2,.63,4,.88,1.89,1.21,3.9,1.46,2.15-1,4.16-.72,2,.13,4,.37,1.91,1.1,3.92,1.34,2,.48,4,.72,2,.52,4,.76,2.08-.35,4.09-.1,2,.52,4,.77,2,.4,4,.65,2.15-1,4.17-.71,1.84,1.6,3.85,1.85,2.17-1,4.18-.77,2.09,1.94,3.75.77.48-1.86,1.05-3.93,1-2,1.56-4,0-2.24.53-4.31,1.51-1.82,2.08-3.9.24-2.16.81-4.24.31-2.14.88-4.22,1-2,1.55-4,.53-2.09,1.1-4.16-.37-2.33.2-4.41,1.45-1.84,2-3.92-1.28-4.06.87-4.06,0,2.1.58,4.17,1.8,1.72,2.41,3.8.35,2.15,1,4.23.18,2.2.79,4.28.71,2,1.32,4.12,1,2,1.61,4,.28,2.17.9,4.24.35,2.15,1,4.23,1,2,1.57,4.05.63,2.08,1.24,4.15-.62,2.88,1.06,4.24,2.1.15,4.16.25,2.07-.16,4.14-.07,2.06.19,4.12.28,2,.4,4.11.5,2.1-.71,4.17-.62,2,1,4.09,1.09,2.07,0,4.13.13,2.09-.35,4.15-.25,2.06.2,4.13.3,2.08-.19,4.14-.09,2.06.14,4.13.24,2.08-.11,4.14,0,2.06.43,4.12.53,2,.47,4-.14.42-1,.35-3.65c0-1.15,0-2.52-.08-4.1,0-1.25-1-2.59-1.07-4.08,0-1.28.6-2.67.56-4.12s.32-2.69.28-4.12,0-2.68-.08-4.1-1.11-2.67-1.16-4.08.63-2.72.59-4.12-.89-2.68-.93-4.08,1.16-2.75,1.12-4.15-.17-2.71-.21-4.1-.68-2.7-.73-4.08-.08-2.72-.13-4.11-.18-2.72-.22-4.1-.4-2.72-.45-4.1.78-2.76.73-4.14-.89-2.71-.94-4.09.93-2.83.81-4.16-.54-2.76-.74-4.07-1.43-2.54-1.72-3.84-.33-2.75-.71-4-.11-2.89-.56-4.14-2.11-2.14-2.64-3.35-.11-3-.71-4.2-1.5-2.41-2.17-3.51-2.18-2-2.91-3c-.92-1.27-.9-3.05-1.65-3.93-1.67-2-1.24-2.95-3.28-3.14s-2.06,1.28-4.11,1.53-2.1-.06-4.15.19-2.12-.25-4.17,0-2,.64-4.07.89-2.13-.42-4.19-.17-1.91,1.41-4,1.66-2.19-.86-4.24-.61l-4.11.5c-2.06.25-1.9,1.59-3.95,1.84s-2.12-.24-4.17,0-2.15-.5-4.21-.25-1.92,1.32-4,1.57-2.17-.69-4.22-.44-2.07.13-4.13.38-1.92,1.34-4,1.59-2.06.23-4.11.48-2.17-.66-4.23-.41-2,.38-4.09.64-1.95,1.11-4,1.36-2.16-.61-4.22-.36-2,.81-4,1.06-2.12-.22-4.17,0-2.13-.31-4.19-.06-2,.62-4.06.87-1.95,1.19-4,1.44-2.07-.65-4.14-.79S332.16,277.38,330.64,278.79Z"/><path class="cls-3" d="M339.08,137c-.81.36-1.48,1-2.27,1.33s-1.7.49-2.5.77-1.61.79-2.42,1-1.66.67-2.48.88-1.8.07-2.63.23-1.75.3-2.59.39-1.76.35-2.6.37a24.68,24.68,0,0,1-2.63-.18,22.91,22.91,0,0,1-2.57-.51,20.13,20.13,0,0,1-2.51-.69,19.74,19.74,0,0,1-2.5-.81c-.78-.39-1.24-1.29-1.95-1.78s-1.7-.62-2.35-1.21a22.09,22.09,0,0,1-1.65-2,23.55,23.55,0,0,1-1.49-2.12c-.48-.7-.79-1.5-1.23-2.28s-.87-1.45-1.24-2.26-1.3-1.31-1.62-2.14-.38-1.7-.65-2.54-.49-1.66-.72-2.51-.7-1.61-.9-2.48.07-1.77-.1-2.64-.06-1.73-.2-2.6-.28-1.69-.4-2.56-.85-1.64-.94-2.52.11-1.75,0-2.63.43-1.76.38-2.63-.9-1.68-.94-2.56-.09-1.73-.11-2.61.28-1.74.27-2.62.43-1.73.43-2.61-.05-1.72,0-2.6-.05-1.73,0-2.61-.15-1.73-.12-2.61-.4-1.8-.37-2.66.8-1.75.83-2.6-.33-1.81-.29-2.66.17-1.78.22-2.64.23-1.77.28-2.63.19-1.77.25-2.62,0-1.79.09-2.64.39-1.77.46-2.61-.61-1.86-.53-2.69.42-1.78.51-2.61,0-1.83.09-2.65.73-1.73.87-2.54-.12-1.9.06-2.68a23.21,23.21,0,0,1,1.15-2.43,25.27,25.27,0,0,1,.61-2.6c.43-.88,1.39-1.29,1.88-1.93a15.44,15.44,0,0,1,1.48-2.18c.61-.56,1.17-1.24,1.87-1.85s1.24-.73,1.93-1.4a3.92,3.92,0,0,0-2.07-1.15c-1.15-.4-1.23-.15-2.38-.55s-1.26-.08-2.41-.48-.88-1.17-2-1.57-1.21-.23-2.36-.63-1.25-.14-2.4-.54"/><path class="cls-3" d="M320.17,75.44c-.69-1.18-.82-.89-2.11-1.88a9.92,9.92,0,0,0-2.42-1.32,10.44,10.44,0,0,0-2.68-.76c-.7-.08-1.55,0-2.47,0-.77-.07-1.57-.49-2.43-.55s-1.64.08-2.48,0-1.66.19-2.48.14-1.67,0-2.48,0-1.64-.68-2.42-.73-1.73,0-2.48,0c-1-.06-1.83-.29-2.44-.34a5,5,0,0,0-2.55,1,7.25,7.25,0,0,0-2.26,1.5,11.8,11.8,0,0,0-1.05,2.49,13.16,13.16,0,0,0-.93,2.47,14.85,14.85,0,0,0-.55,2.62,21.57,21.57,0,0,0,.12,2.69,19.74,19.74,0,0,0,.54,2.63,23.09,23.09,0,0,0,1.73,5.08A15.84,15.84,0,0,0,290,92.58,14.77,14.77,0,0,0,292.25,94c.69.53,1.23,1.38,2,1.78a17.48,17.48,0,0,0,2.61.66,17.27,17.27,0,0,0,2.51,1,22.57,22.57,0,0,0,2.67.39c.95,0,1.82.1,2.62.14,1,0,1.85-.49,2.64-.47,1,0,1.85.17,2.62.12a10.21,10.21,0,0,0,2.61-.34c.85-.3,1.27-1.08,1.88-1.76s1.38-1,1.84-1.89"/><path class="cls-3" d="M372.76,80.14c.77-1,.43-1,1.62-2a13,13,0,0,1,2-1.68,13.78,13.78,0,0,1,2.42-1,13.09,13.09,0,0,1,2.57-.57c.8-.1,1.67.55,2.58.61a14.66,14.66,0,0,1,2.59-.1,19.28,19.28,0,0,1,2.4,1,14,14,0,0,1,2.39,1.2,11.93,11.93,0,0,1,1.81,2c.63.65,1.49,1.07,2,1.83a14.3,14.3,0,0,1,.85,2.54,15.66,15.66,0,0,1,.85,2.5A17.92,17.92,0,0,1,397.3,89a19.81,19.81,0,0,1-.12,2.66,22.09,22.09,0,0,1,0,2.7,23.26,23.26,0,0,1-.93,2.53,24.26,24.26,0,0,1-.72,2.6,22.1,22.1,0,0,1-1.08,2.48c-.48.78-1.35,1.27-1.92,1.94a13.43,13.43,0,0,1-2.06,1.65c-.7.58-1.18,1.41-2,1.8a23.61,23.61,0,0,1-2.35.71c-.82.34-1.44,1-2.16,1.18a14.3,14.3,0,0,1-2.45.17,17.94,17.94,0,0,1-2.37.58,12.73,12.73,0,0,1-2.49,0c-1.51-.39-1-.74-1.87-1.57"/><path class="cls-3" d="M341.19,99.55a20.24,20.24,0,0,1-2.52-.45,15.13,15.13,0,0,1-2.34-1,14.83,14.83,0,0,1-2.36-.85,13.1,13.1,0,0,1-2.31-1.15,11.44,11.44,0,0,1-1.59-2c-.5-.68-.46-1.67-.82-2.42a15.87,15.87,0,0,1-1.22-2.2,19.38,19.38,0,0,1-.16-2.52c-.12-.85-.56-1.65-.59-2.46s-.3-1.76-.23-2.55.95-1.66,1.09-2.38-.19-1.82.11-2.5a8.52,8.52,0,0,1,1.44-2,7.16,7.16,0,0,1,1.91-1.55c.72-.43,1.62-.2,2.4-.38a8.57,8.57,0,0,1,2.32-.34c.87,0,1.81-.58,2.74-.52s1.75.7,2.66.76,1.83-.35,2.73-.3,1.79.42,2.68.48,1.85-.34,2.73-.3,1.8,1,2.65,1,1.9-.48,2.72-.46a10.82,10.82,0,0,1,2.54.69,7.4,7.4,0,0,1,2.3,1.06A6,6,0,0,1,362,76.78a6.13,6.13,0,0,1,.47,2.51,7.61,7.61,0,0,1,.39,2.59,18.74,18.74,0,0,1-1,2.51,20.65,20.65,0,0,1-1.42,2.28c-.43.79-.45,1.81-1,2.54a24.38,24.38,0,0,1-1.79,2,26.2,26.2,0,0,1-1.9,1.9c-.68.6-1.58.88-2.3,1.4s-1.11,1.6-1.88,2a22.57,22.57,0,0,1-2.61.83,24.84,24.84,0,0,1-2.43,1.2,18.39,18.39,0,0,1-2.67.45A15.26,15.26,0,0,1,341.19,99.55Z"/><path class="cls-3" d="M311,14.63a21.41,21.41,0,0,0,1.21,2.28c.33.65.94,1.29,1.43,2.16.39.68.83,1.41,1.32,2.21s.7,1.52,1.2,2.29,1.16,1.24,1.68,2,1,1.32,1.56,2,.88,1.45,1.43,2.15.78,1.54,1.35,2.23,1.12,1.28,1.7,2,1.45,1,2,1.63,1,1.4,1.59,2,.92,1.49,1.54,2.11,1.44,1,2.08,1.57,1.12,1.31,1.77,1.89,1.52.86,2.19,1.43,1.32,1.08,2,1.63.91,1.61,1.6,2.15,1.55.79,2.25,1.31,1.33,1.1,2,1.6,1.51.84,2.23,1.33,1.54.78,2.28,1.25,1.38,1,2.13,1.47,1.23,1.29,2,1.73,1.68.52,2.45.94,1.53.72,2.26,1.1,1.47.81,2.21,1.18,1.62.5,2.37.85,1.48.8,2.24,1.14,1.45.87,2.22,1.18,1.58.56,2.35.86,1.59.52,2.38.8,1.58.51,2.38.77,1.53.69,2.33.92,1.54.7,2.35.92,1.75-.11,2.57.09,1.62.35,2.44.53,1.62.36,2.44.53,1.55.73,2.38.89"/><path d="M299,36.26c-.48.75-1.12,1.11-1.54,1.85s-.93,1.52-1.31,2.28-.3,1.81-.64,2.59-.77,1.59-1.06,2.38-.28,1.76-.52,2.57-1,1.57-1.17,2.39.17,1.83,0,2.65-.24,1.75-.31,2.57-.13,1.78-.14,2.57c0,1-.44,1.88-.38,2.62a13.89,13.89,0,0,0,.46,2.68c1.36-.54,1.32-.65,2.68-1.19a7.09,7.09,0,0,0,2.55-1.3c1-.78.13-.76.28-2.35.07-.74.39-1.57.55-2.53.13-.78.18-1.64.39-2.53s.39-1.64.65-2.49.3-1.7.62-2.53.44-1.68.82-2.48,1.33-1.23,1.78-2,.68-1.59,1.19-2.29.76-1.61,1.34-2.27,1.39-.83,2-1.43c-1.24-.71-1.35-.33-2.74-.65s-1.36-.5-2.76-.85A6.64,6.64,0,0,0,299,36.26Z"/><path class="cls-3" d="M299,36.26c-.48.75-1.12,1.11-1.54,1.85s-.93,1.52-1.31,2.28-.3,1.81-.64,2.59-.77,1.59-1.06,2.38-.28,1.76-.52,2.57-1,1.57-1.17,2.39.17,1.83,0,2.65-.24,1.75-.31,2.57-.13,1.78-.14,2.57c0,1-.44,1.88-.38,2.62a13.89,13.89,0,0,0,.46,2.68c1.36-.54,1.32-.65,2.68-1.19a7.09,7.09,0,0,0,2.55-1.3c1-.78.13-.76.28-2.35.07-.74.39-1.57.55-2.53.13-.78.18-1.64.39-2.53s.39-1.64.65-2.49.3-1.7.62-2.53.44-1.68.82-2.48,1.33-1.23,1.78-2,.68-1.59,1.19-2.29.76-1.61,1.34-2.27,1.39-.83,2-1.43c-1.24-.71-1.35-.33-2.74-.65s-1.36-.5-2.76-.85A6.64,6.64,0,0,0,299,36.26Z"/><path class="cls-3" d="M297.18,62.54a15.26,15.26,0,0,0,2.43-.66c.7-.24,1.48-.59,2.33-1s1.77-.17,2.54-.59A20.7,20.7,0,0,0,306.69,59c.69-.51.92-1.55,1.48-2.17a8.12,8.12,0,0,0,1.41-2"/><path class="cls-3" d="M321.21,83.57c-.56,1.17-1,.64-1.68,2.06-.32.67-.5,1.56-.93,2.42s-.73,1.51-1.13,2.32-.38,1.72-.76,2.51-.66,1.61-1,2.38-1.31,1.32-1.68,2.06-.44,1.8-.79,2.5c-.49,1-1.37,1.49-1.66,2a7.83,7.83,0,0,0-.9,2.49,3,3,0,0,0,1,2.44,14,14,0,0,0,2.19,1.35c.62.41,1,1.42,1.82,1.93"/><path class="cls-3" d="M376.87,99.74c.89-1,.77-1.13,1.66-2.15s1-.91,1.91-1.93,1-.92,1.9-1.94.75-1.14,1.64-2.17,1.08-.85,2-1.87.52-1.34,1.41-2.36.85-1.07,1.74-2.09,1.12-.82,2-1.84,1.14-.81,2-1.84.76-1.14,1.65-2.17,1.08-.86,2-1.88"/><path class="cls-3" d="M323.41,22.17c.82-.21,1.63-.44,2.46-.62s1.51-1.11,2.35-1.26,1.7-.19,2.54-.32,1.7-.15,2.54-.26,1.7-.17,2.55-.25,1.72.2,2.57.14,1.7,0,2.54,0,1.69-.66,2.53-.67,1.71.18,2.56.19,1.69.35,2.54.39,1.71-.1,2.55,0,1.72-.11,2.56,0,1.74-.05,2.57.06,1.62.75,2.45.89,1.78-.19,2.6,0,1.64.55,2.46.75,1.52.91,2.32,1.14,1.74.19,2.52.46,1.68.42,2.45.74,1.4,1.05,2.14,1.42,1.69.45,2.39.84,1.22,1.26,1.9,1.7,1.76.44,2.41.91,1.14,1.33,1.76,1.84,1.17,1.24,1.74,1.79,1.72.74,2.24,1.34.53,1.8,1,2.43a23.07,23.07,0,0,1,1.31,2.09c.48.84,1.5,1.26,1.78,1.91.62,1.47-.32,3.5.63,2.69s.56-1.41,1.34-2.59.89-1.11,1.66-2.3,1-1.06,1.74-2.25.92-1.1,1.7-2.28"/><path class="cls-3" d="M396.23,77c.95-.88.57-.62,1.37-2.06a13.1,13.1,0,0,0,1.15-2.26,17.52,17.52,0,0,0,.73-2.45,25.15,25.15,0,0,0,.13-2.56,22.63,22.63,0,0,0,.58-2.57c0-.82-.64-1.63-.74-2.54s.42-1.75.25-2.65-.8-1.55-1-2.43.08-1.78-.18-2.64-.86-1.52-1.16-2.36-.44-1.66-.78-2.49"/><path class="cls-3" d="M356.24,45.65a22.44,22.44,0,0,0,2.16,1.23c.69.49,1.18,1.24,1.86,1.63a20.72,20.72,0,0,0,2.28.94,19.58,19.58,0,0,0,2.43.41c.82.25,1.45,1.09,2.22,1.23a22.93,22.93,0,0,0,2.47,0,16.37,16.37,0,0,0,2.43-.38,13.84,13.84,0,0,1,2.79.22"/><path d="M343.78,134.68c-.07,1.47-.42,1.48-.14,2.92a6,6,0,0,0,1,2.75c.63,1.09.86-.08,2.28-.68.67-.29,1.55-.46,2.38-.88s1.41-.88,2.17-1.34,1.14-1.27,1.85-1.77,1.71-.53,2.35-1.09a21.65,21.65,0,0,0,1.54-2.06,17,17,0,0,0,1.8-1.8c.52-.75.58-1.75,1-2.45s1.55-1.18,1.94-1.89.69-1.7,1-2.42a24.09,24.09,0,0,0,.65-2.56c.36-1,.78-1.73.95-2.43.43-1.67,1.64-2.24.39-2.6s-.71.67-1.84,1.84c-.51.53-.86,1.4-1.56,2.09s-1.34,1-2,1.62-1.19,1.19-1.86,1.8-1.59.73-2.27,1.31-1,1.46-1.67,2-1.55.78-2.24,1.32-1.09,1.38-1.78,1.91-1.52.82-2.23,1.33-1.44.91-2.16,1.39S344.51,134.22,343.78,134.68Z"/><path class="cls-3" d="M343.78,134.68c-.07,1.47-.42,1.48-.14,2.92a6,6,0,0,0,1,2.75c.63,1.09.86-.08,2.28-.68.67-.29,1.55-.46,2.38-.88s1.41-.88,2.17-1.34,1.14-1.27,1.85-1.77,1.71-.53,2.35-1.09a21.65,21.65,0,0,0,1.54-2.06,17,17,0,0,0,1.8-1.8c.52-.75.58-1.75,1-2.45s1.55-1.18,1.94-1.89.69-1.7,1-2.42a24.09,24.09,0,0,0,.65-2.56c.36-1,.78-1.73.95-2.43.43-1.67,1.64-2.24.39-2.6s-.71.67-1.84,1.84c-.51.53-.86,1.4-1.56,2.09s-1.34,1-2,1.62-1.19,1.19-1.86,1.8-1.59.73-2.27,1.31-1,1.46-1.67,2-1.55.78-2.24,1.32-1.09,1.38-1.78,1.91-1.52.82-2.23,1.33-1.44.91-2.16,1.39S344.51,134.22,343.78,134.68Z"/><path class="cls-3" d="M368.39,60.67c0,1.29.25,1.29.23,2.58s.18,1.29.16,2.57-.17,1.29-.2,2.58-.19,1.28-.22,2.57.33,1.29.3,2.58-.62,1.28-.64,2.57.15,1.3.13,2.59"/><path class="cls-3" d="M301.82,86.07c1.13-.46,1.09-.55,2.21-1s1.33,0,2.45-.45,1-.65,2.18-1.11,1-.86,2.09-1.32,1.28-.1,2.4-.56,1.06-.64,2.18-1.1"/><path class="cls-3" d="M336,146.66c.3,1.74-.51,1.88-.21,3.63s.74,1.67,1,3.42-.89,3,.75,3.66,1.91-.83,3.55-1.77,1.38-1.4,3-2.35,1.91-.49,3.55-1.44,1.24-2.46,3.13-2.28,1.73.95,3.15,2.18,1.21,1.49,2.63,2.72,1.27,1.42,2.7,2.65,1.14,3.33,3,3,1.34-2,2.41-3.67,1.29-1.51,2.36-3.16.91-1.75,2-3.4.84-1.8,1.91-3.45,1.41-1.43,2.48-3.08,0-2.33,1.09-4,1-1.68,2.11-3.33,1.65-1.28,2.72-2.93.44-2.07,1.51-3.73"/><path class="cls-3" d="M337.26,80.88c1.14.42,1.3,0,2.44.42s.93,1,2.07,1.41,1.12.49,2.26.91,1.15.4,2.29.83,1.3,0,2.45.4,1.15.4,2.29.82"/><path class="cls-3" d="M343,57.38s.36,1.34.72,3a6.89,6.89,0,0,1,.21,3.23,3.09,3.09,0,0,1-2.5,1.94,3.77,3.77,0,0,1-3.14-.67,3.12,3.12,0,0,1-1.49-2.63c-.12-1.11-.62-2.38-.42-3.48a8.62,8.62,0,0,1,1.06-3.2"/><path class="cls-3" d="M319.24,128.13c.55-1.14.12-1.35.68-2.48s.51-1.16,1.07-2.3.65-1.09,1.21-2.23.64-1.09,1.2-2.23.35-1.24.9-2.38.36-1.24.92-2.37,2.43-1.2,1.5-2.07-1.35.16-2.54.7-1.11.76-2.31,1.3-1.09.77-2.29,1.32-1.42.07-2.62.62-1.1.76-2.3,1.3-1.19.57-2.4,1.11-1,1-2.22,1.49"/><path class="cls-3" d="M391.4,62.45a20.67,20.67,0,0,0,2.39.32,23.57,23.57,0,0,0,2.4.31,19.45,19.45,0,0,0,2.39-.46c.84-.12,1.78.42,2.53.22a21.19,21.19,0,0,0,2.3-.93,22.26,22.26,0,0,0,2.23-1,21.5,21.5,0,0,0,2.08-1.29,7.81,7.81,0,0,0,1.77-1.45"/><path class="cls-3" d="M404.43,74.08c2.12.6,1.91.07,3.79,1.78A10.39,10.39,0,0,1,411,79.22a9.41,9.41,0,0,1,.77,4.66,12.13,12.13,0,0,1-1.1,4.63c-.65,1.36-1.43,2.75-2.17,4.26-.6,1.23-1,2.63-1.72,3.88s-2.31,2-2.8,3.35-.13,2.82-.19,4.3a12.48,12.48,0,0,0,.51,4.11c.39,1.25,1.52,2.28,2.3,3.63a39.57,39.57,0,0,0,2.1,3.76c.92,1.25,1.7,2.52,2.54,3.52,1.64,1.93,1.06,2,2.58,3.52"/><path class="cls-3" d="M418.85,59.52c1.87,1.13,1.13.94,3,3a26,26,0,0,1,2.92,3.16,38.81,38.81,0,0,1,2.26,3.69c.64,1.17,1.9,2.19,2.51,3.62.54,1.25.41,2.87.9,4.33s1.26,2.44,1.58,3.61a18.8,18.8,0,0,1,1.14,3.84c.06,1.15-1.12,2.4-1.28,3.89a33.52,33.52,0,0,1-.24,3.89c-.24,1.26-1,2.36-1.28,3.53s.14,2.66-.13,3.79c-.33,1.35-1.39,2.38-1.66,3.41-.59,2.22-.37,1.8-.9,3.58"/><path class="cls-3" d="M413.83,122.67c.28,2.08,1.21,2,1.49,4s-.71,2.21-.43,4.28.82,2,1.09,4.07-.59,2.19-.32,4.27.92,2,1.2,4.06.76,2,1,4.08.33,2.07.61,4.14-.18,2.14.1,4.21.17,2.09.45,4.16-.37,2.16-.09,4.24,1.1,2,1.38,4,.77,2,1,4.09,0,2.12.25,4.19"/><path class="cls-3" d="M385,124.74c1.57-1.29,1.56-.52,3.75-1.52a18,18,0,0,1,3.7-1.49c1.23-.28,2.52-1.3,4-1.29,1.28,0,2.61.78,4,1.13a18.79,18.79,0,0,1,3.74,1.51,23.77,23.77,0,0,1,3.34,2.24c1,.76,2.59,1,3.62,2.05s1.06,2.57,2,3.7,1.47,2.13,2.26,3.33"/><path class="cls-3" d="M418.91,119.56c1.79-1.09,1.73-1.2,3.52-2.28s1.78-1.11,3.58-2.19,2-.79,3.78-1.88,1.84-1,3.64-2.09"/><path class="cls-3" d="M418,83.52c-.08-.85.2-1.73.07-2.49s-.57-1.62-.78-2.36a22,22,0,0,0-.72-2.36,21.19,21.19,0,0,0-.91-2.32c-.42-.77-1.28-1.22-1.74-1.82a14.46,14.46,0,0,0-1.81-1.61,16.92,16.92,0,0,0-1.73-1.7c-1.26-.82-1.07-.43-2.25-.76"/><path class="cls-3" d="M424.92,80.82c-.19-.88-.92-1.6-1.15-2.4s-.7-1.62-1-2.4,0-1.9-.34-2.66-.6-1.71-1-2.43-.95-1.56-1.4-2.24S418.5,67.6,418,67a21.53,21.53,0,0,0-1.78-1.86,23.82,23.82,0,0,0-1.83-1.82A6.47,6.47,0,0,0,412.15,62"/><path class="cls-3" d="M431.22,112.66A20.28,20.28,0,0,0,433,111a20.76,20.76,0,0,0,1.44-2,21.11,21.11,0,0,0,1-2.25c.37-.75.79-1.43,1.07-2.18s.62-1.53.83-2.3.37-1.62.52-2.39.3-1.66.38-2.42c.1-.92-.1-1.74-.07-2.45a6.9,6.9,0,0,1,.47-2.43"/><path class="cls-3" d="M329,149.62c-2,.24-1.51-.15-3.87.63-1.08.35-2.61.19-4,.82-1.11.51-1.83,2-3.07,2.76-1.07.65-2,1.55-3.13,2.39s-2.57.92-3.6,1.86-1.31,2.34-2.24,3.37-2,1.65-2.88,2.75-1.85,1.91-2.59,3.08-.52,2.7-1.15,3.92-2,2.11-2.63,3.31-1.42,2.42-2,3.61-1.5,2.37-2.13,3.56-.87,2.72-1.49,3.9-1.39,2.44-2,3.62-1.93,2.16-2.56,3.33-.69,2.83-1.32,4-.88,2.74-1.5,3.89c-.7,1.3-2.43,1.93-3,3.06-.72,1.32-.26,3.14-.87,4.25-.75,1.35-2.26,2.09-2.85,3.16-.81,1.44-.71,3.06-1.26,4-1.46,2.57-1.32,5.11-2.85,3.72s-.76-2.2-1.89-4-.7-2.07-1.84-3.87-1.84-1.35-3-3.16S268,205.83,266.9,204s-1-1.9-2.11-3.7-1-1.87-2.16-3.68-1.49-1.58-2.62-3.38-1.12-1.82-2.25-3.62-.7-2.08-1.83-3.88-1-1.87-2.18-3.67-1.73-1.42-2.87-3.23-.87-2-2-3.78-.15-2.65-2.2-3.25-1.91-.09-3.66.87-1.64,1.15-3.4,2.11-1.79.9-3.55,1.86-1.63,1.18-3.38,2.14-1.84.83-3.59,1.79-1.82.86-3.58,1.82"/><path class="cls-3" d="M229.62,193.78c.86,1.95.47,1.47,1.57,4,.49,1.1,2,2,2.69,3.46.52,1.19.31,2.84.94,4.24.54,1.22,1.53,2.34,2.14,3.71s1.51,2.37,2.11,3.72,1.1,2.56,1.7,3.9,1.09,2.58,1.69,3.9.14,3,.73,4.34,1.05,2.62,1.65,3.93,2.21,2.1,2.8,3.41.33,3,.93,4.26,1.29,2.52,1.88,3.82,2.09,2.17,2.68,3.46.17,3,.87,4.16,2,2,2.88,3a30.76,30.76,0,0,0,2.48,3.29,30.23,30.23,0,0,0,3.23,2.56,31.53,31.53,0,0,0,3.29,2.55c1.22.64,2.94.12,4.22.57s2.4,1.46,3.73,1.71,2.75-.19,4.1-.15a24.27,24.27,0,0,0,4-.37c1.35-.18,2.76.15,4.07-.25s2.88-.27,4.11-.88a26.43,26.43,0,0,0,3.51-2.3c1.08-.78,1.42-2.49,2.41-3.48s2.25-1.85,3.26-2.91,2.36-1.8,3.34-2.87,1.78-2.35,2.74-3.43,1.76-2.37,2.7-3.45,2-2.14,2.95-3.23,1.78-2.41,2.66-3.48,2.28-2.05,3.12-3.11c1-1.29,1.32-2.93,2.09-3.91a14.67,14.67,0,0,1,3.06-3.07"/><path class="cls-3" d="M447.27,263.93c-.35-2-.88-1.93-1.23-3.95s-.47-2-.82-4,.53-2.17.18-4.19-.58-2-.92-4-.76-1.95-1.1-4-.7-2-1.05-4-.56-2-.9-4,.72-2.2.38-4.23-.11-2.07-.46-4.09-1-1.91-1.38-3.93-.32-2-.66-4.06.32-2.13,0-4.16-1.17-1.89-1.51-3.92-.26-2-.6-4.07"/><path class="cls-3" d="M318.85,165.15c0,2.12-1,1.55-.93,4.25,0,1.19,1.23,2.59,1.26,4.21,0,1.29-1.35,2.72-1.32,4.24,0,1.33.38,2.74.41,4.22s.56,2.76.59,4.22-.4,2.79-.38,4.24,1,2.77,1,4.21-.92,2.81-.89,4.25.95,2.78,1,4.2-.69,2.82-.67,4.24.81,2.8.83,4.22-.37,2.82-.34,4.23-.68,2.84-.66,4.25.2,2.82.23,4.22.17,2.83.19,4.23-.18,2.84-.16,4.24.4,2.83.42,4.22-.46,2.86-.44,4.24.38,2.85.41,4.23.39,2.85.42,4.22-.72,2.89-.7,4.24.25,2.9.27,4.23c0,1.52.88,2.92.9,4.22,0,1.6-.77,3-.74,4.24a39.53,39.53,0,0,0,.49,4.21,9.73,9.73,0,0,0,1.24,3.56,8.48,8.48,0,0,0,2.13,2.9c1.52,1.56,1.06,1.45,2.83,2.13"/><path class="cls-3" d="M387.34,152.79c.61,2-.31,1.76.61,4.24.41,1.12,1,2.42,1.64,3.89.49,1.2.84,2.6,1.46,4s1.9,2.15,2.55,3.46,1.26,2.45,1.94,3.72.62,2.86,1.35,4.09,2.18,1.93,3,3.12,1.41,2.42,2.25,3.56,1.62,2.29,2.52,3.38,1.83,2.14,2.79,3.16,1.73,2.28,2.77,3.22,2.11,1.93,3.22,2.77,2.77.94,4,1.65a33.2,33.2,0,0,0,3.67,2c1.28.57,2.37,1.68,3.73,2.08a30.16,30.16,0,0,0,4.18.73c1.37.19,2.8-.46,4.23-.47a29,29,0,0,0,4.17,0,22.87,22.87,0,0,0,4.05-1.33c1.38-.47,3.21.06,4.45-.64s2.15-2.07,3.25-3,1.72-2.29,2.64-3.4,2.65-1.69,3.36-2.95.62-2.91,1.11-4.29a26,26,0,0,0,1.38-4.1,27.12,27.12,0,0,0,0-4.33c0-1.41.5-2.89.31-4.35a31.63,31.63,0,0,0-.94-4.26,34.13,34.13,0,0,0-1.39-4.14c-.51-1.16-.75-2.54-1.33-3.84s-1.51-2.23-2.09-3.5-1.72-2.14-2.3-3.4-.3-2.81-.87-4.05-1.18-2.42-1.76-3.65-1.74-2.16-2.31-3.39-.46-2.77-1-4-1.76-2.18-2.33-3.39-.91-2.59-1.47-3.78-.82-2.65-1.38-3.82-1.49-2.36-2-3.51c-.62-1.31-1.32-2.48-1.85-3.6-.67-1.39-1-2.74-1.49-3.78-1.1-2.29-.86-1.83-1.74-3.65"/><path class="cls-3" d="M326.49,371.49c-.06,2.09.51,2.1.45,4.19s-.61,2.07-.67,4.16-.3,2.08-.36,4.17.8,2.11.74,4.19-.15,2.09-.21,4.18.57,2.1.51,4.19-.46,2.08-.52,4.17-.63,2.07-.69,4.16-.33,2.08-.39,4.17.19,2.1.13,4.18-.36,2.09-.42,4.18-.1,2.09-.16,4.18,1.31,2.24.82,4.28-1.56.75-3.2,2.75a33.16,33.16,0,0,0-2.78,3c-.68,1-.85,2.51-1.57,3.79-.62,1.1-1.52,2.16-2.13,3.45s-1.35,2.3-1.87,3.62,0,2.81-.4,4.15-1.56,2.29-1.91,3.65-.17,2.68-.44,4-.36,2.62-.56,4-1.14,2.54-1.28,3.92-.28,2.66-.36,4,1,2.7,1,4.08-.14,2.64-.1,4-.81,2.71-.73,4.09,1.34,2.71,1.42,4.07.11,2.79.2,4.14-.29,2.82-.21,4.17-.47,2.84-.39,4.18,0,2.81.12,4.15.41,2.79.48,4.13.95,2.76,1,4.1-.95,2.87-.88,4.21,1.27,2.75,1.35,4.08-.52,2.86-.45,4.18-.23,2.85-.16,4.16c.07,1.47.7,2.82.77,4.11.07,1.49.17,2.87.23,4.15.07,1.51.55,2.87.6,4.12.07,1.58.38,2.94.42,4.14.07,1.71-.3,3.08-.27,4.16.1,3.78-.5,3.8-.5,3.8a43.86,43.86,0,0,0-3.68,3.68c-1,1.14-1.59,3-2.76,4.45-.92,1.15-2.09,2.24-2,3.52,0,1.13,1.3,2.16,2.11,3.5a22.44,22.44,0,0,0,2.41,3c.79.88,1.91,1.56,2.95,2.56.87.84,1.18,2.41,2.24,3.35s2.16,1.4,3.22,2.29,2.19,1.62,3.25,2.53,1.71,2.21,2.75,3.12,2.21,1.66,3.22,2.57,2.58,1.28,3.58,2.18,1.27,2.79,2.24,3.67,2.06,2,3,2.83c1.15,1,2.29,1.84,3.16,2.64a13.48,13.48,0,0,0,3.83,2.48"/><path class="cls-3" d="M380.67,359.68c-.5,2-.43,2-.92,4s0,2.12-.51,4.13-1.77,1.7-2.26,3.71.5,2.25,0,4.26-.9,1.91-1.39,3.92,0,2.13-.5,4.14-1.09,1.86-1.59,3.88.18,2.17-.31,4.18-1,1.89-1.48,3.9-.13,2.1-.63,4.11-1.29,1.81-1.78,3.82,0,2.13-.52,4.14-.32,2-.81,4.07-1.31,1.81-1.8,3.82.09,2.15-.4,4.16-1.18,1.84-1.67,3.85-.15,2.1-.64,4.11.15,2.17-.34,4.19-1,1.89-1.47,3.9-.91,1.91-1.41,3.92.65,2.29.16,4.3S359,446,358.5,448s-.88,1.92-1.37,3.93.4,2.23-.1,4.24-.65,2-1.14,4-.18,2.09-.67,4.1-.87,1.92-1.37,3.93-.57,2-1.06,4-.45,2-1,4-.91,1.91-1.4,3.93-.29,2.06-.79,4.07-.85,1.92-1.35,3.94-.5,2-1,4,.35,2.22-.14,4.24,0,2.12-.53,4.13-1.45,1.78-1.94,3.79-.81,1.94-1.3,3.95.73,2.31.23,4.33-1,1.87-1.53,3.89-.1,2.11-.6,4.12-.52,2-1,4-.73,2-1.22,4-.75,2-1.25,4,.21,2.19-.29,4.2-1.64,1.74-2.14,3.75-1,2.13-.72,4.18,1.1,1.72,2.09,3.4,1.4,1.44,2.39,3.12.23,2.13,1.23,3.81,1.32,1.48,2.32,3.16.69,1.86,1.69,3.54,1.43,1.42,2.43,3.1,1.4,1.44,2.39,3.12.33,2.11,1.56,3.63a18.69,18.69,0,0,0,2.59,3c1.46,1.33,1.59,1.19,3,2.52s1.91.85,3.37,2.18,1.28,1.53,2.74,2.87"/><path class="cls-3" d="M453.11,380.08c.06,2.07-.5,2.09-.44,4.17s.53,2.06.59,4.13.48,2.07.54,4.15-.72,2.1-.65,4.18.7,2.06.76,4.13-.83,2.11-.77,4.19.48,2.06.54,4.14-.43,2.09-.37,4.17,0,2.08.09,4.16.2,2.08.26,4.16.48,2,1,4,.3,1.34,1.94,3.34c.71.87,2,1.55,2.91,2.84.68,1,1.31,2.22,2,3.5.62,1.1,1.41,2.22,2,3.52s1.23,2.35,1.74,3.66,1,2.48,1.42,3.81,0,2.77.32,4.12.68,2.54,1,3.9,1.12,2.5,1.32,3.87.44,2.64.58,4,.14,2.67.22,4.05.29,2.66.31,4.05-.13,2.67-.17,4.05-.29,2.67-.37,4-.68,2.71-.76,4,.34,2.76.27,4.09.11,2.75,0,4.08-.08,2.74-.15,4.07-.54,2.72-.61,4.05.18,2.75.12,4.08.07,2.75,0,4.07,0,2.75-.09,4.07-.74,2.73-.79,4.05-.36,2.75-.4,4.06.53,2.78.49,4.09-.5,2.76-.53,4.06-.09,2.78-.1,4.07.48,2.79.47,4.07c0,1.45-.11,2.81-.1,4.07,0,1.48,0,2.83,0,4.06,0,1.53.26,2.87.31,4.05.07,1.66-.71,3-.63,4.11.25,3.14.66,1.94,1.25,3.88.76,2.47.13,2.15.83,5.13.35,1.49,1,3.16,1.35,5a6,6,0,0,1-.42,4c-.58,1-2.19,1.09-3.55,1.87-1,.56-1.84,1.7-3.25,2.2-1.11.4-2.49.33-3.88.71-1.17.31-2.35,1-3.72,1.3-1.2.27-2.49.51-3.86.78s-2.48,1.08-3.81,1.36-2.66.3-4,.6-2.84-.32-4.13,0-2.46,1.33-3.73,1.65-2.68.54-3.92.86-2.8.27-4,.59c-1.46.39-2.45,1.9-3.56,2.2-2.41.66-2.12-.15-4,.4"/><path class="cls-3" d="M390,327.3c.53,2,.16,2.09.69,4.09s0,2.13.53,4.13,1.1,1.84,1.63,3.84.52,2,1.05,4-.38,2.24.15,4.23,1.15,1.83,1.68,3.82l1.06,4c.53,2,.2,2.09.73,4.08s1.15,1.83,1.68,3.82.25,2.07.78,4.06,1,1.86,1.55,3.86-.42,2.24.11,4.23,1.43,1.76,2,3.75-.35,2.23.18,4.22,1,1.87,1.55,3.86,0,2.14.54,4.13,1.37,1.77,1.9,3.77.23,2.07.76,4.06-.14,2.17.39,4.17,1,1.86,1.57,3.85,1.15,1.83,1.68,3.83-.79,2.34-.26,4.34,1,1.87,1.52,3.86.54,2,1.07,4,.2,2.08.73,4.08.95,1.88,1.48,3.88,1.11,1.84,1.63,3.83-.39,2.24.14,4.24.73,1.94,1.27,3.94.82,1.91,1.35,3.91,1,1.86,1.55,3.86-.48,2.26.05,4.26.62,2,1.15,4,1.1,1.84,1.63,3.84.68,1.95,1.21,3.95.63,2,1.16,4,.5,2,1,4-.45,2.25.08,4.25,1.71,1.68,2.24,3.68-.47,2.26.06,4.26,1.35,1.78,1.88,3.77.09,2.11.62,4.11.56,2,1.08,4,.67,2,1.2,4,.63,2,1.16,4-.21,2.2.32,4.19,1.56,1.73,2.09,3.72-.68,2.32-.15,4.32.77,1.93,1.3,3.93.47,2,1,4,.64,2,1.17,4,.81,1.92,1.34,3.92.65,2,1.18,4,1.82,2.09,1,4-1.48,1.58-3.27,2.63-2.17.42-4,1.46-1.92.85-3.72,1.9-1.52,1.51-3.32,2.56-2.13.48-3.93,1.52-1.5,1.56-3.3,2.61-1.56,1.46-3.36,2.51-1.71,1.51-3.66,2.24c-2.4.89-2.81-.38-5.31.17s-2.36,1.16-4.86,1.71"/><path class="cls-3" d="M336.36,265.93c.79.92.51,1.16,1.3,2.08s1,.77,1.77,1.7.47,1.19,1.26,2.12,1,.77,1.76,1.7,1,.71,1.83,1.64.75,1,1.54,1.89"/><path class="cls-3" d="M417.76,272c.81-.9.47-1.22,1.28-2.12s.68-1,1.5-1.93,1.36-.4,2.18-1.3.8-.92,1.61-1.82.44-1.25,1.26-2.16.91-.81,1.73-1.72"/><path class="cls-3" d="M411.34,568.19c1.28-.27,1.33,0,2.62-.32s1.22-.57,2.51-.85,1.23-.51,2.52-.79"/><path class="cls-3" d="M414,573.78c1.29-.28,1.16-.87,2.45-1.14s1.25-.45,2.53-.72,1.38.17,2.67-.11"/><path class="cls-3" d="M416.52,578.28c1.28-.27,1.45.52,2.73.25s1.29-.3,2.57-.58,1.24-.51,2.52-.78"/><path class="cls-3" d="M354.93,583c1.27.91,1.1,1.15,2.37,2.06s1.07,1.2,2.34,2.11"/><path class="cls-3" d="M350.72,587.29c1.27.91,1.32.84,2.6,1.75s1.59.47,2.86,1.38"/><path class="cls-3" d="M346,589.29c1,1.21.92,1.26,1.91,2.47s1.53.78,2.52,2"/><path class="cls-7" d="M389.08,327.51c-.3-2.34-1.36-.93-4.26-1.65-1.29-.32-3.13.45-4.87,0-1.39-.36-2.62-1.91-4.25-2.36a10.74,10.74,0,0,0-4.72-.24c-1.81.35-2.26,1.92-2.47,3.45-.17,1.28-.87,3.07-.12,4.65a16.88,16.88,0,0,0,2.76,3.85c1,1.11,2.83,1.51,3.82,2.6s1.85,2.49,2.8,3.54c1.11,1.23,1.75,2.71,2.62,3.68,1.81,2,1.88,4.84,3.29,3.1s1.21-1.89,1.78-3.95-.57-2.37,0-4.43,1.64-1.77,2.2-3.84a28.46,28.46,0,0,1,1.11-4.07C389.52,329.84,389.34,329.63,389.08,327.51Z"/><path class="cls-9" d="M338.26,288.6c.88,1.48.46,1.73,1.34,3.21"/><path class="cls-9" d="M341.36,288.5c-.87,1.49-.82,1.51-1.7,3"/><path class="cls-9" d="M356.56,286.05c.88,1.48.63,1.63,1.51,3.11"/><path class="cls-9" d="M359.67,285.79c-.88,1.48-.59,1.65-1.46,3.13"/><path class="cls-9" d="M382.65,292.72c-.88,1.48-1.12,1.34-2,2.82"/><path class="cls-9" d="M379.22,292.48c.88,1.48.23,1.87,1.1,3.35"/><path class="cls-9" d="M398.36,283.63c.88,1.48.93,1.45,1.8,2.93"/><path class="cls-9" d="M402.05,283.28c-.88,1.48-.29,1.83-1.17,3.31"/><path class="cls-9" d="M423.46,294.12c.88,1.48.59,1.66,1.47,3.14"/><path class="cls-9" d="M427,293.77c-.88,1.49-.83,1.51-1.71,3"/><path class="cls-9" d="M438.15,276.88c.88,1.48,1.19,1.3,2.07,2.78"/><path class="cls-9" d="M441.24,276.5c-.87,1.48-.22,1.87-1.1,3.35"/><path class="cls-9" d="M454.92,301.83c-.87,1.48-.42,1.75-1.3,3.23"/><path class="cls-9" d="M452,301.55c.88,1.48-.18,2.11.69,3.59"/><path class="cls-9" d="M437,312.67c-.88,1.48-1.16,1.31-2,2.79"/><path class="cls-9" d="M432.68,312.57c.88,1.48,1,1.4,1.9,2.88"/><path class="cls-9" d="M413.55,317.47c.88,1.48.83,1.51,1.7,3"/><path class="cls-9" d="M416.4,317.45c-.88,1.48-.95,1.44-1.82,2.92"/><path class="cls-9" d="M394.32,309.73l-1.76,3"/><path class="cls-9" d="M391,309.63c.88,1.48.72,1.57,1.59,3.06"/><path class="cls-9" d="M360.29,316.45c-.88,1.48-1.61,1.05-2.49,2.53"/><path class="cls-9" d="M356.05,316.65c.88,1.48,1.59,1.06,2.47,2.54"/><path class="cls-9" d="M337.26,306.86c-.88,1.48-.78,1.54-1.65,3"/><path class="cls-9" d="M334,307.23c.88,1.48,1.34,1.21,2.22,2.69"/><path class="cls-9" d="M328.63,337.59c.88,1.48,1.42,1.16,2.29,2.64"/><path class="cls-9" d="M332.67,337.56c-.88,1.48-1,1.42-1.86,2.9"/><path class="cls-9" d="M350.21,334.66c.87,1.48.89,1.47,1.77,2.95"/><path class="cls-9" d="M353.51,334.78c-.88,1.48-1.35,1.21-2.22,2.69"/><path class="cls-9" d="M372.84,343.75c-.88,1.48-.28,1.84-1.16,3.32"/><path class="cls-9" d="M369.73,344c.88,1.48.72,1.57,1.6,3.05"/><path class="cls-9" d="M405.78,335.83c.88,1.48,0,2,.89,3.47"/><path class="cls-9" d="M408.31,335.79c-.88,1.48-.72,1.57-1.59,3.06"/><path class="cls-9" d="M428.31,346.29c.88,1.48-.18,2.1.7,3.59"/><path class="cls-9" d="M431,346.5c-.88,1.48-.7,1.59-1.58,3.07"/><path class="cls-9" d="M448.9,329.45c.88,1.49,1,1.4,1.91,2.88"/><path class="cls-9" d="M452.92,329.87c-.87,1.48-1.7,1-2.57,2.48"/><path class="cls-9" d="M334.43,358.35c.87,1.48,1,1.44,1.83,2.92"/><path class="cls-9" d="M337.85,358.59c-.87,1.48-1.54,1.09-2.42,2.57"/><path class="cls-9" d="M356.19,357.41c.87,1.48.76,1.55,1.64,3"/><path class="cls-9" d="M360.61,357.49c-.88,1.48-1.23,1.27-2.11,2.75"/><path class="cls-9" d="M411.86,358.53c.88,1.48,1.24,1.27,2.11,2.75"/><path class="cls-9" d="M414.86,358.16c-.88,1.48-.39,1.77-1.27,3.25"/><path class="cls-9" d="M437.29,364.88c.88,1.48.3,1.82,1.18,3.3"/><path class="cls-9" d="M440.8,365.29c-.88,1.48-1.84.91-2.71,2.39"/><path class="cls-9" d="M450.9,352.23c.88,1.48,1.09,1.36,2,2.84"/><path class="cls-9" d="M455.07,352c-.88,1.48-1.43,1.15-2.3,2.64"/><path class="cls-3" d="M363.21,283.51c.35,1.24.82.74,1.28,2.31.21.7.16,1.62.45,2.56.22.75.21,1.66.49,2.55s.88,1.47,1.15,2.33.33,1.67.61,2.52.35,1.67.63,2.51,1.15,1.41,1.43,2.24.07,1.78.36,2.6.86,1.51,1.16,2.33.67,1.58,1,2.38.16,1.79.47,2.59.61,1.62.94,2.42,1.31,1.32,1.65,2.1.62,1.62,1,2.39"/><path d="M421.06,176.53c-.44,2.13-1.17-1.2-2.73-3.16a31.28,31.28,0,0,1-2-3.85c-.71-1.26-1.83-2.36-2.19-3.75a8.72,8.72,0,0,1,.38-4.23,12.75,12.75,0,0,1,1.58-3.39c1.05-1.92.72-5.27,1.72-3.6,1.15,1.9.29,2.26.65,4.45s1,2.09,1.35,4.29,0,2.25.34,4.45-.39,2.35.16,4.51S421.51,174.35,421.06,176.53Z"/><path class="cls-3" d="M421.06,176.53c-.44,2.13-1.17-1.2-2.73-3.16a31.28,31.28,0,0,1-2-3.85c-.71-1.26-1.83-2.36-2.19-3.75a8.72,8.72,0,0,1,.38-4.23,12.75,12.75,0,0,1,1.58-3.39c1.05-1.92.72-5.27,1.72-3.6,1.15,1.9.29,2.26.65,4.45s1,2.09,1.35,4.29,0,2.25.34,4.45-.39,2.35.16,4.51S421.51,174.35,421.06,176.53Z"/><path class="cls-3" d="M412.38,133.75a17.34,17.34,0,0,0,2.44.27,19.22,19.22,0,0,0,2.43-.37c.83-.1,1.68,0,2.47-.13s1.59-.46,2.35-.72,1.71-.26,2.44-.58,1.47-.87,2.16-1.25,1.33-1.09,2-1.5,1.52-.89,2.08-1.32c1.2-.92.65-1.1,1.53-2"/><path class="cls-3" d="M247.89,185.63c-1.95,1-1.77,1.38-3.71,2.41s-2.11.73-4.05,1.76-1.7,1.49-3.65,2.52-1.72,1.45-3.67,2.48-2.18.59-4.13,1.63-2.17.62-4.12,1.65"/><path class="cls-3" d="M220.71,173.81a8,8,0,0,0-1.86-3.36c-.76-.87-2.59-1-3.55-2.14-.82-.94-1.27-2.31-2.18-3.34s-2-1.7-2.92-2.68-1.76-2-2.61-3-1.67-2.21-2.47-3.08c-1.16-1.24-1.92-2.42-2.54-3-.77-.74-2.13-1.36-2.84-2.48s-.18-2.69-.71-3.78-1.32-2.18-1.73-3.2a34.68,34.68,0,0,1-1.37-3.36"/><path class="cls-3" d="M216.42,129.63a20.33,20.33,0,0,0,1.64,3.62c.56,1,1.53,2,2.35,3.21.7,1,1.16,2.35,2,3.44a36.32,36.32,0,0,0,2.6,3c1.06,1.06,2.25,2.11,3.42,3.17s2.09,2.42,3.24,3.38,2.66,2,3.73,2.8c2.17,1.74,1.59,1.77,3.45,3.16"/><path class="cls-3" d="M235.4,138c.79,1.19,1.74,2.24,2.55,3.37s1,2.79,1.84,3.9,2.21,1.92,3,3,1.11,2.71,1.86,3.84,1.85,2.2,2.48,3.39,1.87,2.36,2.26,3.65a14,14,0,0,1,.12,4.28,12.29,12.29,0,0,1-1.21,3.94c-.45,1.21-.08,3-1,4.27"/><path class="cls-3" d="M208.32,132.33c.85,2,1.08,1.26,2.46,3.56.63,1.06.9,2.61,1.85,3.93.78,1.08,2.2,1.78,3.21,3s1.49,2.42,2.57,3.47,2.31,1.63,3.48,2.56"/><path class="cls-3" d="M202.25,136c1,2,.39,1.76,1.74,4,.66,1.11,1.51,2.34,2.42,3.67.79,1.16,2.05,2,3,3.21s.92,3.14,1.94,4.16"/><path class="cls-3" d="M230.19,143.9c-1.67.94-1.47,1.31-3.14,2.25s-1.88.56-3.55,1.5S222,149,220.37,149.9s-1.74.82-3.41,1.76l-3.35,1.88c-1.67.94-1.51,1.23-3.18,2.17"/><path class="cls-3" d="M231,170.23c.09-1.48-1.21-2.72-1.49-4s-.17-2.83-.84-4a15.36,15.36,0,0,0-2.68-3.09c-1-1-1.6-2.57-2.7-3.28-1.25-.82-2.83-1-3.94-1.5-2.2-1-1.83-1.09-3.83-1.59"/><path d="M226.32,182.81c.17,1.63-1.49,1.45-2.95,2.36-.92.58-2.18.16-3.24.21-1.7.09-.53-.75,1-2.17s1.17-2.29,3.22-2.53C225.88,180.5,226.19,181.48,226.32,182.81Z"/><path class="cls-3" d="M226.32,182.81c.17,1.63-1.49,1.45-2.95,2.36-.92.58-2.18.16-3.24.21-1.7.09-.53-.75,1-2.17s1.17-2.29,3.22-2.53C225.88,180.5,226.19,181.48,226.32,182.81Z"/><path d="M276.22,218.24c-.54,1.76.52,1.48,1.61,3.34a29.31,29.31,0,0,0,2.48,2.71,17.22,17.22,0,0,0,2.43,2.64,12,12,0,0,0,3,1.88c2.37,1,2.7.57,2.89-.82.15-1.14.63-2.81.11-4.4s-1.87-2.86-2.33-3.87-.52-2.52-1.09-4c-.51-1.27-1.32-2.49-1.77-3.68-.82-2.14.69-4.62-1-3.52a5.66,5.66,0,0,0-2.75,2.69c-1,1.68-.28,2.14-1.43,3.72S276.8,216.37,276.22,218.24Z"/><path class="cls-3" d="M276.22,218.24c-.54,1.76.52,1.48,1.61,3.34a29.31,29.31,0,0,0,2.48,2.71,17.22,17.22,0,0,0,2.43,2.64,12,12,0,0,0,3,1.88c2.37,1,2.7.57,2.89-.82.15-1.14.63-2.81.11-4.4s-1.87-2.86-2.33-3.87-.52-2.52-1.09-4c-.51-1.27-1.32-2.49-1.77-3.68-.82-2.14.69-4.62-1-3.52a5.66,5.66,0,0,0-2.75,2.69c-1,1.68-.28,2.14-1.43,3.72S276.8,216.37,276.22,218.24Z"/><path class="cls-12" d="M294.18,299.28c1.61,1.61,1.47,1.75,3.08,3.36"/><path class="cls-12" d="M297.2,309.38c-1,1-.78,1.31-1.82,2.34s-.9,1.18-1.94,2.22"/><path class="cls-12" d="M304.42,309.53c1.62,1.61,1.48,1.75,3.09,3.36"/><path class="cls-12" d="M308.38,298.21c-1,1-.78,1.3-1.82,2.34s-.9,1.17-1.94,2.21"/><path class="cls-12" d="M278.77,280.67c1.39,0,1.39.19,2.78.19s1.4-.45,2.79-.45,1.39.33,2.79.33,1.39,0,2.79,0"/><path class="cls-12" d="M284.1,275.14c0,1.39.37,1.39.37,2.78s.19,1.39.19,2.78.06,1.4.06,2.79-.3,1.4-.3,2.79"/><path class="cls-12" d="M465.23,275c1.39,0,1.39-.18,2.78-.18s1.39.74,2.78.74,1.4-.51,2.79-.51,1.4.34,2.79.34"/><path class="cls-12" d="M471,269.56c0,1.4,0,1.4,0,2.79s.14,1.39.14,2.78-.64,1.4-.64,2.79.56,1.39.56,2.79"/><path class="cls-12" d="M472.45,343c1,1,.84,1.13,1.83,2.11s1.3.67,2.29,1.65.75,1.22,1.74,2.2,1,1,1.95,2"/><path class="cls-12" d="M480.13,342.85c-1,1-.72,1.25-1.71,2.23s-.84,1.12-1.83,2.11-.95,1-1.93,2-1.2.77-2.19,1.76"/><path class="cls-12" d="M491.64,309.57c1.61,1.61,1.47,1.75,3.08,3.36"/><path class="cls-12" d="M494.66,319.68c-1,1-.78,1.3-1.82,2.34s-.9,1.17-1.94,2.21"/><path class="cls-12" d="M501.88,319.82c1.62,1.61,1.48,1.75,3.09,3.36"/><path class="cls-12" d="M505.84,308.5c-1,1-.78,1.3-1.82,2.34s-.9,1.17-1.94,2.21"/><path class="cls-3" d="M340.27,422.42c.23,1.2.63,1.12.86,2.31s-.61,1.36-.38,2.55.52,1.14.75,2.34.24,1.19.47,2.39,0,1.23.25,2.43.5,1.15.73,2.34"/><path class="cls-3" d="M438.41,422.32c-.13,1.2.44,1.27.3,2.48s-.7,1.14-.84,2.35.18,1.24,0,2.45-.48,1.17-.62,2.38.41,1.28.27,2.49-.33,1.18-.47,2.4"/><path d="M17.27,307.82a8,8,0,0,1-1.35,3.64,7.59,7.59,0,0,1-2.67,2.64,7.37,7.37,0,0,1-3.62.76,6.68,6.68,0,0,1-3.34-1.25,6.85,6.85,0,0,1-2.78-2.25,7.08,7.08,0,0,1-.81-3.54A6.5,6.5,0,0,1,4,304.55a6.86,6.86,0,0,1,2.17-2.81,6.87,6.87,0,0,1,3.51-.5,6.1,6.1,0,0,1,3.22,1c1.06.61,2.37.94,3,2A7.83,7.83,0,0,1,17.27,307.82Z"/></g></g></g></svg>